<svg id="Layer_1" data-name="Layer 1" xmlns="http://www.w3.org/2000/svg" viewBox="0 0 200 200"><defs><style>.cls-1{fill:#192318;}.cls-2{fill:#fff;}</style></defs><rect class="cls-1" width="200" height="200"/><path class="cls-2" d="M25.73,59.33a2.86,2.86,0,0,1,1-2H42.89v2.8l-.52.76L36.76,73.23H33l6-13.48H25.78a1,1,0,0,0,0-.21C25.74,59.45,25.73,59.38,25.73,59.33Zm.2,20.56V63a2.79,2.79,0,0,1,.82-.13,2.72,2.72,0,0,1,1.26.3,9.92,9.92,0,0,1,1.36.87V79.89Z" transform="translate(0 0)"/><path class="cls-2" d="M45.9,59.75a3.5,3.5,0,0,1,1-2.63h3.8v7.26L47.26,66V59.75Z" transform="translate(0 0)"/><path class="cls-2" d="M53.63,72.31a2,2,0,0,1,.76-1.62A7,7,0,0,0,56,71a1.73,1.73,0,0,0,1.26-.54,2.64,2.64,0,0,0,.71-1V59.75H55.68A3.07,3.07,0,0,1,55.6,59a2.2,2.2,0,0,1,.8-1.7H67.74a5.13,5.13,0,0,1,3,.8,5.74,5.74,0,0,1,2.6,5.07v10H69.89V62.9A4.58,4.58,0,0,0,68.79,61a4.11,4.11,0,0,0-1.92-1.2H61.46V70.11a3.42,3.42,0,0,1-2.23,2.83,9.3,9.3,0,0,1-2.75.52A7.56,7.56,0,0,1,55,73.28a5.91,5.91,0,0,1-1.31-.4A3.66,3.66,0,0,1,53.63,72.31Z" transform="translate(0 0)"/><path class="cls-2" d="M76.29,59.2A3.15,3.15,0,0,1,77,57.32h7.68A11.69,11.69,0,0,1,89,58a5,5,0,0,1,2.39,2.08,4,4,0,0,1,.68,1.67,21.17,21.17,0,0,1,.16,3.16v8.35H88.81V63.71a3.76,3.76,0,0,0-4-4h-8.5A3.12,3.12,0,0,1,76.29,59.2Zm.65,14V63.47a7.08,7.08,0,0,1,3,1v8.75Z" transform="translate(0 0)"/><path class="cls-2" d="M102.91,53.07a4.37,4.37,0,0,1,.2-1.38,2.29,2.29,0,0,1,.84-1h3.91v6.78h10.63v2.74L112.2,73.23h-3.76l6.26-13.38h-10V53.07Z" transform="translate(0 0)"/><path class="cls-2" d="M121.3,59.75V59.5a6.29,6.29,0,0,1,0-.7,2.34,2.34,0,0,1,.2-.63,4.65,4.65,0,0,1,.5-.85h4.43V73.23H123V59.75Z" transform="translate(0 0)"/><path class="cls-2" d="M130.67,73.23a3.43,3.43,0,0,1,.72-2.43h7.78A3.66,3.66,0,0,0,142,69.06a6.83,6.83,0,0,0,1.32-4.27,7,7,0,0,0-.84-3.62A2.75,2.75,0,0,0,140,59.75h-5.89V63.4a1.67,1.67,0,0,0,1.63,1.32,5.27,5.27,0,0,0,.76-.07l.59-.08a1.8,1.8,0,0,1,.21.84,2.88,2.88,0,0,1-.21,1,10.89,10.89,0,0,1-2.11.22,4,4,0,0,1-4.31-3.05V57.32h10.19a5.84,5.84,0,0,1,2,.34,4.54,4.54,0,0,1,1.56.92,7.28,7.28,0,0,1,1.1,1.32,6,6,0,0,1,.73,1.61,11.51,11.51,0,0,1,.38,1.71,10.56,10.56,0,0,1,.13,1.68A9.08,9.08,0,0,1,143.27,72a5.93,5.93,0,0,1-3.59,1.25Z" transform="translate(0 0)"/><path class="cls-2" d="M149,59.75a3.5,3.5,0,0,1,1-2.63h3.8v7.26L150.32,66V59.75Z" transform="translate(0 0)"/><path class="cls-2" d="M157.7,59.33a2.87,2.87,0,0,1,1-2h16.12v2.8l-.52.76-5.61,12.35H165l6-13.48H157.75s0-.12,0-.21A1,1,0,0,1,157.7,59.33Zm.2,20.56V63a2.84,2.84,0,0,1,.82-.13,2.72,2.72,0,0,1,1.26.3,10,10,0,0,1,1.37.87V79.89Z" transform="translate(0 0)"/><path class="cls-2" d="M64.25,95.75s0-.22.08-.52a4.48,4.48,0,0,1,.12-.66,5.48,5.48,0,0,1,.22-.57,2.88,2.88,0,0,1,.43-.68h4.18V116.1H65.83V95.75Z" transform="translate(0 0)"/><path class="cls-2" d="M72.43,95.75V95.5a6.29,6.29,0,0,1,0-.7,2.34,2.34,0,0,1,.2-.63,4.65,4.65,0,0,1,.5-.85h4.43v15.91H74.15V95.75Z" transform="translate(0 0)"/><path class="cls-2" d="M81.08,95.75a3.54,3.54,0,0,1,1-2.63h3.81v7.26L82.44,102V95.75Z" transform="translate(0 0)"/><path class="cls-2" d="M89.83,95.33a2.87,2.87,0,0,1,1-2H107v2.8l-.52.76-5.61,12.35H97.14l6-13.48H89.88a1,1,0,0,0,0-.21C89.84,95.45,89.83,95.38,89.83,95.33Zm.2,20.56V99a2.79,2.79,0,0,1,.82-.13,2.72,2.72,0,0,1,1.26.3,9.35,9.35,0,0,1,1.36.87v15.89Z" transform="translate(0 0)"/><path class="cls-2" d="M110,95.75a3.54,3.54,0,0,1,1-2.63h3.81v7.26L111.36,102V95.75Z" transform="translate(0 0)"/><path class="cls-2" d="M117.93,108.85a2.86,2.86,0,0,1,1-2h4.69V97.44a3.1,3.1,0,0,0-.12-1,.92.92,0,0,0-.4-.51,1.45,1.45,0,0,0-.49-.19,4.59,4.59,0,0,0-.6,0h-3A3.62,3.62,0,0,1,120,93.32h3.19a4.17,4.17,0,0,1,2.78.9,3.58,3.58,0,0,1,1.07,2.9v12.11H118a1,1,0,0,0,0-.19C117.94,109,117.93,108.89,117.93,108.85Z" transform="translate(0 0)"/><path class="cls-2" d="M130,95.75V95.5a6.29,6.29,0,0,1,0-.7,2,2,0,0,1,.2-.63,4.14,4.14,0,0,1,.5-.85h4.43v15.91h-3.45V95.75Z" transform="translate(0 0)"/><path class="cls-2" d="M20.07,125.07a4.37,4.37,0,0,1,.2-1.38,2.29,2.29,0,0,1,.84-1H25v6.78H35.65v2.74l-6.29,13.07H25.6l6.26-13.38h-10v-6.78Z" transform="translate(0 0)"/><path class="cls-2" d="M38.46,131.75v-.25a6.29,6.29,0,0,1,0-.7,2.34,2.34,0,0,1,.2-.63,4.65,4.65,0,0,1,.5-.85h4.43v15.91H40.18V131.75Z" transform="translate(0 0)"/><path class="cls-2" d="M47.83,145.23a3.43,3.43,0,0,1,.72-2.43h7.78a3.66,3.66,0,0,0,2.87-1.74,6.83,6.83,0,0,0,1.32-4.27,7,7,0,0,0-.84-3.62,2.74,2.74,0,0,0-2.52-1.42H51.27v3.65a1.67,1.67,0,0,0,1.63,1.32,5.27,5.27,0,0,0,.76-.07l.59-.08a1.8,1.8,0,0,1,.21.84,2.88,2.88,0,0,1-.21,1,10.89,10.89,0,0,1-2.11.22,4,4,0,0,1-4.31-3.05v-6.22H58a5.84,5.84,0,0,1,2,.34,4.45,4.45,0,0,1,1.56.92,7,7,0,0,1,1.1,1.32,6,6,0,0,1,.73,1.61,11.51,11.51,0,0,1,.38,1.71,10.44,10.44,0,0,1,.13,1.67A8.69,8.69,0,0,1,63,140.8a8.56,8.56,0,0,1-2.6,3.17,5.88,5.88,0,0,1-3.59,1.26Z" transform="translate(0 0)"/><path class="cls-2" d="M66.12,131.75a3.5,3.5,0,0,1,1-2.63h3.8v7.26L67.48,138v-6.21Z" transform="translate(0 0)"/><path class="cls-2" d="M74.11,131.75a3.89,3.89,0,0,1,.82-2.66h4v10.56a3.09,3.09,0,0,0,.44,1.65,3.45,3.45,0,0,0,1.16,1.18,6.74,6.74,0,0,0,1.46.7,7.31,7.31,0,0,0,1.5.32,5.54,5.54,0,0,0,3.62-1.13,4.89,4.89,0,0,0,1.75-2.73,8.54,8.54,0,0,0,.29-2.15c0-4.13-1.42-6.19-4.24-6.19a3.77,3.77,0,0,0-.58,0,3.08,3.08,0,0,0-.52.12l-.44.15-.36.17-.27.17-.16.11-.06.05c-.15,0-.23-.46-.23-1.27a2.77,2.77,0,0,1,.23-1.29,8.88,8.88,0,0,1,3.57-.68,7.07,7.07,0,0,1,2.61.45,5.06,5.06,0,0,1,1.87,1.24,6.41,6.41,0,0,1,1.18,1.88,9.6,9.6,0,0,1,.65,2.3,16.29,16.29,0,0,1,.19,2.6,9.2,9.2,0,0,1-.58,3.35,7.44,7.44,0,0,1-1.7,2.66,7.53,7.53,0,0,1-2.91,1.77,12.4,12.4,0,0,1-4.11.64A8.67,8.67,0,0,1,77.72,144a5.43,5.43,0,0,1-2.19-4.39v-7.85Z" transform="translate(0 0)"/><path class="cls-2" d="M95.08,131.2a3.15,3.15,0,0,1,.68-1.88h7.69a11.63,11.63,0,0,1,4.36.65,5.07,5.07,0,0,1,2.4,2.08,4.13,4.13,0,0,1,.68,1.67,22.66,22.66,0,0,1,.16,3.16v8.35H107.6v-9.52a3.88,3.88,0,0,0-1.09-2.87,3.93,3.93,0,0,0-2.88-1.09h-8.5A3.12,3.12,0,0,1,95.08,131.2Zm.65,14v-9.76a7,7,0,0,1,3,1v8.75Z" transform="translate(0 0)"/><path class="cls-2" d="M122.66,144.31a2,2,0,0,1,.76-1.62,7,7,0,0,0,1.65.34,1.76,1.76,0,0,0,1.26-.54,2.76,2.76,0,0,0,.71-1v-9.73h-2.33a3.13,3.13,0,0,1-.08-.73,2.2,2.2,0,0,1,.8-1.7h11.33a5.14,5.14,0,0,1,3,.8,5.73,5.73,0,0,1,2.6,5.07v10h-3.45V134.9a4.45,4.45,0,0,0-1.09-2,4.11,4.11,0,0,0-1.92-1.2h-5.41v10.36c-.38,1.57-1.12,2.51-2.23,2.83a9.3,9.3,0,0,1-2.75.52,7.56,7.56,0,0,1-1.49-.18,5.91,5.91,0,0,1-1.31-.4A3.66,3.66,0,0,1,122.66,144.31Z" transform="translate(0 0)"/><path class="cls-2" d="M144.61,131.17a3,3,0,0,1,.69-1.85h5.32A11.45,11.45,0,0,1,155,130a5,5,0,0,1,2.38,2.09,3.81,3.81,0,0,1,.68,1.67,21,21,0,0,1,.16,3.16v8.33h-3.44v-9.51a3.85,3.85,0,0,0-1.1-2.87,3.9,3.9,0,0,0-2.88-1.1h-6.13A2.52,2.52,0,0,1,144.61,131.17Z" transform="translate(0 0)"/><path class="cls-2" d="M161.09,131.75a3.5,3.5,0,0,1,1-2.63h3.8v7.26L162.45,138v-6.21Z" transform="translate(0 0)"/><path class="cls-2" d="M168.72,131.35a3.34,3.34,0,0,1,.94-2h8.89a2,2,0,0,1,.1.61,2.47,2.47,0,0,1-.89,1.82,1.66,1.66,0,0,0-.56-.07c-.45,0-1,.39-1.75,1.19a3.32,3.32,0,0,0-1.08,2v10.33H171.2V137.3a8.34,8.34,0,0,1,.53-3.12,6.79,6.79,0,0,1,1.78-2.43h-4.76a1.72,1.72,0,0,0,0-.2C168.73,131.46,168.72,131.39,168.72,131.35Z" transform="translate(0 0)"/></svg>