<svg id="Layer_1" data-name="Layer 1" xmlns="http://www.w3.org/2000/svg" viewBox="0 0 200.75 200.75"><defs><style>.cls-1{fill:#192318;stroke:#fff;stroke-miterlimit:10;stroke-width:0.75px;}.cls-2{fill:#fff;}</style></defs><rect class="cls-1" x="0.38" y="0.38" width="200" height="200"/><text x="0.38" y="0.38"/><path class="cls-2" d="M21.41,47.5V45.75A1,1,0,0,1,21.7,45a.94.94,0,0,1,.69-.29h.74a.47.47,0,0,0,.35-.15.48.48,0,0,0,.14-.35V37.74a.5.5,0,0,0-.14-.35.47.47,0,0,0-.35-.15h-.25a.94.94,0,0,1-.69-.29,1,1,0,0,1-.29-.71V34.5a1,1,0,0,1,.29-.71.91.91,0,0,1,.69-.29h12a.91.91,0,0,1,.69.29,1,1,0,0,1,.29.71V47.62a1,1,0,0,1-.29.71,1,1,0,0,1-1.38,0,1,1,0,0,1-.29-.71V37.74a.5.5,0,0,0-.14-.35.47.47,0,0,0-.35-.15H26.07a.47.47,0,0,0-.35.15.5.5,0,0,0-.14.35V47.5a1,1,0,0,1-.29.7.92.92,0,0,1-.69.3H22.39a.92.92,0,0,1-.69-.3A1,1,0,0,1,21.41,47.5Z" transform="translate(0.38 0.38)"/><path class="cls-2" d="M38.27,47.5v-13a1,1,0,0,1,.29-.71.91.91,0,0,1,.69-.29H50.74a.91.91,0,0,1,.69.29,1,1,0,0,1,.29.71v8.58A2.38,2.38,0,0,1,51,44.81l-2.91,2.95a2.35,2.35,0,0,1-1.73.74H39.25a.92.92,0,0,1-.69-.3A1,1,0,0,1,38.27,47.5Zm2-3.25a.48.48,0,0,0,.14.35.47.47,0,0,0,.35.15h4.77A2.31,2.31,0,0,0,47.21,44l1.87-1.92a2.34,2.34,0,0,0,.68-1.73V37.74a.46.46,0,0,0-.14-.35.45.45,0,0,0-.34-.15H40.72a.47.47,0,0,0-.35.15.5.5,0,0,0-.14.35Z" transform="translate(0.38 0.38)"/><path class="cls-2" d="M54.15,36.24V34.5a1,1,0,0,1,.29-.71.91.91,0,0,1,.69-.29h4.16a.91.91,0,0,1,.69.29,1,1,0,0,1,.28.71v6.75A1,1,0,0,1,60,42a.92.92,0,0,1-.69.3.9.9,0,0,1-.69-.3,1,1,0,0,1-.28-.7V37.74a.5.5,0,0,0-.14-.35.49.49,0,0,0-.35-.15h-2.7a.94.94,0,0,1-.69-.29A1,1,0,0,1,54.15,36.24Z" transform="translate(0.38 0.38)"/><path class="cls-2" d="M62.7,36.24V34.5a.94.94,0,0,1,.29-.71.91.91,0,0,1,.69-.29H74.43a.91.91,0,0,1,.69.29,1,1,0,0,1,.29.71V47.62a1,1,0,0,1-.29.71,1,1,0,0,1-1.38,0,1,1,0,0,1-.28-.71V37.74a.5.5,0,0,0-.14-.35.47.47,0,0,0-.35-.15H63.68a1,1,0,0,1-1-1Z" transform="translate(0.38 0.38)"/><path class="cls-2" d="M77.84,47.5V45.75a1,1,0,0,1,.29-.71.94.94,0,0,1,.69-.29h9.53a.47.47,0,0,0,.35-.15.48.48,0,0,0,.14-.35V37.74a.5.5,0,0,0-.14-.35.47.47,0,0,0-.35-.15H80.29a.47.47,0,0,0-.35.15.46.46,0,0,0-.14.35v.91a.46.46,0,0,0,.14.35.47.47,0,0,0,.35.15H81a.91.91,0,0,1,.69.29,1,1,0,0,1,.28.71v1.74a1,1,0,0,1-.28.71.91.91,0,0,1-.69.29H78.82a.91.91,0,0,1-.69-.29,1,1,0,0,1-.29-.71V34.5a1,1,0,0,1,.29-.71.91.91,0,0,1,.69-.29h11a.91.91,0,0,1,.69.29,1,1,0,0,1,.29.71v13a1,1,0,0,1-.29.7.92.92,0,0,1-.69.3h-11a.92.92,0,0,1-.69-.3A1,1,0,0,1,77.84,47.5Z" transform="translate(0.38 0.38)"/><path class="cls-2" d="M93.23,47.5V45.75a1,1,0,0,1,.29-.71.94.94,0,0,1,.69-.29h9.05a.45.45,0,0,0,.34-.15.45.45,0,0,0,.15-.35V37.74a.47.47,0,0,0-.15-.35.45.45,0,0,0-.34-.15H94.21a.94.94,0,0,1-.69-.29,1,1,0,0,1-.29-.71V34.5a1,1,0,0,1,.29-.71.91.91,0,0,1,.69-.29h10.51a.94.94,0,0,1,.7.29,1,1,0,0,1,.28.71v9.75a.5.5,0,0,0,.49.5h.73a.94.94,0,0,1,.69.29,1,1,0,0,1,.29.71V47.5a1,1,0,0,1-.29.7.92.92,0,0,1-.69.3H94.21a.92.92,0,0,1-.69-.3A1,1,0,0,1,93.23,47.5Z" transform="translate(0.38 0.38)"/><path class="cls-2" d="M120.1,36.24V34.5a1,1,0,0,1,.29-.71.91.91,0,0,1,.69-.29h11.49a.91.91,0,0,1,.69.29.94.94,0,0,1,.29.71V47.62a1,1,0,0,1-1.67.71,1,1,0,0,1-.29-.71V37.74a.46.46,0,0,0-.14-.35.45.45,0,0,0-.34-.15h-10a.94.94,0,0,1-.69-.29A1,1,0,0,1,120.1,36.24Zm0,11.26V42a1,1,0,0,1,.29-.71,1,1,0,0,1,1.38,0,1,1,0,0,1,.29.71v2.25a.48.48,0,0,0,.14.35.47.47,0,0,0,.35.15h.74A.94.94,0,0,1,124,45a1,1,0,0,1,.29.71V47.5a1,1,0,0,1-.29.7.92.92,0,0,1-.69.3h-2.21a.92.92,0,0,1-.69-.3A1,1,0,0,1,120.1,47.5Z" transform="translate(0.38 0.38)"/><path class="cls-2" d="M136,36.24V34.5a1,1,0,0,1,.28-.71.91.91,0,0,1,.69-.29h10.75a.91.91,0,0,1,.7.29,1,1,0,0,1,.28.71V47.62a1,1,0,0,1-.28.71,1,1,0,0,1-.7.29.92.92,0,0,1-.68-.29,1,1,0,0,1-.28-.71V37.74a.5.5,0,0,0-.14-.35.49.49,0,0,0-.35-.15H137a.94.94,0,0,1-.69-.29A1,1,0,0,1,136,36.24Z" transform="translate(0.38 0.38)"/><path class="cls-2" d="M151.13,36.24V34.5a1,1,0,0,1,.28-.71.91.91,0,0,1,.7-.29h5.38a.91.91,0,0,1,.69.29,1,1,0,0,1,.29.71v1.74a1,1,0,0,1-.29.71.94.94,0,0,1-.69.29h-1a.47.47,0,0,0-.35.15.5.5,0,0,0-.14.35v9.88a1,1,0,0,1-.29.71,1,1,0,0,1-1.38,0,1,1,0,0,1-.29-.71V37.74a.5.5,0,0,0-.14-.35.47.47,0,0,0-.35-.15h-1.46a1,1,0,0,1-.7-.29A1,1,0,0,1,151.13,36.24Z" transform="translate(0.38 0.38)"/><path class="cls-2" d="M160.9,47.5V45.75a1,1,0,0,1,.29-.71.94.94,0,0,1,.69-.29h1.72a.45.45,0,0,0,.34-.15.45.45,0,0,0,.15-.35V37.74a.47.47,0,0,0-.15-.35.45.45,0,0,0-.34-.15h-1.72a.94.94,0,0,1-.69-.29,1,1,0,0,1-.29-.71V34.5a1,1,0,0,1,.29-.71.91.91,0,0,1,.69-.29h3.18a.91.91,0,0,1,.69.29,1,1,0,0,1,.28.71v9.75a.48.48,0,0,0,.14.35.47.47,0,0,0,.35.15h5.62a.47.47,0,0,0,.35-.15.48.48,0,0,0,.14-.35V37.74a.5.5,0,0,0-.14-.35.47.47,0,0,0-.35-.15h-1.71a.94.94,0,0,1-.69-.29,1,1,0,0,1-.28-.71V34.5a1,1,0,0,1,.28-.71.91.91,0,0,1,.69-.29h3.18a.91.91,0,0,1,.69.29,1,1,0,0,1,.29.71v13a1,1,0,0,1-.29.7.92.92,0,0,1-.69.3H161.88a.92.92,0,0,1-.69-.3A1,1,0,0,1,160.9,47.5Z" transform="translate(0.38 0.38)"/><path class="cls-2" d="M39.62,66.24V57a1,1,0,0,1,.29-.71A.94.94,0,0,1,40.6,56h2a.94.94,0,0,1,.69.29,1,1,0,0,1,.28.71v1.75a1,1,0,0,1-.28.7.92.92,0,0,1-.69.3h-.49a.5.5,0,0,0-.35.14.48.48,0,0,0-.14.36V63a.48.48,0,0,0,.14.36.47.47,0,0,0,.35.15h10a.91.91,0,0,1,.69.29,1,1,0,0,1,.29.71v13a1,1,0,0,1-.29.7.92.92,0,0,1-.69.3H46.71a.92.92,0,0,1-.69-.3,1,1,0,0,1-.29-.7V75.75A1,1,0,0,1,46,75a.94.94,0,0,1,.69-.29h3.91A.47.47,0,0,0,51,74.6a.48.48,0,0,0,.14-.35V67.74a.5.5,0,0,0-.14-.35.47.47,0,0,0-.35-.15h-10a.94.94,0,0,1-.69-.29A1,1,0,0,1,39.62,66.24Z" transform="translate(0.38 0.38)"/><path class="cls-2" d="M55.5,66.24V64.5a1,1,0,0,1,.29-.71.91.91,0,0,1,.69-.29h4.15a.94.94,0,0,1,.7.29,1,1,0,0,1,.28.71V77.62a1,1,0,0,1-1,1,.91.91,0,0,1-.68-.29,1,1,0,0,1-.28-.71V67.74a.47.47,0,0,0-.15-.35.45.45,0,0,0-.34-.15h-2.7a.94.94,0,0,1-.69-.29A1,1,0,0,1,55.5,66.24Z" transform="translate(0.38 0.38)"/><path class="cls-2" d="M64.05,77.5V75.75a1,1,0,0,1,.28-.71.94.94,0,0,1,.69-.29h1.72a.47.47,0,0,0,.35-.15.48.48,0,0,0,.14-.35V67.74a.5.5,0,0,0-.14-.35.47.47,0,0,0-.35-.15H65a.94.94,0,0,1-.69-.29,1,1,0,0,1-.28-.71V64.5a1,1,0,0,1,.28-.71A.91.91,0,0,1,65,63.5h3.19a.91.91,0,0,1,.69.29,1,1,0,0,1,.28.71v9.75a.45.45,0,0,0,.14.35.47.47,0,0,0,.35.15h5.62a.45.45,0,0,0,.34-.15.45.45,0,0,0,.15-.35V67.74a.47.47,0,0,0-.15-.35.45.45,0,0,0-.34-.15H73.58a.94.94,0,0,1-.69-.29,1,1,0,0,1-.29-.71V64.5a1,1,0,0,1,.29-.71.91.91,0,0,1,.69-.29h3.17a.94.94,0,0,1,.7.29,1,1,0,0,1,.28.71v13a1,1,0,0,1-1,1H65a.92.92,0,0,1-.69-.3A1,1,0,0,1,64.05,77.5Z" transform="translate(0.38 0.38)"/><path class="cls-2" d="M80.17,77.5V75.75a1,1,0,0,1,.28-.71.94.94,0,0,1,.69-.29h9.54A.45.45,0,0,0,91,74.6a.45.45,0,0,0,.15-.35V67.74a.47.47,0,0,0-.15-.35.45.45,0,0,0-.34-.15H82.61a.45.45,0,0,0-.34.15.47.47,0,0,0-.15.35v.91a.47.47,0,0,0,.15.35.45.45,0,0,0,.34.15h.74a.91.91,0,0,1,.69.29.94.94,0,0,1,.29.71v1.74a.94.94,0,0,1-.29.71.91.91,0,0,1-.69.29H81.14a.91.91,0,0,1-.69-.29,1,1,0,0,1-.28-.71V64.5a1,1,0,0,1,.28-.71.91.91,0,0,1,.69-.29h11a.91.91,0,0,1,.69.29,1,1,0,0,1,.28.71v13a1,1,0,0,1-.28.7.92.92,0,0,1-.69.3h-11a.92.92,0,0,1-.69-.3A1,1,0,0,1,80.17,77.5Z" transform="translate(0.38 0.38)"/><path class="cls-2" d="M95.56,77.5V75.75a1,1,0,0,1,1-1h.74a.45.45,0,0,0,.34-.15.45.45,0,0,0,.15-.35V67.74a.47.47,0,0,0-.15-.35.45.45,0,0,0-.34-.15H97a1,1,0,0,1-1-1V64.5a1,1,0,0,1,.28-.71.94.94,0,0,1,.7-.29h12a.91.91,0,0,1,.69.29,1,1,0,0,1,.28.71V77.62a1,1,0,0,1-.28.71.94.94,0,0,1-.69.29,1,1,0,0,1-.7-.29,1,1,0,0,1-.28-.71V67.74a.47.47,0,0,0-.15-.35.45.45,0,0,0-.34-.15h-7.33a.45.45,0,0,0-.34.15.47.47,0,0,0-.15.35V77.5a1,1,0,0,1-.28.7.93.93,0,0,1-.69.3H96.54a.92.92,0,0,1-.69-.3A.93.93,0,0,1,95.56,77.5Z" transform="translate(0.38 0.38)"/><path class="cls-2" d="M112.67,77.5V75.75a1,1,0,0,1,1-1h2.19a1,1,0,0,1,1,1V80a1,1,0,0,1-1,1,.94.94,0,0,1-.69-.29,1,1,0,0,1-.29-.71V79a.48.48,0,0,0-.14-.36.48.48,0,0,0-.34-.14h-.73a.92.92,0,0,1-.69-.3A.93.93,0,0,1,112.67,77.5Z" transform="translate(0.38 0.38)"/><path class="cls-2" d="M119.49,66.24V64.5a1,1,0,0,1,.29-.71.91.91,0,0,1,.69-.29h12a.91.91,0,0,1,.69.29.94.94,0,0,1,.29.71v1.74a1,1,0,0,1-1,1h-1a.45.45,0,0,0-.34.15.46.46,0,0,0-.14.35v9.88a1,1,0,0,1-.29.71.94.94,0,0,1-.69.29,1,1,0,0,1-1-1V67.74a.47.47,0,0,0-.15-.35.45.45,0,0,0-.34-.15h-8.07a.94.94,0,0,1-.69-.29A1,1,0,0,1,119.49,66.24Z" transform="translate(0.38 0.38)"/><path class="cls-2" d="M135.87,66.24V64.5a1,1,0,0,1,.28-.71.91.91,0,0,1,.69-.29H141a.91.91,0,0,1,.69.29,1,1,0,0,1,.28.71V77.62a1,1,0,0,1-.28.71,1,1,0,0,1-1.38,0,1,1,0,0,1-.28-.71V67.74a.5.5,0,0,0-.14-.35.47.47,0,0,0-.35-.15h-2.7a.94.94,0,0,1-.69-.29A1,1,0,0,1,135.87,66.24Z" transform="translate(0.38 0.38)"/><path class="cls-2" d="M144.41,66.24V64.5a.94.94,0,0,1,.29-.71.91.91,0,0,1,.69-.29h4.15a.91.91,0,0,1,.69.29,1,1,0,0,1,.29.71v6.75a1,1,0,0,1-.29.7.94.94,0,0,1-1.38,0,1,1,0,0,1-.28-.7V67.74a.46.46,0,0,0-.14-.35.47.47,0,0,0-.35-.15h-2.69a1,1,0,0,1-1-1Z" transform="translate(0.38 0.38)"/><path class="cls-2" d="M153,66.24V64.5a1,1,0,0,1,.29-.71.91.91,0,0,1,.69-.29h2.94a.91.91,0,0,1,.69.29,1,1,0,0,1,.28.71v4.29a.47.47,0,0,0,.25.44L161,70.87,164,69.13a.45.45,0,0,0,.24-.42v-1a.49.49,0,0,0-.13-.35.47.47,0,0,0-.35-.15h-1.46a1,1,0,0,1-1-1V64.5a.94.94,0,0,1,.29-.71.91.91,0,0,1,.69-.29h2.92a.91.91,0,0,1,.69.29,1,1,0,0,1,.29.71v4.4a2.38,2.38,0,0,1-.22,1.09,2,2,0,0,1-.77.77L163.07,72l2.6,1.46a.92.92,0,0,1,.48.85V77.5a1,1,0,0,1-.29.7.92.92,0,0,1-.69.3H154.42a.92.92,0,0,1-.69-.3,1,1,0,0,1-.29-.7V75.75a1,1,0,0,1,.29-.71.94.94,0,0,1,.69-.29h7.39c.23,0,.36-.08.4-.25s-.05-.31-.26-.43l-5.07-2.71a2,2,0,0,1-.77-.77,2.41,2.41,0,0,1-.22-1.09V67.74a.47.47,0,0,0-.15-.35.45.45,0,0,0-.34-.15h-1.47a.94.94,0,0,1-.69-.29A1,1,0,0,1,153,66.24Z" transform="translate(0.38 0.38)"/><path class="cls-2" d="M27.87,96.24V94.5a1,1,0,0,1,.29-.71.91.91,0,0,1,.69-.29H40.34a.91.91,0,0,1,.69.29.94.94,0,0,1,.29.71v13.12a1,1,0,0,1-1.67.71,1,1,0,0,1-.29-.71V97.74a.5.5,0,0,0-.48-.5h-10a.94.94,0,0,1-.69-.29A1,1,0,0,1,27.87,96.24Zm0,11.26V102a1,1,0,0,1,.29-.71,1,1,0,0,1,1.38,0,1,1,0,0,1,.29.71v2.25a.48.48,0,0,0,.14.35.47.47,0,0,0,.35.15h.74a.94.94,0,0,1,.69.29,1,1,0,0,1,.29.71v1.75a1,1,0,0,1-.29.7.92.92,0,0,1-.69.3H28.85a.92.92,0,0,1-.69-.3A1,1,0,0,1,27.87,107.5Z" transform="translate(0.38 0.38)"/><path class="cls-2" d="M43.75,96.24V94.5a1,1,0,0,1,.29-.71.91.91,0,0,1,.69-.29H55.48a.93.93,0,0,1,.7.29,1,1,0,0,1,.28.71v13.12a1,1,0,0,1-.28.71,1,1,0,0,1-.7.29.92.92,0,0,1-.68-.29,1,1,0,0,1-.28-.71V97.74a.5.5,0,0,0-.14-.35.49.49,0,0,0-.35-.15h-9.3A.94.94,0,0,1,44,97,1,1,0,0,1,43.75,96.24Z" transform="translate(0.38 0.38)"/><path class="cls-2" d="M58.9,96.24V94.5a1,1,0,0,1,.28-.71.91.91,0,0,1,.7-.29H64a.91.91,0,0,1,.69.29,1,1,0,0,1,.29.71v6.75a1,1,0,0,1-.29.7.94.94,0,0,1-1.38,0,1,1,0,0,1-.28-.7V97.74a.5.5,0,0,0-.14-.35.47.47,0,0,0-.35-.15H59.88a1,1,0,0,1-.7-.29A1,1,0,0,1,58.9,96.24Z" transform="translate(0.38 0.38)"/><path class="cls-2" d="M67.44,96.24V94.5a1,1,0,0,1,.29-.71.91.91,0,0,1,.69-.29H73.8a.91.91,0,0,1,.69.29,1,1,0,0,1,.29.71v1.74a1,1,0,0,1-.29.71.94.94,0,0,1-.69.29h-1a.49.49,0,0,0-.35.15.5.5,0,0,0-.14.35v9.88a1,1,0,0,1-1,1,.94.94,0,0,1-.69-.29,1,1,0,0,1-.28-.71V97.74a.47.47,0,0,0-.15-.35.45.45,0,0,0-.34-.15H68.42a.94.94,0,0,1-.69-.29A1,1,0,0,1,67.44,96.24Z" transform="translate(0.38 0.38)"/><path class="cls-2" d="M77.21,96.24V94.5a1,1,0,0,1,.29-.71.91.91,0,0,1,.69-.29H89.68a.91.91,0,0,1,.69.29,1,1,0,0,1,.29.71v13.12a1,1,0,0,1-.29.71,1,1,0,0,1-1.38,0,1,1,0,0,1-.29-.71V97.74a.46.46,0,0,0-.14-.35.47.47,0,0,0-.35-.15h-10A.94.94,0,0,1,77.5,97,1,1,0,0,1,77.21,96.24Zm0,11.26V102a1,1,0,0,1,.29-.71,1,1,0,0,1,1.38,0,1,1,0,0,1,.29.71v2.25a.48.48,0,0,0,.14.35.47.47,0,0,0,.35.15h.74a.94.94,0,0,1,.69.29,1,1,0,0,1,.29.71v1.75a1,1,0,0,1-.29.7.92.92,0,0,1-.69.3H78.19a.92.92,0,0,1-.69-.3A1,1,0,0,1,77.21,107.5Z" transform="translate(0.38 0.38)"/><path class="cls-2" d="M102.87,96.24V94.5a1,1,0,0,1,.28-.71.91.91,0,0,1,.69-.29H108a.91.91,0,0,1,.69.29,1,1,0,0,1,.29.71v18a1,1,0,0,1-.29.71,1,1,0,0,1-1.38,0,1,1,0,0,1-.28-.71V97.74a.5.5,0,0,0-.14-.35.47.47,0,0,0-.35-.15h-2.7a.94.94,0,0,1-.69-.29A1,1,0,0,1,102.87,96.24Z" transform="translate(0.38 0.38)"/><path class="cls-2" d="M111.41,96.24V94.5a1,1,0,0,1,.29-.71.91.91,0,0,1,.69-.29h4.15a.91.91,0,0,1,.69.29,1,1,0,0,1,.29.71v13.12a1,1,0,0,1-.29.71.94.94,0,0,1-.69.29.91.91,0,0,1-.68-.29,1,1,0,0,1-.28-.71V97.74a.47.47,0,0,0-.15-.35.45.45,0,0,0-.34-.15h-2.7a.94.94,0,0,1-.69-.29A1,1,0,0,1,111.41,96.24Z" transform="translate(0.38 0.38)"/><path class="cls-2" d="M120,107.62V106a.93.93,0,0,1,.47-.84l5.43-3.22a.92.92,0,0,0,.46-.83v-3.4a.46.46,0,0,0-.14-.35.47.47,0,0,0-.35-.15h-2.68a.94.94,0,0,1-.69-.29,1,1,0,0,1-.29-.71V94.5a1,1,0,0,1,.29-.71.91.91,0,0,1,.69-.29h4.15a.91.91,0,0,1,.69.29,1,1,0,0,1,.29.71v13.12a1,1,0,0,1-.29.71,1,1,0,0,1-1.38,0,1,1,0,0,1-.29-.71v-1q0-.6-.57-.6a1.38,1.38,0,0,0-.62.26l-3.47,2-.16.1a1.75,1.75,0,0,1-.18.11l-.17.06a.52.52,0,0,1-.21,0,.94.94,0,0,1-.69-.29A1,1,0,0,1,120,107.62Z" transform="translate(0.38 0.38)"/><path class="cls-2" d="M130.7,96.24V94.5a1,1,0,0,1,.29-.71.91.91,0,0,1,.69-.29h10.75a.94.94,0,0,1,.7.29,1,1,0,0,1,.28.71v13.12a1,1,0,0,1-1,1,.91.91,0,0,1-.68-.29,1,1,0,0,1-.28-.71V97.74a.47.47,0,0,0-.15-.35.45.45,0,0,0-.34-.15h-9.3A.94.94,0,0,1,131,97,1,1,0,0,1,130.7,96.24Z" transform="translate(0.38 0.38)"/><path class="cls-2" d="M145.85,107.5v-13a1,1,0,0,1,.28-.71.91.91,0,0,1,.69-.29,1,1,0,0,1,.7.31l7.65,7.31,2.32-2.35a.45.45,0,0,0,.14-.34v-.69a.46.46,0,0,0-.14-.35.45.45,0,0,0-.34-.15h-1.77a.94.94,0,0,1-.69-.29,1,1,0,0,1-.29-.71V94.5a1,1,0,0,1,.29-.71.91.91,0,0,1,.69-.29h3.22a.91.91,0,0,1,.69.29,1,1,0,0,1,.29.71v4a2,2,0,0,1-.5,1.48l-2.51,2.48,2.58,2.45a1.51,1.51,0,0,1,.44,1.14v1.84c0,.47-.22.71-.68.71a1.11,1.11,0,0,1-.73-.34l-9.54-9a.47.47,0,0,0-.35-.15.45.45,0,0,0-.34.15.47.47,0,0,0-.15.35v4.63a.45.45,0,0,0,.15.35.45.45,0,0,0,.34.15H149a1,1,0,0,1,1,1v1.75a.93.93,0,0,1-.29.7.92.92,0,0,1-.69.3h-2.21a.92.92,0,0,1-.69-.3A1,1,0,0,1,145.85,107.5Z" transform="translate(0.38 0.38)"/><path class="cls-2" d="M162,96.24V94.5a1,1,0,0,1,.29-.71.91.91,0,0,1,.69-.29h4.15a.91.91,0,0,1,.7.29,1,1,0,0,1,.28.71v13.12a1,1,0,0,1-.28.71,1,1,0,0,1-.7.29.92.92,0,0,1-.68-.29,1,1,0,0,1-.28-.71V97.74a.5.5,0,0,0-.14-.35.49.49,0,0,0-.35-.15H163a.94.94,0,0,1-.69-.29A1,1,0,0,1,162,96.24Z" transform="translate(0.38 0.38)"/><path class="cls-2" d="M38.74,137.5v-1.75A1,1,0,0,1,39,135a1,1,0,0,1,.7-.29h.74a.45.45,0,0,0,.34-.15.45.45,0,0,0,.15-.35v-6.51a.49.49,0,0,0-.15-.35.45.45,0,0,0-.34-.15h-.25a.91.91,0,0,1-.7-.29,1,1,0,0,1-.28-.71V124.5a1,1,0,0,1,.28-.71.91.91,0,0,1,.7-.29h12a.91.91,0,0,1,.69.29,1,1,0,0,1,.28.71v13.12a1,1,0,0,1-.28.71.94.94,0,0,1-.69.29,1,1,0,0,1-.7-.29,1,1,0,0,1-.28-.71v-9.88a.49.49,0,0,0-.15-.35.45.45,0,0,0-.34-.15H43.39a.49.49,0,0,0-.35.15.52.52,0,0,0-.14.35v9.76a1,1,0,0,1-.28.71,1,1,0,0,1-.7.29h-2.2a1,1,0,0,1-.7-.29A1,1,0,0,1,38.74,137.5Z" transform="translate(0.38 0.38)"/><path class="cls-2" d="M55.6,126.24V124.5a1,1,0,0,1,.28-.71.94.94,0,0,1,.7-.29h4.15a.91.91,0,0,1,.69.29,1,1,0,0,1,.29.71v13.12a1,1,0,0,1-.29.71,1,1,0,0,1-1.38,0,1,1,0,0,1-.28-.71v-9.88a.52.52,0,0,0-.14-.35.47.47,0,0,0-.35-.15H56.58a.94.94,0,0,1-.7-.29A1,1,0,0,1,55.6,126.24Z" transform="translate(0.38 0.38)"/><path class="cls-2" d="M64.14,137.5v-13a1,1,0,0,1,.29-.71.91.91,0,0,1,.69-.29,1,1,0,0,1,.69.31l7.65,7.31,2.33-2.35a.49.49,0,0,0,.14-.34v-.69a.52.52,0,0,0-.14-.35.47.47,0,0,0-.35-.15H73.67A.91.91,0,0,1,73,127a1,1,0,0,1-.28-.71V124.5a1,1,0,0,1,.28-.71.91.91,0,0,1,.69-.29H76.9a.91.91,0,0,1,.69.29,1,1,0,0,1,.29.71v4a2,2,0,0,1-.51,1.47l-2.5,2.48,2.58,2.45a1.51,1.51,0,0,1,.44,1.14v1.84a.62.62,0,0,1-.68.71,1,1,0,0,1-.73-.34l-9.55-9a.45.45,0,0,0-.34-.15.47.47,0,0,0-.35.15.52.52,0,0,0-.14.35v4.63a.48.48,0,0,0,.14.35.47.47,0,0,0,.35.15h.74A.94.94,0,0,1,68,135a1,1,0,0,1,.29.71v1.75a1,1,0,0,1-.29.71.94.94,0,0,1-.69.29H65.12a.94.94,0,0,1-.69-.29A1,1,0,0,1,64.14,137.5Z" transform="translate(0.38 0.38)"/><path class="cls-2" d="M80.31,126.24V124.5a.94.94,0,0,1,.29-.71.91.91,0,0,1,.69-.29H92a.91.91,0,0,1,.69.29,1,1,0,0,1,.29.71v13.12a1,1,0,0,1-.29.71,1,1,0,0,1-1.38,0,1,1,0,0,1-.28-.71v-9.88a.52.52,0,0,0-.14-.35.47.47,0,0,0-.35-.15H81.29a.91.91,0,0,1-.69-.29A1,1,0,0,1,80.31,126.24Z" transform="translate(0.38 0.38)"/><path class="cls-2" d="M95.45,126.24V124.5a1,1,0,0,1,.29-.71.91.91,0,0,1,.69-.29h4.15a.91.91,0,0,1,.69.29,1,1,0,0,1,.29.71v13.12a1,1,0,0,1-.29.71.94.94,0,0,1-.69.29.91.91,0,0,1-.68-.29,1,1,0,0,1-.28-.71v-9.88a.49.49,0,0,0-.15-.35.45.45,0,0,0-.34-.15h-2.7a.91.91,0,0,1-.69-.29A1,1,0,0,1,95.45,126.24Z" transform="translate(0.38 0.38)"/><path class="cls-2" d="M104,126.24V124.5a1,1,0,0,1,.29-.71.91.91,0,0,1,.69-.29h11.49a.94.94,0,0,1,.7.29,1,1,0,0,1,.28.71v13.12a1,1,0,0,1-1,1,.94.94,0,0,1-.69-.29,1,1,0,0,1-.28-.71v-9.88a.49.49,0,0,0-.15-.35.45.45,0,0,0-.34-.15H105a.91.91,0,0,1-.69-.29A1,1,0,0,1,104,126.24Zm0,11.26V132a1,1,0,0,1,.29-.7.92.92,0,0,1,.69-.3,1,1,0,0,1,1,1v2.25a.48.48,0,0,0,.14.35.47.47,0,0,0,.35.15h.74a.94.94,0,0,1,.69.29,1,1,0,0,1,.29.71v1.75a1,1,0,0,1-.29.71.94.94,0,0,1-.69.29H105a.94.94,0,0,1-.69-.29A1,1,0,0,1,104,137.5Z" transform="translate(0.38 0.38)"/><path class="cls-2" d="M129.65,126.24V124.5a.94.94,0,0,1,.29-.71.91.91,0,0,1,.69-.29h4.15a.91.91,0,0,1,.69.29,1,1,0,0,1,.29.71v6.75a1,1,0,0,1-.29.71,1,1,0,0,1-1.38,0,1,1,0,0,1-.28-.71v-3.51a.47.47,0,0,0-.14-.35.47.47,0,0,0-.35-.15h-2.69a.91.91,0,0,1-.69-.29A1,1,0,0,1,129.65,126.24Z" transform="translate(0.38 0.38)"/><path class="cls-2" d="M138.19,137.5v-1.75a1,1,0,0,1,.29-.71.94.94,0,0,1,.69-.29h9.53a.47.47,0,0,0,.35-.15.45.45,0,0,0,.14-.35v-6.51a.47.47,0,0,0-.14-.35.47.47,0,0,0-.35-.15h-8.06a.47.47,0,0,0-.35.15.52.52,0,0,0-.14.35v.91a.5.5,0,0,0,.14.35.47.47,0,0,0,.35.15h.74a.94.94,0,0,1,.69.29,1,1,0,0,1,.29.71v1.74a1,1,0,0,1-.29.71.91.91,0,0,1-.69.29h-2.21a.91.91,0,0,1-.69-.29,1,1,0,0,1-.29-.71V124.5a1,1,0,0,1,.29-.71.91.91,0,0,1,.69-.29h11a.91.91,0,0,1,.69.29,1,1,0,0,1,.29.71v13a1,1,0,0,1-.29.71.94.94,0,0,1-.69.29h-11a.94.94,0,0,1-.69-.29A1,1,0,0,1,138.19,137.5Z" transform="translate(0.38 0.38)"/><path class="cls-2" d="M153.58,126.24V117a1,1,0,0,1,.29-.71.94.94,0,0,1,.69-.29h2a.94.94,0,0,1,.69.29,1,1,0,0,1,.29.71v1.75a1,1,0,0,1-.29.71.94.94,0,0,1-.69.29H156a.5.5,0,0,0-.35.14.52.52,0,0,0-.14.36V123a.52.52,0,0,0,.14.35.47.47,0,0,0,.35.15h10a.94.94,0,0,1,.7.29,1,1,0,0,1,.28.71v13a1,1,0,0,1-.28.71,1,1,0,0,1-.7.29h-5.38a.94.94,0,0,1-.69-.29,1,1,0,0,1-.29-.71v-1.75A1,1,0,0,1,160,135a.94.94,0,0,1,.69-.29h3.92a.45.45,0,0,0,.34-.15.45.45,0,0,0,.15-.35v-6.51a.49.49,0,0,0-.15-.35.45.45,0,0,0-.34-.15h-10a.91.91,0,0,1-.69-.29A1,1,0,0,1,153.58,126.24Z" transform="translate(0.38 0.38)"/><path class="cls-2" d="M31.17,156.24V154.5a1,1,0,0,1,.28-.71.93.93,0,0,1,.7-.29H42.9a.91.91,0,0,1,.69.29,1,1,0,0,1,.29.71v13.12a1,1,0,0,1-.29.71,1,1,0,0,1-1.38,0,1,1,0,0,1-.28-.71v-9.88a.52.52,0,0,0-.14-.35.47.47,0,0,0-.35-.15H32.15a.93.93,0,0,1-.7-.29A1,1,0,0,1,31.17,156.24Z" transform="translate(0.38 0.38)"/><path class="cls-2" d="M46.56,152.49v-1.74a1,1,0,0,1,.29-.71.94.94,0,0,1,.69-.29h2.19a1,1,0,0,1,1,1V155a1,1,0,0,1-.28.71,1,1,0,0,1-.7.29.94.94,0,0,1-.69-.29,1,1,0,0,1-.29-.71v-1a.48.48,0,0,0-.14-.36.44.44,0,0,0-.34-.14h-.73a.92.92,0,0,1-.69-.3A1,1,0,0,1,46.56,152.49Zm6.11,0v-1.74a1,1,0,0,1,1-1h2.19a1,1,0,0,1,1,1V155a1,1,0,0,1-.28.71,1,1,0,0,1-.7.29.94.94,0,0,1-.69-.29,1,1,0,0,1-.29-.71v-1a.48.48,0,0,0-.14-.36.44.44,0,0,0-.34-.14h-.73a.92.92,0,0,1-.69-.3A.94.94,0,0,1,52.67,152.49Z" transform="translate(0.38 0.38)"/><path class="cls-2" d="M59.49,167.62V154.5a1,1,0,0,1,.29-.71.91.91,0,0,1,.69-.29H72a.94.94,0,0,1,.7.29,1,1,0,0,1,.28.71v13.12a1,1,0,0,1-1,1,.94.94,0,0,1-.69-.29,1,1,0,0,1-.28-.71v-9.88a.49.49,0,0,0-.15-.35.45.45,0,0,0-.34-.15H61.94a.47.47,0,0,0-.35.15.52.52,0,0,0-.14.35v9.88a1,1,0,0,1-1,1,.94.94,0,0,1-.69-.29A1,1,0,0,1,59.49,167.62Z" transform="translate(0.38 0.38)"/><path class="cls-2" d="M75.38,156.24V154.5a1,1,0,0,1,.28-.71.91.91,0,0,1,.69-.29h2a.91.91,0,0,1,.69.29,1,1,0,0,1,.29.71V156c0,.56.17.66.52.3l2.08-2.1a2.29,2.29,0,0,1,1.71-.7h6a.91.91,0,0,1,.69.29,1,1,0,0,1,.29.71v13a1,1,0,0,1-.29.71.94.94,0,0,1-.69.29H83.93a.94.94,0,0,1-.69-.29,1,1,0,0,1-.29-.71v-1.75a1,1,0,0,1,.29-.71.94.94,0,0,1,.69-.29h4.15a.47.47,0,0,0,.35-.15.48.48,0,0,0,.14-.35v-6.51a.52.52,0,0,0-.14-.35.47.47,0,0,0-.35-.15h-4a2.23,2.23,0,0,0-1.69.71l-2.12,2.17a2.47,2.47,0,0,0-.71,1.77v5.73a1,1,0,0,1-.29.71,1,1,0,0,1-1.38,0,1,1,0,0,1-.29-.71v-9.88a.47.47,0,0,0-.14-.35.47.47,0,0,0-.35-.15h-.74a.91.91,0,0,1-.69-.29A1,1,0,0,1,75.38,156.24Z" transform="translate(0.38 0.38)"/><path class="cls-2" d="M92.77,168.52l5.57-15.74a.85.85,0,0,1,.56-.55,1.35,1.35,0,0,1,1.56.58.91.91,0,0,1,.09.78L95,169.34a.88.88,0,0,1-.56.55,1.22,1.22,0,0,1-.88,0,1.29,1.29,0,0,1-.68-.57A.93.93,0,0,1,92.77,168.52Z" transform="translate(0.38 0.38)"/><path class="cls-2" d="M102.78,167.5v-1.75a1,1,0,0,1,.29-.71.94.94,0,0,1,.69-.29h9a.45.45,0,0,0,.34-.15.45.45,0,0,0,.15-.35v-6.51a.49.49,0,0,0-.15-.35.45.45,0,0,0-.34-.15h-9a.91.91,0,0,1-.69-.29,1,1,0,0,1-.29-.71V154.5a1,1,0,0,1,.29-.71.91.91,0,0,1,.69-.29h10.51a.93.93,0,0,1,.7.29,1,1,0,0,1,.28.71v9.75a.45.45,0,0,0,.15.35.45.45,0,0,0,.34.15h.73a.94.94,0,0,1,.69.29,1,1,0,0,1,.29.71v1.75a1,1,0,0,1-.29.71.94.94,0,0,1-.69.29H103.76a.94.94,0,0,1-.69-.29A1,1,0,0,1,102.78,167.5Z" transform="translate(0.38 0.38)"/><path class="cls-2" d="M120.13,152.49v-1.74a1,1,0,0,1,.29-.71.94.94,0,0,1,.69-.29h2.2a.94.94,0,0,1,.69.29,1,1,0,0,1,.29.71V155a1,1,0,0,1-.29.71.94.94,0,0,1-.69.29,1,1,0,0,1-.7-.29,1,1,0,0,1-.28-.71v-1a.49.49,0,0,0-.15-.36.44.44,0,0,0-.34-.14h-.73a.92.92,0,0,1-.69-.3A1,1,0,0,1,120.13,152.49Zm6.11,0v-1.74a1,1,0,0,1,.29-.71.94.94,0,0,1,.69-.29h2.2a.94.94,0,0,1,.69.29,1,1,0,0,1,.28.71V155a1,1,0,0,1-.28.71.94.94,0,0,1-.69.29,1,1,0,0,1-.7-.29,1,1,0,0,1-.28-.71v-1a.49.49,0,0,0-.15-.36.44.44,0,0,0-.34-.14h-.73a.92.92,0,0,1-.69-.3A1,1,0,0,1,126.24,152.49Z" transform="translate(0.38 0.38)"/><path class="cls-2" d="M133.07,167.5v-13a1,1,0,0,1,.28-.71.93.93,0,0,1,.7-.29H136a.94.94,0,0,1,.7.29,1,1,0,0,1,.28.71v1.74a1,1,0,0,1-.28.71.94.94,0,0,1-.7.29h-.49a.45.45,0,0,0-.34.15.49.49,0,0,0-.15.35v6.51a.45.45,0,0,0,.15.35.45.45,0,0,0,.34.15h9.29a.45.45,0,0,0,.34-.15.45.45,0,0,0,.15-.35v-6.51a.49.49,0,0,0-.15-.35.45.45,0,0,0-.34-.15h-.92a3,3,0,0,0-1.7.53l-1.92,1c-.28.17-.5.19-.68.06a.78.78,0,0,1-.27-.68v-1.93a2,2,0,0,1,.16-.87,1.42,1.42,0,0,1,.55-.57l1.35-.78a3.34,3.34,0,0,1,1.71-.52h3.18a.91.91,0,0,1,.7.29,1,1,0,0,1,.28.71v13a1,1,0,0,1-.28.71,1,1,0,0,1-.7.29H134.05a1,1,0,0,1-.7-.29A1,1,0,0,1,133.07,167.5Z" transform="translate(0.38 0.38)"/><path class="cls-2" d="M149.68,156.24V154.5a1,1,0,0,1,.28-.71.91.91,0,0,1,.7-.29h2a.91.91,0,0,1,.69.29.94.94,0,0,1,.29.71V156c0,.56.18.66.53.3l2.07-2.1a2.29,2.29,0,0,1,1.71-.7h5.95a.91.91,0,0,1,.69.29.94.94,0,0,1,.29.71v13a1,1,0,0,1-.29.71.94.94,0,0,1-.69.29h-5.62a.94.94,0,0,1-.69-.29,1,1,0,0,1-.29-.71v-1.75a1,1,0,0,1,.29-.71.94.94,0,0,1,.69-.29h4.15a.45.45,0,0,0,.35-.15.45.45,0,0,0,.14-.35v-6.51a.47.47,0,0,0-.14-.35.45.45,0,0,0-.35-.15h-4a2.23,2.23,0,0,0-1.69.71l-2.12,2.17a2.47,2.47,0,0,0-.71,1.77v5.73a1,1,0,0,1-1.67.71,1,1,0,0,1-.29-.71v-9.88a.47.47,0,0,0-.14-.35.45.45,0,0,0-.34-.15h-.74a.91.91,0,0,1-.7-.29A1,1,0,0,1,149.68,156.24Z" transform="translate(0.38 0.38)"/></svg>