<svg id="Layer_1" data-name="Layer 1" xmlns="http://www.w3.org/2000/svg" viewBox="0 0 200.75 200.75"><defs><style>.cls-1{fill:#192318;stroke:#fff;stroke-miterlimit:10;stroke-width:0.75px;}.cls-2{fill:#fff;}</style></defs><rect class="cls-1" x="0.38" y="0.38" width="200" height="200"/><text x="0.38" y="0.38"/><path class="cls-2" d="M20.37,75.94V74.19a1,1,0,0,1,.29-.71.94.94,0,0,1,.69-.29h.74a.45.45,0,0,0,.34-.15.45.45,0,0,0,.15-.35V66.18a.47.47,0,0,0-.15-.35.45.45,0,0,0-.34-.15h-.25a.94.94,0,0,1-.69-.29,1,1,0,0,1-.29-.71V62.94a1,1,0,0,1,.29-.71.91.91,0,0,1,.69-.29h12a.91.91,0,0,1,.69.29,1,1,0,0,1,.29.71V76.06a1,1,0,0,1-.29.71,1,1,0,0,1-1.38,0,1,1,0,0,1-.29-.71V66.18a.5.5,0,0,0-.14-.35.47.47,0,0,0-.35-.15H25a.45.45,0,0,0-.34.15.46.46,0,0,0-.14.35v9.76a1,1,0,0,1-.29.7.92.92,0,0,1-.69.3H21.35a.92.92,0,0,1-.69-.3A1,1,0,0,1,20.37,75.94Z" transform="translate(0.38 0.38)"/><path class="cls-2" d="M37.23,64.68V62.94a1,1,0,0,1,.29-.71.91.91,0,0,1,.69-.29H49a.91.91,0,0,1,.69.29,1,1,0,0,1,.29.71V76.06a1,1,0,0,1-.29.71,1,1,0,0,1-1.38,0,1,1,0,0,1-.28-.71V66.18a.5.5,0,0,0-.14-.35.47.47,0,0,0-.35-.15H38.21a.94.94,0,0,1-.69-.29A1,1,0,0,1,37.23,64.68Z" transform="translate(0.38 0.38)"/><path class="cls-2" d="M52.37,64.68V62.94a1,1,0,0,1,.29-.71.91.91,0,0,1,.69-.29H57.5a.94.94,0,0,1,.7.29,1,1,0,0,1,.28.71v6.75a1,1,0,0,1-1,1,.88.88,0,0,1-.68-.3,1,1,0,0,1-.28-.7V66.18a.47.47,0,0,0-.15-.35.45.45,0,0,0-.34-.15h-2.7a.94.94,0,0,1-.69-.29A1,1,0,0,1,52.37,64.68Z" transform="translate(0.38 0.38)"/><path class="cls-2" d="M60.92,64.68V62.94a1,1,0,0,1,.28-.71.91.91,0,0,1,.69-.29h2.94a.91.91,0,0,1,.69.29,1,1,0,0,1,.29.71v4.29a.45.45,0,0,0,.25.44L69,69.31l2.94-1.73a.46.46,0,0,0,.24-.43v-1a.5.5,0,0,0-.14-.35.45.45,0,0,0-.34-.15H70.21a.94.94,0,0,1-.69-.29,1,1,0,0,1-.29-.71V62.94a1,1,0,0,1,.29-.71.91.91,0,0,1,.69-.29h2.92a.94.94,0,0,1,.7.29,1,1,0,0,1,.28.71v4.4a2.38,2.38,0,0,1-.22,1.09,2,2,0,0,1-.77.77L71,70.46l2.6,1.46a.93.93,0,0,1,.48.86v3.16a1,1,0,0,1-1,1H62.38a.92.92,0,0,1-.69-.3,1,1,0,0,1-.29-.7V74.19a1,1,0,0,1,.29-.71.94.94,0,0,1,.69-.29h7.39c.23,0,.36-.08.4-.25s0-.31-.26-.43L64.84,69.8a2,2,0,0,1-.77-.77,2.41,2.41,0,0,1-.22-1.09V66.18a.5.5,0,0,0-.14-.35.47.47,0,0,0-.35-.15H61.89a.94.94,0,0,1-.69-.29A1,1,0,0,1,60.92,64.68Z" transform="translate(0.38 0.38)"/><path class="cls-2" d="M76.55,75.94V74.19a1,1,0,0,1,.28-.71,1,1,0,0,1,.7-.29h1.71a.47.47,0,0,0,.35-.15.45.45,0,0,0,.14-.35V66.18a.46.46,0,0,0-.14-.35.47.47,0,0,0-.35-.15H77.53a1,1,0,0,1-.7-.29,1,1,0,0,1-.28-.71V62.94a1,1,0,0,1,.28-.71.91.91,0,0,1,.7-.29h3.18a.91.91,0,0,1,.69.29,1,1,0,0,1,.28.71v9.75a.48.48,0,0,0,.14.35.47.47,0,0,0,.35.15h5.62a.45.45,0,0,0,.34-.15.45.45,0,0,0,.15-.35V66.18a.47.47,0,0,0-.15-.35.45.45,0,0,0-.34-.15H86.08a.94.94,0,0,1-.69-.29,1,1,0,0,1-.29-.71V62.94a1,1,0,0,1,.29-.71.91.91,0,0,1,.69-.29h3.17a.91.91,0,0,1,.7.29,1,1,0,0,1,.28.71v13a1,1,0,0,1-.28.7.92.92,0,0,1-.7.3H77.53a.92.92,0,0,1-.7-.3A1,1,0,0,1,76.55,75.94Z" transform="translate(0.38 0.38)"/><path class="cls-2" d="M92.67,64.68V62.94a1,1,0,0,1,.28-.71.93.93,0,0,1,.7-.29H97.8a.91.91,0,0,1,.69.29,1,1,0,0,1,.29.71V76.06a1,1,0,0,1-.29.71,1,1,0,0,1-1.38,0,1,1,0,0,1-.28-.71V66.18a.5.5,0,0,0-.14-.35.47.47,0,0,0-.35-.15H93.65a1,1,0,0,1-.7-.29A1,1,0,0,1,92.67,64.68Z" transform="translate(0.38 0.38)"/><path class="cls-2" d="M111,64.68V62.94a1,1,0,0,1,.29-.71.91.91,0,0,1,.69-.29h11.49a.91.91,0,0,1,.69.29,1,1,0,0,1,.29.71V76.06a1,1,0,0,1-.29.71,1,1,0,0,1-1.38,0,1,1,0,0,1-.29-.71V66.18a.46.46,0,0,0-.14-.35.47.47,0,0,0-.35-.15H112a.94.94,0,0,1-.69-.29A1,1,0,0,1,111,64.68Zm0,11.26v-5.5a1,1,0,0,1,.29-.7.94.94,0,0,1,1.38,0,1,1,0,0,1,.29.7v2.25a.48.48,0,0,0,.14.35.47.47,0,0,0,.35.15h.74a.94.94,0,0,1,.69.29,1,1,0,0,1,.29.71v1.75a1,1,0,0,1-.29.7.92.92,0,0,1-.69.3H112a.92.92,0,0,1-.69-.3A1,1,0,0,1,111,75.94Z" transform="translate(0.38 0.38)"/><path class="cls-2" d="M126.86,64.68V62.94a1,1,0,0,1,.29-.71.91.91,0,0,1,.69-.29h11.24a.94.94,0,0,1,.7.29,1,1,0,0,1,.28.71v13a1,1,0,0,1-1,1h-6.34a.92.92,0,0,1-.7-.3,1,1,0,0,1-.28-.7V74.19a1,1,0,0,1,.28-.71,1,1,0,0,1,.7-.29h4.89A.45.45,0,0,0,138,73a.48.48,0,0,0,.13-.35V66.18a.49.49,0,0,0-.13-.35.45.45,0,0,0-.34-.15h-9.79a.94.94,0,0,1-.69-.29A1,1,0,0,1,126.86,64.68Zm0,16.26V69.24a1,1,0,0,1,.29-.71.92.92,0,0,1,.69-.3h.25a1,1,0,0,1,.7.3,1,1,0,0,1,.28.71v11.7a1,1,0,0,1-1,1h-.25a.94.94,0,0,1-.69-.29A1,1,0,0,1,126.86,80.94Z" transform="translate(0.38 0.38)"/><path class="cls-2" d="M142.5,64.68V62.94a1,1,0,0,1,.28-.71.91.91,0,0,1,.69-.29h4.16a.91.91,0,0,1,.69.29,1,1,0,0,1,.28.71v6.75a1,1,0,0,1-.28.7.94.94,0,0,1-1.38,0,1,1,0,0,1-.28-.7V66.18a.5.5,0,0,0-.14-.35.47.47,0,0,0-.35-.15h-2.7a.94.94,0,0,1-.69-.29A1,1,0,0,1,142.5,64.68Z" transform="translate(0.38 0.38)"/><path class="cls-2" d="M151,64.68V62.94a.94.94,0,0,1,.29-.71.91.91,0,0,1,.69-.29h10.75a.91.91,0,0,1,.69.29,1,1,0,0,1,.29.71V76.06a1,1,0,0,1-.29.71,1,1,0,0,1-1.38,0,1,1,0,0,1-.28-.71V66.18a.5.5,0,0,0-.14-.35.47.47,0,0,0-.35-.15H152a1,1,0,0,1-1-1Z" transform="translate(0.38 0.38)"/><path class="cls-2" d="M166.18,75.94v-13a1,1,0,0,1,.29-.71.91.91,0,0,1,.69-.29h11.49a.91.91,0,0,1,.69.29,1,1,0,0,1,.29.71v8.58a2.38,2.38,0,0,1-.69,1.73l-2.91,3a2.38,2.38,0,0,1-1.74.73h-7.13a.92.92,0,0,1-.69-.3A1,1,0,0,1,166.18,75.94Zm2-3.25a.48.48,0,0,0,.14.35.47.47,0,0,0,.35.15h4.77a2.31,2.31,0,0,0,1.72-.73L177,70.54a2.34,2.34,0,0,0,.68-1.73V66.18a.5.5,0,0,0-.14-.35.47.47,0,0,0-.35-.15h-8.55a.47.47,0,0,0-.35.15.5.5,0,0,0-.14.35Z" transform="translate(0.38 0.38)"/><path class="cls-2" d="M49.8,105.94v-13a1,1,0,0,1,.29-.71.91.91,0,0,1,.69-.29H59a2.29,2.29,0,0,1,1.7.7l1.87,1.91a2.44,2.44,0,0,1,.72,1.77v9.62a1,1,0,0,1-.29.7.92.92,0,0,1-.69.3H50.78a.92.92,0,0,1-.69-.3A1,1,0,0,1,49.8,105.94Zm2-3.25a.48.48,0,0,0,.14.35.47.47,0,0,0,.35.15H60.8a.47.47,0,0,0,.35-.15.48.48,0,0,0,.14-.35V98.92a2.47,2.47,0,0,0-.71-1.77l-.72-.76a2.29,2.29,0,0,0-1.69-.71H52.25a.47.47,0,0,0-.35.15.5.5,0,0,0-.14.35Z" transform="translate(0.38 0.38)"/><path class="cls-2" d="M65.68,94.68V92.94a1,1,0,0,1,.29-.71.91.91,0,0,1,.69-.29h4.15a.94.94,0,0,1,.7.29,1,1,0,0,1,.28.71v6.75a1,1,0,0,1-1,1,.88.88,0,0,1-.68-.3,1,1,0,0,1-.28-.7V96.18a.47.47,0,0,0-.15-.35.45.45,0,0,0-.34-.15h-2.7a.94.94,0,0,1-.69-.29A1,1,0,0,1,65.68,94.68Z" transform="translate(0.38 0.38)"/><path class="cls-2" d="M74.23,94.68V92.94a1,1,0,0,1,.28-.71.91.91,0,0,1,.69-.29h2a.91.91,0,0,1,.69.29,1,1,0,0,1,.29.71v1.5c0,.56.17.66.53.3l2.07-2.1a2.29,2.29,0,0,1,1.71-.7h6a.91.91,0,0,1,.69.29,1,1,0,0,1,.29.71v13a1,1,0,0,1-.29.7.92.92,0,0,1-.69.3H82.78a.92.92,0,0,1-.69-.3,1,1,0,0,1-.29-.7v-1.75a1,1,0,0,1,.29-.71.94.94,0,0,1,.69-.29h4.15a.47.47,0,0,0,.35-.15.45.45,0,0,0,.14-.35V96.18a.46.46,0,0,0-.14-.35.47.47,0,0,0-.35-.15h-4a2.23,2.23,0,0,0-1.69.71l-2.12,2.17a2.47,2.47,0,0,0-.71,1.77v5.73a1,1,0,0,1-.29.71,1,1,0,0,1-1.38,0,1,1,0,0,1-.29-.71V96.18a.46.46,0,0,0-.14-.35.47.47,0,0,0-.35-.15H75.2a.94.94,0,0,1-.69-.29A1,1,0,0,1,74.23,94.68Z" transform="translate(0.38 0.38)"/><path class="cls-2" d="M91.81,94.68V92.94a1,1,0,0,1,.29-.71.91.91,0,0,1,.69-.29h4.15a.93.93,0,0,1,.7.29,1,1,0,0,1,.28.71v13.12a1,1,0,0,1-.28.71,1,1,0,0,1-.7.29.92.92,0,0,1-.68-.29,1,1,0,0,1-.28-.71V96.18a.47.47,0,0,0-.15-.35.45.45,0,0,0-.34-.15h-2.7a.94.94,0,0,1-.69-.29A1,1,0,0,1,91.81,94.68Z" transform="translate(0.38 0.38)"/><path class="cls-2" d="M100.36,94.68V92.94a1,1,0,0,1,.28-.71.93.93,0,0,1,.7-.29h2a.94.94,0,0,1,.7.29,1,1,0,0,1,.28.71v1.5c0,.56.18.66.53.3l2.07-2.1a2.29,2.29,0,0,1,1.71-.7h6a.94.94,0,0,1,.7.29,1,1,0,0,1,.28.71v13a1,1,0,0,1-1,1h-5.62a.92.92,0,0,1-.69-.3,1,1,0,0,1-.29-.7v-1.75a1,1,0,0,1,.29-.71.94.94,0,0,1,.69-.29h4.16a.5.5,0,0,0,.48-.5V96.18a.46.46,0,0,0-.14-.35.45.45,0,0,0-.34-.15h-4a2.23,2.23,0,0,0-1.69.71l-2.11,2.17a2.44,2.44,0,0,0-.72,1.77v5.73a1,1,0,0,1-1,1,.94.94,0,0,1-.69-.29,1,1,0,0,1-.28-.71V96.18a.47.47,0,0,0-.15-.35.45.45,0,0,0-.34-.15h-.74a1,1,0,0,1-.7-.29A1,1,0,0,1,100.36,94.68Z" transform="translate(0.38 0.38)"/><path class="cls-2" d="M118,94.68V92.94a1,1,0,0,1,.28-.71.91.91,0,0,1,.69-.29h4.16a.91.91,0,0,1,.69.29,1,1,0,0,1,.28.71v6.75a1,1,0,0,1-.28.7.94.94,0,0,1-1.38,0,1,1,0,0,1-.28-.7V96.18a.5.5,0,0,0-.14-.35.47.47,0,0,0-.35-.15h-2.7a.94.94,0,0,1-.69-.29A1,1,0,0,1,118,94.68Z" transform="translate(0.38 0.38)"/><path class="cls-2" d="M126.49,94.68V92.94a.94.94,0,0,1,.29-.71.91.91,0,0,1,.69-.29h12a.91.91,0,0,1,.69.29,1,1,0,0,1,.28.71v1.74a1,1,0,0,1-.28.71.94.94,0,0,1-.69.29h-1a.47.47,0,0,0-.35.15.5.5,0,0,0-.14.35v9.88a1,1,0,0,1-.29.71,1,1,0,0,1-1.38,0,1,1,0,0,1-.29-.71V96.18a.5.5,0,0,0-.14-.35.47.47,0,0,0-.35-.15h-8.06a1,1,0,0,1-1-1Z" transform="translate(0.38 0.38)"/><path class="cls-2" d="M60.23,136.41a10.68,10.68,0,0,1-4.37.8c-4.62,0-8.12-3-8.12-8.54,0-5.28,3.5-8.83,8.61-8.83a8.82,8.82,0,0,1,3.91.73l-.51,1.77a7.63,7.63,0,0,0-3.33-.7c-3.86,0-6.43,2.53-6.43,7,0,4.12,2.32,6.77,6.33,6.77a8.23,8.23,0,0,0,3.47-.7Z" transform="translate(0.38 0.38)"/><path class="cls-2" d="M74.92,136.19a15,15,0,0,1-5.06.92,8.37,8.37,0,0,1-6.16-2.22,8.77,8.77,0,0,1-2.3-6.27c0-5,3.4-8.7,8.93-8.7a10.41,10.41,0,0,1,4.1.77l-.51,1.78a8.37,8.37,0,0,0-3.64-.73c-4,0-6.63,2.55-6.63,6.77s2.5,6.8,6.36,6.8a6.78,6.78,0,0,0,2.83-.45v-5H69.49v-1.75h5.43Z" transform="translate(0.38 0.38)"/><path class="cls-2" d="M77,140a34.32,34.32,0,0,0,1.44-6l2.4-.25a32.84,32.84,0,0,1-2.35,6.07Z" transform="translate(0.38 0.38)"/><path class="cls-2" d="M83.79,120.09h8.87v1.8H85.94v5.62h6.23v1.8H85.94v7.63H83.79Z" transform="translate(0.38 0.38)"/><path class="cls-2" d="M107.2,136.41a10.72,10.72,0,0,1-4.37.8c-4.62,0-8.12-3-8.12-8.54,0-5.28,3.5-8.83,8.6-8.83a8.91,8.91,0,0,1,3.92.73l-.52,1.77a7.55,7.55,0,0,0-3.32-.7c-3.86,0-6.43,2.53-6.43,7,0,4.12,2.32,6.77,6.33,6.77a8.23,8.23,0,0,0,3.47-.7Z" transform="translate(0.38 0.38)"/><path class="cls-2" d="M108.71,140a34.32,34.32,0,0,0,1.44-6l2.4-.25a32.15,32.15,0,0,1-2.35,6.07Z" transform="translate(0.38 0.38)"/><path class="cls-2" d="M127,136.41a10.74,10.74,0,0,1-4.38.8c-4.62,0-8.11-3-8.11-8.54,0-5.28,3.49-8.83,8.6-8.83a8.82,8.82,0,0,1,3.91.73l-.51,1.77a7.59,7.59,0,0,0-3.32-.7c-3.87,0-6.43,2.53-6.43,7,0,4.12,2.32,6.77,6.33,6.77a8.3,8.3,0,0,0,3.47-.7Z" transform="translate(0.38 0.38)"/><path class="cls-2" d="M132.44,131.64l-1.69,5.3h-2.22l5.62-16.85h2.54l5.63,16.85H140l-1.76-5.3Zm5.4-1.7-1.61-4.85c-.37-1.1-.61-2.1-.85-3.07h-.08c-.22,1-.49,2-.81,3l-1.61,4.87Z" transform="translate(0.38 0.38)"/><path class="cls-2" d="M146,121.94h-5v-1.85h12.2v1.85h-5v15H146Z" transform="translate(0.38 0.38)"/></svg>