<svg id="Layer_1" data-name="Layer 1" xmlns="http://www.w3.org/2000/svg" viewBox="0 0 200 200"><defs><style>.cls-1{fill:#192318;}.cls-2{fill:#fff;}</style></defs><rect class="cls-1" width="200" height="200"/><path class="cls-2" d="M15.14,37.54A2,2,0,0,1,15.87,36a6.81,6.81,0,0,0,1.6.33,1.7,1.7,0,0,0,1.22-.53,2.6,2.6,0,0,0,.68-1V25.4H17.12a2.87,2.87,0,0,1-.08-.7,2.1,2.1,0,0,1,.78-1.65h11a5,5,0,0,1,2.9.77,5.56,5.56,0,0,1,2.51,4.91v9.7H30.85v-10a4.39,4.39,0,0,0-1.06-1.89,3.93,3.93,0,0,0-1.86-1.16H22.7v10a3.29,3.29,0,0,1-2.15,2.74,9,9,0,0,1-2.66.51,7,7,0,0,1-1.44-.18,5.88,5.88,0,0,1-1.27-.39A3.31,3.31,0,0,1,15.14,37.54Z" transform="translate(0 0)"/><path class="cls-2" d="M37,25.4a3.85,3.85,0,0,1,1.31-2.35H46.6a8,8,0,0,1,2.7.44,6.94,6.94,0,0,1,2.26,1.34,6.21,6.21,0,0,1,1.59,2.47,10.66,10.66,0,0,1,.57,3.64,7.66,7.66,0,0,1-2.22,5.88,9,9,0,0,1-6.4,2.08,9.46,9.46,0,0,1-3-.46,6.64,6.64,0,0,1-2.19-1.17,7.06,7.06,0,0,1-1.41-1.59,6.06,6.06,0,0,1-.8-1.68,5.6,5.6,0,0,1-.23-1.51V26.56l.9-1.16Zm3.83,7.25a3,3,0,0,0,.3,1.22,5,5,0,0,0,.84,1.26,4.17,4.17,0,0,0,1.43,1,4.65,4.65,0,0,0,1.94.41,5,5,0,0,0,2.8-.79,4.67,4.67,0,0,0,1.74-2,6.91,6.91,0,0,0,.55-2.81A8,8,0,0,0,50,28.38a4.25,4.25,0,0,0-1-1.72,4.3,4.3,0,0,0-1.37-.94,4.07,4.07,0,0,0-1.59-.32h-5.3Z" transform="translate(0 0)"/><path class="cls-2" d="M55.91,25.4a3.41,3.41,0,0,1,1-2.55h3.68v7l-3.33,1.53v-6Z" transform="translate(0 0)"/><path class="cls-2" d="M63.35,24.84A2.89,2.89,0,0,1,64,23.05h5.14a11,11,0,0,1,4.23.64,4.88,4.88,0,0,1,2.31,2,3.78,3.78,0,0,1,.65,1.61,19.72,19.72,0,0,1,.16,3.06v8.05H73.19V29.24a3.64,3.64,0,0,0-3.84-3.84H63.42A2.31,2.31,0,0,1,63.35,24.84Z" transform="translate(0 0)"/><path class="cls-2" d="M80,38.43a3.3,3.3,0,0,1,.71-2.35H88.2A3.54,3.54,0,0,0,91,34.4a6.6,6.6,0,0,0,1.28-4.13,6.81,6.81,0,0,0-.82-3.5A2.66,2.66,0,0,0,89,25.4H83.3v3.53a1.61,1.61,0,0,0,1.58,1.27,6.33,6.33,0,0,0,.73-.06l.57-.08a1.68,1.68,0,0,1,.2.81,2.69,2.69,0,0,1-.2.93,10.92,10.92,0,0,1-2,.22,3.92,3.92,0,0,1-4.18-3v-6h9.86a6,6,0,0,1,2,.32,4.43,4.43,0,0,1,1.51.9,6.87,6.87,0,0,1,1.06,1.28,5.91,5.91,0,0,1,.71,1.55,11.87,11.87,0,0,1,.37,1.66,10.81,10.81,0,0,1,.12,1.61,8.41,8.41,0,0,1-.91,3.78,8.29,8.29,0,0,1-2.52,3.07,5.7,5.7,0,0,1-3.47,1.21Z" transform="translate(0 0)"/><path class="cls-2" d="M97.25,38.43a3.83,3.83,0,0,1,1-2.35h8.53V28.75a3.31,3.31,0,0,0-.86-2.5,3,3,0,0,0-2.26-.85H98.84a3.71,3.71,0,0,1,.8-2.35h4.08a7.65,7.65,0,0,1,2.88.56,5.75,5.75,0,0,1,2.3,1.66,3.77,3.77,0,0,1,.92,2.48v8.33h1.83a4.88,4.88,0,0,1-.8,2.35Z" transform="translate(0 0)"/><path class="cls-2" d="M122.92,24.87a3,3,0,0,1,.66-1.82H131a11.15,11.15,0,0,1,4.22.63,4.84,4.84,0,0,1,2.32,2,3.87,3.87,0,0,1,.65,1.62,19.66,19.66,0,0,1,.16,3.05v8.07H135v-9.2a3.64,3.64,0,0,0-3.84-3.83H123A2.89,2.89,0,0,1,122.92,24.87Zm.62,13.56V29a6.58,6.58,0,0,1,2.91,1v8.45Z" transform="translate(0 0)"/><path class="cls-2" d="M140.74,24.84a2.89,2.89,0,0,1,.68-1.79h5.14a11,11,0,0,1,4.23.64,4.81,4.81,0,0,1,2.3,2,3.67,3.67,0,0,1,.66,1.61,21.09,21.09,0,0,1,.16,3.06v8.05h-3.33V29.24a3.64,3.64,0,0,0-3.85-3.84h-5.92A1.91,1.91,0,0,1,140.74,24.84Z" transform="translate(0 0)"/><path class="cls-2" d="M156.17,25a3.29,3.29,0,0,1,.91-2h8.6a2.17,2.17,0,0,1,.09.59,2.35,2.35,0,0,1-.86,1.76,1.5,1.5,0,0,0-.54-.07c-.43,0-1,.38-1.69,1.15a3.21,3.21,0,0,0-1.05,2v10h-3.06V30.77a7.85,7.85,0,0,1,.52-3,6.64,6.64,0,0,1,1.71-2.35h-4.59s0-.11,0-.19S156.17,25.05,156.17,25Z" transform="translate(0 0)"/><path class="cls-2" d="M167.88,41.13a3.82,3.82,0,0,1,1.46-3.08l4.16-1.36L170.18,25.4h-1.76a.56.56,0,0,1,0-.26,4.53,4.53,0,0,1,.18-1.19,1.58,1.58,0,0,1,.54-.9H173l3.62,12.41c.23-.09.48-.19.76-.32a11.91,11.91,0,0,0,1.09-.63,8,8,0,0,0,1.22-.94,4.94,4.94,0,0,0,.92-1.23,3.08,3.08,0,0,0,.4-1.51V25.4h-1.61v-.19a4.08,4.08,0,0,1,.22-1.26,1.34,1.34,0,0,1,.67-.9h4.05v6.74a9.27,9.27,0,0,1-1,4.18,6.61,6.61,0,0,1-2.78,2.9l-12.62,5A3.28,3.28,0,0,1,167.88,41.13Z" transform="translate(0 0)"/><path class="cls-2" d="M33.5,53.74a4.09,4.09,0,0,1,.2-1.33,2.14,2.14,0,0,1,.81-1h3.78V58H48.56V60.6L42.48,73.23H38.85l6-12.93H35.22V53.74Z" transform="translate(0 0)"/><path class="cls-2" d="M51.28,60.2V60a5.82,5.82,0,0,1,0-.67,2.27,2.27,0,0,1,.19-.61,4.31,4.31,0,0,1,.48-.82h4.28V73.23H52.93v-13Z" transform="translate(0 0)"/><path class="cls-2" d="M58.94,75.93a3.81,3.81,0,0,1,1.45-3.08l4.16-1.36L61.24,60.2H59.47a.79.79,0,0,1,0-.26,4.53,4.53,0,0,1,.18-1.19,1.58,1.58,0,0,1,.54-.9H64l3.63,12.41c.23-.09.48-.19.75-.32a11.82,11.82,0,0,0,1.1-.63,7.91,7.91,0,0,0,1.21-.94,5,5,0,0,0,.93-1.23,3.18,3.18,0,0,0,.39-1.51V60.2H70.44V60a4.11,4.11,0,0,1,.23-1.26,1.36,1.36,0,0,1,.66-.9h4v6.74a9.14,9.14,0,0,1-.95,4.18,6.56,6.56,0,0,1-2.78,2.9L59,76.67A3.25,3.25,0,0,1,58.94,75.93Z" transform="translate(0 0)"/><path class="cls-2" d="M79.11,73.23a3.3,3.3,0,0,1,.7-2.35h7.52A3.54,3.54,0,0,0,90.1,69.2a6.6,6.6,0,0,0,1.28-4.13,6.79,6.79,0,0,0-.81-3.5,2.68,2.68,0,0,0-2.44-1.37H82.44v3.53A1.6,1.6,0,0,0,84,65a6.33,6.33,0,0,0,.73-.06l.57-.08a1.69,1.69,0,0,1,.21.81,2.74,2.74,0,0,1-.21.93,10.77,10.77,0,0,1-2,.21,3.89,3.89,0,0,1-4.17-3v-6H89a5.92,5.92,0,0,1,2,.32,4.43,4.43,0,0,1,1.51.9,6.93,6.93,0,0,1,1.07,1.28,6.23,6.23,0,0,1,.7,1.55,11.87,11.87,0,0,1,.37,1.66,10.81,10.81,0,0,1,.12,1.61A8.74,8.74,0,0,1,91.29,72a5.74,5.74,0,0,1-3.47,1.21Z" transform="translate(0 0)"/><path class="cls-2" d="M96.38,72.34a2,2,0,0,1,.74-1.56,6.68,6.68,0,0,0,1.59.32,1.67,1.67,0,0,0,1.22-.52,2.77,2.77,0,0,0,.69-1V60.2H98.37a2.45,2.45,0,0,1-.08-.7,2.12,2.12,0,0,1,.77-1.65h11a5,5,0,0,1,2.89.77,5.54,5.54,0,0,1,2.51,4.91v9.7h-3.33v-10A4.29,4.29,0,0,0,111,61.36a4,4,0,0,0-1.85-1.16H104v10A3.31,3.31,0,0,1,101.8,73a9.06,9.06,0,0,1-2.67.51,7.2,7.2,0,0,1-1.44-.18,5.59,5.59,0,0,1-1.26-.39A3.31,3.31,0,0,1,96.38,72.34Z" transform="translate(0 0)"/><path class="cls-2" d="M119,73.37v-2.8h3.33v3.21a3.74,3.74,0,0,1-.8,2.61,3,3,0,0,1-2.37.89H119V76h.14a1.27,1.27,0,0,0,1.16-.47,3.69,3.69,0,0,0,.3-1.81v-.34Z" transform="translate(0 0)"/><path class="cls-2" d="M125.52,59.6a3,3,0,0,1,.64-1.75h13.48A4,4,0,0,1,139,60.2h-1.54v13h-3.33v-13h-8.5A2.22,2.22,0,0,1,125.52,59.6Z" transform="translate(0 0)"/><path class="cls-2" d="M142.14,60.2V60a5.82,5.82,0,0,1,0-.67,2.71,2.71,0,0,1,.19-.61,4.41,4.41,0,0,1,.49-.82h4.28V73.23H143.8v-13Z" transform="translate(0 0)"/><path class="cls-2" d="M150.51,60.2a3.45,3.45,0,0,1,1-2.55h3.68v7l-3.33,1.53v-6Z" transform="translate(0 0)"/><path class="cls-2" d="M158.51,59.5a2.59,2.59,0,0,1,.88-1.65h2.91l6.17,7.09a3.91,3.91,0,0,0,.56-.33q1.32-1.12,1.32-4.41h-2.07a2.32,2.32,0,0,1-.12-.66,2.06,2.06,0,0,1,1.11-1.69h4.41a23.87,23.87,0,0,1-.36,4.69,6.3,6.3,0,0,1-1.1,2.63A6.43,6.43,0,0,1,170,66.82l3.08,4v2.32H158.76a3.15,3.15,0,0,1-.08-.47,1.8,1.8,0,0,1,1.08-1.88h9.16L160.36,60.2h-1.63A1.81,1.81,0,0,1,158.51,59.5Z" transform="translate(0 0)"/><path class="cls-2" d="M25.66,94.47a3.07,3.07,0,0,1,.65-1.82h7.43a11.15,11.15,0,0,1,4.22.63,4.89,4.89,0,0,1,2.32,2,3.87,3.87,0,0,1,.65,1.62,19.66,19.66,0,0,1,.16,3V108H37.76V98.82A3.64,3.64,0,0,0,33.92,95H25.71A2.22,2.22,0,0,1,25.66,94.47ZM26.28,108V98.6a6.58,6.58,0,0,1,2.91,1V108Z" transform="translate(0 0)"/><path class="cls-2" d="M43.48,94.44a2.93,2.93,0,0,1,.67-1.79H49.3a11,11,0,0,1,4.23.64,4.81,4.81,0,0,1,2.3,2,3.67,3.67,0,0,1,.66,1.61,21.09,21.09,0,0,1,.16,3.06v8H53.32V98.84A3.64,3.64,0,0,0,49.47,95H43.54A2.34,2.34,0,0,1,43.48,94.44Z" transform="translate(0 0)"/><path class="cls-2" d="M59.41,95a3.41,3.41,0,0,1,1-2.55h3.68v7L60.73,101V95Z" transform="translate(0 0)"/><path class="cls-2" d="M66.79,94.61a3.24,3.24,0,0,1,.91-2h8.6a2.17,2.17,0,0,1,.09.59A2.35,2.35,0,0,1,75.53,95a1.53,1.53,0,0,0-.54-.07c-.43,0-1,.38-1.69,1.15a3.21,3.21,0,0,0-1,2v10H69.18v-7.66a7.84,7.84,0,0,1,.53-3A6.52,6.52,0,0,1,71.42,95h-4.6a1.49,1.49,0,0,0,0-.19C66.8,94.72,66.79,94.65,66.79,94.61Z" transform="translate(0 0)"/><path class="cls-2" d="M79.46,94.47a3,3,0,0,1,.65-1.82h7.43a11.18,11.18,0,0,1,4.22.63,4.82,4.82,0,0,1,2.31,2,3.76,3.76,0,0,1,.66,1.62,21,21,0,0,1,.16,3V108H91.56V98.82A3.64,3.64,0,0,0,87.72,95H79.5A2.93,2.93,0,0,1,79.46,94.47ZM80.08,108V98.6a6.58,6.58,0,0,1,2.91,1V108Z" transform="translate(0 0)"/><path class="cls-2" d="M106.39,95s0-.21.08-.51a4.15,4.15,0,0,1,.12-.63,4.3,4.3,0,0,1,.21-.55,2.51,2.51,0,0,1,.41-.66h4.05v22h-3.33V95Z" transform="translate(0 0)"/><path class="cls-2" d="M114.3,95v-.25a5.82,5.82,0,0,1,0-.67,2.71,2.71,0,0,1,.19-.61,4.41,4.41,0,0,1,.49-.82h4.28V108H116V95Z" transform="translate(0 0)"/><path class="cls-2" d="M122.28,109.18a10.4,10.4,0,0,1,.22-2.29,4.62,4.62,0,0,1,.84-1.83,20.15,20.15,0,0,0,5.1-5.36V96.54c0-1-.65-1.54-2-1.54h-3.06a3.6,3.6,0,0,1,.8-2.35H127a5.44,5.44,0,0,1,3.29.92,3.39,3.39,0,0,1,1.24,2.93v8.94a9.88,9.88,0,0,0,.82,2.59h-3.14a25.54,25.54,0,0,1-.65-4.93,10.8,10.8,0,0,1-1.23,1.76,14.07,14.07,0,0,1-1.73,1.72c-.66.57-1.2,1-1.61,1.34S123,108.66,122.28,109.18Z" transform="translate(0 0)"/><path class="cls-2" d="M134.22,94.44a2.89,2.89,0,0,1,.68-1.79H140a11,11,0,0,1,4.23.64,4.81,4.81,0,0,1,2.3,2,3.67,3.67,0,0,1,.66,1.61,21.09,21.09,0,0,1,.16,3.06v8h-3.33V98.84A3.64,3.64,0,0,0,140.21,95h-5.92A1.91,1.91,0,0,1,134.22,94.44Z" transform="translate(0 0)"/><path class="cls-2" d="M150.28,92.45h4.27a84.28,84.28,0,0,1,6.28,7c1.09-.46,1.64-1.76,1.64-3.93V95h-1.42a4,4,0,0,1,.77-2.55h4c0,.15,0,.41,0,.78v.85a15.25,15.25,0,0,1-.1,1.88,11.11,11.11,0,0,1-.42,1.85,6,6,0,0,1-1,1.94,7.31,7.31,0,0,1-1.76,1.64,54.07,54.07,0,0,1,4.69,6.64h-3.74a61.41,61.41,0,0,0-6.91-8.7,6.55,6.55,0,0,0-2.28,2.77,8.39,8.39,0,0,0-.87,3.58h1.15a3.42,3.42,0,0,1,.33,1.68,3.58,3.58,0,0,1,0,.67h-4.5c0-1,0-2,.13-2.81a19.88,19.88,0,0,1,.35-2.23,9.75,9.75,0,0,1,.57-1.78,10.12,10.12,0,0,1,.7-1.37,7,7,0,0,1,.86-1.09,10.09,10.09,0,0,1,.92-.88c.26-.22.6-.48,1-.77A54,54,0,0,0,150.28,92.45Z" transform="translate(0 0)"/><path class="cls-2" d="M169.13,95v-.25a5.82,5.82,0,0,1,0-.67,2.71,2.71,0,0,1,.19-.61,4.41,4.41,0,0,1,.49-.82h4.28V108h-3.33V95Z" transform="translate(0 0)"/><path class="cls-2" d="M34.22,141.94a2,2,0,0,1,.73-1.56,6.91,6.91,0,0,0,1.6.33,1.7,1.7,0,0,0,1.22-.53,2.83,2.83,0,0,0,.69-1V129.8H36.2a2.91,2.91,0,0,1-.07-.7,2.11,2.11,0,0,1,.77-1.65h11a5,5,0,0,1,2.9.77,5.56,5.56,0,0,1,2.51,4.91v9.7H49.93v-10A4.29,4.29,0,0,0,48.87,131,3.93,3.93,0,0,0,47,129.8H41.79v10c-.37,1.52-1.08,2.44-2.15,2.74a9.06,9.06,0,0,1-2.67.51,7.2,7.2,0,0,1-1.44-.18,5.59,5.59,0,0,1-1.26-.39A3.31,3.31,0,0,1,34.22,141.94Z" transform="translate(0 0)"/><path class="cls-2" d="M55.65,129.8v-.25a5.82,5.82,0,0,1,0-.67,2.71,2.71,0,0,1,.19-.61,4.41,4.41,0,0,1,.49-.82h4.28v15.38H57.31v-13Z" transform="translate(0 0)"/><path class="cls-2" d="M64.14,127.25h4.27a84.09,84.09,0,0,1,6.28,7c1.1-.45,1.65-1.76,1.65-3.92v-.53H74.91a4,4,0,0,1,.77-2.55h4c0,.16,0,.41,0,.78s0,.65,0,.85a15,15,0,0,1-.11,1.88,12.09,12.09,0,0,1-.41,1.85,6.18,6.18,0,0,1-1,1.94,7.36,7.36,0,0,1-1.77,1.64,53.74,53.74,0,0,1,4.69,6.64H77.33a60.62,60.62,0,0,0-6.91-8.69,6.46,6.46,0,0,0-2.28,2.76,8.43,8.43,0,0,0-.87,3.58h1.16a3.43,3.43,0,0,1,.32,1.68,4.73,4.73,0,0,1,0,.67h-4.5a27,27,0,0,1,.13-2.81,20.45,20.45,0,0,1,.34-2.23,9.75,9.75,0,0,1,.57-1.78,10,10,0,0,1,.71-1.37,6.83,6.83,0,0,1,.86-1.09,9,9,0,0,1,.91-.88c.27-.22.6-.48,1-.77A52.58,52.58,0,0,0,64.14,127.25Z" transform="translate(0 0)"/><path class="cls-2" d="M82.78,129.24a2.87,2.87,0,0,1,.67-1.79h5.14a10.91,10.91,0,0,1,4.23.64,4.84,4.84,0,0,1,2.31,2,3.92,3.92,0,0,1,.66,1.61,21.48,21.48,0,0,1,.15,3.06v8.05H92.61v-9.19a3.65,3.65,0,0,0-3.84-3.84H82.84A2.34,2.34,0,0,1,82.78,129.24Z" transform="translate(0 0)"/><path class="cls-2" d="M98.49,129.8v-.25a5.82,5.82,0,0,1,0-.67,2.27,2.27,0,0,1,.19-.61,4.41,4.41,0,0,1,.49-.82h4.28v15.38h-3.33v-13Z" transform="translate(0 0)"/><path class="cls-2" d="M107.11,129.27a3,3,0,0,1,.65-1.82h7.43a11.18,11.18,0,0,1,4.22.63,4.82,4.82,0,0,1,2.31,2,3.76,3.76,0,0,1,.66,1.62,21,21,0,0,1,.16,3v8.07h-3.33v-9.2a3.64,3.64,0,0,0-3.84-3.83h-8.22A2.93,2.93,0,0,1,107.11,129.27Zm.62,13.56V133.4a6.58,6.58,0,0,1,2.91,1v8.45Z" transform="translate(0 0)"/><path class="cls-2" d="M134.17,129.8a3.45,3.45,0,0,1,1-2.55h3.68v7l-3.33,1.53v-6Z" transform="translate(0 0)"/><path class="cls-2" d="M142.74,142.83a3.3,3.3,0,0,1,.7-2.35H151a3.56,3.56,0,0,0,2.78-1.68,6.66,6.66,0,0,0,1.27-4.13,6.82,6.82,0,0,0-.81-3.5,2.68,2.68,0,0,0-2.44-1.37h-5.69v3.53a1.6,1.6,0,0,0,1.58,1.27,6.37,6.37,0,0,0,.72-.06l.57-.08a1.69,1.69,0,0,1,.21.81,2.74,2.74,0,0,1-.21.93,10.83,10.83,0,0,1-2,.22,3.9,3.9,0,0,1-4.17-3v-6h9.85a5.63,5.63,0,0,1,2,.33,4.26,4.26,0,0,1,1.51.89,6.93,6.93,0,0,1,1.07,1.28,5.81,5.81,0,0,1,.7,1.56,11.43,11.43,0,0,1,.37,1.65,10.81,10.81,0,0,1,.12,1.61,8.53,8.53,0,0,1-.9,3.78,8.39,8.39,0,0,1-2.52,3.07,5.68,5.68,0,0,1-3.47,1.21Z" transform="translate(0 0)"/><path class="cls-2" d="M159.09,123.35a4.13,4.13,0,0,1,.19-1.34,2.09,2.09,0,0,1,.82-1h3.77v6.55h10.28v2.65l-6.09,12.63h-3.62l6.05-12.93h-9.68v-6.55Z" transform="translate(0 0)"/><path class="cls-2" d="M32.08,164a2.87,2.87,0,0,1,.67-1.79h5.14a10.91,10.91,0,0,1,4.23.64,4.84,4.84,0,0,1,2.31,2,3.78,3.78,0,0,1,.65,1.61,19.72,19.72,0,0,1,.16,3.06v8H41.91v-9.19a3.65,3.65,0,0,0-3.84-3.84H32.14A2.34,2.34,0,0,1,32.08,164Z" transform="translate(0 0)"/><path class="cls-2" d="M47.81,164.29V163l.13,0a1.14,1.14,0,0,0,.91-.57,3.2,3.2,0,0,0,.28-1.54H47.81v-2.8h3.06v2.59a4.17,4.17,0,0,1-.76,2.63,2.58,2.58,0,0,1-2.15,1Zm3.73-.06V163h.13a1.17,1.17,0,0,0,.92-.58,3.15,3.15,0,0,0,.28-1.53H51.54V158h3.07v2.6a4.16,4.16,0,0,1-.77,2.62,2.53,2.53,0,0,1-2.14,1Z" transform="translate(0 0)"/><path class="cls-2" d="M57.23,164.6a3.6,3.6,0,0,1,.69-2.35h11A4.17,4.17,0,0,1,71,163a7.18,7.18,0,0,1,2,1.75,3.22,3.22,0,0,1,.79,1.88v11H70.46V167.35a2.65,2.65,0,0,0-1-1.81,2.76,2.76,0,0,0-1.8-.94H61.88v13H58.55v-13Z" transform="translate(0 0)"/><path class="cls-2" d="M76.49,162a5.42,5.42,0,0,1,1.63-.28A9.31,9.31,0,0,1,80,162l1.34,3.62a8,8,0,0,1,1.1-1.79,5.64,5.64,0,0,1,1.81-1.41,5.34,5.34,0,0,1,2.53-.6,9.06,9.06,0,0,1,3.52.64,6.43,6.43,0,0,1,2.5,1.78,7.88,7.88,0,0,1,1.45,2.62,10.29,10.29,0,0,1,.48,3.21,9.6,9.6,0,0,1-.62,3.64,5.86,5.86,0,0,1-1.77,2.48,7.7,7.7,0,0,1-2.65,1.38,11.66,11.66,0,0,1-3.37.44,9.53,9.53,0,0,1-2.52-.46,3.51,3.51,0,0,1-.12-.94,5.32,5.32,0,0,1,.67-2.32,2.69,2.69,0,0,0,.72.72,2,2,0,0,0,1,.2A4.92,4.92,0,0,0,91.39,170a8,8,0,0,0-.26-2.08,5.31,5.31,0,0,0-.82-1.69,3.68,3.68,0,0,0-1.49-1.18,5.41,5.41,0,0,0-2.21-.42,3.86,3.86,0,0,0-3.11,1.46,7.29,7.29,0,0,0-.9,1.6,10,10,0,0,0-.62,1.92c-.15.66-.28,1.38-.4,2.14s-.23,1.48-.33,2.14-.21,1.33-.31,2-.2,1.24-.27,1.7H77.24l1.15-10.1Z" transform="translate(0 0)"/><path class="cls-2" d="M94.85,178.31l7.07-20.22h2l-7.08,20.22Z" transform="translate(0 0)"/><path class="cls-2" d="M104.51,177.63a3.85,3.85,0,0,1,1-2.35H114V168a3.35,3.35,0,0,0-.86-2.5,3.09,3.09,0,0,0-2.27-.85h-4.78a3.71,3.71,0,0,1,.79-2.35H111a7.65,7.65,0,0,1,2.88.56,5.75,5.75,0,0,1,2.3,1.66,3.77,3.77,0,0,1,.92,2.48v8.33h1.83a4.88,4.88,0,0,1-.8,2.35Z" transform="translate(0 0)"/><path class="cls-2" d="M120.93,164.29V163l.13,0a1.14,1.14,0,0,0,.91-.57,3.18,3.18,0,0,0,.29-1.54h-1.33v-2.8H124v2.59a4.17,4.17,0,0,1-.76,2.63,2.57,2.57,0,0,1-2.15,1Zm3.73-.06V163h.14a1.17,1.17,0,0,0,.91-.58,3.15,3.15,0,0,0,.28-1.53h-1.33V158h3.07v2.6a4.16,4.16,0,0,1-.77,2.62,2.53,2.53,0,0,1-2.14,1Z" transform="translate(0 0)"/><path class="cls-2" d="M130.26,164.61a3.78,3.78,0,0,1,.8-2.58H135v10.21a3,3,0,0,0,.43,1.59,3.4,3.4,0,0,0,1.11,1.15,7.34,7.34,0,0,0,1.42.67,6.83,6.83,0,0,0,1.45.31,5.35,5.35,0,0,0,3.5-1.09,4.8,4.8,0,0,0,1.69-2.64,8.45,8.45,0,0,0,.28-2.08q0-6-4.1-6a3.53,3.53,0,0,0-.56.05,2.18,2.18,0,0,0-.5.11l-.42.15a3.17,3.17,0,0,0-.36.16l-.25.16-.16.11-.06,0c-.15,0-.22-.45-.22-1.23a2.63,2.63,0,0,1,.22-1.25,8.7,8.7,0,0,1,3.45-.66,6.68,6.68,0,0,1,2.53.45,4.76,4.76,0,0,1,1.8,1.19,6.13,6.13,0,0,1,1.14,1.82,9.92,9.92,0,0,1,.64,2.22,16.37,16.37,0,0,1,.18,2.51,9.12,9.12,0,0,1-.56,3.25,7.12,7.12,0,0,1-4.46,4.28,11.87,11.87,0,0,1-4,.61,8.41,8.41,0,0,1-5.44-1.71,5.23,5.23,0,0,1-2.11-4.24v-7.58Z" transform="translate(0 0)"/><path class="cls-2" d="M150.13,162a5.42,5.42,0,0,1,1.63-.28,9.31,9.31,0,0,1,1.87.28l1.33,3.62a8.35,8.35,0,0,1,1.1-1.79,5.75,5.75,0,0,1,1.81-1.41,5.4,5.4,0,0,1,2.53-.6,9.07,9.07,0,0,1,3.53.64,6.5,6.5,0,0,1,2.5,1.78,7.69,7.69,0,0,1,1.44,2.62,10,10,0,0,1,.49,3.21,9.8,9.8,0,0,1-.62,3.64,5.86,5.86,0,0,1-1.77,2.48,7.79,7.79,0,0,1-2.65,1.38,11.71,11.71,0,0,1-3.37.44,9.46,9.46,0,0,1-2.52-.46,3.51,3.51,0,0,1-.12-.94,5.32,5.32,0,0,1,.67-2.32,2.69,2.69,0,0,0,.72.72,2,2,0,0,0,1,.2A4.92,4.92,0,0,0,165,170a7.54,7.54,0,0,0-.27-2.08,5.08,5.08,0,0,0-.81-1.69,3.68,3.68,0,0,0-1.49-1.18,5.41,5.41,0,0,0-2.21-.42,3.86,3.86,0,0,0-3.11,1.46,7.31,7.31,0,0,0-.91,1.6,10.72,10.72,0,0,0-.61,1.92c-.15.66-.28,1.38-.4,2.14s-.23,1.48-.33,2.14-.21,1.33-.32,2-.19,1.24-.26,1.7h-3.43l1.14-10.1Z" transform="translate(0 0)"/></svg>