<svg id="Layer_1" data-name="Layer 1" xmlns="http://www.w3.org/2000/svg" viewBox="0 0 200 200"><defs><style>.cls-1{fill:#192318;}.cls-2{fill:#fff;}</style></defs><rect class="cls-1" width="200" height="200"/><path class="cls-2" d="M6.16,59.6a3,3,0,0,1,.64-1.75H20.28a4,4,0,0,1-.63,2.35H18.11v13H14.78v-13H6.28A2.22,2.22,0,0,1,6.16,59.6Z" transform="translate(0 0)"/><path class="cls-2" d="M22.78,60.2V60a5.82,5.82,0,0,1,0-.67,2.71,2.71,0,0,1,.19-.61,4.41,4.41,0,0,1,.49-.82h4.28V73.23H24.44v-13Z" transform="translate(0 0)"/><path class="cls-2" d="M31.15,60.2a3.45,3.45,0,0,1,1-2.55h3.68v7l-3.33,1.53v-6Z" transform="translate(0 0)"/><path class="cls-2" d="M39.15,59.5A2.59,2.59,0,0,1,40,57.85h2.91l6.17,7.09a3.91,3.91,0,0,0,.56-.33Q51,63.49,51,60.2H48.92a2.32,2.32,0,0,1-.12-.66,2.06,2.06,0,0,1,1.11-1.69h4.41A23.87,23.87,0,0,1,54,62.54a6.17,6.17,0,0,1-1.11,2.63,6.29,6.29,0,0,1-2.21,1.65l3.08,4v2.32H39.4a3.15,3.15,0,0,1-.08-.47,1.8,1.8,0,0,1,1.08-1.88h9.16L41,60.2H39.37A1.81,1.81,0,0,1,39.15,59.5Z" transform="translate(0 0)"/><path class="cls-2" d="M65,53.74a4.09,4.09,0,0,1,.2-1.33,2.14,2.14,0,0,1,.81-1h3.78V58H80.05V60.6L74,73.23H70.34l6-12.93H66.71V53.74Z" transform="translate(0 0)"/><path class="cls-2" d="M82.29,75.93a3.81,3.81,0,0,1,1.45-3.08l4.16-1.36L84.58,60.2H82.82a.79.79,0,0,1,0-.26A4.53,4.53,0,0,1,83,58.75a1.58,1.58,0,0,1,.54-.9h3.88L91,70.26c.23-.09.48-.19.75-.32a10.7,10.7,0,0,0,1.09-.63,8,8,0,0,0,1.22-.94A4.71,4.71,0,0,0,95,67.14a3.08,3.08,0,0,0,.4-1.51V60.2H93.79V60A4.11,4.11,0,0,1,94,58.75a1.33,1.33,0,0,1,.66-.9h4v6.74a9.27,9.27,0,0,1-1,4.18A6.61,6.61,0,0,1,95,71.67l-12.62,5A3.25,3.25,0,0,1,82.29,75.93Z" transform="translate(0 0)"/><path class="cls-2" d="M110.82,59.67a3,3,0,0,1,.66-1.82h7.42a11.15,11.15,0,0,1,4.22.63,4.89,4.89,0,0,1,2.32,2,3.87,3.87,0,0,1,.65,1.62,19.66,19.66,0,0,1,.16,3v8.07h-3.33V64a3.64,3.64,0,0,0-3.84-3.82h-8.21A2.22,2.22,0,0,1,110.82,59.67Zm.62,13.56V63.8a6.58,6.58,0,0,1,2.91,1v8.45Z" transform="translate(0 0)"/><path class="cls-2" d="M128.64,59.64a2.93,2.93,0,0,1,.67-1.79h5.15a11,11,0,0,1,4.23.64,4.81,4.81,0,0,1,2.3,2,3.67,3.67,0,0,1,.66,1.61,21.09,21.09,0,0,1,.16,3.06v8h-3.33V64a3.64,3.64,0,0,0-3.85-3.84h-5.92A1.91,1.91,0,0,1,128.64,59.64Z" transform="translate(0 0)"/><path class="cls-2" d="M144.57,60.2a3.45,3.45,0,0,1,1-2.55h3.68v7l-3.33,1.53v-6Z" transform="translate(0 0)"/><path class="cls-2" d="M152.3,57.64a5.31,5.31,0,0,1,1.62-.28,9.31,9.31,0,0,1,1.87.28l1.34,3.62a8,8,0,0,1,1.1-1.79A5.64,5.64,0,0,1,160,58.06a5.37,5.37,0,0,1,2.53-.61,9,9,0,0,1,3.52.65,6.43,6.43,0,0,1,2.5,1.78A7.88,7.88,0,0,1,170,62.5a10.29,10.29,0,0,1,.49,3.21,9.8,9.8,0,0,1-.62,3.64,5.88,5.88,0,0,1-1.78,2.48,7.55,7.55,0,0,1-2.64,1.37,11.7,11.7,0,0,1-3.37.45,9.39,9.39,0,0,1-2.52-.46,3.5,3.5,0,0,1-.13-.94,5.32,5.32,0,0,1,.68-2.32,2.69,2.69,0,0,0,.72.72,1.91,1.91,0,0,0,1,.2,4.92,4.92,0,0,0,5.35-5.22,7.54,7.54,0,0,0-.27-2.08,5.51,5.51,0,0,0-.81-1.69,3.7,3.7,0,0,0-1.5-1.18,5.38,5.38,0,0,0-2.21-.42,3.91,3.91,0,0,0-1.8.4,3.77,3.77,0,0,0-1.3,1.06,7.31,7.31,0,0,0-.91,1.6,10.75,10.75,0,0,0-.62,1.92c-.14.66-.28,1.38-.4,2.14s-.23,1.48-.33,2.14-.21,1.33-.31,2-.2,1.24-.27,1.7h-3.42l1.14-10.1Z" transform="translate(0 0)"/><path class="cls-2" d="M172.42,59.51a2.17,2.17,0,0,1,.87-1.66h3.79V66a6.28,6.28,0,0,0,3.46-.82,2.41,2.41,0,0,0,1.23-2v-3h-1.21a2.75,2.75,0,0,1-.17-1,1.67,1.67,0,0,1,.86-1.4h3.58V63.3a3.6,3.6,0,0,1-.93,2.3,6.85,6.85,0,0,1-2.6,1.86,8.93,8.93,0,0,1-3.59.73,6.66,6.66,0,0,0,2.3,2.12,7,7,0,0,0,3.15.63,10,10,0,0,0,2.19-.23,6.23,6.23,0,0,0,1.7-.62,6.64,6.64,0,0,0,1.23-.88,4.05,4.05,0,0,0,.85-1,5.17,5.17,0,0,0,.46-1.05,3.43,3.43,0,0,0,.15-1v-6h-1.35c0-.21,0-.43,0-.68a2.2,2.2,0,0,1,.83-1.67h3.89v8.63a4.52,4.52,0,0,1-.45,1.87,7,7,0,0,1-1.33,2A11,11,0,0,1,189.22,72a10.3,10.3,0,0,1-2.78,1.24,12.05,12.05,0,0,1-6.63,0,9,9,0,0,1-2.63-1.19,8.46,8.46,0,0,1-1.88-1.74,7.19,7.19,0,0,1-1.17-2.08,6.82,6.82,0,0,1-.38-2.22V60.2h-1.22A3.67,3.67,0,0,1,172.42,59.51Z" transform="translate(0 0)"/><path class="cls-2" d="M64,110.73a3.82,3.82,0,0,1,1.46-3.08l4.16-1.36L66.3,95H64.54a.56.56,0,0,1,0-.26,4.53,4.53,0,0,1,.18-1.19,1.58,1.58,0,0,1,.54-.9h3.89l3.62,12.41c.23-.09.48-.19.76-.32a11.91,11.91,0,0,0,1.09-.63,8,8,0,0,0,1.22-.94,4.94,4.94,0,0,0,.92-1.23,3.08,3.08,0,0,0,.4-1.51V95H75.51v-.19a4.08,4.08,0,0,1,.22-1.26,1.34,1.34,0,0,1,.67-.9h4v6.74a9.15,9.15,0,0,1-1,4.18,6.53,6.53,0,0,1-2.77,2.9l-12.62,5A3.28,3.28,0,0,1,64,110.73Z" transform="translate(0 0)"/><path class="cls-2" d="M83.27,95v-.25a6.24,6.24,0,0,1,0-.67,2.71,2.71,0,0,1,.19-.61,4.41,4.41,0,0,1,.49-.82h4.28V108H84.92V95Z" transform="translate(0 0)"/><path class="cls-2" d="M91.75,94.3a2.64,2.64,0,0,1,.88-1.65h2.91l6.17,7.09a4.94,4.94,0,0,0,.57-.33c.87-.75,1.31-2.22,1.31-4.41h-2.07a2.32,2.32,0,0,1-.12-.66,2.06,2.06,0,0,1,1.11-1.69h4.41a23.87,23.87,0,0,1-.36,4.69,6.3,6.3,0,0,1-1.1,2.63,6.38,6.38,0,0,1-2.21,1.65l3.07,4V108H92a2.71,2.71,0,0,1-.07-.47A1.81,1.81,0,0,1,93,105.62h9.16L93.6,95H92A1.81,1.81,0,0,1,91.75,94.3Z" transform="translate(0 0)"/><path class="cls-2" d="M110.81,108a3.3,3.3,0,0,1,.71-2.35H119a3.54,3.54,0,0,0,2.77-1.68,6.6,6.6,0,0,0,1.28-4.13,6.79,6.79,0,0,0-.82-3.5A2.66,2.66,0,0,0,119.83,95h-5.69v3.53a1.61,1.61,0,0,0,1.58,1.27,6.33,6.33,0,0,0,.73-.06l.57-.08a1.68,1.68,0,0,1,.2.81,2.69,2.69,0,0,1-.2.93,10.92,10.92,0,0,1-2,.22,3.92,3.92,0,0,1-4.18-3v-6h9.86a6,6,0,0,1,2,.32,4.43,4.43,0,0,1,1.51.9,6.87,6.87,0,0,1,1.06,1.28,5.91,5.91,0,0,1,.71,1.55,11.87,11.87,0,0,1,.37,1.66,10.81,10.81,0,0,1,.12,1.61,8.41,8.41,0,0,1-.91,3.78,8.29,8.29,0,0,1-2.52,3.07,5.7,5.7,0,0,1-3.47,1.21Z" transform="translate(0 0)"/><path class="cls-2" d="M128.75,94.47a3,3,0,0,1,.65-1.82h7.43a11.18,11.18,0,0,1,4.22.63,4.82,4.82,0,0,1,2.31,2,3.76,3.76,0,0,1,.66,1.62,21,21,0,0,1,.16,3V108h-3.33V98.82A3.64,3.64,0,0,0,137,95h-8.22A2.93,2.93,0,0,1,128.75,94.47Zm.62,13.56V98.6a6.58,6.58,0,0,1,2.91,1V108Z" transform="translate(0 0)"/><path class="cls-2" d="M34.16,142.51a17.4,17.4,0,0,1,0-13.15,20.77,20.77,0,0,1,3.5-6l.05,0h2l-.14.21a23.72,23.72,0,0,0-3,6.06,20.15,20.15,0,0,0,0,12.78,23.5,23.5,0,0,0,3,6l.14.24h-2l-.05-.08A20.43,20.43,0,0,1,34.16,142.51Z" transform="translate(0 0)"/><path class="cls-2" d="M42,129.8a3.72,3.72,0,0,1,.8-2.57h3.9v10.21a3.05,3.05,0,0,0,.43,1.59,3.31,3.31,0,0,0,1.12,1.14,6.33,6.33,0,0,0,1.42.67,6.21,6.21,0,0,0,1.44.32,5.37,5.37,0,0,0,3.5-1.09,4.75,4.75,0,0,0,1.69-2.64,8,8,0,0,0,.29-2.08q0-6-4.1-6a3.43,3.43,0,0,0-.56,0,2.18,2.18,0,0,0-.5.11l-.43.15-.35.16-.26.16-.15.11-.06.05c-.15,0-.22-.45-.22-1.23a2.63,2.63,0,0,1,.22-1.25,8.7,8.7,0,0,1,3.45-.66,6.68,6.68,0,0,1,2.53.45,4.93,4.93,0,0,1,1.8,1.19,6.13,6.13,0,0,1,1.14,1.82,9.4,9.4,0,0,1,.63,2.22,16.32,16.32,0,0,1,.19,2.51,9.12,9.12,0,0,1-.56,3.25A7.37,7.37,0,0,1,57.67,141a7.2,7.2,0,0,1-2.82,1.72,12,12,0,0,1-4,.61,8.39,8.39,0,0,1-5.44-1.71,5.24,5.24,0,0,1-2.12-4.24V129.8Z" transform="translate(0 0)"/><path class="cls-2" d="M62.15,129.8a3.86,3.86,0,0,1,1.32-2.35h8.32a8.15,8.15,0,0,1,2.71.44,7,7,0,0,1,2.25,1.34,5.94,5.94,0,0,1,1.59,2.47,10.41,10.41,0,0,1,.58,3.64,7.67,7.67,0,0,1-2.22,5.88,9.09,9.09,0,0,1-6.41,2.08,9.55,9.55,0,0,1-3-.46,6.85,6.85,0,0,1-2.19-1.17,7.06,7.06,0,0,1-1.41-1.59,6.36,6.36,0,0,1-.8-1.68,5.57,5.57,0,0,1-.22-1.51V131l.9-1.16ZM66,137.05a3,3,0,0,0,.3,1.22,4.65,4.65,0,0,0,.83,1.26,4.12,4.12,0,0,0,1.44,1,4.62,4.62,0,0,0,1.94.41,4.94,4.94,0,0,0,2.79-.79,4.67,4.67,0,0,0,1.74-2,6.92,6.92,0,0,0,.56-2.82,8,8,0,0,0-.36-2.51,4.37,4.37,0,0,0-1-1.72,4.3,4.3,0,0,0-1.37-.94,4.08,4.08,0,0,0-1.6-.32H66Z" transform="translate(0 0)"/><path class="cls-2" d="M80.89,129.8v-.25a5.82,5.82,0,0,1,0-.67,2.27,2.27,0,0,1,.19-.61,4.91,4.91,0,0,1,.48-.82h4.29v15.38H82.55v-13Z" transform="translate(0 0)"/><path class="cls-2" d="M89,129.8v-.25a5.82,5.82,0,0,1,0-.67,2.71,2.71,0,0,1,.19-.61,4.41,4.41,0,0,1,.49-.82H94v15.38H90.69v-13Z" transform="translate(0 0)"/><path class="cls-2" d="M98.34,143v-2.8h3.33v3.21a3.74,3.74,0,0,1-.81,2.61,3,3,0,0,1-2.37.89h-.15v-1.29h.14a1.25,1.25,0,0,0,1.15-.47,3.69,3.69,0,0,0,.3-1.81V143Z" transform="translate(0 0)"/><path class="cls-2" d="M106.13,129.4a2.79,2.79,0,0,1,1-2h15.59v2.71l-.5.73-5.42,11.94h-3.6l5.77-13H106.18c0-.05,0-.12,0-.21A.89.89,0,0,1,106.13,129.4Zm.2,19.87V132.9a2.92,2.92,0,0,1,.79-.12,2.58,2.58,0,0,1,1.22.29,9.27,9.27,0,0,1,1.32.84v15.36Z" transform="translate(0 0)"/><path class="cls-2" d="M125.49,129.11a2.15,2.15,0,0,1,.88-1.66h3.78v8.16a6.25,6.25,0,0,0,3.46-.82,2.41,2.41,0,0,0,1.23-2v-3h-1.2a2.54,2.54,0,0,1-.17-1,1.65,1.65,0,0,1,.86-1.4h3.58v5.45a3.6,3.6,0,0,1-.93,2.3,7,7,0,0,1-2.6,1.86,9,9,0,0,1-3.59.73,6.58,6.58,0,0,0,2.3,2.12,6.88,6.88,0,0,0,3.14.63,10,10,0,0,0,2.19-.23,6.11,6.11,0,0,0,1.7-.62,6.4,6.4,0,0,0,1.24-.88,4.05,4.05,0,0,0,.85-1,4.94,4.94,0,0,0,.46-1.05,3.43,3.43,0,0,0,.15-1V129.8h-1.35a4.72,4.72,0,0,1-.05-.68,2.2,2.2,0,0,1,.83-1.67h3.9v8.63a4.52,4.52,0,0,1-.45,1.87,7.1,7.1,0,0,1-1.34,2,11.26,11.26,0,0,1-2.06,1.72,10.59,10.59,0,0,1-2.78,1.24,12.09,12.09,0,0,1-6.64,0,9,9,0,0,1-2.63-1.19,8.46,8.46,0,0,1-1.88-1.74,6.93,6.93,0,0,1-1.16-2.08,6.57,6.57,0,0,1-.39-2.22V129.8H125.6A4.83,4.83,0,0,1,125.49,129.11Z" transform="translate(0 0)"/><path class="cls-2" d="M148.93,142.46a2.77,2.77,0,0,1,.95-2h4.54v-9a2.83,2.83,0,0,0-.13-.91.84.84,0,0,0-.38-.5,1.3,1.3,0,0,0-.48-.18,3,3,0,0,0-.58,0h-2.92a3.47,3.47,0,0,1,1-2.35H154a4,4,0,0,1,2.68.87,3.47,3.47,0,0,1,1,2.81v11.7H149a.82.82,0,0,0,0-.18C148.94,142.56,148.93,142.5,148.93,142.46Z" transform="translate(0 0)"/><path class="cls-2" d="M160.17,148.63l.14-.24a23.4,23.4,0,0,0,3-6.06,20.15,20.15,0,0,0,0-12.78,23.82,23.82,0,0,0-3-6.05l-.14-.21h2l0,0a20.43,20.43,0,0,1,3.5,6,17.4,17.4,0,0,1,0,13.15,20.86,20.86,0,0,1-3.5,6l0,.08Z" transform="translate(0 0)"/></svg>