<svg id="Layer_1" data-name="Layer 1" xmlns="http://www.w3.org/2000/svg" viewBox="0 0 200.75 200.75"><defs><style>.cls-1{fill:#192318;stroke:#fff;stroke-miterlimit:10;stroke-width:0.75px;}.cls-2{fill:#fff;}</style></defs><rect class="cls-1" x="0.38" y="0.38" width="200" height="200"/><path class="cls-2" d="M23.29,62.5v-13a1,1,0,0,1,.29-.71.91.91,0,0,1,.69-.29h8.19a2.26,2.26,0,0,1,1.69.7L36,51.11a2.47,2.47,0,0,1,.71,1.77V62.5a1,1,0,0,1-.28.7.94.94,0,0,1-.7.3H24.27a.92.92,0,0,1-.69-.3A1,1,0,0,1,23.29,62.5Zm2-3.25a.5.5,0,0,0,.49.5H34.3a.45.45,0,0,0,.34-.15.45.45,0,0,0,.15-.35V55.48a2.44,2.44,0,0,0-.72-1.77L33.35,53a2.27,2.27,0,0,0-1.69-.71H25.74a.49.49,0,0,0-.35.15.5.5,0,0,0-.14.35Z" transform="translate(0.38 0.38)"/><path class="cls-2" d="M39.18,51.24V49.5a1,1,0,0,1,.28-.71.91.91,0,0,1,.69-.29h4.16a.91.91,0,0,1,.69.29,1,1,0,0,1,.29.71v6.75A1,1,0,0,1,45,57a.94.94,0,0,1-1.38,0,1,1,0,0,1-.28-.7V52.74a.5.5,0,0,0-.14-.35.47.47,0,0,0-.35-.15h-2.7a.91.91,0,0,1-.69-.29A1,1,0,0,1,39.18,51.24Z" transform="translate(0.38 0.38)"/><path class="cls-2" d="M47.72,51.24V49.5a1,1,0,0,1,.29-.71.91.91,0,0,1,.69-.29h4.15a.91.91,0,0,1,.69.29,1,1,0,0,1,.29.71v6.75a1,1,0,0,1-.29.7.94.94,0,0,1-1.38,0,1,1,0,0,1-.28-.7V52.74a.46.46,0,0,0-.14-.35.45.45,0,0,0-.35-.15H48.7A.91.91,0,0,1,48,52,1,1,0,0,1,47.72,51.24Z" transform="translate(0.38 0.38)"/><path class="cls-2" d="M56.26,51.24V49.5a1,1,0,0,1,.29-.71.91.91,0,0,1,.69-.29h4.15a.93.93,0,0,1,.7.29,1,1,0,0,1,.28.71V62.62a1,1,0,0,1-.28.71,1,1,0,0,1-.7.29.91.91,0,0,1-.68-.29,1,1,0,0,1-.28-.71V52.74a.47.47,0,0,0-.15-.35.45.45,0,0,0-.34-.15h-2.7a.91.91,0,0,1-.69-.29A1,1,0,0,1,56.26,51.24Z" transform="translate(0.38 0.38)"/><path class="cls-2" d="M64.81,62.5V60.75a1,1,0,0,1,.28-.71,1,1,0,0,1,.7-.29h4.4a.45.45,0,0,0,.34-.15.45.45,0,0,0,.15-.35V52.74a.47.47,0,0,0-.15-.35.45.45,0,0,0-.34-.15H67.25a.91.91,0,0,1-.69-.29,1,1,0,0,1-.29-.71V49.5a1,1,0,0,1,.29-.71.91.91,0,0,1,.69-.29h4.41a.91.91,0,0,1,.69.29,1,1,0,0,1,.28.71v13a1,1,0,0,1-.28.7.92.92,0,0,1-.69.3H65.79a.92.92,0,0,1-.7-.3A1,1,0,0,1,64.81,62.5Z" transform="translate(0.38 0.38)"/><path class="cls-2" d="M75.07,51.24V49.5a1,1,0,0,1,.28-.71.94.94,0,0,1,.7-.29H80.2a.91.91,0,0,1,.69.29,1,1,0,0,1,.29.71v6.75a1,1,0,0,1-.29.7.94.94,0,0,1-1.38,0,1,1,0,0,1-.28-.7V52.74a.5.5,0,0,0-.14-.35.47.47,0,0,0-.35-.15H76.05a.94.94,0,0,1-.7-.29A1,1,0,0,1,75.07,51.24Z" transform="translate(0.38 0.38)"/><path class="cls-2" d="M83.61,62.5V60.75A1,1,0,0,1,83.9,60a.94.94,0,0,1,.69-.29h9.53a.47.47,0,0,0,.35-.15.45.45,0,0,0,.14-.35V52.74a.46.46,0,0,0-.14-.35.47.47,0,0,0-.35-.15H86.06a.47.47,0,0,0-.35.15.5.5,0,0,0-.14.35v.91a.5.5,0,0,0,.14.35.47.47,0,0,0,.35.15h.74a.91.91,0,0,1,.69.29,1,1,0,0,1,.29.71v1.74a1,1,0,0,1-.29.71.91.91,0,0,1-.69.29H84.59a.91.91,0,0,1-.69-.29,1,1,0,0,1-.29-.71V49.5a1,1,0,0,1,.29-.71.91.91,0,0,1,.69-.29h11a.91.91,0,0,1,.69.29,1,1,0,0,1,.29.71v13a1,1,0,0,1-.29.7.92.92,0,0,1-.69.3h-11a.92.92,0,0,1-.69-.3A1,1,0,0,1,83.61,62.5Z" transform="translate(0.38 0.38)"/><path class="cls-2" d="M108.78,62.5V60.75a1,1,0,0,1,.28-.71.94.94,0,0,1,.69-.29h.75a.5.5,0,0,0,.48-.5V52.74a.46.46,0,0,0-.14-.35.45.45,0,0,0-.34-.15h-.26a.91.91,0,0,1-.69-.29,1,1,0,0,1-.28-.71V49.5a1,1,0,0,1,.28-.71.91.91,0,0,1,.69-.29h12a.93.93,0,0,1,.7.29,1,1,0,0,1,.28.71V62.62a1,1,0,0,1-.28.71,1,1,0,0,1-.7.29.94.94,0,0,1-.69-.29,1,1,0,0,1-.28-.71V52.74a.47.47,0,0,0-.15-.35.45.45,0,0,0-.34-.15h-7.33a.47.47,0,0,0-.35.15.5.5,0,0,0-.14.35V62.5a.93.93,0,0,1-.29.7.92.92,0,0,1-.69.3h-2.21a.92.92,0,0,1-.69-.3A1,1,0,0,1,108.78,62.5Z" transform="translate(0.38 0.38)"/><path class="cls-2" d="M125.64,62.5V60.75a1,1,0,0,1,.28-.71.94.94,0,0,1,.69-.29H131a.45.45,0,0,0,.34-.15.45.45,0,0,0,.15-.35V52.74a.47.47,0,0,0-.15-.35.45.45,0,0,0-.34-.15h-2.94a.91.91,0,0,1-.69-.29,1,1,0,0,1-.29-.71V49.5a1,1,0,0,1,.29-.71.91.91,0,0,1,.69-.29h4.41a.91.91,0,0,1,.69.29,1,1,0,0,1,.28.71v13a1,1,0,0,1-.28.7.92.92,0,0,1-.69.3h-5.88a.92.92,0,0,1-.69-.3A1,1,0,0,1,125.64,62.5Z" transform="translate(0.38 0.38)"/><path class="cls-2" d="M135.9,51.24V49.5a1,1,0,0,1,.28-.71.94.94,0,0,1,.7-.29h2a.94.94,0,0,1,.7.29,1,1,0,0,1,.28.71V51c0,.56.18.66.53.3l2.07-2.1a2.29,2.29,0,0,1,1.71-.7h5.95a.94.94,0,0,1,.7.29,1,1,0,0,1,.28.71v13a1,1,0,0,1-1,1h-5.62a.92.92,0,0,1-.69-.3,1,1,0,0,1-.29-.7V60.75a1,1,0,0,1,.29-.71.94.94,0,0,1,.69-.29h4.16a.5.5,0,0,0,.48-.5V52.74a.46.46,0,0,0-.14-.35.45.45,0,0,0-.34-.15h-4a2.23,2.23,0,0,0-1.69.71l-2.11,2.17a2.44,2.44,0,0,0-.72,1.77v5.73a1,1,0,0,1-1,1,.94.94,0,0,1-.69-.29,1,1,0,0,1-.28-.71V52.74a.47.47,0,0,0-.15-.35.45.45,0,0,0-.34-.15h-.74a.94.94,0,0,1-.7-.29A1,1,0,0,1,135.9,51.24Z" transform="translate(0.38 0.38)"/><path class="cls-2" d="M153.49,51.24V49.5a1,1,0,0,1,.28-.71.91.91,0,0,1,.69-.29h5.39a.91.91,0,0,1,.69.29,1,1,0,0,1,.28.71v1.74a1,1,0,0,1-.28.71.91.91,0,0,1-.69.29h-1a.47.47,0,0,0-.35.15.5.5,0,0,0-.14.35v9.88a1,1,0,0,1-.29.71,1,1,0,0,1-1.38,0,1,1,0,0,1-.29-.71V52.74a.5.5,0,0,0-.14-.35.47.47,0,0,0-.35-.15h-1.47a.91.91,0,0,1-.69-.29A1,1,0,0,1,153.49,51.24Z" transform="translate(0.38 0.38)"/><path class="cls-2" d="M163.26,51.24V49.5a1,1,0,0,1,.28-.71.94.94,0,0,1,.7-.29h11.49a.91.91,0,0,1,.69.29,1,1,0,0,1,.29.71V62.62a1,1,0,0,1-.29.71,1,1,0,0,1-1.67-.71V52.74a.5.5,0,0,0-.14-.35.49.49,0,0,0-.35-.15h-10a.94.94,0,0,1-.7-.29A1,1,0,0,1,163.26,51.24Zm0,11.26V57a1,1,0,0,1,1-1,.92.92,0,0,1,.69.3,1,1,0,0,1,.28.7v2.25a.45.45,0,0,0,.15.35.45.45,0,0,0,.34.15h.74a1,1,0,0,1,.7.29,1,1,0,0,1,.28.71V62.5a1,1,0,0,1-.28.7.94.94,0,0,1-.7.3h-2.2a1,1,0,0,1-1-1Z" transform="translate(0.38 0.38)"/><path class="cls-2" d="M22.57,92.62V79.5a1,1,0,0,1,.28-.71.91.91,0,0,1,.69-.29H35a.91.91,0,0,1,.69.29,1,1,0,0,1,.28.71V92.62a1,1,0,0,1-.28.71,1,1,0,0,1-1.39,0,1,1,0,0,1-.28-.71V82.74a.47.47,0,0,0-.15-.35.45.45,0,0,0-.34-.15H25a.45.45,0,0,0-.34.15.47.47,0,0,0-.15.35v9.88a1,1,0,0,1-.28.71,1,1,0,0,1-1.39,0A1,1,0,0,1,22.57,92.62Z" transform="translate(0.38 0.38)"/><path class="cls-2" d="M38.45,81.24V79.5a1,1,0,0,1,.28-.71.93.93,0,0,1,.7-.29h4.15a.91.91,0,0,1,.69.29,1,1,0,0,1,.29.71V92.62a1,1,0,0,1-.29.71,1,1,0,0,1-1.38,0,1,1,0,0,1-.28-.71V82.74a.5.5,0,0,0-.14-.35.47.47,0,0,0-.35-.15H39.43a.93.93,0,0,1-.7-.29A1,1,0,0,1,38.45,81.24Z" transform="translate(0.38 0.38)"/><path class="cls-2" d="M47,81.24V79.5a1,1,0,0,1,.29-.71A.91.91,0,0,1,48,78.5h4.15a.91.91,0,0,1,.69.29,1,1,0,0,1,.29.71V92.62a1,1,0,0,1-.29.71.94.94,0,0,1-.69.29.91.91,0,0,1-.68-.29,1,1,0,0,1-.28-.71V82.74a.47.47,0,0,0-.15-.35.45.45,0,0,0-.34-.15H48a.91.91,0,0,1-.69-.29A1,1,0,0,1,47,81.24Z" transform="translate(0.38 0.38)"/><path class="cls-2" d="M55.54,81.24V79.5a1,1,0,0,1,.28-.71.91.91,0,0,1,.69-.29h4.16a.91.91,0,0,1,.69.29,1,1,0,0,1,.28.71v6.75a1,1,0,0,1-.28.7.92.92,0,0,1-.69.3A.9.9,0,0,1,60,87a1,1,0,0,1-.28-.7V82.74a.5.5,0,0,0-.14-.35.49.49,0,0,0-.35-.15h-2.7a.91.91,0,0,1-.69-.29A1,1,0,0,1,55.54,81.24Z" transform="translate(0.38 0.38)"/><path class="cls-2" d="M64.08,81.24V79.5a1,1,0,0,1,.28-.71.94.94,0,0,1,.7-.29H77a.91.91,0,0,1,.69.29,1,1,0,0,1,.28.71v1.74a1,1,0,0,1-.28.71.91.91,0,0,1-.69.29h-1a.47.47,0,0,0-.35.15.5.5,0,0,0-.14.35v9.88a1,1,0,0,1-.29.71,1,1,0,0,1-1.38,0,1,1,0,0,1-.29-.71V82.74a.5.5,0,0,0-.14-.35.47.47,0,0,0-.35-.15H65.06a.94.94,0,0,1-.7-.29A1,1,0,0,1,64.08,81.24Z" transform="translate(0.38 0.38)"/><path class="cls-2" d="M90.22,92.5V90.75a1,1,0,0,1,.29-.71.94.94,0,0,1,.69-.29h.74a.5.5,0,0,0,.49-.5V82.74a.5.5,0,0,0-.14-.35.49.49,0,0,0-.35-.15h-.25A.91.91,0,0,1,91,82a1,1,0,0,1-.29-.71V79.5a1,1,0,0,1,.29-.71.91.91,0,0,1,.69-.29h12a.91.91,0,0,1,.69.29,1,1,0,0,1,.29.71V92.62a1,1,0,0,1-.29.71,1,1,0,0,1-1.38,0,1,1,0,0,1-.29-.71V82.74a.5.5,0,0,0-.14-.35.47.47,0,0,0-.35-.15H94.87a.45.45,0,0,0-.34.15.46.46,0,0,0-.14.35V92.5a1,1,0,0,1-.29.7.92.92,0,0,1-.69.3H91.2a.92.92,0,0,1-.69-.3A1,1,0,0,1,90.22,92.5Z" transform="translate(0.38 0.38)"/><path class="cls-2" d="M107.08,81.24V79.5a1,1,0,0,1,.29-.71.91.91,0,0,1,.69-.29h10.75a.91.91,0,0,1,.69.29,1,1,0,0,1,.29.71V92.62a1,1,0,0,1-.29.71,1,1,0,0,1-1.38,0,1,1,0,0,1-.28-.71V82.74a.46.46,0,0,0-.14-.35.45.45,0,0,0-.35-.15h-9.29a.91.91,0,0,1-.69-.29A1,1,0,0,1,107.08,81.24Z" transform="translate(0.38 0.38)"/><path class="cls-2" d="M122.22,92.5V90.75a1,1,0,0,1,.29-.71.94.94,0,0,1,.69-.29h9a.45.45,0,0,0,.34-.15.45.45,0,0,0,.15-.35V82.74a.47.47,0,0,0-.15-.35.45.45,0,0,0-.34-.15h-9a.91.91,0,0,1-.69-.29,1,1,0,0,1-.29-.71V79.5a1,1,0,0,1,.29-.71.91.91,0,0,1,.69-.29h10.51a.94.94,0,0,1,.7.29,1,1,0,0,1,.28.71v9.75a.5.5,0,0,0,.49.5h.73a.94.94,0,0,1,.69.29,1,1,0,0,1,.29.71V92.5a1,1,0,0,1-.29.7.92.92,0,0,1-.69.3H123.2a.92.92,0,0,1-.69-.3A1,1,0,0,1,122.22,92.5Z" transform="translate(0.38 0.38)"/><path class="cls-2" d="M139.32,92.5V90.75a1,1,0,0,1,.29-.71.94.94,0,0,1,.69-.29H142a.45.45,0,0,0,.34-.15.45.45,0,0,0,.15-.35V82.74a.47.47,0,0,0-.15-.35.45.45,0,0,0-.34-.15H140.3a.91.91,0,0,1-.69-.29,1,1,0,0,1-.29-.71V79.5a1,1,0,0,1,.29-.71.91.91,0,0,1,.69-.29h3.19a.87.87,0,0,1,.68.29,1,1,0,0,1,.28.71v9.75a.45.45,0,0,0,.15.35.45.45,0,0,0,.34.15h5.62a.47.47,0,0,0,.35-.15.48.48,0,0,0,.14-.35V82.74a.5.5,0,0,0-.14-.35.47.47,0,0,0-.35-.15h-1.7a.91.91,0,0,1-.7-.29,1,1,0,0,1-.28-.71V79.5a1,1,0,0,1,.28-.71.91.91,0,0,1,.7-.29H152a.91.91,0,0,1,.69.29,1,1,0,0,1,.29.71v13a1,1,0,0,1-.29.7.92.92,0,0,1-.69.3H140.3a.92.92,0,0,1-.69-.3A1,1,0,0,1,139.32,92.5Z" transform="translate(0.38 0.38)"/><path class="cls-2" d="M155.44,81.24V79.5a1,1,0,0,1,.29-.71.91.91,0,0,1,.69-.29h11.49a.91.91,0,0,1,.69.29,1,1,0,0,1,.29.71V92.62a1,1,0,0,1-.29.71,1,1,0,0,1-1.38,0,1,1,0,0,1-.29-.71V82.74a.5.5,0,0,0-.14-.35.47.47,0,0,0-.35-.15h-10a.91.91,0,0,1-.69-.29A1,1,0,0,1,155.44,81.24Zm0,11.26V87a1,1,0,0,1,.29-.7.94.94,0,0,1,1.38,0,1,1,0,0,1,.29.7v2.25a.48.48,0,0,0,.14.35.47.47,0,0,0,.35.15h.74a.94.94,0,0,1,.69.29,1,1,0,0,1,.29.71V92.5a1,1,0,0,1-.29.7.92.92,0,0,1-.69.3h-2.21a.92.92,0,0,1-.69-.3A1,1,0,0,1,155.44,92.5Z" transform="translate(0.38 0.38)"/><path class="cls-2" d="M171.32,81.24V79.5a1,1,0,0,1,.29-.71.91.91,0,0,1,.69-.29h4.15a.93.93,0,0,1,.7.29,1,1,0,0,1,.28.71V92.62a1,1,0,0,1-.28.71,1,1,0,0,1-.7.29.92.92,0,0,1-.68-.29,1,1,0,0,1-.28-.71V82.74a.47.47,0,0,0-.15-.35.45.45,0,0,0-.34-.15h-2.7a.91.91,0,0,1-.69-.29A1,1,0,0,1,171.32,81.24Z" transform="translate(0.38 0.38)"/><path class="cls-2" d="M11.8,122.5v-13a1,1,0,0,1,.28-.71.91.91,0,0,1,.7-.29H21a2.3,2.3,0,0,1,1.7.7l1.87,1.91a2.44,2.44,0,0,1,.72,1.77v9.62a1,1,0,0,1-.29.71.94.94,0,0,1-.69.29H12.78a1,1,0,0,1-.7-.29A1,1,0,0,1,11.8,122.5Zm1.95-3.25a.45.45,0,0,0,.15.35.45.45,0,0,0,.34.15H22.8a.45.45,0,0,0,.34-.15.45.45,0,0,0,.15-.35v-3.77a2.44,2.44,0,0,0-.72-1.77l-.71-.76a2.31,2.31,0,0,0-1.7-.71H14.24a.45.45,0,0,0-.34.15.49.49,0,0,0-.15.35Z" transform="translate(0.38 0.38)"/><path class="cls-2" d="M27.68,111.24V109.5a1,1,0,0,1,.28-.71.94.94,0,0,1,.7-.29h4.15a.91.91,0,0,1,.69.29,1,1,0,0,1,.29.71v6.75a1,1,0,0,1-.29.71,1,1,0,0,1-1.38,0,1,1,0,0,1-.28-.71v-3.51a.52.52,0,0,0-.14-.35.47.47,0,0,0-.35-.15H28.66A.94.94,0,0,1,28,112,1,1,0,0,1,27.68,111.24Z" transform="translate(0.38 0.38)"/><path class="cls-2" d="M36.22,111.24V109.5a1,1,0,0,1,.29-.71.91.91,0,0,1,.69-.29h2a.91.91,0,0,1,.69.29,1,1,0,0,1,.29.71V111c0,.56.17.66.52.3l2.08-2.1a2.29,2.29,0,0,1,1.7-.7h6a.91.91,0,0,1,.69.29,1,1,0,0,1,.29.71v13a1,1,0,0,1-.29.71.94.94,0,0,1-.69.29H44.78a.94.94,0,0,1-.69-.29,1,1,0,0,1-.29-.71v-1.75a1,1,0,0,1,1-1h4.15a.47.47,0,0,0,.35-.15.48.48,0,0,0,.14-.35v-6.51a.52.52,0,0,0-.14-.35.47.47,0,0,0-.35-.15h-4a2.25,2.25,0,0,0-1.7.71l-2.11,2.17a2.43,2.43,0,0,0-.71,1.77v5.73a1,1,0,0,1-.29.71,1,1,0,0,1-1.38,0,1,1,0,0,1-.29-.71v-9.88a.52.52,0,0,0-.14-.35.47.47,0,0,0-.35-.15H37.2a.91.91,0,0,1-.69-.29A1,1,0,0,1,36.22,111.24Z" transform="translate(0.38 0.38)"/><path class="cls-2" d="M53.81,111.24V109.5a1,1,0,0,1,.29-.71.91.91,0,0,1,.69-.29H65.54a.91.91,0,0,1,.69.29,1,1,0,0,1,.29.71v13.12a1,1,0,0,1-.29.71,1,1,0,0,1-1.38,0,1,1,0,0,1-.28-.71v-9.88a.47.47,0,0,0-.14-.35.47.47,0,0,0-.35-.15H54.79a.91.91,0,0,1-.69-.29A1,1,0,0,1,53.81,111.24Z" transform="translate(0.38 0.38)"/><path class="cls-2" d="M69,111.24V109.5a1,1,0,0,1,.29-.71.91.91,0,0,1,.69-.29h4.15a.94.94,0,0,1,.7.29,1,1,0,0,1,.28.71v13.12a1,1,0,0,1-1,1,.91.91,0,0,1-.68-.29,1,1,0,0,1-.28-.71v-9.88a.49.49,0,0,0-.15-.35.45.45,0,0,0-.34-.15h-2.7a.91.91,0,0,1-.69-.29A1,1,0,0,1,69,111.24Z" transform="translate(0.38 0.38)"/><path class="cls-2" d="M77.5,122.62V121a.92.92,0,0,1,.46-.84L83.39,117a.92.92,0,0,0,.47-.83v-3.4a.49.49,0,0,0-.15-.35.45.45,0,0,0-.34-.15H80.68A.91.91,0,0,1,80,112a1,1,0,0,1-.29-.71V109.5a1,1,0,0,1,.29-.71.91.91,0,0,1,.69-.29h4.15a.94.94,0,0,1,.7.29,1,1,0,0,1,.28.71v13.12a1,1,0,0,1-1,1,.94.94,0,0,1-.69-.29,1,1,0,0,1-.28-.71v-1a.52.52,0,0,0-.58-.6,1.57,1.57,0,0,0-.62.26l-3.47,2-.15.1a.84.84,0,0,1-.19.11l-.17.06a.52.52,0,0,1-.21,0,.94.94,0,0,1-.69-.29A1,1,0,0,1,77.5,122.62Z" transform="translate(0.38 0.38)"/><path class="cls-2" d="M88.25,111.24V102a1,1,0,0,1,.28-.71.94.94,0,0,1,.69-.29h2a.94.94,0,0,1,.69.29,1,1,0,0,1,.29.71v1.75a1,1,0,0,1-.29.71.94.94,0,0,1-.69.29h-.49a.48.48,0,0,0-.34.14.49.49,0,0,0-.15.36V108a.49.49,0,0,0,.15.35.45.45,0,0,0,.34.15h10a.91.91,0,0,1,.69.29,1,1,0,0,1,.28.71v13a1,1,0,0,1-.28.71.94.94,0,0,1-.69.29H95.33a.94.94,0,0,1-.69-.29,1,1,0,0,1-.28-.71v-1.75a1,1,0,0,1,.28-.71.94.94,0,0,1,.69-.29h3.92a.45.45,0,0,0,.34-.15.45.45,0,0,0,.15-.35v-6.51a.49.49,0,0,0-.15-.35.45.45,0,0,0-.34-.15h-10a.91.91,0,0,1-.69-.29A1,1,0,0,1,88.25,111.24Z" transform="translate(0.38 0.38)"/><path class="cls-2" d="M113.9,111.24V109.5a1,1,0,0,1,.29-.71.91.91,0,0,1,.69-.29H119a.91.91,0,0,1,.69.29,1,1,0,0,1,.29.71v6.75a1,1,0,0,1-.29.71,1,1,0,0,1-1.38,0,1,1,0,0,1-.28-.71v-3.51a.47.47,0,0,0-.14-.35.45.45,0,0,0-.34-.15h-2.7a.91.91,0,0,1-.69-.29A1,1,0,0,1,113.9,111.24Z" transform="translate(0.38 0.38)"/><path class="cls-2" d="M122.44,122.5v-1.75a1,1,0,0,1,.29-.71.94.94,0,0,1,.69-.29h4.41a.5.5,0,0,0,.48-.5v-6.51a.47.47,0,0,0-.14-.35.45.45,0,0,0-.34-.15h-2.94a.91.91,0,0,1-.69-.29,1,1,0,0,1-.29-.71V109.5a1,1,0,0,1,.29-.71.91.91,0,0,1,.69-.29h4.4a.91.91,0,0,1,.69.29.94.94,0,0,1,.29.71v13a1,1,0,0,1-.29.71.94.94,0,0,1-.69.29h-5.87a.94.94,0,0,1-.69-.29A1,1,0,0,1,122.44,122.5Z" transform="translate(0.38 0.38)"/><path class="cls-2" d="M132.71,111.24V109.5a1,1,0,0,1,.28-.71.91.91,0,0,1,.69-.29h4.16a.91.91,0,0,1,.69.29,1,1,0,0,1,.28.71v13.12a1,1,0,0,1-.28.71,1,1,0,0,1-1.38,0,1,1,0,0,1-.28-.71v-9.88a.52.52,0,0,0-.14-.35.47.47,0,0,0-.35-.15h-2.7A.91.91,0,0,1,133,112,1,1,0,0,1,132.71,111.24Z" transform="translate(0.38 0.38)"/><path class="cls-2" d="M141.25,122.5v-13a.94.94,0,0,1,.29-.71.91.91,0,0,1,.69-.29h2a.94.94,0,0,1,.7.29,1,1,0,0,1,.28.71v1.74a1,1,0,0,1-.28.71.94.94,0,0,1-.7.29h-.49a.45.45,0,0,0-.34.15.47.47,0,0,0-.14.35v6.51a.5.5,0,0,0,.48.5h10.76a.5.5,0,0,0,.48-.5v-6.51a.47.47,0,0,0-.14-.35.45.45,0,0,0-.34-.15H154a.94.94,0,0,1-.7-.29,1,1,0,0,1-.28-.71V109.5a1,1,0,0,1,.28-.71.94.94,0,0,1,.7-.29h1.95a.91.91,0,0,1,.69.29.94.94,0,0,1,.29.71v13a1,1,0,0,1-.29.71.94.94,0,0,1-.69.29H142.23a.94.94,0,0,1-.69-.29A1,1,0,0,1,141.25,122.5Zm5.87-11.26V109.5a.94.94,0,0,1,.29-.71.91.91,0,0,1,.69-.29h2a.93.93,0,0,1,.7.29,1,1,0,0,1,.28.71v6.75a1,1,0,0,1-.28.71,1,1,0,0,1-.7.29.94.94,0,0,1-.69-.29,1,1,0,0,1-.28-.71v-3.51a.49.49,0,0,0-.15-.35.45.45,0,0,0-.34-.15h-.49a.91.91,0,0,1-.69-.29A1,1,0,0,1,147.12,111.24Z" transform="translate(0.38 0.38)"/><path class="cls-2" d="M159.33,122.5v-13a1,1,0,0,1,.28-.71.91.91,0,0,1,.69-.29,1,1,0,0,1,.7.31l7.64,7.31,2.33-2.35a.45.45,0,0,0,.14-.34v-.69a.47.47,0,0,0-.14-.35.45.45,0,0,0-.35-.15h-1.76a.91.91,0,0,1-.69-.29,1,1,0,0,1-.29-.71V109.5a1,1,0,0,1,.29-.71.91.91,0,0,1,.69-.29h3.22a.91.91,0,0,1,.69.29,1,1,0,0,1,.29.71v4a2,2,0,0,1-.5,1.47l-2.51,2.48,2.58,2.45a1.51,1.51,0,0,1,.44,1.14v1.84a.62.62,0,0,1-.68.71,1,1,0,0,1-.73-.34l-9.54-9a.47.47,0,0,0-.35-.15.45.45,0,0,0-.34.15.49.49,0,0,0-.15.35v4.63a.45.45,0,0,0,.15.35.45.45,0,0,0,.34.15h.74a.94.94,0,0,1,.69.29,1,1,0,0,1,.29.71v1.75a1,1,0,0,1-.29.71.94.94,0,0,1-.69.29H160.3a.94.94,0,0,1-.69-.29A1,1,0,0,1,159.33,122.5Z" transform="translate(0.38 0.38)"/><path class="cls-2" d="M175.49,111.24V109.5a1,1,0,0,1,.29-.71.91.91,0,0,1,.69-.29h10.75a.94.94,0,0,1,.7.29,1,1,0,0,1,.28.71v13.12a1,1,0,0,1-1,1,.91.91,0,0,1-.68-.29,1,1,0,0,1-.28-.71v-9.88a.49.49,0,0,0-.15-.35.45.45,0,0,0-.34-.15h-9.3a.91.91,0,0,1-.69-.29A1,1,0,0,1,175.49,111.24Z" transform="translate(0.38 0.38)"/><path class="cls-2" d="M43.57,152.5v-13a1,1,0,0,1,.29-.71.91.91,0,0,1,.69-.29h8.19a2.28,2.28,0,0,1,1.69.7l1.87,1.91a2.44,2.44,0,0,1,.72,1.77v9.62a1,1,0,0,1-.29.71.94.94,0,0,1-.69.29H44.55a.94.94,0,0,1-.69-.29A1,1,0,0,1,43.57,152.5Zm2-3.25a.48.48,0,0,0,.14.35.47.47,0,0,0,.35.15h8.55a.47.47,0,0,0,.35-.15.45.45,0,0,0,.14-.35v-3.77a2.47,2.47,0,0,0-.71-1.77l-.72-.76a2.29,2.29,0,0,0-1.69-.71H46a.47.47,0,0,0-.35.15.52.52,0,0,0-.14.35Z" transform="translate(0.38 0.38)"/><path class="cls-2" d="M59.45,141.24V139.5a1,1,0,0,1,.29-.71.91.91,0,0,1,.69-.29h4.15a.93.93,0,0,1,.7.29,1,1,0,0,1,.28.71v6.75a1,1,0,0,1-.28.71,1,1,0,0,1-.7.29.91.91,0,0,1-.68-.29,1,1,0,0,1-.28-.71v-3.51a.49.49,0,0,0-.15-.35.45.45,0,0,0-.34-.15h-2.7a.91.91,0,0,1-.69-.29A1,1,0,0,1,59.45,141.24Z" transform="translate(0.38 0.38)"/><path class="cls-2" d="M68,152.5v-13a1,1,0,0,1,.28-.71.93.93,0,0,1,.7-.29h2a.91.91,0,0,1,.69.29.94.94,0,0,1,.29.71v1.74a1,1,0,0,1-.29.71.91.91,0,0,1-.69.29h-.49a.45.45,0,0,0-.34.15.49.49,0,0,0-.15.35v6.51a.45.45,0,0,0,.15.35.45.45,0,0,0,.34.15h9.29a.45.45,0,0,0,.34-.15.45.45,0,0,0,.15-.35v-6.51a.49.49,0,0,0-.15-.35.45.45,0,0,0-.34-.15h-.92a3,3,0,0,0-1.7.53l-1.92,1c-.28.17-.51.19-.68.06a.78.78,0,0,1-.27-.68v-1.93a2,2,0,0,1,.16-.87,1.42,1.42,0,0,1,.55-.57L76.3,139A3.34,3.34,0,0,1,78,138.5h3.18a.93.93,0,0,1,.7.29,1,1,0,0,1,.28.71v13a1,1,0,0,1-.28.71,1,1,0,0,1-.7.29H69a1,1,0,0,1-.7-.29A1,1,0,0,1,68,152.5Z" transform="translate(0.38 0.38)"/><path class="cls-2" d="M84.61,152.5v-1.75a1,1,0,0,1,.28-.71.94.94,0,0,1,.69-.29H90a.45.45,0,0,0,.34-.15.45.45,0,0,0,.15-.35v-6.51a.49.49,0,0,0-.15-.35.45.45,0,0,0-.34-.15H87.05a.91.91,0,0,1-.69-.29,1,1,0,0,1-.29-.71V139.5a1,1,0,0,1,.29-.71.91.91,0,0,1,.69-.29h4.41a.91.91,0,0,1,.69.29,1,1,0,0,1,.28.71v13a1,1,0,0,1-.28.71.94.94,0,0,1-.69.29H85.58a.94.94,0,0,1-.69-.29A1,1,0,0,1,84.61,152.5Z" transform="translate(0.38 0.38)"/><path class="cls-2" d="M94.87,141.24V139.5a.94.94,0,0,1,.29-.71.91.91,0,0,1,.69-.29H100a.91.91,0,0,1,.69.29,1,1,0,0,1,.29.71v13.12a1,1,0,0,1-.29.71,1,1,0,0,1-1.38,0,1,1,0,0,1-.28-.71v-9.88a.47.47,0,0,0-.14-.35.47.47,0,0,0-.35-.15H95.85a.91.91,0,0,1-.69-.29A1,1,0,0,1,94.87,141.24Z" transform="translate(0.38 0.38)"/><path class="cls-2" d="M103.41,141.24V139.5a1,1,0,0,1,.29-.71.91.91,0,0,1,.69-.29h4.15a.91.91,0,0,1,.69.29,1,1,0,0,1,.29.71v13.12a1,1,0,0,1-.29.71.94.94,0,0,1-.69.29.91.91,0,0,1-.68-.29,1,1,0,0,1-.28-.71v-9.88a.49.49,0,0,0-.15-.35.45.45,0,0,0-.34-.15h-2.7a.91.91,0,0,1-.69-.29A1,1,0,0,1,103.41,141.24Z" transform="translate(0.38 0.38)"/><path class="cls-2" d="M112,141.24V132a1,1,0,0,1,.28-.71.94.94,0,0,1,.69-.29h2a.94.94,0,0,1,.69.29,1,1,0,0,1,.29.71v1.75a1,1,0,0,1-.29.71.94.94,0,0,1-.69.29h-.49a.48.48,0,0,0-.34.14.49.49,0,0,0-.15.36V138a.49.49,0,0,0,.15.35.45.45,0,0,0,.34.15h10a.93.93,0,0,1,.7.29,1,1,0,0,1,.28.71v13a1,1,0,0,1-.28.71,1,1,0,0,1-.7.29H119a.94.94,0,0,1-.69-.29,1,1,0,0,1-.29-.71v-1.75a1,1,0,0,1,.29-.71.94.94,0,0,1,.69-.29H123a.45.45,0,0,0,.34-.15.45.45,0,0,0,.15-.35v-6.51a.49.49,0,0,0-.15-.35.45.45,0,0,0-.34-.15h-10a.91.91,0,0,1-.69-.29A1,1,0,0,1,112,141.24Z" transform="translate(0.38 0.38)"/><path class="cls-2" d="M127.84,141.24V139.5a1,1,0,0,1,.28-.71.91.91,0,0,1,.69-.29h10.76a.91.91,0,0,1,.69.29,1,1,0,0,1,.28.71v13.12a1,1,0,0,1-.28.71.94.94,0,0,1-.69.29.93.93,0,0,1-.69-.29,1,1,0,0,1-.28-.71v-9.88a.52.52,0,0,0-.14-.35.47.47,0,0,0-.35-.15h-9.3a.91.91,0,0,1-.69-.29A1,1,0,0,1,127.84,141.24Z" transform="translate(0.38 0.38)"/><path class="cls-2" d="M143,141.24V139.5a.94.94,0,0,1,.29-.71.91.91,0,0,1,.69-.29h11.49a.91.91,0,0,1,.69.29,1,1,0,0,1,.29.71v13.12a1,1,0,0,1-.29.71,1,1,0,0,1-1.67-.71v-9.88a.52.52,0,0,0-.14-.35.47.47,0,0,0-.35-.15H144a.91.91,0,0,1-.69-.29A1,1,0,0,1,143,141.24Zm0,11.26V147a.93.93,0,0,1,.29-.7.94.94,0,0,1,1.38,0,1,1,0,0,1,.29.7v2.25a.5.5,0,0,0,.48.5h.75a1,1,0,0,1,.69.29,1,1,0,0,1,.28.71v1.75a1,1,0,0,1-.28.71,1,1,0,0,1-.69.29H144a.94.94,0,0,1-.69-.29A1,1,0,0,1,143,152.5Z" transform="translate(0.38 0.38)"/></svg>