<svg id="Layer_1" data-name="Layer 1" xmlns="http://www.w3.org/2000/svg" viewBox="0 0 200.75 200.75"><defs><style>.cls-1{fill:#192318;stroke:#fff;stroke-miterlimit:10;stroke-width:0.75px;}.cls-2{fill:#fff;}</style></defs><rect class="cls-1" x="0.38" y="0.38" width="200" height="200"/><path class="cls-2" d="M11.33,66.24V64.5a1,1,0,0,1,.29-.71.91.91,0,0,1,.69-.29h12a.91.91,0,0,1,.69.29,1,1,0,0,1,.29.71v1.74A1,1,0,0,1,25,67a.91.91,0,0,1-.69.29h-1a.45.45,0,0,0-.34.15.47.47,0,0,0-.15.35v9.88a1,1,0,0,1-.28.71,1,1,0,0,1-1.39,0,1,1,0,0,1-.28-.71V67.74a.47.47,0,0,0-.15-.35.45.45,0,0,0-.34-.15H12.31a.91.91,0,0,1-.69-.29A1,1,0,0,1,11.33,66.24Z" transform="translate(0.38 0.38)"/><path class="cls-2" d="M27.7,66.24V64.5a1,1,0,0,1,.29-.71.91.91,0,0,1,.69-.29H39.92a.91.91,0,0,1,.69.29,1,1,0,0,1,.29.71v13a1,1,0,0,1-.29.7.92.92,0,0,1-.69.3H33.57a.92.92,0,0,1-.69-.3,1,1,0,0,1-.28-.7V75.75a1,1,0,0,1,.28-.71.94.94,0,0,1,.69-.29h4.9a.46.46,0,0,0,.34-.15.48.48,0,0,0,.13-.35V67.74a.49.49,0,0,0-.13-.35.46.46,0,0,0-.34-.15H28.68A.91.91,0,0,1,28,67,1,1,0,0,1,27.7,66.24Zm0,16.26V70.79a1,1,0,0,1,.29-.7.92.92,0,0,1,.69-.3h.25a.92.92,0,0,1,.69.3.93.93,0,0,1,.29.7V82.5a1,1,0,0,1-1,1h-.25a.94.94,0,0,1-.69-.29A1,1,0,0,1,27.7,82.5Z" transform="translate(0.38 0.38)"/><path class="cls-2" d="M43.33,77.5V75.75a1,1,0,0,1,.29-.71.94.94,0,0,1,.69-.29h9.54a.45.45,0,0,0,.34-.15.45.45,0,0,0,.15-.35V67.74a.47.47,0,0,0-.15-.35.45.45,0,0,0-.34-.15H45.78a.49.49,0,0,0-.35.15.5.5,0,0,0-.14.35v.91a.5.5,0,0,0,.14.35.49.49,0,0,0,.35.15h.74a.91.91,0,0,1,.69.29,1,1,0,0,1,.29.71v1.74a1,1,0,0,1-.29.71.91.91,0,0,1-.69.29H44.31a.91.91,0,0,1-.69-.29,1,1,0,0,1-.29-.71V64.5a1,1,0,0,1,.29-.71.91.91,0,0,1,.69-.29h11a.93.93,0,0,1,.7.29,1,1,0,0,1,.28.71v13a1,1,0,0,1-.28.7.94.94,0,0,1-.7.3h-11a.92.92,0,0,1-.69-.3A1,1,0,0,1,43.33,77.5Z" transform="translate(0.38 0.38)"/><path class="cls-2" d="M58.73,66.24V64.5a1,1,0,0,1,.28-.71.91.91,0,0,1,.7-.29h1.95a.91.91,0,0,1,.69.29,1,1,0,0,1,.29.71V66c0,.56.18.66.53.3l2.07-2.1A2.29,2.29,0,0,1,67,63.5h6a.91.91,0,0,1,.69.29.94.94,0,0,1,.29.71v13a.93.93,0,0,1-.29.7.92.92,0,0,1-.69.3H67.28a.92.92,0,0,1-.69-.3,1,1,0,0,1-.29-.7V75.75a1,1,0,0,1,.29-.71.94.94,0,0,1,.69-.29h4.15a.45.45,0,0,0,.35-.15.45.45,0,0,0,.14-.35V67.74a.46.46,0,0,0-.14-.35.45.45,0,0,0-.35-.15h-4a2.23,2.23,0,0,0-1.69.71L63.6,70.12a2.44,2.44,0,0,0-.72,1.77v5.73a1,1,0,0,1-1,1,.94.94,0,0,1-.69-.29,1,1,0,0,1-.29-.71V67.74a.46.46,0,0,0-.14-.35.45.45,0,0,0-.34-.15h-.74A.91.91,0,0,1,59,67,1,1,0,0,1,58.73,66.24Z" transform="translate(0.38 0.38)"/><path class="cls-2" d="M86.09,66.24V64.5a1,1,0,0,1,.28-.71.91.91,0,0,1,.7-.29h4.15a.91.91,0,0,1,.69.29,1,1,0,0,1,.29.71v18a1,1,0,0,1-.29.71,1,1,0,0,1-1.38,0,1,1,0,0,1-.28-.71V67.74a.5.5,0,0,0-.14-.35.47.47,0,0,0-.35-.15H87.07a.91.91,0,0,1-.7-.29A1,1,0,0,1,86.09,66.24Z" transform="translate(0.38 0.38)"/><path class="cls-2" d="M94.63,66.24V64.5a1,1,0,0,1,.29-.71.91.91,0,0,1,.69-.29h4.15a.91.91,0,0,1,.69.29,1,1,0,0,1,.29.71v6.75a1,1,0,0,1-.29.7.92.92,0,0,1-.69.3.88.88,0,0,1-.68-.3,1,1,0,0,1-.28-.7V67.74a.47.47,0,0,0-.15-.35.45.45,0,0,0-.34-.15h-2.7a.91.91,0,0,1-.69-.29A1,1,0,0,1,94.63,66.24Z" transform="translate(0.38 0.38)"/><path class="cls-2" d="M103.17,77.5V75.75a1,1,0,0,1,.29-.71.94.94,0,0,1,.69-.29h9a.45.45,0,0,0,.34-.15.45.45,0,0,0,.15-.35V67.74a.47.47,0,0,0-.15-.35.45.45,0,0,0-.34-.15h-9a.91.91,0,0,1-.69-.29,1,1,0,0,1-.29-.71V64.5a1,1,0,0,1,.29-.71.91.91,0,0,1,.69-.29h10.52a.91.91,0,0,1,.69.29,1,1,0,0,1,.28.71v9.75a.45.45,0,0,0,.15.35.45.45,0,0,0,.34.15h.73a.94.94,0,0,1,.69.29,1,1,0,0,1,.29.71V77.5a1,1,0,0,1-.29.7.92.92,0,0,1-.69.3H104.15a.92.92,0,0,1-.69-.3A1,1,0,0,1,103.17,77.5Z" transform="translate(0.38 0.38)"/><path class="cls-2" d="M130,66.24V64.5a1,1,0,0,1,.29-.71.91.91,0,0,1,.69-.29h10.75a.93.93,0,0,1,.7.29,1,1,0,0,1,.28.71V77.62a1,1,0,0,1-.28.71,1,1,0,0,1-.7.29.92.92,0,0,1-.68-.29,1,1,0,0,1-.28-.71V67.74a.5.5,0,0,0-.14-.35.49.49,0,0,0-.35-.15H131a.91.91,0,0,1-.69-.29A1,1,0,0,1,130,66.24Z" transform="translate(0.38 0.38)"/><path class="cls-2" d="M145.19,66.24V64.5a1,1,0,0,1,.28-.71.91.91,0,0,1,.7-.29h4.15a.91.91,0,0,1,.69.29,1,1,0,0,1,.29.71V77.62a1,1,0,0,1-.29.71,1,1,0,0,1-1.38,0,1,1,0,0,1-.28-.71V67.74a.5.5,0,0,0-.14-.35.47.47,0,0,0-.35-.15h-2.69a.91.91,0,0,1-.7-.29A1,1,0,0,1,145.19,66.24Z" transform="translate(0.38 0.38)"/><path class="cls-2" d="M153.73,77.5v-13a1,1,0,0,1,.29-.71.91.91,0,0,1,.69-.29h2a.91.91,0,0,1,.69.29,1,1,0,0,1,.28.71v1.74a1,1,0,0,1-.28.71.91.91,0,0,1-.69.29h-.49a.47.47,0,0,0-.35.15.5.5,0,0,0-.14.35v6.51a.48.48,0,0,0,.14.35.47.47,0,0,0,.35.15h10.75a.45.45,0,0,0,.34-.15.45.45,0,0,0,.15-.35V67.74a.47.47,0,0,0-.15-.35.45.45,0,0,0-.34-.15h-.49a.91.91,0,0,1-.69-.29,1,1,0,0,1-.29-.71V64.5a1,1,0,0,1,.29-.71.91.91,0,0,1,.69-.29h2a.91.91,0,0,1,.69.29,1,1,0,0,1,.28.71v13a1,1,0,0,1-.28.7.92.92,0,0,1-.69.3H154.71a.92.92,0,0,1-.69-.3A1,1,0,0,1,153.73,77.5Zm5.87-11.26V64.5a1,1,0,0,1,.29-.71.91.91,0,0,1,.69-.29h2a.91.91,0,0,1,.69.29,1,1,0,0,1,.28.71v6.75a1,1,0,0,1-.28.7.92.92,0,0,1-.69.3,1,1,0,0,1-1-1V67.74a.5.5,0,0,0-.14-.35.49.49,0,0,0-.35-.15h-.49a.91.91,0,0,1-.69-.29A1,1,0,0,1,159.6,66.24Z" transform="translate(0.38 0.38)"/><path class="cls-2" d="M171.81,66.24V64.5a1,1,0,0,1,.28-.71.94.94,0,0,1,.7-.29h4.15a.91.91,0,0,1,.69.29,1,1,0,0,1,.29.71v6.75a1,1,0,0,1-.29.7.94.94,0,0,1-1.38,0,1,1,0,0,1-.28-.7V67.74a.5.5,0,0,0-.14-.35.47.47,0,0,0-.35-.15h-2.69a.94.94,0,0,1-.7-.29A1,1,0,0,1,171.81,66.24Z" transform="translate(0.38 0.38)"/><path class="cls-2" d="M180.35,77.62V76a.93.93,0,0,1,.47-.84L186.25,72a.92.92,0,0,0,.46-.83v-3.4a.5.5,0,0,0-.14-.35.47.47,0,0,0-.35-.15h-2.68a.94.94,0,0,1-.7-.29,1,1,0,0,1-.28-.71V64.5a1,1,0,0,1,.28-.71.94.94,0,0,1,.7-.29h4.15a.91.91,0,0,1,.69.29,1,1,0,0,1,.29.71V77.62a1,1,0,0,1-.29.71,1,1,0,0,1-1.38,0,1,1,0,0,1-.29-.71v-1q0-.6-.57-.6a1.34,1.34,0,0,0-.62.26l-3.48,2a.85.85,0,0,1-.15.1l-.18.11-.17.06a.59.59,0,0,1-.21,0,.94.94,0,0,1-.69-.29A1,1,0,0,1,180.35,77.62Z" transform="translate(0.38 0.38)"/><path class="cls-2" d="M43.45,96.24V94.5a1,1,0,0,1,.28-.71.93.93,0,0,1,.7-.29h4.15a.91.91,0,0,1,.69.29,1,1,0,0,1,.29.71v18a1,1,0,0,1-.29.71,1,1,0,0,1-1.38,0,1,1,0,0,1-.28-.71V97.74a.5.5,0,0,0-.14-.35.47.47,0,0,0-.35-.15H44.43a.93.93,0,0,1-.7-.29A1,1,0,0,1,43.45,96.24Z" transform="translate(0.38 0.38)"/><path class="cls-2" d="M52,96.24V94.5a1,1,0,0,1,.29-.71A.91.91,0,0,1,53,93.5h4.15a.91.91,0,0,1,.69.29,1,1,0,0,1,.29.71v6.75a1,1,0,0,1-.29.7.92.92,0,0,1-.69.3.88.88,0,0,1-.68-.3,1,1,0,0,1-.28-.7V97.74a.47.47,0,0,0-.15-.35.45.45,0,0,0-.34-.15H53a.91.91,0,0,1-.69-.29A1,1,0,0,1,52,96.24Z" transform="translate(0.38 0.38)"/><path class="cls-2" d="M60.54,107.5v-1.75a1,1,0,0,1,.28-.71.94.94,0,0,1,.69-.29h9.05a.45.45,0,0,0,.34-.15.47.47,0,0,0,.15-.35V97.74a.47.47,0,0,0-.15-.35.45.45,0,0,0-.34-.15H61.51a.91.91,0,0,1-.69-.29,1,1,0,0,1-.28-.71V94.5a1,1,0,0,1,.28-.71.91.91,0,0,1,.69-.29H72a.91.91,0,0,1,.69.29,1,1,0,0,1,.28.71v9.75a.47.47,0,0,0,.15.35.45.45,0,0,0,.34.15h.73a.94.94,0,0,1,.69.29,1,1,0,0,1,.29.71v1.75a1,1,0,0,1-.29.7.92.92,0,0,1-.69.3H61.51a.92.92,0,0,1-.69-.3A1,1,0,0,1,60.54,107.5Z" transform="translate(0.38 0.38)"/><path class="cls-2" d="M77.63,96.24V87a1,1,0,0,1,.29-.71.94.94,0,0,1,.69-.29h2a.94.94,0,0,1,.69.29,1,1,0,0,1,.29.71v1.75a1,1,0,0,1-.29.7.92.92,0,0,1-.69.3h-.49a.5.5,0,0,0-.35.14.52.52,0,0,0-.14.36V93a.52.52,0,0,0,.14.36.47.47,0,0,0,.35.15h10a.91.91,0,0,1,.69.29.94.94,0,0,1,.29.71v13a.93.93,0,0,1-.29.7.92.92,0,0,1-.69.3H84.72a.92.92,0,0,1-.69-.3,1,1,0,0,1-.29-.7v-1.75A1,1,0,0,1,84,105a.94.94,0,0,1,.69-.29h3.91a.45.45,0,0,0,.35-.15.46.46,0,0,0,.14-.35V97.74a.46.46,0,0,0-.14-.35.45.45,0,0,0-.35-.15h-10a.91.91,0,0,1-.69-.29A1,1,0,0,1,77.63,96.24Z" transform="translate(0.38 0.38)"/><path class="cls-2" d="M103.29,107.62V94.5a1,1,0,0,1,.28-.71.93.93,0,0,1,.7-.29h11.49a.91.91,0,0,1,.69.29,1,1,0,0,1,.29.71v13.12a1,1,0,0,1-.29.71.94.94,0,0,1-.69.29,1,1,0,0,1-.7-.29,1,1,0,0,1-.28-.71V97.74a.47.47,0,0,0-.15-.35.45.45,0,0,0-.34-.15h-8.56a.45.45,0,0,0-.34.15.47.47,0,0,0-.15.35v9.88a1,1,0,0,1-.28.71.94.94,0,0,1-.69.29,1,1,0,0,1-.7-.29A1,1,0,0,1,103.29,107.62Z" transform="translate(0.38 0.38)"/><path class="cls-2" d="M119.17,96.24V94.5a.94.94,0,0,1,.29-.71.91.91,0,0,1,.69-.29h4.15a.91.91,0,0,1,.69.29,1,1,0,0,1,.29.71v13.12a1,1,0,0,1-.29.71,1,1,0,0,1-1.38,0,1,1,0,0,1-.28-.71V97.74a.46.46,0,0,0-.14-.35.47.47,0,0,0-.35-.15h-2.69a.91.91,0,0,1-.69-.29A1,1,0,0,1,119.17,96.24Z" transform="translate(0.38 0.38)"/><path class="cls-2" d="M127.71,107.5v-1.75A1,1,0,0,1,128,105a.94.94,0,0,1,.69-.29h9.53a.47.47,0,0,0,.35-.15.46.46,0,0,0,.14-.35V97.74a.46.46,0,0,0-.14-.35.47.47,0,0,0-.35-.15h-9.53A.91.91,0,0,1,128,97a1,1,0,0,1-.29-.71V94.5a1,1,0,0,1,.29-.71.91.91,0,0,1,.69-.29h11a.91.91,0,0,1,.69.29.94.94,0,0,1,.29.71v13a.93.93,0,0,1-.29.7.92.92,0,0,1-.69.3h-11a.92.92,0,0,1-.69-.3A1,1,0,0,1,127.71,107.5Z" transform="translate(0.38 0.38)"/><path class="cls-2" d="M143.1,96.24V94.5a1,1,0,0,1,.29-.71.91.91,0,0,1,.69-.29h11.49a.93.93,0,0,1,.7.29,1,1,0,0,1,.28.71v13.12a1,1,0,0,1-.28.71,1,1,0,0,1-.7.29.94.94,0,0,1-.69-.29,1,1,0,0,1-.28-.71V97.74a.47.47,0,0,0-.15-.35.45.45,0,0,0-.34-.15h-10a.91.91,0,0,1-.69-.29A1,1,0,0,1,143.1,96.24Zm0,11.26V102a1,1,0,0,1,.29-.71.94.94,0,0,1,.69-.29,1,1,0,0,1,.7.29,1,1,0,0,1,.28.71v2.25a.47.47,0,0,0,.15.35.45.45,0,0,0,.34.15h.74a.94.94,0,0,1,.69.29,1,1,0,0,1,.29.71v1.75a1,1,0,0,1-.29.7.92.92,0,0,1-.69.3h-2.21a.92.92,0,0,1-.69-.3A1,1,0,0,1,143.1,107.5Z" transform="translate(0.38 0.38)"/><path class="cls-2" d="M14.74,126.24V124.5a1,1,0,0,1,.28-.71.93.93,0,0,1,.7-.29H26.47a.91.91,0,0,1,.69.29,1,1,0,0,1,.29.71v13.12a1,1,0,0,1-.29.71,1,1,0,0,1-1.38,0,1,1,0,0,1-.28-.71v-9.88a.5.5,0,0,0-.14-.35.47.47,0,0,0-.35-.15H15.72A1,1,0,0,1,15,127,1,1,0,0,1,14.74,126.24Z" transform="translate(0.38 0.38)"/><path class="cls-2" d="M29.88,126.24V124.5a.94.94,0,0,1,.29-.71.91.91,0,0,1,.69-.29H35a.91.91,0,0,1,.69.29,1,1,0,0,1,.29.71v6.75a1,1,0,0,1-.29.7.94.94,0,0,1-1.38,0,1,1,0,0,1-.28-.7v-3.51a.46.46,0,0,0-.14-.35.47.47,0,0,0-.35-.15H30.86a1,1,0,0,1-1-1Z" transform="translate(0.38 0.38)"/><path class="cls-2" d="M38.42,137.5v-1.75a1,1,0,0,1,.29-.71.94.94,0,0,1,.69-.29h9.54a.45.45,0,0,0,.34-.15.46.46,0,0,0,.14-.35v-6.51a.46.46,0,0,0-.14-.35.45.45,0,0,0-.34-.15H39.4a.94.94,0,0,1-.69-.29,1,1,0,0,1-.29-.71V124.5a1,1,0,0,1,.29-.71.91.91,0,0,1,.69-.29h11a.91.91,0,0,1,.69.29.94.94,0,0,1,.29.71v13a.93.93,0,0,1-.29.7.92.92,0,0,1-.69.3h-11a.92.92,0,0,1-.69-.3A1,1,0,0,1,38.42,137.5Z" transform="translate(0.38 0.38)"/><path class="cls-2" d="M53.82,137.5v-1.75a1,1,0,0,1,.28-.71.94.94,0,0,1,.69-.29h9.05a.45.45,0,0,0,.34-.15.47.47,0,0,0,.15-.35v-6.51a.47.47,0,0,0-.15-.35.45.45,0,0,0-.34-.15H54.79a.94.94,0,0,1-.69-.29,1,1,0,0,1-.28-.71V124.5a1,1,0,0,1,.28-.71.91.91,0,0,1,.69-.29H65.31a.91.91,0,0,1,.69.29,1,1,0,0,1,.28.71v9.75a.47.47,0,0,0,.15.35.45.45,0,0,0,.34.15h.73a.94.94,0,0,1,.69.29,1,1,0,0,1,.29.71v1.75a1,1,0,0,1-.29.7.92.92,0,0,1-.69.3H54.79a.92.92,0,0,1-.69-.3A1,1,0,0,1,53.82,137.5Z" transform="translate(0.38 0.38)"/><path class="cls-2" d="M70.91,126.24V124.5a1,1,0,0,1,.29-.71.91.91,0,0,1,.69-.29H83.38a.94.94,0,0,1,.7.29,1,1,0,0,1,.28.71v13.12a1,1,0,0,1-.28.71,1,1,0,0,1-.7.29.94.94,0,0,1-.69-.29,1,1,0,0,1-.29-.71v-9.88a.46.46,0,0,0-.14-.35.45.45,0,0,0-.34-.15h-10a.94.94,0,0,1-.69-.29A1,1,0,0,1,70.91,126.24Zm0,11.26V132a1,1,0,0,1,.29-.71,1,1,0,0,1,1.38,0,1,1,0,0,1,.29.71v2.25a.5.5,0,0,0,.14.35.47.47,0,0,0,.35.15h.74a.94.94,0,0,1,.69.29,1,1,0,0,1,.29.71v1.75a1,1,0,0,1-.29.7.92.92,0,0,1-.69.3H71.89a.92.92,0,0,1-.69-.3A1,1,0,0,1,70.91,137.5Z" transform="translate(0.38 0.38)"/><path class="cls-2" d="M96.57,126.24V117a1,1,0,0,1,1-1h2a1,1,0,0,1,1,1v1.75a1,1,0,0,1-1,1H99a.48.48,0,0,0-.34.14.48.48,0,0,0-.14.36V123a.48.48,0,0,0,.14.36.45.45,0,0,0,.34.15h10a.91.91,0,0,1,.69.29,1,1,0,0,1,.29.71v13a1,1,0,0,1-.29.7.92.92,0,0,1-.69.3h-5.38a1,1,0,0,1-1-1v-1.75a1,1,0,0,1,1-1h3.91a.47.47,0,0,0,.35-.15.5.5,0,0,0,.14-.35v-6.51a.5.5,0,0,0-.14-.35.47.47,0,0,0-.35-.15h-10a1,1,0,0,1-1-1Z" transform="translate(0.38 0.38)"/><path class="cls-2" d="M112.45,137.5v-1.75a1,1,0,0,1,.29-.71.94.94,0,0,1,.69-.29H123a.47.47,0,0,0,.35-.15.5.5,0,0,0,.14-.35v-6.51a.5.5,0,0,0-.14-.35.47.47,0,0,0-.35-.15H114.9a.47.47,0,0,0-.35.15.5.5,0,0,0-.14.35v.91a.52.52,0,0,0,.14.35.47.47,0,0,0,.35.15h.74a.91.91,0,0,1,.69.29,1,1,0,0,1,.29.71v1.74a1,1,0,0,1-.29.71.91.91,0,0,1-.69.29h-2.21a.91.91,0,0,1-.69-.29,1,1,0,0,1-.29-.71V124.5a1,1,0,0,1,.29-.71.91.91,0,0,1,.69-.29h11a.91.91,0,0,1,.69.29,1,1,0,0,1,.29.71v13a1,1,0,0,1-.29.7.92.92,0,0,1-.69.3h-11a.92.92,0,0,1-.69-.3A1,1,0,0,1,112.45,137.5Z" transform="translate(0.38 0.38)"/><path class="cls-2" d="M127.84,137.5v-13a1,1,0,0,1,.29-.71.91.91,0,0,1,.69-.29h2a.91.91,0,0,1,.69.29,1,1,0,0,1,.29.71v1.74a1,1,0,0,1-.29.71.94.94,0,0,1-.69.29h-.49a.47.47,0,0,0-.35.15.5.5,0,0,0-.14.35v6.51a.5.5,0,0,0,.14.35.47.47,0,0,0,.35.15h9.28a.47.47,0,0,0,.35-.15.5.5,0,0,0,.14-.35v-6.51a.5.5,0,0,0-.14-.35.47.47,0,0,0-.35-.15h-.92a2.92,2.92,0,0,0-1.69.53l-1.92,1a.6.6,0,0,1-.69.06.78.78,0,0,1-.27-.68v-1.93a2.11,2.11,0,0,1,.16-.87,1.39,1.39,0,0,1,.56-.57l1.35-.78a3.31,3.31,0,0,1,1.7-.52H141a.91.91,0,0,1,.69.29,1,1,0,0,1,.29.71v13a1,1,0,0,1-.29.7.92.92,0,0,1-.69.3H128.82a.92.92,0,0,1-.69-.3A1,1,0,0,1,127.84,137.5Z" transform="translate(0.38 0.38)"/><path class="cls-2" d="M144.45,126.24V124.5a1,1,0,0,1,.29-.71.91.91,0,0,1,.69-.29h2a.91.91,0,0,1,.69.29,1,1,0,0,1,.29.71V126c0,.56.17.66.52.3l2.08-2.1a2.29,2.29,0,0,1,1.7-.7h6a.91.91,0,0,1,.69.29,1,1,0,0,1,.29.71v13a1,1,0,0,1-.29.7.92.92,0,0,1-.69.3H153a.92.92,0,0,1-.69-.3.93.93,0,0,1-.29-.7v-1.75a1,1,0,0,1,1-1h4.15a.49.49,0,0,0,.35-.15.5.5,0,0,0,.14-.35v-6.51a.5.5,0,0,0-.14-.35.49.49,0,0,0-.35-.15h-4a2.25,2.25,0,0,0-1.7.71l-2.11,2.17a2.44,2.44,0,0,0-.72,1.77l0,5.73a1,1,0,0,1-.29.71,1,1,0,0,1-1.38,0,1,1,0,0,1-.29-.71v-9.88a.5.5,0,0,0-.14-.35.47.47,0,0,0-.35-.15h-.74a.94.94,0,0,1-.69-.29A1,1,0,0,1,144.45,126.24Z" transform="translate(0.38 0.38)"/><path class="cls-2" d="M162,126.24V124.5a1,1,0,0,1,.29-.71.91.91,0,0,1,.69-.29h11.49a.91.91,0,0,1,.69.29,1,1,0,0,1,.29.71v13.12a1,1,0,0,1-.29.71,1,1,0,0,1-1.38,0,1,1,0,0,1-.29-.71v-9.88a.5.5,0,0,0-.14-.35.47.47,0,0,0-.35-.15H163a.94.94,0,0,1-.69-.29A1,1,0,0,1,162,126.24Zm0,11.26V132a1,1,0,0,1,.29-.71,1,1,0,0,1,1.38,0,1,1,0,0,1,.29.71v2.25a.46.46,0,0,0,.14.35.47.47,0,0,0,.35.15h.74a.94.94,0,0,1,.69.29,1,1,0,0,1,.29.71v1.75a1,1,0,0,1-.29.7.92.92,0,0,1-.69.3H163a.92.92,0,0,1-.69-.3A1,1,0,0,1,162,137.5Z" transform="translate(0.38 0.38)"/></svg>