<svg id="Layer_1" data-name="Layer 1" xmlns="http://www.w3.org/2000/svg" viewBox="0 0 200 200"><defs><style>.cls-1{fill:#192318;}.cls-2{fill:#fff;}</style></defs><rect class="cls-1" width="200" height="200"/><path class="cls-2" d="M50.1,42.35s0-.22.09-.52a4.48,4.48,0,0,1,.12-.66,3.85,3.85,0,0,1,.22-.57,2.84,2.84,0,0,1,.42-.68h4.18V62.7H51.69V42.35Z" transform="translate(0 0)"/><path class="cls-2" d="M58.51,42.35a3.54,3.54,0,0,1,1-2.63h3.81V47l-3.45,1.58V42.35Z" transform="translate(0 0)"/><path class="cls-2" d="M66.25,55.83a3.94,3.94,0,0,1,1-2.43h8.83V45.82a3.48,3.48,0,0,0-.89-2.59,3.18,3.18,0,0,0-2.35-.88H67.9a3.82,3.82,0,0,1,.82-2.43h4.22a7.76,7.76,0,0,1,3,.58,6.14,6.14,0,0,1,2.38,1.71,3.93,3.93,0,0,1,1,2.57V53.4h1.89a5,5,0,0,1-.82,2.43Z" transform="translate(0 0)"/><path class="cls-2" d="M92.09,41.77a3,3,0,0,1,.7-1.85h5.32a11.42,11.42,0,0,1,4.37.66,5,5,0,0,1,2.39,2.09,4.07,4.07,0,0,1,.68,1.67,22.45,22.45,0,0,1,.16,3.16v8.33h-3.45V46.32a3.76,3.76,0,0,0-4-4H92.16A2,2,0,0,1,92.09,41.77Z" transform="translate(0 0)"/><path class="cls-2" d="M108.34,42.35V42.1a5.88,5.88,0,0,1,0-.7,2.27,2.27,0,0,1,.19-.63,4.65,4.65,0,0,1,.5-.85h4.43V55.83h-3.44V42.35Z" transform="translate(0 0)"/><path class="cls-2" d="M116.85,41.64a2.22,2.22,0,0,1,.91-1.72h3.91v8.44a6.38,6.38,0,0,0,3.58-.85,2.47,2.47,0,0,0,1.27-2.1V42.35h-1.24a2.7,2.7,0,0,1-.18-1,1.73,1.73,0,0,1,.89-1.45h3.7v5.63a3.71,3.71,0,0,1-1,2.39A7,7,0,0,1,126,49.86a9.18,9.18,0,0,1-3.71.75,6.86,6.86,0,0,0,2.38,2.2,7.2,7.2,0,0,0,3.25.65,10.07,10.07,0,0,0,2.27-.24,6.31,6.31,0,0,0,3-1.55,4.28,4.28,0,0,0,.88-1.06,4.85,4.85,0,0,0,.48-1.09,3.69,3.69,0,0,0,.15-1V42.35h-1.39a5,5,0,0,1,0-.7,2.27,2.27,0,0,1,.86-1.73h4v8.93a4.74,4.74,0,0,1-.47,1.94,7.69,7.69,0,0,1-1.38,2,11.69,11.69,0,0,1-2.13,1.78,10.87,10.87,0,0,1-2.88,1.28,12.06,12.06,0,0,1-3.46.5,12.36,12.36,0,0,1-3.4-.46,9.82,9.82,0,0,1-2.73-1.24,9,9,0,0,1-1.94-1.8,7.44,7.44,0,0,1-1.21-2.15,7,7,0,0,1-.39-2.29V42.35H117A5.17,5.17,0,0,1,116.85,41.64Z" transform="translate(0 0)"/><path class="cls-2" d="M141.32,42.35a3.54,3.54,0,0,1,1-2.63h3.81V47l-3.45,1.58V42.35Z" transform="translate(0 0)"/><path class="cls-2" d="M149.07,57a10.46,10.46,0,0,1,.23-2.37,5,5,0,0,1,.87-1.9,20.82,20.82,0,0,0,5.27-5.53V44c0-1.07-.67-1.6-2-1.6h-3.17a3.79,3.79,0,0,1,.83-2.43h2.84a5.61,5.61,0,0,1,3.4.95,3.51,3.51,0,0,1,1.29,3v9.24a10.87,10.87,0,0,0,.84,2.68h-3.24a26,26,0,0,1-.67-5.1,12.16,12.16,0,0,1-1.28,1.83,15,15,0,0,1-1.79,1.77c-.68.59-1.24,1.05-1.66,1.38Z" transform="translate(0 0)"/><path class="cls-2" d="M25.86,78.35a3.76,3.76,0,0,1,.71-2.43H37.94a4.32,4.32,0,0,1,2.21.74,7.44,7.44,0,0,1,2,1.8A3.35,3.35,0,0,1,43,80.4V91.83H39.54V81.19a2.73,2.73,0,0,0-1-1.86,2.84,2.84,0,0,0-1.86-1h-6V91.83H27.22V78.35Z" transform="translate(0 0)"/><path class="cls-2" d="M45.72,78.35V78.1a6.29,6.29,0,0,1,0-.7,2.34,2.34,0,0,1,.2-.63,4.65,4.65,0,0,1,.5-.85h4.43V91.83H47.44V78.35Z" transform="translate(0 0)"/><path class="cls-2" d="M54.75,91.4a2.84,2.84,0,0,1,1-2h6.17a4.8,4.8,0,0,0,2.89-1.88,5.88,5.88,0,0,0,1.2-3.7,6.5,6.5,0,0,0-.45-2.51,4.17,4.17,0,0,0-1.21-1.72,5.1,5.1,0,0,0-1.67-.93,6.16,6.16,0,0,0-1.94-.31H54.86a2.57,2.57,0,0,1-.06-.63,2.79,2.79,0,0,1,.84-1.8H62a6.91,6.91,0,0,1,2,.32,7.36,7.36,0,0,1,2,1,8.7,8.7,0,0,1,1.73,1.59,7.53,7.53,0,0,1,1.21,2.25,8.4,8.4,0,0,1,.46,2.83A9.22,9.22,0,0,1,69,86.78,7.06,7.06,0,0,1,67.8,89a7.41,7.41,0,0,1-1.7,1.56,7.58,7.58,0,0,1-2,1,7.81,7.81,0,0,1-2.15.3H54.8a1.12,1.12,0,0,0,0-.22A.9.9,0,0,1,54.75,91.4Z" transform="translate(0 0)"/><path class="cls-2" d="M71.79,77.8a3.15,3.15,0,0,1,.68-1.88h7.69a11.63,11.63,0,0,1,4.36.65,5.07,5.07,0,0,1,2.4,2.08,4.13,4.13,0,0,1,.68,1.67,22.66,22.66,0,0,1,.16,3.16v8.35H84.31V82.31a3.88,3.88,0,0,0-1.09-2.87,3.93,3.93,0,0,0-2.88-1.09h-8.5A3.12,3.12,0,0,1,71.79,77.8Zm.65,14V82.07a7,7,0,0,1,3,1v8.75Z" transform="translate(0 0)"/><path class="cls-2" d="M99.09,77.73a3.06,3.06,0,0,1,.66-1.81h14a4.07,4.07,0,0,1-.66,2.43h-1.59V91.83H108V78.35h-8.8A2.34,2.34,0,0,1,99.09,77.73Z" transform="translate(0 0)"/><path class="cls-2" d="M117.11,77.93a2.86,2.86,0,0,1,1-2h16.13v2.8l-.52.76-5.61,12.35h-3.72l6-13.48H117.16a1,1,0,0,0,0-.21C117.12,78.05,117.11,78,117.11,77.93Zm.2,20.56V81.56a2.74,2.74,0,0,1,2.08.17,9.92,9.92,0,0,1,1.36.87V98.49Z" transform="translate(0 0)"/><path class="cls-2" d="M138,91.83a3.38,3.38,0,0,1,.73-2.43h7.78a3.68,3.68,0,0,0,2.87-1.74,6.83,6.83,0,0,0,1.32-4.27,7,7,0,0,0-.84-3.62,2.77,2.77,0,0,0-2.53-1.42h-5.88V82a1.66,1.66,0,0,0,1.63,1.32,5.28,5.28,0,0,0,.75-.07l.59-.08a1.8,1.8,0,0,1,.21.84,2.88,2.88,0,0,1-.21,1,10.72,10.72,0,0,1-2.1.22,4,4,0,0,1-4.32-3V75.92h10.2a5.84,5.84,0,0,1,2.05.34,4.49,4.49,0,0,1,1.55.92,7.33,7.33,0,0,1,1.11,1.32,6.36,6.36,0,0,1,.73,1.61,12.92,12.92,0,0,1,.38,1.71,11.87,11.87,0,0,1,.12,1.68,8.87,8.87,0,0,1-.93,3.91,8.65,8.65,0,0,1-2.61,3.17A5.89,5.89,0,0,1,147,91.83Z" transform="translate(0 0)"/><path class="cls-2" d="M156.12,75.7a5.49,5.49,0,0,1,1.68-.29,9.38,9.38,0,0,1,1.94.29l1.38,3.75a7.74,7.74,0,0,1,1.14-1.85,5.77,5.77,0,0,1,1.87-1.46,5.48,5.48,0,0,1,2.62-.63,9.23,9.23,0,0,1,3.64.67A6.53,6.53,0,0,1,173,78a8.24,8.24,0,0,1,1.5,2.71,10.7,10.7,0,0,1,.5,3.32,10.05,10.05,0,0,1-.64,3.77,6.11,6.11,0,0,1-1.84,2.56,7.94,7.94,0,0,1-2.74,1.42,12.06,12.06,0,0,1-3.48.47,9.84,9.84,0,0,1-2.61-.48,3.73,3.73,0,0,1-.13-1,5.57,5.57,0,0,1,.7-2.4,3.19,3.19,0,0,0,.74.74,2,2,0,0,0,1,.21A5.1,5.1,0,0,0,171.54,84a8,8,0,0,0-.28-2.14,5.35,5.35,0,0,0-.84-1.75,3.73,3.73,0,0,0-1.55-1.22,5.57,5.57,0,0,0-2.29-.44,4,4,0,0,0-1.86.42,3.85,3.85,0,0,0-1.35,1.1,7.53,7.53,0,0,0-.94,1.65,11.24,11.24,0,0,0-.63,2c-.16.68-.29,1.42-.42,2.21s-.23,1.53-.34,2.21-.21,1.38-.32,2.08-.2,1.29-.28,1.76H156.9l1.18-10.45Z" transform="translate(0 0)"/><path class="cls-2" d="M22,107.67a4.37,4.37,0,0,1,.2-1.38,2.16,2.16,0,0,1,.84-1.05h3.91V112H37.55v2.74l-6.29,13.07H27.51l6.26-13.37h-10v-6.79Z" transform="translate(0 0)"/><path class="cls-2" d="M41.31,127.83A3.43,3.43,0,0,1,42,125.4h7.78a3.65,3.65,0,0,0,2.87-1.74A6.83,6.83,0,0,0,54,119.39a7,7,0,0,0-.84-3.62,2.75,2.75,0,0,0-2.52-1.42H44.75V118a1.67,1.67,0,0,0,1.63,1.32,5.27,5.27,0,0,0,.76-.07l.59-.08a1.8,1.8,0,0,1,.21.84,2.88,2.88,0,0,1-.21,1,10.89,10.89,0,0,1-2.11.22,4,4,0,0,1-4.31-3v-6.22H51.5a5.84,5.84,0,0,1,2,.34,4.45,4.45,0,0,1,1.56.92,7.28,7.28,0,0,1,1.1,1.32,6,6,0,0,1,.73,1.61,13,13,0,0,1,.39,1.71,11.87,11.87,0,0,1,.12,1.68,9.08,9.08,0,0,1-3.54,7.08,5.91,5.91,0,0,1-3.59,1.25Z" transform="translate(0 0)"/><path class="cls-2" d="M59.44,114.36a3.9,3.9,0,0,1,.82-2.67h4.05v10.56a3.09,3.09,0,0,0,.44,1.65,3.45,3.45,0,0,0,1.16,1.18,6.74,6.74,0,0,0,1.46.7,7.31,7.31,0,0,0,1.5.32A5.54,5.54,0,0,0,72.49,125a4.89,4.89,0,0,0,1.75-2.73,8.54,8.54,0,0,0,.29-2.15c0-4.13-1.42-6.19-4.24-6.19a3.77,3.77,0,0,0-.58,0,3.08,3.08,0,0,0-.52.12l-.44.15-.36.17-.27.17-.16.12-.06,0c-.15,0-.23-.46-.23-1.27a2.77,2.77,0,0,1,.23-1.29,8.88,8.88,0,0,1,3.57-.68,7.07,7.07,0,0,1,2.61.45A5.06,5.06,0,0,1,76,113.16,6.41,6.41,0,0,1,77.13,115a9.6,9.6,0,0,1,.65,2.3,16.29,16.29,0,0,1,.19,2.6,9.2,9.2,0,0,1-.58,3.35,7.44,7.44,0,0,1-1.7,2.66,7.53,7.53,0,0,1-2.91,1.77,12.4,12.4,0,0,1-4.11.64,8.67,8.67,0,0,1-5.62-1.77,5.41,5.41,0,0,1-2.19-4.38v-7.85Z" transform="translate(0 0)"/><path class="cls-2" d="M80,111.7a5.49,5.49,0,0,1,1.68-.29,9.38,9.38,0,0,1,1.94.29L85,115.45a7.74,7.74,0,0,1,1.14-1.85A5.88,5.88,0,0,1,88,112.14a5.51,5.51,0,0,1,2.62-.63,9.23,9.23,0,0,1,3.64.67A6.53,6.53,0,0,1,96.85,114a8.24,8.24,0,0,1,1.5,2.71,10.7,10.7,0,0,1,.5,3.32,10.05,10.05,0,0,1-.64,3.77,6.11,6.11,0,0,1-1.84,2.56,7.94,7.94,0,0,1-2.74,1.42,12,12,0,0,1-3.48.47,9.71,9.71,0,0,1-2.6-.48,3.35,3.35,0,0,1-.13-1,5.54,5.54,0,0,1,.69-2.4,3,3,0,0,0,.75.74,1.94,1.94,0,0,0,1,.21A5.1,5.1,0,0,0,95.41,120a8,8,0,0,0-.28-2.14,5.35,5.35,0,0,0-.84-1.75,3.76,3.76,0,0,0-1.54-1.22,5.64,5.64,0,0,0-2.29-.44,4.08,4.08,0,0,0-1.87.42,3.85,3.85,0,0,0-1.35,1.1,7.13,7.13,0,0,0-.93,1.65,10.5,10.5,0,0,0-.64,2c-.15.68-.29,1.42-.41,2.21s-.24,1.53-.35,2.21-.21,1.38-.32,2.08-.2,1.29-.28,1.76H80.77L82,117.38Z" transform="translate(0 0)"/><path class="cls-2" d="M101.21,113.8a3.15,3.15,0,0,1,.68-1.88h7.68a11.65,11.65,0,0,1,4.37.65,5,5,0,0,1,2.39,2.08,3.86,3.86,0,0,1,.68,1.67,21.17,21.17,0,0,1,.16,3.16v8.35h-3.44v-9.52a3.88,3.88,0,0,0-1.09-2.87,3.93,3.93,0,0,0-2.88-1.09h-8.5A3.12,3.12,0,0,1,101.21,113.8Zm.65,14v-9.76a7,7,0,0,1,3,1v8.75Z" transform="translate(0 0)"/><path class="cls-2" d="M129.08,114.35s0-.22.08-.52a4.48,4.48,0,0,1,.12-.66,5.48,5.48,0,0,1,.22-.57,2.88,2.88,0,0,1,.43-.68h4.18V134.7h-3.45V114.35Z" transform="translate(0 0)"/><path class="cls-2" d="M137.49,114.35a3.5,3.5,0,0,1,1-2.63h3.8V119l-3.44,1.58v-6.21Z" transform="translate(0 0)"/><path class="cls-2" d="M145.22,127.83a4,4,0,0,1,1-2.43h8.82v-7.58a3.44,3.44,0,0,0-.89-2.59,3.16,3.16,0,0,0-2.34-.88h-4.95a3.77,3.77,0,0,1,.83-2.43h4.22a7.83,7.83,0,0,1,3,.58,6,6,0,0,1,2.37,1.71,3.88,3.88,0,0,1,.95,2.57v8.62h1.9a5,5,0,0,1-.83,2.43Z" transform="translate(0 0)"/><path class="cls-2" d="M161,107.67a4.1,4.1,0,0,1,.2-1.38,2.16,2.16,0,0,1,.84-1.05H166V112h10.62v2.74l-6.29,13.07h-3.75l6.26-13.37h-10v-6.79Z" transform="translate(0 0)"/><path class="cls-2" d="M62.42,149.77a3,3,0,0,1,.7-1.85h5.32a11.42,11.42,0,0,1,4.37.66,5,5,0,0,1,2.39,2.09,4.07,4.07,0,0,1,.68,1.67A22.45,22.45,0,0,1,76,155.5v8.33H72.59v-9.51a3.76,3.76,0,0,0-4-4H62.49A2,2,0,0,1,62.42,149.77Z" transform="translate(0 0)"/><path class="cls-2" d="M78.9,150.35a3.5,3.5,0,0,1,1-2.63h3.81V155l-3.45,1.58v-6.21Z" transform="translate(0 0)"/><path class="cls-2" d="M87.42,163.4a2.86,2.86,0,0,1,1-2h6.16a4.77,4.77,0,0,0,2.89-1.88,5.88,5.88,0,0,0,1.2-3.7,6.5,6.5,0,0,0-.44-2.51A4.27,4.27,0,0,0,97,151.59a5.2,5.2,0,0,0-1.67-.93,6.21,6.21,0,0,0-1.94-.31H87.54a2.49,2.49,0,0,1-.07-.63,2.79,2.79,0,0,1,.84-1.8h6.36a6.8,6.8,0,0,1,2,.32,7.42,7.42,0,0,1,2,1,8.38,8.38,0,0,1,1.72,1.59,7.33,7.33,0,0,1,1.22,2.25,8.66,8.66,0,0,1,.46,2.83,9.22,9.22,0,0,1-.44,2.89,7.06,7.06,0,0,1-1.16,2.24,7.41,7.41,0,0,1-1.7,1.56,7.58,7.58,0,0,1-2,.95,7.81,7.81,0,0,1-2.15.3H87.47a1,1,0,0,0,0-.22A1,1,0,0,1,87.42,163.4Z" transform="translate(0 0)"/><path class="cls-2" d="M103.79,163.83a4,4,0,0,1,1-2.43h8.82v-7.58a3.47,3.47,0,0,0-.88-2.59,3.2,3.2,0,0,0-2.35-.88h-5a3.83,3.83,0,0,1,.83-2.43h4.22a7.79,7.79,0,0,1,3,.58,6,6,0,0,1,2.37,1.71,3.88,3.88,0,0,1,1,2.57v8.62h1.9a5,5,0,0,1-.83,2.43Z" transform="translate(0 0)"/><path class="cls-2" d="M121.24,149.8a3.15,3.15,0,0,1,.68-1.88h7.69a11.63,11.63,0,0,1,4.36.65,5.07,5.07,0,0,1,2.4,2.08,4,4,0,0,1,.67,1.67,20.83,20.83,0,0,1,.17,3.16v8.35h-3.45v-9.52a3.88,3.88,0,0,0-1.09-2.87,3.93,3.93,0,0,0-2.88-1.09h-8.5A3.12,3.12,0,0,1,121.24,149.8Zm.65,14v-9.76a7,7,0,0,1,3,1v8.75Z" transform="translate(0 0)"/></svg>