<svg id="Layer_1" data-name="Layer 1" xmlns="http://www.w3.org/2000/svg" viewBox="0 0 200 200"><defs><style>.cls-1{fill:#192318;}.cls-2{fill:#fff;}</style></defs><rect class="cls-1" width="200" height="200"/><path class="cls-2" d="M59,76.25a2.93,2.93,0,0,1,.7-1.85h5.32a11.39,11.39,0,0,1,4.37.66,5,5,0,0,1,2.39,2.09,4,4,0,0,1,.68,1.67A21,21,0,0,1,72.65,82v8.33H69.21V80.8a3.77,3.77,0,0,0-4-4H59.1A2.1,2.1,0,0,1,59,76.25Z" transform="translate(0 0)"/><path class="cls-2" d="M75.29,76.83v-.26a6.09,6.09,0,0,1,0-.69,2.42,2.42,0,0,1,.19-.64A4.71,4.71,0,0,1,76,74.4h4.43V90.31H77V76.83Z" transform="translate(0 0)"/><path class="cls-2" d="M84.65,90.31a3.42,3.42,0,0,1,.73-2.44h7.78A3.66,3.66,0,0,0,96,86.14a6.83,6.83,0,0,0,1.32-4.27,7,7,0,0,0-.84-3.62A2.76,2.76,0,0,0,94,76.83H88.1v3.65a1.65,1.65,0,0,0,1.63,1.31,6.78,6.78,0,0,0,.75-.06l.59-.08a1.74,1.74,0,0,1,.21.84,2.93,2.93,0,0,1-.21,1,10.72,10.72,0,0,1-2.1.22,4,4,0,0,1-4.32-3.06V74.4h10.2a6.08,6.08,0,0,1,2.05.33,4.51,4.51,0,0,1,1.55.93,6.4,6.4,0,0,1,1.84,2.93,12.26,12.26,0,0,1,.38,1.71,11.62,11.62,0,0,1,.12,1.67,8.84,8.84,0,0,1-.93,3.91,8.57,8.57,0,0,1-2.61,3.17,5.84,5.84,0,0,1-3.59,1.26Z" transform="translate(0 0)"/><path class="cls-2" d="M103.12,76.83a3.89,3.89,0,0,1,1.36-2.43h8.61a8.43,8.43,0,0,1,2.8.45,7.22,7.22,0,0,1,2.33,1.39,6.19,6.19,0,0,1,1.64,2.55,10.89,10.89,0,0,1,.6,3.77,7.92,7.92,0,0,1-2.3,6.08q-2.3,2.14-6.62,2.15a9.59,9.59,0,0,1-3.12-.48,7,7,0,0,1-2.27-1.2,7.54,7.54,0,0,1-1.45-1.65,6.51,6.51,0,0,1-.83-1.74,6,6,0,0,1-.23-1.56V78l.93-1.19Zm4,7.5a3.14,3.14,0,0,0,.31,1.26,5.23,5.23,0,0,0,.87,1.31,4.4,4.4,0,0,0,1.48,1,4.79,4.79,0,0,0,2,.42,5,5,0,0,0,2.89-.82,4.84,4.84,0,0,0,1.8-2.11,7.24,7.24,0,0,0,.57-2.92,8.24,8.24,0,0,0-.37-2.6,4.68,4.68,0,0,0-1-1.78,4.44,4.44,0,0,0-1.42-1,4.19,4.19,0,0,0-1.65-.33h-5.48Z" transform="translate(0 0)"/><path class="cls-2" d="M122.56,74.18a5.53,5.53,0,0,1,1.68-.3,9.56,9.56,0,0,1,1.94.3l1.38,3.75a8,8,0,0,1,1.14-1.86,6.06,6.06,0,0,1,1.87-1.46,5.6,5.6,0,0,1,2.62-.62,9.45,9.45,0,0,1,3.64.66,6.72,6.72,0,0,1,2.59,1.85,8.2,8.2,0,0,1,1.5,2.7,10.76,10.76,0,0,1,.5,3.33,10.09,10.09,0,0,1-.64,3.77,6.11,6.11,0,0,1-1.84,2.56,7.94,7.94,0,0,1-2.74,1.42,12.06,12.06,0,0,1-3.48.47,9.93,9.93,0,0,1-2.61-.49,3.59,3.59,0,0,1-.13-1,5.57,5.57,0,0,1,.7-2.41,3.08,3.08,0,0,0,.74.75,2,2,0,0,0,1,.2,5.39,5.39,0,0,0,4.1-1.51A5.46,5.46,0,0,0,138,82.44a8.06,8.06,0,0,0-.27-2.15,5.45,5.45,0,0,0-.84-1.75,3.71,3.71,0,0,0-1.55-1.21,5.41,5.41,0,0,0-2.29-.44,4,4,0,0,0-1.86.42,3.83,3.83,0,0,0-1.35,1.09,8,8,0,0,0-.94,1.65,11.79,11.79,0,0,0-.63,2c-.16.69-.29,1.43-.42,2.22s-.23,1.53-.34,2.21-.21,1.37-.32,2.07-.2,1.29-.28,1.77h-3.54l1.18-10.45Z" transform="translate(0 0)"/><path class="cls-2" d="M50.88,126.31V110.4h10a7,7,0,0,1,2.39.37,4.67,4.67,0,0,1,1.64,1,4.39,4.39,0,0,1,1,1.37,6.45,6.45,0,0,1,.51,1.54,9.43,9.43,0,0,1,.12,1.54v10.14Zm3.45-2.44h8.78v-7.8q0-3.24-2.9-3.24H54.33Z" transform="translate(0 0)"/><path class="cls-2" d="M69.69,112.83a3.54,3.54,0,0,1,1-2.64h3.8v7.27L71.05,119v-6.21Z" transform="translate(0 0)"/><path class="cls-2" d="M77.11,129.1a4,4,0,0,1,1.51-3.19l4.3-1.41-3.43-11.67H77.66a.82.82,0,0,1,0-.27,4.45,4.45,0,0,1,.19-1.23,1.56,1.56,0,0,1,.56-.93h4l3.76,12.83.77-.33a11.56,11.56,0,0,0,1.14-.65,8.44,8.44,0,0,0,1.25-1,4.66,4.66,0,0,0,1-1.27,3.2,3.2,0,0,0,.41-1.57v-5.61H89v-.2a4.47,4.47,0,0,1,.23-1.31,1.35,1.35,0,0,1,.69-.92h4.19v7a9.54,9.54,0,0,1-1,4.33,6.8,6.8,0,0,1-2.87,3l-13.06,5.18A3.54,3.54,0,0,1,77.11,129.1Z" transform="translate(0 0)"/><path class="cls-2" d="M97,112.83v-.26a6.09,6.09,0,0,1,0-.69,2.51,2.51,0,0,1,.2-.64,4.61,4.61,0,0,1,.5-.84h4.43v15.91H98.76V112.83Z" transform="translate(0 0)"/><path class="cls-2" d="M105.82,112.1a2.65,2.65,0,0,1,.91-1.7h3l6.38,7.33a3.59,3.59,0,0,0,.59-.34c.9-.77,1.36-2.29,1.36-4.56h-2.15a2.5,2.5,0,0,1-.12-.69A2.1,2.1,0,0,1,117,110.4h4.56a24.63,24.63,0,0,1-.37,4.85A6.54,6.54,0,0,1,120,118a6.4,6.4,0,0,1-2.29,1.7l3.18,4.17v2.41H106.08a3.48,3.48,0,0,1-.08-.49,1.84,1.84,0,0,1,1.12-1.94h9.47l-8.86-11h-1.68A1.85,1.85,0,0,1,105.82,112.1Z" transform="translate(0 0)"/><path class="cls-2" d="M125.54,126.31a3.47,3.47,0,0,1,.72-2.44H134a3.66,3.66,0,0,0,2.88-1.73,6.89,6.89,0,0,0,1.31-4.27,7,7,0,0,0-.84-3.62,2.74,2.74,0,0,0-2.52-1.42H129v3.65a1.66,1.66,0,0,0,1.64,1.31,6.78,6.78,0,0,0,.75-.06l.59-.08a1.74,1.74,0,0,1,.21.84,2.93,2.93,0,0,1-.21,1,10.87,10.87,0,0,1-2.1.22,4,4,0,0,1-4.32-3.06V110.4h10.19a6.08,6.08,0,0,1,2.05.33,4.47,4.47,0,0,1,1.56.93,6.65,6.65,0,0,1,1.1,1.32,6,6,0,0,1,.73,1.61,12.32,12.32,0,0,1,.39,1.71,11.62,11.62,0,0,1,.12,1.67,9.08,9.08,0,0,1-3.54,7.08,5.86,5.86,0,0,1-3.59,1.26Z" transform="translate(0 0)"/></svg>