<svg id="Layer_1" data-name="Layer 1" xmlns="http://www.w3.org/2000/svg" viewBox="0 0 200.75 200.75"><defs><style>.cls-1{fill:#192318;stroke:#fff;stroke-miterlimit:10;stroke-width:0.75px;}.cls-2{fill:#fff;}</style></defs><rect class="cls-1" x="0.38" y="0.38" width="200" height="200"/><path class="cls-2" d="M64.94,81.24V79.5a1,1,0,0,1,.29-.71.91.91,0,0,1,.69-.29H76.67a.94.94,0,0,1,.7.29,1,1,0,0,1,.28.71V92.62a1,1,0,0,1-1,1,.91.91,0,0,1-.68-.29,1,1,0,0,1-.28-.71V82.74a.47.47,0,0,0-.15-.35.45.45,0,0,0-.34-.15h-9.3a.91.91,0,0,1-.69-.29A1,1,0,0,1,64.94,81.24Z" transform="translate(0.38 0.38)"/><path class="cls-2" d="M80.09,81.24V79.5a1,1,0,0,1,.28-.71.91.91,0,0,1,.69-.29h4.16a.91.91,0,0,1,.69.29,1,1,0,0,1,.29.71V92.62a1,1,0,0,1-.29.71,1,1,0,0,1-1.38,0,1,1,0,0,1-.28-.71V82.74a.5.5,0,0,0-.14-.35.47.47,0,0,0-.35-.15h-2.7a.91.91,0,0,1-.69-.29A1,1,0,0,1,80.09,81.24Z" transform="translate(0.38 0.38)"/><path class="cls-2" d="M88.63,92.5V90.75a1,1,0,0,1,1-1h9.53a.47.47,0,0,0,.35-.15.48.48,0,0,0,.14-.35V82.74a.5.5,0,0,0-.14-.35.47.47,0,0,0-.35-.15H91.08a.47.47,0,0,0-.35.15.46.46,0,0,0-.14.35v.91a.46.46,0,0,0,.14.35.47.47,0,0,0,.35.15h.74a.92.92,0,0,1,.69.29,1,1,0,0,1,.28.71v1.74a1,1,0,0,1-.28.71.92.92,0,0,1-.69.29H89.61a.91.91,0,0,1-.69-.29.94.94,0,0,1-.29-.71V79.5a.94.94,0,0,1,.29-.71.91.91,0,0,1,.69-.29h11a.91.91,0,0,1,.69.29,1,1,0,0,1,.29.71v13a1,1,0,0,1-.29.7.92.92,0,0,1-.69.3h-11a.92.92,0,0,1-.69-.3A.93.93,0,0,1,88.63,92.5Z" transform="translate(0.38 0.38)"/><path class="cls-2" d="M104,92.5v-13a1,1,0,0,1,.29-.71.91.91,0,0,1,.69-.29h11.49a.91.91,0,0,1,.69.29,1,1,0,0,1,.29.71v8.58a2.38,2.38,0,0,1-.69,1.73l-2.91,3a2.37,2.37,0,0,1-1.73.73H105a.92.92,0,0,1-.69-.3A1,1,0,0,1,104,92.5Zm2-3.25a.48.48,0,0,0,.14.35.47.47,0,0,0,.35.15h4.77A2.31,2.31,0,0,0,113,89l1.87-1.92a2.34,2.34,0,0,0,.68-1.73V82.74a.5.5,0,0,0-.14-.35.47.47,0,0,0-.35-.15h-8.55a.47.47,0,0,0-.35.15.5.5,0,0,0-.14.35Z" transform="translate(0.38 0.38)"/><path class="cls-2" d="M119.9,81.24V79.5a1,1,0,0,1,.29-.71.91.91,0,0,1,.69-.29h2a.91.91,0,0,1,.69.29,1,1,0,0,1,.29.71V81c0,.56.17.66.52.3l2.08-2.1a2.29,2.29,0,0,1,1.7-.7h6a.91.91,0,0,1,.69.29,1,1,0,0,1,.29.71v13a1,1,0,0,1-.29.7.92.92,0,0,1-.69.3h-5.62a.92.92,0,0,1-.69-.3,1,1,0,0,1-.29-.7V90.75a1,1,0,0,1,.29-.71.94.94,0,0,1,.69-.29h4.15a.47.47,0,0,0,.35-.15.48.48,0,0,0,.14-.35V82.74a.5.5,0,0,0-.14-.35.47.47,0,0,0-.35-.15h-4a2.25,2.25,0,0,0-1.7.71l-2.11,2.17a2.43,2.43,0,0,0-.71,1.77v5.73a1,1,0,0,1-.29.71,1,1,0,0,1-1.38,0,1,1,0,0,1-.29-.71V82.74a.5.5,0,0,0-.14-.35.47.47,0,0,0-.35-.15h-.74a.91.91,0,0,1-.69-.29A1,1,0,0,1,119.9,81.24Z" transform="translate(0.38 0.38)"/><path class="cls-2" d="M61.16,122.5v-13a1,1,0,0,1,.29-.71.91.91,0,0,1,.69-.29h8.19a2.28,2.28,0,0,1,1.69.7l1.87,1.91a2.44,2.44,0,0,1,.72,1.77v9.62a1,1,0,0,1-.29.71.94.94,0,0,1-.69.29H62.14a.94.94,0,0,1-.69-.29A1,1,0,0,1,61.16,122.5Zm2-3.25a.48.48,0,0,0,.14.35.47.47,0,0,0,.35.15h8.55a.47.47,0,0,0,.35-.15.48.48,0,0,0,.14-.35v-3.77a2.47,2.47,0,0,0-.71-1.77l-.72-.76a2.29,2.29,0,0,0-1.69-.71H63.61a.47.47,0,0,0-.35.15.52.52,0,0,0-.14.35Z" transform="translate(0.38 0.38)"/><path class="cls-2" d="M77,111.24V109.5a1,1,0,0,1,.29-.71.91.91,0,0,1,.69-.29h4.15a.94.94,0,0,1,.7.29,1,1,0,0,1,.28.71v6.75a1,1,0,0,1-.28.71,1,1,0,0,1-.7.29.91.91,0,0,1-.68-.29,1,1,0,0,1-.28-.71v-3.51a.49.49,0,0,0-.15-.35.45.45,0,0,0-.34-.15H78a.91.91,0,0,1-.69-.29A1,1,0,0,1,77,111.24Z" transform="translate(0.38 0.38)"/><path class="cls-2" d="M85.59,122.5v-1.75a1,1,0,0,1,.28-.71.94.94,0,0,1,.69-.29h1.72a.47.47,0,0,0,.35-.15.48.48,0,0,0,.14-.35v-6.51a.52.52,0,0,0-.14-.35.47.47,0,0,0-.35-.15H86.56a.91.91,0,0,1-.69-.29,1,1,0,0,1-.28-.71V109.5a1,1,0,0,1,.28-.71.91.91,0,0,1,.69-.29h3.19a.91.91,0,0,1,.69.29,1,1,0,0,1,.28.71v9.75a.45.45,0,0,0,.14.35.47.47,0,0,0,.35.15h5.62a.45.45,0,0,0,.34-.15.45.45,0,0,0,.15-.35v-6.51a.49.49,0,0,0-.15-.35.45.45,0,0,0-.34-.15H95.12a.91.91,0,0,1-.69-.29,1,1,0,0,1-.29-.71V109.5a1,1,0,0,1,.29-.71.91.91,0,0,1,.69-.29h3.17a.94.94,0,0,1,.7.29,1,1,0,0,1,.28.71v13a1,1,0,0,1-.28.71,1,1,0,0,1-.7.29H86.56a.94.94,0,0,1-.69-.29A1,1,0,0,1,85.59,122.5Z" transform="translate(0.38 0.38)"/><path class="cls-2" d="M101.71,111.24V109.5a1,1,0,0,1,.28-.71.91.91,0,0,1,.69-.29h4.16a.91.91,0,0,1,.69.29,1,1,0,0,1,.29.71v13.12a1,1,0,0,1-.29.71,1,1,0,0,1-1.38,0,1,1,0,0,1-.28-.71v-9.88a.52.52,0,0,0-.14-.35.47.47,0,0,0-.35-.15h-2.7A.91.91,0,0,1,102,112,1,1,0,0,1,101.71,111.24Z" transform="translate(0.38 0.38)"/><path class="cls-2" d="M110.25,111.24V109.5a.94.94,0,0,1,.29-.71.91.91,0,0,1,.69-.29h2.93a.94.94,0,0,1,.7.29,1,1,0,0,1,.28.71v4.29a.45.45,0,0,0,.25.44l2.93,1.64,2.93-1.74a.44.44,0,0,0,.24-.42v-1a.52.52,0,0,0-.14-.35.43.43,0,0,0-.34-.15h-1.47a.91.91,0,0,1-.69-.29,1,1,0,0,1-.28-.71V109.5a1,1,0,0,1,.28-.71.91.91,0,0,1,.69-.29h2.93a.91.91,0,0,1,.69.29,1,1,0,0,1,.29.71v4.4a2.52,2.52,0,0,1-.22,1.09,2,2,0,0,1-.77.77L120.37,117l2.6,1.46a.93.93,0,0,1,.48.86v3.16a1,1,0,0,1-.29.71.94.94,0,0,1-.69.29H111.72a1,1,0,0,1-.7-.29,1,1,0,0,1-.28-.71v-1.75a1,1,0,0,1,1-1h7.38c.23,0,.37-.08.4-.25s0-.31-.25-.43l-5.08-2.71a1.93,1.93,0,0,1-.76-.77,2.41,2.41,0,0,1-.23-1.09v-1.76a.47.47,0,0,0-.14-.35.45.45,0,0,0-.34-.15h-1.47a.91.91,0,0,1-.69-.29A1,1,0,0,1,110.25,111.24Z" transform="translate(0.38 0.38)"/><path class="cls-2" d="M125.88,122.5v-1.75a1,1,0,0,1,.29-.71.94.94,0,0,1,.69-.29h9.53a.47.47,0,0,0,.35-.15.48.48,0,0,0,.14-.35v-6.51a.52.52,0,0,0-.14-.35.47.47,0,0,0-.35-.15h-8.06a.47.47,0,0,0-.35.15.47.47,0,0,0-.14.35v.91a.46.46,0,0,0,.14.35.47.47,0,0,0,.35.15h.74a.94.94,0,0,1,.69.29,1,1,0,0,1,.28.71v1.74a1,1,0,0,1-.28.71.91.91,0,0,1-.69.29h-2.21a.91.91,0,0,1-.69-.29,1,1,0,0,1-.29-.71V109.5a1,1,0,0,1,.29-.71.91.91,0,0,1,.69-.29h11a.91.91,0,0,1,.69.29,1,1,0,0,1,.29.71v13a1,1,0,0,1-.29.71.94.94,0,0,1-.69.29h-11a.94.94,0,0,1-.69-.29A1,1,0,0,1,125.88,122.5Z" transform="translate(0.38 0.38)"/></svg>