<svg id="Layer_1" data-name="Layer 1" xmlns="http://www.w3.org/2000/svg" viewBox="0 0 200.75 200.75"><defs><style>.cls-1{fill:#192318;stroke:#fff;stroke-miterlimit:10;stroke-width:0.75px;}.cls-2{fill:#fff;}</style></defs><rect class="cls-1" x="0.38" y="0.38" width="200" height="200"/><path class="cls-2" d="M64.32,77.49V75.75a1,1,0,0,1,.29-.71.94.94,0,0,1,.69-.29h2.2a.94.94,0,0,1,.69.29,1,1,0,0,1,.29.71V80a1,1,0,0,1-.29.7.94.94,0,0,1-1.38,0,1,1,0,0,1-.29-.7V79a.52.52,0,0,0-.14-.36A.46.46,0,0,0,66,78.5H65.3a.92.92,0,0,1-.69-.3A1,1,0,0,1,64.32,77.49Z" transform="translate(0.38 0.38)"/><path class="cls-2" d="M71.15,92.62V91a.92.92,0,0,1,.46-.84L77,87a.92.92,0,0,0,.47-.83v-3.4a.5.5,0,0,0-.14-.35.49.49,0,0,0-.35-.15H74.33a.91.91,0,0,1-.69-.29,1,1,0,0,1-.28-.71V79.5a1,1,0,0,1,.28-.71.91.91,0,0,1,.69-.29h4.16a.91.91,0,0,1,.69.29,1,1,0,0,1,.29.71V92.62a1,1,0,0,1-.29.71.94.94,0,0,1-.69.29,1,1,0,0,1-1-1v-1q0-.6-.57-.6a1.34,1.34,0,0,0-.62.26l-3.48,2a.85.85,0,0,1-.15.1.84.84,0,0,1-.19.11l-.16.06a.59.59,0,0,1-.21,0,1,1,0,0,1-1-1Z" transform="translate(0.38 0.38)"/><path class="cls-2" d="M81.9,92.5v-13a1,1,0,0,1,.29-.71.91.91,0,0,1,.69-.29,1,1,0,0,1,.69.31l7.65,7.31,2.33-2.35a.49.49,0,0,0,.14-.34v-.69a.5.5,0,0,0-.14-.35.49.49,0,0,0-.35-.15H91.43a.91.91,0,0,1-.69-.29,1,1,0,0,1-.28-.71V79.5a1,1,0,0,1,.28-.71.91.91,0,0,1,.69-.29h3.23a.91.91,0,0,1,.69.29,1,1,0,0,1,.28.71v4a2,2,0,0,1-.5,1.48l-2.5,2.48,2.57,2.45a1.48,1.48,0,0,1,.45,1.14v1.84a.62.62,0,0,1-.68.71,1,1,0,0,1-.73-.34l-9.55-9a.45.45,0,0,0-.34-.15.47.47,0,0,0-.35.15.46.46,0,0,0-.14.35v4.63a.45.45,0,0,0,.14.35.47.47,0,0,0,.35.15h.74a.94.94,0,0,1,.69.29,1,1,0,0,1,.28.71V92.5a1,1,0,0,1-.28.7.92.92,0,0,1-.69.3H82.88a.92.92,0,0,1-.69-.3A1,1,0,0,1,81.9,92.5Z" transform="translate(0.38 0.38)"/><path class="cls-2" d="M98.07,81.24V79.5a1,1,0,0,1,.28-.71.93.93,0,0,1,.7-.29h4.15a.91.91,0,0,1,.69.29,1,1,0,0,1,.29.71v6.75a1,1,0,0,1-.29.7.94.94,0,0,1-1.38,0,1,1,0,0,1-.28-.7V82.74a.5.5,0,0,0-.14-.35.47.47,0,0,0-.35-.15H99.05a.93.93,0,0,1-.7-.29A1,1,0,0,1,98.07,81.24Z" transform="translate(0.38 0.38)"/><path class="cls-2" d="M106.61,81.24V79.5a1,1,0,0,1,.29-.71.91.91,0,0,1,.69-.29h10.75a.91.91,0,0,1,.69.29,1,1,0,0,1,.29.71V92.62a1,1,0,0,1-.29.71,1,1,0,0,1-1.38,0,1,1,0,0,1-.28-.71V82.74a.46.46,0,0,0-.14-.35.47.47,0,0,0-.35-.15h-9.29a.91.91,0,0,1-.69-.29A1,1,0,0,1,106.61,81.24Z" transform="translate(0.38 0.38)"/><path class="cls-2" d="M121.75,92.5v-13a1,1,0,0,1,.29-.71.91.91,0,0,1,.69-.29h2a.91.91,0,0,1,.69.29,1,1,0,0,1,.29.71v1.74a1,1,0,0,1-.29.71.91.91,0,0,1-.69.29h-.49a.47.47,0,0,0-.35.15.5.5,0,0,0-.14.35v6.51a.48.48,0,0,0,.14.35.47.47,0,0,0,.35.15h9.28a.47.47,0,0,0,.35-.15.48.48,0,0,0,.14-.35V82.74a.5.5,0,0,0-.14-.35.47.47,0,0,0-.35-.15h-.92a2.92,2.92,0,0,0-1.69.53l-1.92,1a.6.6,0,0,1-.69.06.78.78,0,0,1-.27-.68V81.24a2,2,0,0,1,.17-.87,1.36,1.36,0,0,1,.55-.57l1.35-.78a3.34,3.34,0,0,1,1.7-.52H135a.91.91,0,0,1,.69.29,1,1,0,0,1,.29.71v13a1,1,0,0,1-.29.7.92.92,0,0,1-.69.3H122.73a.92.92,0,0,1-.69-.3A1,1,0,0,1,121.75,92.5Z" transform="translate(0.38 0.38)"/><path class="cls-2" d="M18.65,107.49v-1.74a1,1,0,0,1,.28-.71.93.93,0,0,1,.7-.29h2.19a.91.91,0,0,1,.69.29,1,1,0,0,1,.29.71V110a1,1,0,0,1-.29.7.94.94,0,0,1-1.38,0,1,1,0,0,1-.29-.7v-1a.52.52,0,0,0-.14-.36.46.46,0,0,0-.35-.14h-.72a.94.94,0,0,1-.7-.3A1,1,0,0,1,18.65,107.49Z" transform="translate(0.38 0.38)"/><path class="cls-2" d="M25.47,111.24V109.5a1,1,0,0,1,.29-.71.91.91,0,0,1,.69-.29h5.38a.91.91,0,0,1,.69.29,1,1,0,0,1,.29.71v1.74a1,1,0,0,1-.29.71.94.94,0,0,1-.69.29h-1a.45.45,0,0,0-.34.15.47.47,0,0,0-.15.35v9.88a1,1,0,0,1-.28.71.94.94,0,0,1-.69.29,1,1,0,0,1-.7-.29,1,1,0,0,1-.28-.71v-9.88a.47.47,0,0,0-.15-.35.45.45,0,0,0-.34-.15H26.45a.94.94,0,0,1-.69-.29A1,1,0,0,1,25.47,111.24Z" transform="translate(0.38 0.38)"/><path class="cls-2" d="M35.25,122.5v-13a1,1,0,0,1,.28-.71.91.91,0,0,1,.69-.29,1,1,0,0,1,.7.31l7.64,7.31,2.33-2.35a.45.45,0,0,0,.14-.34v-.69a.46.46,0,0,0-.14-.35.47.47,0,0,0-.35-.15H44.78a.94.94,0,0,1-.69-.29,1,1,0,0,1-.29-.71V109.5a1,1,0,0,1,.29-.71.91.91,0,0,1,.69-.29H48a.91.91,0,0,1,.69.29,1,1,0,0,1,.29.71v4a2,2,0,0,1-.5,1.48L46,117.48l2.58,2.45a1.51,1.51,0,0,1,.44,1.14v1.84a.62.62,0,0,1-.68.71,1.09,1.09,0,0,1-.73-.34l-9.54-9a.47.47,0,0,0-.35-.15.49.49,0,0,0-.35.15.5.5,0,0,0-.14.35v4.63a.5.5,0,0,0,.14.35.49.49,0,0,0,.35.15h.74a.94.94,0,0,1,.69.29,1,1,0,0,1,.29.71v1.75a1,1,0,0,1-.29.7.92.92,0,0,1-.69.3H36.22a.92.92,0,0,1-.69-.3A1,1,0,0,1,35.25,122.5Z" transform="translate(0.38 0.38)"/><path class="cls-2" d="M51.41,111.24V109.5a1,1,0,0,1,.29-.71.91.91,0,0,1,.69-.29h4.15a.94.94,0,0,1,.7.29,1,1,0,0,1,.28.71v6.75a1,1,0,0,1-1,1,.88.88,0,0,1-.68-.3,1,1,0,0,1-.28-.7v-3.51a.47.47,0,0,0-.15-.35.45.45,0,0,0-.34-.15h-2.7a.94.94,0,0,1-.69-.29A1,1,0,0,1,51.41,111.24Z" transform="translate(0.38 0.38)"/><path class="cls-2" d="M60,111.24V109.5a1,1,0,0,1,.28-.71.91.91,0,0,1,.69-.29H71.69a.91.91,0,0,1,.69.29,1,1,0,0,1,.28.71v13.12a1,1,0,0,1-.28.71,1,1,0,0,1-1.38,0,1,1,0,0,1-.28-.71v-9.88a.5.5,0,0,0-.14-.35.47.47,0,0,0-.35-.15h-9.3a.94.94,0,0,1-.69-.29A1,1,0,0,1,60,111.24Z" transform="translate(0.38 0.38)"/><path class="cls-2" d="M75.1,122.5v-13a1,1,0,0,1,.28-.71.94.94,0,0,1,.7-.29h2a.91.91,0,0,1,.69.29.94.94,0,0,1,.29.71v1.74a1,1,0,0,1-1,1h-.49a.45.45,0,0,0-.34.15.47.47,0,0,0-.15.35v6.51a.47.47,0,0,0,.15.35.45.45,0,0,0,.34.15h9.29a.45.45,0,0,0,.34-.15.47.47,0,0,0,.15-.35v-6.51a.47.47,0,0,0-.15-.35.45.45,0,0,0-.34-.15h-.92a3,3,0,0,0-1.7.53l-1.92,1c-.28.17-.5.19-.68.06a.78.78,0,0,1-.27-.68v-1.93a2,2,0,0,1,.16-.87,1.36,1.36,0,0,1,.55-.57L83.4,109a3.34,3.34,0,0,1,1.71-.52h3.18a.91.91,0,0,1,.7.29,1,1,0,0,1,.28.71v13a1,1,0,0,1-.28.7.92.92,0,0,1-.7.3H76.08a1,1,0,0,1-1-1Z" transform="translate(0.38 0.38)"/><path class="cls-2" d="M101.48,122.5v-13a1,1,0,0,1,.29-.71.91.91,0,0,1,.69-.29h8.18a2.29,2.29,0,0,1,1.7.7l1.87,1.91a2.44,2.44,0,0,1,.72,1.77v9.62a1,1,0,0,1-.29.7.92.92,0,0,1-.69.3H102.46a.92.92,0,0,1-.69-.3A1,1,0,0,1,101.48,122.5Zm2-3.25a.46.46,0,0,0,.14.35.45.45,0,0,0,.35.15h8.55a.47.47,0,0,0,.35-.15.5.5,0,0,0,.14-.35v-3.77a2.44,2.44,0,0,0-.72-1.77l-.71-.76a2.29,2.29,0,0,0-1.7-.71h-5.91a.45.45,0,0,0-.35.15.46.46,0,0,0-.14.35Z" transform="translate(0.38 0.38)"/><path class="cls-2" d="M117.36,111.24V109.5a1,1,0,0,1,.29-.71.91.91,0,0,1,.69-.29h4.15a.91.91,0,0,1,.69.29.94.94,0,0,1,.29.71v13.12a1,1,0,0,1-.29.71.94.94,0,0,1-.69.29.91.91,0,0,1-.68-.29,1,1,0,0,1-.28-.71v-9.88a.47.47,0,0,0-.15-.35.45.45,0,0,0-.34-.15h-2.7a.94.94,0,0,1-.69-.29A1,1,0,0,1,117.36,111.24Z" transform="translate(0.38 0.38)"/><path class="cls-2" d="M125.9,122.5v-1.75a1,1,0,0,1,.29-.71.94.94,0,0,1,.69-.29h9.54a.45.45,0,0,0,.34-.15.47.47,0,0,0,.15-.35v-6.51a.47.47,0,0,0-.15-.35.45.45,0,0,0-.34-.15h-9.54a.94.94,0,0,1-.69-.29,1,1,0,0,1-.29-.71V109.5a1,1,0,0,1,.29-.71.91.91,0,0,1,.69-.29h11a.93.93,0,0,1,.7.29,1,1,0,0,1,.28.71v13a1,1,0,0,1-.28.7.94.94,0,0,1-.7.3h-11a.92.92,0,0,1-.69-.3A1,1,0,0,1,125.9,122.5Z" transform="translate(0.38 0.38)"/><path class="cls-2" d="M141.3,111.24V109.5a1,1,0,0,1,.28-.71.91.91,0,0,1,.7-.29h4.15a.91.91,0,0,1,.69.29,1,1,0,0,1,.29.71v6.75a1,1,0,0,1-.29.7.94.94,0,0,1-1.38,0,1,1,0,0,1-.28-.7v-3.51a.5.5,0,0,0-.14-.35.47.47,0,0,0-.35-.15h-2.69a1,1,0,0,1-.7-.29A1,1,0,0,1,141.3,111.24Z" transform="translate(0.38 0.38)"/><path class="cls-2" d="M149.84,122.5v-13a1,1,0,0,1,.29-.71.91.91,0,0,1,.69-.29h11.49a.91.91,0,0,1,.69.29,1,1,0,0,1,.29.71v8.58a2.38,2.38,0,0,1-.69,1.73l-2.92,3a2.31,2.31,0,0,1-1.73.74h-7.13a.92.92,0,0,1-.69-.3A1,1,0,0,1,149.84,122.5Zm2-3.25a.46.46,0,0,0,.14.35.47.47,0,0,0,.35.15h4.77a2.35,2.35,0,0,0,1.72-.73l1.87-1.92a2.38,2.38,0,0,0,.68-1.73v-2.63a.5.5,0,0,0-.14-.35.47.47,0,0,0-.35-.15h-8.55a.47.47,0,0,0-.35.15.46.46,0,0,0-.14.35Z" transform="translate(0.38 0.38)"/><path class="cls-2" d="M165.72,111.24V109.5a1,1,0,0,1,.29-.71.91.91,0,0,1,.69-.29h4.15a.91.91,0,0,1,.69.29.94.94,0,0,1,.29.71v13.12a1,1,0,0,1-.29.71.94.94,0,0,1-.69.29.91.91,0,0,1-.68-.29,1,1,0,0,1-.28-.71v-9.88a.47.47,0,0,0-.15-.35.45.45,0,0,0-.34-.15h-2.7A.94.94,0,0,1,166,112,1,1,0,0,1,165.72,111.24Z" transform="translate(0.38 0.38)"/></svg>