<svg id="Layer_1" data-name="Layer 1" xmlns="http://www.w3.org/2000/svg" viewBox="0 0 200 200"><defs><style>.cls-1{fill:#192318;}.cls-2{fill:#fff;}</style></defs><rect class="cls-1" width="200" height="200"/><path class="cls-2" d="M60.31,76.51V75.19l.14,0a1.15,1.15,0,0,0,.94-.59,3.24,3.24,0,0,0,.3-1.59H60.31v-2.9h3.17v2.69a4.28,4.28,0,0,1-.79,2.71,2.63,2.63,0,0,1-2.22,1Z" transform="translate(0 0)"/><path class="cls-2" d="M65.45,76.42a3.38,3.38,0,0,1,.94-2h8.9a2.24,2.24,0,0,1,.09.6,2.44,2.44,0,0,1-.89,1.83,1.58,1.58,0,0,0-.56-.07c-.44,0-1,.39-1.75,1.18a3.34,3.34,0,0,0-1.08,2V90.31H67.93V82.38a8.14,8.14,0,0,1,.54-3.12,6.88,6.88,0,0,1,1.77-2.43H65.49s0-.11,0-.2S65.45,76.47,65.45,76.42Z" transform="translate(0 0)"/><path class="cls-2" d="M78.42,74.19h4.42a86.56,86.56,0,0,1,6.5,7.24C90.47,81,91,79.61,91,77.37v-.54H89.57a4.13,4.13,0,0,1,.79-2.64h4.11c0,.16,0,.43,0,.81v.88a16.17,16.17,0,0,1-.1,1.94A13.37,13.37,0,0,1,94,79.74a6.38,6.38,0,0,1-1,2,7.83,7.83,0,0,1-1.82,1.7,53.68,53.68,0,0,1,4.84,6.87H92.07a63.09,63.09,0,0,0-7.15-9,6.79,6.79,0,0,0-2.36,2.86,8.69,8.69,0,0,0-.9,3.7h1.2a3.69,3.69,0,0,1,.34,1.75,5.09,5.09,0,0,1,0,.69H78.49a28.67,28.67,0,0,1,.14-2.91A21.6,21.6,0,0,1,79,85.09a10.42,10.42,0,0,1,.59-1.84,10.84,10.84,0,0,1,.73-1.42,7.83,7.83,0,0,1,.89-1.13,12.16,12.16,0,0,1,1-.9c.27-.23.62-.5,1-.8A52.2,52.2,0,0,0,78.42,74.19Z" transform="translate(0 0)"/><path class="cls-2" d="M98.16,76.83a3.54,3.54,0,0,1,1-2.64H103v7.27L99.51,83V76.83Z" transform="translate(0 0)"/><path class="cls-2" d="M105.85,76.25a3,3,0,0,1,.7-1.85h5.32a11.45,11.45,0,0,1,4.38.66,4.94,4.94,0,0,1,2.38,2.09,3.89,3.89,0,0,1,.68,1.67,21,21,0,0,1,.16,3.16v8.33H116V80.8a3.77,3.77,0,0,0-4-4h-6.13A2.56,2.56,0,0,1,105.85,76.25Z" transform="translate(0 0)"/><path class="cls-2" d="M122.17,76.83a3.89,3.89,0,0,1,.83-2.66h4V84.73a3.1,3.1,0,0,0,.45,1.65,3.51,3.51,0,0,0,1.15,1.18,7,7,0,0,0,1.47.69,6.77,6.77,0,0,0,1.49.33,5.57,5.57,0,0,0,3.63-1.13A4.93,4.93,0,0,0,137,84.72a8.13,8.13,0,0,0,.29-2.16q0-6.18-4.23-6.18a3.9,3.9,0,0,0-.59,0,3.19,3.19,0,0,0-.51.12l-.44.15-.37.17-.26.16a.92.92,0,0,0-.16.12l-.07,0c-.15,0-.22-.47-.22-1.27a2.81,2.81,0,0,1,.22-1.3,9.14,9.14,0,0,1,3.58-.68,7.07,7.07,0,0,1,2.61.46,5.21,5.21,0,0,1,1.86,1.23,6.41,6.41,0,0,1,1.19,1.89,9.94,9.94,0,0,1,.65,2.3,16.2,16.2,0,0,1,.19,2.6,9.24,9.24,0,0,1-.58,3.35,7.25,7.25,0,0,1-4.62,4.43,12.3,12.3,0,0,1-4.1.63,8.65,8.65,0,0,1-5.62-1.76,5.43,5.43,0,0,1-2.19-4.39V76.83Z" transform="translate(0 0)"/><path class="cls-2" d="M15,112.51v-1.32l.13,0a1.17,1.17,0,0,0,.95-.59,3.38,3.38,0,0,0,.29-1.59H15v-2.9h3.17v2.69a4.34,4.34,0,0,1-.79,2.71,2.65,2.65,0,0,1-2.22,1Z" transform="translate(0 0)"/><path class="cls-2" d="M20.12,112.42a3.32,3.32,0,0,1,.94-2H30a1.93,1.93,0,0,1,.1.6,2.47,2.47,0,0,1-.89,1.83,1.69,1.69,0,0,0-.57-.07c-.44,0-1,.39-1.74,1.18a3.31,3.31,0,0,0-1.09,2v10.33H22.59v-7.93a8.14,8.14,0,0,1,.54-3.12,6.79,6.79,0,0,1,1.78-2.43H20.15a1.64,1.64,0,0,0,0-.2A.9.9,0,0,1,20.12,112.42Z" transform="translate(0 0)"/><path class="cls-2" d="M33.09,110.19h4.42A84.65,84.65,0,0,1,44,117.43c1.14-.47,1.71-1.82,1.71-4.06v-.54H44.23a4.13,4.13,0,0,1,.8-2.64h4.1c0,.16,0,.43,0,.81s0,.67,0,.88a16,16,0,0,1-.11,1.94,11.12,11.12,0,0,1-.43,1.92,6.35,6.35,0,0,1-1,2,7.68,7.68,0,0,1-1.83,1.7,53.91,53.91,0,0,1,4.85,6.87H46.73a63,63,0,0,0-7.14-9,6.79,6.79,0,0,0-2.36,2.86,8.69,8.69,0,0,0-.9,3.7h1.19a3.57,3.57,0,0,1,.34,1.75,3.87,3.87,0,0,1,0,.69H33.16a28.84,28.84,0,0,1,.13-2.91,19.16,19.16,0,0,1,.36-2.31,9.66,9.66,0,0,1,.59-1.84,10.84,10.84,0,0,1,.73-1.42,7.19,7.19,0,0,1,.89-1.13,12.24,12.24,0,0,1,.94-.9c.28-.23.62-.5,1.05-.8A53.51,53.51,0,0,0,33.09,110.19Z" transform="translate(0 0)"/><path class="cls-2" d="M52.82,112.83a3.57,3.57,0,0,1,1-2.64h3.81v7.27L54.18,119v-6.21Z" transform="translate(0 0)"/><path class="cls-2" d="M60.52,112.25a2.93,2.93,0,0,1,.7-1.85h5.32a11.39,11.39,0,0,1,4.37.66,5,5,0,0,1,2.39,2.09,4,4,0,0,1,.68,1.67,22.45,22.45,0,0,1,.16,3.16v8.33H70.69V116.8a3.76,3.76,0,0,0-4-4H60.59A2.1,2.1,0,0,1,60.52,112.25Z" transform="translate(0 0)"/><path class="cls-2" d="M76.84,112.83a3.89,3.89,0,0,1,.82-2.66h4v10.56a3.18,3.18,0,0,0,.44,1.65,3.54,3.54,0,0,0,1.16,1.18,7,7,0,0,0,3,1,5.54,5.54,0,0,0,3.62-1.13,4.89,4.89,0,0,0,1.75-2.73,8.56,8.56,0,0,0,.29-2.16q0-6.18-4.24-6.18a3.77,3.77,0,0,0-.58,0,3.33,3.33,0,0,0-.52.12l-.43.15a2.63,2.63,0,0,0-.37.17l-.27.16-.16.12-.06,0c-.15,0-.23-.47-.23-1.27a2.79,2.79,0,0,1,.23-1.3,9.12,9.12,0,0,1,3.57-.68,7.16,7.16,0,0,1,2.62.46,5.21,5.21,0,0,1,1.86,1.23,6.39,6.39,0,0,1,1.18,1.89,10,10,0,0,1,.66,2.3,17.5,17.5,0,0,1,.18,2.6,9.46,9.46,0,0,1-.57,3.35,7.31,7.31,0,0,1-4.62,4.43,12.37,12.37,0,0,1-4.11.63,8.68,8.68,0,0,1-5.62-1.76,5.43,5.43,0,0,1-2.19-4.39v-7.85Z" transform="translate(0 0)"/><path class="cls-2" d="M107.47,126.31V110.4h10a7,7,0,0,1,2.39.37,4.67,4.67,0,0,1,1.64,1,4.39,4.39,0,0,1,1,1.37,6.45,6.45,0,0,1,.51,1.54,9.43,9.43,0,0,1,.12,1.54v10.14Zm3.45-2.44h8.78v-7.8q0-3.24-2.9-3.24h-5.88Z" transform="translate(0 0)"/><path class="cls-2" d="M126.05,112.83v-.26c0-.29,0-.53,0-.69a3,3,0,0,1,.2-.64,4.61,4.61,0,0,1,.5-.84h4.43v15.91h-3.44V112.83Z" transform="translate(0 0)"/><path class="cls-2" d="M135.08,125.87a2.9,2.9,0,0,1,.95-2h6.17a4.68,4.68,0,0,0,2.89-1.88,5.86,5.86,0,0,0,1.2-3.7,6.77,6.77,0,0,0-.44-2.51,4.3,4.3,0,0,0-1.21-1.71,5.37,5.37,0,0,0-1.68-.94,6.11,6.11,0,0,0-1.94-.3h-5.83a2.66,2.66,0,0,1-.06-.64,2.79,2.79,0,0,1,.84-1.79h6.36a6.58,6.58,0,0,1,2,.32,7.56,7.56,0,0,1,2,1,8.09,8.09,0,0,1,1.72,1.59,7.47,7.47,0,0,1,1.21,2.24,8.46,8.46,0,0,1,.46,2.84,9.26,9.26,0,0,1-.43,2.89,6.93,6.93,0,0,1-2.87,3.79,7.15,7.15,0,0,1-2,1,7.82,7.82,0,0,1-2.15.31h-7.13a1,1,0,0,0,0-.22C135.09,126,135.08,125.93,135.08,125.87Z" transform="translate(0 0)"/><path class="cls-2" d="M151.87,112.83a3.54,3.54,0,0,1,1-2.64h3.8v7.27L153.23,119v-6.21Z" transform="translate(0 0)"/><path class="cls-2" d="M160.19,112.83a4,4,0,0,1,1.36-2.43h8.62a8.33,8.33,0,0,1,2.79.45,7.11,7.11,0,0,1,2.33,1.39,6.2,6.2,0,0,1,1.65,2.55,10.89,10.89,0,0,1,.6,3.77,7.92,7.92,0,0,1-2.3,6.08c-1.54,1.43-3.74,2.15-6.62,2.15a9.55,9.55,0,0,1-3.12-.48,6.93,6.93,0,0,1-2.27-1.2,7.59,7.59,0,0,1-1.46-1.65,6.45,6.45,0,0,1-.82-1.74,5.59,5.59,0,0,1-.24-1.56V114l.94-1.19Zm4,7.5a3,3,0,0,0,.31,1.26,5.19,5.19,0,0,0,.86,1.31,4.55,4.55,0,0,0,1.49,1,4.76,4.76,0,0,0,2,.42,5.05,5.05,0,0,0,2.89-.82,4.9,4.9,0,0,0,1.8-2.11,7.24,7.24,0,0,0,.57-2.92,8.24,8.24,0,0,0-.37-2.6,4.68,4.68,0,0,0-1-1.78,4.44,4.44,0,0,0-1.42-1,4.19,4.19,0,0,0-1.65-.33h-5.48Z" transform="translate(0 0)"/><path class="cls-2" d="M179.57,112.83v-.26a6.09,6.09,0,0,1,0-.69,2.51,2.51,0,0,1,.2-.64,4.61,4.61,0,0,1,.5-.84h4.43v15.91h-3.44V112.83Z" transform="translate(0 0)"/></svg>