<svg id="Layer_1" data-name="Layer 1" xmlns="http://www.w3.org/2000/svg" viewBox="0 0 200 200"><defs><style>.cls-1{fill:#192318;}.cls-2{fill:#fff;}</style></defs><rect class="cls-1" width="200" height="200"/><path class="cls-2" d="M26.87,53.38a2.05,2.05,0,0,1,.76-1.61,7,7,0,0,0,1.65.34,1.73,1.73,0,0,0,1.26-.54,2.8,2.8,0,0,0,.72-1V40.83H28.92a3.17,3.17,0,0,1-.07-.73,2.18,2.18,0,0,1,.79-1.7H41a5.13,5.13,0,0,1,3,.79,5.75,5.75,0,0,1,2.6,5.08v10H43.13V44A4.58,4.58,0,0,0,42,42a4,4,0,0,0-1.92-1.2H34.7V51.19c-.37,1.57-1.12,2.51-2.22,2.82a9.48,9.48,0,0,1-2.76.53,7.56,7.56,0,0,1-1.49-.18A5.36,5.36,0,0,1,26.92,54,3.45,3.45,0,0,1,26.87,53.38Z" transform="translate(0 0)"/><path class="cls-2" d="M47.9,34.15a4.1,4.1,0,0,1,.2-1.38,2.16,2.16,0,0,1,.84-1.05h3.91V38.5H63.47v2.74L57.18,54.31H53.43l6.26-13.38h-10V34.15Z" transform="translate(0 0)"/><path class="cls-2" d="M66.09,54.31a4,4,0,0,1,1-2.44h8.83V44.29A3.49,3.49,0,0,0,75,41.7a3.23,3.23,0,0,0-2.35-.87h-5a3.83,3.83,0,0,1,.83-2.43h4.22a7.79,7.79,0,0,1,3,.58,5.94,5.94,0,0,1,2.38,1.71,3.91,3.91,0,0,1,.95,2.57v8.61H81a5,5,0,0,1-.83,2.44Z" transform="translate(0 0)"/><path class="cls-2" d="M83.12,40.83A3.89,3.89,0,0,1,84,38.17h4V48.73a3.1,3.1,0,0,0,.45,1.65,3.51,3.51,0,0,0,1.15,1.18,7,7,0,0,0,1.47.69,6.77,6.77,0,0,0,1.49.33,5.57,5.57,0,0,0,3.63-1.13,4.93,4.93,0,0,0,1.74-2.73,8.13,8.13,0,0,0,.29-2.16q0-6.18-4.23-6.18a3.9,3.9,0,0,0-.59,0,3.19,3.19,0,0,0-.51.12l-.44.15-.37.17-.26.16-.16.12-.07,0c-.15,0-.23-.47-.23-1.27a2.79,2.79,0,0,1,.23-1.3,9.14,9.14,0,0,1,3.58-.68,7.07,7.07,0,0,1,2.61.46,5.21,5.21,0,0,1,1.86,1.23,6.41,6.41,0,0,1,1.19,1.89,9.94,9.94,0,0,1,.65,2.3,16.2,16.2,0,0,1,.19,2.6,9.24,9.24,0,0,1-.58,3.35,7.25,7.25,0,0,1-4.62,4.43,12.3,12.3,0,0,1-4.1.63,8.65,8.65,0,0,1-5.62-1.76,5.43,5.43,0,0,1-2.19-4.39V40.83Z" transform="translate(0 0)"/><path class="cls-2" d="M113,40.83a3.54,3.54,0,0,1,1-2.64h3.8v7.27L114.31,47V40.83Z" transform="translate(0 0)"/><path class="cls-2" d="M120.87,40.83v-.26a6.09,6.09,0,0,1,0-.69,2.51,2.51,0,0,1,.2-.64,4.61,4.61,0,0,1,.5-.84H126V54.31h-3.44V40.83Z" transform="translate(0 0)"/><path class="cls-2" d="M128.15,34.15a4.37,4.37,0,0,1,.2-1.38,2.29,2.29,0,0,1,.84-1.05h3.91V38.5h10.63v2.74l-6.3,13.07h-3.75l6.26-13.38h-10V34.15Z" transform="translate(0 0)"/><path class="cls-2" d="M146.77,40.83a3.57,3.57,0,0,1,1-2.64h3.81v7.27L148.12,47V40.83Z" transform="translate(0 0)"/><path class="cls-2" d="M154.76,38.18a5.43,5.43,0,0,1,1.68-.3,9.59,9.59,0,0,1,1.93.3l1.38,3.75a8.75,8.75,0,0,1,1.14-1.86,6.18,6.18,0,0,1,1.87-1.46,5.62,5.62,0,0,1,2.62-.62,9.5,9.5,0,0,1,3.65.66,6.69,6.69,0,0,1,2.58,1.85,8.2,8.2,0,0,1,1.5,2.7,10.47,10.47,0,0,1,.5,3.33A10.09,10.09,0,0,1,173,50.3a6.09,6.09,0,0,1-1.83,2.56,8,8,0,0,1-2.74,1.42,12.08,12.08,0,0,1-3.49.47,9.94,9.94,0,0,1-2.6-.49,3.23,3.23,0,0,1-.13-1,5.54,5.54,0,0,1,.69-2.41,2.92,2.92,0,0,0,.75.75,2,2,0,0,0,1,.2,5.37,5.37,0,0,0,4.09-1.51,5.42,5.42,0,0,0,1.44-3.89,7.67,7.67,0,0,0-.28-2.15,5.45,5.45,0,0,0-.84-1.75,3.74,3.74,0,0,0-1.54-1.21,5.47,5.47,0,0,0-2.29-.44,4,4,0,0,0-1.86.42A3.83,3.83,0,0,0,162,42.4a7.59,7.59,0,0,0-.94,1.65,11,11,0,0,0-.64,2c-.15.69-.29,1.43-.41,2.22s-.24,1.53-.35,2.21-.21,1.37-.32,2.07-.2,1.29-.27,1.77h-3.55l1.18-10.45Z" transform="translate(0 0)"/><path class="cls-2" d="M27.36,76.83a3.57,3.57,0,0,1,1-2.64h3.81v7.27L28.72,83V76.83Z" transform="translate(0 0)"/><path class="cls-2" d="M36.23,90.31A3.42,3.42,0,0,1,37,87.87h7.77a3.66,3.66,0,0,0,2.88-1.73,6.89,6.89,0,0,0,1.31-4.27,7,7,0,0,0-.84-3.62,2.74,2.74,0,0,0-2.52-1.42H39.67v3.65a1.67,1.67,0,0,0,1.64,1.31,6.78,6.78,0,0,0,.75-.06l.59-.08a1.74,1.74,0,0,1,.21.84,2.93,2.93,0,0,1-.21,1,10.87,10.87,0,0,1-2.1.22,4,4,0,0,1-4.32-3.06V74.4h10.2a6.06,6.06,0,0,1,2,.33,4.47,4.47,0,0,1,1.56.93A6.65,6.65,0,0,1,51.13,77a6.38,6.38,0,0,1,.74,1.61,12.26,12.26,0,0,1,.38,1.71A11.62,11.62,0,0,1,52.37,82a9,9,0,0,1-3.54,7.08,5.86,5.86,0,0,1-3.59,1.26Z" transform="translate(0 0)"/><path class="cls-2" d="M53.15,70.15a4.1,4.1,0,0,1,.2-1.38,2.16,2.16,0,0,1,.84-1h3.9V74.5H68.72v2.74L62.43,90.31H58.68l6.26-13.38h-10V70.15Z" transform="translate(0 0)"/><path class="cls-2" d="M80.59,83.85V81.59h7.57v2.26Z" transform="translate(0 0)"/><path class="cls-2" d="M99.63,76.25a3,3,0,0,1,.69-1.85h5.32a11.45,11.45,0,0,1,4.38.66,5,5,0,0,1,2.39,2.09,3.87,3.87,0,0,1,.67,1.67,20.64,20.64,0,0,1,.17,3.16v8.33H109.8V80.8a3.76,3.76,0,0,0-4-4H99.69A2.58,2.58,0,0,1,99.63,76.25Z" transform="translate(0 0)"/><path class="cls-2" d="M115.9,76.51V75.19l.14,0a1.17,1.17,0,0,0,.94-.59,3.26,3.26,0,0,0,.29-1.59H115.9v-2.9h3.17v2.69a4.28,4.28,0,0,1-.79,2.71,2.65,2.65,0,0,1-2.22,1Zm3.86-.06V75.13h.14a1.22,1.22,0,0,0,.95-.6,3.35,3.35,0,0,0,.29-1.59h-1.38V70h3.17v2.69a4.34,4.34,0,0,1-.78,2.71,2.65,2.65,0,0,1-2.22,1Z" transform="translate(0 0)"/><path class="cls-2" d="M125.65,76.83a3.72,3.72,0,0,1,.71-2.43h11.37a4.3,4.3,0,0,1,2.21.73,7.65,7.65,0,0,1,2,1.81,3.3,3.3,0,0,1,.82,1.94V90.31h-3.45V79.67a2.75,2.75,0,0,0-1-1.87,2.82,2.82,0,0,0-1.86-1h-6V90.31H127V76.83Z" transform="translate(0 0)"/><path class="cls-2" d="M145.58,74.18a5.43,5.43,0,0,1,1.68-.3,9.49,9.49,0,0,1,1.93.3l1.39,3.75a8.32,8.32,0,0,1,1.13-1.86,6.18,6.18,0,0,1,1.87-1.46A5.65,5.65,0,0,1,156.2,74a9.47,9.47,0,0,1,3.65.66,6.69,6.69,0,0,1,2.58,1.85,8,8,0,0,1,1.5,2.7,10.47,10.47,0,0,1,.5,3.33,10.09,10.09,0,0,1-.64,3.77A6.09,6.09,0,0,1,162,88.86a8,8,0,0,1-2.74,1.42,12.08,12.08,0,0,1-3.49.47,9.94,9.94,0,0,1-2.6-.49,3.23,3.23,0,0,1-.13-1,5.44,5.44,0,0,1,.7-2.41,2.76,2.76,0,0,0,.74.75,2,2,0,0,0,1,.2,5.37,5.37,0,0,0,4.09-1.51A5.42,5.42,0,0,0,161,82.44a7.67,7.67,0,0,0-.28-2.15,5.45,5.45,0,0,0-.84-1.75,3.68,3.68,0,0,0-1.54-1.21,5.44,5.44,0,0,0-2.29-.44,4,4,0,0,0-1.86.42,3.83,3.83,0,0,0-1.35,1.09,8,8,0,0,0-.94,1.65,11,11,0,0,0-.64,2c-.15.69-.29,1.43-.41,2.22s-.24,1.53-.34,2.21-.22,1.37-.33,2.07-.2,1.29-.27,1.77h-3.55l1.18-10.45Z" transform="translate(0 0)"/><path class="cls-2" d="M44.37,125.38a2,2,0,0,1,.76-1.61,7,7,0,0,0,1.65.34,1.73,1.73,0,0,0,1.26-.54,2.64,2.64,0,0,0,.71-1v-9.73H46.42a3.13,3.13,0,0,1-.08-.73,2.19,2.19,0,0,1,.8-1.7H58.48a5.13,5.13,0,0,1,3,.79,5.75,5.75,0,0,1,2.6,5.08v10H60.63V116a4.58,4.58,0,0,0-1.1-2,4,4,0,0,0-1.92-1.2H52.2v10.36c-.37,1.57-1.12,2.51-2.23,2.82a9.36,9.36,0,0,1-2.75.53,7.56,7.56,0,0,1-1.49-.18,5.36,5.36,0,0,1-1.31-.41A3.45,3.45,0,0,1,44.37,125.38Z" transform="translate(0 0)"/><path class="cls-2" d="M66.54,112.83v-.26c0-.29,0-.53,0-.69a3,3,0,0,1,.2-.64,4.61,4.61,0,0,1,.5-.84H71.7v15.91H68.26V112.83Z" transform="translate(0 0)"/><path class="cls-2" d="M75.2,112.83a3.54,3.54,0,0,1,1-2.64H80v7.27L76.56,119v-6.21Z" transform="translate(0 0)"/><path class="cls-2" d="M83.12,112.83v-.26a6.09,6.09,0,0,1,0-.69,2.51,2.51,0,0,1,.2-.64,4.61,4.61,0,0,1,.5-.84h4.43v15.91H84.84V112.83Z" transform="translate(0 0)"/><path class="cls-2" d="M91.61,110.18a5.54,5.54,0,0,1,1.69-.3,9.59,9.59,0,0,1,1.93.3l1.38,3.75a8.75,8.75,0,0,1,1.14-1.86,6.18,6.18,0,0,1,1.87-1.46,5.62,5.62,0,0,1,2.62-.62,9.5,9.5,0,0,1,3.65.66,6.69,6.69,0,0,1,2.58,1.85,8.2,8.2,0,0,1,1.5,2.7,10.76,10.76,0,0,1,.5,3.33,10.09,10.09,0,0,1-.64,3.77,6.09,6.09,0,0,1-1.83,2.56,8,8,0,0,1-2.74,1.42,12.08,12.08,0,0,1-3.49.47,9.87,9.87,0,0,1-2.6-.49,3.23,3.23,0,0,1-.13-1,5.54,5.54,0,0,1,.69-2.41,2.92,2.92,0,0,0,.75.75,2,2,0,0,0,1,.2,5.09,5.09,0,0,0,5.53-5.4,7.67,7.67,0,0,0-.28-2.15,5.45,5.45,0,0,0-.84-1.75,3.74,3.74,0,0,0-1.54-1.21,5.47,5.47,0,0,0-2.29-.44,4,4,0,0,0-1.86.42,3.83,3.83,0,0,0-1.35,1.09,7.59,7.59,0,0,0-.94,1.65,11,11,0,0,0-.64,2c-.15.69-.29,1.43-.41,2.22s-.24,1.53-.35,2.21-.21,1.37-.32,2.07-.2,1.29-.27,1.77H92.39l1.18-10.45Z" transform="translate(0 0)"/><path class="cls-2" d="M112.58,112.83a3.57,3.57,0,0,1,1-2.64h3.81v7.27L113.93,119v-6.21Z" transform="translate(0 0)"/><path class="cls-2" d="M120,112.21a3,3,0,0,1,.66-1.81h13.95a4.07,4.07,0,0,1-.66,2.43h-1.59v13.48h-3.45V112.83h-8.79A2.41,2.41,0,0,1,120,112.21Z" transform="translate(0 0)"/><path class="cls-2" d="M138,112.41a2.85,2.85,0,0,1,1-2H155.2v2.8l-.51.76-5.62,12.35h-3.72l6-13.48H138.09s0-.13,0-.22A1,1,0,0,1,138,112.41Zm.2,20.56V116a2.84,2.84,0,0,1,.82-.13,2.79,2.79,0,0,1,1.27.3,10.57,10.57,0,0,1,1.36.87V133Z" transform="translate(0 0)"/><path class="cls-2" d="M26.78,142.15a4.37,4.37,0,0,1,.2-1.38,2.29,2.29,0,0,1,.84-1.05h3.91v6.78H42.36v2.74l-6.3,13.07H32.31l6.26-13.38h-10v-6.78Z" transform="translate(0 0)"/><path class="cls-2" d="M45.17,148.83v-.26a6.09,6.09,0,0,1,0-.69,2.51,2.51,0,0,1,.2-.64,4.61,4.61,0,0,1,.5-.84h4.43v15.91H46.89V148.83Z" transform="translate(0 0)"/><path class="cls-2" d="M54.53,162.31a3.47,3.47,0,0,1,.73-2.44H63a3.65,3.65,0,0,0,2.87-1.73,6.83,6.83,0,0,0,1.32-4.27,7,7,0,0,0-.84-3.62,2.74,2.74,0,0,0-2.52-1.42H58v3.65a1.66,1.66,0,0,0,1.63,1.31,6.45,6.45,0,0,0,.75-.06l.6-.08a1.74,1.74,0,0,1,.21.84,2.93,2.93,0,0,1-.21,1,10.89,10.89,0,0,1-2.11.22,4.05,4.05,0,0,1-4.32-3.06V146.4h10.2a6.08,6.08,0,0,1,2,.33,4.56,4.56,0,0,1,1.56.93,6.65,6.65,0,0,1,1.1,1.32,6,6,0,0,1,.73,1.61,11,11,0,0,1,.38,1.71,10.35,10.35,0,0,1,.13,1.67,8.85,8.85,0,0,1-.94,3.91,8.64,8.64,0,0,1-2.6,3.17,5.88,5.88,0,0,1-3.59,1.26Z" transform="translate(0 0)"/><path class="cls-2" d="M72.83,148.83a3.54,3.54,0,0,1,1-2.64h3.8v7.27L74.19,155v-6.21Z" transform="translate(0 0)"/><path class="cls-2" d="M80.82,148.83a3.89,3.89,0,0,1,.82-2.66h4v10.56a3.09,3.09,0,0,0,.44,1.65,3.54,3.54,0,0,0,1.16,1.18,7,7,0,0,0,3,1,5.56,5.56,0,0,0,3.62-1.13,4.88,4.88,0,0,0,1.74-2.73,8.15,8.15,0,0,0,.3-2.16c0-4.12-1.42-6.18-4.24-6.18a3.77,3.77,0,0,0-.58,0,3.08,3.08,0,0,0-.52.12l-.44.15a3.08,3.08,0,0,0-.36.17l-.27.16-.16.12-.07.05c-.15,0-.22-.47-.22-1.27a2.81,2.81,0,0,1,.22-1.3,9.14,9.14,0,0,1,3.58-.68,7.07,7.07,0,0,1,2.61.46,5.17,5.17,0,0,1,1.87,1.23,6.6,6.6,0,0,1,1.18,1.89,9.47,9.47,0,0,1,.65,2.3,16.2,16.2,0,0,1,.19,2.6,9.24,9.24,0,0,1-.58,3.35,7.53,7.53,0,0,1-1.7,2.66,7.65,7.65,0,0,1-2.91,1.77,12.41,12.41,0,0,1-4.11.63,8.66,8.66,0,0,1-5.62-1.76,5.43,5.43,0,0,1-2.19-4.39v-7.85Z" transform="translate(0 0)"/><path class="cls-2" d="M101.31,148.83v-.26a6.09,6.09,0,0,1,0-.69,2.16,2.16,0,0,1,.2-.64,4.1,4.1,0,0,1,.5-.84h4.43v15.91H103V148.83Z" transform="translate(0 0)"/><path class="cls-2" d="M119.07,148.83a3.54,3.54,0,0,1,1-2.64h3.8v7.27L120.42,155v-6.21Z" transform="translate(0 0)"/><path class="cls-2" d="M127,148.83v-.26a6.09,6.09,0,0,1,0-.69,2.51,2.51,0,0,1,.2-.64,4.61,4.61,0,0,1,.5-.84h4.43v15.91h-3.44V148.83Z" transform="translate(0 0)"/><path class="cls-2" d="M135.42,161.93a2.88,2.88,0,0,1,1-2.06h4.69v-9.35a3.1,3.1,0,0,0-.12-1,.91.91,0,0,0-.4-.52,1.41,1.41,0,0,0-.49-.18,3.32,3.32,0,0,0-.6,0h-3a3.58,3.58,0,0,1,1.05-2.43h3.19a4.21,4.21,0,0,1,2.78.89,3.61,3.61,0,0,1,1.07,2.91v12.11h-9.07a1,1,0,0,0,0-.19C135.43,162,135.42,162,135.42,161.93Z" transform="translate(0 0)"/><path class="cls-2" d="M147.69,148.83a3.57,3.57,0,0,1,1-2.64h3.81v7.27L149.05,155v-6.21Z" transform="translate(0 0)"/><path class="cls-2" d="M156.56,162.31a3.47,3.47,0,0,1,.72-2.44h7.78a3.63,3.63,0,0,0,2.87-1.73,6.83,6.83,0,0,0,1.32-4.27,7,7,0,0,0-.84-3.62,2.74,2.74,0,0,0-2.52-1.42H160v3.65a1.66,1.66,0,0,0,1.63,1.31,6.75,6.75,0,0,0,.76-.06l.59-.08a1.74,1.74,0,0,1,.21.84,2.93,2.93,0,0,1-.21,1,10.87,10.87,0,0,1-2.1.22,4,4,0,0,1-4.32-3.06V146.4h10.19a6.08,6.08,0,0,1,2.05.33,4.47,4.47,0,0,1,1.56.93,6.65,6.65,0,0,1,1.1,1.32,6,6,0,0,1,.73,1.61,12.32,12.32,0,0,1,.39,1.71,11.62,11.62,0,0,1,.12,1.67,9.08,9.08,0,0,1-3.54,7.08,5.86,5.86,0,0,1-3.59,1.26Z" transform="translate(0 0)"/></svg>