<svg id="Layer_1" data-name="Layer 1" xmlns="http://www.w3.org/2000/svg" viewBox="0 0 200.75 200.75"><defs><style>.cls-1{fill:#192318;stroke:#fff;stroke-miterlimit:10;stroke-width:0.75px;}.cls-2{fill:#fff;}</style></defs><rect class="cls-1" x="0.38" y="0.38" width="200" height="200"/><path class="cls-2" d="M33.56,62.73V61a1,1,0,0,1,.28-.71.91.91,0,0,1,.69-.29h.74a.45.45,0,0,0,.35-.15.46.46,0,0,0,.14-.35V53a.45.45,0,0,0-.14-.35.45.45,0,0,0-.35-.15H35a.94.94,0,0,1-.69-.29,1,1,0,0,1-.29-.71V49.73a1,1,0,0,1,.29-.7.92.92,0,0,1,.69-.3H47a1,1,0,0,1,1,1V62.86a1,1,0,0,1-1,1,.92.92,0,0,1-.69-.3,1,1,0,0,1-.28-.7V53a.45.45,0,0,0-.15-.35.45.45,0,0,0-.34-.15H38.21a.47.47,0,0,0-.35.15.48.48,0,0,0-.14.35v9.75a1,1,0,0,1-.29.71.91.91,0,0,1-.69.29H34.53a.91.91,0,0,1-.69-.29A1,1,0,0,1,33.56,62.73Z" transform="translate(0.38 0.38)"/><path class="cls-2" d="M50.42,51.48V42.24a1,1,0,0,1,.28-.71.91.91,0,0,1,.69-.29h2a.91.91,0,0,1,.69.29,1,1,0,0,1,.29.71V44a1,1,0,0,1-.29.71.91.91,0,0,1-.69.29h-.49a.45.45,0,0,0-.34.15.49.49,0,0,0-.15.36v2.74a.49.49,0,0,0,.15.36.48.48,0,0,0,.34.14h10a.92.92,0,0,1,.7.3,1,1,0,0,1,.28.7v13a1,1,0,0,1-.28.71.91.91,0,0,1-.7.29H57.5a.91.91,0,0,1-.69-.29,1,1,0,0,1-.28-.71V61a1,1,0,0,1,.28-.71A.91.91,0,0,1,57.5,60h3.92a.45.45,0,0,0,.34-.15.47.47,0,0,0,.15-.35V53a.45.45,0,0,0-.15-.35.45.45,0,0,0-.34-.15h-10a.94.94,0,0,1-.69-.29A1,1,0,0,1,50.42,51.48Z" transform="translate(0.38 0.38)"/><path class="cls-2" d="M66.3,62.73V61a1,1,0,0,1,.28-.71.94.94,0,0,1,.7-.29h9a.47.47,0,0,0,.35-.15.5.5,0,0,0,.14-.35V53a.48.48,0,0,0-.14-.35.47.47,0,0,0-.35-.15h-9a1,1,0,0,1-1-1V49.73a1,1,0,0,1,1-1H77.79a.92.92,0,0,1,.69.3,1,1,0,0,1,.29.7v9.76a.46.46,0,0,0,.14.35.47.47,0,0,0,.35.15H80a.93.93,0,0,1,.7.29A1,1,0,0,1,81,61v1.74a1,1,0,0,1-.28.71.93.93,0,0,1-.7.29H67.28a.94.94,0,0,1-.7-.29A1,1,0,0,1,66.3,62.73Z" transform="translate(0.38 0.38)"/><path class="cls-2" d="M83.4,62.73v-13a1,1,0,0,1,.28-.7.92.92,0,0,1,.7-.3h2A.92.92,0,0,1,87,49a1,1,0,0,1,.29.7v1.75a1,1,0,0,1-.29.71.94.94,0,0,1-.69.29h-.49a.45.45,0,0,0-.34.15.45.45,0,0,0-.15.35v6.51a.47.47,0,0,0,.15.35.45.45,0,0,0,.34.15h9.29a.45.45,0,0,0,.34-.15.47.47,0,0,0,.15-.35V53a.45.45,0,0,0-.15-.35.45.45,0,0,0-.34-.15h-.92a3,3,0,0,0-1.7.52l-1.92,1c-.28.17-.51.19-.68.06a.79.79,0,0,1-.27-.68V51.48a2,2,0,0,1,.16-.87,1.31,1.31,0,0,1,.55-.57l1.35-.78a3.36,3.36,0,0,1,1.71-.53h3.18a1,1,0,0,1,1,1v13a1,1,0,0,1-.28.71.94.94,0,0,1-.7.29H84.38a.91.91,0,0,1-.7-.29A1,1,0,0,1,83.4,62.73Z" transform="translate(0.38 0.38)"/><path class="cls-2" d="M109.78,51.48V49.73a.93.93,0,0,1,.29-.7.92.92,0,0,1,.69-.3h4.15a.92.92,0,0,1,.69.3,1,1,0,0,1,.29.7v6.75a1,1,0,0,1-.29.71,1,1,0,0,1-1.38,0,1,1,0,0,1-.28-.71V53a.45.45,0,0,0-.14-.35.47.47,0,0,0-.35-.15h-2.69a1,1,0,0,1-1-1Z" transform="translate(0.38 0.38)"/><path class="cls-2" d="M118.32,51.48V49.73a1,1,0,0,1,.29-.7.92.92,0,0,1,.69-.3h4.15a1,1,0,0,1,1,1V62.86a1,1,0,0,1-1,1,.88.88,0,0,1-.68-.3,1,1,0,0,1-.28-.7V53a.45.45,0,0,0-.15-.35.45.45,0,0,0-.34-.15h-2.7a.94.94,0,0,1-.69-.29A1,1,0,0,1,118.32,51.48Z" transform="translate(0.38 0.38)"/><path class="cls-2" d="M126.87,51.48V42.24a1,1,0,0,1,.28-.71.91.91,0,0,1,.69-.29h2a.91.91,0,0,1,.69.29,1,1,0,0,1,.29.71V44a1,1,0,0,1-.29.71.91.91,0,0,1-.69.29h-.49a.45.45,0,0,0-.34.15.49.49,0,0,0-.15.36v2.74a.49.49,0,0,0,.15.36.48.48,0,0,0,.34.14h10a.94.94,0,0,1,.7.3,1,1,0,0,1,.28.7v13a1,1,0,0,1-.28.71.93.93,0,0,1-.7.29H134a.91.91,0,0,1-.69-.29,1,1,0,0,1-.29-.71V61a1,1,0,0,1,.29-.71A.91.91,0,0,1,134,60h3.92a.45.45,0,0,0,.34-.15.47.47,0,0,0,.15-.35V53a.45.45,0,0,0-.15-.35.45.45,0,0,0-.34-.15h-10a.94.94,0,0,1-.69-.29A1,1,0,0,1,126.87,51.48Z" transform="translate(0.38 0.38)"/><path class="cls-2" d="M142.75,51.48V49.73A1,1,0,0,1,143,49a.94.94,0,0,1,.7-.3h4.15a.92.92,0,0,1,.69.3,1,1,0,0,1,.29.7v6.75a1,1,0,0,1-.29.71,1,1,0,0,1-1.38,0,1,1,0,0,1-.28-.71V53a.48.48,0,0,0-.14-.35.47.47,0,0,0-.35-.15h-2.69a1,1,0,0,1-.7-.29A1,1,0,0,1,142.75,51.48Z" transform="translate(0.38 0.38)"/><path class="cls-2" d="M151.29,51.48V49.73a1,1,0,0,1,.29-.7.92.92,0,0,1,.69-.3h2a.92.92,0,0,1,.69.3,1,1,0,0,1,.28.7v1.5c0,.57.18.67.53.31l2.08-2.1a2.28,2.28,0,0,1,1.7-.71h6a.92.92,0,0,1,.69.3,1,1,0,0,1,.28.7v13a1,1,0,0,1-.28.71.91.91,0,0,1-.69.29h-5.62a.93.93,0,0,1-.7-.29,1,1,0,0,1-.28-.71V61a1,1,0,0,1,.28-.71.93.93,0,0,1,.7-.29H164a.45.45,0,0,0,.34-.15.47.47,0,0,0,.15-.35V53a.45.45,0,0,0-.15-.35.45.45,0,0,0-.34-.15h-4a2.24,2.24,0,0,0-1.69.71l-2.11,2.17a2.44,2.44,0,0,0-.72,1.77l0,5.73a1,1,0,0,1-.29.7.92.92,0,0,1-.69.3.94.94,0,0,1-.7-.3,1,1,0,0,1-.28-.7V53a.45.45,0,0,0-.15-.35.45.45,0,0,0-.34-.15h-.74a.94.94,0,0,1-.69-.29A1,1,0,0,1,151.29,51.48Z" transform="translate(0.38 0.38)"/><path class="cls-2" d="M37.71,81.48V79.73A.93.93,0,0,1,38,79a.92.92,0,0,1,.69-.3h4.15a.92.92,0,0,1,.69.3,1,1,0,0,1,.29.7v6.75a1,1,0,0,1-.29.71,1,1,0,0,1-1.38,0,1,1,0,0,1-.28-.71V83a.45.45,0,0,0-.14-.35.47.47,0,0,0-.35-.15H38.69a1,1,0,0,1-1-1Z" transform="translate(0.38 0.38)"/><path class="cls-2" d="M46.25,92.73V91a1,1,0,0,1,.29-.71.91.91,0,0,1,.69-.29h9.53a.47.47,0,0,0,.35-.15.46.46,0,0,0,.14-.35V83a.45.45,0,0,0-.14-.35.47.47,0,0,0-.35-.15H48.7a.47.47,0,0,0-.35.15.48.48,0,0,0-.14.35v.9a.52.52,0,0,0,.14.36.46.46,0,0,0,.35.14h.74a.92.92,0,0,1,.69.3,1,1,0,0,1,.29.71v1.74a1,1,0,0,1-.29.71.94.94,0,0,1-.69.29H47.23a.94.94,0,0,1-.69-.29,1,1,0,0,1-.29-.71v-7.4a1,1,0,0,1,.29-.7.92.92,0,0,1,.69-.3h11a.92.92,0,0,1,.69.3.93.93,0,0,1,.29.7v13a.94.94,0,0,1-.29.71.91.91,0,0,1-.69.29h-11a.91.91,0,0,1-.69-.29A1,1,0,0,1,46.25,92.73Z" transform="translate(0.38 0.38)"/><path class="cls-2" d="M61.64,81.48V72.24a1,1,0,0,1,.29-.71.91.91,0,0,1,.69-.29h2a.91.91,0,0,1,.69.29,1,1,0,0,1,.29.71V74a1,1,0,0,1-.29.71.91.91,0,0,1-.69.29h-.49a.49.49,0,0,0-.35.15.52.52,0,0,0-.14.36v2.74a.52.52,0,0,0,.14.36.52.52,0,0,0,.35.14h10a1,1,0,0,1,1,1v13a1,1,0,0,1-.28.71.94.94,0,0,1-.7.29H68.73a.91.91,0,0,1-.69-.29,1,1,0,0,1-.29-.71V91a1,1,0,0,1,.29-.71.91.91,0,0,1,.69-.29h3.92a.45.45,0,0,0,.34-.15.46.46,0,0,0,.14-.35V83a.5.5,0,0,0-.48-.5h-10a.94.94,0,0,1-.69-.29A1,1,0,0,1,61.64,81.48Z" transform="translate(0.38 0.38)"/><path class="cls-2" d="M87.3,86.86V85.6a1,1,0,0,1,1-1H99.52a.92.92,0,0,1,.69.3,1,1,0,0,1,.29.7v1.26a1,1,0,0,1-.29.71.91.91,0,0,1-.69.29H88.28a.94.94,0,0,1-.7-.29A1,1,0,0,1,87.3,86.86Z" transform="translate(0.38 0.38)"/><path class="cls-2" d="M112.7,81.48V79.73A1,1,0,0,1,113,79a.92.92,0,0,1,.69-.3h10.75a.92.92,0,0,1,.69.3,1,1,0,0,1,.29.7V92.86a1,1,0,0,1-.29.7.92.92,0,0,1-.69.3.88.88,0,0,1-.68-.3,1,1,0,0,1-.29-.7V83a.5.5,0,0,0-.48-.5h-9.3a.94.94,0,0,1-.69-.29A1,1,0,0,1,112.7,81.48Z" transform="translate(0.38 0.38)"/><path class="cls-2" d="M128.09,77.73V76a1,1,0,0,1,.29-.71.92.92,0,0,1,.69-.3h2.2a.92.92,0,0,1,.69.3,1,1,0,0,1,.29.71v4.24a1,1,0,0,1-.29.71,1,1,0,0,1-1.38,0,1,1,0,0,1-.29-.71v-1a.5.5,0,0,0-.14-.35.47.47,0,0,0-.35-.15h-.73a.94.94,0,0,1-.69-.29A1,1,0,0,1,128.09,77.73Zm6.11,0V76a1,1,0,0,1,.29-.71.92.92,0,0,1,.69-.3h2.2a.92.92,0,0,1,.69.3,1,1,0,0,1,.29.71v4.24a1,1,0,0,1-.29.71,1,1,0,0,1-1.38,0,1,1,0,0,1-.29-.71v-1a.5.5,0,0,0-.14-.35.49.49,0,0,0-.35-.15h-.73a.94.94,0,0,1-.69-.29A1,1,0,0,1,134.2,77.73Z" transform="translate(0.38 0.38)"/><path class="cls-2" d="M141,92.86V79.73a.93.93,0,0,1,.29-.7.92.92,0,0,1,.69-.3H153.5a.92.92,0,0,1,.69.3,1,1,0,0,1,.29.7V92.86a1,1,0,0,1-.29.7.94.94,0,0,1-1.38,0,.93.93,0,0,1-.29-.7V83a.48.48,0,0,0-.14-.35.47.47,0,0,0-.35-.15h-8.56a.5.5,0,0,0-.48.5v9.88a1,1,0,0,1-.29.7.94.94,0,0,1-1.38,0A.93.93,0,0,1,141,92.86Z" transform="translate(0.38 0.38)"/><path class="cls-2" d="M156.91,81.48V79.73a1,1,0,0,1,.29-.7.92.92,0,0,1,.69-.3h2a.92.92,0,0,1,.69.3,1,1,0,0,1,.28.7v1.5c0,.57.18.67.53.31l2.08-2.1a2.29,2.29,0,0,1,1.7-.71h6a.92.92,0,0,1,.69.3,1,1,0,0,1,.28.7v13a1,1,0,0,1-.28.71.91.91,0,0,1-.69.29h-5.62a.93.93,0,0,1-.7-.29,1,1,0,0,1-.28-.71V91a1,1,0,0,1,.28-.71.93.93,0,0,1,.7-.29h4.15a.45.45,0,0,0,.34-.15.47.47,0,0,0,.15-.35V83a.45.45,0,0,0-.15-.35.45.45,0,0,0-.34-.15h-4a2.24,2.24,0,0,0-1.69.71l-2.11,2.17a2.44,2.44,0,0,0-.72,1.77l0,5.73a1,1,0,0,1-.29.7.92.92,0,0,1-.69.3.94.94,0,0,1-.7-.3,1,1,0,0,1-.28-.7V83a.45.45,0,0,0-.15-.35.45.45,0,0,0-.34-.15h-.74a.94.94,0,0,1-.69-.29A1,1,0,0,1,156.91,81.48Z" transform="translate(0.38 0.38)"/><path class="cls-2" d="M50.91,122.73V121a1,1,0,0,1,.28-.71.91.91,0,0,1,.69-.29h.74a.47.47,0,0,0,.35-.15.5.5,0,0,0,.14-.35V113a.48.48,0,0,0-.14-.35.47.47,0,0,0-.35-.15h-.25a.94.94,0,0,1-.69-.29,1,1,0,0,1-.29-.71v-1.75a1,1,0,0,1,.29-.7.92.92,0,0,1,.69-.3h12a.92.92,0,0,1,.69.3.93.93,0,0,1,.29.7v13.13a.93.93,0,0,1-.29.7.94.94,0,0,1-1.38,0,1,1,0,0,1-.29-.7V113a.45.45,0,0,0-.14-.35.47.47,0,0,0-.35-.15H55.56a.47.47,0,0,0-.35.15.48.48,0,0,0-.14.35v9.75a1,1,0,0,1-.29.71.92.92,0,0,1-.69.3H51.88a.92.92,0,0,1-.69-.3A1,1,0,0,1,50.91,122.73Z" transform="translate(0.38 0.38)"/><path class="cls-2" d="M67.76,111.48v-1.75a1,1,0,0,1,.29-.7.92.92,0,0,1,.69-.3H72.9a.92.92,0,0,1,.69.3,1,1,0,0,1,.28.7v13.13a1,1,0,0,1-.28.7.92.92,0,0,1-.69.3.9.9,0,0,1-.69-.3,1,1,0,0,1-.28-.7V113a.48.48,0,0,0-.14-.35.47.47,0,0,0-.35-.15h-2.7a.94.94,0,0,1-.69-.29A1,1,0,0,1,67.76,111.48Z" transform="translate(0.38 0.38)"/><path class="cls-2" d="M76.31,111.48v-1.75a1,1,0,0,1,1-1h4.15a.92.92,0,0,1,.69.3,1,1,0,0,1,.29.7v6.75a1,1,0,0,1-.29.71.94.94,0,0,1-1.38,0,1,1,0,0,1-.28-.71V113a.48.48,0,0,0-.14-.35.47.47,0,0,0-.35-.15H77.29a1,1,0,0,1-1-1Z" transform="translate(0.38 0.38)"/><path class="cls-2" d="M84.85,111.48v-1.75a1,1,0,0,1,.29-.7.92.92,0,0,1,.69-.3H90a.92.92,0,0,1,.69.3.93.93,0,0,1,.29.7v13.13a.93.93,0,0,1-.29.7.92.92,0,0,1-.69.3.88.88,0,0,1-.68-.3,1,1,0,0,1-.28-.7V113a.45.45,0,0,0-.15-.35.45.45,0,0,0-.34-.15h-2.7a.94.94,0,0,1-.69-.29A1,1,0,0,1,84.85,111.48Z" transform="translate(0.38 0.38)"/><path class="cls-2" d="M93.39,111.48v-1.75a1,1,0,0,1,.29-.7.92.92,0,0,1,.69-.3h2a.92.92,0,0,1,.69.3,1,1,0,0,1,.29.7v1.51c0,.56.17.66.52.3l2.08-2.1a2.3,2.3,0,0,1,1.71-.71h5.95a.92.92,0,0,1,.69.3,1,1,0,0,1,.29.7v13a1,1,0,0,1-.29.71.92.92,0,0,1-.69.3H102a.92.92,0,0,1-.69-.3,1,1,0,0,1-.29-.71V121a1,1,0,0,1,.29-.71A.91.91,0,0,1,102,120h4.15a.47.47,0,0,0,.35-.15.5.5,0,0,0,.14-.35V113a.48.48,0,0,0-.14-.35.47.47,0,0,0-.35-.15h-4a2.21,2.21,0,0,0-1.69.71l-2.12,2.17a2.47,2.47,0,0,0-.71,1.77v5.73a1,1,0,0,1-.29.7.94.94,0,0,1-1.38,0,1,1,0,0,1-.29-.7V113a.48.48,0,0,0-.14-.35.47.47,0,0,0-.35-.15h-.74a.94.94,0,0,1-.69-.29A1,1,0,0,1,93.39,111.48Z" transform="translate(0.38 0.38)"/><path class="cls-2" d="M111,111.48v-1.75a1,1,0,0,1,.29-.7.92.92,0,0,1,.69-.3h4.15a1,1,0,0,1,1,1v6.75a1,1,0,0,1-.28.71,1,1,0,0,1-.7.3.88.88,0,0,1-.68-.3,1,1,0,0,1-.28-.71V113a.45.45,0,0,0-.15-.35.45.45,0,0,0-.34-.15H112a.94.94,0,0,1-.69-.29A1,1,0,0,1,111,111.48Z" transform="translate(0.38 0.38)"/><path class="cls-2" d="M119.53,111.48v-1.75a1,1,0,0,1,.28-.7.92.92,0,0,1,.69-.3h12a.93.93,0,0,1,.69.3,1,1,0,0,1,.28.7v1.75a1,1,0,0,1-.28.71,1,1,0,0,1-.69.29h-1a.47.47,0,0,0-.35.15.48.48,0,0,0-.14.35v9.88a1,1,0,0,1-.29.7.94.94,0,0,1-1.38,0,1,1,0,0,1-.29-.7V113a.48.48,0,0,0-.14-.35.47.47,0,0,0-.35-.15H120.5a.94.94,0,0,1-.69-.29A1,1,0,0,1,119.53,111.48Z" transform="translate(0.38 0.38)"/><path class="cls-2" d="M135.9,111.48v-1.75a1,1,0,0,1,1-1h11.24a.92.92,0,0,1,.69.3,1,1,0,0,1,.28.7v13a1,1,0,0,1-.28.71.92.92,0,0,1-.69.3h-6.35a.92.92,0,0,1-.69-.3,1,1,0,0,1-.29-.71V121a1,1,0,0,1,.29-.71.91.91,0,0,1,.69-.29h4.89a.43.43,0,0,0,.34-.15.5.5,0,0,0,.14-.35V113a.48.48,0,0,0-.14-.35.43.43,0,0,0-.34-.15h-9.78a1,1,0,0,1-1-1Zm0,16.26V116a1,1,0,0,1,1-1h.25a.92.92,0,0,1,.69.3,1,1,0,0,1,.29.7v11.71a1,1,0,0,1-.29.71.94.94,0,0,1-.69.29h-.25a1,1,0,0,1-1-1Z" transform="translate(0.38 0.38)"/><path class="cls-2" d="M33.93,141.48v-9.24a1,1,0,0,1,.29-.71.91.91,0,0,1,.69-.29h2a.91.91,0,0,1,.69.29,1,1,0,0,1,.29.71V134a1,1,0,0,1-.29.71.92.92,0,0,1-.69.3h-.49a.46.46,0,0,0-.35.14.52.52,0,0,0-.14.36v2.74a.52.52,0,0,0,.14.36.5.5,0,0,0,.35.14h10a.92.92,0,0,1,.69.3,1,1,0,0,1,.29.7v13a1,1,0,0,1-.29.71.92.92,0,0,1-.69.3H41a.92.92,0,0,1-.69-.3,1,1,0,0,1-.29-.71V151a1,1,0,0,1,.29-.71A.91.91,0,0,1,41,150h3.91a.47.47,0,0,0,.35-.15.46.46,0,0,0,.14-.35V143a.45.45,0,0,0-.14-.35.47.47,0,0,0-.35-.15h-10a.94.94,0,0,1-.69-.29A1,1,0,0,1,33.93,141.48Z" transform="translate(0.38 0.38)"/><path class="cls-2" d="M49.81,141.48v-1.75a1,1,0,0,1,.29-.7.92.92,0,0,1,.69-.3h4.15a.94.94,0,0,1,.7.3,1,1,0,0,1,.28.7v13.13a1,1,0,0,1-.28.7.94.94,0,0,1-.7.3.88.88,0,0,1-.68-.3,1,1,0,0,1-.28-.7V143a.45.45,0,0,0-.15-.35.45.45,0,0,0-.34-.15h-2.7a.94.94,0,0,1-.69-.29A1,1,0,0,1,49.81,141.48Z" transform="translate(0.38 0.38)"/><path class="cls-2" d="M58.36,152.73V151a1,1,0,0,1,.28-.71.91.91,0,0,1,.69-.29h9.54a.45.45,0,0,0,.34-.15.47.47,0,0,0,.15-.35V143a.45.45,0,0,0-.15-.35.45.45,0,0,0-.34-.15H60.8a.45.45,0,0,0-.34.15.45.45,0,0,0-.15.35v.9a.49.49,0,0,0,.15.36.44.44,0,0,0,.34.14h.74a.92.92,0,0,1,.69.3.94.94,0,0,1,.29.71v1.74a1,1,0,0,1-1,1H59.33a.94.94,0,0,1-.69-.29,1,1,0,0,1-.28-.71v-7.4a1,1,0,0,1,.28-.7.92.92,0,0,1,.69-.3h11a.92.92,0,0,1,.69.3,1,1,0,0,1,.28.7v13a1,1,0,0,1-.28.71.92.92,0,0,1-.69.3h-11a.92.92,0,0,1-.69-.3A1,1,0,0,1,58.36,152.73Z" transform="translate(0.38 0.38)"/><path class="cls-2" d="M73.75,141.48v-1.75A.93.93,0,0,1,74,139a.92.92,0,0,1,.69-.3h4.15a.92.92,0,0,1,.69.3,1,1,0,0,1,.29.7v6.75a1,1,0,0,1-.29.71.94.94,0,0,1-1.38,0,1,1,0,0,1-.28-.71V143a.45.45,0,0,0-.14-.35.47.47,0,0,0-.35-.15H74.73a1,1,0,0,1-1-1Z" transform="translate(0.38 0.38)"/><path class="cls-2" d="M82.29,152.73v-13a1,1,0,0,1,.29-.7.92.92,0,0,1,.69-.3h2a.92.92,0,0,1,.69.3,1,1,0,0,1,.29.7v1.75a1,1,0,0,1-.29.71.94.94,0,0,1-.69.29h-.49a.47.47,0,0,0-.35.15.48.48,0,0,0-.14.35v6.51a.5.5,0,0,0,.14.35.47.47,0,0,0,.35.15H94a.47.47,0,0,0,.35-.15.5.5,0,0,0,.14-.35V143a.48.48,0,0,0-.14-.35.47.47,0,0,0-.35-.15H93.1a3,3,0,0,0-1.69.52l-1.92,1a.6.6,0,0,1-.69.06.79.79,0,0,1-.27-.68v-1.93a2.11,2.11,0,0,1,.16-.87,1.33,1.33,0,0,1,.56-.57l1.35-.78a3.33,3.33,0,0,1,1.7-.53h3.19a.92.92,0,0,1,.69.3,1,1,0,0,1,.29.7v13a1,1,0,0,1-.29.71.92.92,0,0,1-.69.3H83.27a.92.92,0,0,1-.69-.3A1,1,0,0,1,82.29,152.73Z" transform="translate(0.38 0.38)"/><path class="cls-2" d="M98.9,141.48v-1.75a1,1,0,0,1,.29-.7.92.92,0,0,1,.69-.3H104a1,1,0,0,1,1,1v13.13a1,1,0,0,1-1,1,.88.88,0,0,1-.68-.3,1,1,0,0,1-.28-.7V143a.45.45,0,0,0-.15-.35.45.45,0,0,0-.34-.15h-2.7a.94.94,0,0,1-.69-.29A1,1,0,0,1,98.9,141.48Z" transform="translate(0.38 0.38)"/><path class="cls-2" d="M117.22,141.48v-1.75a1,1,0,0,1,1-1h4.15a.92.92,0,0,1,.69.3,1,1,0,0,1,.29.7v6.75a1,1,0,0,1-.29.71.94.94,0,0,1-1.38,0,1,1,0,0,1-.28-.71V143a.48.48,0,0,0-.14-.35.47.47,0,0,0-.35-.15H118.2a1,1,0,0,1-1-1Z" transform="translate(0.38 0.38)"/><path class="cls-2" d="M125.76,141.48v-1.75a1,1,0,0,1,.29-.7.92.92,0,0,1,.69-.3h4.15a.92.92,0,0,1,.69.3,1,1,0,0,1,.29.7v13.13a1,1,0,0,1-.29.7.92.92,0,0,1-.69.3.88.88,0,0,1-.68-.3,1,1,0,0,1-.28-.7V143a.45.45,0,0,0-.15-.35.45.45,0,0,0-.34-.15h-2.7a.94.94,0,0,1-.69-.29A1,1,0,0,1,125.76,141.48Z" transform="translate(0.38 0.38)"/><path class="cls-2" d="M134.3,152.73V151a1,1,0,0,1,.29-.71.91.91,0,0,1,.69-.29h4.41a.45.45,0,0,0,.34-.15.47.47,0,0,0,.15-.35V143a.45.45,0,0,0-.15-.35.45.45,0,0,0-.34-.15h-2.94a.94.94,0,0,1-.69-.29,1,1,0,0,1-.29-.71v-1.75a1,1,0,0,1,.29-.7.92.92,0,0,1,.69-.3h4.4a.94.94,0,0,1,.7.3,1,1,0,0,1,.28.7v13a1,1,0,0,1-.28.71.94.94,0,0,1-.7.3h-5.87a.92.92,0,0,1-.69-.3A1,1,0,0,1,134.3,152.73Z" transform="translate(0.38 0.38)"/><path class="cls-2" d="M144.57,141.48v-1.75a1,1,0,0,1,.28-.7.92.92,0,0,1,.69-.3h4.16a.92.92,0,0,1,.69.3,1,1,0,0,1,.29.7v6.75a1,1,0,0,1-.29.71.94.94,0,0,1-1.38,0,1,1,0,0,1-.28-.71V143a.48.48,0,0,0-.14-.35.47.47,0,0,0-.35-.15h-2.7a.94.94,0,0,1-.69-.29A1,1,0,0,1,144.57,141.48Z" transform="translate(0.38 0.38)"/><path class="cls-2" d="M153.11,152.73V151a1,1,0,0,1,.29-.71.91.91,0,0,1,.69-.29h9.53a.47.47,0,0,0,.35-.15.5.5,0,0,0,.14-.35V143a.48.48,0,0,0-.14-.35.47.47,0,0,0-.35-.15h-8.06a.45.45,0,0,0-.35.15.45.45,0,0,0-.14.35v.9a.48.48,0,0,0,.14.36.45.45,0,0,0,.35.14h.74a.92.92,0,0,1,.69.3,1,1,0,0,1,.28.71v1.74a1,1,0,0,1-.28.71.94.94,0,0,1-.69.29h-2.21a.94.94,0,0,1-.69-.29,1,1,0,0,1-.29-.71v-7.4a1,1,0,0,1,.29-.7.92.92,0,0,1,.69-.3h11a.92.92,0,0,1,.69.3,1,1,0,0,1,.29.7v13a1,1,0,0,1-.29.71.92.92,0,0,1-.69.3h-11a.92.92,0,0,1-.69-.3A1,1,0,0,1,153.11,152.73Z" transform="translate(0.38 0.38)"/></svg>