<svg id="Layer_1" data-name="Layer 1" xmlns="http://www.w3.org/2000/svg" viewBox="0 0 200.75 200.75"><defs><style>.cls-1{fill:#192318;stroke:#fff;stroke-miterlimit:10;stroke-width:0.75px;}.cls-2{fill:#fff;}</style></defs><rect class="cls-1" x="0.38" y="0.38" width="200" height="200"/><path class="cls-2" d="M14.63,92.5v-13a1,1,0,0,1,.28-.71.91.91,0,0,1,.69-.29h8.19a2.26,2.26,0,0,1,1.69.7l1.88,1.91a2.47,2.47,0,0,1,.71,1.77V92.5a1,1,0,0,1-.28.7.92.92,0,0,1-.7.3H15.6a.92.92,0,0,1-.69-.3A1,1,0,0,1,14.63,92.5Zm1.95-3.25a.45.45,0,0,0,.15.35.45.45,0,0,0,.34.15h8.56A.45.45,0,0,0,26,89.6a.45.45,0,0,0,.15-.35V85.48a2.44,2.44,0,0,0-.72-1.77L24.68,83A2.27,2.27,0,0,0,23,82.24H17.07a.45.45,0,0,0-.34.15.47.47,0,0,0-.15.35Z" transform="translate(0.38 0.38)"/><path class="cls-2" d="M30.51,81.24V79.5a1,1,0,0,1,.28-.71.91.91,0,0,1,.7-.29h4.15a.91.91,0,0,1,.69.29,1,1,0,0,1,.29.71v6.75a1,1,0,0,1-.29.7A.94.94,0,0,1,35,87a1,1,0,0,1-.28-.7V82.74a.5.5,0,0,0-.14-.35.47.47,0,0,0-.35-.15H31.49a.91.91,0,0,1-.7-.29A1,1,0,0,1,30.51,81.24Z" transform="translate(0.38 0.38)"/><path class="cls-2" d="M39.05,92.62V79.5a1,1,0,0,1,.29-.71A.91.91,0,0,1,40,78.5H51.52a.91.91,0,0,1,.69.29,1,1,0,0,1,.29.71V92.62a1,1,0,0,1-.29.71,1,1,0,0,1-1.38,0,1,1,0,0,1-.29-.71V82.74a.5.5,0,0,0-.14-.35.47.47,0,0,0-.35-.15H41.5a.47.47,0,0,0-.35.15.5.5,0,0,0-.14.35v9.88a1,1,0,0,1-.29.71,1,1,0,0,1-1.38,0A1,1,0,0,1,39.05,92.62Z" transform="translate(0.38 0.38)"/><path class="cls-2" d="M54.93,81.24V79.5a1,1,0,0,1,.29-.71.91.91,0,0,1,.69-.29h4.15a.94.94,0,0,1,.7.29,1,1,0,0,1,.28.71V92.62a1,1,0,0,1-1,1,.91.91,0,0,1-.68-.29,1,1,0,0,1-.28-.71V82.74a.47.47,0,0,0-.15-.35.45.45,0,0,0-.34-.15h-2.7a.91.91,0,0,1-.69-.29A1,1,0,0,1,54.93,81.24Z" transform="translate(0.38 0.38)"/><path class="cls-2" d="M63.48,81.24V79.5a1,1,0,0,1,.28-.71.91.91,0,0,1,.69-.29h4.16a.91.91,0,0,1,.69.29,1,1,0,0,1,.28.71V92.62a1,1,0,0,1-.28.71,1,1,0,0,1-1.38,0,1,1,0,0,1-.28-.71V82.74a.5.5,0,0,0-.14-.35.47.47,0,0,0-.35-.15h-2.7a.91.91,0,0,1-.69-.29A1,1,0,0,1,63.48,81.24Z" transform="translate(0.38 0.38)"/><path class="cls-2" d="M72,81.24V79.5a1,1,0,0,1,.29-.71A.91.91,0,0,1,73,78.5h4.15a.91.91,0,0,1,.69.29,1,1,0,0,1,.29.71v6.75a1,1,0,0,1-.29.7.94.94,0,0,1-1.38,0,1,1,0,0,1-.28-.7V82.74a.46.46,0,0,0-.14-.35.45.45,0,0,0-.35-.15H73a.91.91,0,0,1-.69-.29A1,1,0,0,1,72,81.24Z" transform="translate(0.38 0.38)"/><path class="cls-2" d="M80.56,81.24V79.5a1,1,0,0,1,.29-.71.91.91,0,0,1,.69-.29h12a.91.91,0,0,1,.69.29,1,1,0,0,1,.29.71v1.74a1,1,0,0,1-.29.71.91.91,0,0,1-.69.29h-1a.45.45,0,0,0-.34.15.47.47,0,0,0-.15.35v9.88a1,1,0,0,1-.28.71,1,1,0,0,1-1.39,0,1,1,0,0,1-.28-.71V82.74a.47.47,0,0,0-.15-.35.45.45,0,0,0-.34-.15H81.54a.91.91,0,0,1-.69-.29A1,1,0,0,1,80.56,81.24Z" transform="translate(0.38 0.38)"/><path class="cls-2" d="M106.71,92.5V90.75A1,1,0,0,1,107,90a.94.94,0,0,1,.69-.29h.74a.47.47,0,0,0,.35-.15.45.45,0,0,0,.14-.35V82.74a.46.46,0,0,0-.14-.35.47.47,0,0,0-.35-.15h-.25a.91.91,0,0,1-.69-.29,1,1,0,0,1-.29-.71V79.5a1,1,0,0,1,.29-.71.91.91,0,0,1,.69-.29h12a.91.91,0,0,1,.69.29.94.94,0,0,1,.29.71V92.62a1,1,0,0,1-1.67.71,1,1,0,0,1-.29-.71V82.74a.46.46,0,0,0-.14-.35.45.45,0,0,0-.34-.15h-7.33a.47.47,0,0,0-.35.15.5.5,0,0,0-.14.35V92.5a1,1,0,0,1-.29.7.92.92,0,0,1-.69.3h-2.21a.92.92,0,0,1-.69-.3A1,1,0,0,1,106.71,92.5Z" transform="translate(0.38 0.38)"/><path class="cls-2" d="M123.57,81.24V79.5a1,1,0,0,1,.28-.71.91.91,0,0,1,.69-.29h10.75a.91.91,0,0,1,.7.29,1,1,0,0,1,.28.71V92.62a1,1,0,0,1-.28.71,1,1,0,0,1-.7.29.92.92,0,0,1-.68-.29,1,1,0,0,1-.28-.71V82.74a.5.5,0,0,0-.14-.35.49.49,0,0,0-.35-.15h-9.3a.91.91,0,0,1-.69-.29A1,1,0,0,1,123.57,81.24Z" transform="translate(0.38 0.38)"/><path class="cls-2" d="M138.71,92.5V90.75A1,1,0,0,1,139,90a1,1,0,0,1,.7-.29h9a.47.47,0,0,0,.35-.15.48.48,0,0,0,.14-.35V82.74a.5.5,0,0,0-.14-.35.47.47,0,0,0-.35-.15h-9A.93.93,0,0,1,139,82a1,1,0,0,1-.28-.71V79.5a1,1,0,0,1,.28-.71.93.93,0,0,1,.7-.29H150.2a.91.91,0,0,1,.69.29,1,1,0,0,1,.29.71v9.75a.45.45,0,0,0,.14.35.47.47,0,0,0,.35.15h.72a1,1,0,0,1,1,1V92.5a1,1,0,0,1-1,1h-12.7a.94.94,0,0,1-.7-.3A1,1,0,0,1,138.71,92.5Z" transform="translate(0.38 0.38)"/><path class="cls-2" d="M155.81,92.5V90.75a1,1,0,0,1,.28-.71,1,1,0,0,1,.7-.29h1.71a.47.47,0,0,0,.35-.15.45.45,0,0,0,.14-.35V82.74a.46.46,0,0,0-.14-.35.47.47,0,0,0-.35-.15h-1.71a.91.91,0,0,1-.7-.29,1,1,0,0,1-.28-.71V79.5a1,1,0,0,1,.28-.71.91.91,0,0,1,.7-.29H160a.91.91,0,0,1,.69.29,1,1,0,0,1,.28.71v9.75a.48.48,0,0,0,.14.35.47.47,0,0,0,.35.15h5.62a.45.45,0,0,0,.34-.15.45.45,0,0,0,.15-.35V82.74a.47.47,0,0,0-.15-.35.45.45,0,0,0-.34-.15h-1.71a.91.91,0,0,1-.69-.29,1,1,0,0,1-.29-.71V79.5a1,1,0,0,1,.29-.71.91.91,0,0,1,.69-.29h3.17a.91.91,0,0,1,.7.29,1,1,0,0,1,.28.71v13a1,1,0,0,1-.28.7.92.92,0,0,1-.7.3H156.79a.92.92,0,0,1-.7-.3A1,1,0,0,1,155.81,92.5Z" transform="translate(0.38 0.38)"/><path class="cls-2" d="M171.93,81.24V79.5a1,1,0,0,1,.28-.71.91.91,0,0,1,.7-.29H184.4a.91.91,0,0,1,.69.29,1,1,0,0,1,.29.71V92.62a1,1,0,0,1-.29.71.94.94,0,0,1-.69.29,1,1,0,0,1-.7-.29,1,1,0,0,1-.28-.71V82.74a.47.47,0,0,0-.15-.35.45.45,0,0,0-.34-.15h-10a.91.91,0,0,1-.7-.29A1,1,0,0,1,171.93,81.24Zm0,11.26V87a1,1,0,0,1,.28-.7,1,1,0,0,1,1.39,0,1,1,0,0,1,.28.7v2.25a.45.45,0,0,0,.15.35.45.45,0,0,0,.34.15h.74a1,1,0,0,1,1,1V92.5a.93.93,0,0,1-.29.7.92.92,0,0,1-.69.3h-2.2a.92.92,0,0,1-.7-.3A1,1,0,0,1,171.93,92.5Z" transform="translate(0.38 0.38)"/><path class="cls-2" d="M15.58,122.5v-1.75a1,1,0,0,1,1-1h1.72a.45.45,0,0,0,.34-.15.45.45,0,0,0,.15-.35v-6.51a.49.49,0,0,0-.15-.35.45.45,0,0,0-.34-.15H16.56a.91.91,0,0,1-.69-.29,1,1,0,0,1-.29-.71V109.5a.94.94,0,0,1,.29-.71.91.91,0,0,1,.69-.29h3.18a.91.91,0,0,1,.69.29,1,1,0,0,1,.28.71v9.75a.48.48,0,0,0,.14.35.47.47,0,0,0,.35.15h5.62a.47.47,0,0,0,.35-.15.48.48,0,0,0,.14-.35v-6.51a.52.52,0,0,0-.14-.35.47.47,0,0,0-.35-.15H25.11a.91.91,0,0,1-.69-.29,1,1,0,0,1-.29-.71V109.5a1,1,0,0,1,.29-.71.91.91,0,0,1,.69-.29h3.18a.91.91,0,0,1,.69.29,1,1,0,0,1,.29.71v13a1,1,0,0,1-.29.71.94.94,0,0,1-.69.29H16.56a.94.94,0,0,1-.69-.29A1,1,0,0,1,15.58,122.5Z" transform="translate(0.38 0.38)"/><path class="cls-2" d="M31.7,111.24V109.5a.94.94,0,0,1,.29-.71.91.91,0,0,1,.69-.29h4.15a.91.91,0,0,1,.69.29,1,1,0,0,1,.29.71v13.12a1,1,0,0,1-.29.71,1,1,0,0,1-1.38,0,1,1,0,0,1-.28-.71v-9.88a.47.47,0,0,0-.14-.35.46.46,0,0,0-.34-.15h-2.7A.91.91,0,0,1,32,112,1,1,0,0,1,31.7,111.24Z" transform="translate(0.38 0.38)"/><path class="cls-2" d="M40.24,111.24V109.5a1,1,0,0,1,.29-.71.91.91,0,0,1,.69-.29H52a.91.91,0,0,1,.69.29.94.94,0,0,1,.29.71v13.12a1,1,0,0,1-1,1,.91.91,0,0,1-.68-.29,1,1,0,0,1-.28-.71v-9.88a.49.49,0,0,0-.15-.35.45.45,0,0,0-.34-.15h-9.3a.91.91,0,0,1-.69-.29A1,1,0,0,1,40.24,111.24Z" transform="translate(0.38 0.38)"/><path class="cls-2" d="M55.39,111.24V109.5a1,1,0,0,1,.28-.71.91.91,0,0,1,.69-.29h4.16a.91.91,0,0,1,.69.29,1,1,0,0,1,.28.71v6.75a1,1,0,0,1-.28.71,1,1,0,0,1-1.38,0,1,1,0,0,1-.28-.71v-3.51a.52.52,0,0,0-.14-.35.47.47,0,0,0-.35-.15h-2.7a.91.91,0,0,1-.69-.29A1,1,0,0,1,55.39,111.24Z" transform="translate(0.38 0.38)"/><path class="cls-2" d="M63.93,122.5v-13a1,1,0,0,1,.28-.71.94.94,0,0,1,.7-.29,1,1,0,0,1,.69.31l7.65,7.31,2.32-2.35a.46.46,0,0,0,.15-.34v-.69a.49.49,0,0,0-.15-.35.45.45,0,0,0-.34-.15H73.46a.91.91,0,0,1-.69-.29,1,1,0,0,1-.29-.71V109.5a1,1,0,0,1,.29-.71.91.91,0,0,1,.69-.29h3.22a.94.94,0,0,1,.7.29,1,1,0,0,1,.28.71v4a2,2,0,0,1-.5,1.48l-2.5,2.48,2.57,2.45a1.48,1.48,0,0,1,.44,1.14v1.84c0,.47-.22.71-.68.71a1,1,0,0,1-.72-.34l-9.55-9a.47.47,0,0,0-.35-.15.45.45,0,0,0-.34.15.49.49,0,0,0-.15.35v4.63a.45.45,0,0,0,.15.35.45.45,0,0,0,.34.15h.74a1,1,0,0,1,.7.29,1,1,0,0,1,.28.71v1.75a1,1,0,0,1-.28.71,1,1,0,0,1-.7.29h-2.2a1,1,0,0,1-.7-.29A1,1,0,0,1,63.93,122.5Z" transform="translate(0.38 0.38)"/><path class="cls-2" d="M80.1,111.24V109.5a1,1,0,0,1,.28-.71.91.91,0,0,1,.7-.29H92.57a.91.91,0,0,1,.69.29,1,1,0,0,1,.28.71v13.12a1,1,0,0,1-.28.71,1,1,0,0,1-1.39,0,1,1,0,0,1-.28-.71v-9.88a.49.49,0,0,0-.15-.35.45.45,0,0,0-.34-.15h-10a.91.91,0,0,1-.7-.29A1,1,0,0,1,80.1,111.24Zm0,11.26V117a1,1,0,0,1,.28-.7,1,1,0,0,1,1.39,0,1,1,0,0,1,.28.7v2.25a.45.45,0,0,0,.15.35.45.45,0,0,0,.34.15h.74a1,1,0,0,1,1,1v1.75a1,1,0,0,1-.29.71.94.94,0,0,1-.69.29h-2.2a1,1,0,0,1-.7-.29A1,1,0,0,1,80.1,122.5Z" transform="translate(0.38 0.38)"/><path class="cls-2" d="M105.75,111.24V109.5a1,1,0,0,1,.29-.71.91.91,0,0,1,.69-.29H117a.91.91,0,0,1,.69.29,1,1,0,0,1,.29.71v18a1,1,0,0,1-.29.71,1,1,0,0,1-1.38,0,1,1,0,0,1-.28-.71V112.74a.47.47,0,0,0-.14-.35.45.45,0,0,0-.35-.15h-8.8A.91.91,0,0,1,106,112,1,1,0,0,1,105.75,111.24Z" transform="translate(0.38 0.38)"/><path class="cls-2" d="M120.4,111.24V102a1,1,0,0,1,.29-.71.94.94,0,0,1,.69-.29h2a.94.94,0,0,1,.69.29,1,1,0,0,1,.29.71v1.75a1,1,0,0,1-.29.71.94.94,0,0,1-.69.29h-.49a.5.5,0,0,0-.35.14.52.52,0,0,0-.14.36V108a.52.52,0,0,0,.14.35.47.47,0,0,0,.35.15h10a.91.91,0,0,1,.69.29,1,1,0,0,1,.29.71v13a1,1,0,0,1-.29.71.94.94,0,0,1-.69.29h-5.38a.94.94,0,0,1-.69-.29,1,1,0,0,1-.29-.71v-1.75a1,1,0,0,1,.29-.71.94.94,0,0,1,.69-.29h3.91a.47.47,0,0,0,.35-.15.45.45,0,0,0,.14-.35v-6.51a.47.47,0,0,0-.14-.35.47.47,0,0,0-.35-.15h-10a.91.91,0,0,1-.69-.29A1,1,0,0,1,120.4,111.24Z" transform="translate(0.38 0.38)"/><path class="cls-2" d="M136.28,111.24V109.5a1,1,0,0,1,.29-.71.91.91,0,0,1,.69-.29h11.49a.94.94,0,0,1,.7.29,1,1,0,0,1,.28.71v13.12a1,1,0,0,1-1,1,.94.94,0,0,1-.69-.29,1,1,0,0,1-.28-.71v-9.88a.49.49,0,0,0-.15-.35.45.45,0,0,0-.34-.15h-10a.91.91,0,0,1-.69-.29A1,1,0,0,1,136.28,111.24Zm0,11.26V117a1,1,0,0,1,.29-.7.92.92,0,0,1,.69-.3,1,1,0,0,1,1,1v2.25a.48.48,0,0,0,.14.35.47.47,0,0,0,.35.15h.74a.94.94,0,0,1,.69.29,1,1,0,0,1,.29.71v1.75a1,1,0,0,1-.29.71.94.94,0,0,1-.69.29h-2.21a.94.94,0,0,1-.69-.29A1,1,0,0,1,136.28,122.5Z" transform="translate(0.38 0.38)"/><path class="cls-2" d="M152.17,111.24V109.5a1,1,0,0,1,.28-.71.91.91,0,0,1,.69-.29h2a.91.91,0,0,1,.69.29,1,1,0,0,1,.29.71V111c0,.56.17.66.53.3l2.07-2.1a2.29,2.29,0,0,1,1.71-.7h6a.91.91,0,0,1,.69.29,1,1,0,0,1,.29.71v13a1,1,0,0,1-.29.71.94.94,0,0,1-.69.29h-5.62a.94.94,0,0,1-.69-.29,1,1,0,0,1-.29-.71v-1.75A1,1,0,0,1,160,120a.94.94,0,0,1,.69-.29h4.15a.47.47,0,0,0,.35-.15.45.45,0,0,0,.14-.35v-6.51a.47.47,0,0,0-.14-.35.47.47,0,0,0-.35-.15h-4a2.23,2.23,0,0,0-1.69.71L157,115.12a2.47,2.47,0,0,0-.71,1.77v5.73a1,1,0,0,1-1.67.71,1,1,0,0,1-.29-.71v-9.88a.47.47,0,0,0-.14-.35.47.47,0,0,0-.35-.15h-.74a.91.91,0,0,1-.69-.29A1,1,0,0,1,152.17,111.24Z" transform="translate(0.38 0.38)"/><path class="cls-2" d="M169.75,122.5v-1.75A1,1,0,0,1,170,120a.94.94,0,0,1,.69-.29h9.05a.45.45,0,0,0,.34-.15.45.45,0,0,0,.15-.35v-6.51a.49.49,0,0,0-.15-.35.45.45,0,0,0-.34-.15h-9.05A.91.91,0,0,1,170,112a1,1,0,0,1-.29-.71V109.5a1,1,0,0,1,.29-.71.91.91,0,0,1,.69-.29h10.52a.91.91,0,0,1,.69.29,1,1,0,0,1,.28.71v9.75a.45.45,0,0,0,.15.35.45.45,0,0,0,.34.15h.73a.94.94,0,0,1,.69.29,1,1,0,0,1,.29.71v1.75a1,1,0,0,1-.29.71.94.94,0,0,1-.69.29H170.73a.94.94,0,0,1-.69-.29A1,1,0,0,1,169.75,122.5Z" transform="translate(0.38 0.38)"/></svg>