<svg id="Layer_1" data-name="Layer 1" xmlns="http://www.w3.org/2000/svg" viewBox="0 0 200 200"><defs><style>.cls-1{fill:#192318;}.cls-2{fill:#fff;}</style></defs><rect class="cls-1" width="200" height="200"/><path class="cls-2" d="M6.32,90.31V74.4h10a7,7,0,0,1,2.39.37,4.81,4.81,0,0,1,1.65,1,4.56,4.56,0,0,1,1,1.37,6.4,6.4,0,0,1,.5,1.54A9.4,9.4,0,0,1,22,80.17V90.31Zm3.45-2.44h8.78v-7.8q0-3.24-2.9-3.24H9.77Z" transform="translate(0 0)"/><path class="cls-2" d="M25.13,76.83a3.57,3.57,0,0,1,1-2.64h3.81v7.27L26.49,83V76.83Z" transform="translate(0 0)"/><path class="cls-2" d="M33.22,76.83a3.72,3.72,0,0,1,.71-2.43H45.3a4.3,4.3,0,0,1,2.21.73,7.65,7.65,0,0,1,2,1.81,3.3,3.3,0,0,1,.82,1.94V90.31H46.9V79.67a2.75,2.75,0,0,0-1-1.87,2.82,2.82,0,0,0-1.86-1H38V90.31H34.58V76.83Z" transform="translate(0 0)"/><path class="cls-2" d="M53.08,76.83v-.26a6.09,6.09,0,0,1,0-.69,2.51,2.51,0,0,1,.2-.64,4.61,4.61,0,0,1,.5-.84h4.43V90.31H54.8V76.83Z" transform="translate(0 0)"/><path class="cls-2" d="M61.51,76.83v-.26a6.09,6.09,0,0,1,0-.69,2.42,2.42,0,0,1,.19-.64,4.71,4.71,0,0,1,.51-.84h4.43V90.31H63.22V76.83Z" transform="translate(0 0)"/><path class="cls-2" d="M70.16,76.83a3.54,3.54,0,0,1,1-2.64H75v7.27L71.52,83V76.83Z" transform="translate(0 0)"/><path class="cls-2" d="M77.62,76.21a3.09,3.09,0,0,1,.65-1.81h14a4.07,4.07,0,0,1-.66,2.43H90V90.31H86.53V76.83h-8.8A2.79,2.79,0,0,1,77.62,76.21Z" transform="translate(0 0)"/><path class="cls-2" d="M103.72,89.38a2,2,0,0,1,.76-1.61,7,7,0,0,0,1.65.34,1.76,1.76,0,0,0,1.26-.54,2.76,2.76,0,0,0,.71-1V76.83h-2.33a3.13,3.13,0,0,1-.08-.73,2.19,2.19,0,0,1,.8-1.7h11.33a5.14,5.14,0,0,1,3,.79,5.75,5.75,0,0,1,2.6,5.08v10H120V80a4.45,4.45,0,0,0-1.09-2,4,4,0,0,0-1.92-1.2h-5.41V87.19c-.38,1.57-1.12,2.51-2.23,2.82a9.36,9.36,0,0,1-2.75.53,7.56,7.56,0,0,1-1.49-.18,5.36,5.36,0,0,1-1.31-.41A3.45,3.45,0,0,1,103.72,89.38Z" transform="translate(0 0)"/><path class="cls-2" d="M125.67,76.25a3,3,0,0,1,.69-1.85h5.32a11.45,11.45,0,0,1,4.38.66,4.94,4.94,0,0,1,2.38,2.09,3.89,3.89,0,0,1,.68,1.67,21,21,0,0,1,.16,3.16v8.33h-3.44V80.8a3.77,3.77,0,0,0-4-4h-6.13A2.58,2.58,0,0,1,125.67,76.25Z" transform="translate(0 0)"/><path class="cls-2" d="M141.73,90.31a4,4,0,0,1,1-2.44h8.82V80.29a3.49,3.49,0,0,0-.89-2.59,3.19,3.19,0,0,0-2.34-.87h-5a3.82,3.82,0,0,1,.82-2.43h4.22a7.76,7.76,0,0,1,3,.58,5.87,5.87,0,0,1,2.38,1.71,3.91,3.91,0,0,1,.95,2.57v8.61h1.89a5,5,0,0,1-.82,2.44Z" transform="translate(0 0)"/><path class="cls-2" d="M158.19,93.1a3.94,3.94,0,0,1,1.51-3.19L164,88.5l-3.43-11.67h-1.83a.82.82,0,0,1,0-.27,4.81,4.81,0,0,1,.18-1.23,1.67,1.67,0,0,1,.56-.93h4l3.75,12.83q.36-.14.78-.33a10.55,10.55,0,0,0,1.13-.65,8,8,0,0,0,1.26-1,5.1,5.1,0,0,0,1-1.27,3.31,3.31,0,0,0,.41-1.57V76.83h-1.67v-.2a4.2,4.2,0,0,1,.24-1.31,1.37,1.37,0,0,1,.68-.92h4.2v7a9.54,9.54,0,0,1-1,4.33,6.8,6.8,0,0,1-2.87,3l-13.06,5.18A3,3,0,0,1,158.19,93.1Z" transform="translate(0 0)"/><path class="cls-2" d="M178.6,76.28a3.15,3.15,0,0,1,.68-1.88H187a11.45,11.45,0,0,1,4.37.65,5,5,0,0,1,2.39,2.08,3.81,3.81,0,0,1,.68,1.67,20.73,20.73,0,0,1,.17,3.16v8.35h-3.45V80.78a3.74,3.74,0,0,0-4-4h-8.5A3.21,3.21,0,0,1,178.6,76.28Zm.65,14V80.55a6.9,6.9,0,0,1,3,1v8.75Z" transform="translate(0 0)"/><path class="cls-2" d="M5.64,129.1a4,4,0,0,1,1.5-3.19l4.3-1.41L8,112.83H6.19a.58.58,0,0,1,0-.27,4.45,4.45,0,0,1,.19-1.23,1.56,1.56,0,0,1,.56-.93h4l3.76,12.83.77-.33a10.51,10.51,0,0,0,1.14-.65,9.1,9.1,0,0,0,1.26-1,4.85,4.85,0,0,0,.95-1.27,3.2,3.2,0,0,0,.41-1.57v-5.61H17.54v-.2a4.47,4.47,0,0,1,.23-1.31,1.35,1.35,0,0,1,.69-.92h4.19v7a9.54,9.54,0,0,1-1,4.33,6.8,6.8,0,0,1-2.87,3L5.73,129.87A3.51,3.51,0,0,1,5.64,129.1Z" transform="translate(0 0)"/><path class="cls-2" d="M25.56,112.83v-.26a6.09,6.09,0,0,1,0-.69,2.51,2.51,0,0,1,.2-.64,4.61,4.61,0,0,1,.5-.84h4.43v15.91H27.28V112.83Z" transform="translate(0 0)"/><path class="cls-2" d="M33.76,112.25a2.93,2.93,0,0,1,.7-1.85h5.32a11.39,11.39,0,0,1,4.37.66,5,5,0,0,1,2.39,2.09,4,4,0,0,1,.68,1.67,22.45,22.45,0,0,1,.16,3.16v8.33H43.93V116.8a3.76,3.76,0,0,0-4-4H33.83A2.1,2.1,0,0,1,33.76,112.25Z" transform="translate(0 0)"/><path class="cls-2" d="M50.24,112.83a3.54,3.54,0,0,1,1-2.64h3.81v7.27L51.6,119v-6.21Z" transform="translate(0 0)"/><path class="cls-2" d="M58.52,110.19h4.42a86.56,86.56,0,0,1,6.5,7.24c1.13-.47,1.7-1.82,1.7-4.06v-.54H69.67a4.13,4.13,0,0,1,.79-2.64h4.11V111c0,.38,0,.67,0,.88a14.22,14.22,0,0,1-.11,1.94,11.12,11.12,0,0,1-.43,1.92,6.15,6.15,0,0,1-1,2,7.83,7.83,0,0,1-1.82,1.7A54.72,54.72,0,0,1,76,126.31H72.17a63.8,63.8,0,0,0-7.15-9,6.79,6.79,0,0,0-2.36,2.86,8.69,8.69,0,0,0-.9,3.7H63a3.57,3.57,0,0,1,.34,1.75,5.12,5.12,0,0,1,0,.69H58.59a26,26,0,0,1,.14-2.91,21.6,21.6,0,0,1,.35-2.31,10.42,10.42,0,0,1,.59-1.84,10.84,10.84,0,0,1,.73-1.42,7.83,7.83,0,0,1,.89-1.13,12.24,12.24,0,0,1,.94-.9c.28-.23.63-.5,1.05-.8A52.2,52.2,0,0,0,58.52,110.19Z" transform="translate(0 0)"/><path class="cls-2" d="M78.51,112.28a3.15,3.15,0,0,1,.68-1.88h7.68a11.45,11.45,0,0,1,4.37.65,5,5,0,0,1,2.39,2.08,3.81,3.81,0,0,1,.68,1.67,20.73,20.73,0,0,1,.17,3.16v8.35H91v-9.53a3.74,3.74,0,0,0-4-4h-8.5A3.21,3.21,0,0,1,78.51,112.28Zm.65,14v-9.76a6.9,6.9,0,0,1,3,1v8.75Z" transform="translate(0 0)"/><path class="cls-2" d="M106.05,112.83a3,3,0,0,1,1-2.43h7.37a4.84,4.84,0,0,1,2.45.7,5.91,5.91,0,0,1,2,2,4.78,4.78,0,0,1,.79,2.62l0,17.3h-3.17V115.83a2.94,2.94,0,0,0-.88-2.08,3.27,3.27,0,0,0-2.47-.92Z" transform="translate(0 0)"/><path class="cls-2" d="M121.31,106.15a4.1,4.1,0,0,1,.2-1.38,2.16,2.16,0,0,1,.84-1h3.91v6.78h10.62v2.74l-6.29,13.07h-3.75l6.26-13.38h-10v-6.78Z" transform="translate(0 0)"/><path class="cls-2" d="M140.18,112.28a3.15,3.15,0,0,1,.68-1.88h7.68a11.49,11.49,0,0,1,4.37.65,5,5,0,0,1,2.39,2.08,3.94,3.94,0,0,1,.68,1.67,21.08,21.08,0,0,1,.16,3.16v8.35H152.7v-9.53a3.76,3.76,0,0,0-4-4h-8.5A3.21,3.21,0,0,1,140.18,112.28Zm.65,14v-9.76a6.94,6.94,0,0,1,3,1v8.75Z" transform="translate(0 0)"/><path class="cls-2" d="M158.91,110.18a5.43,5.43,0,0,1,1.68-.3,9.66,9.66,0,0,1,1.94.3l1.38,3.75a8,8,0,0,1,1.14-1.86,6.06,6.06,0,0,1,1.87-1.46,5.6,5.6,0,0,1,2.62-.62,9.45,9.45,0,0,1,3.64.66,6.72,6.72,0,0,1,2.59,1.85,8,8,0,0,1,1.49,2.7,10.47,10.47,0,0,1,.51,3.33,10.3,10.3,0,0,1-.64,3.77,6.11,6.11,0,0,1-1.84,2.56,7.94,7.94,0,0,1-2.74,1.42,12.06,12.06,0,0,1-3.48.47,9.93,9.93,0,0,1-2.61-.49,3.59,3.59,0,0,1-.13-1,5.57,5.57,0,0,1,.7-2.41,3.08,3.08,0,0,0,.74.75,2,2,0,0,0,1,.2,5.37,5.37,0,0,0,4.09-1.51,5.42,5.42,0,0,0,1.44-3.89,8.06,8.06,0,0,0-.27-2.15,5.9,5.9,0,0,0-.84-1.75,3.77,3.77,0,0,0-1.55-1.21,5.41,5.41,0,0,0-2.29-.44,4,4,0,0,0-1.86.42,3.83,3.83,0,0,0-1.35,1.09,8,8,0,0,0-.94,1.65,11.82,11.82,0,0,0-.64,2c-.15.69-.28,1.43-.41,2.22s-.24,1.53-.34,2.21-.22,1.37-.33,2.07-.2,1.29-.27,1.77h-3.54l1.18-10.45Z" transform="translate(0 0)"/><path class="cls-2" d="M179.45,126.31a4,4,0,0,1,1-2.44h8.82v-7.58a3.45,3.45,0,0,0-.89-2.59,3.19,3.19,0,0,0-2.34-.87h-5a3.82,3.82,0,0,1,.82-2.43h4.23a7.74,7.74,0,0,1,3,.58,5.81,5.81,0,0,1,2.38,1.71,3.86,3.86,0,0,1,.95,2.57v8.61h1.9a5,5,0,0,1-.83,2.44Z" transform="translate(0 0)"/></svg>