<svg id="Layer_1" data-name="Layer 1" xmlns="http://www.w3.org/2000/svg" viewBox="0 0 200.75 200.75"><defs><style>.cls-1{fill:#192318;stroke:#fff;stroke-miterlimit:10;stroke-width:0.75px;}.cls-2{fill:#fff;}</style></defs><rect class="cls-1" x="0.38" y="0.38" width="200" height="200"/><path class="cls-2" d="M32.2,81.24V79.5a1,1,0,0,1,.29-.71.92.92,0,0,1,.69-.3H44.67a.92.92,0,0,1,.69.3.94.94,0,0,1,.29.71V92.62a1,1,0,0,1-.29.71,1,1,0,0,1-1.38,0,1,1,0,0,1-.29-.71V82.74a.46.46,0,0,0-.14-.35.45.45,0,0,0-.35-.15h-10a.94.94,0,0,1-.69-.29A1,1,0,0,1,32.2,81.24Zm0,11.26V87a1,1,0,0,1,.29-.71,1,1,0,0,1,1.38,0,1,1,0,0,1,.29.71v2.25a.5.5,0,0,0,.14.35.47.47,0,0,0,.35.15h.74a.94.94,0,0,1,.69.29,1,1,0,0,1,.29.71V92.5a1,1,0,0,1-.29.7.92.92,0,0,1-.69.3H33.18a.92.92,0,0,1-.69-.3A1,1,0,0,1,32.2,92.5Z" transform="translate(0.38 0.38)"/><path class="cls-2" d="M48.08,81.24V79.5a1,1,0,0,1,.29-.71.92.92,0,0,1,.69-.3h2a.92.92,0,0,1,.69.3,1,1,0,0,1,.29.71V81c0,.56.17.66.52.3l2.08-2.1a2.3,2.3,0,0,1,1.71-.71h5.95a.92.92,0,0,1,.69.3,1,1,0,0,1,.29.71v13a1,1,0,0,1-.29.7.92.92,0,0,1-.69.3H56.64a.92.92,0,0,1-.69-.3,1,1,0,0,1-.29-.7V90.75A1,1,0,0,1,56,90a.94.94,0,0,1,.69-.29h4.15a.47.47,0,0,0,.35-.15.5.5,0,0,0,.14-.35V82.74a.5.5,0,0,0-.14-.35.47.47,0,0,0-.35-.15h-4a2.25,2.25,0,0,0-1.7.71L53,85.12a2.47,2.47,0,0,0-.71,1.77v5.73a1,1,0,0,1-.29.71,1,1,0,0,1-1.38,0,1,1,0,0,1-.29-.71V82.74a.5.5,0,0,0-.14-.35.47.47,0,0,0-.35-.15h-.74a.94.94,0,0,1-.69-.29A1,1,0,0,1,48.08,81.24Z" transform="translate(0.38 0.38)"/><path class="cls-2" d="M65.67,92.5V90.75A1,1,0,0,1,66,90a.94.94,0,0,1,.69-.29h9.54a.45.45,0,0,0,.34-.15.46.46,0,0,0,.14-.35V82.74a.46.46,0,0,0-.14-.35.45.45,0,0,0-.34-.15H66.65A.94.94,0,0,1,66,82a1,1,0,0,1-.29-.71V79.5a1,1,0,0,1,.29-.71.92.92,0,0,1,.69-.3h11a.92.92,0,0,1,.69.3.94.94,0,0,1,.29.71v13a.93.93,0,0,1-.29.7.92.92,0,0,1-.69.3h-11a.92.92,0,0,1-.69-.3A1,1,0,0,1,65.67,92.5Z" transform="translate(0.38 0.38)"/><path class="cls-2" d="M81.06,92.5v-13a1,1,0,0,1,.29-.71.92.92,0,0,1,.69-.3H93.53a.94.94,0,0,1,.7.3,1,1,0,0,1,.28.71v8.58a2.38,2.38,0,0,1-.69,1.73l-2.91,3a2.35,2.35,0,0,1-1.73.74H82a.92.92,0,0,1-.69-.3A1,1,0,0,1,81.06,92.5Zm2-3.25a.5.5,0,0,0,.14.35.49.49,0,0,0,.35.15h4.77A2.35,2.35,0,0,0,90,89l1.88-1.92a2.38,2.38,0,0,0,.68-1.73V82.74a.47.47,0,0,0-.15-.35.45.45,0,0,0-.34-.15H83.51a.49.49,0,0,0-.35.15.5.5,0,0,0-.14.35Z" transform="translate(0.38 0.38)"/><path class="cls-2" d="M106.72,92.5V90.75a1,1,0,0,1,1-1h.74a.45.45,0,0,0,.34-.15.47.47,0,0,0,.15-.35V82.74a.47.47,0,0,0-.15-.35.45.45,0,0,0-.34-.15h-.25a1,1,0,0,1-.7-.29,1,1,0,0,1-.28-.71V79.5a1,1,0,0,1,.28-.71.94.94,0,0,1,.7-.3h12a.92.92,0,0,1,.69.3,1,1,0,0,1,.28.71V92.62a1,1,0,0,1-.28.71.94.94,0,0,1-.69.29,1,1,0,0,1-.7-.29,1,1,0,0,1-.28-.71V82.74a.47.47,0,0,0-.15-.35.45.45,0,0,0-.34-.15h-7.33a.45.45,0,0,0-.34.15.47.47,0,0,0-.15.35V92.5a1,1,0,0,1-.28.7.94.94,0,0,1-.7.3h-2.2a1,1,0,0,1-1-1Z" transform="translate(0.38 0.38)"/><path class="cls-2" d="M123.58,81.24V79.5a.94.94,0,0,1,.29-.71.92.92,0,0,1,.69-.3h2.93a.92.92,0,0,1,.69.3.94.94,0,0,1,.29.71v4.29a.45.45,0,0,0,.25.44l2.92,1.64,2.94-1.74a.45.45,0,0,0,.24-.42v-1a.5.5,0,0,0-.14-.35.43.43,0,0,0-.34-.15h-1.47a.94.94,0,0,1-.69-.29,1,1,0,0,1-.28-.71V79.5a1,1,0,0,1,.28-.71.92.92,0,0,1,.69-.3h2.93a.92.92,0,0,1,.69.3,1,1,0,0,1,.29.71v4.4a2.38,2.38,0,0,1-.23,1.09,1.93,1.93,0,0,1-.76.77L133.7,87l2.6,1.47a.92.92,0,0,1,.48.85V92.5a1,1,0,0,1-.29.7.92.92,0,0,1-.69.3H125.05a.94.94,0,0,1-.7-.3,1,1,0,0,1-.28-.7V90.75a1,1,0,0,1,.28-.71,1,1,0,0,1,.7-.29h7.38c.23,0,.37-.08.4-.25s-.05-.31-.25-.43l-5.08-2.71a2,2,0,0,1-.77-.77,2.55,2.55,0,0,1-.22-1.09V82.74a.46.46,0,0,0-.14-.35.45.45,0,0,0-.35-.15h-1.46a1,1,0,0,1-1-1Z" transform="translate(0.38 0.38)"/><path class="cls-2" d="M139.21,81.24V79.5a.94.94,0,0,1,.29-.71.92.92,0,0,1,.69-.3h10.75a.92.92,0,0,1,.69.3,1,1,0,0,1,.29.71V92.62a1,1,0,0,1-.29.71,1,1,0,0,1-1.38,0,1,1,0,0,1-.28-.71V82.74a.5.5,0,0,0-.14-.35.47.47,0,0,0-.35-.15h-9.29a1,1,0,0,1-1-1Z" transform="translate(0.38 0.38)"/><path class="cls-2" d="M154.35,81.24V79.5a1,1,0,0,1,.29-.71.92.92,0,0,1,.69-.3h11.49a.92.92,0,0,1,.69.3,1,1,0,0,1,.29.71V92.62a1,1,0,0,1-.29.71,1,1,0,0,1-1.38,0,1,1,0,0,1-.29-.71V82.74a.5.5,0,0,0-.14-.35.47.47,0,0,0-.35-.15h-10a.94.94,0,0,1-.69-.29A1,1,0,0,1,154.35,81.24Zm0,11.26V87a1,1,0,0,1,.29-.71,1,1,0,0,1,1.38,0,1,1,0,0,1,.29.71v2.25a.5.5,0,0,0,.14.35.47.47,0,0,0,.35.15h.74a.94.94,0,0,1,.69.29,1,1,0,0,1,.29.71V92.5a1,1,0,0,1-.29.7.92.92,0,0,1-.69.3h-2.21a.92.92,0,0,1-.69-.3A1,1,0,0,1,154.35,92.5Z" transform="translate(0.38 0.38)"/><path class="cls-2" d="M12.18,122.5v-1.75a1,1,0,0,1,1-1h.74a.45.45,0,0,0,.34-.15.47.47,0,0,0,.15-.35v-6.51a.47.47,0,0,0-.15-.35.45.45,0,0,0-.34-.15h-.25a1,1,0,0,1-1-1V109.5a.94.94,0,0,1,.29-.71.92.92,0,0,1,.69-.3h12a.92.92,0,0,1,.69.3,1,1,0,0,1,.29.71v13.12a1,1,0,0,1-.29.71,1,1,0,0,1-1.38,0,1,1,0,0,1-.29-.71v-9.88a.5.5,0,0,0-.14-.35.49.49,0,0,0-.35-.15H16.83a.45.45,0,0,0-.34.15.47.47,0,0,0-.15.35v9.76a1,1,0,0,1-.28.7.92.92,0,0,1-.69.3H13.16a.92.92,0,0,1-.69-.3A.93.93,0,0,1,12.18,122.5Z" transform="translate(0.38 0.38)"/><path class="cls-2" d="M29,111.24V109.5a.94.94,0,0,1,.29-.71.92.92,0,0,1,.69-.3h4.15a.92.92,0,0,1,.69.3,1,1,0,0,1,.29.71v13.12a1,1,0,0,1-.29.71,1,1,0,0,1-1.38,0,1,1,0,0,1-.28-.71v-9.88a.46.46,0,0,0-.14-.35.47.47,0,0,0-.35-.15H30a1,1,0,0,1-1-1Z" transform="translate(0.38 0.38)"/><path class="cls-2" d="M37.58,111.24V102a1,1,0,0,1,.29-.71.94.94,0,0,1,.69-.29h2a.94.94,0,0,1,.69.29,1,1,0,0,1,.29.71v1.75a1,1,0,0,1-.29.7.92.92,0,0,1-.69.3H40a.46.46,0,0,0-.35.14.52.52,0,0,0-.14.36V108a.52.52,0,0,0,.14.36.46.46,0,0,0,.35.14h10a.92.92,0,0,1,.69.3.94.94,0,0,1,.29.71v13a.93.93,0,0,1-.29.7.92.92,0,0,1-.69.3H44.67a.92.92,0,0,1-.69-.3,1,1,0,0,1-.29-.7v-1.75A1,1,0,0,1,44,120a.94.94,0,0,1,.69-.29h3.91a.47.47,0,0,0,.35-.15.46.46,0,0,0,.14-.35v-6.51a.46.46,0,0,0-.14-.35.47.47,0,0,0-.35-.15h-10a.94.94,0,0,1-.69-.29A1,1,0,0,1,37.58,111.24Z" transform="translate(0.38 0.38)"/><path class="cls-2" d="M53.46,111.24V109.5a1,1,0,0,1,.29-.71.92.92,0,0,1,.69-.3H65.93a.94.94,0,0,1,.7.3,1,1,0,0,1,.28.71v13.12a1,1,0,0,1-.28.71,1,1,0,0,1-.7.29.94.94,0,0,1-.69-.29,1,1,0,0,1-.28-.71v-9.88a.47.47,0,0,0-.15-.35.45.45,0,0,0-.34-.15h-10a.94.94,0,0,1-.69-.29A1,1,0,0,1,53.46,111.24Zm0,11.26V117a1,1,0,0,1,.29-.71.94.94,0,0,1,.69-.29,1,1,0,0,1,.7.29,1,1,0,0,1,.28.71v2.25a.5.5,0,0,0,.14.35.49.49,0,0,0,.35.15h.74a.94.94,0,0,1,.69.29,1,1,0,0,1,.29.71v1.75a1,1,0,0,1-.29.7.92.92,0,0,1-.69.3H54.44a.92.92,0,0,1-.69-.3A1,1,0,0,1,53.46,122.5Z" transform="translate(0.38 0.38)"/><path class="cls-2" d="M69.35,122.5v-1.75a1,1,0,0,1,.28-.71.94.94,0,0,1,.69-.29h4.41a.45.45,0,0,0,.34-.15.47.47,0,0,0,.15-.35v-6.51a.47.47,0,0,0-.15-.35.45.45,0,0,0-.34-.15H71.79a.94.94,0,0,1-.69-.29,1,1,0,0,1-.29-.71V109.5a1,1,0,0,1,.29-.71.92.92,0,0,1,.69-.3h4.4a.92.92,0,0,1,.7.3,1,1,0,0,1,.28.71v13a1,1,0,0,1-.28.7.92.92,0,0,1-.7.3H70.32a.92.92,0,0,1-.69-.3A1,1,0,0,1,69.35,122.5Z" transform="translate(0.38 0.38)"/><path class="cls-2" d="M79.61,111.24V109.5a1,1,0,0,1,.28-.71.94.94,0,0,1,.7-.3h2a.92.92,0,0,1,.69.3.94.94,0,0,1,.29.71V111c0,.56.18.66.53.3l2.07-2.1a2.3,2.3,0,0,1,1.71-.71h6a1,1,0,0,1,.7.3,1,1,0,0,1,.28.71v13a1,1,0,0,1-1,1H88.16a.92.92,0,0,1-.69-.3,1,1,0,0,1-.29-.7v-1.75a1,1,0,0,1,.29-.71.94.94,0,0,1,.69-.29h4.15a.45.45,0,0,0,.35-.15.47.47,0,0,0,.15-.35v-6.51a.47.47,0,0,0-.15-.35.45.45,0,0,0-.35-.15h-4a2.23,2.23,0,0,0-1.69.71l-2.11,2.17a2.44,2.44,0,0,0-.72,1.77v5.73a1,1,0,0,1-.28.71,1,1,0,0,1-.7.29.94.94,0,0,1-.69-.29,1,1,0,0,1-.29-.71v-9.88a.46.46,0,0,0-.14-.35.45.45,0,0,0-.34-.15h-.74a1,1,0,0,1-.7-.29A1,1,0,0,1,79.61,111.24Z" transform="translate(0.38 0.38)"/><path class="cls-2" d="M107,122.5v-13a1,1,0,0,1,.28-.71,1,1,0,0,1,.7-.3h8.18a2.29,2.29,0,0,1,1.7.71l1.87,1.91a2.41,2.41,0,0,1,.72,1.77v9.62a1,1,0,0,1-.29.7.92.92,0,0,1-.69.3H108a1,1,0,0,1-1-1Zm2-3.25a.47.47,0,0,0,.15.35.45.45,0,0,0,.34.15H118a.49.49,0,0,0,.35-.15.5.5,0,0,0,.14-.35v-3.77a2.42,2.42,0,0,0-.72-1.77L117,113a2.29,2.29,0,0,0-1.7-.71h-5.92a.45.45,0,0,0-.34.15.47.47,0,0,0-.15.35Z" transform="translate(0.38 0.38)"/><path class="cls-2" d="M122.85,111.24V109.5a.94.94,0,0,1,.29-.71.92.92,0,0,1,.69-.3H128a.92.92,0,0,1,.69.3,1,1,0,0,1,.29.71v13.12a1,1,0,0,1-.29.71,1,1,0,0,1-1.38,0,1,1,0,0,1-.28-.71v-9.88a.46.46,0,0,0-.14-.35.47.47,0,0,0-.35-.15h-2.69a1,1,0,0,1-1-1Z" transform="translate(0.38 0.38)"/><path class="cls-2" d="M131.39,111.24V109.5a1,1,0,0,1,.29-.71.92.92,0,0,1,.69-.3h12a.92.92,0,0,1,.69.3,1,1,0,0,1,.29.71v1.74a1,1,0,0,1-.29.71.94.94,0,0,1-.69.29h-1a.45.45,0,0,0-.34.15.47.47,0,0,0-.15.35v9.88a1,1,0,0,1-.28.71,1,1,0,0,1-1.39,0,1,1,0,0,1-.28-.71v-9.88a.47.47,0,0,0-.15-.35.45.45,0,0,0-.34-.15h-8.07a.94.94,0,0,1-.69-.29A1,1,0,0,1,131.39,111.24Z" transform="translate(0.38 0.38)"/><path class="cls-2" d="M147.76,111.24V109.5a1,1,0,0,1,.29-.71.92.92,0,0,1,.69-.3h4.15a.92.92,0,0,1,.7.3,1,1,0,0,1,.28.71v6.75a1,1,0,0,1-.28.7.92.92,0,0,1-.7.3.9.9,0,0,1-.68-.3,1,1,0,0,1-.28-.7v-3.51a.5.5,0,0,0-.14-.35.49.49,0,0,0-.35-.15h-2.7a.94.94,0,0,1-.69-.29A1,1,0,0,1,147.76,111.24Z" transform="translate(0.38 0.38)"/><path class="cls-2" d="M156.31,111.24V109.5a1,1,0,0,1,.28-.71.92.92,0,0,1,.7-.3h11.24a.92.92,0,0,1,.69.3,1,1,0,0,1,.28.71v13a1,1,0,0,1-.28.7.92.92,0,0,1-.69.3h-6.35a.92.92,0,0,1-.69-.3.93.93,0,0,1-.29-.7v-1.75a1,1,0,0,1,1-1h4.89a.43.43,0,0,0,.34-.15.5.5,0,0,0,.14-.35v-6.51a.5.5,0,0,0-.14-.35.43.43,0,0,0-.34-.15h-9.78a1,1,0,0,1-.7-.29A1,1,0,0,1,156.31,111.24Zm0,16.26V115.79a1,1,0,0,1,.28-.7.92.92,0,0,1,.7-.3h.25a.92.92,0,0,1,.69.3,1,1,0,0,1,.28.7V127.5a1,1,0,0,1-.28.71.94.94,0,0,1-.69.29h-.25a1,1,0,0,1-.7-.29A1,1,0,0,1,156.31,127.5Z" transform="translate(0.38 0.38)"/><path class="cls-2" d="M171.94,111.24V109.5a1,1,0,0,1,.28-.71,1,1,0,0,1,.7-.3h4.15a.92.92,0,0,1,.69.3,1,1,0,0,1,.29.71v13.12a1,1,0,0,1-.29.71,1,1,0,0,1-1.38,0,1,1,0,0,1-.28-.71v-9.88a.5.5,0,0,0-.14-.35.47.47,0,0,0-.35-.15h-2.69a1,1,0,0,1-1-1Z" transform="translate(0.38 0.38)"/></svg>