<svg id="Layer_1" data-name="Layer 1" xmlns="http://www.w3.org/2000/svg" viewBox="0 0 200.75 200.75"><defs><style>.cls-1{fill:#192318;stroke:#fff;stroke-miterlimit:10;stroke-width:0.75px;}.cls-2{fill:#fff;}</style></defs><rect class="cls-1" x="0.38" y="0.38" width="200" height="200"/><path class="cls-2" d="M71.94,74.67V73.34a.75.75,0,0,1,.74-.76h9.1a.72.72,0,0,1,.53.23.73.73,0,0,1,.22.53v1.33a.77.77,0,0,1-.22.54.71.71,0,0,1-.53.22H81a.38.38,0,0,0-.37.38v7.51a.69.69,0,0,1-.22.53.71.71,0,0,1-1,0,.69.69,0,0,1-.22-.53V75.81a.4.4,0,0,0-.11-.27.36.36,0,0,0-.26-.11H72.68a.71.71,0,0,1-.53-.22A.76.76,0,0,1,71.94,74.67Z" transform="translate(0.38 0.38)"/><path class="cls-2" d="M84.38,74.67V73.34a.75.75,0,0,1,.74-.76h3.16a.77.77,0,0,1,.74.76v5.13a.73.73,0,0,1-.22.54.69.69,0,0,1-.52.22.71.71,0,0,1-.53-.22.76.76,0,0,1-.21-.54V75.81a.38.38,0,0,0-.37-.38h-2a.71.71,0,0,1-.53-.22A.76.76,0,0,1,84.38,74.67Z" transform="translate(0.38 0.38)"/><path class="cls-2" d="M90.87,74.67V73.34a.77.77,0,0,1,.74-.76h8.17a.7.7,0,0,1,.53.23.69.69,0,0,1,.22.53v10a.69.69,0,0,1-.22.53.71.71,0,0,1-1,0,.72.72,0,0,1-.21-.53V75.81a.4.4,0,0,0-.11-.27.36.36,0,0,0-.26-.11H91.61a.69.69,0,0,1-.52-.22A.73.73,0,0,1,90.87,74.67Z" transform="translate(0.38 0.38)"/><path class="cls-2" d="M102.38,74.67V73.34a.77.77,0,0,1,.74-.76h3.16a.77.77,0,0,1,.74.76v10a.77.77,0,0,1-.74.76.68.68,0,0,1-.52-.23.69.69,0,0,1-.22-.53V75.81a.38.38,0,0,0-.37-.38h-2a.69.69,0,0,1-.52-.22A.73.73,0,0,1,102.38,74.67Z" transform="translate(0.38 0.38)"/><path class="cls-2" d="M116.3,83.22V81.9a.73.73,0,0,1,.22-.54.69.69,0,0,1,.52-.22h.56a.39.39,0,0,0,.27-.11.4.4,0,0,0,.11-.27v-5a.4.4,0,0,0-.11-.27.39.39,0,0,0-.27-.11h-.19a.69.69,0,0,1-.52-.22.73.73,0,0,1-.22-.54V73.34a.77.77,0,0,1,.74-.76h9.11a.77.77,0,0,1,.74.76v10a.77.77,0,0,1-.74.76.72.72,0,0,1-.53-.23.73.73,0,0,1-.22-.53V75.81a.39.39,0,0,0-.1-.27.4.4,0,0,0-.27-.11h-5.57a.36.36,0,0,0-.26.11.4.4,0,0,0-.11.27v7.41a.76.76,0,0,1-.21.54.73.73,0,0,1-.53.22H117a.69.69,0,0,1-.52-.22A.73.73,0,0,1,116.3,83.22Z" transform="translate(0.38 0.38)"/><path class="cls-2" d="M129.11,83.32v-10a.69.69,0,0,1,.22-.53.7.7,0,0,1,.53-.23h8.73a.77.77,0,0,1,.74.76v10a.77.77,0,0,1-.74.76.72.72,0,0,1-.53-.23.73.73,0,0,1-.22-.53V75.81a.39.39,0,0,0-.1-.27.39.39,0,0,0-.27-.11H131a.38.38,0,0,0-.37.38v7.51a.77.77,0,0,1-.74.76.7.7,0,0,1-.53-.23A.69.69,0,0,1,129.11,83.32Z" transform="translate(0.38 0.38)"/><path class="cls-2" d="M141.18,74.67V73.34a.77.77,0,0,1,.74-.76h3.16a.75.75,0,0,1,.74.76v5.13a.76.76,0,0,1-.21.54.71.71,0,0,1-.53.22.69.69,0,0,1-.52-.22.76.76,0,0,1-.21-.54V75.81a.4.4,0,0,0-.11-.27.37.37,0,0,0-.27-.11h-2.05a.69.69,0,0,1-.52-.22A.73.73,0,0,1,141.18,74.67Z" transform="translate(0.38 0.38)"/><path class="cls-2" d="M147.67,83.22V81.9a.77.77,0,0,1,.22-.54.71.71,0,0,1,.53-.22H149a.38.38,0,0,0,.37-.38v-5a.38.38,0,0,0-.37-.38h-.19a.71.71,0,0,1-.53-.22.76.76,0,0,1-.21-.54V73.34a.75.75,0,0,1,.74-.76h9.1a.7.7,0,0,1,.53.23.69.69,0,0,1,.22.53v10a.69.69,0,0,1-.22.53.71.71,0,0,1-1,0,.69.69,0,0,1-.22-.53V75.81a.38.38,0,0,0-.37-.38h-5.57a.36.36,0,0,0-.26.11.4.4,0,0,0-.11.27v7.41a.73.73,0,0,1-.22.54.69.69,0,0,1-.52.22h-1.68a.71.71,0,0,1-.53-.22A.77.77,0,0,1,147.67,83.22Z" transform="translate(0.38 0.38)"/><path class="cls-2" d="M160.49,83.22V81.9a.73.73,0,0,1,.22-.54.69.69,0,0,1,.52-.22h7.25a.36.36,0,0,0,.26-.11.4.4,0,0,0,.11-.27v-5a.4.4,0,0,0-.11-.27.36.36,0,0,0-.26-.11h-6.13a.39.39,0,0,0-.27.11.39.39,0,0,0-.1.27v.69a.39.39,0,0,0,.1.27.39.39,0,0,0,.27.11h.56a.71.71,0,0,1,.53.22.76.76,0,0,1,.21.54V79a.75.75,0,0,1-.74.76h-1.68a.77.77,0,0,1-.74-.76V73.34a.77.77,0,0,1,.74-.76h8.36a.72.72,0,0,1,.53.23.73.73,0,0,1,.22.53v9.88a.77.77,0,0,1-.22.54.71.71,0,0,1-.53.22h-8.36a.69.69,0,0,1-.52-.22A.73.73,0,0,1,160.49,83.22Z" transform="translate(0.38 0.38)"/><path class="cls-2" d="M172.19,78.57V78a.76.76,0,0,1,.21-.54.71.71,0,0,1,.53-.22h2.36a.23.23,0,0,0,.2-.14.25.25,0,0,0,0-.25l-1.13-2a.78.78,0,0,1,.27-1l.12-.08,0,0s0,0,0,0l.09-.06a.73.73,0,0,1,1,.27l1.23,2.19a.21.21,0,0,0,.22.1.23.23,0,0,0,.22-.12L178.72,74a.77.77,0,0,1,.46-.35.73.73,0,0,1,.56.08l.12.08s0,0,0,0,0,0,0,0a.24.24,0,0,1,.09.06.74.74,0,0,1,.35.46.78.78,0,0,1-.07.58l-1.16,2a.22.22,0,0,0,0,.22.19.19,0,0,0,.17.12h2.42a.69.69,0,0,1,.52.22.73.73,0,0,1,.22.54v.57a.77.77,0,0,1-.74.76h-2.34a.23.23,0,0,0-.21.14.25.25,0,0,0,0,.26l1.12,2a.75.75,0,0,1,.07.57.74.74,0,0,1-.35.46l-.11.08s0,0,0,0,.05,0,0,0l-.09,0a.69.69,0,0,1-.56.08.77.77,0,0,1-.46-.35l-1.23-2.2a.21.21,0,0,0-.21-.11.23.23,0,0,0-.22.11l-1.23,2.2a.72.72,0,0,1-.45.35.69.69,0,0,1-.56-.08l-.12-.07s0,0,0,0,.06,0,0,0l-.09-.06a.73.73,0,0,1-.34-.46.71.71,0,0,1,.07-.57l1.13-2a.25.25,0,0,0,0-.26.27.27,0,0,0-.23-.13h-2.32a.75.75,0,0,1-.74-.76Z" transform="translate(0.38 0.38)"/><path class="cls-2" d="M58.56,106V104.7a.73.73,0,0,1,.22-.54.69.69,0,0,1,.52-.22h.56a.39.39,0,0,0,.27-.11.4.4,0,0,0,.11-.27v-5a.4.4,0,0,0-.11-.27.39.39,0,0,0-.27-.11h-.19a.69.69,0,0,1-.52-.22.73.73,0,0,1-.22-.54V96.14a.77.77,0,0,1,.74-.76h9.11a.77.77,0,0,1,.74.76v10a.75.75,0,0,1-.74.76.75.75,0,0,1-.53-.22.77.77,0,0,1-.22-.54V98.61a.39.39,0,0,0-.1-.27.39.39,0,0,0-.27-.11H62.09a.36.36,0,0,0-.26.11.4.4,0,0,0-.11.27V106a.76.76,0,0,1-.21.54.72.72,0,0,1-.53.23H59.3a.7.7,0,0,1-.52-.23A.73.73,0,0,1,58.56,106Z" transform="translate(0.38 0.38)"/><path class="cls-2" d="M71.37,97.47V96.14a.69.69,0,0,1,.22-.53.7.7,0,0,1,.53-.23h3.15a.75.75,0,0,1,.74.76v10a.76.76,0,0,1-.21.54.75.75,0,0,1-.53.22.73.73,0,0,1-.52-.22.76.76,0,0,1-.21-.54V98.61a.4.4,0,0,0-.11-.27.36.36,0,0,0-.26-.11h-2a.69.69,0,0,1-.53-.22A.73.73,0,0,1,71.37,97.47Z" transform="translate(0.38 0.38)"/><path class="cls-2" d="M77.86,106V104.7a.77.77,0,0,1,.22-.54.71.71,0,0,1,.53-.22h7.24a.39.39,0,0,0,.27-.11.4.4,0,0,0,.11-.27v-5a.4.4,0,0,0-.11-.27.39.39,0,0,0-.27-.11H79.72a.36.36,0,0,0-.26.11.4.4,0,0,0-.11.27v.69a.4.4,0,0,0,.11.27.36.36,0,0,0,.26.11h.57a.69.69,0,0,1,.52.22.73.73,0,0,1,.22.54v1.33a.77.77,0,0,1-.74.76H78.61a.72.72,0,0,1-.53-.23.73.73,0,0,1-.22-.53V96.14a.73.73,0,0,1,.22-.53.72.72,0,0,1,.53-.23H87a.75.75,0,0,1,.74.76V106a.76.76,0,0,1-.21.54.72.72,0,0,1-.53.23H78.61a.72.72,0,0,1-.53-.23A.77.77,0,0,1,77.86,106Z" transform="translate(0.38 0.38)"/><path class="cls-2" d="M89.56,97.47V96.14a.73.73,0,0,1,.22-.53.72.72,0,0,1,.53-.23h3.15a.72.72,0,0,1,.53.23.73.73,0,0,1,.22.53v10a.77.77,0,0,1-.22.54.75.75,0,0,1-.53.22.73.73,0,0,1-.52-.22.76.76,0,0,1-.21-.54V98.61a.4.4,0,0,0-.11-.27.36.36,0,0,0-.26-.11h-2a.71.71,0,0,1-.53-.22A.77.77,0,0,1,89.56,97.47Z" transform="translate(0.38 0.38)"/><path class="cls-2" d="M96.06,97.47V96.14a.75.75,0,0,1,.74-.76H105a.75.75,0,0,1,.74.76v10a.76.76,0,0,1-.21.54.75.75,0,0,1-.53.22.71.71,0,0,1-.52-.22.76.76,0,0,1-.21-.54V98.61a.4.4,0,0,0-.11-.27.39.39,0,0,0-.27-.11H96.8a.71.71,0,0,1-.53-.22A.76.76,0,0,1,96.06,97.47Z" transform="translate(0.38 0.38)"/><path class="cls-2" d="M107.56,106V104.7a.77.77,0,0,1,.22-.54.71.71,0,0,1,.53-.22h.56a.38.38,0,0,0,.37-.38v-5a.38.38,0,0,0-.37-.38h-.19a.71.71,0,0,1-.53-.22.76.76,0,0,1-.21-.54V96.14a.75.75,0,0,1,.74-.76h9.1a.7.7,0,0,1,.53.23.69.69,0,0,1,.22.53v10a.75.75,0,1,1-1.49,0V98.61a.4.4,0,0,0-.11-.27.36.36,0,0,0-.26-.11H111.1a.38.38,0,0,0-.37.38V106a.73.73,0,0,1-.22.54.7.7,0,0,1-.52.23h-1.68a.72.72,0,0,1-.53-.23A.77.77,0,0,1,107.56,106Z" transform="translate(0.38 0.38)"/><path class="cls-2" d="M127.8,106V104.7a.77.77,0,0,1,.22-.54.71.71,0,0,1,.53-.22h.56a.38.38,0,0,0,.37-.38v-5a.38.38,0,0,0-.37-.38h-.19a.71.71,0,0,1-.53-.22.76.76,0,0,1-.21-.54V96.14a.75.75,0,0,1,.74-.76H138a.7.7,0,0,1,.53.23.69.69,0,0,1,.22.53v10a.75.75,0,1,1-1.49,0V98.61a.38.38,0,0,0-.37-.38h-5.57a.36.36,0,0,0-.26.11.4.4,0,0,0-.11.27V106a.73.73,0,0,1-.22.54.7.7,0,0,1-.52.23h-1.68a.72.72,0,0,1-.53-.23A.77.77,0,0,1,127.8,106Z" transform="translate(0.38 0.38)"/><path class="cls-2" d="M140.62,106V104.7a.73.73,0,0,1,.22-.54.69.69,0,0,1,.52-.22h3.35a.36.36,0,0,0,.26-.11.4.4,0,0,0,.11-.27v-5a.4.4,0,0,0-.11-.27.36.36,0,0,0-.26-.11h-2.23A.71.71,0,0,1,142,98a.77.77,0,0,1-.22-.54V96.14a.73.73,0,0,1,.22-.53.72.72,0,0,1,.53-.23h3.34a.72.72,0,0,1,.53.23.73.73,0,0,1,.22.53V106a.77.77,0,0,1-.22.54.72.72,0,0,1-.53.23h-4.46a.7.7,0,0,1-.52-.23A.73.73,0,0,1,140.62,106Z" transform="translate(0.38 0.38)"/><path class="cls-2" d="M148.42,106V104.7a.76.76,0,0,1,.21-.54.73.73,0,0,1,.53-.22h7.25a.36.36,0,0,0,.26-.11.4.4,0,0,0,.11-.27v-5a.4.4,0,0,0-.11-.27.36.36,0,0,0-.26-.11h-7.25a.73.73,0,0,1-.53-.22.76.76,0,0,1-.21-.54V96.14a.72.72,0,0,1,.21-.53.74.74,0,0,1,.53-.23h8.36a.72.72,0,0,1,.53.23.73.73,0,0,1,.22.53V106a.77.77,0,0,1-.22.54.72.72,0,0,1-.53.23h-8.36a.74.74,0,0,1-.53-.23A.76.76,0,0,1,148.42,106Z" transform="translate(0.38 0.38)"/><path class="cls-2" d="M160.12,97.47V96.14a.75.75,0,0,1,.74-.76h8.73a.75.75,0,0,1,.74.76v10a.76.76,0,0,1-.21.54.75.75,0,0,1-.53.22.75.75,0,0,1-.74-.76V98.61a.4.4,0,0,0-.11-.27.36.36,0,0,0-.26-.11h-7.62a.71.71,0,0,1-.53-.22A.76.76,0,0,1,160.12,97.47Zm0,8.55v-4.17a.76.76,0,0,1,.21-.54.71.71,0,0,1,.53-.22.69.69,0,0,1,.52.22.73.73,0,0,1,.22.54v1.71a.4.4,0,0,0,.11.27.36.36,0,0,0,.26.11h.57a.69.69,0,0,1,.52.22.73.73,0,0,1,.22.54V106a.73.73,0,0,1-.22.54.7.7,0,0,1-.52.23h-1.68a.72.72,0,0,1-.53-.23A.76.76,0,0,1,160.12,106Z" transform="translate(0.38 0.38)"/><path class="cls-2" d="M172.19,101.37v-.57a.76.76,0,0,1,.21-.54.71.71,0,0,1,.53-.22h2.36a.23.23,0,0,0,.2-.14.23.23,0,0,0,0-.25l-1.12-2a.78.78,0,0,1,.27-1l.12-.08,0,0s0,0,0,0l.1-.06a.73.73,0,0,1,1,.27L177.06,99a.21.21,0,0,0,.22.1.23.23,0,0,0,.22-.12l1.22-2.17a.77.77,0,0,1,.46-.35.73.73,0,0,1,.56.08l.12.08s0,0,0,0,0,0,0,0a.24.24,0,0,1,.09.06.76.76,0,0,1,.27,1l-1.15,2a.22.22,0,0,0,0,.22.19.19,0,0,0,.17.12h2.41a.69.69,0,0,1,.53.22.73.73,0,0,1,.22.54v.57a.75.75,0,0,1-.75.76h-2.33a.23.23,0,0,0-.21.14.25.25,0,0,0,0,.26l1.11,2a.72.72,0,0,1,.08.57.74.74,0,0,1-.35.46l-.11.08s0,0,0,0,.05,0,0,0l-.09,0a.69.69,0,0,1-.56.08.81.81,0,0,1-.46-.35l-1.23-2.2a.21.21,0,0,0-.21-.11.23.23,0,0,0-.22.11l-1.23,2.2a.76.76,0,0,1-.45.35.69.69,0,0,1-.56-.08l-.12-.07s0,0,0,0,.06,0,0,0l-.09-.06a.73.73,0,0,1-.34-.46.71.71,0,0,1,.07-.57l1.12-2a.23.23,0,0,0,0-.26.27.27,0,0,0-.23-.13h-2.32a.75.75,0,0,1-.53-.22A.76.76,0,0,1,172.19,101.37Z" transform="translate(0.38 0.38)"/><path class="cls-2" d="M46,128.82v-9.88a.69.69,0,0,1,.22-.53.7.7,0,0,1,.53-.23h6.22a1.72,1.72,0,0,1,1.28.54l1.43,1.45a1.86,1.86,0,0,1,.54,1.34v7.31a.73.73,0,0,1-.22.54.69.69,0,0,1-.52.22H46.72a.69.69,0,0,1-.53-.22A.73.73,0,0,1,46,128.82Zm1.49-2.46a.4.4,0,0,0,.11.27.36.36,0,0,0,.26.11h6.5a.39.39,0,0,0,.27-.11.4.4,0,0,0,.11-.27v-2.87a1.89,1.89,0,0,0-.55-1.35l-.54-.57a1.73,1.73,0,0,0-1.29-.54h-4.5a.36.36,0,0,0-.26.11.4.4,0,0,0-.11.27Z" transform="translate(0.38 0.38)"/><path class="cls-2" d="M58,120.27v-1.33a.69.69,0,0,1,.22-.53.7.7,0,0,1,.53-.23h3.15a.72.72,0,0,1,.53.23.73.73,0,0,1,.22.53v5.13a.77.77,0,0,1-.22.54.71.71,0,0,1-.53.22.69.69,0,0,1-.52-.22.76.76,0,0,1-.21-.54v-2.66a.4.4,0,0,0-.11-.27.36.36,0,0,0-.26-.11H58.79a.69.69,0,0,1-.53-.22A.73.73,0,0,1,58,120.27Z" transform="translate(0.38 0.38)"/><path class="cls-2" d="M64.54,128.82V127.5a.76.76,0,0,1,.21-.54.71.71,0,0,1,.53-.22h1.3a.37.37,0,0,0,.27-.11.4.4,0,0,0,.11-.27v-5a.4.4,0,0,0-.11-.27.37.37,0,0,0-.27-.11h-1.3a.71.71,0,0,1-.53-.22.76.76,0,0,1-.21-.54v-1.33a.75.75,0,0,1,.74-.76H67.7a.68.68,0,0,1,.52.23.72.72,0,0,1,.21.53v7.42a.4.4,0,0,0,.11.27.39.39,0,0,0,.27.11h4.27a.36.36,0,0,0,.26-.11.4.4,0,0,0,.11-.27v-5a.4.4,0,0,0-.11-.27.36.36,0,0,0-.26-.11h-1.3a.73.73,0,0,1-.53-.22.76.76,0,0,1-.21-.54v-1.33a.72.72,0,0,1,.21-.53.74.74,0,0,1,.53-.23h2.41a.72.72,0,0,1,.53.23.73.73,0,0,1,.22.53v9.88a.77.77,0,0,1-.22.54.71.71,0,0,1-.53.22H65.28a.71.71,0,0,1-.53-.22A.76.76,0,0,1,64.54,128.82Z" transform="translate(0.38 0.38)"/><path class="cls-2" d="M76.79,120.27v-1.33a.75.75,0,0,1,.74-.76h3.16a.77.77,0,0,1,.74.76v10a.75.75,0,0,1-.74.76.75.75,0,0,1-.53-.22.76.76,0,0,1-.21-.54v-7.51a.38.38,0,0,0-.37-.38h-2a.71.71,0,0,1-.53-.22A.76.76,0,0,1,76.79,120.27Z" transform="translate(0.38 0.38)"/><path class="cls-2" d="M83.28,128.82V127.5a.73.73,0,0,1,.22-.54.69.69,0,0,1,.52-.22H90.9a.36.36,0,0,0,.26-.11.4.4,0,0,0,.11-.27v-5a.4.4,0,0,0-.11-.27.36.36,0,0,0-.26-.11H84a.69.69,0,0,1-.52-.22.73.73,0,0,1-.22-.54v-1.33a.77.77,0,0,1,.74-.76h8a.72.72,0,0,1,.53.23.73.73,0,0,1,.22.53v7.42a.39.39,0,0,0,.1.27.39.39,0,0,0,.27.11h.55a.71.71,0,0,1,.53.22.76.76,0,0,1,.21.54v1.32a.76.76,0,0,1-.21.54.71.71,0,0,1-.53.22H84a.69.69,0,0,1-.52-.22A.73.73,0,0,1,83.28,128.82Z" transform="translate(0.38 0.38)"/><path class="cls-2" d="M96.27,120.27v-1.33a.73.73,0,0,1,.22-.53.72.72,0,0,1,.53-.23h3.15a.72.72,0,0,1,.53.23.69.69,0,0,1,.22.53v5.13a.73.73,0,0,1-.22.54.71.71,0,0,1-.53.22.69.69,0,0,1-.52-.22.76.76,0,0,1-.21-.54v-2.66a.4.4,0,0,0-.11-.27.36.36,0,0,0-.26-.11H97a.71.71,0,0,1-.53-.22A.77.77,0,0,1,96.27,120.27Z" transform="translate(0.38 0.38)"/><path class="cls-2" d="M102.77,120.27v-1.33a.77.77,0,0,1,.74-.76h8.54a.72.72,0,0,1,.53.23.69.69,0,0,1,.22.53v9.88a.73.73,0,0,1-.22.54.71.71,0,0,1-.53.22h-4.82a.71.71,0,0,1-.53-.22.76.76,0,0,1-.21-.54V127.5a.76.76,0,0,1,.21-.54.71.71,0,0,1,.53-.22H111a.36.36,0,0,0,.26-.11.39.39,0,0,0,.1-.27v-5a.39.39,0,0,0-.1-.27A.36.36,0,0,0,111,121h-7.44a.69.69,0,0,1-.52-.22A.73.73,0,0,1,102.77,120.27Zm0,12.36v-8.9a.73.73,0,0,1,.22-.54.69.69,0,0,1,.52-.22h.19a.71.71,0,0,1,.53.22.77.77,0,0,1,.22.54v8.9a.77.77,0,0,1-.22.54.75.75,0,0,1-.53.22h-.19a.75.75,0,0,1-.74-.76Z" transform="translate(0.38 0.38)"/><path class="cls-2" d="M122.07,128.82V127.5a.77.77,0,0,1,.22-.54.71.71,0,0,1,.53-.22h1.3a.39.39,0,0,0,.27-.11.4.4,0,0,0,.11-.27v-5a.4.4,0,0,0-.11-.27.39.39,0,0,0-.27-.11h-1.3a.71.71,0,0,1-.53-.22.77.77,0,0,1-.22-.54v-1.33a.73.73,0,0,1,.22-.53.72.72,0,0,1,.53-.23h2.42a.68.68,0,0,1,.52.23.72.72,0,0,1,.21.53v7.42a.4.4,0,0,0,.11.27.39.39,0,0,0,.27.11h4.27a.36.36,0,0,0,.26-.11.4.4,0,0,0,.11-.27v-5a.4.4,0,0,0-.11-.27.36.36,0,0,0-.26-.11h-1.3a.71.71,0,0,1-.53-.22.76.76,0,0,1-.21-.54v-1.33a.75.75,0,0,1,.74-.76h2.41a.72.72,0,0,1,.53.23.73.73,0,0,1,.22.53v9.88a.77.77,0,0,1-.22.54.71.71,0,0,1-.53.22h-8.91a.71.71,0,0,1-.53-.22A.77.77,0,0,1,122.07,128.82Z" transform="translate(0.38 0.38)"/><path class="cls-2" d="M134.33,120.27v-1.33a.75.75,0,0,1,.74-.76h3.15a.7.7,0,0,1,.53.23.69.69,0,0,1,.22.53v10a.75.75,0,0,1-.75.76.74.74,0,0,1-.52-.22.76.76,0,0,1-.21-.54v-7.51a.4.4,0,0,0-.11-.27.36.36,0,0,0-.26-.11h-2.05a.71.71,0,0,1-.53-.22A.76.76,0,0,1,134.33,120.27Z" transform="translate(0.38 0.38)"/><path class="cls-2" d="M140.82,120.27v-1.33a.77.77,0,0,1,.74-.76h2.23a.72.72,0,0,1,.53.23.73.73,0,0,1,.22.53v3.27a.34.34,0,0,0,.19.33l2.22,1.25,2.23-1.32a.35.35,0,0,0,.18-.33v-.73a.39.39,0,0,0-.1-.27A.36.36,0,0,0,149,121h-1.12a.69.69,0,0,1-.52-.22.73.73,0,0,1-.22-.54v-1.33a.77.77,0,0,1,.74-.76h2.22a.7.7,0,0,1,.53.23.69.69,0,0,1,.22.53v3.35a1.86,1.86,0,0,1-.17.83,1.47,1.47,0,0,1-.58.58l-1.59,1,2,1.11a.7.7,0,0,1,.36.65v2.4a.73.73,0,0,1-.22.54.69.69,0,0,1-.53.22h-8.17a.69.69,0,0,1-.52-.22.73.73,0,0,1-.22-.54V127.5a.73.73,0,0,1,.22-.54.69.69,0,0,1,.52-.22h5.62c.17,0,.27-.07.3-.19s0-.24-.19-.33l-3.86-2.06a1.42,1.42,0,0,1-.58-.59,1.81,1.81,0,0,1-.17-.82v-1.34a.4.4,0,0,0-.11-.27.36.36,0,0,0-.26-.11h-1.12a.69.69,0,0,1-.52-.22A.73.73,0,0,1,140.82,120.27Z" transform="translate(0.38 0.38)"/><path class="cls-2" d="M152.7,120.27v-1.33a.77.77,0,0,1,.74-.76h3.16a.77.77,0,0,1,.74.76v5.13a.73.73,0,0,1-.22.54.69.69,0,0,1-.52.22.67.67,0,0,1-.52-.22.73.73,0,0,1-.22-.54v-2.66a.38.38,0,0,0-.37-.38h-2.05a.69.69,0,0,1-.52-.22A.73.73,0,0,1,152.7,120.27Z" transform="translate(0.38 0.38)"/><path class="cls-2" d="M159.19,128.82V127.5a.73.73,0,0,1,.22-.54.69.69,0,0,1,.52-.22h6.88a.36.36,0,0,0,.26-.11.4.4,0,0,0,.11-.27v-5a.4.4,0,0,0-.11-.27.36.36,0,0,0-.26-.11h-6.88a.69.69,0,0,1-.52-.22.73.73,0,0,1-.22-.54v-1.33a.77.77,0,0,1,.74-.76h8a.72.72,0,0,1,.53.23.69.69,0,0,1,.22.53v7.42a.38.38,0,0,0,.37.38h.55a.71.71,0,0,1,.53.22.77.77,0,0,1,.22.54v1.32a.77.77,0,0,1-.22.54.71.71,0,0,1-.53.22h-9.66a.69.69,0,0,1-.52-.22A.73.73,0,0,1,159.19,128.82Z" transform="translate(0.38 0.38)"/><path class="cls-2" d="M172.19,124.17v-.57a.76.76,0,0,1,.21-.54.75.75,0,0,1,.53-.22h2.36a.23.23,0,0,0,.2-.14.25.25,0,0,0,0-.25l-1.13-2a.78.78,0,0,1,.27-1l.12-.08,0,0s0,0,0,0l.09-.06a.73.73,0,0,1,1,.27l1.23,2.19a.21.21,0,0,0,.22.1.23.23,0,0,0,.22-.12l1.22-2.17a.77.77,0,0,1,.46-.35.73.73,0,0,1,.56.08l.12.08s0,0,0,0,0,0,0,0a.24.24,0,0,1,.09.06.74.74,0,0,1,.35.46.78.78,0,0,1-.07.58l-1.16,2a.22.22,0,0,0,0,.22.19.19,0,0,0,.17.12h2.42a.75.75,0,0,1,.74.76v.57a.75.75,0,0,1-.74.76h-2.34a.23.23,0,0,0-.21.14.25.25,0,0,0,0,.26l1.12,2a.75.75,0,0,1,.07.57.74.74,0,0,1-.35.46l-.11.08s0,0,0,0,.05,0,0,0l-.09.05a.69.69,0,0,1-.56.08.81.81,0,0,1-.46-.35l-1.23-2.2a.21.21,0,0,0-.21-.11.23.23,0,0,0-.22.11l-1.23,2.2a.76.76,0,0,1-.45.35.69.69,0,0,1-.56-.08l-.12-.07,0,0c.05,0,.06,0,0,0l-.09-.06a.73.73,0,0,1-.34-.46.71.71,0,0,1,.07-.57l1.13-2a.25.25,0,0,0,0-.26.27.27,0,0,0-.23-.13h-2.32a.75.75,0,0,1-.53-.22A.76.76,0,0,1,172.19,124.17Z" transform="translate(0.38 0.38)"/><path class="cls-2" d="M73.39,151.62V150.3a.77.77,0,0,1,.22-.54.71.71,0,0,1,.53-.22h.56a.38.38,0,0,0,.37-.38v-4.95a.38.38,0,0,0-.37-.38h-.19a.71.71,0,0,1-.53-.22.76.76,0,0,1-.21-.54v-1.32a.73.73,0,0,1,.21-.54.72.72,0,0,1,.53-.23h9.1a.77.77,0,0,1,.75.77v10a.75.75,0,1,1-1.49,0v-7.51a.4.4,0,0,0-.11-.27.36.36,0,0,0-.26-.11H76.93a.36.36,0,0,0-.26.11.4.4,0,0,0-.11.27v7.41a.73.73,0,0,1-.22.54.7.7,0,0,1-.52.23H74.14a.72.72,0,0,1-.53-.23A.77.77,0,0,1,73.39,151.62Z" transform="translate(0.38 0.38)"/><path class="cls-2" d="M86.21,143.07v-1.32A.77.77,0,0,1,87,141h3.16a.77.77,0,0,1,.74.77v10a.75.75,0,0,1-.74.76.71.71,0,0,1-.52-.22.73.73,0,0,1-.22-.54v-7.51a.38.38,0,0,0-.37-.38H87a.69.69,0,0,1-.52-.22A.73.73,0,0,1,86.21,143.07Z" transform="translate(0.38 0.38)"/><path class="cls-2" d="M92.7,143.07v-1.32a.77.77,0,0,1,.74-.77h8.18a.77.77,0,0,1,.74.77v10a.75.75,0,0,1-.74.76.75.75,0,0,1-.53-.22.76.76,0,0,1-.21-.54v-7.51a.4.4,0,0,0-.11-.27.36.36,0,0,0-.26-.11H93.44a.69.69,0,0,1-.52-.22A.73.73,0,0,1,92.7,143.07Z" transform="translate(0.38 0.38)"/><path class="cls-2" d="M104.21,143.07v-1.32A.77.77,0,0,1,105,141h3.16a.77.77,0,0,1,.74.77v10a.75.75,0,0,1-.74.76.71.71,0,0,1-.52-.22.73.73,0,0,1-.22-.54v-7.51a.38.38,0,0,0-.37-.38h-2a.69.69,0,0,1-.52-.22A.73.73,0,0,1,104.21,143.07Z" transform="translate(0.38 0.38)"/><path class="cls-2" d="M110.7,143.07v-1.32a.77.77,0,0,1,.75-.77h9.1a.75.75,0,0,1,.74.77v1.32a.76.76,0,0,1-.21.54.73.73,0,0,1-.53.22h-.74a.39.39,0,0,0-.27.11.4.4,0,0,0-.11.27v7.51a.76.76,0,0,1-.21.54.75.75,0,0,1-.53.22.75.75,0,0,1-.74-.76v-7.51a.4.4,0,0,0-.11-.27.36.36,0,0,0-.26-.11h-6.13a.69.69,0,0,1-.53-.22A.73.73,0,0,1,110.7,143.07Z" transform="translate(0.38 0.38)"/><path class="cls-2" d="M123.14,143.07v-1.32a.74.74,0,0,1,.22-.54.72.72,0,0,1,.53-.23h2.23a.77.77,0,0,1,.74.77V145a.33.33,0,0,0,.19.33l2.22,1.25,2.23-1.32a.36.36,0,0,0,.19-.32v-.74a.4.4,0,0,0-.11-.27.35.35,0,0,0-.26-.11h-1.11a.71.71,0,0,1-.53-.22.77.77,0,0,1-.22-.54v-1.32a.74.74,0,0,1,.22-.54.72.72,0,0,1,.53-.23h2.22a.75.75,0,0,1,.74.77v3.34a1.86,1.86,0,0,1-.16.83,1.5,1.5,0,0,1-.59.58l-1.59,1,2,1.11a.7.7,0,0,1,.36.65v2.4a.76.76,0,0,1-.21.54.74.74,0,0,1-.53.23h-8.17a.72.72,0,0,1-.53-.23.76.76,0,0,1-.21-.54V150.3a.76.76,0,0,1,.21-.54.71.71,0,0,1,.53-.22h5.61c.18,0,.28-.07.31-.19a.31.31,0,0,0-.2-.33L126.13,147a1.45,1.45,0,0,1-.59-.59,1.81,1.81,0,0,1-.17-.82v-1.34a.39.39,0,0,0-.1-.27.39.39,0,0,0-.27-.11h-1.11a.71.71,0,0,1-.53-.22A.77.77,0,0,1,123.14,143.07Z" transform="translate(0.38 0.38)"/><path class="cls-2" d="M135,143.07v-1.32a.74.74,0,0,1,.22-.54.72.72,0,0,1,.53-.23h3.15a.72.72,0,0,1,.53.23.74.74,0,0,1,.22.54v10a.77.77,0,0,1-.22.54.75.75,0,0,1-.53.22.73.73,0,0,1-.52-.22.76.76,0,0,1-.21-.54v-7.51a.4.4,0,0,0-.11-.27.36.36,0,0,0-.26-.11h-2a.71.71,0,0,1-.53-.22A.77.77,0,0,1,135,143.07Z" transform="translate(0.38 0.38)"/><path class="cls-2" d="M141.52,143.07v-1.32a.73.73,0,0,1,.21-.54.72.72,0,0,1,.53-.23h8.17a.72.72,0,0,1,.53.23.73.73,0,0,1,.21.54v10a.76.76,0,0,1-.21.54.75.75,0,0,1-.53.22.71.71,0,0,1-.52-.22.76.76,0,0,1-.21-.54v-7.51a.4.4,0,0,0-.11-.27.39.39,0,0,0-.27-.11h-7.06a.71.71,0,0,1-.53-.22A.76.76,0,0,1,141.52,143.07Z" transform="translate(0.38 0.38)"/><path class="cls-2" d="M153,151.62V150.3a.77.77,0,0,1,.22-.54.71.71,0,0,1,.53-.22H161a.39.39,0,0,0,.27-.11.39.39,0,0,0,.1-.27v-4.95a.39.39,0,0,0-.1-.27.39.39,0,0,0-.27-.11h-6.13a.36.36,0,0,0-.26.11.4.4,0,0,0-.11.27v.69a.4.4,0,0,0,.11.27.36.36,0,0,0,.26.11h.57a.69.69,0,0,1,.52.22.73.73,0,0,1,.22.54v1.33a.75.75,0,0,1-.74.76h-1.68a.75.75,0,0,1-.53-.22.77.77,0,0,1-.22-.54v-5.62a.74.74,0,0,1,.22-.54.72.72,0,0,1,.53-.23h8.36a.77.77,0,0,1,.74.77v9.87a.73.73,0,0,1-.22.54.7.7,0,0,1-.52.23h-8.36a.72.72,0,0,1-.53-.23A.77.77,0,0,1,153,151.62Z" transform="translate(0.38 0.38)"/><path class="cls-2" d="M164.72,143.07v-7a.73.73,0,0,1,.22-.54.69.69,0,0,1,.53-.22H167a.71.71,0,0,1,.53.22.77.77,0,0,1,.22.54v1.33a.77.77,0,0,1-.22.53.72.72,0,0,1-.53.23h-.37a.33.33,0,0,0-.26.11.37.37,0,0,0-.11.27v2.08a.37.37,0,0,0,.11.27.33.33,0,0,0,.26.11h7.62a.77.77,0,0,1,.74.77v9.87a.73.73,0,0,1-.22.54.7.7,0,0,1-.52.23h-4.09a.72.72,0,0,1-.53-.23.76.76,0,0,1-.21-.54V150.3a.76.76,0,0,1,.21-.54.71.71,0,0,1,.53-.22h3a.39.39,0,0,0,.27-.11.4.4,0,0,0,.11-.27v-4.95a.4.4,0,0,0-.11-.27.39.39,0,0,0-.27-.11h-7.61a.69.69,0,0,1-.53-.22A.73.73,0,0,1,164.72,143.07Z" transform="translate(0.38 0.38)"/><path class="cls-2" d="M13.41,174.42v-9.88a.77.77,0,0,1,.74-.76h6.22a1.73,1.73,0,0,1,1.29.54l1.42,1.45a1.83,1.83,0,0,1,.55,1.34v7.31a.73.73,0,0,1-.22.54.7.7,0,0,1-.53.23H14.15a.7.7,0,0,1-.52-.23A.73.73,0,0,1,13.41,174.42ZM14.9,172a.39.39,0,0,0,.1.27.39.39,0,0,0,.27.11h6.5a.36.36,0,0,0,.26-.11.4.4,0,0,0,.11-.27v-2.87a1.84,1.84,0,0,0-.54-1.34l-.55-.58a1.73,1.73,0,0,0-1.29-.54H15.27a.39.39,0,0,0-.27.11.39.39,0,0,0-.1.27Z" transform="translate(0.38 0.38)"/><path class="cls-2" d="M25.48,165.87v-1.33a.77.77,0,0,1,.74-.76h3.16a.77.77,0,0,1,.74.76v5.13a.73.73,0,0,1-.22.54.7.7,0,0,1-.52.23.68.68,0,0,1-.52-.23.73.73,0,0,1-.22-.54V167a.38.38,0,0,0-.37-.38H26.22a.69.69,0,0,1-.52-.22A.73.73,0,0,1,25.48,165.87Z" transform="translate(0.38 0.38)"/><path class="cls-2" d="M32,174.42v-9.88a.77.77,0,0,1,.74-.76H34.2a.72.72,0,0,1,.53.23.73.73,0,0,1,.22.53v1.33a.77.77,0,0,1-.22.54.71.71,0,0,1-.53.22h-.37a.38.38,0,0,0-.37.38v5a.38.38,0,0,0,.37.38h7.06a.36.36,0,0,0,.26-.11.4.4,0,0,0,.11-.27v-5a.4.4,0,0,0-.11-.27.36.36,0,0,0-.26-.11h-.7a2.21,2.21,0,0,0-1.29.4l-1.46.78c-.21.13-.39.15-.52.05a.6.6,0,0,1-.21-.52v-1.47a1.41,1.41,0,0,1,.13-.66,1,1,0,0,1,.42-.43l1-.6a2.61,2.61,0,0,1,1.3-.4H42a.75.75,0,0,1,.74.76v9.88a.76.76,0,0,1-.21.54.72.72,0,0,1-.53.23H32.71a.7.7,0,0,1-.52-.23A.73.73,0,0,1,32,174.42Z" transform="translate(0.38 0.38)"/><path class="cls-2" d="M44.59,174.42V173.1a.77.77,0,0,1,.22-.54.71.71,0,0,1,.53-.22h3.34a.39.39,0,0,0,.27-.11.4.4,0,0,0,.11-.27v-5a.4.4,0,0,0-.11-.27.39.39,0,0,0-.27-.11H46.45a.69.69,0,0,1-.52-.22.73.73,0,0,1-.22-.54v-1.33a.77.77,0,0,1,.74-.76H49.8a.74.74,0,0,1,.53.23.72.72,0,0,1,.21.53v9.88a.76.76,0,0,1-.21.54.74.74,0,0,1-.53.23H45.34a.72.72,0,0,1-.53-.23A.77.77,0,0,1,44.59,174.42Z" transform="translate(0.38 0.38)"/><path class="cls-2" d="M52.39,165.87v-1.33a.73.73,0,0,1,.22-.53.72.72,0,0,1,.53-.23h3.15a.72.72,0,0,1,.53.23.73.73,0,0,1,.22.53v10a.77.77,0,0,1-.22.54.75.75,0,0,1-.53.22.73.73,0,0,1-.52-.22.76.76,0,0,1-.21-.54V167a.4.4,0,0,0-.11-.27.36.36,0,0,0-.26-.11h-2a.71.71,0,0,1-.53-.22A.77.77,0,0,1,52.39,165.87Z" transform="translate(0.38 0.38)"/><path class="cls-2" d="M58.89,165.87v-1.33a.75.75,0,0,1,.74-.76h3.16a.77.77,0,0,1,.74.76v10a.75.75,0,0,1-.74.76.75.75,0,0,1-.53-.22.76.76,0,0,1-.21-.54V167a.4.4,0,0,0-.11-.27.36.36,0,0,0-.26-.11h-2a.71.71,0,0,1-.53-.22A.76.76,0,0,1,58.89,165.87Z" transform="translate(0.38 0.38)"/><path class="cls-2" d="M65.38,165.87v-7a.73.73,0,0,1,.22-.54.69.69,0,0,1,.52-.22h1.49a.73.73,0,0,1,.53.22.76.76,0,0,1,.21.54v1.32a.76.76,0,0,1-.21.54.74.74,0,0,1-.53.23h-.37a.35.35,0,0,0-.27.11.36.36,0,0,0-.1.27v2.08a.36.36,0,0,0,.1.27.35.35,0,0,0,.27.11h7.61a.7.7,0,0,1,.53.23.69.69,0,0,1,.22.53v9.88a.73.73,0,0,1-.22.54.7.7,0,0,1-.53.23H70.77a.7.7,0,0,1-.53-.23.73.73,0,0,1-.22-.54V173.1a.73.73,0,0,1,.22-.54.69.69,0,0,1,.53-.22h3a.38.38,0,0,0,.37-.38v-5a.38.38,0,0,0-.37-.38H66.12a.69.69,0,0,1-.52-.22A.73.73,0,0,1,65.38,165.87Z" transform="translate(0.38 0.38)"/><path class="cls-2" d="M77.45,165.87v-1.33a.77.77,0,0,1,.74-.76h8.17a.72.72,0,0,1,.53.23.73.73,0,0,1,.22.53v10a.77.77,0,0,1-.22.54.75.75,0,0,1-.53.22.73.73,0,0,1-.52-.22.76.76,0,0,1-.21-.54V167a.4.4,0,0,0-.11-.27.36.36,0,0,0-.26-.11H78.19a.69.69,0,0,1-.52-.22A.73.73,0,0,1,77.45,165.87Z" transform="translate(0.38 0.38)"/><path class="cls-2" d="M96.38,174.42v-9.88a.73.73,0,0,1,.22-.53.72.72,0,0,1,.53-.23h6.22a1.73,1.73,0,0,1,1.29.54l1.42,1.45a1.86,1.86,0,0,1,.54,1.34v7.31a.76.76,0,0,1-.21.54.72.72,0,0,1-.53.23H97.13a.72.72,0,0,1-.53-.23A.77.77,0,0,1,96.38,174.42ZM97.87,172a.4.4,0,0,0,.11.27.36.36,0,0,0,.26.11h6.51a.36.36,0,0,0,.26-.11.4.4,0,0,0,.11-.27v-2.87a1.81,1.81,0,0,0-.55-1.34l-.54-.58a1.73,1.73,0,0,0-1.29-.54h-4.5a.36.36,0,0,0-.26.11.4.4,0,0,0-.11.27Z" transform="translate(0.38 0.38)"/><path class="cls-2" d="M108.45,165.87v-1.33a.73.73,0,0,1,.22-.53.72.72,0,0,1,.53-.23h3.15a.72.72,0,0,1,.53.23.73.73,0,0,1,.22.53v5.13a.77.77,0,0,1-.22.54.72.72,0,0,1-.53.23.7.7,0,0,1-.52-.23.76.76,0,0,1-.21-.54V167a.4.4,0,0,0-.11-.27.36.36,0,0,0-.26-.11h-2a.71.71,0,0,1-.53-.22A.77.77,0,0,1,108.45,165.87Z" transform="translate(0.38 0.38)"/><path class="cls-2" d="M115,165.87v-1.33a.75.75,0,0,1,.74-.76h8.17a.75.75,0,0,1,.74.76v10a.76.76,0,0,1-.21.54.75.75,0,0,1-.53.22.73.73,0,0,1-.52-.22.76.76,0,0,1-.21-.54V167a.4.4,0,0,0-.11-.27.37.37,0,0,0-.27-.11h-7.06a.71.71,0,0,1-.53-.22A.76.76,0,0,1,115,165.87Z" transform="translate(0.38 0.38)"/><path class="cls-2" d="M126.45,174.42V173.1a.77.77,0,0,1,.22-.54.71.71,0,0,1,.53-.22h6.87a.38.38,0,0,0,.37-.38v-5a.38.38,0,0,0-.37-.38H127.2a.71.71,0,0,1-.53-.22.77.77,0,0,1-.22-.54v-1.33a.73.73,0,0,1,.22-.53.72.72,0,0,1,.53-.23h8a.77.77,0,0,1,.74.76V172a.4.4,0,0,0,.11.27.36.36,0,0,0,.26.11h.56a.69.69,0,0,1,.52.22.73.73,0,0,1,.22.54v1.32a.73.73,0,0,1-.22.54.7.7,0,0,1-.52.23H127.2a.72.72,0,0,1-.53-.23A.77.77,0,0,1,126.45,174.42Z" transform="translate(0.38 0.38)"/><path class="cls-2" d="M139.45,165.87v-1.33a.77.77,0,0,1,.74-.76h3.16a.74.74,0,0,1,.53.23.72.72,0,0,1,.21.53v5.13a.76.76,0,0,1-.21.54.74.74,0,0,1-.53.23.68.68,0,0,1-.52-.23.77.77,0,0,1-.22-.54V167a.39.39,0,0,0-.1-.27.39.39,0,0,0-.27-.11h-2.05a.69.69,0,0,1-.52-.22A.73.73,0,0,1,139.45,165.87Z" transform="translate(0.38 0.38)"/><path class="cls-2" d="M145.94,174.42v-9.88a.73.73,0,0,1,.22-.53.72.72,0,0,1,.53-.23.73.73,0,0,1,.52.25l5.82,5.55,1.76-1.79a.33.33,0,0,0,.11-.26V167a.38.38,0,0,0-.37-.38h-1.34a.71.71,0,0,1-.53-.22.76.76,0,0,1-.21-.54v-1.33a.75.75,0,0,1,.74-.76h2.45a.77.77,0,0,1,.74.76v3.07a1.55,1.55,0,0,1-.38,1.12l-1.9,1.88,2,1.87a1.09,1.09,0,0,1,.34.86v1.4c0,.36-.17.54-.52.54a.83.83,0,0,1-.55-.26l-7.26-6.85a.36.36,0,0,0-.52,0,.4.4,0,0,0-.11.27V172a.4.4,0,0,0,.11.27.36.36,0,0,0,.26.11h.56a.69.69,0,0,1,.53.22.73.73,0,0,1,.22.54v1.32a.73.73,0,0,1-.22.54.7.7,0,0,1-.53.23h-1.67a.72.72,0,0,1-.53-.23A.77.77,0,0,1,145.94,174.42Z" transform="translate(0.38 0.38)"/><path class="cls-2" d="M158.23,165.87v-7a.73.73,0,0,1,.22-.54.69.69,0,0,1,.52-.22h1.49a.71.71,0,0,1,.53.22.77.77,0,0,1,.22.54v1.32a.77.77,0,0,1-.22.54.72.72,0,0,1-.53.23h-.37a.33.33,0,0,0-.26.11.33.33,0,0,0-.11.27v2.08a.33.33,0,0,0,.11.27.33.33,0,0,0,.26.11h7.62a.77.77,0,0,1,.74.76v9.88a.73.73,0,0,1-.22.54.7.7,0,0,1-.52.23h-4.09a.72.72,0,0,1-.53-.23.77.77,0,0,1-.22-.54V173.1a.77.77,0,0,1,.22-.54.71.71,0,0,1,.53-.22h3A.38.38,0,0,0,167,172v-5a.38.38,0,0,0-.37-.38H159a.69.69,0,0,1-.52-.22A.73.73,0,0,1,158.23,165.87Z" transform="translate(0.38 0.38)"/><path class="cls-2" d="M170.3,165.87v-1.33a.77.77,0,0,1,.74-.76h3.16a.75.75,0,0,1,.74.76v10a.76.76,0,0,1-.21.54.75.75,0,0,1-.53.22.71.71,0,0,1-.52-.22.77.77,0,0,1-.22-.54V167a.39.39,0,0,0-.1-.27.39.39,0,0,0-.27-.11H171a.69.69,0,0,1-.52-.22A.73.73,0,0,1,170.3,165.87Z" transform="translate(0.38 0.38)"/><text x="0.38" y="0.38"/><path class="cls-2" d="M42.15,31.82v-1.4a.81.81,0,0,1,.23-.57.79.79,0,0,1,.56-.23h7.23a.38.38,0,0,0,.28-.12.37.37,0,0,0,.11-.28V24a.37.37,0,0,0-.11-.28.38.38,0,0,0-.28-.12H42.94a.75.75,0,0,1-.56-.23.81.81,0,0,1-.23-.57V21.42a.81.81,0,0,1,.23-.57.75.75,0,0,1,.56-.23h8.41a.73.73,0,0,1,.55.23.81.81,0,0,1,.23.57v7.8a.41.41,0,0,0,.11.28.38.38,0,0,0,.28.12h.58a.79.79,0,0,1,.56.23.8.8,0,0,1,.22.57v1.4a.79.79,0,0,1-.78.8H42.94a.76.76,0,0,1-.56-.24A.77.77,0,0,1,42.15,31.82Z" transform="translate(0.38 0.38)"/><path class="cls-2" d="M56,19.81V18.42a.81.81,0,0,1,.23-.57.77.77,0,0,1,.56-.23h1.75a.75.75,0,0,1,.55.23.77.77,0,0,1,.23.57v3.4a.73.73,0,0,1-.23.56.72.72,0,0,1-.55.24.74.74,0,0,1-.55-.24.77.77,0,0,1-.23-.56V21a.4.4,0,0,0-.12-.29.33.33,0,0,0-.27-.11h-.58a.74.74,0,0,1-.56-.24A.78.78,0,0,1,56,19.81Zm4.89,0V18.42a.81.81,0,0,1,.23-.57.76.76,0,0,1,.55-.23h1.76a.75.75,0,0,1,.55.23.77.77,0,0,1,.23.57v3.4a.73.73,0,0,1-.23.56.75.75,0,0,1-1.1,0,.73.73,0,0,1-.23-.56V21a.4.4,0,0,0-.12-.29.35.35,0,0,0-.27-.11H61.7a.74.74,0,0,1-.55-.24A.78.78,0,0,1,60.92,19.81Z" transform="translate(0.38 0.38)"/><path class="cls-2" d="M66.38,31.82V21.42a.81.81,0,0,1,.23-.57.73.73,0,0,1,.55-.23h1.57a.73.73,0,0,1,.55.23.81.81,0,0,1,.23.57v1.39a.81.81,0,0,1-.23.57.73.73,0,0,1-.55.23h-.39a.38.38,0,0,0-.28.12A.37.37,0,0,0,68,24v5.21a.37.37,0,0,0,.11.28.38.38,0,0,0,.28.12h7.42A.38.38,0,0,0,76,29.5a.37.37,0,0,0,.11-.28V24a.37.37,0,0,0-.11-.28.38.38,0,0,0-.28-.12H75a2.35,2.35,0,0,0-1.36.42l-1.53.82c-.23.14-.41.16-.55,0a.6.6,0,0,1-.22-.54V22.81a1.75,1.75,0,0,1,.13-.7,1.14,1.14,0,0,1,.45-.45L73,21a2.68,2.68,0,0,1,1.37-.42h2.55a.73.73,0,0,1,.55.23.81.81,0,0,1,.23.57v10.4a.77.77,0,0,1-.23.56.74.74,0,0,1-.55.24H67.16a.74.74,0,0,1-.55-.24A.77.77,0,0,1,66.38,31.82Z" transform="translate(0.38 0.38)"/><path class="cls-2" d="M79.67,22.81V21.42a.77.77,0,0,1,.23-.57.71.71,0,0,1,.55-.23H82a.73.73,0,0,1,.55.23.81.81,0,0,1,.23.57v1.2q0,.68.42.24l1.66-1.68a1.81,1.81,0,0,1,1.36-.56H91a.73.73,0,0,1,.55.23.81.81,0,0,1,.23.57v10.4a.77.77,0,0,1-.23.56.74.74,0,0,1-.55.24h-4.5a.72.72,0,0,1-.55-.24.73.73,0,0,1-.23-.56v-1.4a.77.77,0,0,1,.23-.57.75.75,0,0,1,.55-.23h3.32a.38.38,0,0,0,.28-.12.37.37,0,0,0,.11-.28V24a.37.37,0,0,0-.11-.28.38.38,0,0,0-.28-.12H86.61a1.79,1.79,0,0,0-1.36.57l-1.69,1.74A2,2,0,0,0,83,27.33v4.58a.79.79,0,0,1-.23.57.76.76,0,0,1-1.11,0,.79.79,0,0,1-.23-.57V24a.41.41,0,0,0-.11-.28.38.38,0,0,0-.28-.12h-.59a.71.71,0,0,1-.55-.23A.77.77,0,0,1,79.67,22.81Z" transform="translate(0.38 0.38)"/><path class="cls-2" d="M93.74,22.81V15.42a.77.77,0,0,1,.23-.57.75.75,0,0,1,.55-.23h1.57a.76.76,0,0,1,.55.23.81.81,0,0,1,.23.57v1.4a.77.77,0,0,1-.23.56.74.74,0,0,1-.55.24h-.4a.39.39,0,0,0-.27.11.4.4,0,0,0-.12.29v2.2a.38.38,0,0,0,.12.28.36.36,0,0,0,.27.12h8a.75.75,0,0,1,.56.23.81.81,0,0,1,.23.57v10.4a.77.77,0,0,1-.23.56.76.76,0,0,1-.56.24h-4.3a.76.76,0,0,1-.56-.24.77.77,0,0,1-.23-.56v-1.4a.81.81,0,0,1,.23-.57.79.79,0,0,1,.56-.23h3.13a.38.38,0,0,0,.28-.12.41.41,0,0,0,.11-.28V24a.41.41,0,0,0-.11-.28.38.38,0,0,0-.28-.12h-8a.71.71,0,0,1-.55-.23A.77.77,0,0,1,93.74,22.81Z" transform="translate(0.38 0.38)"/><path class="cls-2" d="M114.26,22.81V21.42a.81.81,0,0,1,.23-.57.73.73,0,0,1,.55-.23h9.2a.73.73,0,0,1,.55.23.81.81,0,0,1,.23.57V31.91a.79.79,0,0,1-.23.57.76.76,0,0,1-1.11,0,.79.79,0,0,1-.23-.57V24a.37.37,0,0,0-.11-.28.38.38,0,0,0-.28-.12h-8a.73.73,0,0,1-.55-.23A.81.81,0,0,1,114.26,22.81Zm0,9v-4.4a.77.77,0,0,1,.23-.56.74.74,0,0,1,.55-.24.76.76,0,0,1,.56.24.77.77,0,0,1,.23.56v1.8a.37.37,0,0,0,.11.28.38.38,0,0,0,.28.12h.59a.75.75,0,0,1,.55.23.77.77,0,0,1,.23.57v1.4a.73.73,0,0,1-.23.56.72.72,0,0,1-.55.24H115a.74.74,0,0,1-.55-.24A.77.77,0,0,1,114.26,31.82Z" transform="translate(0.38 0.38)"/><path class="cls-2" d="M127,22.81V21.42a.77.77,0,0,1,.23-.57.71.71,0,0,1,.55-.23h8.6a.71.71,0,0,1,.55.23.77.77,0,0,1,.23.57V31.91a.75.75,0,0,1-.23.57.75.75,0,0,1-1.1,0,.78.78,0,0,1-.22-.57V24a.38.38,0,0,0-.12-.28.36.36,0,0,0-.27-.12h-7.44a.71.71,0,0,1-.55-.23A.77.77,0,0,1,127,22.81Z" transform="translate(0.38 0.38)"/><path class="cls-2" d="M139.08,22.81V21.42a.81.81,0,0,1,.23-.57.73.73,0,0,1,.55-.23h4.31a.73.73,0,0,1,.55.23.81.81,0,0,1,.23.57v1.39a.81.81,0,0,1-.23.57.73.73,0,0,1-.55.23h-.79a.36.36,0,0,0-.27.12A.38.38,0,0,0,143,24v7.9a.75.75,0,0,1-.23.57.72.72,0,0,1-.55.24.74.74,0,0,1-.55-.24.75.75,0,0,1-.23-.57V24a.38.38,0,0,0-.12-.28.34.34,0,0,0-.27-.12h-1.18a.73.73,0,0,1-.55-.23A.81.81,0,0,1,139.08,22.81Z" transform="translate(0.38 0.38)"/><path class="cls-2" d="M146.9,31.82v-1.4a.77.77,0,0,1,.23-.57.75.75,0,0,1,.55-.23h1.37a.41.41,0,0,0,.4-.4V24a.41.41,0,0,0-.4-.4h-1.37a.71.71,0,0,1-.55-.23.77.77,0,0,1-.23-.57V21.42a.77.77,0,0,1,.23-.57.71.71,0,0,1,.55-.23h2.55a.71.71,0,0,1,.55.23.8.8,0,0,1,.22.57v7.8a.38.38,0,0,0,.12.28.36.36,0,0,0,.27.12h4.5a.38.38,0,0,0,.28-.12.41.41,0,0,0,.11-.28V24a.41.41,0,0,0-.11-.28.38.38,0,0,0-.28-.12h-1.37a.73.73,0,0,1-.55-.23.81.81,0,0,1-.23-.57V21.42a.81.81,0,0,1,.23-.57.73.73,0,0,1,.55-.23h2.54a.75.75,0,0,1,.56.23.81.81,0,0,1,.23.57v10.4a.77.77,0,0,1-.23.56.76.76,0,0,1-.56.24h-9.38a.72.72,0,0,1-.55-.24A.73.73,0,0,1,146.9,31.82Z" transform="translate(0.38 0.38)"/><path class="cls-2" d="M15.78,55.82v-1.4a.81.81,0,0,1,.23-.57.77.77,0,0,1,.56-.23h.59a.34.34,0,0,0,.27-.12.38.38,0,0,0,.12-.28V48a.38.38,0,0,0-.12-.28.34.34,0,0,0-.27-.12H17a.75.75,0,0,1-.56-.23.81.81,0,0,1-.23-.57V45.42a.81.81,0,0,1,.23-.57.75.75,0,0,1,.56-.23h9.58a.71.71,0,0,1,.55.23.77.77,0,0,1,.23.57V55.91a.75.75,0,0,1-.23.57.75.75,0,0,1-1.1,0,.75.75,0,0,1-.23-.57V48a.38.38,0,0,0-.12-.28.36.36,0,0,0-.27-.12H19.51a.41.41,0,0,0-.4.4v7.81a.79.79,0,0,1-.78.8H16.57a.74.74,0,0,1-.56-.24A.77.77,0,0,1,15.78,55.82Z" transform="translate(0.38 0.38)"/><path class="cls-2" d="M29.27,46.81V45.42a.81.81,0,0,1,.23-.57.73.73,0,0,1,.55-.23h3.33a.73.73,0,0,1,.55.23.81.81,0,0,1,.23.57V55.91a.79.79,0,0,1-.23.57.74.74,0,0,1-.55.24.72.72,0,0,1-.55-.24.79.79,0,0,1-.23-.57V48a.41.41,0,0,0-.11-.28.38.38,0,0,0-.28-.12H30.05a.73.73,0,0,1-.55-.23A.81.81,0,0,1,29.27,46.81Z" transform="translate(0.38 0.38)"/><path class="cls-2" d="M36.11,46.81V45.42a.8.8,0,0,1,.22-.57.75.75,0,0,1,.56-.23h8.6a.71.71,0,0,1,.55.23.77.77,0,0,1,.23.57V55.91a.75.75,0,0,1-.23.57.75.75,0,0,1-1.1,0,.78.78,0,0,1-.22-.57V48a.41.41,0,0,0-.4-.4H36.89a.75.75,0,0,1-.56-.23A.8.8,0,0,1,36.11,46.81Z" transform="translate(0.38 0.38)"/><path class="cls-2" d="M48.22,46.81V45.42a.77.77,0,0,1,.23-.57.73.73,0,0,1,.55-.23h3.32a.75.75,0,0,1,.56.23.81.81,0,0,1,.23.57V55.91a.79.79,0,0,1-.23.57.76.76,0,0,1-.56.24.74.74,0,0,1-.55-.24.78.78,0,0,1-.22-.57V48a.41.41,0,0,0-.11-.28.38.38,0,0,0-.28-.12H49a.73.73,0,0,1-.55-.23A.77.77,0,0,1,48.22,46.81Z" transform="translate(0.38 0.38)"/><path class="cls-2" d="M55.05,46.81V45.42a.81.81,0,0,1,.23-.57.75.75,0,0,1,.56-.23h9.58a.71.71,0,0,1,.55.23.77.77,0,0,1,.23.57v1.39a.77.77,0,0,1-.23.57.71.71,0,0,1-.55.23h-.78a.38.38,0,0,0-.28.12.37.37,0,0,0-.11.28v7.9a.79.79,0,0,1-.23.57.76.76,0,0,1-.56.24.74.74,0,0,1-.55-.24.79.79,0,0,1-.23-.57V48a.41.41,0,0,0-.11-.28.38.38,0,0,0-.28-.12H55.84a.75.75,0,0,1-.56-.23A.81.81,0,0,1,55.05,46.81Z" transform="translate(0.38 0.38)"/><path class="cls-2" d="M68.15,46.81V45.42a.81.81,0,0,1,.23-.57.73.73,0,0,1,.55-.23h2.35a.71.71,0,0,1,.55.23.77.77,0,0,1,.23.57v3.43a.39.39,0,0,0,.2.36l2.34,1.3L77,49.13a.36.36,0,0,0,.19-.34V48a.37.37,0,0,0-.11-.28.34.34,0,0,0-.27-.12H75.59a.75.75,0,0,1-.56-.23.81.81,0,0,1-.23-.57V45.42a.81.81,0,0,1,.23-.57.75.75,0,0,1,.56-.23h2.33a.73.73,0,0,1,.56.23.81.81,0,0,1,.23.57v3.52a1.87,1.87,0,0,1-.18.87,1.57,1.57,0,0,1-.61.62l-1.67,1,2.08,1.17a.75.75,0,0,1,.38.69v2.53a.77.77,0,0,1-.23.56.74.74,0,0,1-.56.24h-8.6a.74.74,0,0,1-.55-.24.77.77,0,0,1-.23-.56v-1.4a.81.81,0,0,1,.23-.57.76.76,0,0,1,.55-.23h5.91c.19,0,.29-.07.32-.2s0-.25-.2-.35L71.29,50.9a1.58,1.58,0,0,1-.62-.61,2,2,0,0,1-.17-.87V48a.38.38,0,0,0-.12-.28.34.34,0,0,0-.27-.12H68.93a.73.73,0,0,1-.55-.23A.81.81,0,0,1,68.15,46.81Z" transform="translate(0.38 0.38)"/><path class="cls-2" d="M80.66,46.81V45.42a.8.8,0,0,1,.22-.57.75.75,0,0,1,.56-.23h3.32a.71.71,0,0,1,.55.23.77.77,0,0,1,.23.57V55.91a.75.75,0,0,1-.23.57.75.75,0,0,1-1.1,0,.78.78,0,0,1-.22-.57V48a.38.38,0,0,0-.12-.28.36.36,0,0,0-.27-.12H81.44a.75.75,0,0,1-.56-.23A.8.8,0,0,1,80.66,46.81Z" transform="translate(0.38 0.38)"/><path class="cls-2" d="M87.49,46.81V45.42a.81.81,0,0,1,.23-.57.73.73,0,0,1,.55-.23h8.6a.75.75,0,0,1,.56.23.81.81,0,0,1,.23.57V55.91a.79.79,0,0,1-.23.57.76.76,0,0,1-.56.24.7.7,0,0,1-.54-.24.75.75,0,0,1-.23-.57V48a.41.41,0,0,0-.11-.28.38.38,0,0,0-.28-.12H88.27a.73.73,0,0,1-.55-.23A.81.81,0,0,1,87.49,46.81Z" transform="translate(0.38 0.38)"/><path class="cls-2" d="M99.6,55.82v-1.4a.81.81,0,0,1,.23-.57.79.79,0,0,1,.56-.23H108a.38.38,0,0,0,.28-.12.37.37,0,0,0,.11-.28V48a.37.37,0,0,0-.11-.28.38.38,0,0,0-.28-.12h-6.45a.38.38,0,0,0-.28.12.41.41,0,0,0-.11.28v.73a.41.41,0,0,0,.11.28.38.38,0,0,0,.28.12h.59a.79.79,0,0,1,.56.23.8.8,0,0,1,.22.57v1.39a.78.78,0,0,1-.22.57.76.76,0,0,1-.56.24h-1.76a.76.76,0,0,1-.56-.24.79.79,0,0,1-.23-.57V45.42a.81.81,0,0,1,.23-.57.75.75,0,0,1,.56-.23h8.8a.73.73,0,0,1,.55.23.81.81,0,0,1,.23.57v10.4a.77.77,0,0,1-.23.56.74.74,0,0,1-.55.24h-8.8a.76.76,0,0,1-.56-.24A.77.77,0,0,1,99.6,55.82Z" transform="translate(0.38 0.38)"/><path class="cls-2" d="M119.74,55.82v-1.4a.8.8,0,0,1,.22-.57.79.79,0,0,1,.56-.23h1.37a.38.38,0,0,0,.28-.12.37.37,0,0,0,.11-.28V48a.37.37,0,0,0-.11-.28.38.38,0,0,0-.28-.12h-1.37a.75.75,0,0,1-.56-.23.8.8,0,0,1-.22-.57V45.42a.8.8,0,0,1,.22-.57.75.75,0,0,1,.56-.23h2.55a.73.73,0,0,1,.55.23.8.8,0,0,1,.22.57v7.8a.41.41,0,0,0,.11.28.38.38,0,0,0,.28.12h4.5a.34.34,0,0,0,.27-.12.38.38,0,0,0,.12-.28V48a.38.38,0,0,0-.12-.28.34.34,0,0,0-.27-.12h-1.37a.73.73,0,0,1-.55-.23.81.81,0,0,1-.23-.57V45.42a.81.81,0,0,1,.23-.57.73.73,0,0,1,.55-.23h2.54a.75.75,0,0,1,.56.23.8.8,0,0,1,.22.57v10.4a.79.79,0,0,1-.78.8h-9.38a.79.79,0,0,1-.78-.8Z" transform="translate(0.38 0.38)"/><path class="cls-2" d="M132.63,46.81V45.42a.81.81,0,0,1,.23-.57.73.73,0,0,1,.56-.23h3.32a.73.73,0,0,1,.55.23.81.81,0,0,1,.23.57V55.91a.79.79,0,0,1-.23.57.74.74,0,0,1-.55.24.72.72,0,0,1-.55-.24.79.79,0,0,1-.23-.57V48a.41.41,0,0,0-.11-.28.38.38,0,0,0-.28-.12h-2.15a.73.73,0,0,1-.56-.23A.81.81,0,0,1,132.63,46.81Z" transform="translate(0.38 0.38)"/><path class="cls-2" d="M139.47,46.81V45.42a.77.77,0,0,1,.23-.57.71.71,0,0,1,.55-.23h2.35a.73.73,0,0,1,.55.23.81.81,0,0,1,.23.57v3.43a.39.39,0,0,0,.2.36l2.34,1.3,2.35-1.38a.38.38,0,0,0,.19-.34V48a.41.41,0,0,0-.11-.28.37.37,0,0,0-.27-.12H146.9a.73.73,0,0,1-.55-.23.81.81,0,0,1-.23-.57V45.42a.81.81,0,0,1,.23-.57.73.73,0,0,1,.55-.23h2.34a.71.71,0,0,1,.55.23.77.77,0,0,1,.23.57v3.52a2,2,0,0,1-.17.87,1.6,1.6,0,0,1-.62.62l-1.67,1,2.08,1.17a.74.74,0,0,1,.38.69v2.53a.73.73,0,0,1-.23.56.72.72,0,0,1-.55.24h-8.6a.72.72,0,0,1-.55-.24.73.73,0,0,1-.23-.56v-1.4a.77.77,0,0,1,.23-.57.75.75,0,0,1,.55-.23h5.91c.18,0,.29-.07.32-.2s0-.25-.21-.35l-4-2.17a1.52,1.52,0,0,1-.62-.61,1.87,1.87,0,0,1-.18-.87V48a.37.37,0,0,0-.11-.28.38.38,0,0,0-.28-.12h-1.17a.71.71,0,0,1-.55-.23A.77.77,0,0,1,139.47,46.81Z" transform="translate(0.38 0.38)"/><path class="cls-2" d="M152,46.81V45.42a.81.81,0,0,1,.23-.57.73.73,0,0,1,.55-.23h3.33a.73.73,0,0,1,.55.23.81.81,0,0,1,.23.57v5.4a.77.77,0,0,1-.23.56.74.74,0,0,1-.55.24.72.72,0,0,1-.55-.24.77.77,0,0,1-.23-.56V48a.41.41,0,0,0-.11-.28.38.38,0,0,0-.28-.12h-2.16a.73.73,0,0,1-.55-.23A.81.81,0,0,1,152,46.81Z" transform="translate(0.38 0.38)"/><path class="cls-2" d="M158.81,55.82v-1.4a.77.77,0,0,1,.23-.57.75.75,0,0,1,.55-.23h7.23a.41.41,0,0,0,.4-.4V48a.41.41,0,0,0-.4-.4h-7.23a.71.71,0,0,1-.55-.23.77.77,0,0,1-.23-.57V45.42a.77.77,0,0,1,.23-.57.71.71,0,0,1,.55-.23H168a.73.73,0,0,1,.55.23.81.81,0,0,1,.23.57v7.8a.38.38,0,0,0,.12.28.34.34,0,0,0,.27.12h.58a.77.77,0,0,1,.56.23.81.81,0,0,1,.23.57v1.4a.77.77,0,0,1-.23.56.74.74,0,0,1-.56.24H159.59a.72.72,0,0,1-.55-.24A.73.73,0,0,1,158.81,55.82Z" transform="translate(0.38 0.38)"/><path class="cls-2" d="M172.48,55.82v-1.4a.81.81,0,0,1,.23-.57.79.79,0,0,1,.56-.23h7.23a.38.38,0,0,0,.28-.12.37.37,0,0,0,.11-.28V48a.37.37,0,0,0-.11-.28.38.38,0,0,0-.28-.12h-7.23a.75.75,0,0,1-.56-.23.81.81,0,0,1-.23-.57V45.42a.81.81,0,0,1,.23-.57.75.75,0,0,1,.56-.23h8.41a.73.73,0,0,1,.55.23.81.81,0,0,1,.23.57v7.8a.41.41,0,0,0,.11.28.38.38,0,0,0,.28.12h.58a.79.79,0,0,1,.56.23.81.81,0,0,1,.23.57v1.4a.77.77,0,0,1-.23.56.76.76,0,0,1-.56.24H173.27a.76.76,0,0,1-.56-.24A.77.77,0,0,1,172.48,55.82Z" transform="translate(0.38 0.38)"/></svg>