<svg id="Layer_1" data-name="Layer 1" xmlns="http://www.w3.org/2000/svg" viewBox="0 0 200 200"><defs><style>.cls-1{fill:#192318;}.cls-2{fill:#fff;}</style></defs><rect class="cls-1" width="200" height="200"/><path class="cls-2" d="M39.11,23.57a3,3,0,0,1,.78-1.87h6.76V15.89a2.65,2.65,0,0,0-.68-2,2.45,2.45,0,0,0-1.8-.67H40.38A3,3,0,0,1,41,11.37h3.24a5.94,5.94,0,0,1,2.28.45,4.47,4.47,0,0,1,1.82,1.31,3,3,0,0,1,.73,2v6.6h1.45a3.86,3.86,0,0,1-.63,1.87Z" transform="translate(0 0)"/><path class="cls-2" d="M52.13,13V12h.11a.94.94,0,0,0,.72-.46,2.52,2.52,0,0,0,.22-1.22h-1V8.07h2.43v2.06a3.32,3.32,0,0,1-.6,2.08,2,2,0,0,1-1.71.78Zm3-.05v-1h.11a.91.91,0,0,0,.73-.45,2.68,2.68,0,0,0,.22-1.22H55.09V8h2.43v2.05a3.32,3.32,0,0,1-.6,2.08,2,2,0,0,1-1.7.78Z" transform="translate(0 0)"/><path class="cls-2" d="M59.53,13.24a3,3,0,0,1,.64-2.05h3.1v8.1a2.39,2.39,0,0,0,.34,1.27,2.53,2.53,0,0,0,.88.9,4.82,4.82,0,0,0,1.13.53,4.67,4.67,0,0,0,1.14.25,4.22,4.22,0,0,0,2.78-.86,3.8,3.8,0,0,0,1.34-2.1,6.24,6.24,0,0,0,.22-1.65q0-4.74-3.25-4.74l-.44,0A2.15,2.15,0,0,0,67,13l-.33.12a2.51,2.51,0,0,0-.28.13l-.21.13a.31.31,0,0,0-.12.09l0,0c-.12,0-.17-.35-.17-1a2,2,0,0,1,.17-1A6.9,6.9,0,0,1,68.76,11a5.21,5.21,0,0,1,2,.36,3.76,3.76,0,0,1,1.43.94,5,5,0,0,1,.91,1.44,7.77,7.77,0,0,1,.5,1.77,12.35,12.35,0,0,1,.14,2,7,7,0,0,1-.44,2.57,5.55,5.55,0,0,1-3.54,3.4,9.52,9.52,0,0,1-3.15.48,6.64,6.64,0,0,1-4.3-1.35,4.16,4.16,0,0,1-1.69-3.36v-6Z" transform="translate(0 0)"/><path class="cls-2" d="M75.29,11.2A4.26,4.26,0,0,1,76.58,11a7.44,7.44,0,0,1,1.49.22l1.06,2.88A6,6,0,0,1,80,12.66a4.6,4.6,0,0,1,1.43-1.12,4.26,4.26,0,0,1,2-.48,7.24,7.24,0,0,1,2.8.51,5.17,5.17,0,0,1,2,1.41,6.39,6.39,0,0,1,1.15,2.08,8.31,8.31,0,0,1,.38,2.55,7.69,7.69,0,0,1-.49,2.88,4.73,4.73,0,0,1-1.41,2,6.18,6.18,0,0,1-2.1,1.09,9.18,9.18,0,0,1-2.67.36,7.8,7.8,0,0,1-2-.37,3,3,0,0,1-.09-.75A4.17,4.17,0,0,1,81.52,21a2,2,0,0,0,.57.57,1.47,1.47,0,0,0,.78.16,3.9,3.9,0,0,0,4.24-4.14,6.11,6.11,0,0,0-.21-1.65,4.28,4.28,0,0,0-.65-1.34,2.82,2.82,0,0,0-1.18-.93,4.14,4.14,0,0,0-1.75-.34,3.17,3.17,0,0,0-1.43.32,3.08,3.08,0,0,0-1,.84,5.64,5.64,0,0,0-.72,1.27,9,9,0,0,0-.49,1.52c-.11.53-.22,1.09-.31,1.7s-.18,1.18-.27,1.7l-.24,1.59c-.09.53-.16,1-.21,1.35H75.89l.9-8Z" transform="translate(0 0)"/><path class="cls-2" d="M90.31,8.12a3.35,3.35,0,0,1,.15-1.06,1.75,1.75,0,0,1,.65-.81h3v5.2h8.15v2.1l-4.82,10H94.55l4.8-10.26H91.67V8.12Z" transform="translate(0 0)"/><path class="cls-2" d="M111.76,12.81a2.38,2.38,0,0,1,.52-1.44h5.89a8.94,8.94,0,0,1,3.35.5,3.81,3.81,0,0,1,1.83,1.6,3.05,3.05,0,0,1,.53,1.28,16.78,16.78,0,0,1,.12,2.42v6.4h-2.64v-7.3a3,3,0,0,0-.84-2.2,3,3,0,0,0-2.21-.83H111.8A2,2,0,0,1,111.76,12.81Zm.5,10.76V16.09a5.32,5.32,0,0,1,2.3.77v6.71Z" transform="translate(0 0)"/><path class="cls-2" d="M125.9,12.79a2.26,2.26,0,0,1,.53-1.42h4.08a8.68,8.68,0,0,1,3.35.51,3.85,3.85,0,0,1,1.83,1.6,3,3,0,0,1,.52,1.28,16.4,16.4,0,0,1,.13,2.42v6.39H133.7V16.28a2.88,2.88,0,0,0-3-3H126A1.55,1.55,0,0,1,125.9,12.79Z" transform="translate(0 0)"/><path class="cls-2" d="M138.13,12.93a2.58,2.58,0,0,1,.72-1.56h6.82a1.65,1.65,0,0,1,.08.47,1.9,1.9,0,0,1-.68,1.4,1.25,1.25,0,0,0-.44-.06c-.34,0-.78.3-1.34.91a2.59,2.59,0,0,0-.83,1.56v7.92H140V17.49a6.35,6.35,0,0,1,.41-2.39,5.24,5.24,0,0,1,1.36-1.86h-3.64a1,1,0,0,0,0-.16C138.14,13,138.13,13,138.13,12.93Z" transform="translate(0 0)"/><path class="cls-2" d="M147.42,25.71a3,3,0,0,1,1.15-2.44l3.3-1.08-2.63-9h-1.4a.91.91,0,0,1,0-.21,3.76,3.76,0,0,1,.14-.94,1.25,1.25,0,0,1,.43-.72h3.08l2.88,9.84c.18-.07.38-.15.59-.25a7.67,7.67,0,0,0,.87-.5,5.78,5.78,0,0,0,1-.74,3.77,3.77,0,0,0,.74-1,2.5,2.5,0,0,0,.31-1.2v-4.3h-1.27v-.16a3.55,3.55,0,0,1,.17-1,1.11,1.11,0,0,1,.53-.71h3.22v5.35a7.32,7.32,0,0,1-.76,3.31,5.21,5.21,0,0,1-2.2,2.3l-10,4A2.46,2.46,0,0,1,147.42,25.71Z" transform="translate(0 0)"/><path class="cls-2" d="M11.91,50.46a1.57,1.57,0,0,1,.59-1.24,5.08,5.08,0,0,0,1.26.26,1.37,1.37,0,0,0,1-.41,2.12,2.12,0,0,0,.54-.78V40.84H13.49a2.34,2.34,0,0,1-.06-.56A1.68,1.68,0,0,1,14,39h8.69a3.9,3.9,0,0,1,2.29.61,4.41,4.41,0,0,1,2,3.89v7.7H24.37V43.25a3.35,3.35,0,0,0-.84-1.49,3.05,3.05,0,0,0-1.47-.92H17.91v7.94a2.59,2.59,0,0,1-1.7,2.16,7.16,7.16,0,0,1-2.12.41A6,6,0,0,1,13,51.21a4.8,4.8,0,0,1-1-.31A2.12,2.12,0,0,1,11.91,50.46Z" transform="translate(0 0)"/><path class="cls-2" d="M28.91,40.84v-.2a3.51,3.51,0,0,1,0-.53,1.55,1.55,0,0,1,.15-.49,3.28,3.28,0,0,1,.38-.65h3.4v12.2H30.23V40.84Z" transform="translate(0 0)"/><path class="cls-2" d="M35.2,40.39A2.32,2.32,0,0,1,35.73,39h4.08a8.74,8.74,0,0,1,3.36.51A3.78,3.78,0,0,1,45,41.08a3,3,0,0,1,.52,1.28,15.1,15.1,0,0,1,.13,2.42v6.39H43V43.88a2.88,2.88,0,0,0-3-3h-4.7A1.55,1.55,0,0,1,35.2,40.39Z" transform="translate(0 0)"/><path class="cls-2" d="M47.66,40.84v-.2c0-.23,0-.41,0-.53a2.34,2.34,0,0,1,.15-.49,4,4,0,0,1,.39-.65h3.4v12.2H49V40.84Z" transform="translate(0 0)"/><path class="cls-2" d="M53.76,40.36A2.34,2.34,0,0,1,54.27,39H65a3.12,3.12,0,0,1-.51,1.87H63.23V51.17H60.59V40.84H53.85A1.91,1.91,0,0,1,53.76,40.36Z" transform="translate(0 0)"/><path class="cls-2" d="M67.21,40.28a2.1,2.1,0,0,1,.7-1.31h2.3l4.9,5.62a2,2,0,0,0,.45-.26c.69-.59,1-1.76,1-3.49H75a2,2,0,0,1-.09-.53A1.62,1.62,0,0,1,75.75,39h3.49A19,19,0,0,1,79,42.69a5,5,0,0,1-.88,2.09,4.94,4.94,0,0,1-1.75,1.3l2.44,3.2v1.84H67.41a2.33,2.33,0,0,1-.06-.37,1.42,1.42,0,0,1,.86-1.49h7.26l-6.79-8.42H67.39A1.36,1.36,0,0,1,67.21,40.28Z" transform="translate(0 0)"/><path class="cls-2" d="M81.61,40.84v-.2c0-.23,0-.41,0-.53a2,2,0,0,1,.16-.49,3.28,3.28,0,0,1,.38-.65h3.4v12.2H82.92V40.84Z" transform="translate(0 0)"/><path class="cls-2" d="M87.9,40.39A2.26,2.26,0,0,1,88.43,39h4.08a8.68,8.68,0,0,1,3.35.51,3.85,3.85,0,0,1,1.83,1.6,3,3,0,0,1,.52,1.28,15.1,15.1,0,0,1,.13,2.42v6.39H95.7V43.88a2.88,2.88,0,0,0-3-3H88A1.55,1.55,0,0,1,87.9,40.39Z" transform="translate(0 0)"/><path class="cls-2" d="M101.08,51.17a2.6,2.6,0,0,1,.56-1.87h6A2.8,2.8,0,0,0,109.8,48a5.24,5.24,0,0,0,1-3.27,5.4,5.4,0,0,0-.64-2.78,2.12,2.12,0,0,0-1.94-1.08h-4.51v2.8a1.27,1.27,0,0,0,1.25,1,3.73,3.73,0,0,0,.58,0l.45-.06a1.32,1.32,0,0,1,.16.64,2.15,2.15,0,0,1-.16.74,8.74,8.74,0,0,1-1.61.17,3.09,3.09,0,0,1-3.31-2.34V39h7.82a4.56,4.56,0,0,1,1.56.26,3.38,3.38,0,0,1,1.2.71,5.49,5.49,0,0,1,.85,1,5.17,5.17,0,0,1,.56,1.24,8.9,8.9,0,0,1,.38,2.59,6.88,6.88,0,0,1-.71,3,6.76,6.76,0,0,1-2,2.43,4.51,4.51,0,0,1-2.75,1Z" transform="translate(0 0)"/><path class="cls-2" d="M121.53,53.31a3,3,0,0,1,1.15-2.44l3.3-1.08-2.63-8.95H122a.55.55,0,0,1,0-.21,3.76,3.76,0,0,1,.14-.94,1.25,1.25,0,0,1,.43-.72h3.08l2.88,9.84c.18-.07.38-.15.59-.25a8.6,8.6,0,0,0,.88-.5,6.75,6.75,0,0,0,1-.74,3.74,3.74,0,0,0,.73-1,2.51,2.51,0,0,0,.32-1.2v-4.3h-1.28v-.16a3.26,3.26,0,0,1,.18-1,1.07,1.07,0,0,1,.53-.71h3.21v5.35a7.2,7.2,0,0,1-.76,3.31,5.21,5.21,0,0,1-2.2,2.3l-10,4A2.44,2.44,0,0,1,121.53,53.31Z" transform="translate(0 0)"/><path class="cls-2" d="M136.8,40.84v-.2c0-.23,0-.41,0-.53a2,2,0,0,1,.16-.49,3.28,3.28,0,0,1,.38-.65h3.4v12.2h-2.64V40.84Z" transform="translate(0 0)"/><path class="cls-2" d="M143.53,40.28a2,2,0,0,1,.7-1.31h2.3l4.9,5.62a2,2,0,0,0,.45-.26c.69-.59,1-1.76,1-3.49h-1.64a1.73,1.73,0,0,1-.1-.53,1.64,1.64,0,0,1,.88-1.34h3.5a19,19,0,0,1-.28,3.72,5.14,5.14,0,0,1-.88,2.09,4.94,4.94,0,0,1-1.75,1.3l2.43,3.2v1.84H143.73a2.33,2.33,0,0,1-.06-.37,1.42,1.42,0,0,1,.86-1.49h7.26L145,40.84h-1.29A1.36,1.36,0,0,1,143.53,40.28Z" transform="translate(0 0)"/><path class="cls-2" d="M158.1,40.84a2.74,2.74,0,0,1,.77-2h2.92v5.57l-2.65,1.22V40.84Z" transform="translate(0 0)"/><path class="cls-2" d="M164,51.17a3.07,3.07,0,0,1,.77-1.87h6.77V43.49a2.65,2.65,0,0,0-.68-2,2.46,2.46,0,0,0-1.8-.67h-3.8a3,3,0,0,1,.64-1.87h3.23a6,6,0,0,1,2.29.45,4.53,4.53,0,0,1,1.82,1.31,3,3,0,0,1,.73,2v6.6h1.45a3.86,3.86,0,0,1-.63,1.87Z" transform="translate(0 0)"/><path class="cls-2" d="M176.89,51.17a3.07,3.07,0,0,1,.77-1.87h6.77V43.49a2.65,2.65,0,0,0-.68-2,2.46,2.46,0,0,0-1.8-.67h-3.8a2.91,2.91,0,0,1,.64-1.87H182a6,6,0,0,1,2.29.45,4.53,4.53,0,0,1,1.82,1.31,3,3,0,0,1,.73,2v6.6h1.45a3.86,3.86,0,0,1-.63,1.87Z" transform="translate(0 0)"/><path class="cls-2" d="M38.76,68a2.42,2.42,0,0,1,.5-1.39H50a3.12,3.12,0,0,1-.51,1.87H48.23V78.77H45.59V68.44H38.85A1.91,1.91,0,0,1,38.76,68Z" transform="translate(0 0)"/><path class="cls-2" d="M52.11,68.44a2.7,2.7,0,0,1,.77-2h2.91V72L53.15,73.2V68.44Z" transform="translate(0 0)"/><path class="cls-2" d="M58,68a2.28,2.28,0,0,1,.54-1.42h4.08a8.68,8.68,0,0,1,3.35.51,3.85,3.85,0,0,1,1.83,1.6A3,3,0,0,1,68.33,70a16.4,16.4,0,0,1,.13,2.42v6.39H65.81V71.48a2.88,2.88,0,0,0-3-3H58.06A2,2,0,0,1,58,68Z" transform="translate(0 0)"/><path class="cls-2" d="M70.48,68.44v-.2a3.8,3.8,0,0,1,0-.53,2.34,2.34,0,0,1,.15-.49,3.37,3.37,0,0,1,.39-.65h3.39v12.2H71.79V68.44Z" transform="translate(0 0)"/><path class="cls-2" d="M83.77,78.06a1.54,1.54,0,0,1,.58-1.23,5.47,5.47,0,0,0,1.27.25,1.31,1.31,0,0,0,1-.41,2.16,2.16,0,0,0,.55-.78V68.44H85.34a2.34,2.34,0,0,1-.06-.56,1.68,1.68,0,0,1,.61-1.31h8.69a4,4,0,0,1,2.3.61,4.4,4.4,0,0,1,2,3.89v7.7H96.23V70.85a3.35,3.35,0,0,0-.84-1.49,3.05,3.05,0,0,0-1.47-.92H89.77v7.94a2.61,2.61,0,0,1-1.71,2.16A7.11,7.11,0,0,1,86,79a6,6,0,0,1-1.14-.14,4.61,4.61,0,0,1-1-.31A2.12,2.12,0,0,1,83.77,78.06Z" transform="translate(0 0)"/><path class="cls-2" d="M100.89,68.44a2.84,2.84,0,0,1,.55-1.87h8.71a3.3,3.3,0,0,1,1.7.57,5.51,5.51,0,0,1,1.54,1.38A2.51,2.51,0,0,1,114,70v8.76h-2.64V70.62a2.1,2.1,0,0,0-.76-1.44,2.16,2.16,0,0,0-1.42-.74h-4.62V78.77h-2.65V68.44Z" transform="translate(0 0)"/><path class="cls-2" d="M116.29,68.44a2.7,2.7,0,0,1,.77-2H120V72l-2.65,1.21V68.44Z" transform="translate(0 0)"/><path class="cls-2" d="M122.22,78.06a1.54,1.54,0,0,1,.58-1.23,5.57,5.57,0,0,0,1.27.25,1.31,1.31,0,0,0,1-.41,2,2,0,0,0,.55-.78V68.44h-1.79a2.34,2.34,0,0,1-.06-.56,1.71,1.71,0,0,1,.61-1.31H133a4,4,0,0,1,2.3.61,4.4,4.4,0,0,1,2,3.89v7.7h-2.64V70.85a3.35,3.35,0,0,0-.84-1.49,3.05,3.05,0,0,0-1.47-.92h-4.15v7.94a2.6,2.6,0,0,1-1.71,2.16,7.11,7.11,0,0,1-2.11.41,6,6,0,0,1-1.14-.14,4.61,4.61,0,0,1-1-.31A2.12,2.12,0,0,1,122.22,78.06Z" transform="translate(0 0)"/><path class="cls-2" d="M139.94,78.77a2.6,2.6,0,0,1,.56-1.87h6a2.82,2.82,0,0,0,2.2-1.32,5.23,5.23,0,0,0,1-3.28,5.4,5.4,0,0,0-.64-2.78,2.12,2.12,0,0,0-1.94-1.08h-4.51v2.8a1.27,1.27,0,0,0,1.25,1,3.73,3.73,0,0,0,.58,0l.45-.06a1.33,1.33,0,0,1,.16.65,2.15,2.15,0,0,1-.16.73,8.65,8.65,0,0,1-1.61.17,3.1,3.1,0,0,1-3.31-2.34V66.57h7.82a4.66,4.66,0,0,1,1.57.26,3.43,3.43,0,0,1,1.19.71,5.49,5.49,0,0,1,.85,1,5.17,5.17,0,0,1,.56,1.24,8.9,8.9,0,0,1,.38,2.59,6.89,6.89,0,0,1-2.71,5.43,4.49,4.49,0,0,1-2.75,1Z" transform="translate(0 0)"/><path class="cls-2" d="M153.58,66.27l.53-1.47,2.41.79-.1-2.32H158l-.1,2.32,2.41-.79.52,1.47-2.46.63L160,68.73l-1.4.89-1.33-1.91-1.39,1.91-1.36-.89,1.58-1.83Z" transform="translate(0 0)"/><path class="cls-2" d="M29.11,105.66a1.56,1.56,0,0,1,.58-1.24,5.21,5.21,0,0,0,1.27.26,1.35,1.35,0,0,0,1-.41,2,2,0,0,0,.55-.78V96H30.68a2.34,2.34,0,0,1-.06-.56,1.71,1.71,0,0,1,.61-1.31h8.69a4,4,0,0,1,2.3.61,4.4,4.4,0,0,1,2,3.89v7.7H41.57V98.45A3.35,3.35,0,0,0,40.73,97,3.05,3.05,0,0,0,39.26,96H35.11V104a2.59,2.59,0,0,1-1.7,2.16,7.22,7.22,0,0,1-2.12.41,6,6,0,0,1-1.14-.14,4.8,4.8,0,0,1-1-.31A2.12,2.12,0,0,1,29.11,105.66Z" transform="translate(0 0)"/><path class="cls-2" d="M46.11,96v-.2c0-.23,0-.41,0-.53a2,2,0,0,1,.16-.49,3.28,3.28,0,0,1,.38-.65h3.4v12.2H47.42V96Z" transform="translate(0 0)"/><path class="cls-2" d="M53.29,106.37a2.65,2.65,0,0,1,.56-1.87h6a2.79,2.79,0,0,0,2.2-1.33,5.18,5.18,0,0,0,1-3.27,5.4,5.4,0,0,0-.64-2.78A2.12,2.12,0,0,0,60.44,96H55.93v2.8a1.27,1.27,0,0,0,1.25,1,3.64,3.64,0,0,0,.58,0l.45-.06a1.33,1.33,0,0,1,.16.65,2.15,2.15,0,0,1-.16.73,8.65,8.65,0,0,1-1.61.17,3.1,3.1,0,0,1-3.31-2.34V94.17h7.82a4.66,4.66,0,0,1,1.57.26,3.43,3.43,0,0,1,1.19.71,5.12,5.12,0,0,1,.85,1,4.8,4.8,0,0,1,.56,1.24,8.9,8.9,0,0,1,.38,2.59A6.89,6.89,0,0,1,63,105.41a4.49,4.49,0,0,1-2.75,1Z" transform="translate(0 0)"/><path class="cls-2" d="M67.14,96v-.2c0-.23,0-.41,0-.53a2.34,2.34,0,0,1,.15-.49,4,4,0,0,1,.39-.65h3.39v12.2H68.45V96Z" transform="translate(0 0)"/><path class="cls-2" d="M73.43,95.59A2.26,2.26,0,0,1,74,94.17H78a8.68,8.68,0,0,1,3.35.51,3.85,3.85,0,0,1,1.83,1.6,3,3,0,0,1,.52,1.28,15.1,15.1,0,0,1,.13,2.42v6.39H81.23V99.08a2.88,2.88,0,0,0-3-3h-4.7A1.55,1.55,0,0,1,73.43,95.59Z" transform="translate(0 0)"/><path class="cls-2" d="M85.74,105.66a1.56,1.56,0,0,1,.58-1.24,5.13,5.13,0,0,0,1.27.26,1.35,1.35,0,0,0,1-.41,2.16,2.16,0,0,0,.55-.78V96H87.31a2.34,2.34,0,0,1-.06-.56,1.71,1.71,0,0,1,.61-1.31h8.69a4,4,0,0,1,2.3.61,4.4,4.4,0,0,1,2,3.89v7.7H98.2V98.45A3.35,3.35,0,0,0,97.36,97,3.05,3.05,0,0,0,95.89,96H91.74V104A2.61,2.61,0,0,1,90,106.14a7.11,7.11,0,0,1-2.11.41,6,6,0,0,1-1.14-.14,4.61,4.61,0,0,1-1-.31A2.12,2.12,0,0,1,85.74,105.66Z" transform="translate(0 0)"/><path class="cls-2" d="M109.57,105.66a1.59,1.59,0,0,1,.58-1.24,5.21,5.21,0,0,0,1.27.26,1.39,1.39,0,0,0,1-.41,2.12,2.12,0,0,0,.54-.78V96h-1.79a2.34,2.34,0,0,1-.06-.56,1.71,1.71,0,0,1,.61-1.31h8.69a4,4,0,0,1,2.3.61,4.4,4.4,0,0,1,2,3.89v7.7H122V98.45a3.35,3.35,0,0,0-.84-1.49,3.05,3.05,0,0,0-1.47-.92h-4.15V104a2.59,2.59,0,0,1-1.7,2.16,7.22,7.22,0,0,1-2.12.41,6,6,0,0,1-1.14-.14,4.8,4.8,0,0,1-1-.31A2.12,2.12,0,0,1,109.57,105.66Z" transform="translate(0 0)"/><path class="cls-2" d="M126.57,106.08a2.17,2.17,0,0,1,.76-1.58h3.59V97.33a2.14,2.14,0,0,0-.1-.73.64.64,0,0,0-.3-.39,1.15,1.15,0,0,0-.38-.15l-.46,0h-2.31a2.76,2.76,0,0,1,.8-1.87h2.44a3.17,3.17,0,0,1,2.13.69,2.74,2.74,0,0,1,.82,2.23v9.28h-7s0-.08,0-.15S126.57,106.11,126.57,106.08Z" transform="translate(0 0)"/><path class="cls-2" d="M136.27,106a2.2,2.2,0,0,1,.73-1.54h4.72a3.56,3.56,0,0,0,2.22-1.44,4.52,4.52,0,0,0,.92-2.84,5,5,0,0,0-.34-1.92,3.21,3.21,0,0,0-.93-1.31,4.06,4.06,0,0,0-1.28-.72,4.52,4.52,0,0,0-1.49-.23h-4.47a2,2,0,0,1,0-.49,2.15,2.15,0,0,1,.65-1.38h4.87a5,5,0,0,1,1.55.25,5.71,5.71,0,0,1,1.53.75,6.62,6.62,0,0,1,1.32,1.22,5.87,5.87,0,0,1,.93,1.72,6.63,6.63,0,0,1,.35,2.17,7.18,7.18,0,0,1-.33,2.22,5.49,5.49,0,0,1-.9,1.72,5.79,5.79,0,0,1-2.85,1.92,6.14,6.14,0,0,1-1.65.23H136.3a1.16,1.16,0,0,0,0-.17A.53.53,0,0,1,136.27,106Z" transform="translate(0 0)"/><path class="cls-2" d="M149.34,95.61a2.38,2.38,0,0,1,.52-1.44h5.89a9,9,0,0,1,3.35.5,3.85,3.85,0,0,1,1.83,1.6,2.92,2.92,0,0,1,.52,1.28,16.4,16.4,0,0,1,.13,2.42v6.4h-2.65v-7.3a2.87,2.87,0,0,0-3-3h-6.52A2.9,2.9,0,0,1,149.34,95.61Zm.49,10.76V98.89a5.41,5.41,0,0,1,2.31.77v6.71Z" transform="translate(0 0)"/><path class="cls-2" d="M163.43,93.87,164,92.4l2.4.79-.1-2.32h1.58l-.1,2.32,2.41-.79.52,1.47-2.46.63,1.59,1.83-1.4.89-1.34-1.91-1.38,1.91-1.36-.89,1.57-1.83Z" transform="translate(0 0)"/><path class="cls-2" d="M27.36,134v-12.2h7.69a5.41,5.41,0,0,1,1.83.29,3.61,3.61,0,0,1,1.26.73,3.35,3.35,0,0,1,.75,1,4.49,4.49,0,0,1,.38,1.18,6.33,6.33,0,0,1,.1,1.18V134ZM30,132.1h6.73v-6c0-1.66-.74-2.48-2.22-2.48H30Z" transform="translate(0 0)"/><path class="cls-2" d="M41.78,123.64a2.69,2.69,0,0,1,.76-2h2.92v5.57l-2.64,1.21v-4.76Z" transform="translate(0 0)"/><path class="cls-2" d="M47.47,136.11a3,3,0,0,1,1.15-2.44l3.3-1.08-2.63-9h-1.4a.56.56,0,0,1,0-.21,3.35,3.35,0,0,1,.14-.94,1.2,1.2,0,0,1,.43-.72h3.08l2.87,9.84.6-.25a7.67,7.67,0,0,0,.87-.5,6.75,6.75,0,0,0,1-.74,4,4,0,0,0,.74-1,2.5,2.5,0,0,0,.31-1.2v-4.3H56.6v-.16a3.22,3.22,0,0,1,.17-1,1.11,1.11,0,0,1,.53-.71h3.21v5.35a7.2,7.2,0,0,1-.76,3.31,5.1,5.1,0,0,1-2.2,2.3l-10,4A2.44,2.44,0,0,1,47.47,136.11Z" transform="translate(0 0)"/><path class="cls-2" d="M62.75,123.64v-.2a3.8,3.8,0,0,1,0-.53,1.55,1.55,0,0,1,.15-.49,3.28,3.28,0,0,1,.38-.65h3.4V134H64.06V123.64Z" transform="translate(0 0)"/><path class="cls-2" d="M69.06,134a3,3,0,0,1,.77-1.87H76.6v-5.81a2.62,2.62,0,0,0-.69-2,2.42,2.42,0,0,0-1.79-.67h-3.8a3,3,0,0,1,.63-1.87h3.24a5.94,5.94,0,0,1,2.28.45,4.57,4.57,0,0,1,1.83,1.31,3,3,0,0,1,.73,2v6.6h1.45a3.78,3.78,0,0,1-.64,1.87Z" transform="translate(0 0)"/><path class="cls-2" d="M82.24,123.64a2.69,2.69,0,0,1,.76-2h2.92v5.57l-2.64,1.21v-4.76Z" transform="translate(0 0)"/><path class="cls-2" d="M88.94,123.32a2.2,2.2,0,0,1,.8-1.55H102.1v2.15l-.4.58L97.4,134H94.55l4.57-10.33H89a1.49,1.49,0,0,0,0-.17C89,123.4,88.94,123.35,88.94,123.32Zm.15,15.76v-13a2.16,2.16,0,0,1,.63-.1,2,2,0,0,1,1,.23,7.18,7.18,0,0,1,1,.66v12.19Z" transform="translate(0 0)"/><path class="cls-2" d="M110.83,136.11a3,3,0,0,1,1.15-2.44l3.3-1.08-2.63-9h-1.4a.91.91,0,0,1,0-.21,3.35,3.35,0,0,1,.14-.94,1.2,1.2,0,0,1,.43-.72h3.08l2.87,9.84c.19-.07.39-.15.6-.25a7.67,7.67,0,0,0,.87-.5,6.23,6.23,0,0,0,1-.74,3.77,3.77,0,0,0,.74-1,2.5,2.5,0,0,0,.31-1.2v-4.3H120v-.16a3.55,3.55,0,0,1,.17-1,1.11,1.11,0,0,1,.53-.71h3.22v5.35a7.32,7.32,0,0,1-.76,3.31,5.21,5.21,0,0,1-2.2,2.3l-10,4A2.46,2.46,0,0,1,110.83,136.11Z" transform="translate(0 0)"/><path class="cls-2" d="M126.11,123.64v-.2a3.8,3.8,0,0,1,0-.53,2.34,2.34,0,0,1,.15-.49,3.37,3.37,0,0,1,.39-.65h3.39V134h-2.64V123.64Z" transform="translate(0 0)"/><path class="cls-2" d="M132.84,123.08a2.07,2.07,0,0,1,.69-1.31h2.31l4.9,5.62a2.57,2.57,0,0,0,.45-.26c.69-.59,1-1.76,1-3.49h-1.65a2,2,0,0,1-.09-.53,1.62,1.62,0,0,1,.88-1.34h3.5a18.86,18.86,0,0,1-.29,3.72,5,5,0,0,1-.87,2.09,4.89,4.89,0,0,1-1.76,1.3l2.44,3.2v1.84H133a2.33,2.33,0,0,1-.06-.37,1.42,1.42,0,0,1,.85-1.49h7.27l-6.8-8.42H133A1.47,1.47,0,0,1,132.84,123.08Z" transform="translate(0 0)"/><path class="cls-2" d="M147.41,123.64a2.69,2.69,0,0,1,.76-2h2.92v5.57l-2.64,1.21v-4.76Z" transform="translate(0 0)"/><path class="cls-2" d="M153.34,134a3,3,0,0,1,.77-1.87h6.77v-5.81a2.62,2.62,0,0,0-.69-2,2.42,2.42,0,0,0-1.79-.67h-3.8a3,3,0,0,1,.63-1.87h3.24a5.94,5.94,0,0,1,2.28.45,4.57,4.57,0,0,1,1.83,1.31,3,3,0,0,1,.73,2v6.6h1.45a3.78,3.78,0,0,1-.64,1.87Z" transform="translate(0 0)"/><path class="cls-2" d="M166.13,121.47l.54-1.47,2.4.79-.1-2.32h1.58l-.1,2.32,2.4-.79.52,1.47-2.45.63,1.59,1.83-1.4.89-1.34-1.91-1.38,1.91-1.36-.89,1.57-1.83Z" transform="translate(0 0)"/><path class="cls-2" d="M42.79,160.86a1.58,1.58,0,0,1,.58-1.24,5.13,5.13,0,0,0,1.27.26,1.31,1.31,0,0,0,1-.41,2.16,2.16,0,0,0,.55-.78v-7.45H44.36a2.34,2.34,0,0,1-.06-.56,1.68,1.68,0,0,1,.61-1.31H53.6a4,4,0,0,1,2.3.61,4.4,4.4,0,0,1,2,3.89v7.7H55.25v-7.92a3.35,3.35,0,0,0-.84-1.49,3.05,3.05,0,0,0-1.47-.92H48.79v7.94a2.61,2.61,0,0,1-1.71,2.16,7.11,7.11,0,0,1-2.11.41,6,6,0,0,1-1.14-.14,4.61,4.61,0,0,1-1-.31A2.12,2.12,0,0,1,42.79,160.86Z" transform="translate(0 0)"/><path class="cls-2" d="M59.79,151.24V151a3.8,3.8,0,0,1,0-.53A2.34,2.34,0,0,1,60,150a3.37,3.37,0,0,1,.39-.65h3.39v12.2H61.1V151.24Z" transform="translate(0 0)"/><path class="cls-2" d="M66.07,150.79a2.28,2.28,0,0,1,.54-1.42h4.08a8.68,8.68,0,0,1,3.35.51,3.85,3.85,0,0,1,1.83,1.6,3.09,3.09,0,0,1,.52,1.28,16.78,16.78,0,0,1,.12,2.42v6.39H73.87v-7.29a2.88,2.88,0,0,0-3-3H66.12A2,2,0,0,1,66.07,150.79Z" transform="translate(0 0)"/><path class="cls-2" d="M78.54,151.24V151a3.8,3.8,0,0,1,0-.53,1.55,1.55,0,0,1,.15-.49,3.28,3.28,0,0,1,.38-.65h3.4v12.2H79.85V151.24Z" transform="translate(0 0)"/><path class="cls-2" d="M84.64,150.76a2.33,2.33,0,0,1,.5-1.39H95.83a3.19,3.19,0,0,1-.5,1.87H94.11v10.33H91.47V151.24H84.72A2.34,2.34,0,0,1,84.64,150.76Z" transform="translate(0 0)"/><path class="cls-2" d="M98.09,150.68a2.07,2.07,0,0,1,.69-1.31h2.31L106,155a2.09,2.09,0,0,0,.44-.26c.7-.59,1-1.76,1-3.49h-1.65a2,2,0,0,1-.09-.53,1.62,1.62,0,0,1,.88-1.34h3.5a18.86,18.86,0,0,1-.29,3.72,4.17,4.17,0,0,1-2.63,3.39l2.44,3.2v1.84H98.29a2.33,2.33,0,0,1-.06-.37,1.41,1.41,0,0,1,.85-1.49h7.27l-6.8-8.42H98.26A1.47,1.47,0,0,1,98.09,150.68Z" transform="translate(0 0)"/><path class="cls-2" d="M112.49,151.24V151a3.8,3.8,0,0,1,0-.53,1.55,1.55,0,0,1,.15-.49,3.85,3.85,0,0,1,.38-.65h3.4v12.2H113.8V151.24Z" transform="translate(0 0)"/><path class="cls-2" d="M118.77,150.79a2.32,2.32,0,0,1,.53-1.42h4.08a8.71,8.71,0,0,1,3.36.51,3.85,3.85,0,0,1,1.83,1.6,3.09,3.09,0,0,1,.52,1.28,16.78,16.78,0,0,1,.12,2.42v6.39h-2.64v-7.29a2.88,2.88,0,0,0-3-3h-4.7A2,2,0,0,1,118.77,150.79Z" transform="translate(0 0)"/><path class="cls-2" d="M132,161.57a2.65,2.65,0,0,1,.56-1.87h6a2.83,2.83,0,0,0,2.21-1.32,5.29,5.29,0,0,0,1-3.28,5.4,5.4,0,0,0-.65-2.78,2.1,2.1,0,0,0-1.93-1.08h-4.52V154a1.28,1.28,0,0,0,1.26,1,3.63,3.63,0,0,0,.57,0l.46-.06a1.45,1.45,0,0,1,.16.65,2.42,2.42,0,0,1-.16.73,8.76,8.76,0,0,1-1.62.17,3.1,3.1,0,0,1-3.31-2.34v-4.77h7.82a4.62,4.62,0,0,1,1.57.26,3.57,3.57,0,0,1,1.2.71,5.43,5.43,0,0,1,.84,1,4.8,4.8,0,0,1,.56,1.24,9.08,9.08,0,0,1,.29,1.31,7.8,7.8,0,0,1,.1,1.28,6.75,6.75,0,0,1-.72,3,6.58,6.58,0,0,1-2,2.43,4.49,4.49,0,0,1-2.75,1Z" transform="translate(0 0)"/><path class="cls-2" d="M144.92,146.12a3.07,3.07,0,0,1,.16-1.06,1.67,1.67,0,0,1,.64-.81h3v5.2h8.14v2.1l-4.82,10h-2.88l4.8-10.26h-7.67v-5.19Z" transform="translate(0 0)"/><path class="cls-2" d="M12.13,189.17V177h7.69a5.41,5.41,0,0,1,1.83.29,3.46,3.46,0,0,1,1.26.73,3.35,3.35,0,0,1,.75,1,5,5,0,0,1,.39,1.17,7.54,7.54,0,0,1,.1,1.19v7.77Zm2.64-1.87H21.5v-6c0-1.66-.74-2.48-2.22-2.48H14.77Z" transform="translate(0 0)"/><path class="cls-2" d="M26.55,178.84a2.74,2.74,0,0,1,.77-2h2.91v5.57l-2.64,1.22v-4.76Z" transform="translate(0 0)"/><path class="cls-2" d="M32.68,178.84a3,3,0,0,1,.63-2.05h3.1v8.1a2.39,2.39,0,0,0,.34,1.27,2.56,2.56,0,0,0,.89.9,4.58,4.58,0,0,0,1.12.53,4.74,4.74,0,0,0,1.15.25,4.27,4.27,0,0,0,2.77-.86,3.75,3.75,0,0,0,1.34-2.1,6.25,6.25,0,0,0,.23-1.65c0-3.16-1.09-4.74-3.25-4.74a3.4,3.4,0,0,0-.45,0,2.15,2.15,0,0,0-.4.09l-.33.12a2.51,2.51,0,0,0-.28.13l-.21.13-.12.09-.05,0c-.11,0-.17-.36-.17-1a2.17,2.17,0,0,1,.17-1,6.9,6.9,0,0,1,2.74-.53,5.5,5.5,0,0,1,2,.35,3.85,3.85,0,0,1,1.42.95,5,5,0,0,1,.91,1.44,7.29,7.29,0,0,1,.5,1.77,12.3,12.3,0,0,1,.15,2,7,7,0,0,1-.45,2.57,5.74,5.74,0,0,1-1.3,2,5.93,5.93,0,0,1-2.24,1.36,9.46,9.46,0,0,1-3.14.48,6.65,6.65,0,0,1-4.31-1.35,4.15,4.15,0,0,1-1.68-3.36v-6Z" transform="translate(0 0)"/><path class="cls-2" d="M48.39,188.88a2.2,2.2,0,0,1,.75-1.58h3.6v-7.17a2.14,2.14,0,0,0-.1-.73.72.72,0,0,0-.3-.39,1.24,1.24,0,0,0-.38-.15l-.46,0H49.18A2.77,2.77,0,0,1,50,177h2.44a3.21,3.21,0,0,1,2.13.69,2.74,2.74,0,0,1,.82,2.23v9.28h-7a1,1,0,0,0,0-.15A.45.45,0,0,1,48.39,188.88Z" transform="translate(0 0)"/><path class="cls-2" d="M57.62,178.84v-.2a3.51,3.51,0,0,1,0-.53,1.55,1.55,0,0,1,.15-.49,3.28,3.28,0,0,1,.38-.65h3.4v12.2H58.94V178.84Z" transform="translate(0 0)"/><path class="cls-2" d="M64.08,178.84v-.2a3.51,3.51,0,0,1,0-.53,1.55,1.55,0,0,1,.15-.49,3.28,3.28,0,0,1,.38-.65H68v12.2H65.4V178.84Z" transform="translate(0 0)"/><path class="cls-2" d="M69.66,173.71a3.05,3.05,0,0,1,.16-1.05,1.73,1.73,0,0,1,.64-.81h3v5.2H81.6v2.1l-4.82,10H73.9l4.8-10.26H71v-5.2Z" transform="translate(0 0)"/><path class="cls-2" d="M83.59,178.39a2.32,2.32,0,0,1,.53-1.42H88.2a8.74,8.74,0,0,1,3.36.51,3.78,3.78,0,0,1,1.82,1.6,3.11,3.11,0,0,1,.53,1.28,16.78,16.78,0,0,1,.12,2.42v6.39H91.39v-7.29a2.88,2.88,0,0,0-3-3h-4.7A2,2,0,0,1,83.59,178.39Z" transform="translate(0 0)"/><path class="cls-2" d="M103.83,189.17V177h7.68a5.42,5.42,0,0,1,1.84.29,3.46,3.46,0,0,1,1.26.73,3.35,3.35,0,0,1,.75,1,4.54,4.54,0,0,1,.38,1.17,6.51,6.51,0,0,1,.1,1.19v7.77Zm2.64-1.87h6.73v-6c0-1.66-.74-2.48-2.22-2.48h-4.51Z" transform="translate(0 0)"/><path class="cls-2" d="M118.25,178.84a2.73,2.73,0,0,1,.76-2h2.92v5.57l-2.64,1.22v-4.76Z" transform="translate(0 0)"/><path class="cls-2" d="M124.15,178.39a2.32,2.32,0,0,1,.53-1.42h4.08a8.68,8.68,0,0,1,3.35.51,3.81,3.81,0,0,1,1.83,1.6,3,3,0,0,1,.52,1.28,15.1,15.1,0,0,1,.13,2.42v6.39H132v-7.29a2.88,2.88,0,0,0-3-3h-4.7A1.55,1.55,0,0,1,124.15,178.39Z" transform="translate(0 0)"/><path class="cls-2" d="M136.46,189.17a3.07,3.07,0,0,1,.77-1.87H144v-5.81a2.65,2.65,0,0,0-.68-2,2.46,2.46,0,0,0-1.8-.67h-3.79a3,3,0,0,1,.63-1.87h3.23a6,6,0,0,1,2.29.45,4.53,4.53,0,0,1,1.82,1.31,3,3,0,0,1,.73,2v6.6h1.45a3.86,3.86,0,0,1-.63,1.87Z" transform="translate(0 0)"/><path class="cls-2" d="M149.64,178.84a2.74,2.74,0,0,1,.77-2h2.91v5.57l-2.64,1.22v-4.76Z" transform="translate(0 0)"/><path class="cls-2" d="M156,176.81h3.39a65.54,65.54,0,0,1,5,5.55c.87-.36,1.3-1.39,1.3-3.11v-.41h-1.13a3.21,3.21,0,0,1,.61-2h3.15c0,.12,0,.33,0,.62v.68a13,13,0,0,1-.08,1.48,10.38,10.38,0,0,1-.33,1.48,4.85,4.85,0,0,1-.79,1.53,5.83,5.83,0,0,1-1.4,1.3,41.79,41.79,0,0,1,3.71,5.27h-3a48.28,48.28,0,0,0-5.48-6.9,5.21,5.21,0,0,0-1.81,2.2,6.64,6.64,0,0,0-.69,2.83h.92a2.81,2.81,0,0,1,.26,1.34,4.39,4.39,0,0,1,0,.53H156a21.9,21.9,0,0,1,.1-2.23,15.76,15.76,0,0,1,.28-1.77,7.75,7.75,0,0,1,.45-1.41,8.34,8.34,0,0,1,.56-1.09,5.23,5.23,0,0,1,.68-.86,9,9,0,0,1,.72-.7c.22-.18.48-.38.8-.61A41.73,41.73,0,0,0,156,176.81Z" transform="translate(0 0)"/><path class="cls-2" d="M170.06,173.71a3.05,3.05,0,0,1,.16-1.05,1.73,1.73,0,0,1,.64-.81h3v5.2H182v2.1l-4.82,10H174.3l4.8-10.26h-7.67v-5.2Z" transform="translate(0 0)"/><path class="cls-2" d="M184.16,178.84v-.2a3.51,3.51,0,0,1,0-.53,1.55,1.55,0,0,1,.15-.49,3.28,3.28,0,0,1,.38-.65h3.4v12.2h-2.64V178.84Z" transform="translate(0 0)"/></svg>