<svg id="Layer_1" data-name="Layer 1" xmlns="http://www.w3.org/2000/svg" viewBox="0 0 200 200"><defs><style>.cls-1{fill:#192318;}.cls-2{fill:#fff;}</style></defs><rect class="cls-1" width="200" height="200"/><path class="cls-2" d="M20.62,76.28a3.15,3.15,0,0,1,.68-1.88H29a11.49,11.49,0,0,1,4.37.65,5,5,0,0,1,2.39,2.08,3.94,3.94,0,0,1,.68,1.67A21.08,21.08,0,0,1,36.58,82v8.35H33.14V80.78a3.76,3.76,0,0,0-4-4h-8.5A3.21,3.21,0,0,1,20.62,76.28Zm.65,14V80.55a6.94,6.94,0,0,1,3,1v8.75Z" transform="translate(0 0)"/><path class="cls-2" d="M39.35,74.18a5.43,5.43,0,0,1,1.68-.3,9.66,9.66,0,0,1,1.94.3l1.38,3.75a8,8,0,0,1,1.14-1.86,6.06,6.06,0,0,1,1.87-1.46A5.6,5.6,0,0,1,50,74a9.45,9.45,0,0,1,3.64.66,6.72,6.72,0,0,1,2.59,1.85,8,8,0,0,1,1.49,2.7,10.47,10.47,0,0,1,.51,3.33,10.3,10.3,0,0,1-.64,3.77,6.11,6.11,0,0,1-1.84,2.56A7.94,7.94,0,0,1,53,90.28a12.06,12.06,0,0,1-3.48.47,9.93,9.93,0,0,1-2.61-.49,3.59,3.59,0,0,1-.13-1,5.57,5.57,0,0,1,.7-2.41,3.08,3.08,0,0,0,.74.75,2,2,0,0,0,1,.2,5.37,5.37,0,0,0,4.09-1.51,5.42,5.42,0,0,0,1.44-3.89,8.06,8.06,0,0,0-.27-2.15,5.9,5.9,0,0,0-.84-1.75,3.77,3.77,0,0,0-1.55-1.21,5.41,5.41,0,0,0-2.29-.44,4,4,0,0,0-1.86.42A3.83,3.83,0,0,0,46.6,78.4a8,8,0,0,0-.94,1.65A11.82,11.82,0,0,0,45,82c-.15.69-.28,1.43-.41,2.22s-.24,1.53-.34,2.21-.22,1.37-.33,2.07-.2,1.29-.27,1.77H40.13l1.18-10.45Z" transform="translate(0 0)"/><path class="cls-2" d="M60.68,89.87a2.9,2.9,0,0,1,1-2H67.8A4.68,4.68,0,0,0,70.69,86a5.86,5.86,0,0,0,1.2-3.7,6.77,6.77,0,0,0-.44-2.51,4.3,4.3,0,0,0-1.21-1.71,5.37,5.37,0,0,0-1.68-.94,6.11,6.11,0,0,0-1.94-.3H60.8a2.18,2.18,0,0,1-.07-.64,2.79,2.79,0,0,1,.84-1.79h6.36a6.49,6.49,0,0,1,2,.32,7.42,7.42,0,0,1,2,1,7.86,7.86,0,0,1,1.72,1.59,7.26,7.26,0,0,1,1.21,2.24,8.46,8.46,0,0,1,.47,2.84,9.26,9.26,0,0,1-.44,2.89,7,7,0,0,1-1.17,2.24A7.11,7.11,0,0,1,72,89.05a7.21,7.21,0,0,1-2,1,7.76,7.76,0,0,1-2.15.31H60.73c0-.06,0-.13,0-.22A1,1,0,0,1,60.68,89.87Z" transform="translate(0 0)"/><path class="cls-2" d="M77.65,76.83A3.92,3.92,0,0,1,79,74.4h8.62a8.33,8.33,0,0,1,2.79.45,7,7,0,0,1,2.33,1.39,6.2,6.2,0,0,1,1.65,2.55,10.89,10.89,0,0,1,.6,3.77,7.92,7.92,0,0,1-2.3,6.08c-1.54,1.43-3.74,2.15-6.62,2.15A9.55,9.55,0,0,1,83,90.31a6.93,6.93,0,0,1-2.27-1.2,7.59,7.59,0,0,1-1.46-1.65,6.45,6.45,0,0,1-.82-1.74,5.56,5.56,0,0,1-.23-1.56V78l.93-1.19Zm4,7.5a3,3,0,0,0,.31,1.26,5.19,5.19,0,0,0,.86,1.31,4.55,4.55,0,0,0,1.49,1,4.76,4.76,0,0,0,2,.42,5.05,5.05,0,0,0,2.89-.82A4.9,4.9,0,0,0,91,85.43a7.24,7.24,0,0,0,.57-2.92,8.24,8.24,0,0,0-.37-2.6,4.68,4.68,0,0,0-1-1.78,4.44,4.44,0,0,0-1.42-1,4.19,4.19,0,0,0-1.65-.33H81.61Z" transform="translate(0 0)"/><path class="cls-2" d="M105.94,89.38a2,2,0,0,1,.76-1.61,6.82,6.82,0,0,0,1.65.34,1.76,1.76,0,0,0,1.26-.54,2.89,2.89,0,0,0,.71-1V76.83H108a3.13,3.13,0,0,1-.08-.73,2.16,2.16,0,0,1,.8-1.7H120a5.11,5.11,0,0,1,3,.79,5.74,5.74,0,0,1,2.61,5.08v10h-3.45V80a4.47,4.47,0,0,0-1.1-2,4,4,0,0,0-1.92-1.2h-5.41V87.19q-.56,2.36-2.22,2.82a9.36,9.36,0,0,1-2.76.53,7.64,7.64,0,0,1-1.49-.18A5.51,5.51,0,0,1,106,90,3.48,3.48,0,0,1,105.94,89.38Z" transform="translate(0 0)"/><path class="cls-2" d="M128.47,76.1a2.68,2.68,0,0,1,.9-1.7h3l6.39,7.33a3.4,3.4,0,0,0,.58-.34c.91-.77,1.36-2.29,1.36-4.56h-2.14a2.22,2.22,0,0,1-.13-.69,2.12,2.12,0,0,1,1.15-1.74h4.56a24.63,24.63,0,0,1-.37,4.85A6.54,6.54,0,0,1,142.64,82a6.31,6.31,0,0,1-2.29,1.7l3.18,4.17v2.41H128.72a3.48,3.48,0,0,1-.08-.49,1.86,1.86,0,0,1,1.12-1.94h9.48l-8.87-11h-1.68A1.8,1.8,0,0,1,128.47,76.1Z" transform="translate(0 0)"/><path class="cls-2" d="M147,76.25a3,3,0,0,1,.69-1.85H153a11.45,11.45,0,0,1,4.38.66,4.94,4.94,0,0,1,2.38,2.09,3.89,3.89,0,0,1,.68,1.67,21,21,0,0,1,.16,3.16v8.33h-3.44V80.8a3.77,3.77,0,0,0-4-4h-6.13A2.58,2.58,0,0,1,147,76.25Z" transform="translate(0 0)"/><path class="cls-2" d="M163.76,76.28a3.09,3.09,0,0,1,.68-1.88h7.68a11.43,11.43,0,0,1,4.36.65,5,5,0,0,1,2.4,2.08,4.07,4.07,0,0,1,.68,1.67,21.08,21.08,0,0,1,.16,3.16v8.35h-3.45V80.78a3.74,3.74,0,0,0-4-4h-8.5A3.24,3.24,0,0,1,163.76,76.28Zm.64,14V80.55a6.85,6.85,0,0,1,3,1v8.75Z" transform="translate(0 0)"/><path class="cls-2" d="M5.65,125.38a2.05,2.05,0,0,1,.76-1.61,7,7,0,0,0,1.65.34,1.73,1.73,0,0,0,1.26-.54,2.8,2.8,0,0,0,.72-1v-9.73H7.7a3.17,3.17,0,0,1-.07-.73,2.18,2.18,0,0,1,.79-1.7H19.76a5.13,5.13,0,0,1,3,.79,5.75,5.75,0,0,1,2.6,5.08v10H21.91V116a4.58,4.58,0,0,0-1.1-2,4,4,0,0,0-1.92-1.2H13.48v10.36c-.37,1.57-1.12,2.51-2.22,2.82a9.48,9.48,0,0,1-2.76.53A7.56,7.56,0,0,1,7,126.36,5.36,5.36,0,0,1,5.7,126,3.45,3.45,0,0,1,5.65,125.38Z" transform="translate(0 0)"/><path class="cls-2" d="M27.83,112.83v-.26a6.09,6.09,0,0,1,0-.69,2.42,2.42,0,0,1,.19-.64,4.61,4.61,0,0,1,.5-.84H33v15.91H29.54V112.83Z" transform="translate(0 0)"/><path class="cls-2" d="M35.1,106.15a4.09,4.09,0,0,1,.21-1.38,2.16,2.16,0,0,1,.84-1h3.9v6.78H50.68v2.74l-6.29,13.07H40.64l6.26-13.38h-10v-6.78Z" transform="translate(0 0)"/><path class="cls-2" d="M54,112.28a3.09,3.09,0,0,1,.68-1.88h7.68a11.49,11.49,0,0,1,4.37.65,5,5,0,0,1,2.39,2.08,4.07,4.07,0,0,1,.68,1.67,21.08,21.08,0,0,1,.16,3.16v8.35H66.5v-9.53a3.76,3.76,0,0,0-4-4H54A2.45,2.45,0,0,1,54,112.28Zm.65,14v-9.76a6.86,6.86,0,0,1,3,1v8.75Z" transform="translate(0 0)"/><path class="cls-2" d="M72.64,125.93a2.85,2.85,0,0,1,1-2.06h4.69v-9.35a2.79,2.79,0,0,0-.13-1,.91.91,0,0,0-.4-.52,1.34,1.34,0,0,0-.49-.18,3.25,3.25,0,0,0-.6,0h-3a3.58,3.58,0,0,1,1-2.43h3.18a4.21,4.21,0,0,1,2.78.89,3.58,3.58,0,0,1,1.07,2.91v12.11H72.69s0-.1,0-.19A1.12,1.12,0,0,1,72.64,125.93Z" transform="translate(0 0)"/><path class="cls-2" d="M84.76,110.18a5.43,5.43,0,0,1,1.68-.3,9.49,9.49,0,0,1,1.93.3l1.39,3.75a8.32,8.32,0,0,1,1.13-1.86,6.11,6.11,0,0,1,1.88-1.46,5.58,5.58,0,0,1,2.61-.62,9.47,9.47,0,0,1,3.65.66,6.69,6.69,0,0,1,2.58,1.85,7.85,7.85,0,0,1,1.5,2.7,10.47,10.47,0,0,1,.51,3.33,10.08,10.08,0,0,1-.65,3.77,6,6,0,0,1-1.83,2.56,8,8,0,0,1-2.74,1.42,12.08,12.08,0,0,1-3.49.47,9.94,9.94,0,0,1-2.6-.49,3.23,3.23,0,0,1-.13-1,5.44,5.44,0,0,1,.7-2.41,2.91,2.91,0,0,0,.74.75,2,2,0,0,0,1,.2,5.37,5.37,0,0,0,4.09-1.51,5.42,5.42,0,0,0,1.44-3.89,8.06,8.06,0,0,0-.27-2.15,5.69,5.69,0,0,0-.85-1.75,3.68,3.68,0,0,0-1.54-1.21,5.44,5.44,0,0,0-2.29-.44,4,4,0,0,0-1.86.42A3.83,3.83,0,0,0,92,114.4a8,8,0,0,0-.94,1.65,11,11,0,0,0-.64,2c-.15.69-.29,1.43-.41,2.22s-.24,1.53-.34,2.21-.22,1.37-.33,2.07-.2,1.29-.27,1.77H85.53l1.18-10.45Z" transform="translate(0 0)"/><path class="cls-2" d="M115.63,126.31V110.4h10a7,7,0,0,1,2.39.37,4.67,4.67,0,0,1,1.64,1,4.39,4.39,0,0,1,1,1.37,6.45,6.45,0,0,1,.51,1.54,9.43,9.43,0,0,1,.12,1.54v10.14Zm3.45-2.44h8.78v-7.8q0-3.24-2.9-3.24h-5.88Z" transform="translate(0 0)"/><path class="cls-2" d="M134.21,112.83v-.26a5.68,5.68,0,0,1,0-.69,2.42,2.42,0,0,1,.19-.64,4.61,4.61,0,0,1,.5-.84h4.43v15.91h-3.44V112.83Z" transform="translate(0 0)"/><path class="cls-2" d="M142.17,112.21a3,3,0,0,1,.66-1.81h13.95a4.07,4.07,0,0,1-.66,2.43h-1.59v13.48h-3.45V112.83h-8.79A2.41,2.41,0,0,1,142.17,112.21Z" transform="translate(0 0)"/><path class="cls-2" d="M159.59,112.83a3.54,3.54,0,0,1,1-2.64h3.8v7.27L161,119v-6.21Z" transform="translate(0 0)"/><path class="cls-2" d="M168.34,112.41a2.84,2.84,0,0,1,1-2H185.5v2.8L185,114l-5.61,12.35h-3.72l6-13.48H168.38a1,1,0,0,0,0-.22A.83.83,0,0,1,168.34,112.41Zm.2,20.56V116a2.74,2.74,0,0,1,.82-.13,2.78,2.78,0,0,1,1.26.3,9.92,9.92,0,0,1,1.36.87V133Z" transform="translate(0 0)"/><path class="cls-2" d="M188.28,112.83v-.26a6.09,6.09,0,0,1,0-.69,2.51,2.51,0,0,1,.2-.64,4.61,4.61,0,0,1,.5-.84h4.43v15.91H190V112.83Z" transform="translate(0 0)"/></svg>