<svg id="Layer_1" data-name="Layer 1" xmlns="http://www.w3.org/2000/svg" viewBox="0 0 200.75 200.75"><defs><style>.cls-1{fill:#192318;stroke:#fff;stroke-miterlimit:10;stroke-width:0.75px;}.cls-2{fill:#fff;}</style></defs><rect class="cls-1" x="0.38" y="0.38" width="200" height="200"/><path class="cls-2" d="M20.37,76.87V75.13a1,1,0,0,1,.29-.71.94.94,0,0,1,.69-.29h.74a.49.49,0,0,0,.35-.15.5.5,0,0,0,.14-.35V67.12a.5.5,0,0,0-.49-.5h-.25a.94.94,0,0,1-.69-.29,1,1,0,0,1-.29-.71V63.87a1,1,0,0,1,.29-.7.92.92,0,0,1,.69-.3h12a.92.92,0,0,1,.69.3,1,1,0,0,1,.29.7V77a1,1,0,0,1-.29.7.94.94,0,0,1-1.38,0,1,1,0,0,1-.29-.7V67.12a.48.48,0,0,0-.14-.35.47.47,0,0,0-.35-.15H25a.5.5,0,0,0-.48.5v9.75a1,1,0,0,1-.29.71.92.92,0,0,1-.69.3H21.35a.92.92,0,0,1-.69-.3A1,1,0,0,1,20.37,76.87Z" transform="translate(0.38 0.38)"/><path class="cls-2" d="M37.23,65.62V63.87a1,1,0,0,1,.29-.7.92.92,0,0,1,.69-.3H49a.92.92,0,0,1,.69.3,1,1,0,0,1,.29.7V77a1,1,0,0,1-.29.7.94.94,0,0,1-1.38,0A1,1,0,0,1,48,77V67.12a.45.45,0,0,0-.14-.35.47.47,0,0,0-.35-.15H38.21a.94.94,0,0,1-.69-.29A1,1,0,0,1,37.23,65.62Z" transform="translate(0.38 0.38)"/><path class="cls-2" d="M52.37,65.62V63.87a1,1,0,0,1,.29-.7.92.92,0,0,1,.69-.3H57.5a1,1,0,0,1,1,1v6.75a1,1,0,0,1-.28.71.94.94,0,0,1-.7.29.87.87,0,0,1-.68-.29,1,1,0,0,1-.28-.71v-3.5a.45.45,0,0,0-.15-.35.45.45,0,0,0-.34-.15h-2.7a.94.94,0,0,1-.69-.29A1,1,0,0,1,52.37,65.62Z" transform="translate(0.38 0.38)"/><path class="cls-2" d="M60.92,65.62V63.87a1,1,0,0,1,.28-.7.92.92,0,0,1,.69-.3h2.94a.92.92,0,0,1,.69.3,1,1,0,0,1,.29.7v4.3a.46.46,0,0,0,.25.44L69,70.25l2.94-1.74a.45.45,0,0,0,.24-.43v-1a.48.48,0,0,0-.14-.35.45.45,0,0,0-.34-.15H70.21a.94.94,0,0,1-.69-.29,1,1,0,0,1-.29-.71V63.87a1,1,0,0,1,.29-.7.92.92,0,0,1,.69-.3h2.92a.92.92,0,0,1,.7.3,1,1,0,0,1,.28.7v4.41a2.41,2.41,0,0,1-.22,1.09,1.89,1.89,0,0,1-.77.77L71,71.39l2.61,1.47a.93.93,0,0,1,.47.85v3.16a1,1,0,0,1-.28.71.92.92,0,0,1-.7.3H62.38a.92.92,0,0,1-.69-.3,1,1,0,0,1-.28-.71V75.13a1,1,0,0,1,.28-.71.94.94,0,0,1,.69-.29h7.39c.23,0,.36-.09.4-.25s0-.31-.26-.44l-5.07-2.71a2,2,0,0,1-.77-.77,2.47,2.47,0,0,1-.22-1.08V67.12a.48.48,0,0,0-.14-.35.47.47,0,0,0-.35-.15H61.89a.94.94,0,0,1-.69-.29A1,1,0,0,1,60.92,65.62Z" transform="translate(0.38 0.38)"/><path class="cls-2" d="M76.55,76.87V75.13a1,1,0,0,1,.28-.71,1,1,0,0,1,.7-.29h1.71a.47.47,0,0,0,.35-.15.46.46,0,0,0,.14-.35V67.12a.45.45,0,0,0-.14-.35.47.47,0,0,0-.35-.15H77.53a1,1,0,0,1-.7-.29,1,1,0,0,1-.28-.71V63.87a1,1,0,0,1,.28-.7.92.92,0,0,1,.7-.3h3.18a.92.92,0,0,1,.69.3,1,1,0,0,1,.28.7v9.76a.5.5,0,0,0,.14.35.47.47,0,0,0,.35.15h5.62a.45.45,0,0,0,.34-.15.47.47,0,0,0,.15-.35V67.12a.45.45,0,0,0-.15-.35.45.45,0,0,0-.34-.15H86.08a.94.94,0,0,1-.69-.29,1,1,0,0,1-.29-.71V63.87a1,1,0,0,1,.29-.7.92.92,0,0,1,.69-.3h3.17a.92.92,0,0,1,.7.3,1,1,0,0,1,.28.7v13a1,1,0,0,1-.28.71.92.92,0,0,1-.7.3H77.53a.92.92,0,0,1-.7-.3A1,1,0,0,1,76.55,76.87Z" transform="translate(0.38 0.38)"/><path class="cls-2" d="M92.67,65.62V63.87a1,1,0,0,1,1-1H97.8a.92.92,0,0,1,.69.3,1,1,0,0,1,.29.7V77a1,1,0,0,1-.29.7.94.94,0,0,1-1.38,0,1,1,0,0,1-.28-.7V67.12a.48.48,0,0,0-.14-.35.47.47,0,0,0-.35-.15H93.65a1,1,0,0,1-1-1Z" transform="translate(0.38 0.38)"/><path class="cls-2" d="M111,65.62V63.87a1,1,0,0,1,.29-.7.92.92,0,0,1,.69-.3h11.49a.92.92,0,0,1,.69.3.93.93,0,0,1,.29.7V77a.93.93,0,0,1-.29.7.94.94,0,0,1-1.38,0,1,1,0,0,1-.29-.7V67.12a.5.5,0,0,0-.48-.5H112a.94.94,0,0,1-.69-.29A1,1,0,0,1,111,65.62Zm0,11.25V71.38a1,1,0,0,1,.29-.71,1,1,0,0,1,1.38,0,1,1,0,0,1,.29.71v2.25a.5.5,0,0,0,.14.35.47.47,0,0,0,.35.15h.74a.94.94,0,0,1,.69.29,1,1,0,0,1,.29.71v1.74a1,1,0,0,1-.29.71.92.92,0,0,1-.69.3H112a.92.92,0,0,1-.69-.3A1,1,0,0,1,111,76.87Z" transform="translate(0.38 0.38)"/><path class="cls-2" d="M126.87,65.62V63.87a1,1,0,0,1,.28-.7.92.92,0,0,1,.69-.3h11.24a1,1,0,0,1,1,1v13a1,1,0,0,1-.28.71,1,1,0,0,1-.7.3h-6.34a1,1,0,0,1-.7-.3,1,1,0,0,1-.28-.71V75.13a1,1,0,0,1,1-1h4.89A.45.45,0,0,0,138,74a.5.5,0,0,0,.14-.35V67.12a.48.48,0,0,0-.14-.35.45.45,0,0,0-.34-.15h-9.79a.94.94,0,0,1-.69-.29A1,1,0,0,1,126.87,65.62Zm0,16.26V70.17a1,1,0,0,1,.28-.71.94.94,0,0,1,.69-.29h.25a1,1,0,0,1,.7.29,1,1,0,0,1,.28.71V81.88a1,1,0,0,1-.28.71,1,1,0,0,1-.7.29h-.25a.94.94,0,0,1-.69-.29A1,1,0,0,1,126.87,81.88Z" transform="translate(0.38 0.38)"/><path class="cls-2" d="M142.5,65.62V63.87a1,1,0,0,1,.28-.7.92.92,0,0,1,.69-.3h4.16a.92.92,0,0,1,.69.3,1,1,0,0,1,.29.7v6.75a1,1,0,0,1-.29.71,1,1,0,0,1-1.38,0,1,1,0,0,1-.28-.71v-3.5a.48.48,0,0,0-.14-.35.47.47,0,0,0-.35-.15h-2.7a.94.94,0,0,1-.69-.29A1,1,0,0,1,142.5,65.62Z" transform="translate(0.38 0.38)"/><path class="cls-2" d="M151,65.62V63.87a1,1,0,0,1,.29-.7.92.92,0,0,1,.69-.3h10.75a.92.92,0,0,1,.69.3,1,1,0,0,1,.29.7V77a1,1,0,0,1-.29.7.94.94,0,0,1-1.38,0,1,1,0,0,1-.28-.7V67.12a.48.48,0,0,0-.14-.35.47.47,0,0,0-.35-.15H152a.94.94,0,0,1-.69-.29A1,1,0,0,1,151,65.62Z" transform="translate(0.38 0.38)"/><path class="cls-2" d="M166.18,76.87v-13a1,1,0,0,1,.29-.7.92.92,0,0,1,.69-.3h11.49a.92.92,0,0,1,.69.3,1,1,0,0,1,.29.7v8.59a2.38,2.38,0,0,1-.69,1.73l-2.91,3a2.35,2.35,0,0,1-1.73.74h-7.14a.92.92,0,0,1-.69-.3A1,1,0,0,1,166.18,76.87Zm2-3.24a.5.5,0,0,0,.14.35.47.47,0,0,0,.35.15h4.77a2.35,2.35,0,0,0,1.72-.73L177,71.48a2.36,2.36,0,0,0,.68-1.73V67.12a.48.48,0,0,0-.14-.35.47.47,0,0,0-.35-.15h-8.55a.47.47,0,0,0-.35.15.48.48,0,0,0-.14.35Z" transform="translate(0.38 0.38)"/><path class="cls-2" d="M72.18,99.6v6c0,.15-.27,1.54-.42,2.25h-11V98.93a12.29,12.29,0,0,1,.18-2.4,7.6,7.6,0,0,1-1.76-.15l.41-2.23a23.62,23.62,0,0,0,3.37.13H67.9C71.5,94.28,72.18,95.33,72.18,99.6Zm-4.38-3H62.6v9h7.72v-5.4C70.32,97.73,70.05,96.55,67.8,96.55Z" transform="translate(0.38 0.38)"/><path class="cls-2" d="M75.2,95.62V93.87a1,1,0,0,1,.29-.7.92.92,0,0,1,.69-.3h4.15a.92.92,0,0,1,.69.3,1,1,0,0,1,.29.7v6.75a1,1,0,0,1-.29.71.91.91,0,0,1-.69.29.87.87,0,0,1-.68-.29,1,1,0,0,1-.28-.71v-3.5a.45.45,0,0,0-.15-.35.45.45,0,0,0-.34-.15h-2.7a.94.94,0,0,1-.69-.29A1,1,0,0,1,75.2,95.62Z" transform="translate(0.38 0.38)"/><path class="cls-2" d="M83.74,95.62V93.87a1,1,0,0,1,.29-.7.92.92,0,0,1,.69-.3h2a.92.92,0,0,1,.69.3,1,1,0,0,1,.29.7v1.51c0,.56.17.66.52.3l2.08-2.1A2.3,2.3,0,0,1,92,92.87h6a.92.92,0,0,1,.69.3,1,1,0,0,1,.29.7v13a1,1,0,0,1-.29.71.92.92,0,0,1-.69.3H92.3a.92.92,0,0,1-.69-.3,1,1,0,0,1-.29-.71v-1.74a1,1,0,0,1,.29-.71.91.91,0,0,1,.69-.29h4.15a.47.47,0,0,0,.35-.15.5.5,0,0,0,.14-.35V97.12a.48.48,0,0,0-.14-.35.47.47,0,0,0-.35-.15h-4a2.25,2.25,0,0,0-1.7.71L88.61,99.5a2.47,2.47,0,0,0-.71,1.77V107a1,1,0,0,1-.29.7.94.94,0,0,1-1.38,0A1,1,0,0,1,86,107V97.12a.48.48,0,0,0-.14-.35.47.47,0,0,0-.35-.15h-.74a.94.94,0,0,1-.69-.29A1,1,0,0,1,83.74,95.62Z" transform="translate(0.38 0.38)"/><path class="cls-2" d="M101.33,95.62V93.87a1,1,0,0,1,.29-.7.92.92,0,0,1,.69-.3h4.15a1,1,0,0,1,1,1V107a1,1,0,0,1-1,1,.88.88,0,0,1-.68-.3,1,1,0,0,1-.28-.7V97.12a.45.45,0,0,0-.15-.35.45.45,0,0,0-.34-.15h-2.7a.94.94,0,0,1-.69-.29A1,1,0,0,1,101.33,95.62Z" transform="translate(0.38 0.38)"/><path class="cls-2" d="M109.88,95.62V93.87a1,1,0,0,1,.28-.7.92.92,0,0,1,.69-.3h2a.92.92,0,0,1,.69.3,1,1,0,0,1,.29.7v1.51c0,.56.17.66.53.3l2.07-2.1a2.3,2.3,0,0,1,1.71-.71h6a.92.92,0,0,1,.69.3,1,1,0,0,1,.29.7v13a1,1,0,0,1-.29.71.92.92,0,0,1-.69.3h-5.62a.92.92,0,0,1-.69-.3,1,1,0,0,1-.29-.71v-1.74a1,1,0,0,1,.29-.71.91.91,0,0,1,.69-.29h4.15a.47.47,0,0,0,.35-.15.46.46,0,0,0,.14-.35V97.12a.45.45,0,0,0-.14-.35.47.47,0,0,0-.35-.15h-4a2.23,2.23,0,0,0-1.69.71l-2.12,2.17a2.47,2.47,0,0,0-.71,1.77V107a.93.93,0,0,1-.29.7.94.94,0,0,1-1.38,0,1,1,0,0,1-.29-.7V97.12a.45.45,0,0,0-.14-.35.47.47,0,0,0-.35-.15h-.74a.94.94,0,0,1-.69-.29A1,1,0,0,1,109.88,95.62Z" transform="translate(0.38 0.38)"/><path class="cls-2" d="M127.46,95.62V93.87a1,1,0,0,1,.29-.7.92.92,0,0,1,.69-.3h4.15a.92.92,0,0,1,.7.3,1,1,0,0,1,.28.7v6.75a1,1,0,0,1-.28.71.91.91,0,0,1-.7.29.89.89,0,0,1-.68-.29,1,1,0,0,1-.28-.71v-3.5a.5.5,0,0,0-.49-.5h-2.7a.94.94,0,0,1-.69-.29A1,1,0,0,1,127.46,95.62Z" transform="translate(0.38 0.38)"/><path class="cls-2" d="M136,95.62V93.87a1,1,0,0,1,.28-.7.92.92,0,0,1,.7-.3h12a.92.92,0,0,1,.69.3,1,1,0,0,1,.28.7v1.75a1,1,0,0,1-.28.71.94.94,0,0,1-.69.29h-1a.47.47,0,0,0-.35.15.48.48,0,0,0-.14.35V107a1,1,0,0,1-.29.7.94.94,0,0,1-1.38,0,1,1,0,0,1-.29-.7V97.12a.48.48,0,0,0-.14-.35.47.47,0,0,0-.35-.15H137a1,1,0,0,1-.7-.29A1,1,0,0,1,136,95.62Z" transform="translate(0.38 0.38)"/><path class="cls-2" d="M59,137.33a10.55,10.55,0,0,1-4.35.79c-4.64,0-8.14-3-8.14-8.52,0-5.27,3.5-8.85,8.6-8.85a8.72,8.72,0,0,1,3.92.75l-.52,1.78a7.55,7.55,0,0,0-3.32-.7c-3.86,0-6.43,2.52-6.43,7,0,4.12,2.32,6.77,6.33,6.77a8.23,8.23,0,0,0,3.47-.7Z" transform="translate(0.38 0.38)"/><path class="cls-2" d="M64.37,132.58l-1.71,5.3h-2.2L66.06,121h2.57l5.62,16.85H72l-1.76-5.3Zm5.4-1.7L68.16,126c-.37-1.1-.61-2.1-.85-3.08h0c-.25,1-.52,2-.83,3l-1.62,4.88Z" transform="translate(0.38 0.38)"/><path class="cls-2" d="M77.91,122.88h-5V121H85.1v1.85h-5v15H77.91Z" transform="translate(0.38 0.38)"/><path class="cls-2" d="M84,141a36.71,36.71,0,0,0,1.47-6l2.4-.25a31.19,31.19,0,0,1-2.33,6.07Z" transform="translate(0.38 0.38)"/><path class="cls-2" d="M95.7,121h8.87v1.82H97.83v5.6h6.23v1.8H97.83v7.63H95.7Z" transform="translate(0.38 0.38)"/><path class="cls-2" d="M119.11,137.33a10.51,10.51,0,0,1-4.35.79c-4.64,0-8.14-3-8.14-8.52,0-5.27,3.5-8.85,8.61-8.85a8.66,8.66,0,0,1,3.91.75l-.52,1.78a7.55,7.55,0,0,0-3.32-.7c-3.86,0-6.43,2.52-6.43,7,0,4.12,2.32,6.77,6.33,6.77a8.23,8.23,0,0,0,3.47-.7Z" transform="translate(0.38 0.38)"/><path class="cls-2" d="M120.31,141a37.8,37.8,0,0,0,1.46-6l2.4-.25a31.23,31.23,0,0,1-2.32,6.07Z" transform="translate(0.38 0.38)"/><path class="cls-2" d="M138.35,137.33a10.59,10.59,0,0,1-4.35.79c-4.65,0-8.15-3-8.15-8.52,0-5.27,3.5-8.85,8.61-8.85a8.66,8.66,0,0,1,3.91.75l-.51,1.78a7.63,7.63,0,0,0-3.33-.7c-3.86,0-6.43,2.52-6.43,7,0,4.12,2.33,6.77,6.33,6.77a8.31,8.31,0,0,0,3.48-.7Z" transform="translate(0.38 0.38)"/><path class="cls-2" d="M153,137.12a15,15,0,0,1-5.06.93,8.39,8.39,0,0,1-6.16-2.22,8.77,8.77,0,0,1-2.3-6.28c0-5,3.4-8.7,8.93-8.7a10,10,0,0,1,4.1.78L152,123.4a8.38,8.38,0,0,0-3.64-.72c-4,0-6.63,2.55-6.63,6.77s2.52,6.8,6.36,6.8a6.84,6.84,0,0,0,2.84-.45v-5h-3.35V129H153Z" transform="translate(0.38 0.38)"/></svg>