<svg id="Layer_1" data-name="Layer 1" xmlns="http://www.w3.org/2000/svg" viewBox="0 0 200.75 200.75"><defs><style>.cls-1{fill:#192318;stroke:#fff;stroke-miterlimit:10;stroke-width:0.75px;}.cls-2{fill:#fff;}</style></defs><rect class="cls-1" x="0.38" y="0.38" width="200" height="200"/><text x="0.38" y="0.38"/><path class="cls-2" d="M24,93.8v-13a1,1,0,0,1,.29-.71A.91.91,0,0,1,25,79.8h8.18a2.29,2.29,0,0,1,1.7.7l1.87,1.91a2.44,2.44,0,0,1,.72,1.77V93.8a1,1,0,0,1-.29.7.92.92,0,0,1-.69.3H25a.92.92,0,0,1-.69-.3A1,1,0,0,1,24,93.8Zm2-3.25a.48.48,0,0,0,.14.35.47.47,0,0,0,.35.15H35a.47.47,0,0,0,.35-.15.48.48,0,0,0,.14-.35V86.78A2.44,2.44,0,0,0,34.79,85l-.71-.76a2.29,2.29,0,0,0-1.7-.71H26.47a.47.47,0,0,0-.35.15A.52.52,0,0,0,26,84Z" transform="translate(0.38 0.38)"/><path class="cls-2" d="M39.9,82.54V80.8a1,1,0,0,1,.29-.71.91.91,0,0,1,.69-.29H45a.91.91,0,0,1,.69.29.94.94,0,0,1,.29.71v6.75a.93.93,0,0,1-.29.7.92.92,0,0,1-.69.3.88.88,0,0,1-.68-.3,1,1,0,0,1-.28-.7V84a.49.49,0,0,0-.15-.35.45.45,0,0,0-.34-.15h-2.7a.91.91,0,0,1-.69-.29A1,1,0,0,1,39.9,82.54Z" transform="translate(0.38 0.38)"/><path class="cls-2" d="M48.45,93.8V92.05a1,1,0,0,1,.28-.71.94.94,0,0,1,.69-.29h1.72a.47.47,0,0,0,.35-.15.48.48,0,0,0,.14-.35V84a.52.52,0,0,0-.14-.35.47.47,0,0,0-.35-.15H49.42a.91.91,0,0,1-.69-.29,1,1,0,0,1-.28-.71V80.8a1,1,0,0,1,.28-.71.91.91,0,0,1,.69-.29h3.19a.91.91,0,0,1,.69.29,1,1,0,0,1,.28.71v9.75a.45.45,0,0,0,.14.35.47.47,0,0,0,.35.15h5.62a.5.5,0,0,0,.48-.5V84a.47.47,0,0,0-.14-.35.45.45,0,0,0-.34-.15H58a.91.91,0,0,1-.69-.29,1,1,0,0,1-.29-.71V80.8a1,1,0,0,1,.29-.71A.91.91,0,0,1,58,79.8h3.17a.94.94,0,0,1,.7.29,1,1,0,0,1,.28.71v13a1,1,0,0,1-1,1H49.42a.92.92,0,0,1-.69-.3A1,1,0,0,1,48.45,93.8Z" transform="translate(0.38 0.38)"/><path class="cls-2" d="M64.57,82.54V80.8a1,1,0,0,1,.28-.71.91.91,0,0,1,.69-.29H69.7a.91.91,0,0,1,.69.29,1,1,0,0,1,.28.71V93.92a1,1,0,0,1-.28.71,1,1,0,0,1-1.38,0,1,1,0,0,1-.28-.71V84a.52.52,0,0,0-.14-.35.47.47,0,0,0-.35-.15h-2.7a.91.91,0,0,1-.69-.29A1,1,0,0,1,64.57,82.54Z" transform="translate(0.38 0.38)"/><path class="cls-2" d="M73.11,82.54V80.8a1,1,0,0,1,.29-.71.91.91,0,0,1,.69-.29H77a.94.94,0,0,1,.7.29,1,1,0,0,1,.28.71v4.29a.45.45,0,0,0,.25.44l2.93,1.64,2.93-1.73a.46.46,0,0,0,.24-.43V84a.52.52,0,0,0-.14-.35.43.43,0,0,0-.34-.15H82.4a.91.91,0,0,1-.69-.29,1,1,0,0,1-.28-.71V80.8a1,1,0,0,1,.28-.71.91.91,0,0,1,.69-.29h2.93a.91.91,0,0,1,.69.29,1,1,0,0,1,.29.71v4.4a2.52,2.52,0,0,1-.22,1.09,2,2,0,0,1-.77.77l-2.09,1.26,2.6,1.46a.93.93,0,0,1,.48.86V93.8a1,1,0,0,1-.29.7.92.92,0,0,1-.69.3H74.58a1,1,0,0,1-1-1V92.05a1,1,0,0,1,.28-.71,1,1,0,0,1,.7-.29H82c.23,0,.37-.08.4-.25s0-.31-.25-.43L77,87.66a1.89,1.89,0,0,1-.77-.77A2.41,2.41,0,0,1,76,85.8V84a.47.47,0,0,0-.14-.35.45.45,0,0,0-.34-.15H74.09a.91.91,0,0,1-.69-.29A1,1,0,0,1,73.11,82.54Z" transform="translate(0.38 0.38)"/><path class="cls-2" d="M88.74,93.8V92.05a1,1,0,0,1,.29-.71.94.94,0,0,1,.69-.29h9.53a.47.47,0,0,0,.35-.15.48.48,0,0,0,.14-.35V84a.52.52,0,0,0-.14-.35.47.47,0,0,0-.35-.15H91.19a.47.47,0,0,0-.35.15.52.52,0,0,0-.14.35V85a.5.5,0,0,0,.14.35.47.47,0,0,0,.35.15h.74a.91.91,0,0,1,.69.29,1,1,0,0,1,.29.71v1.74a1,1,0,0,1-.29.71.92.92,0,0,1-.69.3H89.72a.92.92,0,0,1-.69-.3,1,1,0,0,1-.29-.71V80.8a1,1,0,0,1,.29-.71.91.91,0,0,1,.69-.29h11a.91.91,0,0,1,.69.29,1,1,0,0,1,.29.71v13a1,1,0,0,1-.29.7.92.92,0,0,1-.69.3h-11a.92.92,0,0,1-.69-.3A1,1,0,0,1,88.74,93.8Z" transform="translate(0.38 0.38)"/><path class="cls-2" d="M104.13,82.54V80.8a1,1,0,0,1,.29-.71.91.91,0,0,1,.69-.29H116.6a.91.91,0,0,1,.69.29.94.94,0,0,1,.29.71V93.92a1,1,0,0,1-1.67.71,1,1,0,0,1-.29-.71V84a.47.47,0,0,0-.14-.35.47.47,0,0,0-.35-.15h-10a.91.91,0,0,1-.69-.29A1,1,0,0,1,104.13,82.54Zm0,11.26V88.3a1,1,0,0,1,.29-.7.94.94,0,0,1,1.38,0,1,1,0,0,1,.29.7v2.25a.48.48,0,0,0,.14.35.47.47,0,0,0,.35.15h.74a.94.94,0,0,1,.69.29,1,1,0,0,1,.29.71V93.8a1,1,0,0,1-.29.7.92.92,0,0,1-.69.3h-2.21a.92.92,0,0,1-.69-.3A1,1,0,0,1,104.13,93.8Z" transform="translate(0.38 0.38)"/><path class="cls-2" d="M129.79,93.8V92.05a1,1,0,0,1,.28-.71,1,1,0,0,1,.7-.29h.74a.45.45,0,0,0,.34-.15.45.45,0,0,0,.15-.35V84a.49.49,0,0,0-.15-.35.45.45,0,0,0-.34-.15h-.26a.91.91,0,0,1-.69-.29,1,1,0,0,1-.28-.71V80.8a1,1,0,0,1,.28-.71.91.91,0,0,1,.69-.29h12a.92.92,0,0,1,.69.29,1,1,0,0,1,.28.71V93.92a1,1,0,0,1-.28.71,1,1,0,0,1-.69.29,1,1,0,0,1-.7-.29,1,1,0,0,1-.28-.71V84a.49.49,0,0,0-.15-.35.45.45,0,0,0-.34-.15h-7.33a.49.49,0,0,0-.35.15A.52.52,0,0,0,134,84V93.8a1,1,0,0,1-1,1h-2.2a.94.94,0,0,1-.7-.3A1,1,0,0,1,129.79,93.8Z" transform="translate(0.38 0.38)"/><path class="cls-2" d="M146.65,93.8V92.05a1,1,0,0,1,.28-.71.94.94,0,0,1,.69-.29H152a.45.45,0,0,0,.34-.15.45.45,0,0,0,.15-.35V84a.49.49,0,0,0-.15-.35.45.45,0,0,0-.34-.15h-2.94a.91.91,0,0,1-.69-.29,1,1,0,0,1-.29-.71V80.8a1,1,0,0,1,.29-.71.91.91,0,0,1,.69-.29h4.41a.91.91,0,0,1,.69.29,1,1,0,0,1,.28.71v13a1,1,0,0,1-.28.7.92.92,0,0,1-.69.3h-5.88a.92.92,0,0,1-.69-.3A1,1,0,0,1,146.65,93.8Z" transform="translate(0.38 0.38)"/><path class="cls-2" d="M156.91,93.8V92.05a1,1,0,0,1,.29-.71.94.94,0,0,1,.69-.29h9.53a.47.47,0,0,0,.35-.15.48.48,0,0,0,.14-.35V84a.52.52,0,0,0-.14-.35.47.47,0,0,0-.35-.15h-9.53a.91.91,0,0,1-.69-.29,1,1,0,0,1-.29-.71V80.8a.94.94,0,0,1,.29-.71.91.91,0,0,1,.69-.29h11a.91.91,0,0,1,.69.29,1,1,0,0,1,.29.71v13a1,1,0,0,1-.29.7.92.92,0,0,1-.69.3h-11a.92.92,0,0,1-.69-.3A.93.93,0,0,1,156.91,93.8Z" transform="translate(0.38 0.38)"/><path class="cls-2" d="M172.3,82.54V80.8a1,1,0,0,1,.29-.71.91.91,0,0,1,.69-.29h11.49a.91.91,0,0,1,.69.29,1,1,0,0,1,.29.71V93.92a1,1,0,0,1-.29.71,1,1,0,0,1-1.38,0,1,1,0,0,1-.29-.71V84a.52.52,0,0,0-.14-.35.47.47,0,0,0-.35-.15h-10a.91.91,0,0,1-.69-.29A1,1,0,0,1,172.3,82.54Zm0,11.26V88.3a1,1,0,0,1,.29-.7.94.94,0,0,1,1.38,0,1,1,0,0,1,.29.7v2.25a.48.48,0,0,0,.14.35.47.47,0,0,0,.35.15h.74a.94.94,0,0,1,.69.29,1,1,0,0,1,.29.71V93.8a1,1,0,0,1-.29.7.92.92,0,0,1-.69.3h-2.21a.92.92,0,0,1-.69-.3A1,1,0,0,1,172.3,93.8Z" transform="translate(0.38 0.38)"/><path class="cls-2" d="M67.63,112.54V110.8a1,1,0,0,1,.29-.71.91.91,0,0,1,.69-.29h4.15a.94.94,0,0,1,.7.29,1,1,0,0,1,.28.71v6.75a1,1,0,0,1-1,1,.88.88,0,0,1-.68-.3,1,1,0,0,1-.28-.7V114a.49.49,0,0,0-.15-.35.45.45,0,0,0-.34-.15h-2.7a.91.91,0,0,1-.69-.29A1,1,0,0,1,67.63,112.54Z" transform="translate(0.38 0.38)"/><path class="cls-2" d="M76.18,112.54V110.8a1,1,0,0,1,.28-.71.91.91,0,0,1,.69-.29h4.16a.91.91,0,0,1,.69.29,1,1,0,0,1,.29.71v13.12a1,1,0,0,1-.29.71,1,1,0,0,1-1.38,0,1,1,0,0,1-.28-.71V114a.52.52,0,0,0-.14-.35.47.47,0,0,0-.35-.15h-2.7a.91.91,0,0,1-.69-.29A1,1,0,0,1,76.18,112.54Z" transform="translate(0.38 0.38)"/><path class="cls-2" d="M84.72,123.8v-1.75a1,1,0,0,1,.29-.71.94.94,0,0,1,.69-.29h4.4a.47.47,0,0,0,.35-.15.48.48,0,0,0,.14-.35V114a.52.52,0,0,0-.14-.35.47.47,0,0,0-.35-.15H87.17a.94.94,0,0,1-.7-.29,1,1,0,0,1-.28-.71V110.8a1,1,0,0,1,.28-.71.94.94,0,0,1,.7-.29h4.4a.91.91,0,0,1,.69.29,1,1,0,0,1,.29.71v13a1,1,0,0,1-.29.7.92.92,0,0,1-.69.3H85.7a.92.92,0,0,1-.69-.3A1,1,0,0,1,84.72,123.8Z" transform="translate(0.38 0.38)"/><path class="cls-2" d="M95,112.54V110.8a1,1,0,0,1,.29-.71.91.91,0,0,1,.69-.29h4.15a.91.91,0,0,1,.69.29.94.94,0,0,1,.29.71v6.75a.93.93,0,0,1-.29.7.92.92,0,0,1-.69.3.88.88,0,0,1-.68-.3,1,1,0,0,1-.28-.7V114a.49.49,0,0,0-.15-.35.45.45,0,0,0-.34-.15H96a.91.91,0,0,1-.69-.29A1,1,0,0,1,95,112.54Z" transform="translate(0.38 0.38)"/><path class="cls-2" d="M103.52,123.8v-1.75a1,1,0,0,1,.29-.71.94.94,0,0,1,.69-.29H114a.45.45,0,0,0,.34-.15.45.45,0,0,0,.15-.35V114a.49.49,0,0,0-.15-.35.45.45,0,0,0-.34-.15H106a.47.47,0,0,0-.35.15.52.52,0,0,0-.14.35V115a.5.5,0,0,0,.14.35.47.47,0,0,0,.35.15h.74a.91.91,0,0,1,.69.29,1,1,0,0,1,.29.71v1.74a1,1,0,0,1-.29.71.92.92,0,0,1-.69.3H104.5a.92.92,0,0,1-.69-.3,1,1,0,0,1-.29-.71V110.8a1,1,0,0,1,.29-.71.91.91,0,0,1,.69-.29h11a.93.93,0,0,1,.7.29,1,1,0,0,1,.28.71v13a1,1,0,0,1-.28.7.94.94,0,0,1-.7.3h-11a.92.92,0,0,1-.69-.3A1,1,0,0,1,103.52,123.8Z" transform="translate(0.38 0.38)"/><path class="cls-2" d="M118.92,112.54V103.3a1,1,0,0,1,.28-.71,1,1,0,0,1,.7-.29h1.95a.94.94,0,0,1,.69.29,1,1,0,0,1,.29.71v1.75a.93.93,0,0,1-.29.7.92.92,0,0,1-.69.3h-.49a.48.48,0,0,0-.34.14.49.49,0,0,0-.15.36v2.74a.49.49,0,0,0,.15.36.45.45,0,0,0,.34.15h10a.91.91,0,0,1,.69.29,1,1,0,0,1,.29.71v13a1,1,0,0,1-.29.7.92.92,0,0,1-.69.3H126a.92.92,0,0,1-.69-.3,1,1,0,0,1-.28-.7v-1.75a1,1,0,0,1,.28-.71.94.94,0,0,1,.69-.29h3.92a.45.45,0,0,0,.34-.15.45.45,0,0,0,.15-.35V114a.49.49,0,0,0-.15-.35.45.45,0,0,0-.34-.15h-10a.91.91,0,0,1-.7-.29A1,1,0,0,1,118.92,112.54Z" transform="translate(0.38 0.38)"/></svg>