<svg id="Layer_1" data-name="Layer 1" xmlns="http://www.w3.org/2000/svg" viewBox="0 0 200 200"><defs><style>.cls-1{fill:#192318;}.cls-2{fill:#fff;}</style></defs><rect class="cls-1" width="200" height="200"/><path class="cls-2" d="M24.36,76.51V75.19l.13,0a1.17,1.17,0,0,0,1-.59A3.26,3.26,0,0,0,25.73,73H24.36v-2.9h3.17v2.69a4.34,4.34,0,0,1-.79,2.71,2.65,2.65,0,0,1-2.22,1Z" transform="translate(0 0)"/><path class="cls-2" d="M29.5,76.42a3.32,3.32,0,0,1,.94-2h8.89a1.93,1.93,0,0,1,.1.6,2.47,2.47,0,0,1-.89,1.83,1.66,1.66,0,0,0-.56-.07c-.45,0-1,.39-1.75,1.18a3.34,3.34,0,0,0-1.08,2V90.31H32V82.38a8.15,8.15,0,0,1,.53-3.12,6.79,6.79,0,0,1,1.78-2.43H29.53a1.64,1.64,0,0,0,0-.2C29.51,76.54,29.5,76.47,29.5,76.42Z" transform="translate(0 0)"/><path class="cls-2" d="M42.47,74.19h4.42a84.65,84.65,0,0,1,6.49,7.24c1.14-.47,1.71-1.82,1.71-4.06v-.54H53.61a4.13,4.13,0,0,1,.8-2.64h4.11V75c0,.38,0,.67,0,.88a16,16,0,0,1-.11,1.94A11.12,11.12,0,0,1,58,79.74a6.35,6.35,0,0,1-1,2,7.68,7.68,0,0,1-1.83,1.7A53.91,53.91,0,0,1,60,90.31H56.11a63,63,0,0,0-7.14-9,6.79,6.79,0,0,0-2.36,2.86,8.69,8.69,0,0,0-.9,3.7H46.9a3.57,3.57,0,0,1,.34,1.75,3.87,3.87,0,0,1-.05.69H42.54a28.84,28.84,0,0,1,.13-2.91A19.16,19.16,0,0,1,43,85.09a9.66,9.66,0,0,1,.59-1.84,10.84,10.84,0,0,1,.73-1.42,7.19,7.19,0,0,1,.89-1.13,12.24,12.24,0,0,1,.94-.9c.28-.23.63-.5,1-.8A53.51,53.51,0,0,0,42.47,74.19Z" transform="translate(0 0)"/><path class="cls-2" d="M62.2,76.83a3.57,3.57,0,0,1,1-2.64H67v7.27L63.56,83V76.83Z" transform="translate(0 0)"/><path class="cls-2" d="M69.9,76.25a2.93,2.93,0,0,1,.7-1.85h5.32a11.39,11.39,0,0,1,4.37.66,5,5,0,0,1,2.39,2.09,4,4,0,0,1,.68,1.67A21,21,0,0,1,83.52,82v8.33H80.07V80.8a3.76,3.76,0,0,0-4-4H70A2.1,2.1,0,0,1,69.9,76.25Z" transform="translate(0 0)"/><path class="cls-2" d="M86.22,76.83A3.89,3.89,0,0,1,87,74.17h4V84.73a3.18,3.18,0,0,0,.44,1.65,3.54,3.54,0,0,0,1.16,1.18,7,7,0,0,0,3,1,5.54,5.54,0,0,0,3.62-1.13A4.89,4.89,0,0,0,101,84.72a8.56,8.56,0,0,0,.29-2.16q0-6.18-4.24-6.18a3.77,3.77,0,0,0-.58,0,3.33,3.33,0,0,0-.52.12l-.43.15a3.3,3.3,0,0,0-.37.17L94.9,77l-.16.12-.06,0c-.15,0-.23-.47-.23-1.27a2.79,2.79,0,0,1,.23-1.3,9.12,9.12,0,0,1,3.57-.68,7.16,7.16,0,0,1,2.62.46,5.21,5.21,0,0,1,1.86,1.23,6.39,6.39,0,0,1,1.18,1.89,10,10,0,0,1,.66,2.3,17.5,17.5,0,0,1,.18,2.6,9.46,9.46,0,0,1-.57,3.35,7.69,7.69,0,0,1-1.71,2.66,7.58,7.58,0,0,1-2.91,1.77,12.37,12.37,0,0,1-4.11.63,8.68,8.68,0,0,1-5.62-1.76,5.43,5.43,0,0,1-2.19-4.39V76.83Z" transform="translate(0 0)"/><path class="cls-2" d="M115.32,93.1a4,4,0,0,1,1.5-3.19l4.3-1.41-3.43-11.67h-1.82a.58.58,0,0,1,0-.27,4.86,4.86,0,0,1,.19-1.23,1.56,1.56,0,0,1,.56-.93h4l3.76,12.83.78-.33a11.64,11.64,0,0,0,1.13-.65,8.54,8.54,0,0,0,1.26-1,4.85,4.85,0,0,0,1-1.27,3.22,3.22,0,0,0,.42-1.57V76.83h-1.67v-.2a4.47,4.47,0,0,1,.23-1.31,1.35,1.35,0,0,1,.69-.92h4.19v7a9.54,9.54,0,0,1-1,4.33,6.8,6.8,0,0,1-2.87,3l-13.06,5.18A3.51,3.51,0,0,1,115.32,93.1Z" transform="translate(0 0)"/><path class="cls-2" d="M135.24,76.83v-.26a6.09,6.09,0,0,1,0-.69,2.51,2.51,0,0,1,.2-.64,4.61,4.61,0,0,1,.5-.84h4.43V90.31H137V76.83Z" transform="translate(0 0)"/><path class="cls-2" d="M144,76.1a2.7,2.7,0,0,1,.91-1.7h3l6.39,7.33a3.4,3.4,0,0,0,.58-.34c.9-.77,1.36-2.29,1.36-4.56h-2.15a2.5,2.5,0,0,1-.12-.69,2.12,2.12,0,0,1,1.15-1.74h4.56a24.63,24.63,0,0,1-.37,4.85A6.54,6.54,0,0,1,158.2,82a6.4,6.4,0,0,1-2.29,1.7l3.18,4.17v2.41H144.28a3.48,3.48,0,0,1-.08-.49,1.84,1.84,0,0,1,1.12-1.94h9.48l-8.87-11h-1.68A1.85,1.85,0,0,1,144,76.1Z" transform="translate(0 0)"/><path class="cls-2" d="M163,76.83a3.54,3.54,0,0,1,1-2.64h3.8v7.27L164.39,83V76.83Z" transform="translate(0 0)"/><path class="cls-2" d="M170.76,90.31a4,4,0,0,1,1-2.44h8.82V80.29a3.49,3.49,0,0,0-.89-2.59,3.19,3.19,0,0,0-2.34-.87h-5a3.82,3.82,0,0,1,.82-2.43h4.22a7.76,7.76,0,0,1,3,.58,5.87,5.87,0,0,1,2.38,1.71,3.91,3.91,0,0,1,.95,2.57v8.61h1.89a5,5,0,0,1-.82,2.44Z" transform="translate(0 0)"/><path class="cls-2" d="M11.63,112.83a3.54,3.54,0,0,1,1-2.64h3.8v7.27L13,119v-6.21Z" transform="translate(0 0)"/><path class="cls-2" d="M19.55,125.93a2.85,2.85,0,0,1,1-2.06h4.69v-9.35a2.79,2.79,0,0,0-.13-1,.91.91,0,0,0-.4-.52,1.34,1.34,0,0,0-.49-.18,3.25,3.25,0,0,0-.6,0h-3a3.58,3.58,0,0,1,1.05-2.43h3.19a4.19,4.19,0,0,1,2.77.89,3.58,3.58,0,0,1,1.08,2.91v12.11H19.6s0-.1,0-.19A1.12,1.12,0,0,1,19.55,125.93Z" transform="translate(0 0)"/><path class="cls-2" d="M31.6,112.83v-.26a6.09,6.09,0,0,1,0-.69,2.51,2.51,0,0,1,.2-.64,4.61,4.61,0,0,1,.5-.84h4.43v15.91H33.32V112.83Z" transform="translate(0 0)"/><path class="cls-2" d="M40.11,112.11A2.2,2.2,0,0,1,41,110.4h3.91v8.43a6.47,6.47,0,0,0,3.58-.84,2.48,2.48,0,0,0,1.27-2.1v-3.06H48.54a2.76,2.76,0,0,1-.18-1,1.7,1.7,0,0,1,.89-1.44H53V116a3.73,3.73,0,0,1-1,2.39,7.24,7.24,0,0,1-2.69,1.92,9.21,9.21,0,0,1-3.71.75A6.65,6.65,0,0,0,48,123.28a7,7,0,0,0,3.25.65,10.77,10.77,0,0,0,2.27-.23,6.68,6.68,0,0,0,1.76-.64,7.23,7.23,0,0,0,1.27-.91,4.14,4.14,0,0,0,.88-1.07,5.12,5.12,0,0,0,.48-1.09,3.64,3.64,0,0,0,.15-1v-6.15H56.64a5.12,5.12,0,0,1,0-.7,2.26,2.26,0,0,1,.86-1.73h4v8.92a4.7,4.7,0,0,1-.47,1.94,7.38,7.38,0,0,1-1.38,2,11,11,0,0,1-5,3.07,12.66,12.66,0,0,1-6.87,0A9.61,9.61,0,0,1,45,125.13a8.74,8.74,0,0,1-1.94-1.79,7.57,7.57,0,0,1-1.21-2.15,7,7,0,0,1-.4-2.3v-6.06H40.22A5,5,0,0,1,40.11,112.11Z" transform="translate(0 0)"/><path class="cls-2" d="M64.71,110.19h4.42a84.65,84.65,0,0,1,6.49,7.24c1.14-.47,1.71-1.82,1.71-4.06v-.54H75.85a4.13,4.13,0,0,1,.8-2.64h4.1c0,.16,0,.43,0,.81s0,.67,0,.88a16,16,0,0,1-.11,1.94,11.12,11.12,0,0,1-.43,1.92,6.35,6.35,0,0,1-1,2,7.68,7.68,0,0,1-1.83,1.7,53.91,53.91,0,0,1,4.85,6.87H78.35a63,63,0,0,0-7.14-9,6.79,6.79,0,0,0-2.36,2.86,8.71,8.71,0,0,0-.91,3.7h1.2a3.57,3.57,0,0,1,.34,1.75,3.87,3.87,0,0,1,0,.69H64.77a28.67,28.67,0,0,1,.14-2.91,19.16,19.16,0,0,1,.36-2.31,9.66,9.66,0,0,1,.59-1.84,10.84,10.84,0,0,1,.73-1.42,7.19,7.19,0,0,1,.89-1.13,12.24,12.24,0,0,1,.94-.9c.28-.23.62-.5,1-.8A53.51,53.51,0,0,0,64.71,110.19Z" transform="translate(0 0)"/><path class="cls-2" d="M84,112.25a3,3,0,0,1,.69-1.85H90a11.45,11.45,0,0,1,4.38.66,5,5,0,0,1,2.39,2.09,3.87,3.87,0,0,1,.67,1.67,20.64,20.64,0,0,1,.17,3.16v8.33H94.16V116.8a3.76,3.76,0,0,0-4-4H84.05A2.58,2.58,0,0,1,84,112.25Z" transform="translate(0 0)"/><path class="cls-2" d="M108.2,106.15a4.37,4.37,0,0,1,.2-1.38,2.29,2.29,0,0,1,.84-1h3.91v6.78h10.63v2.74l-6.3,13.07h-3.75L120,112.93H110v-6.78Z" transform="translate(0 0)"/><path class="cls-2" d="M126.59,112.83v-.26a6.09,6.09,0,0,1,0-.69,2.51,2.51,0,0,1,.2-.64,4.1,4.1,0,0,1,.5-.84h4.43v15.91H128.3V112.83Z" transform="translate(0 0)"/><path class="cls-2" d="M136,126.31a3.47,3.47,0,0,1,.73-2.44h7.78a3.65,3.65,0,0,0,2.87-1.73,6.83,6.83,0,0,0,1.32-4.27,7,7,0,0,0-.84-3.62,2.74,2.74,0,0,0-2.52-1.42H139.4v3.65a1.66,1.66,0,0,0,1.63,1.31,6.45,6.45,0,0,0,.75-.06l.6-.08a1.86,1.86,0,0,1,.2.84,3.16,3.16,0,0,1-.2,1,10.89,10.89,0,0,1-2.11.22,4.05,4.05,0,0,1-4.32-3.06V110.4h10.2a6.08,6.08,0,0,1,2,.33,4.66,4.66,0,0,1,1.56.93,6.65,6.65,0,0,1,1.1,1.32,6.36,6.36,0,0,1,.73,1.61,12.26,12.26,0,0,1,.38,1.71,11.62,11.62,0,0,1,.12,1.67,8.84,8.84,0,0,1-.93,3.91,8.57,8.57,0,0,1-2.61,3.17,5.83,5.83,0,0,1-3.58,1.26Z" transform="translate(0 0)"/><path class="cls-2" d="M154.25,112.83a3.54,3.54,0,0,1,1-2.64h3.8v7.27L155.6,119v-6.21Z" transform="translate(0 0)"/><path class="cls-2" d="M162.24,112.83a3.89,3.89,0,0,1,.82-2.66h4v10.56a3.1,3.1,0,0,0,.45,1.65,3.54,3.54,0,0,0,1.16,1.18,7,7,0,0,0,3,1,5.56,5.56,0,0,0,3.62-1.13,4.88,4.88,0,0,0,1.74-2.73,8.15,8.15,0,0,0,.3-2.16c0-4.12-1.42-6.18-4.24-6.18a3.69,3.69,0,0,0-.58,0,3.08,3.08,0,0,0-.52.12l-.44.15a3.08,3.08,0,0,0-.36.17l-.27.16-.16.12-.07,0c-.15,0-.22-.47-.22-1.27a2.81,2.81,0,0,1,.22-1.3,9.14,9.14,0,0,1,3.58-.68,7.07,7.07,0,0,1,2.61.46,5.25,5.25,0,0,1,1.87,1.23,6.6,6.6,0,0,1,1.18,1.89,9.47,9.47,0,0,1,.65,2.3,16.2,16.2,0,0,1,.19,2.6,9.24,9.24,0,0,1-.58,3.35,7.53,7.53,0,0,1-1.7,2.66,7.65,7.65,0,0,1-2.91,1.77,12.41,12.41,0,0,1-4.11.63,8.65,8.65,0,0,1-5.62-1.76,5.43,5.43,0,0,1-2.19-4.39v-7.85Z" transform="translate(0 0)"/><path class="cls-2" d="M182.73,112.83v-.26a6.09,6.09,0,0,1,0-.69,2.42,2.42,0,0,1,.19-.64,4.71,4.71,0,0,1,.51-.84h4.43v15.91h-3.45V112.83Z" transform="translate(0 0)"/></svg>