<svg id="Layer_1" data-name="Layer 1" xmlns="http://www.w3.org/2000/svg" viewBox="0 0 200.75 200.75"><defs><style>.cls-1{fill:#192318;stroke:#fff;stroke-miterlimit:10;stroke-width:0.75px;}.cls-2{fill:#fff;}</style></defs><rect class="cls-1" x="0.38" y="0.38" width="200" height="200"/><path class="cls-2" d="M27.81,77.49V75.75a1,1,0,0,1,.28-.71.94.94,0,0,1,.69-.29H31a.94.94,0,0,1,.69.29,1,1,0,0,1,.29.71V80a1,1,0,0,1-.29.7.94.94,0,0,1-1.38,0A1,1,0,0,1,30,80V79a.52.52,0,0,0-.14-.36.46.46,0,0,0-.35-.14h-.73a.92.92,0,0,1-.69-.3A1,1,0,0,1,27.81,77.49Z" transform="translate(0.38 0.38)"/><path class="cls-2" d="M34.63,81.24V79.5a1,1,0,0,1,.29-.71.91.91,0,0,1,.69-.29H41a.91.91,0,0,1,.69.29,1,1,0,0,1,.29.71v1.74a1,1,0,0,1-.29.71.91.91,0,0,1-.69.29H40a.45.45,0,0,0-.34.15.47.47,0,0,0-.15.35v9.88a1,1,0,0,1-1,1,.94.94,0,0,1-.69-.29,1,1,0,0,1-.28-.71V82.74a.47.47,0,0,0-.15-.35.45.45,0,0,0-.34-.15H35.61a.91.91,0,0,1-.69-.29A1,1,0,0,1,34.63,81.24Z" transform="translate(0.38 0.38)"/><path class="cls-2" d="M44.4,92.5v-13a1,1,0,0,1,.29-.71.91.91,0,0,1,.69-.29,1,1,0,0,1,.69.31l7.65,7.31,2.33-2.35a.49.49,0,0,0,.14-.34v-.69a.5.5,0,0,0-.14-.35.47.47,0,0,0-.35-.15H53.94a.94.94,0,0,1-.7-.29,1,1,0,0,1-.28-.71V79.5a1,1,0,0,1,.28-.71.94.94,0,0,1,.7-.29h3.22a.91.91,0,0,1,.69.29,1,1,0,0,1,.29.71v4a2,2,0,0,1-.5,1.48l-2.51,2.48,2.58,2.45a1.51,1.51,0,0,1,.44,1.14v1.84a.62.62,0,0,1-.68.71,1,1,0,0,1-.73-.34l-9.54-9a.49.49,0,0,0-.35-.15.47.47,0,0,0-.35.15.5.5,0,0,0-.14.35v4.63a.48.48,0,0,0,.14.35.47.47,0,0,0,.35.15h.74a.94.94,0,0,1,.69.29,1,1,0,0,1,.29.71V92.5a1,1,0,0,1-.29.7.92.92,0,0,1-.69.3H45.38a.92.92,0,0,1-.69-.3A1,1,0,0,1,44.4,92.5Z" transform="translate(0.38 0.38)"/><path class="cls-2" d="M60.57,81.24V79.5a1,1,0,0,1,.29-.71.91.91,0,0,1,.69-.29H65.7a.91.91,0,0,1,.69.29,1,1,0,0,1,.29.71v6.75a1,1,0,0,1-.29.7.92.92,0,0,1-.69.3A.88.88,0,0,1,65,87a1,1,0,0,1-.28-.7V82.74a.47.47,0,0,0-.15-.35.45.45,0,0,0-.34-.15h-2.7a.91.91,0,0,1-.69-.29A1,1,0,0,1,60.57,81.24Z" transform="translate(0.38 0.38)"/><path class="cls-2" d="M69.11,81.24V79.5a1,1,0,0,1,.29-.71.91.91,0,0,1,.69-.29H80.84a.94.94,0,0,1,.7.29,1,1,0,0,1,.28.71V92.62a1,1,0,0,1-1,1,.91.91,0,0,1-.68-.29,1,1,0,0,1-.28-.71V82.74a.47.47,0,0,0-.15-.35.45.45,0,0,0-.34-.15h-9.3A.91.91,0,0,1,69.4,82,1,1,0,0,1,69.11,81.24Z" transform="translate(0.38 0.38)"/><path class="cls-2" d="M84.26,92.5v-13a1,1,0,0,1,.28-.71.91.91,0,0,1,.69-.29h2a.91.91,0,0,1,.69.29,1,1,0,0,1,.29.71v1.74a1,1,0,0,1-.29.71.91.91,0,0,1-.69.29H86.7a.45.45,0,0,0-.34.15.47.47,0,0,0-.15.35v6.51a.45.45,0,0,0,.15.35.45.45,0,0,0,.34.15H96a.45.45,0,0,0,.35-.15.45.45,0,0,0,.14-.35V82.74a.46.46,0,0,0-.14-.35.45.45,0,0,0-.35-.15h-.91a3,3,0,0,0-1.7.53l-1.92,1a.6.6,0,0,1-.69.06.8.8,0,0,1-.26-.68V81.24a2,2,0,0,1,.16-.87,1.36,1.36,0,0,1,.55-.57L92.56,79a3.34,3.34,0,0,1,1.71-.52h3.18a.91.91,0,0,1,.69.29.94.94,0,0,1,.29.71v13a.93.93,0,0,1-.29.7.92.92,0,0,1-.69.3H85.23a.92.92,0,0,1-.69-.3A1,1,0,0,1,84.26,92.5Z" transform="translate(0.38 0.38)"/><path class="cls-2" d="M110.64,92.5v-13a1,1,0,0,1,.28-.71.94.94,0,0,1,.7-.29h8.18a2.29,2.29,0,0,1,1.7.7l1.87,1.91a2.44,2.44,0,0,1,.72,1.77V92.5a1,1,0,0,1-.29.7.92.92,0,0,1-.69.3H111.62a1,1,0,0,1-1-1Zm2-3.25a.45.45,0,0,0,.15.35.45.45,0,0,0,.34.15h8.56a.5.5,0,0,0,.49-.5V85.48a2.44,2.44,0,0,0-.72-1.77L120.7,83a2.29,2.29,0,0,0-1.7-.71h-5.92a.45.45,0,0,0-.34.15.47.47,0,0,0-.15.35Z" transform="translate(0.38 0.38)"/><path class="cls-2" d="M126.52,81.24V79.5a1,1,0,0,1,.29-.71.91.91,0,0,1,.69-.29h4.15a.91.91,0,0,1,.69.29,1,1,0,0,1,.29.71V92.62a1,1,0,0,1-.29.71,1,1,0,0,1-1.38,0,1,1,0,0,1-.28-.71V82.74a.46.46,0,0,0-.14-.35.45.45,0,0,0-.34-.15h-2.7a.91.91,0,0,1-.69-.29A1,1,0,0,1,126.52,81.24Z" transform="translate(0.38 0.38)"/><path class="cls-2" d="M135.06,92.5V90.75a1,1,0,0,1,.29-.71.94.94,0,0,1,.69-.29h9.54a.5.5,0,0,0,.48-.5V82.74a.46.46,0,0,0-.14-.35.45.45,0,0,0-.34-.15H136a.91.91,0,0,1-.69-.29,1,1,0,0,1-.29-.71V79.5a1,1,0,0,1,.29-.71.91.91,0,0,1,.69-.29h11a.91.91,0,0,1,.69.29.94.94,0,0,1,.29.71v13a.93.93,0,0,1-.29.7.92.92,0,0,1-.69.3H136a.92.92,0,0,1-.69-.3A1,1,0,0,1,135.06,92.5Z" transform="translate(0.38 0.38)"/><path class="cls-2" d="M150.46,81.24V79.5a1,1,0,0,1,.28-.71.91.91,0,0,1,.69-.29h4.16a.91.91,0,0,1,.69.29,1,1,0,0,1,.28.71v6.75a1,1,0,0,1-.28.7.94.94,0,0,1-1.38,0,1,1,0,0,1-.28-.7V82.74a.5.5,0,0,0-.14-.35.47.47,0,0,0-.35-.15h-2.7a.91.91,0,0,1-.69-.29A1,1,0,0,1,150.46,81.24Z" transform="translate(0.38 0.38)"/><path class="cls-2" d="M159,92.5v-13a.94.94,0,0,1,.29-.71.91.91,0,0,1,.69-.29h11.49a.91.91,0,0,1,.69.29,1,1,0,0,1,.29.71v8.58a2.39,2.39,0,0,1-.7,1.73l-2.91,3a2.34,2.34,0,0,1-1.73.73H160a.92.92,0,0,1-.69-.3A.93.93,0,0,1,159,92.5Zm2-3.25a.5.5,0,0,0,.48.5h4.78a2.31,2.31,0,0,0,1.72-.73l1.87-1.92a2.38,2.38,0,0,0,.68-1.73V82.74a.5.5,0,0,0-.14-.35.49.49,0,0,0-.35-.15h-8.56a.45.45,0,0,0-.34.15.46.46,0,0,0-.14.35Z" transform="translate(0.38 0.38)"/><path class="cls-2" d="M7.66,111.24V109.5a1,1,0,0,1,.28-.71.93.93,0,0,1,.7-.29H19.39a.91.91,0,0,1,.69.29,1,1,0,0,1,.29.71v13.12a1,1,0,0,1-.29.71,1,1,0,0,1-1.38,0,1,1,0,0,1-.28-.71v-9.88a.5.5,0,0,0-.14-.35.47.47,0,0,0-.35-.15H8.64a1,1,0,0,1-.7-.29A1,1,0,0,1,7.66,111.24Z" transform="translate(0.38 0.38)"/><path class="cls-2" d="M23.05,107.49v-1.74a1,1,0,0,1,.29-.71.91.91,0,0,1,.69-.29h2.19a.94.94,0,0,1,.7.29,1,1,0,0,1,.28.71V110a1,1,0,0,1-1,1,.92.92,0,0,1-.69-.3,1,1,0,0,1-.28-.7v-1a.49.49,0,0,0-.15-.36.44.44,0,0,0-.34-.14H24a.92.92,0,0,1-.69-.3A.94.94,0,0,1,23.05,107.49Zm6.11,0v-1.74a1,1,0,0,1,.29-.71.91.91,0,0,1,.69-.29h2.19A.91.91,0,0,1,33,105a1,1,0,0,1,.29.71V110a.93.93,0,0,1-.29.7.94.94,0,0,1-1.38,0,1,1,0,0,1-.29-.7v-1a.48.48,0,0,0-.14-.36.44.44,0,0,0-.34-.14h-.73a.92.92,0,0,1-.69-.3A.94.94,0,0,1,29.16,107.49Z" transform="translate(0.38 0.38)"/><path class="cls-2" d="M36,122.62V109.5a1,1,0,0,1,.29-.71.91.91,0,0,1,.69-.29H48.45a.94.94,0,0,1,.7.29,1,1,0,0,1,.28.71v13.12a1,1,0,0,1-.28.71,1,1,0,0,1-.7.29.94.94,0,0,1-.69-.29,1,1,0,0,1-.29-.71v-9.88a.46.46,0,0,0-.14-.35.45.45,0,0,0-.34-.15H38.43a.47.47,0,0,0-.35.15.5.5,0,0,0-.14.35v9.88a1,1,0,0,1-.29.71,1,1,0,0,1-1.38,0A1,1,0,0,1,36,122.62Z" transform="translate(0.38 0.38)"/><path class="cls-2" d="M51.87,111.24V109.5a1,1,0,0,1,.28-.71.91.91,0,0,1,.69-.29h2a.91.91,0,0,1,.69.29,1,1,0,0,1,.29.71V111c0,.56.17.66.52.3l2.08-2.1a2.29,2.29,0,0,1,1.71-.7h6a.91.91,0,0,1,.69.29,1,1,0,0,1,.29.71v13a1,1,0,0,1-.29.7.92.92,0,0,1-.69.3H60.42a.92.92,0,0,1-.69-.3,1,1,0,0,1-.29-.7v-1.75a1,1,0,0,1,.29-.71.94.94,0,0,1,.69-.29h4.15a.47.47,0,0,0,.35-.15.5.5,0,0,0,.14-.35v-6.51a.5.5,0,0,0-.14-.35.47.47,0,0,0-.35-.15h-4a2.23,2.23,0,0,0-1.69.71l-2.12,2.17a2.47,2.47,0,0,0-.71,1.77v5.73a1,1,0,0,1-.29.71,1,1,0,0,1-1.38,0,1,1,0,0,1-.29-.71v-9.88a.46.46,0,0,0-.14-.35.47.47,0,0,0-.35-.15h-.74a.94.94,0,0,1-.69-.29A1,1,0,0,1,51.87,111.24Z" transform="translate(0.38 0.38)"/><path class="cls-2" d="M69.45,111.24V109.5a1,1,0,0,1,.29-.71.91.91,0,0,1,.69-.29H81.92a.94.94,0,0,1,.7.29,1,1,0,0,1,.28.71v13.12a1,1,0,0,1-.28.71,1,1,0,0,1-.7.29.94.94,0,0,1-.69-.29,1,1,0,0,1-.29-.71v-9.88a.46.46,0,0,0-.14-.35.45.45,0,0,0-.34-.15h-10a.94.94,0,0,1-.69-.29A1,1,0,0,1,69.45,111.24Zm0,11.26V117a1,1,0,0,1,.29-.71,1,1,0,0,1,1.38,0,1,1,0,0,1,.29.71v2.25a.5.5,0,0,0,.14.35.47.47,0,0,0,.35.15h.74a.94.94,0,0,1,.69.29,1,1,0,0,1,.29.71v1.75a1,1,0,0,1-.29.7.92.92,0,0,1-.69.3H70.43a.92.92,0,0,1-.69-.3A1,1,0,0,1,69.45,122.5Z" transform="translate(0.38 0.38)"/><path class="cls-2" d="M95.11,122.5v-13a1,1,0,0,1,.28-.71.93.93,0,0,1,.7-.29h8.18a2.3,2.3,0,0,1,1.7.7l1.87,1.91a2.44,2.44,0,0,1,.72,1.77v9.62a1,1,0,0,1-.29.7.92.92,0,0,1-.69.3H96.09a.94.94,0,0,1-.7-.3A1,1,0,0,1,95.11,122.5Zm2-3.25a.47.47,0,0,0,.15.35.45.45,0,0,0,.34.15h8.56a.49.49,0,0,0,.35-.15.5.5,0,0,0,.14-.35v-3.77a2.44,2.44,0,0,0-.72-1.77l-.71-.76a2.29,2.29,0,0,0-1.7-.71H97.55a.45.45,0,0,0-.34.15.47.47,0,0,0-.15.35Z" transform="translate(0.38 0.38)"/><path class="cls-2" d="M111,122.5v-1.75a1,1,0,0,1,1-1h1.72a.45.45,0,0,0,.34-.15.46.46,0,0,0,.14-.35v-6.51a.46.46,0,0,0-.14-.35.45.45,0,0,0-.34-.15H112a1,1,0,0,1-1-1V109.5a.94.94,0,0,1,.29-.71.91.91,0,0,1,.69-.29h3.18a.91.91,0,0,1,.69.29,1,1,0,0,1,.28.71v9.75a.5.5,0,0,0,.14.35.47.47,0,0,0,.35.15h5.62a.45.45,0,0,0,.34-.15.47.47,0,0,0,.15-.35v-6.51a.47.47,0,0,0-.15-.35.45.45,0,0,0-.34-.15h-1.71a.94.94,0,0,1-.69-.29,1,1,0,0,1-.29-.71V109.5a1,1,0,0,1,.29-.71.91.91,0,0,1,.69-.29h3.18a.91.91,0,0,1,.69.29,1,1,0,0,1,.28.71v13a1,1,0,0,1-.28.7.92.92,0,0,1-.69.3H112a.92.92,0,0,1-.69-.3A.93.93,0,0,1,111,122.5Z" transform="translate(0.38 0.38)"/><path class="cls-2" d="M136.88,111.24V109.5a1,1,0,0,1,.29-.71.91.91,0,0,1,.69-.29h12a.91.91,0,0,1,.69.29,1,1,0,0,1,.29.71v1.74a1,1,0,0,1-.29.71.94.94,0,0,1-.69.29h-1a.45.45,0,0,0-.34.15.47.47,0,0,0-.15.35v9.88a1,1,0,0,1-.28.71,1,1,0,0,1-1.39,0,1,1,0,0,1-.28-.71v-9.88a.47.47,0,0,0-.15-.35.45.45,0,0,0-.34-.15h-8.07a.94.94,0,0,1-.69-.29A1,1,0,0,1,136.88,111.24Z" transform="translate(0.38 0.38)"/><path class="cls-2" d="M153.25,122.62V109.5a1,1,0,0,1,.29-.71.91.91,0,0,1,.69-.29h11.49a.91.91,0,0,1,.69.29,1,1,0,0,1,.29.71v13.12a1,1,0,0,1-.29.71,1,1,0,0,1-1.38,0,1,1,0,0,1-.29-.71v-9.88a.46.46,0,0,0-.14-.35.47.47,0,0,0-.35-.15H155.7a.47.47,0,0,0-.35.15.5.5,0,0,0-.14.35v9.88a1,1,0,0,1-.29.71,1,1,0,0,1-1.38,0A1,1,0,0,1,153.25,122.62Z" transform="translate(0.38 0.38)"/><path class="cls-2" d="M169.13,111.24V109.5a1,1,0,0,1,.29-.71.91.91,0,0,1,.69-.29h4.15a.91.91,0,0,1,.7.29,1,1,0,0,1,.28.71v6.75a1,1,0,0,1-.28.7.92.92,0,0,1-.7.3.9.9,0,0,1-.68-.3,1,1,0,0,1-.28-.7v-3.51a.5.5,0,0,0-.14-.35.49.49,0,0,0-.35-.15h-2.7a.94.94,0,0,1-.69-.29A1,1,0,0,1,169.13,111.24Z" transform="translate(0.38 0.38)"/><path class="cls-2" d="M177.68,122.5v-1.75a1,1,0,0,1,1-1h9a.47.47,0,0,0,.35-.15.5.5,0,0,0,.14-.35v-6.51a.5.5,0,0,0-.14-.35.47.47,0,0,0-.35-.15h-9a1,1,0,0,1-1-1V109.5a1,1,0,0,1,.28-.71.94.94,0,0,1,.7-.29h10.51a.91.91,0,0,1,.69.29,1,1,0,0,1,.29.71v9.75a.46.46,0,0,0,.14.35.47.47,0,0,0,.35.15h.72a1,1,0,0,1,.7.29,1,1,0,0,1,.28.71v1.75a1,1,0,0,1-.28.7.94.94,0,0,1-.7.3h-12.7a1,1,0,0,1-1-1Z" transform="translate(0.38 0.38)"/></svg>