<svg id="Layer_1" data-name="Layer 1" xmlns="http://www.w3.org/2000/svg" viewBox="0 0 200 200"><defs><style>.cls-1{fill:#192318;}.cls-2{fill:#fff;}</style></defs><rect class="cls-1" width="200" height="200"/><path class="cls-2" d="M19.19,58.51V57.19l.14,0a1.15,1.15,0,0,0,.94-.59A3.26,3.26,0,0,0,20.56,55H19.19v-2.9h3.17v2.69a4.28,4.28,0,0,1-.79,2.71,2.63,2.63,0,0,1-2.22,1Z" transform="translate(0 0)"/><path class="cls-2" d="M24.33,58.42a3.38,3.38,0,0,1,.94-2h8.9a2.24,2.24,0,0,1,.09.6,2.44,2.44,0,0,1-.89,1.83,1.62,1.62,0,0,0-.56-.07c-.44,0-1,.39-1.75,1.18A3.34,3.34,0,0,0,30,62V72.31H26.81V64.38a8.14,8.14,0,0,1,.54-3.12,6.88,6.88,0,0,1,1.77-2.43H24.37s0-.11,0-.2S24.33,58.47,24.33,58.42Z" transform="translate(0 0)"/><path class="cls-2" d="M37.3,56.19h4.42a86.56,86.56,0,0,1,6.5,7.24c1.13-.47,1.7-1.82,1.7-4.06v-.54H48.45a4.13,4.13,0,0,1,.79-2.64h4.11c0,.16,0,.43,0,.81v.88a16.17,16.17,0,0,1-.1,1.94,13.37,13.37,0,0,1-.43,1.92,6.38,6.38,0,0,1-1,2A7.83,7.83,0,0,1,50,65.44a54.72,54.72,0,0,1,4.84,6.87H51a63.8,63.8,0,0,0-7.15-9,6.79,6.79,0,0,0-2.36,2.86,8.69,8.69,0,0,0-.9,3.7h1.2a3.7,3.7,0,0,1,.33,1.75,5.12,5.12,0,0,1,0,.69H37.37a26,26,0,0,1,.14-2.91,21.6,21.6,0,0,1,.35-2.31,10.42,10.42,0,0,1,.59-1.84,10.84,10.84,0,0,1,.73-1.42,7.83,7.83,0,0,1,.89-1.13,12.16,12.16,0,0,1,1-.9c.27-.23.62-.5,1-.8A52.2,52.2,0,0,0,37.3,56.19Z" transform="translate(0 0)"/><path class="cls-2" d="M57,58.83a3.57,3.57,0,0,1,1-2.64h3.81v7.27L58.39,65V58.83Z" transform="translate(0 0)"/><path class="cls-2" d="M64.73,58.25a3,3,0,0,1,.7-1.85h5.32a11.45,11.45,0,0,1,4.38.66,4.94,4.94,0,0,1,2.38,2.09,3.89,3.89,0,0,1,.68,1.67A21,21,0,0,1,78.35,64v8.33H74.91V62.8a3.77,3.77,0,0,0-4-4H64.8A2.56,2.56,0,0,1,64.73,58.25Z" transform="translate(0 0)"/><path class="cls-2" d="M81.05,58.83a3.89,3.89,0,0,1,.83-2.66h4V66.73a3.1,3.1,0,0,0,.45,1.65,3.51,3.51,0,0,0,1.15,1.18,7.14,7.14,0,0,0,3,1,5.52,5.52,0,0,0,3.62-1.13,4.89,4.89,0,0,0,1.75-2.73,8.13,8.13,0,0,0,.29-2.16q0-6.18-4.24-6.18a3.86,3.86,0,0,0-.58,0,3.19,3.19,0,0,0-.51.12l-.44.15-.37.17-.26.16-.16.12-.07,0c-.15,0-.23-.47-.23-1.27a2.79,2.79,0,0,1,.23-1.3,9.14,9.14,0,0,1,3.58-.68,7.07,7.07,0,0,1,2.61.46,5.21,5.21,0,0,1,1.86,1.23,6.41,6.41,0,0,1,1.19,1.89,9.94,9.94,0,0,1,.65,2.3,17.44,17.44,0,0,1,.19,2.6A9.24,9.24,0,0,1,99,67.77a7.25,7.25,0,0,1-4.62,4.43,12.3,12.3,0,0,1-4.1.63,8.65,8.65,0,0,1-5.62-1.76,5.43,5.43,0,0,1-2.19-4.39V58.83Z" transform="translate(0 0)"/><path class="cls-2" d="M111.68,72.31V56.4h10a7,7,0,0,1,2.39.37,4.81,4.81,0,0,1,1.65.95,4.56,4.56,0,0,1,1,1.37,6.4,6.4,0,0,1,.5,1.54,9.4,9.4,0,0,1,.13,1.54V72.31Zm3.45-2.44h8.78v-7.8c0-2.16-1-3.24-2.9-3.24h-5.88Z" transform="translate(0 0)"/><path class="cls-2" d="M130.27,58.83v-.26a6.09,6.09,0,0,1,0-.69,2.16,2.16,0,0,1,.2-.64,4.1,4.1,0,0,1,.5-.84h4.43V72.31H132V58.83Z" transform="translate(0 0)"/><path class="cls-2" d="M139.29,71.87a2.9,2.9,0,0,1,1-2h6.17A4.68,4.68,0,0,0,149.3,68a5.86,5.86,0,0,0,1.2-3.7,6.77,6.77,0,0,0-.44-2.51,4.3,4.3,0,0,0-1.21-1.71,5.43,5.43,0,0,0-1.67-.94,6.2,6.2,0,0,0-1.94-.3h-5.83a2.18,2.18,0,0,1-.07-.64,2.79,2.79,0,0,1,.84-1.79h6.36a6.49,6.49,0,0,1,2,.32,7.42,7.42,0,0,1,2,1,7.86,7.86,0,0,1,1.72,1.59,7.49,7.49,0,0,1,1.22,2.24,8.72,8.72,0,0,1,.46,2.84,9.26,9.26,0,0,1-.44,2.89,7,7,0,0,1-1.17,2.24,7.11,7.11,0,0,1-1.69,1.55,7.21,7.21,0,0,1-2,1,7.76,7.76,0,0,1-2.15.31h-7.13c0-.06,0-.13,0-.22A1,1,0,0,1,139.29,71.87Z" transform="translate(0 0)"/><path class="cls-2" d="M156.08,58.83a3.54,3.54,0,0,1,1-2.64h3.8v7.27L157.44,65V58.83Z" transform="translate(0 0)"/><path class="cls-2" d="M164.41,58.83a3.89,3.89,0,0,1,1.36-2.43h8.61a8.43,8.43,0,0,1,2.8.45,7.22,7.22,0,0,1,2.33,1.39,6.19,6.19,0,0,1,1.64,2.55,10.89,10.89,0,0,1,.6,3.77,7.92,7.92,0,0,1-2.3,6.08q-2.3,2.14-6.62,2.15a9.59,9.59,0,0,1-3.12-.48,7,7,0,0,1-2.27-1.2A7.54,7.54,0,0,1,166,69.46a6.51,6.51,0,0,1-.83-1.74,6,6,0,0,1-.23-1.56V60l.93-1.19Zm4,7.5a3.14,3.14,0,0,0,.31,1.26,5.23,5.23,0,0,0,.87,1.31,4.4,4.4,0,0,0,1.48,1,4.79,4.79,0,0,0,2,.42,5,5,0,0,0,2.89-.82,4.84,4.84,0,0,0,1.8-2.11,7.24,7.24,0,0,0,.57-2.92,8.24,8.24,0,0,0-.37-2.6,4.68,4.68,0,0,0-1-1.78,4.44,4.44,0,0,0-1.42-1,4.19,4.19,0,0,0-1.65-.33h-5.48Z" transform="translate(0 0)"/><path class="cls-2" d="M47.4,108.31V92.4h10a7,7,0,0,1,2.39.37,4.81,4.81,0,0,1,1.65,1,4.56,4.56,0,0,1,1,1.37,6.88,6.88,0,0,1,.5,1.54,9.43,9.43,0,0,1,.12,1.54v10.14Zm3.45-2.44h8.78v-7.8q0-3.24-2.9-3.24H50.85Z" transform="translate(0 0)"/><path class="cls-2" d="M65.48,111.1A4,4,0,0,1,67,107.91l4.3-1.41L67.86,94.83H66a.82.82,0,0,1,0-.27,4.45,4.45,0,0,1,.19-1.23,1.56,1.56,0,0,1,.56-.93h4l3.76,12.83.77-.33a11.56,11.56,0,0,0,1.14-.65,9.1,9.1,0,0,0,1.26-1,4.85,4.85,0,0,0,1-1.27,3.2,3.2,0,0,0,.41-1.57V94.83H77.39v-.2a4.47,4.47,0,0,1,.23-1.31,1.35,1.35,0,0,1,.69-.92H82.5v7a9.54,9.54,0,0,1-1,4.33,6.8,6.8,0,0,1-2.87,3l-13.06,5.18A3.54,3.54,0,0,1,65.48,111.1Z" transform="translate(0 0)"/><path class="cls-2" d="M94.05,94.21a3,3,0,0,1,.66-1.81h13.94a4.07,4.07,0,0,1-.66,2.43H106.4v13.48H103V94.83h-8.8A2.79,2.79,0,0,1,94.05,94.21Z" transform="translate(0 0)"/><path class="cls-2" d="M111.4,94.83a3.72,3.72,0,0,1,.71-2.43h11.37a4.3,4.3,0,0,1,2.21.73,7.65,7.65,0,0,1,2,1.81,3.3,3.3,0,0,1,.82,1.94v11.43h-3.45V97.67a2.75,2.75,0,0,0-1-1.87,2.82,2.82,0,0,0-1.86-1h-6v13.48h-3.44V94.83Z" transform="translate(0 0)"/><path class="cls-2" d="M131.49,94.83a3.54,3.54,0,0,1,1-2.64h3.8v7.27L132.85,101V94.83Z" transform="translate(0 0)"/><path class="cls-2" d="M139.22,108.31a4,4,0,0,1,1-2.44h8.82V98.29a3.45,3.45,0,0,0-.89-2.59,3.19,3.19,0,0,0-2.34-.87h-4.95a3.82,3.82,0,0,1,.82-2.43h4.23a7.74,7.74,0,0,1,3,.58,5.81,5.81,0,0,1,2.38,1.71,3.86,3.86,0,0,1,.95,2.57v8.61h1.9a5,5,0,0,1-.83,2.44Z" transform="translate(0 0)"/><path class="cls-2" d="M58.25,130.25a3,3,0,0,1,.69-1.85h5.32a11.45,11.45,0,0,1,4.38.66A4.94,4.94,0,0,1,71,131.15a3.77,3.77,0,0,1,.68,1.67,20.64,20.64,0,0,1,.17,3.16v8.33H68.42V134.8a3.76,3.76,0,0,0-4-4H58.31A2.58,2.58,0,0,1,58.25,130.25Z" transform="translate(0 0)"/><path class="cls-2" d="M74.52,130.51v-1.32l.14,0a1.17,1.17,0,0,0,.94-.59,3.26,3.26,0,0,0,.29-1.59H74.52v-2.9h3.17v2.69a4.28,4.28,0,0,1-.79,2.71,2.64,2.64,0,0,1-2.22,1Zm3.86-.06v-1.32h.14a1.22,1.22,0,0,0,1-.6,3.35,3.35,0,0,0,.29-1.59H78.38V124h3.17v2.69a4.34,4.34,0,0,1-.78,2.71,2.65,2.65,0,0,1-2.22,1Z" transform="translate(0 0)"/><path class="cls-2" d="M84.27,130.83A3.72,3.72,0,0,1,85,128.4H96.35a4.3,4.3,0,0,1,2.21.73,7.65,7.65,0,0,1,2,1.81,3.3,3.3,0,0,1,.82,1.94v11.43H98V133.67a2.75,2.75,0,0,0-1-1.87,2.82,2.82,0,0,0-1.86-1h-6v13.48H85.63V130.83Z" transform="translate(0 0)"/><path class="cls-2" d="M104.2,128.18a5.43,5.43,0,0,1,1.68-.3,9.59,9.59,0,0,1,1.93.3l1.38,3.75a8.75,8.75,0,0,1,1.14-1.86,6.18,6.18,0,0,1,1.87-1.46,5.65,5.65,0,0,1,2.62-.62,9.5,9.5,0,0,1,3.65.66,6.69,6.69,0,0,1,2.58,1.85,8.2,8.2,0,0,1,1.5,2.7,10.47,10.47,0,0,1,.5,3.33,10.09,10.09,0,0,1-.64,3.77,6.09,6.09,0,0,1-1.83,2.56,8,8,0,0,1-2.74,1.42,12.08,12.08,0,0,1-3.49.47,9.94,9.94,0,0,1-2.6-.49,3.23,3.23,0,0,1-.13-1,5.54,5.54,0,0,1,.69-2.41,2.92,2.92,0,0,0,.75.75,2,2,0,0,0,1,.2,5.37,5.37,0,0,0,4.09-1.51,5.42,5.42,0,0,0,1.44-3.89,7.67,7.67,0,0,0-.28-2.15,5.45,5.45,0,0,0-.84-1.75,3.68,3.68,0,0,0-1.54-1.21,5.47,5.47,0,0,0-2.29-.44,4,4,0,0,0-1.86.42,3.83,3.83,0,0,0-1.35,1.09,7.59,7.59,0,0,0-.94,1.65,11,11,0,0,0-.64,2c-.15.69-.29,1.43-.41,2.22s-.24,1.53-.35,2.21-.21,1.37-.32,2.07-.2,1.29-.27,1.77H105l1.18-10.45Z" transform="translate(0 0)"/><path class="cls-2" d="M125.42,130.28a3.13,3.13,0,0,1,.67-1.88h7.69a11.43,11.43,0,0,1,4.36.65,5,5,0,0,1,2.4,2.08,4.07,4.07,0,0,1,.68,1.67,22.56,22.56,0,0,1,.16,3.16v8.35h-3.45v-9.53a3.74,3.74,0,0,0-4-3.95h-8.5A3.24,3.24,0,0,1,125.42,130.28Zm.64,14v-9.76a6.85,6.85,0,0,1,3,1v8.75Z" transform="translate(0 0)"/></svg>