<svg id="Layer_1" data-name="Layer 1" xmlns="http://www.w3.org/2000/svg" viewBox="0 0 200.75 200.75"><defs><style>.cls-1{fill:#192318;stroke:#fff;stroke-miterlimit:10;stroke-width:0.75px;}.cls-2{fill:#fff;}</style></defs><rect class="cls-1" x="0.38" y="0.38" width="200" height="200"/><path class="cls-2" d="M30.93,40.94V39.4a.85.85,0,0,1,.26-.62.82.82,0,0,1,.61-.26h.65a.38.38,0,0,0,.3-.13.4.4,0,0,0,.13-.31V32.35a.44.44,0,0,0-.43-.44h-.22a.82.82,0,0,1-.61-.25.87.87,0,0,1-.25-.63V29.5a.87.87,0,0,1,.25-.63.82.82,0,0,1,.61-.25H42.77a.82.82,0,0,1,.61.25.87.87,0,0,1,.25.63V41a.85.85,0,0,1-.25.63.85.85,0,0,1-1.22,0,.85.85,0,0,1-.25-.63V32.35a.44.44,0,0,0-.43-.44H35a.44.44,0,0,0-.43.44v8.59a.84.84,0,0,1-.25.62.83.83,0,0,1-.61.26H31.8a.82.82,0,0,1-.61-.26A.85.85,0,0,1,30.93,40.94Z" transform="translate(0.38 0.38)"/><path class="cls-2" d="M45.77,31V29.5a.91.91,0,0,1,.25-.63.82.82,0,0,1,.61-.25h3.66a.84.84,0,0,1,.61.25.91.91,0,0,1,.25.63V41a.89.89,0,0,1-.25.63.85.85,0,0,1-.61.26.83.83,0,0,1-.61-.26.88.88,0,0,1-.24-.63V32.35a.46.46,0,0,0-.13-.31.43.43,0,0,0-.3-.13H46.63a.82.82,0,0,1-.61-.25A.91.91,0,0,1,45.77,31Z" transform="translate(0.38 0.38)"/><path class="cls-2" d="M53.29,31V29.5a.87.87,0,0,1,.25-.63.82.82,0,0,1,.61-.25h3.66a.8.8,0,0,1,.6.25.88.88,0,0,1,.26.63v5.94a.85.85,0,0,1-.26.62.81.81,0,0,1-.6.26.83.83,0,0,1-.61-.26.88.88,0,0,1-.24-.62V32.35a.44.44,0,0,0-.44-.44H54.15a.82.82,0,0,1-.61-.25A.87.87,0,0,1,53.29,31Z" transform="translate(0.38 0.38)"/><path class="cls-2" d="M60.81,31V29.5a.87.87,0,0,1,.25-.63.82.82,0,0,1,.61-.25h3.65a.82.82,0,0,1,.61.25.87.87,0,0,1,.25.63V41a.85.85,0,0,1-.25.63.83.83,0,0,1-.61.26.81.81,0,0,1-.6-.26.89.89,0,0,1-.25-.63V32.35a.45.45,0,0,0-.12-.31.46.46,0,0,0-.31-.13H61.67a.82.82,0,0,1-.61-.25A.87.87,0,0,1,60.81,31Z" transform="translate(0.38 0.38)"/><path class="cls-2" d="M68.33,40.94V39.4a.84.84,0,0,1,.25-.62.83.83,0,0,1,.61-.26H70.7a.38.38,0,0,0,.3-.13.4.4,0,0,0,.13-.31V32.35a.44.44,0,0,0-.43-.44H69.19a.82.82,0,0,1-.61-.25.87.87,0,0,1-.25-.63V29.5a.87.87,0,0,1,.25-.63.82.82,0,0,1,.61-.25H72a.79.79,0,0,1,.6.25.87.87,0,0,1,.25.63v8.58a.4.4,0,0,0,.13.31.38.38,0,0,0,.3.13h5a.38.38,0,0,0,.3-.13.4.4,0,0,0,.13-.31V32.35a.44.44,0,0,0-.43-.44h-1.5a.81.81,0,0,1-.61-.25.88.88,0,0,1-.26-.63V29.5a.88.88,0,0,1,.26-.63.81.81,0,0,1,.61-.25h2.79a.82.82,0,0,1,.61.25.87.87,0,0,1,.25.63V40.94a.84.84,0,0,1-.25.62.83.83,0,0,1-.61.26H69.19a.83.83,0,0,1-.61-.26A.84.84,0,0,1,68.33,40.94Z" transform="translate(0.38 0.38)"/><path class="cls-2" d="M82.51,31V29.5a.91.91,0,0,1,.25-.63.84.84,0,0,1,.61-.25H85.1a.8.8,0,0,1,.6.25.88.88,0,0,1,.26.63v1.32c0,.49.15.58.46.27l1.83-1.85a2,2,0,0,1,1.5-.62H95a.84.84,0,0,1,.61.25.91.91,0,0,1,.25.63V40.94a.89.89,0,0,1-.25.62.85.85,0,0,1-.61.26H90a.83.83,0,0,1-.61-.26.84.84,0,0,1-.25-.62V39.4a.84.84,0,0,1,.25-.62.83.83,0,0,1,.61-.26h3.65a.4.4,0,0,0,.31-.13.44.44,0,0,0,.13-.31V32.35A.46.46,0,0,0,94,32a.44.44,0,0,0-.31-.13H90.15a1.93,1.93,0,0,0-1.49.63L86.8,34.45A2.15,2.15,0,0,0,86.17,36v5a.86.86,0,0,1-.26.63.81.81,0,0,1-.6.26.83.83,0,0,1-.61-.26.85.85,0,0,1-.25-.63V32.35a.46.46,0,0,0-.13-.31.44.44,0,0,0-.31-.13h-.65a.84.84,0,0,1-.61-.25A.91.91,0,0,1,82.51,31Z" transform="translate(0.38 0.38)"/><path class="cls-2" d="M98,40.94V29.5a.87.87,0,0,1,.25-.63.82.82,0,0,1,.61-.25h1.72a.82.82,0,0,1,.61.25.87.87,0,0,1,.25.63V31a.87.87,0,0,1-.25.63.82.82,0,0,1-.61.25h-.43a.44.44,0,0,0-.43.44v5.73a.4.4,0,0,0,.13.31.38.38,0,0,0,.3.13h9.46a.42.42,0,0,0,.31-.13.43.43,0,0,0,.12-.31V32.35a.45.45,0,0,0-.12-.31.46.46,0,0,0-.31-.13h-.43a.82.82,0,0,1-.61-.25.91.91,0,0,1-.25-.63V29.5a.91.91,0,0,1,.25-.63.82.82,0,0,1,.61-.25h1.72a.81.81,0,0,1,.61.25.88.88,0,0,1,.26.63V40.94a.85.85,0,0,1-.26.62.82.82,0,0,1-.61.26h-12a.83.83,0,0,1-.61-.26A.84.84,0,0,1,98,40.94ZM103.16,31V29.5a.87.87,0,0,1,.25-.63.82.82,0,0,1,.61-.25h1.72a.82.82,0,0,1,.61.25.87.87,0,0,1,.25.63v5.94a.84.84,0,0,1-.25.62.85.85,0,0,1-1.22,0,.84.84,0,0,1-.25-.62V32.35a.44.44,0,0,0-.43-.44H104a.82.82,0,0,1-.61-.25A.87.87,0,0,1,103.16,31Z" transform="translate(0.38 0.38)"/><path class="cls-2" d="M113.9,31V29.5a.87.87,0,0,1,.25-.63.82.82,0,0,1,.61-.25h1.72a.82.82,0,0,1,.61.25.87.87,0,0,1,.25.63v1.32c0,.49.16.58.46.27l1.83-1.85a2,2,0,0,1,1.5-.62h5.24a.82.82,0,0,1,.61.25.87.87,0,0,1,.25.63V40.94a.84.84,0,0,1-.25.62.83.83,0,0,1-.61.26h-4.94a.83.83,0,0,1-.61-.26.84.84,0,0,1-.25-.62V39.4a.84.84,0,0,1,.25-.62.83.83,0,0,1,.61-.26h3.65a.42.42,0,0,0,.31-.13.43.43,0,0,0,.12-.31V32.35a.45.45,0,0,0-.12-.31.46.46,0,0,0-.31-.13h-3.55a2,2,0,0,0-1.49.63l-1.86,1.91a2.15,2.15,0,0,0-.63,1.56v5a.85.85,0,0,1-.25.63.85.85,0,0,1-1.22,0,.85.85,0,0,1-.25-.63V32.35a.44.44,0,0,0-.43-.44h-.65a.82.82,0,0,1-.61-.25A.87.87,0,0,1,113.9,31Z" transform="translate(0.38 0.38)"/><path class="cls-2" d="M138,31V29.5a.87.87,0,0,1,.25-.63.82.82,0,0,1,.61-.25h3.65a.82.82,0,0,1,.61.25.87.87,0,0,1,.25.63V45.34a.84.84,0,0,1-.25.62.8.8,0,0,1-.61.26.76.76,0,0,1-.6-.26.84.84,0,0,1-.25-.62v-13a.44.44,0,0,0-.43-.44h-2.37a.82.82,0,0,1-.61-.25A.87.87,0,0,1,138,31Z" transform="translate(0.38 0.38)"/><path class="cls-2" d="M145.49,40.94V39.4a.85.85,0,0,1,.26-.62.81.81,0,0,1,.6-.26H147a.4.4,0,0,0,.31-.13.44.44,0,0,0,.13-.31V32.35a.46.46,0,0,0-.13-.31.44.44,0,0,0-.31-.13h-.22a.8.8,0,0,1-.6-.25.88.88,0,0,1-.26-.63V29.5a.88.88,0,0,1,.26-.63.8.8,0,0,1,.6-.25h10.55a.84.84,0,0,1,.61.25.91.91,0,0,1,.25.63V41a.89.89,0,0,1-.25.63.85.85,0,0,1-.61.26.83.83,0,0,1-.61-.26.85.85,0,0,1-.25-.63V32.35a.46.46,0,0,0-.13-.31.43.43,0,0,0-.3-.13h-6.45a.46.46,0,0,0-.31.13.45.45,0,0,0-.12.31v8.59a.89.89,0,0,1-.25.62.85.85,0,0,1-.61.26h-2a.81.81,0,0,1-.6-.26A.85.85,0,0,1,145.49,40.94Z" transform="translate(0.38 0.38)"/><path class="cls-2" d="M160.33,31V29.5a.87.87,0,0,1,.25-.63.82.82,0,0,1,.61-.25h1.72a.82.82,0,0,1,.61.25.87.87,0,0,1,.25.63v1.32c0,.49.16.58.47.27l1.82-1.85a2,2,0,0,1,1.5-.62h5.24a.81.81,0,0,1,.61.25.88.88,0,0,1,.26.63V40.94a.85.85,0,0,1-.26.62.82.82,0,0,1-.61.26h-4.94a.83.83,0,0,1-.61-.26.84.84,0,0,1-.25-.62V39.4a.84.84,0,0,1,.25-.62.83.83,0,0,1,.61-.26h3.65a.42.42,0,0,0,.31-.13.43.43,0,0,0,.12-.31V32.35a.45.45,0,0,0-.12-.31.46.46,0,0,0-.31-.13H168a2,2,0,0,0-1.49.63l-1.86,1.91A2.15,2.15,0,0,0,164,36v5a.85.85,0,0,1-.25.63.83.83,0,0,1-.61.26.85.85,0,0,1-.61-.26.89.89,0,0,1-.25-.63V32.35a.45.45,0,0,0-.12-.31.46.46,0,0,0-.31-.13h-.65a.82.82,0,0,1-.61-.25A.87.87,0,0,1,160.33,31Z" transform="translate(0.38 0.38)"/><path class="cls-2" d="M20,67.34V65.8a.84.84,0,0,1,.25-.62.83.83,0,0,1,.61-.26h.65a.38.38,0,0,0,.3-.13.4.4,0,0,0,.13-.31V58.75a.44.44,0,0,0-.43-.44h-.22a.82.82,0,0,1-.61-.25.87.87,0,0,1-.25-.63V55.9a.87.87,0,0,1,.25-.63.82.82,0,0,1,.61-.25H31.79a.82.82,0,0,1,.61.25.87.87,0,0,1,.25.63V67.44a.85.85,0,0,1-.25.63.85.85,0,0,1-1.22,0,.85.85,0,0,1-.25-.63V58.75a.44.44,0,0,0-.43-.44H24.05a.44.44,0,0,0-.43.44v8.59a.84.84,0,0,1-.25.62.83.83,0,0,1-.61.26H20.82a.83.83,0,0,1-.61-.26A.84.84,0,0,1,20,67.34Z" transform="translate(0.38 0.38)"/><path class="cls-2" d="M34.79,57.43V55.9a.91.91,0,0,1,.25-.63.84.84,0,0,1,.61-.25h3.66a.82.82,0,0,1,.61.25.91.91,0,0,1,.25.63V67.44a.89.89,0,0,1-.25.63.85.85,0,0,1-1.22,0,.88.88,0,0,1-.24-.63V58.75a.44.44,0,0,0-.43-.44H35.65a.84.84,0,0,1-.61-.25A.91.91,0,0,1,34.79,57.43Z" transform="translate(0.38 0.38)"/><path class="cls-2" d="M42.31,67.34V55.9a.91.91,0,0,1,.25-.63.82.82,0,0,1,.61-.25h1.72a.81.81,0,0,1,.61.25.88.88,0,0,1,.26.63v1.53a.88.88,0,0,1-.26.63.81.81,0,0,1-.61.25h-.43a.42.42,0,0,0-.3.13.46.46,0,0,0-.13.31v5.73a.44.44,0,0,0,.13.31.38.38,0,0,0,.3.13h9.46a.4.4,0,0,0,.31-.13.43.43,0,0,0,.12-.31V58.75a.45.45,0,0,0-.12-.31.44.44,0,0,0-.31-.13h-.43a.8.8,0,0,1-.6-.25.88.88,0,0,1-.26-.63V55.9a.88.88,0,0,1,.26-.63.8.8,0,0,1,.6-.25h1.73a.84.84,0,0,1,.61.25.91.91,0,0,1,.25.63V67.34a.89.89,0,0,1-.25.62.85.85,0,0,1-.61.26h-12a.83.83,0,0,1-.61-.26A.89.89,0,0,1,42.31,67.34Zm5.17-9.91V55.9a.87.87,0,0,1,.25-.63.82.82,0,0,1,.61-.25h1.72a.82.82,0,0,1,.61.25.87.87,0,0,1,.25.63v5.94a.84.84,0,0,1-.25.62.85.85,0,0,1-1.22,0,.84.84,0,0,1-.25-.62V58.75a.44.44,0,0,0-.43-.44h-.43a.82.82,0,0,1-.61-.25A.87.87,0,0,1,47.48,57.43Z" transform="translate(0.38 0.38)"/><path class="cls-2" d="M58.22,57.43V55.9a.87.87,0,0,1,.25-.63.82.82,0,0,1,.61-.25h3.65a.81.81,0,0,1,.61.25.88.88,0,0,1,.26.63v5.94a.85.85,0,0,1-.26.62.83.83,0,0,1-1.21,0,.89.89,0,0,1-.25-.62V58.75a.45.45,0,0,0-.12-.31.46.46,0,0,0-.31-.13H59.08a.82.82,0,0,1-.61-.25A.87.87,0,0,1,58.22,57.43Z" transform="translate(0.38 0.38)"/><path class="cls-2" d="M65.74,57.43V55.9a.87.87,0,0,1,.25-.63A.82.82,0,0,1,66.6,55h9.46a.82.82,0,0,1,.61.25.87.87,0,0,1,.25.63V67.44a.85.85,0,0,1-.25.63.83.83,0,0,1-.61.26.79.79,0,0,1-.6-.26.85.85,0,0,1-.25-.63V58.75a.44.44,0,0,0-.43-.44H66.6a.82.82,0,0,1-.61-.25A.87.87,0,0,1,65.74,57.43Z" transform="translate(0.38 0.38)"/><path class="cls-2" d="M79.06,57.43V55.9a.91.91,0,0,1,.25-.63.82.82,0,0,1,.61-.25H90.46a.81.81,0,0,1,.61.25.88.88,0,0,1,.26.63v1.53a.88.88,0,0,1-.26.63.81.81,0,0,1-.61.25H89.6a.42.42,0,0,0-.3.13.46.46,0,0,0-.13.31v8.69a.85.85,0,0,1-.25.63.85.85,0,0,1-1.22,0,.89.89,0,0,1-.25-.63V58.75a.45.45,0,0,0-.12-.31.46.46,0,0,0-.31-.13h-7.1a.82.82,0,0,1-.61-.25A.91.91,0,0,1,79.06,57.43Z" transform="translate(0.38 0.38)"/><path class="cls-2" d="M102.29,67.34V65.8a.84.84,0,0,1,.25-.62.83.83,0,0,1,.61-.26h1.93a.83.83,0,0,1,.61.26.84.84,0,0,1,.25.62v3.74a.84.84,0,0,1-.25.62.85.85,0,0,1-1.22,0,.84.84,0,0,1-.25-.62v-.88a.4.4,0,0,0-.13-.31.38.38,0,0,0-.3-.13h-.64a.83.83,0,0,1-.61-.26A.84.84,0,0,1,102.29,67.34Z" transform="translate(0.38 0.38)"/><path class="cls-2" d="M108.3,67.34V65.8a.84.84,0,0,1,.25-.62.83.83,0,0,1,.61-.26h.65a.38.38,0,0,0,.3-.13.4.4,0,0,0,.13-.31V58.75a.44.44,0,0,0-.43-.44h-.22a.82.82,0,0,1-.61-.25.87.87,0,0,1-.25-.63V55.9a.87.87,0,0,1,.25-.63.82.82,0,0,1,.61-.25h10.54a.82.82,0,0,1,.61.25.87.87,0,0,1,.25.63V67.44a.85.85,0,0,1-.25.63.85.85,0,0,1-1.22,0,.85.85,0,0,1-.25-.63V58.75a.44.44,0,0,0-.43-.44h-6.45a.44.44,0,0,0-.43.44v8.59a.84.84,0,0,1-.25.62.83.83,0,0,1-.61.26h-1.94a.83.83,0,0,1-.61-.26A.84.84,0,0,1,108.3,67.34Z" transform="translate(0.38 0.38)"/><path class="cls-2" d="M123.13,57.43V55.9a.91.91,0,0,1,.25-.63A.82.82,0,0,1,124,55h3.66a.84.84,0,0,1,.61.25.91.91,0,0,1,.25.63V67.44a.89.89,0,0,1-.25.63.85.85,0,0,1-.61.26.83.83,0,0,1-.61-.26.88.88,0,0,1-.24-.63V58.75a.46.46,0,0,0-.13-.31.43.43,0,0,0-.3-.13H124a.82.82,0,0,1-.61-.25A.91.91,0,0,1,123.13,57.43Z" transform="translate(0.38 0.38)"/><path class="cls-2" d="M130.65,57.43V55.9a.87.87,0,0,1,.25-.63.82.82,0,0,1,.61-.25h3.66a.8.8,0,0,1,.6.25.88.88,0,0,1,.26.63v5.94a.85.85,0,0,1-.26.62.81.81,0,0,1-.6.26.83.83,0,0,1-.61-.26.89.89,0,0,1-.25-.62V58.75a.45.45,0,0,0-.12-.31.46.46,0,0,0-.31-.13h-2.37a.82.82,0,0,1-.61-.25A.87.87,0,0,1,130.65,57.43Z" transform="translate(0.38 0.38)"/><path class="cls-2" d="M138.17,67.34V55.9a.87.87,0,0,1,.25-.63A.82.82,0,0,1,139,55a.88.88,0,0,1,.61.28l6.73,6.43,2-2.07a.44.44,0,0,0,.12-.3v-.61a.45.45,0,0,0-.12-.31.46.46,0,0,0-.31-.13h-1.55a.82.82,0,0,1-.61-.25.87.87,0,0,1-.25-.63V55.9a.87.87,0,0,1,.25-.63.82.82,0,0,1,.61-.25h2.83a.82.82,0,0,1,.61.25.87.87,0,0,1,.25.63v3.54a1.72,1.72,0,0,1-.44,1.3l-2.2,2.18,2.27,2.16a1.31,1.31,0,0,1,.38,1V67.7c0,.42-.19.63-.59.63A.9.9,0,0,1,149,68l-8.4-7.92a.42.42,0,0,0-.31-.13.38.38,0,0,0-.3.13.4.4,0,0,0-.13.31v4.07a.4.4,0,0,0,.13.31.38.38,0,0,0,.3.13H141a.83.83,0,0,1,.61.26.84.84,0,0,1,.25.62v1.54a.84.84,0,0,1-.25.62.83.83,0,0,1-.61.26H139a.83.83,0,0,1-.61-.26A.84.84,0,0,1,138.17,67.34Z" transform="translate(0.38 0.38)"/><path class="cls-2" d="M152.4,57.43V55.9a.87.87,0,0,1,.25-.63.82.82,0,0,1,.61-.25h3.65a.82.82,0,0,1,.61.25.87.87,0,0,1,.25.63V67.44a.85.85,0,0,1-.25.63.83.83,0,0,1-.61.26.79.79,0,0,1-.6-.26.85.85,0,0,1-.25-.63V58.75a.44.44,0,0,0-.43-.44h-2.37a.82.82,0,0,1-.61-.25A.87.87,0,0,1,152.4,57.43Z" transform="translate(0.38 0.38)"/><path class="cls-2" d="M159.92,67.34V65.8a.84.84,0,0,1,.25-.62.82.82,0,0,1,.61-.26h8.39a.39.39,0,0,0,.3-.13.44.44,0,0,0,.13-.31V58.75a.46.46,0,0,0-.13-.31.43.43,0,0,0-.3-.13h-7.1a.46.46,0,0,0-.31.13.45.45,0,0,0-.12.31v.8a.45.45,0,0,0,.12.31.42.42,0,0,0,.31.13h.65a.83.83,0,0,1,.61.26.84.84,0,0,1,.25.62v1.54a.84.84,0,0,1-.25.62.83.83,0,0,1-.61.26h-1.94a.82.82,0,0,1-.61-.26.84.84,0,0,1-.25-.62V55.9a.87.87,0,0,1,.25-.63.81.81,0,0,1,.61-.25h9.68a.82.82,0,0,1,.61.25.91.91,0,0,1,.25.63V67.34a.89.89,0,0,1-.25.62.83.83,0,0,1-.61.26h-9.68a.82.82,0,0,1-.61-.26A.84.84,0,0,1,159.92,67.34Z" transform="translate(0.38 0.38)"/><path class="cls-2" d="M173.46,57.43V55.9a.87.87,0,0,1,.25-.63.82.82,0,0,1,.61-.25h9.46a.82.82,0,0,1,.61.25.87.87,0,0,1,.25.63V67.44a.85.85,0,0,1-.25.63.83.83,0,0,1-.61.26.79.79,0,0,1-.6-.26.85.85,0,0,1-.25-.63V58.75a.44.44,0,0,0-.43-.44h-8.18a.82.82,0,0,1-.61-.25A.87.87,0,0,1,173.46,57.43Z" transform="translate(0.38 0.38)"/><path class="cls-2" d="M22.11,83.83V82.3a.88.88,0,0,1,.26-.63.8.8,0,0,1,.6-.25h3.66a.82.82,0,0,1,.61.25.87.87,0,0,1,.25.63v5.94a.84.84,0,0,1-.25.62.85.85,0,0,1-1.22,0,.88.88,0,0,1-.24-.62V85.15a.44.44,0,0,0-.43-.44H23a.8.8,0,0,1-.6-.25A.88.88,0,0,1,22.11,83.83Z" transform="translate(0.38 0.38)"/><path class="cls-2" d="M29.63,83.83V75.7a.89.89,0,0,1,.25-.62.83.83,0,0,1,.61-.26h1.72a.82.82,0,0,1,.61.26.85.85,0,0,1,.26.62v1.54a.85.85,0,0,1-.26.62.82.82,0,0,1-.61.26h-.43a.39.39,0,0,0-.3.13.44.44,0,0,0-.13.31V81a.46.46,0,0,0,.13.31.43.43,0,0,0,.3.13H40.6a.81.81,0,0,1,.61.25.88.88,0,0,1,.26.63V93.74a.85.85,0,0,1-.26.62.82.82,0,0,1-.61.26H35.87a.83.83,0,0,1-.61-.26.84.84,0,0,1-.25-.62V92.2a.84.84,0,0,1,.25-.62.83.83,0,0,1,.61-.26h3.44a.42.42,0,0,0,.31-.13.45.45,0,0,0,.12-.31V85.15a.45.45,0,0,0-.12-.31.46.46,0,0,0-.31-.13H30.49a.82.82,0,0,1-.61-.25A.91.91,0,0,1,29.63,83.83Z" transform="translate(0.38 0.38)"/><path class="cls-2" d="M43.61,83.83V82.3a.87.87,0,0,1,.25-.63.82.82,0,0,1,.61-.25h3.65a.82.82,0,0,1,.61.25.87.87,0,0,1,.25.63V93.84a.85.85,0,0,1-.25.63.83.83,0,0,1-.61.26.79.79,0,0,1-.6-.26.85.85,0,0,1-.25-.63V85.15a.45.45,0,0,0-.12-.31.46.46,0,0,0-.31-.13H44.47a.82.82,0,0,1-.61-.25A.87.87,0,0,1,43.61,83.83Z" transform="translate(0.38 0.38)"/><path class="cls-2" d="M51.13,93.74V92.2a.84.84,0,0,1,.25-.62.83.83,0,0,1,.61-.26h8.39a.38.38,0,0,0,.3-.13.42.42,0,0,0,.13-.31V85.15a.44.44,0,0,0-.43-.44h-7.1a.46.46,0,0,0-.31.13.45.45,0,0,0-.12.31V86a.45.45,0,0,0,.12.31.42.42,0,0,0,.31.13h.65a.83.83,0,0,1,.61.26.84.84,0,0,1,.25.62v1.54a.84.84,0,0,1-.25.62.83.83,0,0,1-.61.26H52a.83.83,0,0,1-.61-.26.84.84,0,0,1-.25-.62V82.3a.87.87,0,0,1,.25-.63.82.82,0,0,1,.61-.25h9.68a.82.82,0,0,1,.61.25.91.91,0,0,1,.25.63V93.74a.89.89,0,0,1-.25.62.83.83,0,0,1-.61.26H52a.83.83,0,0,1-.61-.26A.84.84,0,0,1,51.13,93.74Z" transform="translate(0.38 0.38)"/><path class="cls-2" d="M64.67,83.83V82.3a.87.87,0,0,1,.25-.63.82.82,0,0,1,.61-.25h3.66a.84.84,0,0,1,.61.25.91.91,0,0,1,.25.63v5.94a.89.89,0,0,1-.25.62.85.85,0,0,1-.61.26.83.83,0,0,1-.61-.26.88.88,0,0,1-.24-.62V85.15a.46.46,0,0,0-.13-.31.43.43,0,0,0-.3-.13H65.53a.82.82,0,0,1-.61-.25A.87.87,0,0,1,64.67,83.83Z" transform="translate(0.38 0.38)"/><path class="cls-2" d="M72.19,93.74V82.3a.87.87,0,0,1,.25-.63.82.82,0,0,1,.61-.25h1.72a.82.82,0,0,1,.61.25.87.87,0,0,1,.25.63v1.53a.87.87,0,0,1-.25.63.82.82,0,0,1-.61.25h-.43a.44.44,0,0,0-.43.44v5.73a.42.42,0,0,0,.13.31.38.38,0,0,0,.3.13h8.17a.42.42,0,0,0,.31-.13.45.45,0,0,0,.12-.31V85.15a.45.45,0,0,0-.12-.31.46.46,0,0,0-.31-.13H81.7a2.58,2.58,0,0,0-1.49.47l-1.69.9c-.24.15-.45.17-.6,0a.68.68,0,0,1-.24-.6v-1.7a1.89,1.89,0,0,1,.14-.77,1.3,1.3,0,0,1,.49-.5l1.19-.68a2.93,2.93,0,0,1,1.5-.46h2.8a.82.82,0,0,1,.61.25.87.87,0,0,1,.25.63V93.74a.84.84,0,0,1-.25.62.83.83,0,0,1-.61.26H73.05a.83.83,0,0,1-.61-.26A.84.84,0,0,1,72.19,93.74Z" transform="translate(0.38 0.38)"/><path class="cls-2" d="M86.81,83.83V82.3a.87.87,0,0,1,.25-.63.82.82,0,0,1,.61-.25H97.78a.82.82,0,0,1,.61.25.87.87,0,0,1,.25.63V93.84a.85.85,0,0,1-.25.63.85.85,0,0,1-1.22,0,.85.85,0,0,1-.25-.63V85.15a.44.44,0,0,0-.43-.44H87.67a.82.82,0,0,1-.61-.25A.87.87,0,0,1,86.81,83.83Zm0,9.91V88.9a.84.84,0,0,1,.25-.62.83.83,0,0,1,.61-.26.85.85,0,0,1,.61.26.89.89,0,0,1,.25.62v2a.45.45,0,0,0,.12.31.42.42,0,0,0,.31.13h.65a.83.83,0,0,1,.61.26.84.84,0,0,1,.25.62v1.54a.84.84,0,0,1-.25.62.83.83,0,0,1-.61.26H87.67a.83.83,0,0,1-.61-.26A.84.84,0,0,1,86.81,93.74Z" transform="translate(0.38 0.38)"/><path class="cls-2" d="M109.38,93.84V92.45a.81.81,0,0,1,.41-.74l4.78-2.84a.8.8,0,0,0,.41-.73v-3a.44.44,0,0,0-.43-.44h-2.36a.81.81,0,0,1-.61-.25.88.88,0,0,1-.26-.63V82.3a.88.88,0,0,1,.26-.63.81.81,0,0,1,.61-.25h3.65a.82.82,0,0,1,.61.25.87.87,0,0,1,.25.63V93.84a.85.85,0,0,1-.25.63.85.85,0,0,1-1.22,0,.85.85,0,0,1-.25-.63V93a.45.45,0,0,0-.51-.52,1.26,1.26,0,0,0-.54.22l-3.06,1.8-.13.08-.17.1-.14,0a.72.72,0,0,1-.19,0,.83.83,0,0,1-.61-.26A.89.89,0,0,1,109.38,93.84Z" transform="translate(0.38 0.38)"/><path class="cls-2" d="M118.84,83.83V82.3a.91.91,0,0,1,.25-.63.84.84,0,0,1,.61-.25h9.46a.81.81,0,0,1,.61.25.88.88,0,0,1,.26.63V93.84a.86.86,0,0,1-.26.63.83.83,0,0,1-1.21,0,.89.89,0,0,1-.25-.63V85.15a.45.45,0,0,0-.12-.31.46.46,0,0,0-.31-.13H119.7a.84.84,0,0,1-.61-.25A.91.91,0,0,1,118.84,83.83Z" transform="translate(0.38 0.38)"/><path class="cls-2" d="M132.17,83.83V82.3a.87.87,0,0,1,.25-.63.82.82,0,0,1,.61-.25h10.54a.82.82,0,0,1,.61.25.87.87,0,0,1,.25.63v1.53a.87.87,0,0,1-.25.63.82.82,0,0,1-.61.25h-.86a.44.44,0,0,0-.43.44v8.69a.85.85,0,0,1-.25.63.85.85,0,0,1-1.22,0,.85.85,0,0,1-.25-.63V85.15a.44.44,0,0,0-.43-.44H133a.82.82,0,0,1-.61-.25A.87.87,0,0,1,132.17,83.83Z" transform="translate(0.38 0.38)"/><path class="cls-2" d="M146.57,83.83V82.3a.88.88,0,0,1,.26-.63.8.8,0,0,1,.6-.25h10.12a.84.84,0,0,1,.61.25.91.91,0,0,1,.25.63V93.84a.89.89,0,0,1-.25.63.85.85,0,0,1-.61.26.83.83,0,0,1-.61-.26.85.85,0,0,1-.25-.63V85.15a.46.46,0,0,0-.13-.31.44.44,0,0,0-.31-.13h-8.82a.8.8,0,0,1-.6-.25A.88.88,0,0,1,146.57,83.83Zm0,9.91V88.9a.85.85,0,0,1,.26-.62.83.83,0,0,1,1.21,0,.85.85,0,0,1,.26.62v2a.45.45,0,0,0,.12.31.42.42,0,0,0,.31.13h.65a.83.83,0,0,1,.61.26.89.89,0,0,1,.25.62v1.54a.89.89,0,0,1-.25.62.83.83,0,0,1-.61.26h-1.95a.81.81,0,0,1-.6-.26A.85.85,0,0,1,146.57,93.74Z" transform="translate(0.38 0.38)"/><path class="cls-2" d="M160.55,83.83V82.3a.87.87,0,0,1,.25-.63.82.82,0,0,1,.61-.25h1.72a.82.82,0,0,1,.61.25.87.87,0,0,1,.25.63v1.32c0,.49.16.58.47.27L166.28,82a2,2,0,0,1,1.5-.62H173a.82.82,0,0,1,.61.25.87.87,0,0,1,.25.63V93.74a.84.84,0,0,1-.25.62.83.83,0,0,1-.61.26h-4.94a.83.83,0,0,1-.61-.26.84.84,0,0,1-.25-.62V92.2a.84.84,0,0,1,.25-.62.83.83,0,0,1,.61-.26h3.65a.42.42,0,0,0,.31-.13.45.45,0,0,0,.12-.31V85.15a.45.45,0,0,0-.12-.31.46.46,0,0,0-.31-.13h-3.55a2,2,0,0,0-1.49.63l-1.86,1.91a2.15,2.15,0,0,0-.63,1.56v5a.85.85,0,0,1-.25.63.83.83,0,0,1-.61.26.85.85,0,0,1-.61-.26.89.89,0,0,1-.25-.63V85.15a.45.45,0,0,0-.12-.31.46.46,0,0,0-.31-.13h-.65a.82.82,0,0,1-.61-.25A.87.87,0,0,1,160.55,83.83Z" transform="translate(0.38 0.38)"/><path class="cls-2" d="M37.56,110.23V108.7a.88.88,0,0,1,.26-.63.81.81,0,0,1,.61-.25H49a.82.82,0,0,1,.61.25.91.91,0,0,1,.25.63v1.53a.91.91,0,0,1-.25.63.82.82,0,0,1-.61.25h-.86a.46.46,0,0,0-.31.13.45.45,0,0,0-.12.31v8.7a.85.85,0,0,1-.26.62.83.83,0,0,1-1.21,0,.85.85,0,0,1-.26-.62v-8.7a.45.45,0,0,0-.12-.31.46.46,0,0,0-.31-.13H38.43a.81.81,0,0,1-.61-.25A.88.88,0,0,1,37.56,110.23Z" transform="translate(0.38 0.38)"/><path class="cls-2" d="M52,110.23V108.7a.87.87,0,0,1,.25-.63.82.82,0,0,1,.61-.25h9.89a.82.82,0,0,1,.61.25.87.87,0,0,1,.25.63v11.44a.84.84,0,0,1-.25.62.83.83,0,0,1-.61.26H57.14a.83.83,0,0,1-.61-.26.84.84,0,0,1-.25-.62V118.6a.84.84,0,0,1,.25-.62.83.83,0,0,1,.61-.26h4.3a.38.38,0,0,0,.3-.13.43.43,0,0,0,.12-.31v-5.73a.45.45,0,0,0-.12-.31.42.42,0,0,0-.3-.13H52.83a.82.82,0,0,1-.61-.25A.87.87,0,0,1,52,110.23Zm0,14.31v-10.3a.84.84,0,0,1,.25-.62.83.83,0,0,1,.61-.26h.22a.83.83,0,0,1,.61.26.84.84,0,0,1,.25.62v10.3a.87.87,0,0,1-.25.63.82.82,0,0,1-.61.25h-.22a.82.82,0,0,1-.61-.25A.87.87,0,0,1,52,124.54Z" transform="translate(0.38 0.38)"/><path class="cls-2" d="M65.73,120.14V118.6A.84.84,0,0,1,66,118a.83.83,0,0,1,.61-.26H75a.38.38,0,0,0,.3-.13.4.4,0,0,0,.13-.31v-5.73a.44.44,0,0,0-.43-.44h-7.1a.46.46,0,0,0-.31.13.45.45,0,0,0-.12.31v.8a.43.43,0,0,0,.12.31.42.42,0,0,0,.31.13h.65a.83.83,0,0,1,.61.26.84.84,0,0,1,.25.62v1.54a.84.84,0,0,1-.25.62.83.83,0,0,1-.61.26H66.59a.83.83,0,0,1-.61-.26.84.84,0,0,1-.25-.62V108.7a.87.87,0,0,1,.25-.63.82.82,0,0,1,.61-.25h9.68a.82.82,0,0,1,.61.25.91.91,0,0,1,.25.63v11.44a.89.89,0,0,1-.25.62.83.83,0,0,1-.61.26H66.59a.83.83,0,0,1-.61-.26A.84.84,0,0,1,65.73,120.14Z" transform="translate(0.38 0.38)"/><path class="cls-2" d="M79.27,110.23V108.7a.87.87,0,0,1,.25-.63.82.82,0,0,1,.61-.25h1.72a.81.81,0,0,1,.61.25.88.88,0,0,1,.26.63V110c0,.49.15.58.46.27L85,108.44a2,2,0,0,1,1.51-.62h5.24a.8.8,0,0,1,.6.25.88.88,0,0,1,.26.63v11.44a.85.85,0,0,1-.26.62.81.81,0,0,1-.6.26h-5a.83.83,0,0,1-.61-.26.84.84,0,0,1-.25-.62V118.6a.84.84,0,0,1,.25-.62.83.83,0,0,1,.61-.26h3.65a.4.4,0,0,0,.31-.13.43.43,0,0,0,.12-.31v-5.73a.45.45,0,0,0-.12-.31.44.44,0,0,0-.31-.13H86.9a2,2,0,0,0-1.49.63l-1.85,1.91a2.15,2.15,0,0,0-.63,1.56v5a.85.85,0,0,1-.26.62.83.83,0,0,1-1.21,0,.85.85,0,0,1-.26-.62v-8.7a.45.45,0,0,0-.12-.31.46.46,0,0,0-.31-.13h-.65a.82.82,0,0,1-.61-.25A.87.87,0,0,1,79.27,110.23Z" transform="translate(0.38 0.38)"/><path class="cls-2" d="M94.75,110.23V102.1a.84.84,0,0,1,.25-.62.83.83,0,0,1,.61-.26h1.72a.83.83,0,0,1,.61.26.84.84,0,0,1,.25.62v1.54a.84.84,0,0,1-.25.62.83.83,0,0,1-.61.26H96.9a.38.38,0,0,0-.3.13.4.4,0,0,0-.13.31v2.42a.44.44,0,0,0,.43.44h8.82a.82.82,0,0,1,.61.25.87.87,0,0,1,.25.63v11.44a.84.84,0,0,1-.25.62.83.83,0,0,1-.61.26H101a.82.82,0,0,1-.61-.26.85.85,0,0,1-.26-.62V118.6a.85.85,0,0,1,.26-.62.82.82,0,0,1,.61-.26h3.44a.38.38,0,0,0,.3-.13.4.4,0,0,0,.13-.31v-5.73a.44.44,0,0,0-.43-.44H95.61a.82.82,0,0,1-.61-.25A.87.87,0,0,1,94.75,110.23Z" transform="translate(0.38 0.38)"/><path class="cls-2" d="M117.33,120.14V108.7a.87.87,0,0,1,.25-.63.82.82,0,0,1,.61-.25.84.84,0,0,1,.6.28l6.74,6.43,2-2.07a.41.41,0,0,0,.13-.3v-.61a.44.44,0,0,0-.43-.44h-1.56a.8.8,0,0,1-.6-.25.88.88,0,0,1-.26-.63V108.7a.88.88,0,0,1,.26-.63.8.8,0,0,1,.6-.25h2.84a.82.82,0,0,1,.61.25.87.87,0,0,1,.25.63v3.54a1.76,1.76,0,0,1-.44,1.3l-2.21,2.18,2.27,2.16a1.3,1.3,0,0,1,.39,1v1.62q0,.63-.6.63a1,1,0,0,1-.64-.3l-8.4-7.93a.38.38,0,0,0-.3-.13.42.42,0,0,0-.31.13.43.43,0,0,0-.12.31v4.07a.43.43,0,0,0,.12.31.42.42,0,0,0,.31.13h.65a.83.83,0,0,1,.61.26.84.84,0,0,1,.25.62v1.54a.84.84,0,0,1-.25.62.83.83,0,0,1-.61.26h-1.94a.83.83,0,0,1-.61-.26A.84.84,0,0,1,117.33,120.14Z" transform="translate(0.38 0.38)"/><path class="cls-2" d="M131.55,120.14V118.6a.89.89,0,0,1,.25-.62.85.85,0,0,1,.61-.26h8a.42.42,0,0,0,.31-.13.43.43,0,0,0,.12-.31v-5.73a.45.45,0,0,0-.12-.31.46.46,0,0,0-.31-.13h-8a.84.84,0,0,1-.61-.25.91.91,0,0,1-.25-.63V108.7a.91.91,0,0,1,.25-.63.84.84,0,0,1,.61-.25h9.25a.81.81,0,0,1,.61.25.88.88,0,0,1,.26.63v8.58a.43.43,0,0,0,.12.31.42.42,0,0,0,.31.13h.64a.85.85,0,0,1,.61.26.89.89,0,0,1,.25.62v1.54a.89.89,0,0,1-.25.62.85.85,0,0,1-.61.26H132.41a.85.85,0,0,1-.61-.26A.89.89,0,0,1,131.55,120.14Z" transform="translate(0.38 0.38)"/><path class="cls-2" d="M146.6,110.23V108.7a.87.87,0,0,1,.25-.63.82.82,0,0,1,.61-.25h10.11a.82.82,0,0,1,.61.25.87.87,0,0,1,.25.63v11.55a.84.84,0,0,1-.25.62.85.85,0,0,1-1.22,0,.84.84,0,0,1-.25-.62v-8.7a.44.44,0,0,0-.43-.44h-8.82a.82.82,0,0,1-.61-.25A.87.87,0,0,1,146.6,110.23Zm0,9.91V115.3a.84.84,0,0,1,.25-.62.85.85,0,0,1,1.22,0,.84.84,0,0,1,.25.62v2a.4.4,0,0,0,.13.31.38.38,0,0,0,.3.13h.65a.83.83,0,0,1,.61.26.84.84,0,0,1,.25.62v1.54a.84.84,0,0,1-.25.62.83.83,0,0,1-.61.26h-1.94a.83.83,0,0,1-.61-.26A.84.84,0,0,1,146.6,120.14Z" transform="translate(0.38 0.38)"/><path class="cls-2" d="M16.83,146.54V145a.84.84,0,0,1,.25-.62.83.83,0,0,1,.61-.26h.65a.38.38,0,0,0,.3-.13.4.4,0,0,0,.13-.31V138a.44.44,0,0,0-.43-.44h-.22a.82.82,0,0,1-.61-.25.87.87,0,0,1-.25-.63V135.1a.87.87,0,0,1,.25-.63.82.82,0,0,1,.61-.25H28.66a.82.82,0,0,1,.61.25.87.87,0,0,1,.25.63v11.54a.85.85,0,0,1-.25.63.85.85,0,0,1-1.22,0,.85.85,0,0,1-.25-.63V138a.44.44,0,0,0-.43-.44H20.92a.44.44,0,0,0-.43.44v8.59a.84.84,0,0,1-.25.62.83.83,0,0,1-.61.26H17.69a.83.83,0,0,1-.61-.26A.84.84,0,0,1,16.83,146.54Z" transform="translate(0.38 0.38)"/><path class="cls-2" d="M31.66,136.63V135.1a.88.88,0,0,1,.26-.63.8.8,0,0,1,.6-.25h3.66a.82.82,0,0,1,.61.25.87.87,0,0,1,.25.63V141a.84.84,0,0,1-.25.62.83.83,0,0,1-.61.26.79.79,0,0,1-.6-.26.84.84,0,0,1-.25-.62V138a.44.44,0,0,0-.43-.44H32.52a.8.8,0,0,1-.6-.25A.88.88,0,0,1,31.66,136.63Z" transform="translate(0.38 0.38)"/><path class="cls-2" d="M39.18,146.54V135.1a.91.91,0,0,1,.25-.63.82.82,0,0,1,.61-.25.86.86,0,0,1,.61.28l6.73,6.43,2-2.07a.45.45,0,0,0,.13-.3V138a.46.46,0,0,0-.13-.31.43.43,0,0,0-.3-.13H47.57a.82.82,0,0,1-.61-.25.87.87,0,0,1-.25-.63V135.1a.87.87,0,0,1,.25-.63.82.82,0,0,1,.61-.25h2.84a.84.84,0,0,1,.61.25.91.91,0,0,1,.25.63v3.54a1.78,1.78,0,0,1-.44,1.3l-2.21,2.18,2.27,2.16a1.3,1.3,0,0,1,.39,1v1.62q0,.63-.6.63a.94.94,0,0,1-.64-.31l-8.4-7.92a.42.42,0,0,0-.31-.13.39.39,0,0,0-.3.13.44.44,0,0,0-.13.31v4.07A.44.44,0,0,0,41,144a.39.39,0,0,0,.3.13H42a.81.81,0,0,1,.6.26.85.85,0,0,1,.26.62v1.54a.85.85,0,0,1-.26.62.81.81,0,0,1-.6.26H40a.83.83,0,0,1-.61-.26A.89.89,0,0,1,39.18,146.54Z" transform="translate(0.38 0.38)"/><path class="cls-2" d="M53.41,146.54V145a.84.84,0,0,1,.25-.62.83.83,0,0,1,.61-.26h8.39A.42.42,0,0,0,63,144a.43.43,0,0,0,.12-.31V138a.45.45,0,0,0-.12-.31.46.46,0,0,0-.31-.13h-7.1a.44.44,0,0,0-.43.44v.8a.42.42,0,0,0,.13.31.38.38,0,0,0,.3.13h.65a.83.83,0,0,1,.61.26.84.84,0,0,1,.25.62v1.54a.84.84,0,0,1-.25.62.83.83,0,0,1-.61.26H54.27a.83.83,0,0,1-.61-.26.84.84,0,0,1-.25-.62V135.1a.87.87,0,0,1,.25-.63.82.82,0,0,1,.61-.25H64a.82.82,0,0,1,.61.25.87.87,0,0,1,.25.63v11.44a.84.84,0,0,1-.25.62.83.83,0,0,1-.61.26H54.27a.83.83,0,0,1-.61-.26A.84.84,0,0,1,53.41,146.54Z" transform="translate(0.38 0.38)"/><path class="cls-2" d="M67,136.63V135.1a.87.87,0,0,1,.25-.63.82.82,0,0,1,.61-.25h3.65a.82.82,0,0,1,.61.25.87.87,0,0,1,.25.63v11.54a.85.85,0,0,1-.25.63.83.83,0,0,1-.61.26.79.79,0,0,1-.6-.26.85.85,0,0,1-.25-.63V138a.44.44,0,0,0-.43-.44H67.82a.82.82,0,0,1-.61-.25A.87.87,0,0,1,67,136.63Z" transform="translate(0.38 0.38)"/><path class="cls-2" d="M74.47,136.63V135.1a.88.88,0,0,1,.26-.63.8.8,0,0,1,.6-.25h9.46a.81.81,0,0,1,.61.25.88.88,0,0,1,.26.63v11.54a.86.86,0,0,1-.26.63.82.82,0,0,1-.61.26.83.83,0,0,1-.6-.26.89.89,0,0,1-.25-.63V138a.45.45,0,0,0-.12-.31.46.46,0,0,0-.31-.13H75.33a.8.8,0,0,1-.6-.25A.88.88,0,0,1,74.47,136.63Z" transform="translate(0.38 0.38)"/><path class="cls-2" d="M87.8,136.63V135.1a.87.87,0,0,1,.25-.63.82.82,0,0,1,.61-.25H98.77a.82.82,0,0,1,.61.25.87.87,0,0,1,.25.63v11.54a.85.85,0,0,1-.25.63.85.85,0,0,1-1.22,0,.85.85,0,0,1-.25-.63V138a.44.44,0,0,0-.43-.44H88.66a.82.82,0,0,1-.61-.25A.87.87,0,0,1,87.8,136.63Zm0,9.91V141.7a.84.84,0,0,1,.25-.62.85.85,0,0,1,1.22,0,.84.84,0,0,1,.25.62v2a.4.4,0,0,0,.13.31.38.38,0,0,0,.3.13h.65a.83.83,0,0,1,.61.26.84.84,0,0,1,.25.62v1.54a.84.84,0,0,1-.25.62.83.83,0,0,1-.61.26H88.66a.83.83,0,0,1-.61-.26A.84.84,0,0,1,87.8,146.54Z" transform="translate(0.38 0.38)"/><path class="cls-2" d="M110.38,136.63V135.1a.87.87,0,0,1,.25-.63.81.81,0,0,1,.61-.25h10.11a.84.84,0,0,1,.61.25.91.91,0,0,1,.25.63v11.54a.89.89,0,0,1-.25.63.85.85,0,0,1-.61.26.83.83,0,0,1-.61-.26.85.85,0,0,1-.25-.63V138a.46.46,0,0,0-.13-.31.43.43,0,0,0-.3-.13h-8.82a.81.81,0,0,1-.61-.25A.87.87,0,0,1,110.38,136.63Zm0,9.91V141.7a.84.84,0,0,1,.25-.62.83.83,0,0,1,1.21,0,.85.85,0,0,1,.26.62v2a.43.43,0,0,0,.12.31.42.42,0,0,0,.31.13h.65a.83.83,0,0,1,.61.26.84.84,0,0,1,.25.62v1.54a.84.84,0,0,1-.25.62.83.83,0,0,1-.61.26h-1.94a.82.82,0,0,1-.61-.26A.84.84,0,0,1,110.38,146.54Z" transform="translate(0.38 0.38)"/><path class="cls-2" d="M124.35,136.63V135.1a.87.87,0,0,1,.25-.63.82.82,0,0,1,.61-.25h3.66a.8.8,0,0,1,.6.25.88.88,0,0,1,.26.63V141a.85.85,0,0,1-.26.62.81.81,0,0,1-.6.26.83.83,0,0,1-.61-.26A.89.89,0,0,1,128,141V138a.45.45,0,0,0-.12-.31.46.46,0,0,0-.31-.13h-2.37a.82.82,0,0,1-.61-.25A.87.87,0,0,1,124.35,136.63Z" transform="translate(0.38 0.38)"/><path class="cls-2" d="M131.87,136.63V128.5a.84.84,0,0,1,.25-.62.83.83,0,0,1,.61-.26h1.72a.83.83,0,0,1,.61.26.84.84,0,0,1,.25.62V130a.84.84,0,0,1-.25.62.83.83,0,0,1-.61.26H134a.38.38,0,0,0-.3.13.4.4,0,0,0-.13.31v2.42a.44.44,0,0,0,.43.44h8.82a.82.82,0,0,1,.61.25.87.87,0,0,1,.25.63v11.44a.84.84,0,0,1-.25.62.83.83,0,0,1-.61.26h-4.73a.82.82,0,0,1-.61-.26.85.85,0,0,1-.26-.62V145a.85.85,0,0,1,.26-.62.82.82,0,0,1,.61-.26h3.44a.38.38,0,0,0,.3-.13.4.4,0,0,0,.13-.31V138a.44.44,0,0,0-.43-.44h-8.82a.82.82,0,0,1-.61-.25A.87.87,0,0,1,131.87,136.63Z" transform="translate(0.38 0.38)"/><path class="cls-2" d="M145.84,136.63V135.1a.88.88,0,0,1,.26-.63.81.81,0,0,1,.61-.25h3.65a.82.82,0,0,1,.61.25.87.87,0,0,1,.25.63v11.54a.85.85,0,0,1-.25.63.83.83,0,0,1-.61.26.79.79,0,0,1-.6-.26.85.85,0,0,1-.25-.63V138a.44.44,0,0,0-.43-.44h-2.37a.81.81,0,0,1-.61-.25A.88.88,0,0,1,145.84,136.63Z" transform="translate(0.38 0.38)"/><path class="cls-2" d="M153.36,146.64V135.1a.91.91,0,0,1,.25-.63.84.84,0,0,1,.61-.25h10.11a.81.81,0,0,1,.61.25.88.88,0,0,1,.26.63v11.54a.86.86,0,0,1-.26.63.83.83,0,0,1-1.21,0,.86.86,0,0,1-.26-.63V138a.45.45,0,0,0-.12-.31.46.46,0,0,0-.31-.13h-7.53a.43.43,0,0,0-.3.13.46.46,0,0,0-.13.31v8.69a.85.85,0,0,1-.25.63.83.83,0,0,1-.61.26.85.85,0,0,1-.61-.26A.89.89,0,0,1,153.36,146.64Z" transform="translate(0.38 0.38)"/><path class="cls-2" d="M167.34,136.63V135.1a.87.87,0,0,1,.25-.63.82.82,0,0,1,.61-.25h10.11a.82.82,0,0,1,.61.25.87.87,0,0,1,.25.63v11.54a.85.85,0,0,1-.25.63.85.85,0,0,1-1.22,0,.85.85,0,0,1-.25-.63V138a.44.44,0,0,0-.43-.44H168.2a.82.82,0,0,1-.61-.25A.87.87,0,0,1,167.34,136.63Zm0,9.91V141.7a.84.84,0,0,1,.25-.62.85.85,0,0,1,1.22,0,.84.84,0,0,1,.25.62v2a.4.4,0,0,0,.13.31.38.38,0,0,0,.3.13h.65a.83.83,0,0,1,.61.26.84.84,0,0,1,.25.62v1.54a.84.84,0,0,1-.25.62.83.83,0,0,1-.61.26H168.2a.83.83,0,0,1-.61-.26A.84.84,0,0,1,167.34,146.54Z" transform="translate(0.38 0.38)"/><path class="cls-2" d="M21.59,173.69V160.75a2.15,2.15,0,0,1,.19-1,1.57,1.57,0,0,1,.68-.67l2.59-1.51.15-.09.15-.1.16-.06.17,0a.8.8,0,0,1,.61.26.88.88,0,0,1,.24.62v1.4a.84.84,0,0,1-.11.43.8.8,0,0,1-.28.32l-2.61,1.56a.38.38,0,0,0-.22.38v9.85a.41.41,0,0,0,.22.39l2.61,1.57a.79.79,0,0,1,.39.74v1.4a.88.88,0,0,1-.24.62.83.83,0,0,1-.61.26.45.45,0,0,1-.18,0l-.15-.05-.16-.1a.56.56,0,0,0-.14-.08l-2.59-1.53a1.57,1.57,0,0,1-.68-.67A2.08,2.08,0,0,1,21.59,173.69Z" transform="translate(0.38 0.38)"/><path class="cls-2" d="M28.9,172.94V171.4a.84.84,0,0,1,.25-.62.83.83,0,0,1,.61-.26h1.93a.83.83,0,0,1,.61.26.84.84,0,0,1,.25.62v1.54a.84.84,0,0,1-.25.62.83.83,0,0,1-.61.26H29.76a.83.83,0,0,1-.61-.26A.84.84,0,0,1,28.9,172.94Z" transform="translate(0.38 0.38)"/><path class="cls-2" d="M35.12,172.94V171.4a.85.85,0,0,1,.26-.62.81.81,0,0,1,.6-.26h1.94a.85.85,0,0,1,.61.26.89.89,0,0,1,.25.62v1.54a.89.89,0,0,1-.25.62.85.85,0,0,1-.61.26H36a.81.81,0,0,1-.6-.26A.85.85,0,0,1,35.12,172.94Z" transform="translate(0.38 0.38)"/><path class="cls-2" d="M41.35,172.94V171.4a.84.84,0,0,1,.25-.62.83.83,0,0,1,.61-.26h1.93a.83.83,0,0,1,.61.26.84.84,0,0,1,.25.62v1.54a.84.84,0,0,1-.25.62.83.83,0,0,1-.61.26H42.21a.83.83,0,0,1-.61-.26A.84.84,0,0,1,41.35,172.94Z" transform="translate(0.38 0.38)"/><path class="cls-2" d="M47.36,163V161.5a.87.87,0,0,1,.25-.63.82.82,0,0,1,.61-.25H58.76a.82.82,0,0,1,.61.25.87.87,0,0,1,.25.63V163a.87.87,0,0,1-.25.63.82.82,0,0,1-.61.25H57.9a.46.46,0,0,0-.31.13.45.45,0,0,0-.12.31V173a.89.89,0,0,1-.25.63.85.85,0,0,1-1.22,0,.85.85,0,0,1-.25-.63v-8.69a.46.46,0,0,0-.13-.31.42.42,0,0,0-.3-.13h-7.1a.82.82,0,0,1-.61-.25A.87.87,0,0,1,47.36,163Z" transform="translate(0.38 0.38)"/><path class="cls-2" d="M61.76,163V161.5a.88.88,0,0,1,.26-.63.8.8,0,0,1,.6-.25h3.66a.82.82,0,0,1,.61.25.87.87,0,0,1,.25.63V173a.85.85,0,0,1-.25.63.85.85,0,0,1-1.22,0,.88.88,0,0,1-.24-.63v-8.69a.44.44,0,0,0-.43-.44H62.62a.8.8,0,0,1-.6-.25A.88.88,0,0,1,61.76,163Z" transform="translate(0.38 0.38)"/><path class="cls-2" d="M69.28,163V161.5a.91.91,0,0,1,.25-.63.82.82,0,0,1,.61-.25H73.8a.84.84,0,0,1,.61.25.91.91,0,0,1,.25.63v5.94a.89.89,0,0,1-.25.62.85.85,0,0,1-.61.26.83.83,0,0,1-.61-.26.88.88,0,0,1-.24-.62v-3.09a.46.46,0,0,0-.13-.31.43.43,0,0,0-.3-.13H70.14a.82.82,0,0,1-.61-.25A.91.91,0,0,1,69.28,163Z" transform="translate(0.38 0.38)"/><path class="cls-2" d="M76.8,163V161.5a.87.87,0,0,1,.25-.63.82.82,0,0,1,.61-.25h2.58a.82.82,0,0,1,.61.25.87.87,0,0,1,.25.63v3.78a.41.41,0,0,0,.23.39l2.57,1.43,2.58-1.52a.4.4,0,0,0,.21-.38v-.85a.45.45,0,0,0-.12-.31.42.42,0,0,0-.3-.13H85a.82.82,0,0,1-.61-.25.87.87,0,0,1-.25-.63V161.5a.87.87,0,0,1,.25-.63.82.82,0,0,1,.61-.25h2.57a.82.82,0,0,1,.61.25.87.87,0,0,1,.25.63v3.88a2.12,2.12,0,0,1-.19,1,1.77,1.77,0,0,1-.68.68l-1.84,1.1L88,169.4a.83.83,0,0,1,.42.76v2.78a.84.84,0,0,1-.25.62.83.83,0,0,1-.61.26H78.09a.83.83,0,0,1-.61-.26.84.84,0,0,1-.25-.62V171.4a.84.84,0,0,1,.25-.62.83.83,0,0,1,.61-.26h6.5c.2,0,.32-.07.35-.22s0-.27-.22-.38l-4.47-2.39a1.66,1.66,0,0,1-.67-.67,2.13,2.13,0,0,1-.2-1v-1.55a.45.45,0,0,0-.12-.31.46.46,0,0,0-.31-.13H77.66a.82.82,0,0,1-.61-.25A.87.87,0,0,1,76.8,163Z" transform="translate(0.38 0.38)"/><path class="cls-2" d="M99.15,172.94V171.4a.85.85,0,0,1,.26-.62.82.82,0,0,1,.61-.26h.65a.38.38,0,0,0,.3-.13.4.4,0,0,0,.13-.31v-5.73a.44.44,0,0,0-.43-.44h-.22a.82.82,0,0,1-.61-.25.87.87,0,0,1-.25-.63V161.5a.87.87,0,0,1,.25-.63.82.82,0,0,1,.61-.25H111a.82.82,0,0,1,.61.25.87.87,0,0,1,.25.63V173a.85.85,0,0,1-.25.63.85.85,0,0,1-1.22,0,.85.85,0,0,1-.25-.63v-8.69a.44.44,0,0,0-.43-.44h-6.45a.44.44,0,0,0-.43.44v8.59a.84.84,0,0,1-.25.62.83.83,0,0,1-.61.26H100a.82.82,0,0,1-.61-.26A.85.85,0,0,1,99.15,172.94Z" transform="translate(0.38 0.38)"/><path class="cls-2" d="M114,172.94V171.4a.89.89,0,0,1,.25-.62.85.85,0,0,1,.61-.26h8.39a.42.42,0,0,0,.31-.13.43.43,0,0,0,.12-.31v-5.73a.45.45,0,0,0-.12-.31.46.46,0,0,0-.31-.13h-7.1a.43.43,0,0,0-.3.13.46.46,0,0,0-.13.31v.8a.44.44,0,0,0,.13.31.39.39,0,0,0,.3.13h.66a.81.81,0,0,1,.6.26.85.85,0,0,1,.26.62V168a.85.85,0,0,1-.26.62.81.81,0,0,1-.6.26h-2a.85.85,0,0,1-.61-.26A.89.89,0,0,1,114,168V161.5a.91.91,0,0,1,.25-.63.84.84,0,0,1,.61-.25h9.68a.81.81,0,0,1,.61.25.88.88,0,0,1,.26.63v11.44a.85.85,0,0,1-.26.62.82.82,0,0,1-.61.26h-9.68a.85.85,0,0,1-.61-.26A.89.89,0,0,1,114,172.94Z" transform="translate(0.38 0.38)"/><path class="cls-2" d="M127.54,163V154.9a.84.84,0,0,1,.25-.62.83.83,0,0,1,.61-.26h1.72a.83.83,0,0,1,.61.26.84.84,0,0,1,.25.62v1.54a.84.84,0,0,1-.25.62.83.83,0,0,1-.61.26h-.43a.42.42,0,0,0-.31.13.43.43,0,0,0-.12.31v2.42a.45.45,0,0,0,.12.31.46.46,0,0,0,.31.13h8.82a.82.82,0,0,1,.61.25.87.87,0,0,1,.25.63v11.44a.84.84,0,0,1-.25.62.83.83,0,0,1-.61.26h-4.74a.81.81,0,0,1-.6-.26.85.85,0,0,1-.26-.62V171.4a.85.85,0,0,1,.26-.62.81.81,0,0,1,.6-.26h3.45a.38.38,0,0,0,.3-.13.4.4,0,0,0,.13-.31v-5.73a.44.44,0,0,0-.43-.44H128.4a.82.82,0,0,1-.61-.25A.87.87,0,0,1,127.54,163Z" transform="translate(0.38 0.38)"/><path class="cls-2" d="M141.51,173V161.5a.88.88,0,0,1,.26-.63.8.8,0,0,1,.6-.25h10.12a.8.8,0,0,1,.6.25.88.88,0,0,1,.26.63V173a.86.86,0,0,1-.26.63.83.83,0,0,1-1.21,0,.86.86,0,0,1-.26-.63v-8.69a.45.45,0,0,0-.12-.31.44.44,0,0,0-.31-.13h-7.52a.46.46,0,0,0-.31.13.45.45,0,0,0-.12.31V173a.86.86,0,0,1-.26.63.83.83,0,0,1-1.21,0A.86.86,0,0,1,141.51,173Z" transform="translate(0.38 0.38)"/><path class="cls-2" d="M155.49,163V161.5a.87.87,0,0,1,.25-.63.82.82,0,0,1,.61-.25h10.11a.82.82,0,0,1,.61.25.87.87,0,0,1,.25.63V173a.85.85,0,0,1-.25.63.85.85,0,0,1-1.22,0,.85.85,0,0,1-.25-.63v-8.69a.44.44,0,0,0-.43-.44h-8.82a.82.82,0,0,1-.61-.25A.87.87,0,0,1,155.49,163Zm0,9.91V168.1a.84.84,0,0,1,.25-.62.85.85,0,0,1,1.22,0,.84.84,0,0,1,.25.62v2a.4.4,0,0,0,.13.31.38.38,0,0,0,.3.13h.65a.83.83,0,0,1,.61.26.84.84,0,0,1,.25.62v1.54a.84.84,0,0,1-.25.62.83.83,0,0,1-.61.26h-1.94a.83.83,0,0,1-.61-.26A.84.84,0,0,1,155.49,172.94Z" transform="translate(0.38 0.38)"/><path class="cls-2" d="M169.46,174.84a.81.81,0,0,1,.41-.74l2.61-1.57a.42.42,0,0,0,.22-.39v-9.85a.4.4,0,0,0-.22-.38l-2.61-1.56a.82.82,0,0,1-.29-.32.85.85,0,0,1-.12-.43v-1.4a.85.85,0,0,1,.26-.62.78.78,0,0,1,.61-.26l.17,0,.16.06.15.1.15.09,2.59,1.51a1.66,1.66,0,0,1,.67.67,2.15,2.15,0,0,1,.19,1v12.94a2.27,2.27,0,0,1-.18,1,1.67,1.67,0,0,1-.68.66L171,176.85a.56.56,0,0,0-.14.08l-.16.1-.15.05a.45.45,0,0,1-.18,0,.82.82,0,0,1-.61-.26.85.85,0,0,1-.26-.62Z" transform="translate(0.38 0.38)"/></svg>