<svg id="Layer_1" data-name="Layer 1" xmlns="http://www.w3.org/2000/svg" viewBox="0 0 200 200"><defs><style>.cls-1{fill:#192318;}.cls-2{fill:#fff;}</style></defs><rect class="cls-1" width="200" height="200"/><path class="cls-2" d="M17,75.1a4,4,0,0,1,1.5-3.19l4.31-1.41L19.38,58.83H17.55a.82.82,0,0,1,0-.27,4.81,4.81,0,0,1,.18-1.23,1.61,1.61,0,0,1,.56-.93h4L26,69.23q.36-.14.78-.33a10.55,10.55,0,0,0,1.13-.65,8,8,0,0,0,1.26-1,5.1,5.1,0,0,0,1-1.27,3.31,3.31,0,0,0,.41-1.57V58.83H28.9v-.2a4.47,4.47,0,0,1,.23-1.31,1.41,1.41,0,0,1,.69-.92H34v7a9.54,9.54,0,0,1-1,4.33,6.75,6.75,0,0,1-2.87,3l-13,5.18A3,3,0,0,1,17,75.1Z" transform="translate(0 0)"/><path class="cls-2" d="M36.46,58.21a3.09,3.09,0,0,1,.65-1.81h14a4.07,4.07,0,0,1-.66,2.43H48.81V72.31H45.37V58.83h-8.8A2.79,2.79,0,0,1,36.46,58.21Z" transform="translate(0 0)"/><path class="cls-2" d="M53.87,58.83a3.57,3.57,0,0,1,1-2.64h3.81v7.27L55.23,65V58.83Z" transform="translate(0 0)"/><path class="cls-2" d="M61.86,56.18a5.54,5.54,0,0,1,1.69-.3,9.59,9.59,0,0,1,1.93.3l1.38,3.75A8.75,8.75,0,0,1,68,58.07a6.18,6.18,0,0,1,1.87-1.46A5.62,5.62,0,0,1,72.49,56a9.5,9.5,0,0,1,3.65.66,6.69,6.69,0,0,1,2.58,1.85,8.2,8.2,0,0,1,1.5,2.7,10.76,10.76,0,0,1,.5,3.33,10.09,10.09,0,0,1-.64,3.77,6.17,6.17,0,0,1-1.83,2.56,8,8,0,0,1-2.74,1.42,12.13,12.13,0,0,1-3.49.47,9.87,9.87,0,0,1-2.6-.49,3.23,3.23,0,0,1-.13-1A5.54,5.54,0,0,1,70,68.89a2.92,2.92,0,0,0,.75.75,2,2,0,0,0,1,.2,5.09,5.09,0,0,0,5.53-5.4A7.67,7.67,0,0,0,77,62.29a5.45,5.45,0,0,0-.84-1.75,3.74,3.74,0,0,0-1.54-1.21,5.47,5.47,0,0,0-2.29-.44,4,4,0,0,0-1.86.42,3.83,3.83,0,0,0-1.35,1.09,7.59,7.59,0,0,0-.94,1.65,11,11,0,0,0-.64,2c-.15.69-.29,1.43-.41,2.22s-.24,1.53-.35,2.21-.21,1.37-.32,2.07-.2,1.29-.27,1.77H62.64l1.18-10.45Z" transform="translate(0 0)"/><path class="cls-2" d="M91.51,71.38a2,2,0,0,1,.76-1.61,7,7,0,0,0,1.65.34,1.76,1.76,0,0,0,1.26-.54,2.76,2.76,0,0,0,.71-1V58.83H93.56a3.13,3.13,0,0,1-.08-.73,2.19,2.19,0,0,1,.8-1.7h11.33a5.14,5.14,0,0,1,3,.79,5.75,5.75,0,0,1,2.6,5.08v10h-3.45V62A4.45,4.45,0,0,0,106.67,60a4,4,0,0,0-1.92-1.2H99.34V69.19C99,70.76,98.22,71.7,97.11,72a9.36,9.36,0,0,1-2.75.53,7.56,7.56,0,0,1-1.49-.18A5.36,5.36,0,0,1,91.56,72,3.45,3.45,0,0,1,91.51,71.38Z" transform="translate(0 0)"/><path class="cls-2" d="M113.46,58.25a3,3,0,0,1,.69-1.85h5.32a11.45,11.45,0,0,1,4.38.66,4.94,4.94,0,0,1,2.38,2.09,3.77,3.77,0,0,1,.68,1.67,20.64,20.64,0,0,1,.17,3.16v8.33h-3.45V62.8a3.88,3.88,0,0,0-1.09-2.87,3.93,3.93,0,0,0-2.88-1.1h-6.14A2.58,2.58,0,0,1,113.46,58.25Z" transform="translate(0 0)"/><path class="cls-2" d="M129.52,72.31a4,4,0,0,1,1-2.44h8.82V62.29a3.49,3.49,0,0,0-.89-2.59,3.19,3.19,0,0,0-2.34-.87h-5A3.82,3.82,0,0,1,132,56.4h4.22a7.76,7.76,0,0,1,3,.58,5.87,5.87,0,0,1,2.38,1.71,3.91,3.91,0,0,1,1,2.57v8.61h1.89a5,5,0,0,1-.82,2.44Z" transform="translate(0 0)"/><path class="cls-2" d="M146,75.1a3.94,3.94,0,0,1,1.51-3.19l4.3-1.41-3.43-11.67h-1.83a.82.82,0,0,1,0-.27,4.81,4.81,0,0,1,.18-1.23,1.67,1.67,0,0,1,.56-.93h4L155,69.23q.36-.14.78-.33a10.55,10.55,0,0,0,1.13-.65,8,8,0,0,0,1.26-1,5.1,5.1,0,0,0,1-1.27,3.31,3.31,0,0,0,.41-1.57V58.83h-1.67v-.2a4.2,4.2,0,0,1,.24-1.31,1.37,1.37,0,0,1,.68-.92H163v7a9.54,9.54,0,0,1-1,4.33,6.8,6.8,0,0,1-2.87,3l-13.06,5.18A3,3,0,0,1,146,75.1Z" transform="translate(0 0)"/><path class="cls-2" d="M166.39,58.28a3.15,3.15,0,0,1,.68-1.88h7.68a11.45,11.45,0,0,1,4.37.65,5,5,0,0,1,2.39,2.08,3.81,3.81,0,0,1,.68,1.67,20.73,20.73,0,0,1,.17,3.16v8.35h-3.45V62.78a3.74,3.74,0,0,0-4-4h-8.5A3.21,3.21,0,0,1,166.39,58.28Zm.65,14V62.55a6.9,6.9,0,0,1,3,1v8.75Z" transform="translate(0 0)"/><path class="cls-2" d="M16.9,109.49a11,11,0,0,1,.23-2.36,5,5,0,0,1,.87-1.9,20.69,20.69,0,0,0,5.27-5.54V96.43c0-1.07-.67-1.6-2-1.6H18.08a3.75,3.75,0,0,1,.83-2.43h2.84a5.59,5.59,0,0,1,3.4.94,3.54,3.54,0,0,1,1.29,3v9.24a11,11,0,0,0,.84,2.69H24a26,26,0,0,1-.67-5.1A12.09,12.09,0,0,1,22.09,105a15,15,0,0,1-1.78,1.78c-.69.59-1.24,1-1.67,1.38S17.63,109,16.9,109.49Z" transform="translate(0 0)"/><path class="cls-2" d="M29.26,94.25A3,3,0,0,1,30,92.4h5.32a11.45,11.45,0,0,1,4.38.66A4.94,4.94,0,0,1,42,95.15a3.77,3.77,0,0,1,.68,1.67,20.64,20.64,0,0,1,.17,3.16v8.33H39.43V98.8a3.76,3.76,0,0,0-4-4H29.32A2.58,2.58,0,0,1,29.26,94.25Z" transform="translate(0 0)"/><path class="cls-2" d="M45,94.21a3,3,0,0,1,.66-1.81H59.65A4.07,4.07,0,0,1,59,94.83H57.4v13.48H54V94.83H45.16A2.41,2.41,0,0,1,45,94.21Z" transform="translate(0 0)"/><path class="cls-2" d="M61.09,88.15a4.1,4.1,0,0,1,.2-1.38,2.16,2.16,0,0,1,.84-1H66V92.5H76.66v2.74l-6.29,13.07H66.62l6.26-13.38h-10V88.15Z" transform="translate(0 0)"/><path class="cls-2" d="M89.07,94.28a3.09,3.09,0,0,1,.68-1.88h7.68a11.39,11.39,0,0,1,4.36.65,5,5,0,0,1,2.4,2.08,4.07,4.07,0,0,1,.68,1.67A21.08,21.08,0,0,1,105,100v8.35h-3.45V98.78a3.74,3.74,0,0,0-4-4H89.12A2.45,2.45,0,0,1,89.07,94.28Zm.64,14V98.55a6.85,6.85,0,0,1,3,1v8.75Z" transform="translate(0 0)"/><path class="cls-2" d="M107.5,94.25a3,3,0,0,1,.7-1.85h5.32a11.35,11.35,0,0,1,4.37.66,5,5,0,0,1,2.39,2.09,4,4,0,0,1,.68,1.67,21,21,0,0,1,.16,3.16v8.33h-3.44V98.8a3.77,3.77,0,0,0-4-4h-6.13A2.1,2.1,0,0,1,107.5,94.25Z" transform="translate(0 0)"/><path class="cls-2" d="M124,94.83a3.57,3.57,0,0,1,1-2.64h3.81v7.27L125.34,101V94.83Z" transform="translate(0 0)"/><path class="cls-2" d="M131.72,108.31a4,4,0,0,1,1-2.44h8.83V98.29a3.49,3.49,0,0,0-.89-2.59,3.22,3.22,0,0,0-2.35-.87h-4.94a3.82,3.82,0,0,1,.82-2.43h4.22a7.76,7.76,0,0,1,3,.58,5.94,5.94,0,0,1,2.38,1.71,3.91,3.91,0,0,1,.95,2.57v8.61h1.89a5,5,0,0,1-.82,2.44Z" transform="translate(0 0)"/><path class="cls-2" d="M148.84,94.83a3.72,3.72,0,0,1,.71-2.43h11.37a4.3,4.3,0,0,1,2.21.73,7.65,7.65,0,0,1,2,1.81,3.24,3.24,0,0,1,.82,1.94v11.43h-3.44V97.67a3.57,3.57,0,0,0-2.86-2.84h-6v13.48H150.2V94.83Z" transform="translate(0 0)"/><path class="cls-2" d="M168.51,108.31a4,4,0,0,1,1-2.44h8.82V98.29a3.45,3.45,0,0,0-.89-2.59,3.19,3.19,0,0,0-2.34-.87h-5A3.82,3.82,0,0,1,171,92.4h4.23a7.74,7.74,0,0,1,3,.58,5.81,5.81,0,0,1,2.38,1.71,3.86,3.86,0,0,1,.95,2.57v8.61h1.9a5,5,0,0,1-.83,2.44Z" transform="translate(0 0)"/><path class="cls-2" d="M73.74,128.19h4.42a84.65,84.65,0,0,1,6.49,7.24c1.14-.47,1.71-1.82,1.71-4.06v-.54H84.89a4.13,4.13,0,0,1,.79-2.64h4.11V129c0,.38,0,.67,0,.88a14.22,14.22,0,0,1-.11,1.94,11.12,11.12,0,0,1-.43,1.92,6.15,6.15,0,0,1-1,2,7.68,7.68,0,0,1-1.83,1.7,53.91,53.91,0,0,1,4.85,6.87H87.39a63.8,63.8,0,0,0-7.15-9,6.79,6.79,0,0,0-2.36,2.86,8.69,8.69,0,0,0-.9,3.7h1.19a3.57,3.57,0,0,1,.34,1.75,5.12,5.12,0,0,1,0,.69H73.81a28.84,28.84,0,0,1,.13-2.91,21.39,21.39,0,0,1,.36-2.31,10.42,10.42,0,0,1,.59-1.84,10.84,10.84,0,0,1,.73-1.42,7.83,7.83,0,0,1,.89-1.13,12.24,12.24,0,0,1,.94-.9c.28-.23.63-.5,1-.8A52.2,52.2,0,0,0,73.74,128.19Z" transform="translate(0 0)"/><path class="cls-2" d="M93.05,144.31a4,4,0,0,1,1-2.44h8.83v-7.58a3.49,3.49,0,0,0-.89-2.59,3.23,3.23,0,0,0-2.35-.87h-5a3.83,3.83,0,0,1,.83-2.43h4.22a7.79,7.79,0,0,1,3,.58,5.94,5.94,0,0,1,2.38,1.71,3.91,3.91,0,0,1,1,2.57v8.61H108a5,5,0,0,1-.83,2.44Z" transform="translate(0 0)"/><path class="cls-2" d="M110.5,130.28a3.15,3.15,0,0,1,.68-1.88h7.69a11.43,11.43,0,0,1,4.36.65,5,5,0,0,1,2.4,2.08,4.07,4.07,0,0,1,.68,1.67,22.56,22.56,0,0,1,.16,3.16v8.35H123v-9.53a3.74,3.74,0,0,0-4-3.95h-8.5A3.21,3.21,0,0,1,110.5,130.28Zm.65,14v-9.76a6.9,6.9,0,0,1,3,1v8.75Z" transform="translate(0 0)"/></svg>