<svg id="Layer_1" data-name="Layer 1" xmlns="http://www.w3.org/2000/svg" viewBox="0 0 200.75 200.75"><defs><style>.cls-1{fill:#192318;stroke:#fff;stroke-miterlimit:10;stroke-width:0.75px;}.cls-2{fill:#fff;}</style></defs><rect class="cls-1" x="0.38" y="0.38" width="200" height="200"/><path class="cls-2" d="M26.47,77.5V75.75a1,1,0,0,1,1-1h1.72a.5.5,0,0,0,.48-.5V67.74a.46.46,0,0,0-.14-.35.45.45,0,0,0-.34-.15H27.45a.91.91,0,0,1-.69-.29,1,1,0,0,1-.29-.71V64.5a.94.94,0,0,1,.29-.71.91.91,0,0,1,.69-.29h3.18a.91.91,0,0,1,.69.29,1,1,0,0,1,.28.71v9.75a.48.48,0,0,0,.14.35.47.47,0,0,0,.35.15h5.62a.5.5,0,0,0,.49-.5V67.74a.5.5,0,0,0-.14-.35.49.49,0,0,0-.35-.15H36a.91.91,0,0,1-.69-.29,1,1,0,0,1-.29-.71V64.5a1,1,0,0,1,.29-.71A.91.91,0,0,1,36,63.5h3.18a.91.91,0,0,1,.69.29,1,1,0,0,1,.29.71v13a1,1,0,0,1-.29.7.92.92,0,0,1-.69.3H27.45a.92.92,0,0,1-.69-.3A.93.93,0,0,1,26.47,77.5Z" transform="translate(0.38 0.38)"/><path class="cls-2" d="M42.59,66.24V64.5a.94.94,0,0,1,.29-.71.91.91,0,0,1,.69-.29h12a.91.91,0,0,1,.69.29,1,1,0,0,1,.29.71v1.74a1,1,0,0,1-.29.71.91.91,0,0,1-.69.29h-1a.47.47,0,0,0-.35.15.5.5,0,0,0-.14.35v9.88a1,1,0,0,1-.29.71,1,1,0,0,1-1.38,0,1,1,0,0,1-.29-.71V67.74a.46.46,0,0,0-.14-.35.47.47,0,0,0-.35-.15H43.57a.91.91,0,0,1-.69-.29A1,1,0,0,1,42.59,66.24Z" transform="translate(0.38 0.38)"/><path class="cls-2" d="M59,66.24V64.5a1,1,0,0,1,.29-.71.91.91,0,0,1,.69-.29h4.15a.91.91,0,0,1,.69.29,1,1,0,0,1,.29.71v6.75a1,1,0,0,1-.29.7.94.94,0,0,1-1.38,0,1,1,0,0,1-.28-.7V67.74a.46.46,0,0,0-.14-.35.45.45,0,0,0-.34-.15h-2.7a.91.91,0,0,1-.69-.29A1,1,0,0,1,59,66.24Z" transform="translate(0.38 0.38)"/><path class="cls-2" d="M67.5,66.24V64.5a1,1,0,0,1,.29-.71.91.91,0,0,1,.69-.29h2a.91.91,0,0,1,.69.29,1,1,0,0,1,.29.71V66c0,.56.17.66.52.3L74,64.2a2.29,2.29,0,0,1,1.71-.7h6a.91.91,0,0,1,.69.29,1,1,0,0,1,.29.71v13a1,1,0,0,1-.29.7.92.92,0,0,1-.69.3H76.06a.92.92,0,0,1-.69-.3,1,1,0,0,1-.29-.7V75.75a1,1,0,0,1,.29-.71.94.94,0,0,1,.69-.29h4.15a.47.47,0,0,0,.35-.15.48.48,0,0,0,.14-.35V67.74a.5.5,0,0,0-.14-.35.47.47,0,0,0-.35-.15h-4a2.25,2.25,0,0,0-1.7.71l-2.11,2.17a2.43,2.43,0,0,0-.71,1.77v5.73a1,1,0,0,1-.29.71,1,1,0,0,1-1.38,0,1,1,0,0,1-.29-.71V67.74a.5.5,0,0,0-.14-.35.47.47,0,0,0-.35-.15h-.74a.91.91,0,0,1-.69-.29A1,1,0,0,1,67.5,66.24Z" transform="translate(0.38 0.38)"/><path class="cls-2" d="M94.86,77.5V75.75a1,1,0,0,1,.29-.71.94.94,0,0,1,.69-.29h.74a.47.47,0,0,0,.35-.15.48.48,0,0,0,.14-.35V67.74a.5.5,0,0,0-.14-.35.47.47,0,0,0-.35-.15h-.25a.91.91,0,0,1-.69-.29,1,1,0,0,1-.29-.71V64.5a1,1,0,0,1,.29-.71.91.91,0,0,1,.69-.29h12a.91.91,0,0,1,.69.29,1,1,0,0,1,.29.71V77.62a1,1,0,0,1-.29.71,1,1,0,0,1-1.38,0,1,1,0,0,1-.29-.71V67.74a.46.46,0,0,0-.14-.35.47.47,0,0,0-.35-.15H99.52a.47.47,0,0,0-.35.15.5.5,0,0,0-.14.35V77.5a1,1,0,0,1-.29.7.92.92,0,0,1-.69.3H95.84a.92.92,0,0,1-.69-.3A1,1,0,0,1,94.86,77.5Z" transform="translate(0.38 0.38)"/><path class="cls-2" d="M111.72,66.24V64.5a1,1,0,0,1,.29-.71.91.91,0,0,1,.69-.29h10.75a.94.94,0,0,1,.7.29,1,1,0,0,1,.28.71V77.62a1,1,0,0,1-1,1,.91.91,0,0,1-.68-.29,1,1,0,0,1-.28-.71V67.74a.47.47,0,0,0-.15-.35.45.45,0,0,0-.34-.15h-9.3A.91.91,0,0,1,112,67,1,1,0,0,1,111.72,66.24Z" transform="translate(0.38 0.38)"/><path class="cls-2" d="M126.87,77.5V75.75a1,1,0,0,1,.28-.71.94.94,0,0,1,.69-.29h9a.45.45,0,0,0,.34-.15.45.45,0,0,0,.15-.35V67.74a.47.47,0,0,0-.15-.35.45.45,0,0,0-.34-.15h-9a.91.91,0,0,1-.69-.29,1,1,0,0,1-.28-.71V64.5a1,1,0,0,1,.28-.71.91.91,0,0,1,.69-.29h10.52a.91.91,0,0,1,.69.29,1,1,0,0,1,.28.71v9.75a.45.45,0,0,0,.15.35.45.45,0,0,0,.34.15h.73a.94.94,0,0,1,.69.29,1,1,0,0,1,.29.71V77.5a1,1,0,0,1-.29.7.92.92,0,0,1-.69.3H127.84a.92.92,0,0,1-.69-.3A1,1,0,0,1,126.87,77.5Z" transform="translate(0.38 0.38)"/><path class="cls-2" d="M144,77.5V75.75a1,1,0,0,1,.29-.71.94.94,0,0,1,.69-.29h1.72a.47.47,0,0,0,.35-.15.48.48,0,0,0,.14-.35V67.74a.5.5,0,0,0-.14-.35.47.47,0,0,0-.35-.15h-1.72a.91.91,0,0,1-.69-.29,1,1,0,0,1-.29-.71V64.5a1,1,0,0,1,.29-.71.91.91,0,0,1,.69-.29h3.19a.87.87,0,0,1,.68.29,1,1,0,0,1,.28.71v9.75a.45.45,0,0,0,.15.35.45.45,0,0,0,.34.15h5.62a.45.45,0,0,0,.35-.15.45.45,0,0,0,.14-.35V67.74a.46.46,0,0,0-.14-.35.45.45,0,0,0-.35-.15h-1.7a.91.91,0,0,1-.69-.29,1,1,0,0,1-.29-.71V64.5a1,1,0,0,1,.29-.71.91.91,0,0,1,.69-.29h3.17a.91.91,0,0,1,.69.29,1,1,0,0,1,.29.71v13a1,1,0,0,1-.29.7.92.92,0,0,1-.69.3H144.94a.92.92,0,0,1-.69-.3A1,1,0,0,1,144,77.5Z" transform="translate(0.38 0.38)"/><path class="cls-2" d="M160.08,66.24V64.5a1,1,0,0,1,.29-.71.91.91,0,0,1,.69-.29h11.49a.93.93,0,0,1,.7.29,1,1,0,0,1,.28.71V77.62a1,1,0,0,1-.28.71,1,1,0,0,1-.7.29.94.94,0,0,1-.69-.29,1,1,0,0,1-.28-.71V67.74a.47.47,0,0,0-.15-.35.45.45,0,0,0-.34-.15h-10a.91.91,0,0,1-.69-.29A1,1,0,0,1,160.08,66.24Zm0,11.26V72a1,1,0,0,1,.29-.7.92.92,0,0,1,.69-.3,1,1,0,0,1,1,1v2.25a.45.45,0,0,0,.15.35.45.45,0,0,0,.34.15h.74A.94.94,0,0,1,164,75a1,1,0,0,1,.29.71V77.5a1,1,0,0,1-.29.7.92.92,0,0,1-.69.3h-2.21a.92.92,0,0,1-.69-.3A1,1,0,0,1,160.08,77.5Z" transform="translate(0.38 0.38)"/><path class="cls-2" d="M17.55,107.62V106a.92.92,0,0,1,.46-.84L23.44,102a.92.92,0,0,0,.47-.83v-3.4a.5.5,0,0,0-.14-.35.49.49,0,0,0-.35-.15H20.73A.91.91,0,0,1,20,97a1,1,0,0,1-.28-.71V94.5a1,1,0,0,1,.28-.71.91.91,0,0,1,.69-.29h4.16a.91.91,0,0,1,.69.29,1,1,0,0,1,.29.71v13.12a1,1,0,0,1-.29.71,1,1,0,0,1-1.67-.71v-1q0-.6-.57-.6a1.47,1.47,0,0,0-.62.26l-3.48,2a.85.85,0,0,1-.15.1.84.84,0,0,1-.19.11l-.16.06a.59.59,0,0,1-.21,0,1,1,0,0,1-1-1Z" transform="translate(0.38 0.38)"/><path class="cls-2" d="M28.3,96.24V94.5a1,1,0,0,1,.29-.71.91.91,0,0,1,.69-.29H40a.91.91,0,0,1,.69.29,1,1,0,0,1,.29.71v13.12a1,1,0,0,1-.29.71,1,1,0,0,1-1.38,0,1,1,0,0,1-.28-.71V97.74a.46.46,0,0,0-.14-.35.47.47,0,0,0-.35-.15H29.28a.91.91,0,0,1-.69-.29A1,1,0,0,1,28.3,96.24Z" transform="translate(0.38 0.38)"/><path class="cls-2" d="M43.44,96.24V94.5a1,1,0,0,1,.29-.71.91.91,0,0,1,.69-.29h12a.91.91,0,0,1,.69.29,1,1,0,0,1,.29.71v1.74a1,1,0,0,1-.29.71.91.91,0,0,1-.69.29h-1a.45.45,0,0,0-.34.15.47.47,0,0,0-.15.35v9.88a1,1,0,0,1-.28.71,1,1,0,0,1-.7.29.94.94,0,0,1-.69-.29,1,1,0,0,1-.28-.71V97.74a.47.47,0,0,0-.15-.35.45.45,0,0,0-.34-.15H44.42a.91.91,0,0,1-.69-.29A1,1,0,0,1,43.44,96.24Z" transform="translate(0.38 0.38)"/><path class="cls-2" d="M59.81,96.24V87a1,1,0,0,1,.29-.71.94.94,0,0,1,.69-.29h2a.94.94,0,0,1,.69.29,1,1,0,0,1,.29.71v1.75a1,1,0,0,1-.29.7.92.92,0,0,1-.69.3h-.49a.5.5,0,0,0-.35.14.52.52,0,0,0-.14.36V93a.52.52,0,0,0,.14.36.47.47,0,0,0,.35.15h10a.91.91,0,0,1,.69.29.94.94,0,0,1,.29.71v13a1,1,0,0,1-.29.71.94.94,0,0,1-.69.29H66.9a.94.94,0,0,1-.69-.29,1,1,0,0,1-.29-.71v-1.75a1,1,0,0,1,.29-.71.94.94,0,0,1,.69-.29h3.91a.47.47,0,0,0,.35-.15.45.45,0,0,0,.14-.35V97.74a.46.46,0,0,0-.14-.35.47.47,0,0,0-.35-.15h-10A.91.91,0,0,1,60.1,97,1,1,0,0,1,59.81,96.24Z" transform="translate(0.38 0.38)"/><path class="cls-2" d="M85.47,96.24V94.5a1,1,0,0,1,.28-.71.91.91,0,0,1,.69-.29h11.5a.91.91,0,0,1,.69.29,1,1,0,0,1,.28.71v13.12a1,1,0,0,1-.28.71.94.94,0,0,1-.69.29,1,1,0,0,1-.7-.29,1,1,0,0,1-.28-.71V97.74a.47.47,0,0,0-.15-.35.45.45,0,0,0-.34-.15h-10a.91.91,0,0,1-.69-.29A1,1,0,0,1,85.47,96.24Zm0,11.26V102a1,1,0,0,1,.28-.7,1,1,0,0,1,1.39,0,1,1,0,0,1,.28.7v2.25a.45.45,0,0,0,.15.35.45.45,0,0,0,.34.15h.74a1,1,0,0,1,1,1v1.75a1,1,0,0,1-.29.71.94.94,0,0,1-.69.29H86.44a.94.94,0,0,1-.69-.29A1,1,0,0,1,85.47,107.5Z" transform="translate(0.38 0.38)"/><path class="cls-2" d="M101.35,96.24V94.5a1,1,0,0,1,.28-.71.94.94,0,0,1,.7-.29h10.75a.91.91,0,0,1,.69.29,1,1,0,0,1,.29.71v13.12a1,1,0,0,1-.29.71,1,1,0,0,1-1.38,0,1,1,0,0,1-.28-.71V97.74a.5.5,0,0,0-.14-.35.47.47,0,0,0-.35-.15h-9.29a.94.94,0,0,1-.7-.29A1,1,0,0,1,101.35,96.24Z" transform="translate(0.38 0.38)"/><path class="cls-2" d="M116.49,96.24V94.5a1,1,0,0,1,.29-.71.91.91,0,0,1,.69-.29h4.15a.91.91,0,0,1,.69.29,1,1,0,0,1,.29.71v6.75a1,1,0,0,1-.29.71.94.94,0,0,1-.69.29.91.91,0,0,1-.68-.29,1,1,0,0,1-.28-.71V97.74a.47.47,0,0,0-.15-.35.45.45,0,0,0-.34-.15h-2.7a.91.91,0,0,1-.69-.29A1,1,0,0,1,116.49,96.24Z" transform="translate(0.38 0.38)"/><path class="cls-2" d="M125,107.5v-1.75a1,1,0,0,1,.29-.71.94.94,0,0,1,.69-.29h9a.45.45,0,0,0,.34-.15.45.45,0,0,0,.15-.35V97.74a.47.47,0,0,0-.15-.35.45.45,0,0,0-.34-.15h-9a.91.91,0,0,1-.69-.29,1,1,0,0,1-.29-.71V94.5a1,1,0,0,1,.29-.71.91.91,0,0,1,.69-.29h10.51a.93.93,0,0,1,.7.29,1,1,0,0,1,.28.71v9.75a.45.45,0,0,0,.15.35.45.45,0,0,0,.34.15h.73a.94.94,0,0,1,.69.29,1,1,0,0,1,.29.71v1.75a1,1,0,0,1-.29.71.94.94,0,0,1-.69.29H126a.94.94,0,0,1-.69-.29A1,1,0,0,1,125,107.5Z" transform="translate(0.38 0.38)"/><path class="cls-2" d="M142.13,107.62V94.5a1,1,0,0,1,.29-.71.91.91,0,0,1,.69-.29H154.6a.91.91,0,0,1,.69.29,1,1,0,0,1,.29.71v13.12a1,1,0,0,1-.29.71,1,1,0,0,1-1.38,0,1,1,0,0,1-.29-.71V97.74a.46.46,0,0,0-.14-.35.47.47,0,0,0-.35-.15h-8.55a.47.47,0,0,0-.35.15.5.5,0,0,0-.14.35v9.88a1,1,0,0,1-.29.71,1,1,0,0,1-1.38,0A1,1,0,0,1,142.13,107.62Z" transform="translate(0.38 0.38)"/><path class="cls-2" d="M158,107.5v-1.75a1,1,0,0,1,.29-.71.94.94,0,0,1,.69-.29h9a.45.45,0,0,0,.34-.15.45.45,0,0,0,.15-.35V97.74a.47.47,0,0,0-.15-.35.45.45,0,0,0-.34-.15h-9a.91.91,0,0,1-.69-.29,1,1,0,0,1-.29-.71V94.5a1,1,0,0,1,.29-.71.91.91,0,0,1,.69-.29H169.5a.91.91,0,0,1,.7.29,1,1,0,0,1,.28.71v9.75a.45.45,0,0,0,.15.35.45.45,0,0,0,.34.15h.73a.94.94,0,0,1,.69.29,1,1,0,0,1,.29.71v1.75a1,1,0,0,1-.29.71.94.94,0,0,1-.69.29H159a.94.94,0,0,1-.69-.29A1,1,0,0,1,158,107.5Z" transform="translate(0.38 0.38)"/><path class="cls-2" d="M71.76,137.5v-13a1,1,0,0,1,.28-.71.91.91,0,0,1,.69-.29,1,1,0,0,1,.7.31l7.65,7.31,2.32-2.35a.45.45,0,0,0,.14-.34v-.69a.47.47,0,0,0-.14-.35.45.45,0,0,0-.34-.15H81.29a.91.91,0,0,1-.69-.29,1,1,0,0,1-.29-.71V124.5a1,1,0,0,1,.29-.71.91.91,0,0,1,.69-.29h3.22a.91.91,0,0,1,.69.29,1,1,0,0,1,.29.71v4A2,2,0,0,1,85,130l-2.51,2.48,2.58,2.45a1.51,1.51,0,0,1,.44,1.14v1.84c0,.47-.22.71-.68.71a1.07,1.07,0,0,1-.73-.34l-9.54-9a.47.47,0,0,0-.35-.15.45.45,0,0,0-.34.15.49.49,0,0,0-.15.35v4.63a.45.45,0,0,0,.15.35.45.45,0,0,0,.34.15h.74a1,1,0,0,1,1,1v1.75a1,1,0,0,1-.29.71.94.94,0,0,1-.69.29H72.73a.94.94,0,0,1-.69-.29A1,1,0,0,1,71.76,137.5Z" transform="translate(0.38 0.38)"/><path class="cls-2" d="M87.92,137.5v-1.75a1,1,0,0,1,.29-.71.94.94,0,0,1,.69-.29h9a.45.45,0,0,0,.34-.15.45.45,0,0,0,.15-.35v-6.51a.49.49,0,0,0-.15-.35.45.45,0,0,0-.34-.15h-9a.91.91,0,0,1-.69-.29,1,1,0,0,1-.29-.71V124.5a1,1,0,0,1,.29-.71.91.91,0,0,1,.69-.29H99.42a.91.91,0,0,1,.69.29,1,1,0,0,1,.28.71v9.75a.45.45,0,0,0,.15.35.45.45,0,0,0,.34.15h.73a.94.94,0,0,1,.69.29,1,1,0,0,1,.29.71v1.75a1,1,0,0,1-.29.71.94.94,0,0,1-.69.29H88.9a.94.94,0,0,1-.69-.29A1,1,0,0,1,87.92,137.5Z" transform="translate(0.38 0.38)"/><path class="cls-2" d="M105,126.24V124.5a1,1,0,0,1,.29-.71.91.91,0,0,1,.69-.29h11.49a.91.91,0,0,1,.69.29.94.94,0,0,1,.29.71v13.12a1,1,0,0,1-1.67.71,1,1,0,0,1-.29-.71v-9.88a.47.47,0,0,0-.14-.35.47.47,0,0,0-.35-.15H106a.91.91,0,0,1-.69-.29A1,1,0,0,1,105,126.24Zm0,11.26V132a1,1,0,0,1,.29-.7.94.94,0,0,1,1.38,0,1,1,0,0,1,.29.7v2.25a.48.48,0,0,0,.14.35.47.47,0,0,0,.35.15h.74a.94.94,0,0,1,.69.29,1,1,0,0,1,.29.71v1.75a1,1,0,0,1-.29.71.94.94,0,0,1-.69.29H106a.94.94,0,0,1-.69-.29A1,1,0,0,1,105,137.5Z" transform="translate(0.38 0.38)"/></svg>