<svg id="Layer_1" data-name="Layer 1" xmlns="http://www.w3.org/2000/svg" viewBox="0 0 200.75 200.75"><defs><style>.cls-1{fill:#192318;stroke:#fff;stroke-miterlimit:10;stroke-width:0.75px;}.cls-2{fill:#fff;}</style></defs><rect class="cls-1" x="0.38" y="0.38" width="200" height="200"/><text x="0.38" y="0.38"/><path class="cls-2" d="M40.76,66.48V64.73a1,1,0,0,1,.29-.7.92.92,0,0,1,.69-.3H53a.92.92,0,0,1,.69.3,1,1,0,0,1,.29.7v13a1,1,0,0,1-.29.71.91.91,0,0,1-.69.29H46.63a.91.91,0,0,1-.69-.29,1,1,0,0,1-.28-.71V76a1,1,0,0,1,.28-.71.91.91,0,0,1,.69-.29h4.9a.46.46,0,0,0,.34-.15.51.51,0,0,0,.13-.35V68a.48.48,0,0,0-.13-.35.46.46,0,0,0-.34-.15H41.74a.94.94,0,0,1-.69-.29A1,1,0,0,1,40.76,66.48Zm0,16.26V71a1,1,0,0,1,.29-.71.94.94,0,0,1,.69-.29H42a.94.94,0,0,1,.69.29A1,1,0,0,1,43,71V82.74a1,1,0,0,1-.29.71.94.94,0,0,1-.69.29h-.25a.94.94,0,0,1-.69-.29A1,1,0,0,1,40.76,82.74Z" transform="translate(0.38 0.38)"/><path class="cls-2" d="M56.39,66.48V64.73a1,1,0,0,1,.29-.7.92.92,0,0,1,.69-.3h4.16a.92.92,0,0,1,.69.3,1,1,0,0,1,.28.7v6.75a1,1,0,0,1-.28.71.91.91,0,0,1-.69.29.89.89,0,0,1-.69-.29,1,1,0,0,1-.28-.71V68a.48.48,0,0,0-.14-.35.47.47,0,0,0-.35-.15h-2.7a.94.94,0,0,1-.69-.29A1,1,0,0,1,56.39,66.48Z" transform="translate(0.38 0.38)"/><path class="cls-2" d="M64.94,77.73V76a1,1,0,0,1,.28-.71.94.94,0,0,1,.7-.29h.74a.45.45,0,0,0,.34-.15.49.49,0,0,0,.15-.35V68a.45.45,0,0,0-.15-.35.45.45,0,0,0-.34-.15h-.25a1,1,0,0,1-.7-.29,1,1,0,0,1-.28-.71V64.73a1,1,0,0,1,.28-.7.92.92,0,0,1,.7-.3h12a.92.92,0,0,1,.69.3,1,1,0,0,1,.28.7V77.86a1,1,0,0,1-.28.7.92.92,0,0,1-.69.3.94.94,0,0,1-.7-.3,1,1,0,0,1-.28-.7V68a.45.45,0,0,0-.15-.35.45.45,0,0,0-.34-.15H69.59a.45.45,0,0,0-.34.15.45.45,0,0,0-.15.35v9.75a1,1,0,0,1-.28.71.94.94,0,0,1-.7.29h-2.2a.94.94,0,0,1-.7-.29A1,1,0,0,1,64.94,77.73Z" transform="translate(0.38 0.38)"/><path class="cls-2" d="M81.8,66.48V64.73a1,1,0,0,1,1-1H94.27A.92.92,0,0,1,95,64a1,1,0,0,1,.29.7V77.86a1,1,0,0,1-.29.7.94.94,0,0,1-1.38,0,.93.93,0,0,1-.29-.7V68a.5.5,0,0,0-.49-.5h-10a1,1,0,0,1-1-1Zm0,11.25V72.24a1,1,0,0,1,1-1,.94.94,0,0,1,.69.29,1,1,0,0,1,.28.71v2.25a.49.49,0,0,0,.15.35.45.45,0,0,0,.34.15H85a.93.93,0,0,1,.7.29A1,1,0,0,1,86,76v1.74a1,1,0,0,1-.28.71.93.93,0,0,1-.7.29h-2.2a.94.94,0,0,1-.7-.29A1,1,0,0,1,81.8,77.73Z" transform="translate(0.38 0.38)"/><path class="cls-2" d="M107.45,66.48V57.24a1,1,0,0,1,.29-.71.91.91,0,0,1,.69-.29h2a.91.91,0,0,1,.69.29,1,1,0,0,1,.29.71V59a1,1,0,0,1-.29.71.91.91,0,0,1-.69.29h-.49a.47.47,0,0,0-.35.15.52.52,0,0,0-.14.36v2.74a.52.52,0,0,0,.14.36.5.5,0,0,0,.35.14h10a.92.92,0,0,1,.69.3,1,1,0,0,1,.29.7v13a1,1,0,0,1-.29.71.91.91,0,0,1-.69.29h-5.38a.91.91,0,0,1-.69-.29,1,1,0,0,1-.29-.71V76a1,1,0,0,1,.29-.71.91.91,0,0,1,.69-.29h3.91a.47.47,0,0,0,.35-.15.52.52,0,0,0,.14-.35V68a.48.48,0,0,0-.14-.35.47.47,0,0,0-.35-.15h-10a.94.94,0,0,1-.69-.29A1,1,0,0,1,107.45,66.48Z" transform="translate(0.38 0.38)"/><path class="cls-2" d="M123.33,66.48V64.73a1,1,0,0,1,.29-.7.92.92,0,0,1,.69-.3h4.15a1,1,0,0,1,1,1V77.86a1,1,0,0,1-1,1,.88.88,0,0,1-.68-.3,1,1,0,0,1-.28-.7V68a.45.45,0,0,0-.15-.35.45.45,0,0,0-.34-.15h-2.7a.94.94,0,0,1-.69-.29A1,1,0,0,1,123.33,66.48Z" transform="translate(0.38 0.38)"/><path class="cls-2" d="M131.88,77.73V76a1,1,0,0,1,.28-.71.91.91,0,0,1,.7-.29h9.53a.49.49,0,0,0,.35-.15.52.52,0,0,0,.14-.35V68a.5.5,0,0,0-.49-.5h-8.07a.45.45,0,0,0-.34.15.45.45,0,0,0-.15.35v.9a.49.49,0,0,0,.15.36.48.48,0,0,0,.34.14h.74a.92.92,0,0,1,.69.3.93.93,0,0,1,.29.7v1.75a1,1,0,0,1-1,1h-2.2a1,1,0,0,1-.7-.29,1,1,0,0,1-.28-.71v-7.4a1,1,0,0,1,.28-.7.92.92,0,0,1,.7-.3h11a.92.92,0,0,1,.69.3,1,1,0,0,1,.29.7v13a1,1,0,0,1-.29.71.91.91,0,0,1-.69.29h-11a.91.91,0,0,1-.7-.29A1,1,0,0,1,131.88,77.73Z" transform="translate(0.38 0.38)"/><path class="cls-2" d="M147.27,66.48V64.73a1,1,0,0,1,.29-.7.92.92,0,0,1,.69-.3h4.15a.92.92,0,0,1,.69.3,1,1,0,0,1,.29.7v6.75a1,1,0,0,1-.29.71,1,1,0,0,1-1.38,0,1,1,0,0,1-.28-.71V68a.5.5,0,0,0-.48-.5h-2.7a.94.94,0,0,1-.69-.29A1,1,0,0,1,147.27,66.48Z" transform="translate(0.38 0.38)"/><path class="cls-2" d="M155.81,66.48V64.73a1,1,0,0,1,.29-.7.92.92,0,0,1,.69-.3H168a.92.92,0,0,1,.69.3,1,1,0,0,1,.29.7v13a1,1,0,0,1-.29.71.91.91,0,0,1-.69.29h-6.35a.91.91,0,0,1-.69-.29,1,1,0,0,1-.28-.71V76a1,1,0,0,1,.28-.71.91.91,0,0,1,.69-.29h4.9a.46.46,0,0,0,.34-.15.51.51,0,0,0,.13-.35V68a.48.48,0,0,0-.13-.35.46.46,0,0,0-.34-.15h-9.79a.94.94,0,0,1-.69-.29A1,1,0,0,1,155.81,66.48Zm0,16.26V71a1,1,0,0,1,.29-.71.94.94,0,0,1,.69-.29H157a.94.94,0,0,1,.69.29A1,1,0,0,1,158,71V82.74a1,1,0,0,1-.29.71.94.94,0,0,1-.69.29h-.25a.94.94,0,0,1-.69-.29A1,1,0,0,1,155.81,82.74Z" transform="translate(0.38 0.38)"/><path class="cls-2" d="M36.87,107.73V106a1,1,0,0,1,.28-.71.91.91,0,0,1,.69-.29h.74a.47.47,0,0,0,.35-.15.47.47,0,0,0,.14-.35V98a.45.45,0,0,0-.14-.35.47.47,0,0,0-.35-.15h-.25a.94.94,0,0,1-.69-.29,1,1,0,0,1-.28-.71V94.73a1,1,0,0,1,.28-.7.92.92,0,0,1,.69-.3h12a.94.94,0,0,1,.7.3,1,1,0,0,1,.28.7v13.13a1,1,0,0,1-.28.7.94.94,0,0,1-.7.3.92.92,0,0,1-.69-.3,1,1,0,0,1-.28-.7V98a.45.45,0,0,0-.15-.35.45.45,0,0,0-.34-.15H41.52a.47.47,0,0,0-.35.15A.48.48,0,0,0,41,98v9.75a.94.94,0,0,1-.29.71.91.91,0,0,1-.69.29H37.84a.91.91,0,0,1-.69-.29A1,1,0,0,1,36.87,107.73Z" transform="translate(0.38 0.38)"/><path class="cls-2" d="M53.73,96.48V94.73A1,1,0,0,1,54,94a.92.92,0,0,1,.7-.3H65.46a.92.92,0,0,1,.69.3,1,1,0,0,1,.28.7v13.13a1,1,0,0,1-.28.7.94.94,0,0,1-1.38,0,1,1,0,0,1-.28-.7V98a.48.48,0,0,0-.14-.35.47.47,0,0,0-.35-.15H54.71a1,1,0,0,1-.7-.29A1,1,0,0,1,53.73,96.48Z" transform="translate(0.38 0.38)"/><path class="cls-2" d="M68.87,96.48V94.73a.93.93,0,0,1,.29-.7.92.92,0,0,1,.69-.3H74a.92.92,0,0,1,.69.3,1,1,0,0,1,.29.7v6.75a1,1,0,0,1-.29.71,1,1,0,0,1-1.38,0,1,1,0,0,1-.28-.71V98a.45.45,0,0,0-.14-.35.47.47,0,0,0-.35-.15H69.85a1,1,0,0,1-1-1Z" transform="translate(0.38 0.38)"/><path class="cls-2" d="M77.41,96.48V94.73a1,1,0,0,1,.29-.7.92.92,0,0,1,.69-.3h5.38a.92.92,0,0,1,.69.3,1,1,0,0,1,.29.7v1.75a1,1,0,0,1-.29.71.94.94,0,0,1-.69.29h-1a.45.45,0,0,0-.34.15.45.45,0,0,0-.15.35v9.88a1,1,0,0,1-.28.7,1,1,0,0,1-1.39,0,1,1,0,0,1-.28-.7V98a.45.45,0,0,0-.15-.35.45.45,0,0,0-.34-.15H78.39a.94.94,0,0,1-.69-.29A1,1,0,0,1,77.41,96.48Z" transform="translate(0.38 0.38)"/><path class="cls-2" d="M97,96.48V94.73a1,1,0,0,1,.28-.7.92.92,0,0,1,.69-.3h4.16a.92.92,0,0,1,.69.3,1,1,0,0,1,.29.7v18a1,1,0,0,1-.29.71,1,1,0,0,1-1.38,0,1,1,0,0,1-.28-.71V98a.48.48,0,0,0-.14-.35.47.47,0,0,0-.35-.15h-2.7a.94.94,0,0,1-.69-.29A1,1,0,0,1,97,96.48Z" transform="translate(0.38 0.38)"/><path class="cls-2" d="M105.5,96.48V94.73a1,1,0,0,1,.29-.7.92.92,0,0,1,.69-.3h4.15a.92.92,0,0,1,.69.3,1,1,0,0,1,.29.7v13.13a1,1,0,0,1-.29.7.92.92,0,0,1-.69.3.88.88,0,0,1-.68-.3,1,1,0,0,1-.28-.7V98a.45.45,0,0,0-.15-.35.45.45,0,0,0-.34-.15h-2.7a.94.94,0,0,1-.69-.29A1,1,0,0,1,105.5,96.48Z" transform="translate(0.38 0.38)"/><path class="cls-2" d="M114,96.48V94.73a1,1,0,0,1,.29-.7.92.92,0,0,1,.69-.3h4.15a1,1,0,0,1,1,1v6.75a1,1,0,0,1-.28.71.94.94,0,0,1-.7.29.87.87,0,0,1-.68-.29,1,1,0,0,1-.28-.71V98a.45.45,0,0,0-.15-.35.45.45,0,0,0-.34-.15H115a.94.94,0,0,1-.69-.29A1,1,0,0,1,114,96.48Z" transform="translate(0.38 0.38)"/><path class="cls-2" d="M122.59,96.48V94.73a1,1,0,0,1,.28-.7.92.92,0,0,1,.7-.3h11.24a.92.92,0,0,1,.69.3,1,1,0,0,1,.28.7v13a1,1,0,0,1-.28.71.91.91,0,0,1-.69.29h-6.35a.91.91,0,0,1-.69-.29,1,1,0,0,1-.29-.71V106a1,1,0,0,1,.29-.71.91.91,0,0,1,.69-.29h4.89a.43.43,0,0,0,.34-.15.52.52,0,0,0,.14-.35V98a.48.48,0,0,0-.14-.35.43.43,0,0,0-.34-.15h-9.78a1,1,0,0,1-.7-.29A1,1,0,0,1,122.59,96.48Zm0,16.26V101a1,1,0,0,1,.28-.71,1,1,0,0,1,.7-.29h.25a.94.94,0,0,1,.69.29,1,1,0,0,1,.28.71v11.71a1,1,0,0,1-.28.71.94.94,0,0,1-.69.29h-.25a1,1,0,0,1-.7-.29A1,1,0,0,1,122.59,112.74Z" transform="translate(0.38 0.38)"/><path class="cls-2" d="M138.22,96.48V94.73a1,1,0,0,1,1-1h4.15a.92.92,0,0,1,.69.3,1,1,0,0,1,.29.7v6.75a1,1,0,0,1-.29.71,1,1,0,0,1-1.38,0,1,1,0,0,1-.28-.71V98a.48.48,0,0,0-.14-.35.47.47,0,0,0-.35-.15H139.2a1,1,0,0,1-1-1Z" transform="translate(0.38 0.38)"/><path class="cls-2" d="M146.76,107.73V106a1,1,0,0,1,.29-.71.91.91,0,0,1,.69-.29h4.4a.47.47,0,0,0,.35-.15.52.52,0,0,0,.14-.35V98a.48.48,0,0,0-.14-.35.47.47,0,0,0-.35-.15h-2.93a1,1,0,0,1-1-1V94.73a1,1,0,0,1,1-1h4.4a.92.92,0,0,1,.69.3,1,1,0,0,1,.29.7v13a1,1,0,0,1-.29.71.91.91,0,0,1-.69.29h-5.87a.91.91,0,0,1-.69-.29A1,1,0,0,1,146.76,107.73Z" transform="translate(0.38 0.38)"/><path class="cls-2" d="M157,96.48V94.73a1,1,0,0,1,.29-.7.92.92,0,0,1,.69-.3h4.15a1,1,0,0,1,1,1v13.13a1,1,0,0,1-1,1,.88.88,0,0,1-.68-.3,1,1,0,0,1-.28-.7V98a.45.45,0,0,0-.15-.35.45.45,0,0,0-.34-.15H158a.94.94,0,0,1-.69-.29A1,1,0,0,1,157,96.48Z" transform="translate(0.38 0.38)"/><path class="cls-2" d="M55.91,126.48v-9.24a1,1,0,0,1,.28-.71.91.91,0,0,1,.69-.29h2a.91.91,0,0,1,.69.29,1,1,0,0,1,.29.71V119a1,1,0,0,1-.29.71.91.91,0,0,1-.69.29h-.49a.45.45,0,0,0-.34.15.49.49,0,0,0-.15.36v2.74a.49.49,0,0,0,.15.36.48.48,0,0,0,.34.14h10a.93.93,0,0,1,.69.3,1,1,0,0,1,.28.7v13a1,1,0,0,1-.28.71.92.92,0,0,1-.69.29H63a.91.91,0,0,1-.69-.29,1,1,0,0,1-.29-.71V136a1,1,0,0,1,.29-.71A.91.91,0,0,1,63,135h3.92a.45.45,0,0,0,.34-.15.49.49,0,0,0,.15-.35V128a.45.45,0,0,0-.15-.35.45.45,0,0,0-.34-.15h-10a.94.94,0,0,1-.69-.29A1,1,0,0,1,55.91,126.48Z" transform="translate(0.38 0.38)"/><path class="cls-2" d="M71.79,126.48v-1.75a1,1,0,0,1,.28-.7.94.94,0,0,1,.7-.3h4.15a.92.92,0,0,1,.69.3,1,1,0,0,1,.29.7v13.13a1,1,0,0,1-.29.7.94.94,0,0,1-1.38,0,1,1,0,0,1-.28-.7V128a.48.48,0,0,0-.14-.35.47.47,0,0,0-.35-.15H72.77a1,1,0,0,1-.7-.29A1,1,0,0,1,71.79,126.48Z" transform="translate(0.38 0.38)"/><path class="cls-2" d="M80.33,137.73V136a1,1,0,0,1,.29-.71.91.91,0,0,1,.69-.29h9.53a.47.47,0,0,0,.35-.15.52.52,0,0,0,.14-.35V128a.48.48,0,0,0-.14-.35.47.47,0,0,0-.35-.15H82.78a.47.47,0,0,0-.35.15.45.45,0,0,0-.14.35v.9a.48.48,0,0,0,.14.36.5.5,0,0,0,.35.14h.74a.92.92,0,0,1,.69.3,1,1,0,0,1,.29.7v1.75a1,1,0,0,1-.29.71.94.94,0,0,1-.69.29H81.31a.94.94,0,0,1-.69-.29,1,1,0,0,1-.29-.71v-7.4a1,1,0,0,1,.29-.7.92.92,0,0,1,.69-.3h11a.92.92,0,0,1,.69.3,1,1,0,0,1,.29.7v13a1,1,0,0,1-.29.71.91.91,0,0,1-.69.29h-11a.91.91,0,0,1-.69-.29A1,1,0,0,1,80.33,137.73Z" transform="translate(0.38 0.38)"/><path class="cls-2" d="M95.72,126.48v-1.75A1,1,0,0,1,96,124a.92.92,0,0,1,.69-.3h4.15a1,1,0,0,1,1,1v6.75a1,1,0,0,1-.28.71.94.94,0,0,1-.7.29.87.87,0,0,1-.68-.29,1,1,0,0,1-.28-.71V128a.45.45,0,0,0-.15-.35.45.45,0,0,0-.34-.15H96.7a.94.94,0,0,1-.69-.29A1,1,0,0,1,95.72,126.48Z" transform="translate(0.38 0.38)"/><path class="cls-2" d="M104.27,137.73v-13a1,1,0,0,1,.28-.7.92.92,0,0,1,.69-.3h2a.92.92,0,0,1,.69.3,1,1,0,0,1,.29.7v1.75a1,1,0,0,1-.29.71.94.94,0,0,1-.69.29h-.49a.45.45,0,0,0-.34.15.45.45,0,0,0-.15.35v6.51a.49.49,0,0,0,.15.35.45.45,0,0,0,.34.15H116a.45.45,0,0,0,.34-.15.47.47,0,0,0,.14-.35V128a.5.5,0,0,0-.48-.5h-.92a3,3,0,0,0-1.7.52l-1.92,1a.6.6,0,0,1-.69.06.81.81,0,0,1-.26-.68v-1.93a2,2,0,0,1,.16-.87,1.25,1.25,0,0,1,.55-.57l1.35-.78a3.36,3.36,0,0,1,1.71-.53h3.18a1,1,0,0,1,1,1v13a1,1,0,0,1-.28.71.94.94,0,0,1-.7.29H105.24a.91.91,0,0,1-.69-.29A1,1,0,0,1,104.27,137.73Z" transform="translate(0.38 0.38)"/><path class="cls-2" d="M120.88,126.48v-1.75a1,1,0,0,1,.28-.7.92.92,0,0,1,.69-.3h11.5a.92.92,0,0,1,.69.3,1,1,0,0,1,.28.7v13.13a1,1,0,0,1-.28.7.92.92,0,0,1-.69.3.94.94,0,0,1-.7-.3,1,1,0,0,1-.28-.7V128a.45.45,0,0,0-.15-.35.45.45,0,0,0-.34-.15h-10a.94.94,0,0,1-.69-.29A1,1,0,0,1,120.88,126.48Zm0,11.25v-5.49a1,1,0,0,1,.28-.71.94.94,0,0,1,.69-.29,1,1,0,0,1,.7.29,1,1,0,0,1,.28.71v2.25a.49.49,0,0,0,.15.35.45.45,0,0,0,.34.15h.74a.91.91,0,0,1,.69.29,1,1,0,0,1,.29.71v1.74a.94.94,0,0,1-.29.71.91.91,0,0,1-.69.29h-2.21a.91.91,0,0,1-.69-.29A1,1,0,0,1,120.88,137.73Z" transform="translate(0.38 0.38)"/></svg>