<svg id="Layer_1" data-name="Layer 1" xmlns="http://www.w3.org/2000/svg" viewBox="0 0 200.75 200.75"><defs><style>.cls-1{fill:#192318;stroke:#fff;stroke-miterlimit:10;stroke-width:0.75px;}.cls-2{fill:#fff;}</style></defs><rect class="cls-1" x="0.38" y="0.38" width="200" height="200"/><text x="0.38" y="0.38"/><path class="cls-2" d="M69,92.5V90.75a1,1,0,0,1,.29-.71.94.94,0,0,1,.69-.29h.74A.45.45,0,0,0,71,89.6a.47.47,0,0,0,.15-.35V82.74a.47.47,0,0,0-.15-.35.45.45,0,0,0-.34-.15h-.25a1,1,0,0,1-1-1V79.5a.94.94,0,0,1,.29-.71.92.92,0,0,1,.69-.3h12a.92.92,0,0,1,.69.3,1,1,0,0,1,.29.71V92.62a1,1,0,0,1-.29.71,1,1,0,0,1-1.38,0,1,1,0,0,1-.29-.71V82.74a.5.5,0,0,0-.14-.35.49.49,0,0,0-.35-.15H73.62a.45.45,0,0,0-.34.15.47.47,0,0,0-.15.35V92.5a1,1,0,0,1-.28.7.92.92,0,0,1-.69.3H70a.92.92,0,0,1-.69-.3A1,1,0,0,1,69,92.5Z" transform="translate(0.38 0.38)"/><path class="cls-2" d="M85.83,92.5V90.75a1,1,0,0,1,.29-.71.94.94,0,0,1,.69-.29h9a.47.47,0,0,0,.35-.15.5.5,0,0,0,.14-.35V82.74a.5.5,0,0,0-.14-.35.47.47,0,0,0-.35-.15h-9a.94.94,0,0,1-.69-.29,1,1,0,0,1-.29-.71V79.5a1,1,0,0,1,.29-.71.92.92,0,0,1,.69-.3H97.32a.92.92,0,0,1,.69.3,1,1,0,0,1,.29.71v9.75a.5.5,0,0,0,.14.35.47.47,0,0,0,.35.15h.73a.94.94,0,0,1,.69.29,1,1,0,0,1,.29.71V92.5a1,1,0,0,1-.29.7.92.92,0,0,1-.69.3H86.81a.92.92,0,0,1-.69-.3A1,1,0,0,1,85.83,92.5Z" transform="translate(0.38 0.38)"/><path class="cls-2" d="M102.93,81.24V79.5a.94.94,0,0,1,.29-.71.92.92,0,0,1,.69-.3h4.15a.92.92,0,0,1,.69.3,1,1,0,0,1,.29.71v6.75a1,1,0,0,1-.29.7.94.94,0,0,1-1.38,0,1,1,0,0,1-.28-.7V82.74a.46.46,0,0,0-.14-.35.47.47,0,0,0-.35-.15h-2.69a1,1,0,0,1-1-1Z" transform="translate(0.38 0.38)"/><path class="cls-2" d="M111.47,92.62V79.5a1,1,0,0,1,.29-.71.92.92,0,0,1,.69-.3h11.49a.92.92,0,0,1,.69.3,1,1,0,0,1,.29.71V92.62a1,1,0,0,1-.29.71,1,1,0,0,1-1.38,0,1,1,0,0,1-.29-.71V82.74a.46.46,0,0,0-.14-.35.47.47,0,0,0-.35-.15h-8.55a.47.47,0,0,0-.35.15.5.5,0,0,0-.14.35v9.88a1,1,0,0,1-.29.71,1,1,0,0,1-1.38,0A1,1,0,0,1,111.47,92.62Z" transform="translate(0.38 0.38)"/><path class="cls-2" d="M127.35,92.5v-13a1,1,0,0,1,.29-.71.92.92,0,0,1,.69-.3h11.49a.92.92,0,0,1,.69.3.94.94,0,0,1,.29.71v8.58a2.38,2.38,0,0,1-.69,1.73l-2.91,3a2.35,2.35,0,0,1-1.73.74h-7.14a.92.92,0,0,1-.69-.3A1,1,0,0,1,127.35,92.5Zm2-3.25a.5.5,0,0,0,.14.35.47.47,0,0,0,.35.15h4.77a2.35,2.35,0,0,0,1.72-.73l1.87-1.92a2.34,2.34,0,0,0,.68-1.73V82.74a.46.46,0,0,0-.14-.35.45.45,0,0,0-.34-.15H129.8a.47.47,0,0,0-.35.15.5.5,0,0,0-.14.35Z" transform="translate(0.38 0.38)"/><path class="cls-2" d="M60,111.24V109.5a1,1,0,0,1,.29-.71.92.92,0,0,1,.69-.3H72.5a.92.92,0,0,1,.69.3.94.94,0,0,1,.29.71v13.12a1,1,0,0,1-.29.71,1,1,0,0,1-1.38,0,1,1,0,0,1-.29-.71v-9.88a.46.46,0,0,0-.14-.35.45.45,0,0,0-.34-.15H61a.94.94,0,0,1-.69-.29A1,1,0,0,1,60,111.24Zm0,11.26V117a1,1,0,0,1,.29-.71,1,1,0,0,1,1.38,0A1,1,0,0,1,62,117v2.25a.5.5,0,0,0,.14.35.47.47,0,0,0,.35.15h.74a.94.94,0,0,1,.69.29,1,1,0,0,1,.29.71v1.75a1,1,0,0,1-.29.7.92.92,0,0,1-.69.3H61a.92.92,0,0,1-.69-.3A1,1,0,0,1,60,122.5Z" transform="translate(0.38 0.38)"/><path class="cls-2" d="M75.92,111.24V109.5a1,1,0,0,1,.28-.71.92.92,0,0,1,.69-.3H88.13a1,1,0,0,1,.7.3,1,1,0,0,1,.28.71v13a1,1,0,0,1-1,1H81.79a1,1,0,0,1-1-1v-1.75a1,1,0,0,1,1-1h4.89a.45.45,0,0,0,.34-.15.5.5,0,0,0,.14-.35v-6.51a.5.5,0,0,0-.14-.35.45.45,0,0,0-.34-.15H76.89a.94.94,0,0,1-.69-.29A1,1,0,0,1,75.92,111.24Zm0,16.26V115.79a1,1,0,0,1,.28-.7.92.92,0,0,1,.69-.3h.25a.92.92,0,0,1,.7.3,1,1,0,0,1,.28.7V127.5a1,1,0,0,1-.28.71,1,1,0,0,1-.7.29h-.25a.94.94,0,0,1-.69-.29A1,1,0,0,1,75.92,127.5Z" transform="translate(0.38 0.38)"/><path class="cls-2" d="M91.55,122.5v-1.75a1,1,0,0,1,.28-.71.94.94,0,0,1,.69-.29h4.41a.45.45,0,0,0,.34-.15.47.47,0,0,0,.15-.35v-6.51a.47.47,0,0,0-.15-.35.45.45,0,0,0-.34-.15H94a.94.94,0,0,1-.69-.29,1,1,0,0,1-.29-.71V109.5a1,1,0,0,1,.29-.71.92.92,0,0,1,.69-.3H98.4a.92.92,0,0,1,.69.3,1,1,0,0,1,.28.71v13a1,1,0,0,1-.28.7.92.92,0,0,1-.69.3H92.52a.92.92,0,0,1-.69-.3A1,1,0,0,1,91.55,122.5Z" transform="translate(0.38 0.38)"/><path class="cls-2" d="M101.81,111.24V109.5a1,1,0,0,1,.28-.71,1,1,0,0,1,.7-.3h4.15a.92.92,0,0,1,.69.3,1,1,0,0,1,.29.71v13.12a1,1,0,0,1-.29.71,1,1,0,0,1-1.38,0,1,1,0,0,1-.28-.71v-9.88a.5.5,0,0,0-.14-.35.47.47,0,0,0-.35-.15h-2.69a1,1,0,0,1-1-1Z" transform="translate(0.38 0.38)"/><path class="cls-2" d="M110.35,111.24V102a1,1,0,0,1,.29-.71.94.94,0,0,1,.69-.29h2a.94.94,0,0,1,.69.29,1,1,0,0,1,.28.71v1.75a1,1,0,0,1-.28.7.92.92,0,0,1-.69.3h-.49a.5.5,0,0,0-.35.14.52.52,0,0,0-.14.36V108a.52.52,0,0,0,.14.36.46.46,0,0,0,.35.14h10a.92.92,0,0,1,.69.3,1,1,0,0,1,.29.71v13a1,1,0,0,1-.29.7.92.92,0,0,1-.69.3h-5.38a.92.92,0,0,1-.69-.3,1,1,0,0,1-.29-.7v-1.75a1,1,0,0,1,.29-.71.94.94,0,0,1,.69-.29h3.91a.47.47,0,0,0,.35-.15.5.5,0,0,0,.14-.35v-6.51a.5.5,0,0,0-.14-.35.47.47,0,0,0-.35-.15h-10a.94.94,0,0,1-.69-.29A1,1,0,0,1,110.35,111.24Z" transform="translate(0.38 0.38)"/><path class="cls-2" d="M126.23,122.5v-13a1,1,0,0,1,.29-.71.92.92,0,0,1,.69-.3,1,1,0,0,1,.69.32l7.65,7.31,2.33-2.35a.49.49,0,0,0,.14-.34v-.69a.5.5,0,0,0-.14-.35.47.47,0,0,0-.35-.15h-1.76a1,1,0,0,1-1-1V109.5a1,1,0,0,1,.28-.71,1,1,0,0,1,.7-.3H139a.92.92,0,0,1,.69.3,1,1,0,0,1,.29.71v4a2,2,0,0,1-.5,1.48L137,117.48l2.58,2.45a1.51,1.51,0,0,1,.44,1.14v1.84a.62.62,0,0,1-.68.71,1.09,1.09,0,0,1-.73-.34l-9.55-9a.45.45,0,0,0-.34-.15.47.47,0,0,0-.35.15.5.5,0,0,0-.14.35v4.63a.5.5,0,0,0,.14.35.47.47,0,0,0,.35.15h.74a.94.94,0,0,1,.69.29,1,1,0,0,1,.29.71v1.75a1,1,0,0,1-.29.7.92.92,0,0,1-.69.3h-2.21a.92.92,0,0,1-.69-.3A1,1,0,0,1,126.23,122.5Z" transform="translate(0.38 0.38)"/></svg>