<svg id="Layer_1" data-name="Layer 1" xmlns="http://www.w3.org/2000/svg" viewBox="0 0 200.75 200.75"><defs><style>.cls-1{fill:#192318;stroke:#fff;stroke-miterlimit:10;stroke-width:0.75px;}.cls-2{fill:#fff;}</style></defs><rect class="cls-1" x="0.38" y="0.38" width="200" height="200"/><text x="0.38" y="0.38"/><path class="cls-2" d="M13.28,66.48V64.73a1,1,0,0,1,.29-.71.94.94,0,0,1,.69-.29h12a.94.94,0,0,1,.69.29,1,1,0,0,1,.29.71v1.75a1,1,0,0,1-.29.71.94.94,0,0,1-.69.29h-1a.45.45,0,0,0-.34.15.45.45,0,0,0-.15.35v9.88a1,1,0,0,1-.28.7.92.92,0,0,1-.69.3.94.94,0,0,1-.7-.3,1,1,0,0,1-.28-.7V68a.45.45,0,0,0-.15-.35.45.45,0,0,0-.34-.15H14.26a.94.94,0,0,1-.69-.29A1,1,0,0,1,13.28,66.48Z" transform="translate(0.38 0.38)"/><path class="cls-2" d="M29.65,66.48V64.73a1,1,0,0,1,.29-.71.94.94,0,0,1,.69-.29h4.15a1,1,0,0,1,.7.29,1,1,0,0,1,.28.71V77.86a1,1,0,0,1-.28.7.94.94,0,0,1-.7.3.9.9,0,0,1-.68-.3,1,1,0,0,1-.28-.7V68a.45.45,0,0,0-.15-.35.45.45,0,0,0-.34-.15h-2.7a.94.94,0,0,1-.69-.29A1,1,0,0,1,29.65,66.48Z" transform="translate(0.38 0.38)"/><path class="cls-2" d="M38.2,66.48V64.73a1,1,0,0,1,.28-.71,1,1,0,0,1,.69-.29h4.16A.94.94,0,0,1,44,64a1,1,0,0,1,.29.71v6.75a1,1,0,0,1-.29.71,1,1,0,0,1-1.38,0,1,1,0,0,1-.28-.71V68a.48.48,0,0,0-.14-.35.47.47,0,0,0-.35-.15h-2.7a1,1,0,0,1-.69-.29A1,1,0,0,1,38.2,66.48Z" transform="translate(0.38 0.38)"/><path class="cls-2" d="M46.74,66.48V64.73A1,1,0,0,1,47,64a.94.94,0,0,1,.69-.29h2.93a1,1,0,0,1,.7.29,1,1,0,0,1,.28.71V69a.48.48,0,0,0,.25.44l2.93,1.63,2.93-1.73a.45.45,0,0,0,.24-.43V68a.48.48,0,0,0-.14-.35.43.43,0,0,0-.34-.15H56a1,1,0,0,1-.7-.29,1,1,0,0,1-.28-.71V64.73a1,1,0,0,1,.28-.71,1,1,0,0,1,.7-.29H59a.94.94,0,0,1,.69.29,1,1,0,0,1,.29.71v4.41a2.55,2.55,0,0,1-.22,1.09A2,2,0,0,1,59,71l-2.09,1.25,2.6,1.47a.91.91,0,0,1,.48.85v3.16a1,1,0,0,1-.29.71.91.91,0,0,1-.69.29H48.21a.91.91,0,0,1-.69-.29,1,1,0,0,1-.29-.71V76a1,1,0,0,1,.29-.71.91.91,0,0,1,.69-.29h7.38c.24,0,.37-.09.4-.25s-.05-.32-.25-.44l-5.07-2.71a1.84,1.84,0,0,1-.77-.77,2.34,2.34,0,0,1-.22-1.08V68a.45.45,0,0,0-.15-.35.45.45,0,0,0-.34-.15H47.72a.94.94,0,0,1-.69-.29A1,1,0,0,1,46.74,66.48Z" transform="translate(0.38 0.38)"/><path class="cls-2" d="M72.14,66.48V57.24a1,1,0,0,1,.29-.71.91.91,0,0,1,.69-.29h2a.91.91,0,0,1,.69.29,1,1,0,0,1,.29.71V59a1,1,0,0,1-.29.71.91.91,0,0,1-.69.29h-.49a.47.47,0,0,0-.35.15.52.52,0,0,0-.14.35v2.75a.48.48,0,0,0,.14.35.47.47,0,0,0,.35.15h10a.94.94,0,0,1,.69.29,1,1,0,0,1,.29.71v13a.94.94,0,0,1-.29.71.91.91,0,0,1-.69.29H79.23a.91.91,0,0,1-.69-.29,1,1,0,0,1-.29-.71V76a1,1,0,0,1,.29-.71.91.91,0,0,1,.69-.29h3.92a.45.45,0,0,0,.34-.15.47.47,0,0,0,.14-.35V68a.5.5,0,0,0-.48-.5h-10a.94.94,0,0,1-.69-.29A1,1,0,0,1,72.14,66.48Z" transform="translate(0.38 0.38)"/><path class="cls-2" d="M88,77.73V76a1,1,0,0,1,.28-.71A.91.91,0,0,1,89,75h1.72a.47.47,0,0,0,.35-.15.52.52,0,0,0,.14-.35V68a.48.48,0,0,0-.14-.35.47.47,0,0,0-.35-.15H89a.94.94,0,0,1-.69-.29,1,1,0,0,1-.28-.71V64.73a1,1,0,0,1,.28-.71.94.94,0,0,1,.69-.29h3.19a.94.94,0,0,1,.69.29,1,1,0,0,1,.28.71v9.76a.47.47,0,0,0,.14.35.47.47,0,0,0,.35.15h5.62a.45.45,0,0,0,.34-.15.47.47,0,0,0,.14-.35V68a.5.5,0,0,0-.48-.5H97.56a.94.94,0,0,1-.69-.29,1,1,0,0,1-.29-.71V64.73a1,1,0,0,1,.29-.71.94.94,0,0,1,.69-.29h3.17a1,1,0,0,1,.7.29,1,1,0,0,1,.28.71v13a1,1,0,0,1-.28.71.94.94,0,0,1-.7.29H89a.91.91,0,0,1-.69-.29A1,1,0,0,1,88,77.73Z" transform="translate(0.38 0.38)"/><path class="cls-2" d="M113.92,66.48V64.73a1,1,0,0,1,.29-.71.94.94,0,0,1,.69-.29h11.49a.94.94,0,0,1,.69.29,1,1,0,0,1,.29.71V77.86a1,1,0,0,1-.29.7.94.94,0,0,1-1.38,0,.93.93,0,0,1-.29-.7V68a.5.5,0,0,0-.49-.5h-10a.94.94,0,0,1-.69-.29A1,1,0,0,1,113.92,66.48Zm0,11.25V72.24a1,1,0,0,1,1.67-.71,1,1,0,0,1,.29.71v2.25a.47.47,0,0,0,.14.35.45.45,0,0,0,.34.15h.74a.93.93,0,0,1,.7.29,1,1,0,0,1,.28.71v1.74a1,1,0,0,1-.28.71.93.93,0,0,1-.7.29h-2.2a.91.91,0,0,1-.69-.29A.94.94,0,0,1,113.92,77.73Z" transform="translate(0.38 0.38)"/><path class="cls-2" d="M129.8,66.48V64.73a1,1,0,0,1,.29-.71.94.94,0,0,1,.69-.29h10.75a.94.94,0,0,1,.69.29,1,1,0,0,1,.29.71V77.86a1,1,0,0,1-.29.7.94.94,0,0,1-1.38,0,1,1,0,0,1-.28-.7V68a.48.48,0,0,0-.14-.35.47.47,0,0,0-.35-.15h-9.29a.94.94,0,0,1-.69-.29A1,1,0,0,1,129.8,66.48Z" transform="translate(0.38 0.38)"/><path class="cls-2" d="M144.94,66.48V64.73a1,1,0,0,1,.29-.71.94.94,0,0,1,.69-.29h4.15a.94.94,0,0,1,.69.29,1,1,0,0,1,.29.71v6.75a.94.94,0,0,1-.29.71.91.91,0,0,1-.69.29.87.87,0,0,1-.68-.29,1,1,0,0,1-.28-.71V68a.45.45,0,0,0-.15-.35.45.45,0,0,0-.34-.15h-2.7a.94.94,0,0,1-.69-.29A1,1,0,0,1,144.94,66.48Z" transform="translate(0.38 0.38)"/><path class="cls-2" d="M153.49,66.48V64.73a1,1,0,0,1,.28-.71.94.94,0,0,1,.69-.29h2a.94.94,0,0,1,.69.29,1,1,0,0,1,.29.71v1.5c0,.57.17.67.52.31l2.08-2.1a2.3,2.3,0,0,1,1.71-.71h5.95a.94.94,0,0,1,.69.29,1,1,0,0,1,.29.71v13a1,1,0,0,1-.29.71.91.91,0,0,1-.69.29H162a.91.91,0,0,1-.69-.29,1,1,0,0,1-.29-.71V76a1,1,0,0,1,.29-.71A.91.91,0,0,1,162,75h4.15a.47.47,0,0,0,.35-.15.52.52,0,0,0,.14-.35V68a.48.48,0,0,0-.14-.35.47.47,0,0,0-.35-.15h-4a2.23,2.23,0,0,0-1.69.71l-2.12,2.17a2.47,2.47,0,0,0-.71,1.77v5.73a1,1,0,0,1-.29.7.94.94,0,0,1-1.38,0,1,1,0,0,1-.29-.7V68a.45.45,0,0,0-.14-.35.47.47,0,0,0-.35-.15h-.74a.94.94,0,0,1-.69-.29A1,1,0,0,1,153.49,66.48Z" transform="translate(0.38 0.38)"/><path class="cls-2" d="M171.07,77.73v-13a1,1,0,0,1,.29-.71.94.94,0,0,1,.69-.29h2a.94.94,0,0,1,.69.29,1,1,0,0,1,.29.71v1.75a1,1,0,0,1-.29.71.94.94,0,0,1-.69.29h-.49a.47.47,0,0,0-.35.15A.48.48,0,0,0,173,68v6.51a.52.52,0,0,0,.14.35.47.47,0,0,0,.35.15h10.75a.47.47,0,0,0,.35-.15.52.52,0,0,0,.14-.35V68a.48.48,0,0,0-.14-.35.47.47,0,0,0-.35-.15h-.49a.94.94,0,0,1-.69-.29,1,1,0,0,1-.29-.71V64.73a1,1,0,0,1,.29-.71.94.94,0,0,1,.69-.29h2a.94.94,0,0,1,.69.29,1,1,0,0,1,.29.71v13a1,1,0,0,1-.29.71.91.91,0,0,1-.69.29H172.05a.91.91,0,0,1-.69-.29A1,1,0,0,1,171.07,77.73Zm5.87-11.25V64.73a1,1,0,0,1,.29-.71.94.94,0,0,1,.69-.29h2a.94.94,0,0,1,.69.29,1,1,0,0,1,.29.71v6.75a1,1,0,0,1-.29.71,1,1,0,0,1-1.38,0,1,1,0,0,1-.29-.71V68a.48.48,0,0,0-.14-.35.47.47,0,0,0-.35-.15h-.49a.94.94,0,0,1-.69-.29A1,1,0,0,1,176.94,66.48Z" transform="translate(0.38 0.38)"/><path class="cls-2" d="M65.43,107.73V106a1,1,0,0,1,.29-.71.91.91,0,0,1,.69-.29h1.72a.45.45,0,0,0,.34-.15.49.49,0,0,0,.15-.35V98a.45.45,0,0,0-.15-.35.45.45,0,0,0-.34-.15H66.41a.94.94,0,0,1-.69-.29,1,1,0,0,1-.29-.71V94.73a1,1,0,0,1,.29-.71.94.94,0,0,1,.69-.29H69.6a.91.91,0,0,1,.68.29,1,1,0,0,1,.28.71v9.76a.49.49,0,0,0,.15.35.45.45,0,0,0,.34.15h5.62a.47.47,0,0,0,.35-.15.52.52,0,0,0,.14-.35V98a.48.48,0,0,0-.14-.35.47.47,0,0,0-.35-.15H75a1,1,0,0,1-.7-.29,1,1,0,0,1-.28-.71V94.73a1,1,0,0,1,.28-.71,1,1,0,0,1,.7-.29h3.17a.94.94,0,0,1,.69.29,1,1,0,0,1,.29.71v13a1,1,0,0,1-.29.71.91.91,0,0,1-.69.29H66.41a.91.91,0,0,1-.69-.29A1,1,0,0,1,65.43,107.73Z" transform="translate(0.38 0.38)"/><path class="cls-2" d="M81.55,96.48V94.73a1,1,0,0,1,.29-.71.94.94,0,0,1,.69-.29h4.15a1,1,0,0,1,.7.29,1,1,0,0,1,.28.71v13.13a1,1,0,0,1-1,1,.88.88,0,0,1-.68-.3,1,1,0,0,1-.28-.7V98a.45.45,0,0,0-.15-.35.45.45,0,0,0-.34-.15h-2.7a.94.94,0,0,1-.69-.29A1,1,0,0,1,81.55,96.48Z" transform="translate(0.38 0.38)"/><path class="cls-2" d="M90.1,96.48V94.73a1,1,0,0,1,.28-.71.94.94,0,0,1,.69-.29H94a.94.94,0,0,1,.69.29,1,1,0,0,1,.29.71V99a.46.46,0,0,0,.25.44l2.92,1.63,2.94-1.73a.45.45,0,0,0,.24-.43V98a.48.48,0,0,0-.14-.35.45.45,0,0,0-.34-.15H99.39a.94.94,0,0,1-.69-.29,1,1,0,0,1-.29-.71V94.73A1,1,0,0,1,98.7,94a.94.94,0,0,1,.69-.29h2.92a1,1,0,0,1,.7.29,1,1,0,0,1,.28.71v4.41a2.41,2.41,0,0,1-.22,1.09,2,2,0,0,1-.77.77l-2.09,1.25,2.61,1.47a.92.92,0,0,1,.47.85v3.16a1,1,0,0,1-.28.71.93.93,0,0,1-.7.29H91.56a.91.91,0,0,1-.69-.29,1,1,0,0,1-.29-.71V106a1,1,0,0,1,.29-.71.91.91,0,0,1,.69-.29H99c.23,0,.36-.09.4-.25a.41.41,0,0,0-.26-.44L94,101.59a2,2,0,0,1-.77-.77A2.34,2.34,0,0,1,93,99.74V98a.48.48,0,0,0-.14-.35.47.47,0,0,0-.35-.15H91.07a.94.94,0,0,1-.69-.29A1,1,0,0,1,90.1,96.48Z" transform="translate(0.38 0.38)"/><path class="cls-2" d="M105.73,107.73V106a1,1,0,0,1,.28-.71.91.91,0,0,1,.7-.29h9.53a.45.45,0,0,0,.34-.15.49.49,0,0,0,.15-.35V98a.45.45,0,0,0-.15-.35.45.45,0,0,0-.34-.15h-8.07a.45.45,0,0,0-.34.15.45.45,0,0,0-.15.35v.9a.49.49,0,0,0,.15.36.48.48,0,0,0,.34.14h.74a.92.92,0,0,1,.69.3.93.93,0,0,1,.29.7v1.75a1,1,0,0,1-1,1h-2.2a1,1,0,0,1-.7-.29,1,1,0,0,1-.28-.71v-7.4A1,1,0,0,1,106,94a1,1,0,0,1,.7-.29h11a.94.94,0,0,1,.69.29,1,1,0,0,1,.29.71v13a1,1,0,0,1-.29.71.91.91,0,0,1-.69.29h-11a.91.91,0,0,1-.7-.29A1,1,0,0,1,105.73,107.73Z" transform="translate(0.38 0.38)"/><path class="cls-2" d="M121.12,96.48V94.73a1,1,0,0,1,.29-.71.94.94,0,0,1,.69-.29h11.49a.94.94,0,0,1,.69.29,1,1,0,0,1,.29.71v13.13a1,1,0,0,1-.29.7.94.94,0,0,1-1.38,0,1,1,0,0,1-.29-.7V98a.48.48,0,0,0-.14-.35.47.47,0,0,0-.35-.15h-10a.94.94,0,0,1-.69-.29A1,1,0,0,1,121.12,96.48Zm0,11.25v-5.49a1,1,0,0,1,1.67-.71,1,1,0,0,1,.29.71v2.25a.47.47,0,0,0,.14.35.45.45,0,0,0,.35.15h.74a.91.91,0,0,1,.69.29,1,1,0,0,1,.28.71v1.74a1,1,0,0,1-.28.71.91.91,0,0,1-.69.29H122.1a.91.91,0,0,1-.69-.29A.94.94,0,0,1,121.12,107.73Z" transform="translate(0.38 0.38)"/><path class="cls-2" d="M42.85,138.59V123.88a2.4,2.4,0,0,1,.22-1.1,1.82,1.82,0,0,1,.77-.76l2.95-1.72.16-.1a1.08,1.08,0,0,1,.18-.11l.17-.07a.79.79,0,0,1,.2,0,.9.9,0,0,1,.69.3,1,1,0,0,1,.28.71v1.58a1.11,1.11,0,0,1-.12.5,1,1,0,0,1-.33.36l-3,1.77a.45.45,0,0,0-.25.44v11.19a.46.46,0,0,0,.25.44l3,1.78a.91.91,0,0,1,.45.84v1.59a1,1,0,0,1-.28.71.93.93,0,0,1-.69.29l-.2,0-.17-.07a.84.84,0,0,1-.19-.11.76.76,0,0,0-.15-.09l-2.95-1.74a1.87,1.87,0,0,1-.77-.76A2.35,2.35,0,0,1,42.85,138.59Z" transform="translate(0.38 0.38)"/><path class="cls-2" d="M50.91,137.73v-13a1,1,0,0,1,.28-.71.94.94,0,0,1,.69-.29h2a.94.94,0,0,1,.69.29,1,1,0,0,1,.29.71v1.75a1,1,0,0,1-.29.71.94.94,0,0,1-.69.29h-.49a.45.45,0,0,0-.34.15.45.45,0,0,0-.15.35v6.51a.49.49,0,0,0,.15.35.45.45,0,0,0,.34.15h9.28a.45.45,0,0,0,.35-.15.47.47,0,0,0,.14-.35V128a.45.45,0,0,0-.14-.35.45.45,0,0,0-.35-.15h-.91A2.94,2.94,0,0,0,60,128l-1.92,1a.6.6,0,0,1-.69.06.81.81,0,0,1-.26-.68v-1.93a2,2,0,0,1,.16-.87,1.25,1.25,0,0,1,.55-.57l1.35-.78a3.36,3.36,0,0,1,1.71-.53H64.1a.94.94,0,0,1,.69.29,1,1,0,0,1,.29.71v13a.94.94,0,0,1-.29.71.91.91,0,0,1-.69.29H51.88a.91.91,0,0,1-.69-.29A1,1,0,0,1,50.91,137.73Z" transform="translate(0.38 0.38)"/><path class="cls-2" d="M67.52,137.73v-13a1,1,0,0,1,.28-.71.94.94,0,0,1,.69-.29H80a1,1,0,0,1,.69.29,1,1,0,0,1,.28.71v8.58a2.39,2.39,0,0,1-.69,1.74L77.36,138a2.32,2.32,0,0,1-1.73.73H68.49a.91.91,0,0,1-.69-.29A1,1,0,0,1,67.52,137.73Zm2-3.24a.49.49,0,0,0,.15.35A.45.45,0,0,0,70,135h4.77a2.31,2.31,0,0,0,1.72-.74l1.88-1.91A2.41,2.41,0,0,0,79,130.6V128a.45.45,0,0,0-.15-.35.45.45,0,0,0-.34-.15H70a.45.45,0,0,0-.34.15.45.45,0,0,0-.15.35Z" transform="translate(0.38 0.38)"/><path class="cls-2" d="M83.4,126.48v-1.75a1,1,0,0,1,.28-.71,1,1,0,0,1,.7-.29h4.15a.94.94,0,0,1,.69.29,1,1,0,0,1,.29.71v13.13a1,1,0,0,1-.29.7.94.94,0,0,1-1.38,0,1,1,0,0,1-.28-.7V128a.48.48,0,0,0-.14-.35.47.47,0,0,0-.35-.15H84.38a1,1,0,0,1-.7-.29A1,1,0,0,1,83.4,126.48Z" transform="translate(0.38 0.38)"/><path class="cls-2" d="M91.94,126.48v-1.75a1,1,0,0,1,.29-.71.94.94,0,0,1,.69-.29h4.15a.94.94,0,0,1,.69.29,1,1,0,0,1,.29.71v13.13a1,1,0,0,1-.29.7.92.92,0,0,1-.69.3.88.88,0,0,1-.68-.3,1,1,0,0,1-.28-.7V128a.45.45,0,0,0-.15-.35.45.45,0,0,0-.34-.15h-2.7a.94.94,0,0,1-.69-.29A1,1,0,0,1,91.94,126.48Z" transform="translate(0.38 0.38)"/><path class="cls-2" d="M100.73,137.73V136a1,1,0,0,1,.29-.71.91.91,0,0,1,.69-.29h2.2a.91.91,0,0,1,.69.29,1,1,0,0,1,.29.71v4.25a1,1,0,0,1-.29.7.94.94,0,0,1-1.38,0,1,1,0,0,1-.29-.7v-1a.52.52,0,0,0-.14-.35.47.47,0,0,0-.35-.15h-.73a.91.91,0,0,1-.69-.29A1,1,0,0,1,100.73,137.73Z" transform="translate(0.38 0.38)"/><path class="cls-2" d="M107.56,126.48v-1.75a1,1,0,0,1,.29-.71.94.94,0,0,1,.69-.29h11.24a.94.94,0,0,1,.69.29,1,1,0,0,1,.29.71v13a1,1,0,0,1-.29.71.91.91,0,0,1-.69.29h-6.35a.91.91,0,0,1-.69-.29,1,1,0,0,1-.29-.71V136a1,1,0,0,1,.29-.71.91.91,0,0,1,.69-.29h4.89a.43.43,0,0,0,.34-.15.52.52,0,0,0,.14-.35V128a.48.48,0,0,0-.14-.35.43.43,0,0,0-.34-.15h-9.78a.94.94,0,0,1-.69-.29A1,1,0,0,1,107.56,126.48Zm0,16.26V131a1,1,0,0,1,.29-.71.94.94,0,0,1,.69-.29h.25a.94.94,0,0,1,.69.29,1,1,0,0,1,.29.71v11.71a1,1,0,0,1-.29.71.94.94,0,0,1-.69.29h-.25a.94.94,0,0,1-.69-.29A1,1,0,0,1,107.56,142.74Z" transform="translate(0.38 0.38)"/><path class="cls-2" d="M123.19,137.73v-13a1,1,0,0,1,.29-.71.94.94,0,0,1,.69-.29h2a.94.94,0,0,1,.69.29,1,1,0,0,1,.28.71v1.75a1,1,0,0,1-.28.71.94.94,0,0,1-.69.29h-.49a.47.47,0,0,0-.35.15.48.48,0,0,0-.14.35v6.51a.52.52,0,0,0,.14.35.47.47,0,0,0,.35.15h10.75a.45.45,0,0,0,.34-.15.49.49,0,0,0,.15-.35V128a.45.45,0,0,0-.15-.35.45.45,0,0,0-.34-.15h-.49a.94.94,0,0,1-.69-.29,1,1,0,0,1-.29-.71v-1.75a1,1,0,0,1,.29-.71.94.94,0,0,1,.69-.29h2a.94.94,0,0,1,.69.29,1,1,0,0,1,.28.71v13a1,1,0,0,1-.28.71.91.91,0,0,1-.69.29H124.17a.91.91,0,0,1-.69-.29A1,1,0,0,1,123.19,137.73Zm5.87-11.25v-1.75a1,1,0,0,1,.29-.71.94.94,0,0,1,.69-.29h2a.94.94,0,0,1,.69.29,1,1,0,0,1,.28.71v6.75a1,1,0,0,1-.28.71.91.91,0,0,1-.69.29.94.94,0,0,1-.7-.29,1,1,0,0,1-.28-.71V128a.5.5,0,0,0-.49-.5H130a.94.94,0,0,1-.69-.29A1,1,0,0,1,129.06,126.48Z" transform="translate(0.38 0.38)"/><path class="cls-2" d="M141.27,137.73V136a1,1,0,0,1,.28-.71.94.94,0,0,1,.7-.29h4.4a.49.49,0,0,0,.35-.15.52.52,0,0,0,.14-.35V128a.5.5,0,0,0-.49-.5h-2.94a.94.94,0,0,1-.69-.29,1,1,0,0,1-.28-.71v-1.75A1,1,0,0,1,143,124a.94.94,0,0,1,.69-.29h4.41a.94.94,0,0,1,.69.29,1,1,0,0,1,.29.71v13a1,1,0,0,1-.29.71.91.91,0,0,1-.69.29h-5.87a.94.94,0,0,1-.7-.29A1,1,0,0,1,141.27,137.73Z" transform="translate(0.38 0.38)"/><path class="cls-2" d="M151.53,139.89a.91.91,0,0,1,.47-.84l2.95-1.78a.47.47,0,0,0,.26-.44V125.64a.46.46,0,0,0-.26-.44L152,123.43a.91.91,0,0,1-.34-.36,1,1,0,0,1-.13-.5V121a.94.94,0,0,1,.29-.71.92.92,0,0,1,.69-.3.79.79,0,0,1,.2,0l.17.07a.62.62,0,0,1,.18.11l.16.1,2.95,1.72a1.79,1.79,0,0,1,.76.76,2.4,2.4,0,0,1,.22,1.1v14.71a2.51,2.51,0,0,1-.21,1.1,1.92,1.92,0,0,1-.77.75l-2.95,1.74-.15.09a.84.84,0,0,1-.19.11l-.16.07-.21,0a1,1,0,0,1-1-1Z" transform="translate(0.38 0.38)"/></svg>