<svg id="Layer_1" data-name="Layer 1" xmlns="http://www.w3.org/2000/svg" viewBox="0 0 200.75 200.75"><defs><style>.cls-1{fill:#192318;stroke:#fff;stroke-miterlimit:10;stroke-width:0.75px;}.cls-2{fill:#fff;}</style></defs><rect class="cls-1" x="0.38" y="0.38" width="200" height="200"/><text x="0.38" y="0.38"/><path class="cls-2" d="M19.64,77.5v-13a1,1,0,0,1,.28-.71.94.94,0,0,1,.7-.29H28.8a2.3,2.3,0,0,1,1.7.7l1.87,1.91a2.43,2.43,0,0,1,.71,1.77V77.5a1,1,0,0,1-.28.71.94.94,0,0,1-.69.29H20.62a1,1,0,0,1-.7-.29A1,1,0,0,1,19.64,77.5Zm1.95-3.25a.45.45,0,0,0,.15.35.45.45,0,0,0,.34.15h8.56a.5.5,0,0,0,.49-.5V70.48a2.44,2.44,0,0,0-.72-1.77L29.7,68a2.29,2.29,0,0,0-1.7-.71H22.08a.45.45,0,0,0-.34.15.49.49,0,0,0-.15.35Z" transform="translate(0.38 0.38)"/><path class="cls-2" d="M35.52,66.24V64.5a.94.94,0,0,1,.29-.71.91.91,0,0,1,.69-.29h4.15a.91.91,0,0,1,.69.29,1,1,0,0,1,.29.71v6.75a1,1,0,0,1-.29.71A1,1,0,0,1,40,72a1,1,0,0,1-.28-.71V67.74a.47.47,0,0,0-.14-.35.47.47,0,0,0-.35-.15H36.5a.91.91,0,0,1-.69-.29A1,1,0,0,1,35.52,66.24Z" transform="translate(0.38 0.38)"/><path class="cls-2" d="M44.06,77.5V75.75a1,1,0,0,1,.29-.71.94.94,0,0,1,.69-.29h1.72a.5.5,0,0,0,.49-.5V67.74a.52.52,0,0,0-.14-.35.49.49,0,0,0-.35-.15H45a.91.91,0,0,1-.69-.29,1,1,0,0,1-.29-.71V64.5a1,1,0,0,1,.29-.71A.91.91,0,0,1,45,63.5h3.19a.87.87,0,0,1,.68.29,1,1,0,0,1,.28.71v9.75a.45.45,0,0,0,.15.35.45.45,0,0,0,.34.15H55.3a.47.47,0,0,0,.35-.15.48.48,0,0,0,.14-.35V67.74a.52.52,0,0,0-.14-.35.47.47,0,0,0-.35-.15H53.6a.94.94,0,0,1-.7-.29,1,1,0,0,1-.28-.71V64.5a1,1,0,0,1,.28-.71.94.94,0,0,1,.7-.29h3.17a.91.91,0,0,1,.69.29,1,1,0,0,1,.29.71v13a1,1,0,0,1-.29.71.94.94,0,0,1-.69.29H45a.94.94,0,0,1-.69-.29A1,1,0,0,1,44.06,77.5Z" transform="translate(0.38 0.38)"/><path class="cls-2" d="M60.18,66.24V64.5a1,1,0,0,1,.29-.71.91.91,0,0,1,.69-.29h4.15a.94.94,0,0,1,.7.29,1,1,0,0,1,.28.71V77.62a1,1,0,0,1-1,1,.91.91,0,0,1-.68-.29,1,1,0,0,1-.28-.71V67.74a.49.49,0,0,0-.15-.35.45.45,0,0,0-.34-.15h-2.7a.91.91,0,0,1-.69-.29A1,1,0,0,1,60.18,66.24Z" transform="translate(0.38 0.38)"/><path class="cls-2" d="M68.73,66.24V64.5a1,1,0,0,1,.28-.71.91.91,0,0,1,.7-.29h2.93a.91.91,0,0,1,.69.29,1,1,0,0,1,.29.71v4.29a.45.45,0,0,0,.25.44l2.92,1.64,2.94-1.74a.44.44,0,0,0,.24-.42v-1a.52.52,0,0,0-.14-.35.45.45,0,0,0-.34-.15H78a.91.91,0,0,1-.69-.29,1,1,0,0,1-.29-.71V64.5a1,1,0,0,1,.29-.71A.91.91,0,0,1,78,63.5H81a.91.91,0,0,1,.69.29,1,1,0,0,1,.28.71v4.4A2.38,2.38,0,0,1,81.7,70a1.89,1.89,0,0,1-.77.77L78.85,72l2.6,1.46a.93.93,0,0,1,.47.85V77.5a1,1,0,0,1-.28.71.94.94,0,0,1-.69.29H70.19a.94.94,0,0,1-.69-.29,1,1,0,0,1-.28-.71V75.75A1,1,0,0,1,69.5,75a.94.94,0,0,1,.69-.29h7.39c.23,0,.36-.08.4-.25s0-.31-.26-.43l-5.07-2.71a2,2,0,0,1-.77-.77,2.55,2.55,0,0,1-.22-1.09V67.74a.52.52,0,0,0-.14-.35.47.47,0,0,0-.35-.15H69.71A.91.91,0,0,1,69,67,1,1,0,0,1,68.73,66.24Z" transform="translate(0.38 0.38)"/><path class="cls-2" d="M84.36,77.5V75.75a1,1,0,0,1,.28-.71,1,1,0,0,1,.7-.29h9.53a.5.5,0,0,0,.49-.5V67.74a.52.52,0,0,0-.14-.35.49.49,0,0,0-.35-.15H86.8a.45.45,0,0,0-.34.15.49.49,0,0,0-.15.35v.91a.47.47,0,0,0,.15.35.45.45,0,0,0,.34.15h.74a1,1,0,0,1,1,1v1.74a1,1,0,0,1-.28.71.94.94,0,0,1-.7.29h-2.2a.93.93,0,0,1-.7-.29,1,1,0,0,1-.28-.71V64.5a1,1,0,0,1,.28-.71.93.93,0,0,1,.7-.29h11a.91.91,0,0,1,.69.29,1,1,0,0,1,.29.71v13a1,1,0,0,1-.29.71.94.94,0,0,1-.69.29h-11a1,1,0,0,1-.7-.29A1,1,0,0,1,84.36,77.5Z" transform="translate(0.38 0.38)"/><path class="cls-2" d="M99.75,66.24V64.5a1,1,0,0,1,.29-.71.91.91,0,0,1,.69-.29h11.49a.91.91,0,0,1,.69.29,1,1,0,0,1,.29.71V77.62a1,1,0,0,1-.29.71,1,1,0,0,1-1.38,0,1,1,0,0,1-.29-.71V67.74a.52.52,0,0,0-.14-.35.47.47,0,0,0-.35-.15h-10A.91.91,0,0,1,100,67,1,1,0,0,1,99.75,66.24Zm0,11.26V72a1,1,0,0,1,.29-.7.94.94,0,0,1,1.38,0,1,1,0,0,1,.29.7v2.25a.45.45,0,0,0,.14.35.47.47,0,0,0,.35.15h.74a.94.94,0,0,1,.69.29,1,1,0,0,1,.29.71V77.5a1,1,0,0,1-.29.71.94.94,0,0,1-.69.29h-2.21a.94.94,0,0,1-.69-.29A1,1,0,0,1,99.75,77.5Z" transform="translate(0.38 0.38)"/><path class="cls-2" d="M125.4,66.24V64.5a1,1,0,0,1,.29-.71.91.91,0,0,1,.69-.29h5.38a.91.91,0,0,1,.7.29,1,1,0,0,1,.28.71v1.74a1,1,0,0,1-.28.71.91.91,0,0,1-.7.29h-1a.47.47,0,0,0-.35.15.47.47,0,0,0-.14.35v9.88a1,1,0,0,1-.29.71,1,1,0,0,1-1.38,0,1,1,0,0,1-.29-.71V67.74a.52.52,0,0,0-.14-.35.47.47,0,0,0-.35-.15h-1.47a.91.91,0,0,1-.69-.29A1,1,0,0,1,125.4,66.24Z" transform="translate(0.38 0.38)"/><path class="cls-2" d="M135.18,66.24V64.5a1,1,0,0,1,.28-.71.91.91,0,0,1,.7-.29h4.15a.91.91,0,0,1,.69.29,1,1,0,0,1,.29.71V77.62a1,1,0,0,1-.29.71,1,1,0,0,1-1.38,0,1,1,0,0,1-.28-.71V67.74a.52.52,0,0,0-.14-.35.47.47,0,0,0-.35-.15h-2.69a.91.91,0,0,1-.7-.29A1,1,0,0,1,135.18,66.24Z" transform="translate(0.38 0.38)"/><path class="cls-2" d="M143.72,77.5V75.75A1,1,0,0,1,144,75a.94.94,0,0,1,.69-.29h9.53a.47.47,0,0,0,.35-.15.48.48,0,0,0,.14-.35V67.74a.52.52,0,0,0-.14-.35.47.47,0,0,0-.35-.15H144.7A.91.91,0,0,1,144,67a1,1,0,0,1-.29-.71V64.5a1,1,0,0,1,.29-.71.91.91,0,0,1,.69-.29h11a.91.91,0,0,1,.69.29,1,1,0,0,1,.29.71v13a1,1,0,0,1-.29.71.94.94,0,0,1-.69.29h-11a.94.94,0,0,1-.69-.29A1,1,0,0,1,143.72,77.5Z" transform="translate(0.38 0.38)"/><path class="cls-2" d="M159.11,66.24V64.5a1,1,0,0,1,.29-.71.91.91,0,0,1,.69-.29h4.15a.94.94,0,0,1,.7.29,1,1,0,0,1,.28.71v6.75a1,1,0,0,1-.28.71,1,1,0,0,1-.7.29.91.91,0,0,1-.68-.29,1,1,0,0,1-.28-.71V67.74a.49.49,0,0,0-.15-.35.45.45,0,0,0-.34-.15h-2.7a.91.91,0,0,1-.69-.29A1,1,0,0,1,159.11,66.24Z" transform="translate(0.38 0.38)"/><path class="cls-2" d="M167.66,66.24V64.5a1,1,0,0,1,.28-.71.91.91,0,0,1,.69-.29h10.75a.91.91,0,0,1,.7.29,1,1,0,0,1,.28.71V77.62a1,1,0,0,1-.28.71,1,1,0,0,1-.7.29.92.92,0,0,1-.68-.29,1,1,0,0,1-.28-.71V67.74a.52.52,0,0,0-.14-.35.49.49,0,0,0-.35-.15h-9.3a.91.91,0,0,1-.69-.29A1,1,0,0,1,167.66,66.24Z" transform="translate(0.38 0.38)"/><path class="cls-2" d="M13.52,96.24V87a1,1,0,0,1,.29-.71A.94.94,0,0,1,14.5,86h2a.94.94,0,0,1,.69.29,1,1,0,0,1,.29.71v1.75a1,1,0,0,1-.29.71.94.94,0,0,1-.69.29H16a.5.5,0,0,0-.35.14.52.52,0,0,0-.14.36V93a.52.52,0,0,0,.14.35.47.47,0,0,0,.35.15H26a.91.91,0,0,1,.69.29.94.94,0,0,1,.29.71v13a1,1,0,0,1-.29.71.94.94,0,0,1-.69.29H20.61a.94.94,0,0,1-.69-.29,1,1,0,0,1-.29-.71v-1.75a1,1,0,0,1,.29-.71.94.94,0,0,1,.69-.29h3.91a.47.47,0,0,0,.35-.15.45.45,0,0,0,.14-.35V97.74a.47.47,0,0,0-.14-.35.47.47,0,0,0-.35-.15h-10a.91.91,0,0,1-.69-.29A1,1,0,0,1,13.52,96.24Z" transform="translate(0.38 0.38)"/><path class="cls-2" d="M29.4,96.24V94.5a1,1,0,0,1,.29-.71.91.91,0,0,1,.69-.29h4.15a.93.93,0,0,1,.7.29,1,1,0,0,1,.28.71v13.12a1,1,0,0,1-.28.71,1,1,0,0,1-.7.29.92.92,0,0,1-.68-.29,1,1,0,0,1-.28-.71V97.74a.49.49,0,0,0-.15-.35.45.45,0,0,0-.34-.15h-2.7a.91.91,0,0,1-.69-.29A1,1,0,0,1,29.4,96.24Z" transform="translate(0.38 0.38)"/><path class="cls-2" d="M38,107.5v-1.75a1,1,0,0,1,.28-.71,1,1,0,0,1,.7-.29h9.53a.5.5,0,0,0,.49-.5V97.74a.52.52,0,0,0-.14-.35.49.49,0,0,0-.35-.15H40.39a.45.45,0,0,0-.34.15.49.49,0,0,0-.15.35v.91a.47.47,0,0,0,.15.35.45.45,0,0,0,.34.15h.74a1,1,0,0,1,1,1v1.74a1,1,0,0,1-.28.71.94.94,0,0,1-.7.29h-2.2a.93.93,0,0,1-.7-.29,1,1,0,0,1-.28-.71V94.5a1,1,0,0,1,.28-.71.93.93,0,0,1,.7-.29h11a.91.91,0,0,1,.69.29,1,1,0,0,1,.29.71v13a1,1,0,0,1-.29.71.94.94,0,0,1-.69.29h-11a1,1,0,0,1-.7-.29A1,1,0,0,1,38,107.5Z" transform="translate(0.38 0.38)"/><path class="cls-2" d="M53.34,96.24V94.5a1,1,0,0,1,.29-.71.91.91,0,0,1,.69-.29h4.15a.91.91,0,0,1,.69.29,1,1,0,0,1,.29.71v6.75a1,1,0,0,1-.29.71.94.94,0,0,1-.69.29.91.91,0,0,1-.68-.29,1,1,0,0,1-.29-.71V97.74a.47.47,0,0,0-.14-.35.45.45,0,0,0-.34-.15h-2.7a.91.91,0,0,1-.69-.29A1,1,0,0,1,53.34,96.24Z" transform="translate(0.38 0.38)"/><path class="cls-2" d="M61.88,107.5v-13a1,1,0,0,1,.29-.71.91.91,0,0,1,.69-.29h2a.91.91,0,0,1,.69.29,1,1,0,0,1,.29.71v1.74a1,1,0,0,1-.29.71.91.91,0,0,1-.69.29h-.49a.47.47,0,0,0-.35.15.52.52,0,0,0-.14.35v6.51a.48.48,0,0,0,.14.35.47.47,0,0,0,.35.15h9.28a.47.47,0,0,0,.35-.15.48.48,0,0,0,.14-.35V97.74a.52.52,0,0,0-.14-.35.47.47,0,0,0-.35-.15h-.92a2.92,2.92,0,0,0-1.69.53l-1.92,1a.6.6,0,0,1-.69.06.78.78,0,0,1-.27-.68V96.24a2,2,0,0,1,.17-.87,1.36,1.36,0,0,1,.55-.57L70.19,94a3.34,3.34,0,0,1,1.7-.52h3.19a.91.91,0,0,1,.69.29,1,1,0,0,1,.29.71v13a1,1,0,0,1-.29.71.94.94,0,0,1-.69.29H62.86a.94.94,0,0,1-.69-.29A1,1,0,0,1,61.88,107.5Z" transform="translate(0.38 0.38)"/><path class="cls-2" d="M78.49,96.24V94.5a1,1,0,0,1,.29-.71.91.91,0,0,1,.69-.29H91a.91.91,0,0,1,.69.29.94.94,0,0,1,.29.71v13.12a1,1,0,0,1-1.67.71,1,1,0,0,1-.29-.71V97.74a.47.47,0,0,0-.14-.35.45.45,0,0,0-.34-.15h-10a.91.91,0,0,1-.69-.29A1,1,0,0,1,78.49,96.24Zm0,11.26V102a1,1,0,0,1,.29-.7.94.94,0,0,1,1.38,0,1,1,0,0,1,.29.7v2.25a.48.48,0,0,0,.14.35.47.47,0,0,0,.35.15h.74a.94.94,0,0,1,.69.29,1,1,0,0,1,.29.71v1.75a1,1,0,0,1-.29.71.94.94,0,0,1-.69.29H79.47a.94.94,0,0,1-.69-.29A1,1,0,0,1,78.49,107.5Z" transform="translate(0.38 0.38)"/><path class="cls-2" d="M104.15,107.5v-1.75a1,1,0,0,1,.28-.71.94.94,0,0,1,.69-.29h.75a.5.5,0,0,0,.48-.5V97.74a.47.47,0,0,0-.14-.35.45.45,0,0,0-.34-.15h-.26a.91.91,0,0,1-.69-.29,1,1,0,0,1-.28-.71V94.5a1,1,0,0,1,.28-.71.91.91,0,0,1,.69-.29h12a.93.93,0,0,1,.7.29,1,1,0,0,1,.28.71v13.12a1,1,0,0,1-.28.71,1,1,0,0,1-.7.29.94.94,0,0,1-.69-.29,1,1,0,0,1-.28-.71V97.74a.49.49,0,0,0-.15-.35.45.45,0,0,0-.34-.15H108.8a.49.49,0,0,0-.35.15.52.52,0,0,0-.14.35v9.76a1,1,0,0,1-.29.71.94.94,0,0,1-.69.29h-2.21a.94.94,0,0,1-.69-.29A1,1,0,0,1,104.15,107.5Z" transform="translate(0.38 0.38)"/><path class="cls-2" d="M121,96.24V94.5a1,1,0,0,1,.28-.71.91.91,0,0,1,.7-.29h12a.91.91,0,0,1,.69.29,1,1,0,0,1,.28.71v1.74a1,1,0,0,1-.28.71.91.91,0,0,1-.69.29h-1a.47.47,0,0,0-.35.15.52.52,0,0,0-.14.35v9.88a1,1,0,0,1-.29.71,1,1,0,0,1-1.38,0,1,1,0,0,1-.29-.71V97.74a.52.52,0,0,0-.14-.35.47.47,0,0,0-.35-.15H122a.91.91,0,0,1-.7-.29A1,1,0,0,1,121,96.24Z" transform="translate(0.38 0.38)"/><path class="cls-2" d="M137.38,96.24V94.5a.94.94,0,0,1,.29-.71.91.91,0,0,1,.69-.29h4.15a.91.91,0,0,1,.69.29,1,1,0,0,1,.29.71v13.12a1,1,0,0,1-.29.71,1,1,0,0,1-1.38,0,1,1,0,0,1-.28-.71V97.74a.47.47,0,0,0-.14-.35.47.47,0,0,0-.35-.15h-2.69a.91.91,0,0,1-.69-.29A1,1,0,0,1,137.38,96.24Z" transform="translate(0.38 0.38)"/><path class="cls-2" d="M145.92,96.24V94.5a1,1,0,0,1,.29-.71.91.91,0,0,1,.69-.29h11.24a.91.91,0,0,1,.69.29,1,1,0,0,1,.29.71v13a1,1,0,0,1-.29.71.94.94,0,0,1-.69.29h-6.35a.94.94,0,0,1-.69-.29,1,1,0,0,1-.29-.71v-1.75a1,1,0,0,1,.29-.71.94.94,0,0,1,.69-.29h4.89a.43.43,0,0,0,.34-.15.45.45,0,0,0,.14-.35V97.74a.47.47,0,0,0-.14-.35.43.43,0,0,0-.34-.15H146.9a.91.91,0,0,1-.69-.29A1,1,0,0,1,145.92,96.24Zm0,16.26V100.79a1,1,0,0,1,.29-.7.92.92,0,0,1,.69-.3h.25a.92.92,0,0,1,.69.3,1,1,0,0,1,.29.7V112.5a1,1,0,0,1-.29.71.91.91,0,0,1-.69.29h-.25a.91.91,0,0,1-.69-.29A1,1,0,0,1,145.92,112.5Z" transform="translate(0.38 0.38)"/><path class="cls-2" d="M161.55,107.5v-1.75a1,1,0,0,1,.29-.71.94.94,0,0,1,.69-.29h4.4a.47.47,0,0,0,.35-.15.45.45,0,0,0,.14-.35V97.74a.47.47,0,0,0-.14-.35.47.47,0,0,0-.35-.15H164a.91.91,0,0,1-.69-.29,1,1,0,0,1-.29-.71V94.5a1,1,0,0,1,.29-.71.91.91,0,0,1,.69-.29h4.4a.91.91,0,0,1,.69.29,1,1,0,0,1,.29.71v13a1,1,0,0,1-.29.71.94.94,0,0,1-.69.29h-5.87a.94.94,0,0,1-.69-.29A1,1,0,0,1,161.55,107.5Z" transform="translate(0.38 0.38)"/><path class="cls-2" d="M171.81,107.5v-1.75a1,1,0,0,1,.29-.71.94.94,0,0,1,.69-.29h9.05a.45.45,0,0,0,.34-.15.45.45,0,0,0,.15-.35V97.74a.49.49,0,0,0-.15-.35.45.45,0,0,0-.34-.15h-9.05a.91.91,0,0,1-.69-.29,1,1,0,0,1-.29-.71V94.5a1,1,0,0,1,.29-.71.91.91,0,0,1,.69-.29H183.3a.91.91,0,0,1,.7.29,1,1,0,0,1,.28.71v9.75a.45.45,0,0,0,.15.35.45.45,0,0,0,.34.15h.73a.94.94,0,0,1,.69.29,1,1,0,0,1,.29.71v1.75a1,1,0,0,1-.29.71.94.94,0,0,1-.69.29H172.79a.94.94,0,0,1-.69-.29A1,1,0,0,1,171.81,107.5Z" transform="translate(0.38 0.38)"/><path class="cls-2" d="M58.83,137.5v-1.75a1,1,0,0,1,.29-.71.94.94,0,0,1,.69-.29h.74a.47.47,0,0,0,.35-.15.48.48,0,0,0,.14-.35v-6.51a.52.52,0,0,0-.14-.35.47.47,0,0,0-.35-.15H60.3a.91.91,0,0,1-.69-.29,1,1,0,0,1-.29-.71V124.5a1,1,0,0,1,.29-.71.91.91,0,0,1,.69-.29h12a.91.91,0,0,1,.69.29.94.94,0,0,1,.29.71v13.12a1,1,0,0,1-1.67.71,1,1,0,0,1-.29-.71v-9.88a.47.47,0,0,0-.14-.35.47.47,0,0,0-.35-.15H63.49a.47.47,0,0,0-.35.15.52.52,0,0,0-.14.35v9.76a1,1,0,0,1-.29.71.94.94,0,0,1-.69.29H59.81a.94.94,0,0,1-.69-.29A1,1,0,0,1,58.83,137.5Z" transform="translate(0.38 0.38)"/><path class="cls-2" d="M75.69,126.24V124.5a1,1,0,0,1,.29-.71.91.91,0,0,1,.69-.29H87.42a.94.94,0,0,1,.7.29,1,1,0,0,1,.28.71v13.12a1,1,0,0,1-1,1,.91.91,0,0,1-.68-.29,1,1,0,0,1-.28-.71v-9.88a.49.49,0,0,0-.15-.35.45.45,0,0,0-.34-.15h-9.3A.91.91,0,0,1,76,127,1,1,0,0,1,75.69,126.24Z" transform="translate(0.38 0.38)"/><path class="cls-2" d="M90.84,137.62V136a.92.92,0,0,1,.46-.84L96.73,132a.92.92,0,0,0,.47-.83v-3.4a.49.49,0,0,0-.15-.35.45.45,0,0,0-.34-.15H94a.91.91,0,0,1-.69-.29,1,1,0,0,1-.29-.71V124.5a1,1,0,0,1,.29-.71.91.91,0,0,1,.69-.29h4.15a.93.93,0,0,1,.7.29,1,1,0,0,1,.28.71v13.12a1,1,0,0,1-.28.71,1,1,0,0,1-.7.29.94.94,0,0,1-.69-.29,1,1,0,0,1-.28-.71v-1a.52.52,0,0,0-.58-.6,1.57,1.57,0,0,0-.62.26l-3.47,2-.15.1a.84.84,0,0,1-.19.11l-.17.06a.52.52,0,0,1-.21,0,.94.94,0,0,1-.69-.29A1,1,0,0,1,90.84,137.62Z" transform="translate(0.38 0.38)"/><path class="cls-2" d="M101.59,126.24V124.5a1,1,0,0,1,.28-.71.91.91,0,0,1,.7-.29h4.15a.91.91,0,0,1,.69.29,1,1,0,0,1,.29.71v13.12a1,1,0,0,1-.29.71,1,1,0,0,1-1.38,0,1,1,0,0,1-.28-.71v-9.88a.52.52,0,0,0-.14-.35.47.47,0,0,0-.35-.15h-2.69a.91.91,0,0,1-.7-.29A1,1,0,0,1,101.59,126.24Z" transform="translate(0.38 0.38)"/><path class="cls-2" d="M110.13,126.24V124.5a1,1,0,0,1,.29-.71.91.91,0,0,1,.69-.29h2a.91.91,0,0,1,.69.29,1,1,0,0,1,.28.71V126c0,.56.18.66.53.3l2.08-2.1a2.27,2.27,0,0,1,1.7-.7h6a.91.91,0,0,1,.69.29,1,1,0,0,1,.28.71v13a1,1,0,0,1-.28.71.94.94,0,0,1-.69.29h-5.62a1,1,0,0,1-.7-.29,1,1,0,0,1-.28-.71v-1.75A1,1,0,0,1,118,135a1,1,0,0,1,.7-.29h4.15a.45.45,0,0,0,.34-.15.45.45,0,0,0,.15-.35v-6.51a.49.49,0,0,0-.15-.35.45.45,0,0,0-.34-.15h-4a2.24,2.24,0,0,0-1.69.71L115,130.12a2.44,2.44,0,0,0-.72,1.77v5.73a1,1,0,0,1-.28.71.94.94,0,0,1-.69.29,1,1,0,0,1-.7-.29,1,1,0,0,1-.28-.71v-9.88a.49.49,0,0,0-.15-.35.45.45,0,0,0-.34-.15h-.74a.91.91,0,0,1-.69-.29A1,1,0,0,1,110.13,126.24Z" transform="translate(0.38 0.38)"/><path class="cls-2" d="M127.72,126.24V124.5a1,1,0,0,1,.28-.71.94.94,0,0,1,.7-.29h11.49a.91.91,0,0,1,.69.29,1,1,0,0,1,.29.71v13.12a1,1,0,0,1-.29.71,1,1,0,0,1-1.67-.71v-9.88a.52.52,0,0,0-.14-.35.49.49,0,0,0-.35-.15h-10a.94.94,0,0,1-.7-.29A1,1,0,0,1,127.72,126.24Zm0,11.26V132a1,1,0,0,1,1-1,.92.92,0,0,1,.69.3,1,1,0,0,1,.28.7v2.25a.45.45,0,0,0,.15.35.45.45,0,0,0,.34.15h.74a1,1,0,0,1,.7.29,1,1,0,0,1,.28.71v1.75a1,1,0,0,1-.28.71,1,1,0,0,1-.7.29h-2.2a1,1,0,0,1-.7-.29A1,1,0,0,1,127.72,137.5Z" transform="translate(0.38 0.38)"/></svg>