<svg id="Layer_1" data-name="Layer 1" xmlns="http://www.w3.org/2000/svg" viewBox="0 0 200 200"><defs><style>.cls-1{fill:#192318;}.cls-2{fill:#fff;}</style></defs><rect class="cls-1" width="200" height="200"/><path class="cls-2" d="M21.2,58.53a3.82,3.82,0,0,1,1.46-3.08l4.16-1.36L23.5,42.8H21.74a.56.56,0,0,1,0-.26,4.53,4.53,0,0,1,.18-1.19,1.58,1.58,0,0,1,.54-.9h3.89l3.62,12.41c.23-.09.48-.19.76-.32a11.91,11.91,0,0,0,1.09-.63A8,8,0,0,0,33,51a4.94,4.94,0,0,0,.92-1.23,3.08,3.08,0,0,0,.4-1.51V42.8H32.71v-.2a4.07,4.07,0,0,1,.22-1.25,1.34,1.34,0,0,1,.67-.9h4v6.74a9.15,9.15,0,0,1-1,4.18,6.53,6.53,0,0,1-2.77,2.9l-12.62,5A3.28,3.28,0,0,1,21.2,58.53Z" transform="translate(0 0)"/><path class="cls-2" d="M40.47,42.8v-.25a5.82,5.82,0,0,1,0-.67,2.27,2.27,0,0,1,.19-.61,3.83,3.83,0,0,1,.48-.82h4.28V55.83H42.12v-13Z" transform="translate(0 0)"/><path class="cls-2" d="M49,42.1a2.61,2.61,0,0,1,.87-1.65h2.91l6.17,7.09a4.18,4.18,0,0,0,.57-.33c.87-.75,1.31-2.22,1.31-4.41H58.72a2.32,2.32,0,0,1-.12-.66,2.06,2.06,0,0,1,1.11-1.69h4.41a23.87,23.87,0,0,1-.36,4.69,6.36,6.36,0,0,1-1.1,2.63,6.38,6.38,0,0,1-2.21,1.65l3.07,4v2.32H49.21a2.19,2.19,0,0,1-.08-.47,1.8,1.8,0,0,1,1.08-1.88h9.16L50.8,42.8H49.17A1.76,1.76,0,0,1,49,42.1Z" transform="translate(0 0)"/><path class="cls-2" d="M68,55.83a3.3,3.3,0,0,1,.71-2.35h7.52A3.54,3.54,0,0,0,79,51.8a6.6,6.6,0,0,0,1.28-4.13,6.69,6.69,0,0,0-.82-3.5A2.66,2.66,0,0,0,77,42.8H71.34v3.53a1.61,1.61,0,0,0,1.58,1.27,6.33,6.33,0,0,0,.73-.06l.57-.08a1.68,1.68,0,0,1,.2.81,2.69,2.69,0,0,1-.2.93,10.85,10.85,0,0,1-2,.21A3.91,3.91,0,0,1,68,46.46v-6h9.86a6,6,0,0,1,2,.32,4.43,4.43,0,0,1,1.51.9A6.87,6.87,0,0,1,82.42,43a5.91,5.91,0,0,1,.71,1.55,11.87,11.87,0,0,1,.37,1.66,10.81,10.81,0,0,1,.12,1.61,8.41,8.41,0,0,1-.91,3.78,8.29,8.29,0,0,1-2.52,3.07,5.69,5.69,0,0,1-3.46,1.21Z" transform="translate(0 0)"/><path class="cls-2" d="M86,42.27a3,3,0,0,1,.65-1.82H94a11.18,11.18,0,0,1,4.22.63,4.82,4.82,0,0,1,2.31,2,3.76,3.76,0,0,1,.66,1.62,21,21,0,0,1,.16,3v8.07H98.05V46.62a3.64,3.64,0,0,0-3.84-3.82H86A2.93,2.93,0,0,1,86,42.27Zm.62,13.56V46.4a6.58,6.58,0,0,1,2.91,1v8.45Z" transform="translate(0 0)"/><path class="cls-2" d="M112.6,54.94a2,2,0,0,1,.74-1.56,6.68,6.68,0,0,0,1.59.32,1.67,1.67,0,0,0,1.22-.52,2.77,2.77,0,0,0,.69-1V42.8h-2.25a2.87,2.87,0,0,1-.08-.7,2.12,2.12,0,0,1,.77-1.65h11a5,5,0,0,1,2.89.77,5.54,5.54,0,0,1,2.51,4.91v9.7h-3.33v-10A4.29,4.29,0,0,0,127.25,44a4,4,0,0,0-1.85-1.16h-5.23v10A3.31,3.31,0,0,1,118,55.55a9.06,9.06,0,0,1-2.67.51,7,7,0,0,1-1.43-.18,5.53,5.53,0,0,1-1.27-.39A3.31,3.31,0,0,1,112.6,54.94Z" transform="translate(0 0)"/><path class="cls-2" d="M134,55.46a2.73,2.73,0,0,1,1-2h4.53v-9a2.86,2.86,0,0,0-.12-.91A.87.87,0,0,0,139,43a1.44,1.44,0,0,0-.48-.18,3.09,3.09,0,0,0-.58,0H135a3.5,3.5,0,0,1,1-2.35h3.08a4,4,0,0,1,2.69.87,3.47,3.47,0,0,1,1,2.81v11.7h-8.77a.69.69,0,0,0,0-.18A.8.8,0,0,1,134,55.46Z" transform="translate(0 0)"/><path class="cls-2" d="M146.26,55.41a2.77,2.77,0,0,1,.92-1.93h6a4.62,4.62,0,0,0,2.8-1.82,5.69,5.69,0,0,0,1.16-3.58,6.49,6.49,0,0,0-.43-2.42A4.14,4.14,0,0,0,155.5,44a5,5,0,0,0-1.62-.9,5.73,5.73,0,0,0-1.87-.3h-5.64a2.44,2.44,0,0,1-.06-.61,2.7,2.7,0,0,1,.81-1.74h6.15a6.38,6.38,0,0,1,1.94.31,6.92,6.92,0,0,1,1.93,1,7.86,7.86,0,0,1,1.67,1.54A7.29,7.29,0,0,1,160,45.41a8.2,8.2,0,0,1,.45,2.74A8.7,8.7,0,0,1,160,51a6.83,6.83,0,0,1-1.12,2.17,7.55,7.55,0,0,1-1.64,1.5,7.1,7.1,0,0,1-2,.91,7.27,7.27,0,0,1-2.08.3h-6.89s0-.12,0-.21A1,1,0,0,1,146.26,55.41Z" transform="translate(0 0)"/><path class="cls-2" d="M162.74,42.27a3,3,0,0,1,.66-1.82h7.42a11.15,11.15,0,0,1,4.22.63,4.84,4.84,0,0,1,2.32,2,3.87,3.87,0,0,1,.65,1.62,19.66,19.66,0,0,1,.16,3v8.07h-3.33V46.62A3.64,3.64,0,0,0,171,42.8h-8.21A2.89,2.89,0,0,1,162.74,42.27Zm.63,13.56V46.4a6.58,6.58,0,0,1,2.9,1v8.45Z" transform="translate(0 0)"/><path class="cls-2" d="M5.21,77.07a3,3,0,0,1,.66-1.82h7.42a11.15,11.15,0,0,1,4.22.63,4.89,4.89,0,0,1,2.32,2,3.87,3.87,0,0,1,.65,1.62,19.66,19.66,0,0,1,.16,3v8.07H17.31V81.42a3.64,3.64,0,0,0-3.84-3.82H5.26A2.89,2.89,0,0,1,5.21,77.07Zm.62,13.56V81.2a6.58,6.58,0,0,1,2.91,1v8.45Z" transform="translate(0 0)"/><path class="cls-2" d="M23.64,77.6A3.9,3.9,0,0,1,25,75.25h8.33a8,8,0,0,1,2.7.44A6.77,6.77,0,0,1,38.24,77a6.14,6.14,0,0,1,1.59,2.47,10.66,10.66,0,0,1,.57,3.64A7.67,7.67,0,0,1,38.18,89a9,9,0,0,1-6.4,2.08,9.46,9.46,0,0,1-3-.46,6.64,6.64,0,0,1-2.19-1.17,7.06,7.06,0,0,1-1.41-1.59,6.06,6.06,0,0,1-.8-1.68,5.6,5.6,0,0,1-.23-1.51V78.75L25,77.6Zm3.83,7.25a3,3,0,0,0,.3,1.22,5,5,0,0,0,.84,1.26,4.17,4.17,0,0,0,1.43,1,4.65,4.65,0,0,0,1.94.41,5,5,0,0,0,2.8-.79,4.67,4.67,0,0,0,1.74-2,6.92,6.92,0,0,0,.55-2.82,8,8,0,0,0-.36-2.51,4.25,4.25,0,0,0-1-1.72,4.15,4.15,0,0,0-1.37-.94,4.07,4.07,0,0,0-1.59-.32h-5.3Z" transform="translate(0 0)"/><path class="cls-2" d="M42.44,75a5.31,5.31,0,0,1,1.62-.28,9.31,9.31,0,0,1,1.87.28l1.34,3.62a8,8,0,0,1,1.1-1.79,5.64,5.64,0,0,1,1.81-1.41,5.34,5.34,0,0,1,2.53-.61,9.05,9.05,0,0,1,3.52.65,6.43,6.43,0,0,1,2.5,1.78,7.88,7.88,0,0,1,1.45,2.62,10.29,10.29,0,0,1,.48,3.21A9.6,9.6,0,0,1,60,86.75a5.86,5.86,0,0,1-1.77,2.48,7.51,7.51,0,0,1-2.65,1.37,11.65,11.65,0,0,1-3.37.45,9.4,9.4,0,0,1-2.51-.46,3.14,3.14,0,0,1-.13-.94,5.42,5.42,0,0,1,.67-2.32,2.85,2.85,0,0,0,.72.72,2,2,0,0,0,1,.2A4.92,4.92,0,0,0,57.33,83,7.52,7.52,0,0,0,57.07,81a5.4,5.4,0,0,0-.81-1.69,3.7,3.7,0,0,0-1.5-1.18,5.41,5.41,0,0,0-2.21-.42,3.91,3.91,0,0,0-1.8.4,3.81,3.81,0,0,0-1.31,1.06,7.29,7.29,0,0,0-.9,1.6,10.75,10.75,0,0,0-.62,1.92c-.15.66-.28,1.38-.4,2.14s-.23,1.48-.33,2.14-.21,1.33-.31,2-.2,1.24-.27,1.7H43.19l1.14-10.1Z" transform="translate(0 0)"/><path class="cls-2" d="M62,93.33a3.82,3.82,0,0,1,1.46-3.08l4.16-1.36L64.29,77.6H62.52a.79.79,0,0,1,0-.26,4.53,4.53,0,0,1,.18-1.19,1.58,1.58,0,0,1,.54-.9H67.1l3.62,12.41c.23-.09.48-.19.76-.32a11.91,11.91,0,0,0,1.09-.63,8,8,0,0,0,1.22-.94,4.94,4.94,0,0,0,.92-1.23,3.08,3.08,0,0,0,.4-1.51V77.6H73.5v-.2a4.07,4.07,0,0,1,.22-1.25,1.34,1.34,0,0,1,.67-.9h4V82a9.15,9.15,0,0,1-1,4.18,6.53,6.53,0,0,1-2.77,2.9l-12.62,5A2.8,2.8,0,0,1,62,93.33Z" transform="translate(0 0)"/><path class="cls-2" d="M81.72,77.07a3,3,0,0,1,.66-1.82h7.43a11.18,11.18,0,0,1,4.22.63,4.82,4.82,0,0,1,2.31,2A3.89,3.89,0,0,1,97,79.51a21.42,21.42,0,0,1,.15,3v8.07H93.82V81.42a3.73,3.73,0,0,0-1-2.76A3.77,3.77,0,0,0,90,77.6H81.77A2.89,2.89,0,0,1,81.72,77.07Zm.63,13.56V81.2a6.62,6.62,0,0,1,2.91,1v8.45Z" transform="translate(0 0)"/><path class="cls-2" d="M108.52,84.38V82.2h7.32v2.18Z" transform="translate(0 0)"/><path class="cls-2" d="M127.36,77.6a3.43,3.43,0,0,1,1-2.55H132v7l-3.33,1.52v-6Z" transform="translate(0 0)"/><path class="cls-2" d="M135,77.6v-.25a5.82,5.82,0,0,1,0-.67,2.17,2.17,0,0,1,.19-.61,4.91,4.91,0,0,1,.48-.82H140V90.63h-3.33v-13Z" transform="translate(0 0)"/><path class="cls-2" d="M143.17,90.26a2.73,2.73,0,0,1,1-2h4.53v-9a3,3,0,0,0-.12-.92.88.88,0,0,0-.38-.49,1.44,1.44,0,0,0-.48-.18,3.09,3.09,0,0,0-.58,0h-2.92a3.45,3.45,0,0,1,1-2.35h3.08a4,4,0,0,1,2.69.87,3.45,3.45,0,0,1,1,2.81v11.7h-8.77a.69.69,0,0,0,0-.18A.8.8,0,0,1,143.17,90.26Z" transform="translate(0 0)"/><path class="cls-2" d="M155,77.6a3.4,3.4,0,0,1,1-2.55h3.68v7l-3.33,1.52v-6Z" transform="translate(0 0)"/><path class="cls-2" d="M163.6,90.63a3.3,3.3,0,0,1,.7-2.35h7.52a3.56,3.56,0,0,0,2.78-1.68,6.6,6.6,0,0,0,1.27-4.13,6.79,6.79,0,0,0-.81-3.5,2.66,2.66,0,0,0-2.44-1.37h-5.69v3.53a1.61,1.61,0,0,0,1.58,1.27,6.33,6.33,0,0,0,.73-.06l.57-.08a1.8,1.8,0,0,1,.2.81,2.94,2.94,0,0,1-.2.93,10.87,10.87,0,0,1-2,.21,3.9,3.9,0,0,1-4.17-2.95v-6h9.86a6,6,0,0,1,2,.32,4.48,4.48,0,0,1,1.5.9A6.55,6.55,0,0,1,178,77.75a6.25,6.25,0,0,1,.71,1.55,11.8,11.8,0,0,1,.36,1.66,10.81,10.81,0,0,1,.12,1.61,8.53,8.53,0,0,1-.9,3.78,8.29,8.29,0,0,1-2.52,3.07,5.72,5.72,0,0,1-3.47,1.21Z" transform="translate(0 0)"/><path class="cls-2" d="M180,71.14a4.09,4.09,0,0,1,.2-1.33,2.14,2.14,0,0,1,.81-1h3.78v6.56H195V78l-6.08,12.63H185.3l6-12.93h-9.68V71.14Z" transform="translate(0 0)"/><path class="cls-2" d="M32.46,111.87a3,3,0,0,1,.66-1.82h7.42a11.24,11.24,0,0,1,4.23.63,4.82,4.82,0,0,1,2.31,2,4,4,0,0,1,.66,1.62,21.42,21.42,0,0,1,.15,3v8.07H44.56v-9.21a3.64,3.64,0,0,0-3.84-3.82H32.51A2.89,2.89,0,0,1,32.46,111.87Zm.63,13.56V116a6.7,6.7,0,0,1,2.9,1v8.46Z" transform="translate(0 0)"/><path class="cls-2" d="M51.3,112a2.73,2.73,0,0,1,1-2H67.89v2.7l-.5.74L62,125.43h-3.6l5.77-13H51.34a.9.9,0,0,0,0-.21C51.31,112.1,51.3,112,51.3,112Zm.19,19.87V115.5a3,3,0,0,1,.79-.13,2.67,2.67,0,0,1,1.22.29,10.46,10.46,0,0,1,1.32.85v15.36Z" transform="translate(0 0)"/><path class="cls-2" d="M70.58,125.06a2.77,2.77,0,0,1,1-2h4.54v-9a3,3,0,0,0-.13-.92.84.84,0,0,0-.38-.49,1.3,1.3,0,0,0-.48-.18,3,3,0,0,0-.58,0H71.58a3.47,3.47,0,0,1,1-2.35h3.08a4,4,0,0,1,2.68.87,3.45,3.45,0,0,1,1,2.81v11.7H70.63a.82.82,0,0,0,0-.18C70.59,125.16,70.58,125.1,70.58,125.06Z" transform="translate(0 0)"/><path class="cls-2" d="M82.23,112.4v-.25a5.82,5.82,0,0,1,0-.67,1.88,1.88,0,0,1,.19-.61,3.83,3.83,0,0,1,.48-.82h4.28v15.38H83.88v-13Z" transform="translate(0 0)"/><path class="cls-2" d="M89.26,105.94a4.09,4.09,0,0,1,.2-1.33,2.14,2.14,0,0,1,.81-1h3.78v6.56h10.27v2.64l-6.08,12.64H94.61l6-12.93H91v-6.56Z" transform="translate(0 0)"/><path class="cls-2" d="M107.38,109.85h4.27a81,81,0,0,1,6.28,7c1.1-.46,1.65-1.76,1.65-3.93v-.52h-1.43a4,4,0,0,1,.77-2.55h4c0,.15,0,.41,0,.78s0,.65,0,.85a15.12,15.12,0,0,1-.11,1.88,12.09,12.09,0,0,1-.41,1.85,6,6,0,0,1-1,1.94,7.51,7.51,0,0,1-1.76,1.64,54.07,54.07,0,0,1,4.69,6.64h-3.74a61.41,61.41,0,0,0-6.91-8.7,6.55,6.55,0,0,0-2.28,2.77,8.39,8.39,0,0,0-.87,3.58h1.16a3.55,3.55,0,0,1,.32,1.68,4.73,4.73,0,0,1,0,.67h-4.51a26.8,26.8,0,0,1,.14-2.81,20.08,20.08,0,0,1,.34-2.23,9.51,9.51,0,0,1,.57-1.78,10.12,10.12,0,0,1,.7-1.37,7,7,0,0,1,.86-1.09,10.09,10.09,0,0,1,.92-.88c.26-.22.6-.48,1-.77A54,54,0,0,0,107.38,109.85Z" transform="translate(0 0)"/><path class="cls-2" d="M133.93,105.94a4.1,4.1,0,0,1,.19-1.33,2.14,2.14,0,0,1,.81-1h3.78v6.56H149v2.64l-6.08,12.64h-3.63l6.06-12.93h-9.68v-6.56Z" transform="translate(0 0)"/><path class="cls-2" d="M151.22,128.13a3.85,3.85,0,0,1,1.45-3.09l4.16-1.35-3.31-11.29h-1.77a.79.79,0,0,1,0-.26,4.53,4.53,0,0,1,.18-1.19,1.54,1.54,0,0,1,.54-.9h3.88L160,122.46c.23-.09.48-.19.75-.32a11.82,11.82,0,0,0,1.1-.63,8.59,8.59,0,0,0,1.21-.94,5,5,0,0,0,.93-1.23,3.22,3.22,0,0,0,.4-1.51V112.4h-1.61v-.2a4.18,4.18,0,0,1,.22-1.26,1.34,1.34,0,0,1,.67-.89h4v6.74a9.15,9.15,0,0,1-1,4.18,6.56,6.56,0,0,1-2.78,2.9l-12.62,5A3.25,3.25,0,0,1,151.22,128.13Z" transform="translate(0 0)"/><path class="cls-2" d="M67.58,147.2a3.43,3.43,0,0,1,1-2.55h3.68v7l-3.33,1.53v-6Z" transform="translate(0 0)"/><path class="cls-2" d="M75.24,147.2V147a5.82,5.82,0,0,1,0-.67,2.27,2.27,0,0,1,.19-.61,4.31,4.31,0,0,1,.48-.82h4.29v15.38H76.9v-13Z" transform="translate(0 0)"/><path class="cls-2" d="M83.77,147.2a3.9,3.9,0,0,1,1.31-2.35h8.33a8,8,0,0,1,2.7.44,6.77,6.77,0,0,1,2.26,1.34A6.14,6.14,0,0,1,100,149.1a10.66,10.66,0,0,1,.57,3.64,7.67,7.67,0,0,1-2.22,5.88,9,9,0,0,1-6.4,2.08,9.51,9.51,0,0,1-3-.46,6.64,6.64,0,0,1-2.19-1.17,7.06,7.06,0,0,1-1.41-1.59,6.06,6.06,0,0,1-.8-1.68,5.6,5.6,0,0,1-.23-1.51v-5.94l.91-1.15Zm3.83,7.25a3,3,0,0,0,.3,1.22,5,5,0,0,0,.84,1.26,4.17,4.17,0,0,0,1.43,1,4.65,4.65,0,0,0,1.94.41,5,5,0,0,0,2.8-.79,4.67,4.67,0,0,0,1.74-2.05,6.92,6.92,0,0,0,.55-2.82,8,8,0,0,0-.36-2.51,4.25,4.25,0,0,0-1-1.72,4.1,4.1,0,0,0-3-1.26H87.6Z" transform="translate(0 0)"/><path class="cls-2" d="M102.72,147.2a3.4,3.4,0,0,1,1-2.55h3.68v7L104,153.21v-6Z" transform="translate(0 0)"/><path class="cls-2" d="M111,159.81a2.77,2.77,0,0,1,.92-1.93h6a4.62,4.62,0,0,0,2.8-1.82,5.69,5.69,0,0,0,1.16-3.58,6.49,6.49,0,0,0-.43-2.42,4.14,4.14,0,0,0-1.17-1.66,5,5,0,0,0-1.62-.9,5.73,5.73,0,0,0-1.87-.3h-5.64a2.44,2.44,0,0,1-.06-.61,2.7,2.7,0,0,1,.81-1.74H118a6.4,6.4,0,0,1,2,.31,6.92,6.92,0,0,1,1.93,1,7.86,7.86,0,0,1,1.67,1.54,7.29,7.29,0,0,1,1.17,2.16,8.2,8.2,0,0,1,.45,2.74,8.7,8.7,0,0,1-.43,2.8,6.83,6.83,0,0,1-1.12,2.17,7.55,7.55,0,0,1-1.64,1.5,7.1,7.1,0,0,1-2,.91,7.32,7.32,0,0,1-2.08.3H111a1,1,0,0,0,0-.21C111,159.93,111,159.86,111,159.81Z" transform="translate(0 0)"/><path class="cls-2" d="M127,147.2V147a5.82,5.82,0,0,1,0-.67,2.27,2.27,0,0,1,.19-.61,4.91,4.91,0,0,1,.48-.82H132v15.38h-3.33v-13Z" transform="translate(0 0)"/></svg>