<svg id="Layer_1" data-name="Layer 1" xmlns="http://www.w3.org/2000/svg" viewBox="0 0 200 200"><defs><style>.cls-1{fill:#192318;}.cls-2{fill:#fff;}</style></defs><rect class="cls-1" width="200" height="200"/><path class="cls-2" d="M57.73,89.38a2,2,0,0,1,.76-1.61,7,7,0,0,0,1.65.34,1.74,1.74,0,0,0,1.26-.54,2.64,2.64,0,0,0,.71-1V76.83H59.78a3.13,3.13,0,0,1-.08-.73,2.19,2.19,0,0,1,.8-1.7H71.84a5.13,5.13,0,0,1,3,.79,5.75,5.75,0,0,1,2.6,5.08v10H74V80a4.45,4.45,0,0,0-1.09-2A4,4,0,0,0,71,76.83H65.56V87.19c-.37,1.57-1.12,2.51-2.23,2.82a9.36,9.36,0,0,1-2.75.53,7.56,7.56,0,0,1-1.49-.18A5.36,5.36,0,0,1,57.78,90,3.45,3.45,0,0,1,57.73,89.38Z" transform="translate(0 0)"/><path class="cls-2" d="M79.71,90.31a4,4,0,0,1,1-2.44h8.82V80.29a3.45,3.45,0,0,0-.89-2.59,3.19,3.19,0,0,0-2.34-.87h-5a3.77,3.77,0,0,1,.83-2.43h4.22a7.83,7.83,0,0,1,3,.58,5.84,5.84,0,0,1,2.37,1.71,3.86,3.86,0,0,1,.95,2.57v8.61h1.9a5,5,0,0,1-.83,2.44Z" transform="translate(0 0)"/><path class="cls-2" d="M96.9,76.83a3.57,3.57,0,0,1,1-2.64h3.81v7.27L98.26,83V76.83Z" transform="translate(0 0)"/><path class="cls-2" d="M105,76.83a3.72,3.72,0,0,1,.71-2.43h11.36a4.3,4.3,0,0,1,2.22.73,7.65,7.65,0,0,1,2,1.81,3.3,3.3,0,0,1,.82,1.94V90.31h-3.45V79.67a2.75,2.75,0,0,0-1-1.87,2.82,2.82,0,0,0-1.86-1h-6V90.31h-3.44V76.83Z" transform="translate(0 0)"/><path class="cls-2" d="M125.25,76.83a4,4,0,0,1,1.36-2.43h8.61a8.39,8.39,0,0,1,2.8.45,7.11,7.11,0,0,1,2.33,1.39A6.2,6.2,0,0,1,142,78.79a11.13,11.13,0,0,1,.59,3.77,7.89,7.89,0,0,1-2.3,6.08q-2.29,2.14-6.62,2.15a9.63,9.63,0,0,1-3.12-.48,6.87,6.87,0,0,1-2.26-1.2,7.34,7.34,0,0,1-1.46-1.65,6.51,6.51,0,0,1-.83-1.74,6,6,0,0,1-.23-1.56V78l.93-1.19Zm4,7.5a3.12,3.12,0,0,0,.3,1.26,5.52,5.52,0,0,0,.87,1.31,4.5,4.5,0,0,0,1.48,1,4.83,4.83,0,0,0,2,.42,5,5,0,0,0,2.89-.82,4.77,4.77,0,0,0,1.8-2.11,7.08,7.08,0,0,0,.58-2.92,8.23,8.23,0,0,0-.38-2.6,4.43,4.43,0,0,0-1-1.78,4.33,4.33,0,0,0-1.42-1,4.12,4.12,0,0,0-1.65-.33h-5.47Z" transform="translate(0 0)"/><path class="cls-2" d="M53,112.28a3.09,3.09,0,0,1,.68-1.88h7.68a11.39,11.39,0,0,1,4.36.65,5,5,0,0,1,2.4,2.08,4.07,4.07,0,0,1,.68,1.67A21.08,21.08,0,0,1,69,118v8.35H65.53v-9.53a3.74,3.74,0,0,0-4-4h-8.5A3.24,3.24,0,0,1,53,112.28Zm.64,14v-9.76a6.85,6.85,0,0,1,3,1v8.75Z" transform="translate(0 0)"/><path class="cls-2" d="M72.5,112.41a2.85,2.85,0,0,1,1-2H89.66v2.8l-.52.76-5.61,12.35H79.81l6-13.48H72.55a1.12,1.12,0,0,0,0-.22C72.51,112.52,72.5,112.46,72.5,112.41ZM72.7,133V116a2.79,2.79,0,0,1,.82-.13,2.72,2.72,0,0,1,1.26.3,9.35,9.35,0,0,1,1.36.87V133Z" transform="translate(0 0)"/><path class="cls-2" d="M92.45,125.93a2.84,2.84,0,0,1,1-2.06h4.69v-9.35a2.79,2.79,0,0,0-.13-1,.86.86,0,0,0-.39-.52,1.38,1.38,0,0,0-.5-.18,3.2,3.2,0,0,0-.59,0h-3a3.58,3.58,0,0,1,1-2.43h3.19a4.23,4.23,0,0,1,2.78.89,3.61,3.61,0,0,1,1.07,2.91v12.11H92.5a1,1,0,0,0,0-.19C92.46,126,92.45,126,92.45,125.93Z" transform="translate(0 0)"/><path class="cls-2" d="M104.5,112.83v-.26a6.09,6.09,0,0,1,0-.69,2.42,2.42,0,0,1,.19-.64,4.61,4.61,0,0,1,.5-.84h4.43v15.91h-3.44V112.83Z" transform="translate(0 0)"/><path class="cls-2" d="M111.77,106.15a4.09,4.09,0,0,1,.21-1.38,2.2,2.2,0,0,1,.83-1h3.91v6.78h10.63v2.74l-6.29,13.07h-3.75l6.25-13.38h-10v-6.78Z" transform="translate(0 0)"/><path class="cls-2" d="M130.52,110.19h4.41a84.83,84.83,0,0,1,6.5,7.24c1.14-.47,1.7-1.82,1.7-4.06v-.54h-1.47a4.19,4.19,0,0,1,.79-2.64h4.11c0,.16,0,.43,0,.81s0,.67,0,.88a16,16,0,0,1-.11,1.94,12.14,12.14,0,0,1-.43,1.92,6.18,6.18,0,0,1-1,2,7.45,7.45,0,0,1-1.82,1.7,55,55,0,0,1,4.85,6.87h-3.87a62.39,62.39,0,0,0-7.15-9,6.77,6.77,0,0,0-2.35,2.86,8.57,8.57,0,0,0-.91,3.7H135a3.57,3.57,0,0,1,.34,1.75,5.09,5.09,0,0,1,0,.69h-4.66a28.67,28.67,0,0,1,.14-2.91,19.16,19.16,0,0,1,.36-2.31,9.66,9.66,0,0,1,.59-1.84,10.91,10.91,0,0,1,.72-1.42,8.6,8.6,0,0,1,.89-1.13c.36-.37.68-.67.95-.9s.62-.5,1-.8A52,52,0,0,0,130.52,110.19Z" transform="translate(0 0)"/></svg>