<svg id="Layer_1" data-name="Layer 1" xmlns="http://www.w3.org/2000/svg" viewBox="0 0 200.75 200.75"><defs><style>.cls-1{fill:#192318;stroke:#fff;stroke-miterlimit:10;stroke-width:0.75px;}.cls-2{fill:#fff;}</style></defs><rect class="cls-1" x="0.38" y="0.38" width="200" height="200"/><text x="0.38" y="0.38"/><path class="cls-2" d="M30.35,61.5V59.75a1,1,0,0,1,.28-.71,1,1,0,0,1,.7-.29H33a.47.47,0,0,0,.35-.15.45.45,0,0,0,.14-.35V51.74a.46.46,0,0,0-.14-.35.47.47,0,0,0-.35-.15H31.33a1,1,0,0,1-.7-.29,1,1,0,0,1-.28-.71V48.5a1,1,0,0,1,.28-.71.91.91,0,0,1,.7-.29h3.18a.91.91,0,0,1,.69.29,1,1,0,0,1,.28.71v9.75a.48.48,0,0,0,.14.35.47.47,0,0,0,.35.15h5.62a.45.45,0,0,0,.34-.15.45.45,0,0,0,.15-.35V51.74a.47.47,0,0,0-.15-.35.45.45,0,0,0-.34-.15H39.88a.94.94,0,0,1-.69-.29,1,1,0,0,1-.29-.71V48.5a1,1,0,0,1,.29-.71.91.91,0,0,1,.69-.29h3.17a.91.91,0,0,1,.7.29,1,1,0,0,1,.28.71v13a1,1,0,0,1-.28.7.92.92,0,0,1-.7.3H31.33a.92.92,0,0,1-.7-.3A1,1,0,0,1,30.35,61.5Z" transform="translate(0.38 0.38)"/><path class="cls-2" d="M46.47,50.24V48.5a1,1,0,0,1,.28-.71.91.91,0,0,1,.7-.29H51.6a.91.91,0,0,1,.69.29,1,1,0,0,1,.29.71V61.62a1,1,0,0,1-.29.71,1,1,0,0,1-1.38,0,1,1,0,0,1-.28-.71V51.74a.5.5,0,0,0-.14-.35.47.47,0,0,0-.35-.15H47.45a1,1,0,0,1-.7-.29A1,1,0,0,1,46.47,50.24Z" transform="translate(0.38 0.38)"/><path class="cls-2" d="M55,50.24V48.5a1,1,0,0,1,.29-.71A.91.91,0,0,1,56,47.5h2.93a.91.91,0,0,1,.7.29,1,1,0,0,1,.28.71v4.29a.47.47,0,0,0,.25.44l2.93,1.64L66,53.13a.45.45,0,0,0,.24-.42v-1a.46.46,0,0,0-.14-.35.43.43,0,0,0-.34-.15H64.31a1,1,0,0,1-.7-.29,1,1,0,0,1-.28-.71V48.5a1,1,0,0,1,.28-.71.93.93,0,0,1,.7-.29h2.92a.91.91,0,0,1,.69.29,1,1,0,0,1,.29.71v4.4A2.52,2.52,0,0,1,68,54a2,2,0,0,1-.77.77L65.13,56l2.6,1.46a.92.92,0,0,1,.48.85V61.5a1,1,0,0,1-.29.7.92.92,0,0,1-.69.3H56.48a.92.92,0,0,1-.69-.3,1,1,0,0,1-.29-.7V59.75a1,1,0,0,1,.29-.71.94.94,0,0,1,.69-.29h7.38c.24,0,.37-.08.4-.25s-.05-.31-.25-.43l-5.07-2.71a1.89,1.89,0,0,1-.77-.77A2.41,2.41,0,0,1,58,53.5V51.74a.47.47,0,0,0-.15-.35.45.45,0,0,0-.34-.15H56A.94.94,0,0,1,55.3,51,1,1,0,0,1,55,50.24Z" transform="translate(0.38 0.38)"/><path class="cls-2" d="M70.64,61.5V59.75a1,1,0,0,1,.29-.71.94.94,0,0,1,.69-.29h9.53a.47.47,0,0,0,.35-.15.45.45,0,0,0,.14-.35V51.74a.46.46,0,0,0-.14-.35.47.47,0,0,0-.35-.15H73.09a.47.47,0,0,0-.35.15.5.5,0,0,0-.14.35v.91a.5.5,0,0,0,.14.35.47.47,0,0,0,.35.15h.74a.91.91,0,0,1,.69.29,1,1,0,0,1,.29.71v1.74a1,1,0,0,1-.29.71.91.91,0,0,1-.69.29H71.62a.91.91,0,0,1-.69-.29,1,1,0,0,1-.29-.71V48.5a1,1,0,0,1,.29-.71.91.91,0,0,1,.69-.29h11a.91.91,0,0,1,.69.29,1,1,0,0,1,.29.71v13a1,1,0,0,1-.29.7.92.92,0,0,1-.69.3h-11a.92.92,0,0,1-.69-.3A1,1,0,0,1,70.64,61.5Z" transform="translate(0.38 0.38)"/><path class="cls-2" d="M86,50.24V48.5a1,1,0,0,1,.29-.71A.91.91,0,0,1,87,47.5H98.5a.94.94,0,0,1,.7.29,1,1,0,0,1,.28.71V61.62a1,1,0,0,1-1,1,.94.94,0,0,1-.69-.29,1,1,0,0,1-.28-.71V51.74a.47.47,0,0,0-.15-.35.45.45,0,0,0-.34-.15H87a.94.94,0,0,1-.69-.29A1,1,0,0,1,86,50.24ZM86,61.5V56a1,1,0,0,1,.29-.71A.94.94,0,0,1,87,55a1,1,0,0,1,.7.29A1,1,0,0,1,88,56v2.25a.48.48,0,0,0,.14.35.47.47,0,0,0,.35.15h.74a.94.94,0,0,1,.69.29,1,1,0,0,1,.29.71V61.5a1,1,0,0,1-.29.7.92.92,0,0,1-.69.3H87a.92.92,0,0,1-.69-.3A1,1,0,0,1,86,61.5Z" transform="translate(0.38 0.38)"/><path class="cls-2" d="M111.69,61.5V59.75a1,1,0,0,1,1-1h.74a.45.45,0,0,0,.34-.15.45.45,0,0,0,.15-.35V51.74a.47.47,0,0,0-.15-.35.45.45,0,0,0-.34-.15h-.25a1,1,0,0,1-.7-.29,1,1,0,0,1-.28-.71V48.5a1,1,0,0,1,.28-.71.91.91,0,0,1,.7-.29h12a.91.91,0,0,1,.69.29,1,1,0,0,1,.28.71V61.62a1,1,0,0,1-.28.71.94.94,0,0,1-.69.29,1,1,0,0,1-.7-.29,1,1,0,0,1-.28-.71V51.74a.47.47,0,0,0-.15-.35.45.45,0,0,0-.34-.15h-7.33a.45.45,0,0,0-.34.15.47.47,0,0,0-.15.35V61.5a1,1,0,0,1-.28.7.94.94,0,0,1-.7.3h-2.2a1,1,0,0,1-1-1Z" transform="translate(0.38 0.38)"/><path class="cls-2" d="M128.55,61.5V59.75a1,1,0,0,1,1-1h4.4a.5.5,0,0,0,.49-.5V51.74a.5.5,0,0,0-.14-.35.49.49,0,0,0-.35-.15H131a.94.94,0,0,1-.69-.29,1,1,0,0,1-.28-.71V48.5a1,1,0,0,1,.28-.71.91.91,0,0,1,.69-.29h4.41a.91.91,0,0,1,.69.29,1,1,0,0,1,.29.71v13a1,1,0,0,1-.29.7.92.92,0,0,1-.69.3h-5.87a1,1,0,0,1-1-1Z" transform="translate(0.38 0.38)"/><path class="cls-2" d="M138.81,61.5V59.75a1,1,0,0,1,.29-.71.94.94,0,0,1,.69-.29h9.53a.47.47,0,0,0,.35-.15.48.48,0,0,0,.14-.35V51.74a.5.5,0,0,0-.14-.35.47.47,0,0,0-.35-.15h-9.53a.94.94,0,0,1-.69-.29,1,1,0,0,1-.29-.71V48.5a1,1,0,0,1,.29-.71.91.91,0,0,1,.69-.29h11a.91.91,0,0,1,.69.29,1,1,0,0,1,.29.71v13a1,1,0,0,1-.29.7.92.92,0,0,1-.69.3h-11a.92.92,0,0,1-.69-.3A1,1,0,0,1,138.81,61.5Z" transform="translate(0.38 0.38)"/><path class="cls-2" d="M154.2,50.24V48.5a1,1,0,0,1,.29-.71.91.91,0,0,1,.69-.29h11.49a.91.91,0,0,1,.69.29,1,1,0,0,1,.29.71V61.62a1,1,0,0,1-.29.71,1,1,0,0,1-1.38,0,1,1,0,0,1-.29-.71V51.74a.46.46,0,0,0-.14-.35.47.47,0,0,0-.35-.15h-10a.94.94,0,0,1-.69-.29A1,1,0,0,1,154.2,50.24Zm0,11.26V56a1,1,0,0,1,.29-.71,1,1,0,0,1,1.38,0,1,1,0,0,1,.29.71v2.25a.48.48,0,0,0,.14.35.47.47,0,0,0,.35.15h.74a.94.94,0,0,1,.69.29,1,1,0,0,1,.29.71V61.5a1,1,0,0,1-.29.7.92.92,0,0,1-.69.3h-2.21a.92.92,0,0,1-.69-.3A1,1,0,0,1,154.2,61.5Z" transform="translate(0.38 0.38)"/><path class="cls-2" d="M8.37,80.24V78.5a.94.94,0,0,1,.29-.71.91.91,0,0,1,.69-.29H20.84a.91.91,0,0,1,.69.29,1,1,0,0,1,.29.71V91.62a1,1,0,0,1-.29.71,1,1,0,0,1-1.38,0,1,1,0,0,1-.29-.71V81.74a.5.5,0,0,0-.14-.35.47.47,0,0,0-.35-.15h-10a1,1,0,0,1-1-1Zm0,11.26V86a1,1,0,0,1,.29-.71,1,1,0,0,1,1.38,0,1,1,0,0,1,.29.71v2.25a.45.45,0,0,0,.14.35.45.45,0,0,0,.35.15h.73a1,1,0,0,1,.7.29,1,1,0,0,1,.28.71V91.5a1,1,0,0,1-.28.7.92.92,0,0,1-.7.3H9.35a.92.92,0,0,1-.69-.3A.93.93,0,0,1,8.37,91.5Z" transform="translate(0.38 0.38)"/><path class="cls-2" d="M24.25,91.5v-13a1,1,0,0,1,.29-.71.91.91,0,0,1,.69-.29H36.72a.91.91,0,0,1,.69.29,1,1,0,0,1,.29.71v8.58A2.38,2.38,0,0,1,37,88.81l-2.92,3a2.31,2.31,0,0,1-1.73.74H25.23a.92.92,0,0,1-.69-.3A1,1,0,0,1,24.25,91.5Zm2-3.25a.45.45,0,0,0,.14.35.47.47,0,0,0,.35.15h4.77A2.31,2.31,0,0,0,33.19,88l1.87-1.92a2.38,2.38,0,0,0,.68-1.73V81.74a.5.5,0,0,0-.14-.35.47.47,0,0,0-.35-.15H26.7a.47.47,0,0,0-.35.15.46.46,0,0,0-.14.35Z" transform="translate(0.38 0.38)"/><path class="cls-2" d="M40.13,80.24V78.5a1,1,0,0,1,.29-.71.91.91,0,0,1,.69-.29h2a.91.91,0,0,1,.69.29,1,1,0,0,1,.29.71V80c0,.56.17.66.52.3l2.08-2.1a2.29,2.29,0,0,1,1.7-.7h6a.91.91,0,0,1,.69.29,1,1,0,0,1,.29.71v13a1,1,0,0,1-.29.7.92.92,0,0,1-.69.3H48.69a.92.92,0,0,1-.69-.3.93.93,0,0,1-.29-.7V89.75a1,1,0,0,1,1-1h4.15a.5.5,0,0,0,.49-.5V81.74a.5.5,0,0,0-.14-.35.49.49,0,0,0-.35-.15h-4a2.25,2.25,0,0,0-1.7.71L45,84.12a2.44,2.44,0,0,0-.72,1.77l0,5.73a1,1,0,0,1-.29.71,1,1,0,0,1-1.67-.71V81.74a.5.5,0,0,0-.14-.35.47.47,0,0,0-.35-.15h-.74a.94.94,0,0,1-.69-.29A1,1,0,0,1,40.13,80.24Z" transform="translate(0.38 0.38)"/><path class="cls-2" d="M57.72,91.5V89.75A1,1,0,0,1,58,89a.94.94,0,0,1,.69-.29h1.72a.45.45,0,0,0,.34-.15.45.45,0,0,0,.15-.35V81.74a.47.47,0,0,0-.15-.35.45.45,0,0,0-.34-.15H58.7A.94.94,0,0,1,58,81a1,1,0,0,1-.29-.71V78.5a1,1,0,0,1,.29-.71.91.91,0,0,1,.69-.29h3.18a.91.91,0,0,1,.69.29,1,1,0,0,1,.28.71v9.75a.5.5,0,0,0,.49.5H69a.47.47,0,0,0,.35-.15.48.48,0,0,0,.14-.35V81.74a.5.5,0,0,0-.14-.35.47.47,0,0,0-.35-.15H67.25a.94.94,0,0,1-.69-.29,1,1,0,0,1-.28-.71V78.5a1,1,0,0,1,.28-.71.91.91,0,0,1,.69-.29h3.18a.91.91,0,0,1,.69.29,1,1,0,0,1,.29.71v13a1,1,0,0,1-.29.7.92.92,0,0,1-.69.3H58.7a.92.92,0,0,1-.69-.3A1,1,0,0,1,57.72,91.5Z" transform="translate(0.38 0.38)"/><path class="cls-2" d="M73.84,80.24V78.5a1,1,0,0,1,.29-.71.91.91,0,0,1,.69-.29H86.31a.91.91,0,0,1,.69.29,1,1,0,0,1,.29.71V91.62a1,1,0,0,1-.29.71,1,1,0,0,1-1.38,0,1,1,0,0,1-.29-.71V81.74a.5.5,0,0,0-.14-.35.47.47,0,0,0-.35-.15h-10a.94.94,0,0,1-.69-.29A1,1,0,0,1,73.84,80.24Zm0,11.26V86a1,1,0,0,1,.29-.71,1,1,0,0,1,1.38,0,1,1,0,0,1,.29.71v2.25a.45.45,0,0,0,.14.35.47.47,0,0,0,.35.15H77a.94.94,0,0,1,.69.29,1,1,0,0,1,.28.71V91.5a1,1,0,0,1-.28.7.92.92,0,0,1-.69.3H74.82a.92.92,0,0,1-.69-.3A1,1,0,0,1,73.84,91.5Z" transform="translate(0.38 0.38)"/><path class="cls-2" d="M99.49,85.62V84.37a1,1,0,0,1,.29-.71.91.91,0,0,1,.69-.29h11.24a.94.94,0,0,1,.7.29,1,1,0,0,1,.28.71v1.25a1,1,0,0,1-.28.71,1,1,0,0,1-.7.3H100.47a.92.92,0,0,1-.69-.3A1,1,0,0,1,99.49,85.62Z" transform="translate(0.38 0.38)"/><path class="cls-2" d="M124.9,80.24V78.5a1,1,0,0,1,.28-.71.94.94,0,0,1,.7-.29H130a.91.91,0,0,1,.69.29,1,1,0,0,1,.29.71v6.75a1,1,0,0,1-.29.7.94.94,0,0,1-1.38,0,1,1,0,0,1-.28-.7V81.74a.5.5,0,0,0-.14-.35.47.47,0,0,0-.35-.15h-2.69a1,1,0,0,1-1-1Z" transform="translate(0.38 0.38)"/><path class="cls-2" d="M133.44,80.24V78.5a1,1,0,0,1,.29-.71.91.91,0,0,1,.69-.29h4.15a.91.91,0,0,1,.69.29.94.94,0,0,1,.29.71V91.62a1,1,0,0,1-1,1,.91.91,0,0,1-.68-.29,1,1,0,0,1-.28-.71V81.74a.47.47,0,0,0-.15-.35.45.45,0,0,0-.34-.15h-2.7a.94.94,0,0,1-.69-.29A1,1,0,0,1,133.44,80.24Z" transform="translate(0.38 0.38)"/><path class="cls-2" d="M142,91.5V89.75a1,1,0,0,1,.29-.71.94.94,0,0,1,.69-.29h4.41a.45.45,0,0,0,.34-.15.45.45,0,0,0,.15-.35V81.74a.47.47,0,0,0-.15-.35.45.45,0,0,0-.34-.15h-2.94a.94.94,0,0,1-.69-.29,1,1,0,0,1-.29-.71V78.5a1,1,0,0,1,.29-.71.91.91,0,0,1,.69-.29h4.4a.94.94,0,0,1,.7.29,1,1,0,0,1,.28.71v13a1,1,0,0,1-1,1H143a.92.92,0,0,1-.69-.3A1,1,0,0,1,142,91.5Z" transform="translate(0.38 0.38)"/><path class="cls-2" d="M152.25,80.24V78.5a1,1,0,0,1,.28-.71.91.91,0,0,1,.69-.29h4.16a.91.91,0,0,1,.69.29,1,1,0,0,1,.29.71v6.75a1,1,0,0,1-.29.7.94.94,0,0,1-1.38,0,1,1,0,0,1-.28-.7V81.74a.5.5,0,0,0-.14-.35.47.47,0,0,0-.35-.15h-2.7a.94.94,0,0,1-.69-.29A1,1,0,0,1,152.25,80.24Z" transform="translate(0.38 0.38)"/><path class="cls-2" d="M160.79,91.5V89.75a1,1,0,0,1,1-1h9.53a.47.47,0,0,0,.35-.15.48.48,0,0,0,.14-.35V81.74a.5.5,0,0,0-.14-.35.47.47,0,0,0-.35-.15h-8.06a.45.45,0,0,0-.35.15.46.46,0,0,0-.14.35v.91a.46.46,0,0,0,.14.35.45.45,0,0,0,.35.15H164a.91.91,0,0,1,.69.29,1,1,0,0,1,.28.71v1.74a1,1,0,0,1-.28.71.91.91,0,0,1-.69.29h-2.21a.91.91,0,0,1-.69-.29.94.94,0,0,1-.29-.71V78.5a.94.94,0,0,1,.29-.71.91.91,0,0,1,.69-.29h11a.91.91,0,0,1,.69.29,1,1,0,0,1,.29.71v13a1,1,0,0,1-.29.7.92.92,0,0,1-.69.3h-11a.92.92,0,0,1-.69-.3A.93.93,0,0,1,160.79,91.5Z" transform="translate(0.38 0.38)"/><path class="cls-2" d="M176.18,80.24V71a1,1,0,0,1,.29-.71.94.94,0,0,1,.69-.29h2a.94.94,0,0,1,.69.29,1,1,0,0,1,.29.71v1.75a1,1,0,0,1-.29.7.92.92,0,0,1-.69.3h-.49a.5.5,0,0,0-.35.14.52.52,0,0,0-.14.36V77a.52.52,0,0,0,.14.36.47.47,0,0,0,.35.15h10a.91.91,0,0,1,.69.29,1,1,0,0,1,.29.71v13a1,1,0,0,1-.29.7.92.92,0,0,1-.69.3h-5.38a.92.92,0,0,1-.69-.3,1,1,0,0,1-.29-.7V89.75a1,1,0,0,1,.29-.71.94.94,0,0,1,.69-.29h3.91a.47.47,0,0,0,.35-.15.48.48,0,0,0,.14-.35V81.74a.5.5,0,0,0-.14-.35.47.47,0,0,0-.35-.15h-10a.94.94,0,0,1-.69-.29A1,1,0,0,1,176.18,80.24Z" transform="translate(0.38 0.38)"/><path class="cls-2" d="M38.15,110.24V108.5a1,1,0,0,1,.28-.71.91.91,0,0,1,.69-.29h11.5a.92.92,0,0,1,.69.29,1,1,0,0,1,.28.71v13.12a1,1,0,0,1-.28.71,1,1,0,0,1-1.39,0,1,1,0,0,1-.28-.71v-9.88a.47.47,0,0,0-.15-.35.45.45,0,0,0-.34-.15h-10a.94.94,0,0,1-.69-.29A1,1,0,0,1,38.15,110.24Zm0,11.26V116a1,1,0,0,1,.28-.71.94.94,0,0,1,.69-.29,1,1,0,0,1,.7.29,1,1,0,0,1,.28.71v2.25a.45.45,0,0,0,.15.35.45.45,0,0,0,.34.15h.74A.94.94,0,0,1,42,119a1,1,0,0,1,.29.71v1.75a1,1,0,0,1-.29.7.92.92,0,0,1-.69.3H39.12a.92.92,0,0,1-.69-.3A1,1,0,0,1,38.15,121.5Z" transform="translate(0.38 0.38)"/><path class="cls-2" d="M54,110.24V108.5a1,1,0,0,1,.28-.71.93.93,0,0,1,.7-.29H66.25a.91.91,0,0,1,.69.29,1,1,0,0,1,.28.71v13a1,1,0,0,1-.28.7.92.92,0,0,1-.69.3H59.9a.92.92,0,0,1-.69-.3,1,1,0,0,1-.29-.7v-1.75a1,1,0,0,1,.29-.71.94.94,0,0,1,.69-.29h4.89a.43.43,0,0,0,.34-.15.48.48,0,0,0,.14-.35v-6.51a.5.5,0,0,0-.14-.35.43.43,0,0,0-.34-.15H55a1,1,0,0,1-.7-.29A1,1,0,0,1,54,110.24Zm0,16.26V114.79a1,1,0,0,1,.28-.7.94.94,0,0,1,.7-.3h.25a.92.92,0,0,1,.69.3,1,1,0,0,1,.29.7V126.5a1,1,0,0,1-.29.71.94.94,0,0,1-.69.29H55a1,1,0,0,1-.7-.29A1,1,0,0,1,54,126.5Z" transform="translate(0.38 0.38)"/><path class="cls-2" d="M69.66,121.5v-1.75a1,1,0,0,1,1-1H75a.5.5,0,0,0,.49-.5v-6.51a.5.5,0,0,0-.14-.35.49.49,0,0,0-.35-.15H72.1a.94.94,0,0,1-.69-.29,1,1,0,0,1-.28-.71V108.5a1,1,0,0,1,.28-.71.91.91,0,0,1,.69-.29h4.41a.91.91,0,0,1,.69.29,1,1,0,0,1,.29.71v13a1,1,0,0,1-.29.7.92.92,0,0,1-.69.3H70.64a.92.92,0,0,1-.69-.3A.93.93,0,0,1,69.66,121.5Z" transform="translate(0.38 0.38)"/><path class="cls-2" d="M79.92,110.24V108.5a1,1,0,0,1,.29-.71.91.91,0,0,1,.69-.29h4.15a.91.91,0,0,1,.69.29,1,1,0,0,1,.29.71v13.12a1,1,0,0,1-.29.71.94.94,0,0,1-.69.29.91.91,0,0,1-.68-.29,1,1,0,0,1-.29-.71v-9.88a.46.46,0,0,0-.14-.35.45.45,0,0,0-.34-.15H80.9a.94.94,0,0,1-.69-.29A1,1,0,0,1,79.92,110.24Z" transform="translate(0.38 0.38)"/><path class="cls-2" d="M88.46,110.24V101a1,1,0,0,1,.29-.71.94.94,0,0,1,.69-.29h2a.94.94,0,0,1,.69.29,1,1,0,0,1,.29.71v1.75a1,1,0,0,1-.29.7.92.92,0,0,1-.69.3h-.49a.5.5,0,0,0-.35.14.52.52,0,0,0-.14.36V107a.52.52,0,0,0,.14.36.47.47,0,0,0,.35.15h10a.91.91,0,0,1,.69.29.94.94,0,0,1,.29.71v13a.93.93,0,0,1-.29.7.92.92,0,0,1-.69.3H95.55a.92.92,0,0,1-.69-.3,1,1,0,0,1-.29-.7v-1.75a1,1,0,0,1,.29-.71.94.94,0,0,1,.69-.29h3.92a.45.45,0,0,0,.34-.15.45.45,0,0,0,.15-.35v-6.51a.47.47,0,0,0-.15-.35.45.45,0,0,0-.34-.15h-10a.94.94,0,0,1-.69-.29A1,1,0,0,1,88.46,110.24Z" transform="translate(0.38 0.38)"/><path class="cls-2" d="M104.35,121.5v-13a1,1,0,0,1,.28-.71.91.91,0,0,1,.69-.29,1,1,0,0,1,.7.31l7.65,7.31,2.32-2.35a.45.45,0,0,0,.14-.34v-.69a.46.46,0,0,0-.14-.35.45.45,0,0,0-.34-.15h-1.77a.94.94,0,0,1-.69-.29,1,1,0,0,1-.29-.71V108.5a1,1,0,0,1,.29-.71.91.91,0,0,1,.69-.29h3.22a.91.91,0,0,1,.69.29,1,1,0,0,1,.29.71v4a2,2,0,0,1-.5,1.48l-2.51,2.48,2.58,2.45a1.51,1.51,0,0,1,.44,1.14v1.84c0,.47-.22.71-.68.71a1.11,1.11,0,0,1-.73-.34l-9.54-9a.47.47,0,0,0-.35-.15.45.45,0,0,0-.34.15.47.47,0,0,0-.15.35v4.63a.45.45,0,0,0,.15.35.45.45,0,0,0,.34.15h.74a1,1,0,0,1,1,1v1.75a.93.93,0,0,1-.29.7.92.92,0,0,1-.69.3h-2.21a.92.92,0,0,1-.69-.3A1,1,0,0,1,104.35,121.5Z" transform="translate(0.38 0.38)"/><path class="cls-2" d="M130.29,110.24V101a1,1,0,0,1,.28-.71.94.94,0,0,1,.69-.29h2a.94.94,0,0,1,.69.29,1,1,0,0,1,.29.71v1.75a1,1,0,0,1-.29.7.92.92,0,0,1-.69.3h-.49a.48.48,0,0,0-.34.14.49.49,0,0,0-.15.36V107a.49.49,0,0,0,.15.36.45.45,0,0,0,.34.15h10a.91.91,0,0,1,.69.29,1,1,0,0,1,.28.71v13a1,1,0,0,1-.28.7.92.92,0,0,1-.69.3h-5.39a.92.92,0,0,1-.69-.3,1,1,0,0,1-.28-.7v-1.75a1,1,0,0,1,.28-.71.94.94,0,0,1,.69-.29h3.92a.45.45,0,0,0,.34-.15.45.45,0,0,0,.15-.35v-6.51a.47.47,0,0,0-.15-.35.45.45,0,0,0-.34-.15h-10a.94.94,0,0,1-.69-.29A1,1,0,0,1,130.29,110.24Z" transform="translate(0.38 0.38)"/><path class="cls-2" d="M146.17,121.5v-1.75a1,1,0,0,1,.28-.71,1,1,0,0,1,.7-.29h1.71a.47.47,0,0,0,.35-.15.45.45,0,0,0,.14-.35v-6.51a.46.46,0,0,0-.14-.35.47.47,0,0,0-.35-.15h-1.71a1,1,0,0,1-.7-.29,1,1,0,0,1-.28-.71V108.5a1,1,0,0,1,.28-.71.93.93,0,0,1,.7-.29h3.18a.91.91,0,0,1,.69.29,1,1,0,0,1,.28.71v9.75a.48.48,0,0,0,.14.35.47.47,0,0,0,.35.15h5.62a.45.45,0,0,0,.34-.15.45.45,0,0,0,.15-.35v-6.51a.47.47,0,0,0-.15-.35.45.45,0,0,0-.34-.15H155.7A.94.94,0,0,1,155,111a1,1,0,0,1-.29-.71V108.5a1,1,0,0,1,.29-.71.91.91,0,0,1,.69-.29h3.18a.91.91,0,0,1,.69.29,1,1,0,0,1,.28.71v13a1,1,0,0,1-.28.7.92.92,0,0,1-.69.3H147.15a.94.94,0,0,1-.7-.3A1,1,0,0,1,146.17,121.5Z" transform="translate(0.38 0.38)"/><path class="cls-2" d="M67.49,140.24V138.5a1,1,0,0,1,.29-.71.91.91,0,0,1,.69-.29h4.15a.91.91,0,0,1,.69.29,1,1,0,0,1,.29.71v6.75a1,1,0,0,1-.29.71.94.94,0,0,1-.69.29.91.91,0,0,1-.68-.29,1,1,0,0,1-.28-.71v-3.51a.49.49,0,0,0-.15-.35.45.45,0,0,0-.34-.15h-2.7a.91.91,0,0,1-.69-.29A1,1,0,0,1,67.49,140.24Z" transform="translate(0.38 0.38)"/><path class="cls-2" d="M76,140.24V138.5a1,1,0,0,1,.29-.71.91.91,0,0,1,.69-.29h4.16a.91.91,0,0,1,.69.29,1,1,0,0,1,.28.71v13.12a1,1,0,0,1-.28.71.94.94,0,0,1-.69.29.93.93,0,0,1-.69-.29,1,1,0,0,1-.28-.71v-9.88a.52.52,0,0,0-.14-.35.49.49,0,0,0-.35-.15H77a.91.91,0,0,1-.69-.29A1,1,0,0,1,76,140.24Z" transform="translate(0.38 0.38)"/><path class="cls-2" d="M84.58,151.5v-13a.94.94,0,0,1,.29-.71.91.91,0,0,1,.69-.29H97.05a.91.91,0,0,1,.69.29,1,1,0,0,1,.29.71v8.58a2.39,2.39,0,0,1-.7,1.73l-2.91,3a2.34,2.34,0,0,1-1.73.73H85.56a.94.94,0,0,1-.69-.29A1,1,0,0,1,84.58,151.5Zm2-3.25a.5.5,0,0,0,.48.5H91.8a2.31,2.31,0,0,0,1.72-.73l1.87-1.92a2.38,2.38,0,0,0,.68-1.73v-2.63a.52.52,0,0,0-.14-.35.49.49,0,0,0-.35-.15H87a.45.45,0,0,0-.34.15.47.47,0,0,0-.14.35Z" transform="translate(0.38 0.38)"/><path class="cls-2" d="M100.46,140.24V138.5a1,1,0,0,1,.29-.71.91.91,0,0,1,.69-.29h4.15a.91.91,0,0,1,.69.29,1,1,0,0,1,.29.71v6.75a1,1,0,0,1-.29.71.94.94,0,0,1-.69.29.91.91,0,0,1-.68-.29,1,1,0,0,1-.29-.71v-3.51a.47.47,0,0,0-.14-.35.45.45,0,0,0-.34-.15h-2.7a.91.91,0,0,1-.69-.29A1,1,0,0,1,100.46,140.24Z" transform="translate(0.38 0.38)"/><path class="cls-2" d="M109,151.5v-1.75a1,1,0,0,1,.29-.71.94.94,0,0,1,.69-.29h9.54a.5.5,0,0,0,.48-.5v-6.51a.47.47,0,0,0-.14-.35.45.45,0,0,0-.34-.15H110a.91.91,0,0,1-.69-.29,1,1,0,0,1-.29-.71V138.5a1,1,0,0,1,.29-.71.91.91,0,0,1,.69-.29h11a.91.91,0,0,1,.69.29.94.94,0,0,1,.29.71v13a1,1,0,0,1-.29.71.94.94,0,0,1-.69.29H110a.94.94,0,0,1-.69-.29A1,1,0,0,1,109,151.5Z" transform="translate(0.38 0.38)"/><path class="cls-2" d="M124.4,140.24V138.5a1,1,0,0,1,.28-.71.91.91,0,0,1,.69-.29h4.16a.91.91,0,0,1,.69.29,1,1,0,0,1,.28.71v13.12a1,1,0,0,1-.28.71,1,1,0,0,1-1.38,0,1,1,0,0,1-.28-.71v-9.88a.52.52,0,0,0-.14-.35.47.47,0,0,0-.35-.15h-2.7a.91.91,0,0,1-.69-.29A1,1,0,0,1,124.4,140.24Z" transform="translate(0.38 0.38)"/></svg>