<svg id="Layer_1" data-name="Layer 1" xmlns="http://www.w3.org/2000/svg" viewBox="0 0 200 200"><defs><style>.cls-1{fill:#192318;}.cls-2{fill:#fff;}</style></defs><rect class="cls-1" width="200" height="200"/><path class="cls-2" d="M13,71.38a2.05,2.05,0,0,1,.76-1.61,7,7,0,0,0,1.65.34,1.73,1.73,0,0,0,1.26-.54,2.8,2.8,0,0,0,.72-1V58.83H15.06A3.17,3.17,0,0,1,15,58.1a2.18,2.18,0,0,1,.79-1.7H27.12a5.13,5.13,0,0,1,3,.79,5.75,5.75,0,0,1,2.6,5.08v10H29.27V62A4.58,4.58,0,0,0,28.17,60a4,4,0,0,0-1.92-1.2H20.84V69.19c-.37,1.57-1.12,2.51-2.22,2.82a9.48,9.48,0,0,1-2.76.53,7.56,7.56,0,0,1-1.49-.18A5.36,5.36,0,0,1,13.06,72,3.45,3.45,0,0,1,13,71.38Z" transform="translate(0 0)"/><path class="cls-2" d="M34.72,58.21a3,3,0,0,1,.66-1.81H49.32a4.07,4.07,0,0,1-.66,2.43H47.07V72.31H43.63V58.83h-8.8A2.79,2.79,0,0,1,34.72,58.21Z" transform="translate(0 0)"/><path class="cls-2" d="M51.91,58.83v-.26a6.09,6.09,0,0,1,0-.69,2.51,2.51,0,0,1,.2-.64,4.61,4.61,0,0,1,.5-.84h4.43V72.31H53.62V58.83Z" transform="translate(0 0)"/><path class="cls-2" d="M61.16,58.41a2.84,2.84,0,0,1,1-2H78.32v2.8L77.8,60,72.19,72.31H68.47l6-13.48H61.2a1,1,0,0,0,0-.22A.83.83,0,0,1,61.16,58.41ZM61.35,79V62a2.84,2.84,0,0,1,.82-.13,2.79,2.79,0,0,1,1.27.3,9.92,9.92,0,0,1,1.36.87V79Z" transform="translate(0 0)"/><path class="cls-2" d="M81.1,71.93a2.88,2.88,0,0,1,1-2.06h4.7V60.52a2.79,2.79,0,0,0-.13-1,.91.91,0,0,0-.4-.52,1.34,1.34,0,0,0-.49-.18,3.25,3.25,0,0,0-.6,0h-3a3.58,3.58,0,0,1,1-2.43h3.18a4.21,4.21,0,0,1,2.78.89,3.58,3.58,0,0,1,1.07,2.91V72.31H81.15s0-.1,0-.19A1.12,1.12,0,0,1,81.1,71.93Z" transform="translate(0 0)"/><path class="cls-2" d="M102.06,71.38a2.05,2.05,0,0,1,.76-1.61,7,7,0,0,0,1.65.34,1.73,1.73,0,0,0,1.26-.54,2.8,2.8,0,0,0,.72-1V58.83h-2.33a2.67,2.67,0,0,1-.08-.73,2.18,2.18,0,0,1,.79-1.7h11.34a5.13,5.13,0,0,1,3,.79,5.75,5.75,0,0,1,2.6,5.08v10h-3.44V62a4.58,4.58,0,0,0-1.1-1.95,4,4,0,0,0-1.92-1.2h-5.41V69.19q-.56,2.36-2.22,2.82a9.48,9.48,0,0,1-2.76.53,7.56,7.56,0,0,1-1.49-.18,5.36,5.36,0,0,1-1.31-.41A3.45,3.45,0,0,1,102.06,71.38Z" transform="translate(0 0)"/><path class="cls-2" d="M123.74,75.1a4,4,0,0,1,1.5-3.19l4.3-1.41-3.43-11.67h-1.82a.58.58,0,0,1,0-.27,4.45,4.45,0,0,1,.19-1.23,1.56,1.56,0,0,1,.56-.93h4l3.76,12.83.77-.33a10.51,10.51,0,0,0,1.14-.65,9.1,9.1,0,0,0,1.26-1,4.85,4.85,0,0,0,.95-1.27,3.2,3.2,0,0,0,.41-1.57V58.83h-1.66v-.2a4.47,4.47,0,0,1,.23-1.31,1.35,1.35,0,0,1,.69-.92h4.19v7a9.54,9.54,0,0,1-1,4.33,6.8,6.8,0,0,1-2.87,3l-13.06,5.18A3.51,3.51,0,0,1,123.74,75.1Z" transform="translate(0 0)"/><path class="cls-2" d="M143.89,58.83a3.54,3.54,0,0,1,1-2.64h3.8v7.27L145.25,65V58.83Z" transform="translate(0 0)"/><path class="cls-2" d="M151.62,72.31a4,4,0,0,1,1-2.44h8.82V62.29a3.49,3.49,0,0,0-.89-2.59,3.19,3.19,0,0,0-2.34-.87h-4.95a3.82,3.82,0,0,1,.82-2.43h4.22a7.76,7.76,0,0,1,3,.58,5.87,5.87,0,0,1,2.38,1.71,3.91,3.91,0,0,1,1,2.57v8.61h1.89a5,5,0,0,1-.82,2.44Z" transform="translate(0 0)"/><path class="cls-2" d="M169.41,58.41a2.84,2.84,0,0,1,1-2h16.12v2.8l-.51.76-5.61,12.35h-3.73l6-13.48H169.45a1,1,0,0,0,0-.22A.83.83,0,0,1,169.41,58.41ZM169.6,79V62a2.84,2.84,0,0,1,.82-.13,2.79,2.79,0,0,1,1.27.3,10.57,10.57,0,0,1,1.36.87V79Z" transform="translate(0 0)"/><path class="cls-2" d="M19.84,108.31V92.4h10a7,7,0,0,1,2.39.37,4.67,4.67,0,0,1,1.64,1,4.56,4.56,0,0,1,1,1.37,6,6,0,0,1,.5,1.54,8.42,8.42,0,0,1,.13,1.54v10.14Zm3.44-2.44h8.78v-7.8c0-2.16-1-3.24-2.9-3.24H23.28Z" transform="translate(0 0)"/><path class="cls-2" d="M38.65,94.83a3.54,3.54,0,0,1,1-2.64h3.8v7.27L40,101V94.83Z" transform="translate(0 0)"/><path class="cls-2" d="M46.07,111.1a4,4,0,0,1,1.5-3.19l4.31-1.41L48.45,94.83H46.62a.82.82,0,0,1,0-.27,4.81,4.81,0,0,1,.18-1.23,1.61,1.61,0,0,1,.56-.93h4l3.75,12.83q.36-.14.78-.33a10.55,10.55,0,0,0,1.13-.65,8,8,0,0,0,1.26-1,5.1,5.1,0,0,0,1-1.27,3.31,3.31,0,0,0,.41-1.57V94.83H58v-.2a4.47,4.47,0,0,1,.23-1.31,1.41,1.41,0,0,1,.69-.92h4.19v7a9.66,9.66,0,0,1-1,4.33,6.77,6.77,0,0,1-2.88,3l-13,5.18A3,3,0,0,1,46.07,111.1Z" transform="translate(0 0)"/><path class="cls-2" d="M66,94.83v-.26a6.09,6.09,0,0,1,0-.69,2.42,2.42,0,0,1,.19-.64,4.61,4.61,0,0,1,.5-.84h4.44v15.91H67.71V94.83Z" transform="translate(0 0)"/><path class="cls-2" d="M74.78,94.1a2.68,2.68,0,0,1,.9-1.7h3l6.39,7.33a3.4,3.4,0,0,0,.58-.34c.91-.77,1.36-2.29,1.36-4.56H84.88a2.5,2.5,0,0,1-.12-.69,2.1,2.1,0,0,1,1.15-1.74h4.56a24.51,24.51,0,0,1-.38,4.85,5.5,5.5,0,0,1-3.42,4.42l3.18,4.17v2.41H75a2.4,2.4,0,0,1-.08-.49,1.85,1.85,0,0,1,1.11-1.94h9.48l-8.86-11H75A1.8,1.8,0,0,1,74.78,94.1Z" transform="translate(0 0)"/><path class="cls-2" d="M94.49,108.31a3.47,3.47,0,0,1,.73-2.44H103a3.65,3.65,0,0,0,2.87-1.73,6.83,6.83,0,0,0,1.32-4.27,7,7,0,0,0-.84-3.62,2.74,2.74,0,0,0-2.52-1.42H97.94v3.65a1.66,1.66,0,0,0,1.63,1.31,6.45,6.45,0,0,0,.75-.06l.6-.08a1.86,1.86,0,0,1,.2.84,3.16,3.16,0,0,1-.2,1,10.89,10.89,0,0,1-2.11.22,4.05,4.05,0,0,1-4.32-3.06V92.4h10.2a6.08,6.08,0,0,1,2,.33,4.66,4.66,0,0,1,1.56.93A6.65,6.65,0,0,1,109.4,95a6.36,6.36,0,0,1,.73,1.61,12.26,12.26,0,0,1,.38,1.71,11.62,11.62,0,0,1,.12,1.67,8.84,8.84,0,0,1-.93,3.91,8.57,8.57,0,0,1-2.61,3.17,5.83,5.83,0,0,1-3.58,1.26Z" transform="translate(0 0)"/><path class="cls-2" d="M121.37,94.42a3.38,3.38,0,0,1,.94-2h8.9a2.24,2.24,0,0,1,.09.6,2.46,2.46,0,0,1-.88,1.83,1.69,1.69,0,0,0-.57-.07c-.44,0-1,.39-1.75,1.18A3.34,3.34,0,0,0,127,98v10.33h-3.17v-7.93a8.14,8.14,0,0,1,.54-3.12,6.88,6.88,0,0,1,1.77-2.43h-4.75s0-.11,0-.2S121.37,94.47,121.37,94.42Z" transform="translate(0 0)"/><path class="cls-2" d="M134,94.83v-.26a6.09,6.09,0,0,1,0-.69,2.16,2.16,0,0,1,.2-.64,4.1,4.1,0,0,1,.5-.84h4.43v15.91H135.7V94.83Z" transform="translate(0 0)"/><path class="cls-2" d="M143,107.87a2.9,2.9,0,0,1,1-2h6.17A4.68,4.68,0,0,0,153,104a5.86,5.86,0,0,0,1.2-3.7,6.77,6.77,0,0,0-.44-2.51,4.3,4.3,0,0,0-1.21-1.71,5.43,5.43,0,0,0-1.67-.94,6.2,6.2,0,0,0-1.94-.3h-5.83a2.18,2.18,0,0,1-.07-.64,2.79,2.79,0,0,1,.84-1.79h6.36a6.49,6.49,0,0,1,2,.32,7.42,7.42,0,0,1,2,1A7.86,7.86,0,0,1,156,95.29a7.49,7.49,0,0,1,1.22,2.24,8.72,8.72,0,0,1,.46,2.84,9.26,9.26,0,0,1-.44,2.89,7.17,7.17,0,0,1-1.16,2.24,7.59,7.59,0,0,1-3.72,2.5,7.89,7.89,0,0,1-2.16.31h-7.13c0-.06,0-.13,0-.22A1,1,0,0,1,143,107.87Z" transform="translate(0 0)"/><path class="cls-2" d="M159.8,94.83a3.54,3.54,0,0,1,1-2.64h3.81v7.27L161.16,101V94.83Z" transform="translate(0 0)"/><path class="cls-2" d="M167.5,94.25a2.93,2.93,0,0,1,.7-1.85h5.32a11.39,11.39,0,0,1,4.37.66,5,5,0,0,1,2.39,2.09,4,4,0,0,1,.68,1.67,22.45,22.45,0,0,1,.16,3.16v8.33h-3.45V98.8a3.76,3.76,0,0,0-4-4h-6.13A2.1,2.1,0,0,1,167.5,94.25Z" transform="translate(0 0)"/><path class="cls-2" d="M5.31,143.38a2.05,2.05,0,0,1,.76-1.61,7,7,0,0,0,1.65.34A1.73,1.73,0,0,0,9,141.57a2.8,2.8,0,0,0,.72-1v-9.73H7.37a2.67,2.67,0,0,1-.08-.73,2.18,2.18,0,0,1,.79-1.7H19.42a5.13,5.13,0,0,1,3,.79,5.75,5.75,0,0,1,2.6,5.08v10H21.57V134a4.58,4.58,0,0,0-1.1-1.95,4,4,0,0,0-1.92-1.2H13.14v10.36q-.56,2.35-2.22,2.82a9.48,9.48,0,0,1-2.76.53,7.56,7.56,0,0,1-1.49-.18A5.36,5.36,0,0,1,5.36,144,3.45,3.45,0,0,1,5.31,143.38Z" transform="translate(0 0)"/><path class="cls-2" d="M27.49,130.83v-.26a6.09,6.09,0,0,1,0-.69,2.42,2.42,0,0,1,.19-.64,5.26,5.26,0,0,1,.5-.84h4.44v15.91H29.2V130.83Z" transform="translate(0 0)"/><path class="cls-2" d="M35.69,130.25a3,3,0,0,1,.69-1.85H41.7a11.45,11.45,0,0,1,4.38.66,4.94,4.94,0,0,1,2.38,2.09,3.77,3.77,0,0,1,.68,1.67A21,21,0,0,1,49.3,136v8.33H45.86V134.8a3.85,3.85,0,0,0-1.1-2.87,3.9,3.9,0,0,0-2.88-1.1H35.75A2.58,2.58,0,0,1,35.69,130.25Z" transform="translate(0 0)"/><path class="cls-2" d="M51.65,130.42a3.32,3.32,0,0,1,.94-2h8.89a1.93,1.93,0,0,1,.1.6,2.47,2.47,0,0,1-.89,1.83,1.69,1.69,0,0,0-.57-.07c-.44,0-1,.39-1.74,1.18a3.36,3.36,0,0,0-1.09,2v10.33H54.12v-7.93a8.14,8.14,0,0,1,.54-3.12,6.79,6.79,0,0,1,1.78-2.43H51.68a1.64,1.64,0,0,0,0-.2C51.66,130.54,51.65,130.47,51.65,130.42Z" transform="translate(0 0)"/><path class="cls-2" d="M64.09,145.49a11,11,0,0,1,.22-2.36,5.06,5.06,0,0,1,.88-1.9,20.69,20.69,0,0,0,5.27-5.54v-3.26c0-1.07-.67-1.6-2-1.6H65.27a3.74,3.74,0,0,1,.82-2.43h2.85a5.61,5.61,0,0,1,3.4.94,3.54,3.54,0,0,1,1.29,3v9.24a10.17,10.17,0,0,0,.84,2.69H71.23a26,26,0,0,1-.67-5.1A12.09,12.09,0,0,1,69.28,141a15.06,15.06,0,0,1-1.79,1.78c-.68.59-1.24,1.05-1.66,1.38S64.82,145,64.09,145.49Z" transform="translate(0 0)"/><path class="cls-2" d="M75.52,124.15a4.37,4.37,0,0,1,.2-1.38,2.29,2.29,0,0,1,.84-1h3.91v6.78H91.1v2.74l-6.29,13.07H81.05l6.26-13.38h-10v-6.78Z" transform="translate(0 0)"/><path class="cls-2" d="M103.5,130.28a3.15,3.15,0,0,1,.68-1.88h7.68a11.45,11.45,0,0,1,4.37.65,5,5,0,0,1,2.39,2.08,3.81,3.81,0,0,1,.68,1.67,21.08,21.08,0,0,1,.16,3.16v8.35H116v-9.53a3.74,3.74,0,0,0-4-3.95h-8.5A3.21,3.21,0,0,1,103.5,130.28Zm.65,14v-9.76a6.9,6.9,0,0,1,3,1v8.75Z" transform="translate(0 0)"/><path class="cls-2" d="M123,130.41a2.84,2.84,0,0,1,1-2h16.13v2.8l-.52.76L134,144.31H130.3l6-13.48H123a1,1,0,0,0,0-.22A.83.83,0,0,1,123,130.41Zm.19,20.56V134a2.84,2.84,0,0,1,.82-.13,2.79,2.79,0,0,1,1.27.3,9.92,9.92,0,0,1,1.36.87V151Z" transform="translate(0 0)"/><path class="cls-2" d="M142.93,130.83v-.26a6.09,6.09,0,0,1,0-.69,2.51,2.51,0,0,1,.2-.64,4.61,4.61,0,0,1,.5-.84h4.43v15.91h-3.44V130.83Z" transform="translate(0 0)"/><path class="cls-2" d="M150.21,124.15a4.37,4.37,0,0,1,.2-1.38,2.29,2.29,0,0,1,.84-1h3.91v6.78h10.63v2.74l-6.3,13.07h-3.75L162,130.93H152v-6.78Z" transform="translate(0 0)"/><path class="cls-2" d="M168.76,130.83a3.72,3.72,0,0,1,.71-2.43h11.37a4.3,4.3,0,0,1,2.21.73,7.65,7.65,0,0,1,2,1.81,3.24,3.24,0,0,1,.82,1.94v11.43h-3.45V133.67a2.75,2.75,0,0,0-1-1.87,2.8,2.8,0,0,0-1.86-1h-6v13.48h-3.45V130.83Z" transform="translate(0 0)"/><path class="cls-2" d="M188.62,130.83v-.26a6.09,6.09,0,0,1,0-.69,2.51,2.51,0,0,1,.2-.64,4.61,4.61,0,0,1,.5-.84h4.43v15.91h-3.44V130.83Z" transform="translate(0 0)"/></svg>