<svg id="Layer_1" data-name="Layer 1" xmlns="http://www.w3.org/2000/svg" viewBox="0 0 200.75 200.75"><defs><style>.cls-1{fill:#192318;stroke:#fff;stroke-miterlimit:10;stroke-width:0.75px;}.cls-2{fill:#fff;}</style></defs><rect class="cls-1" x="0.38" y="0.38" width="200" height="200"/><path class="cls-2" d="M25.37,77.5V75.75a1,1,0,0,1,.29-.71.94.94,0,0,1,.69-.29h.74a.45.45,0,0,0,.34-.15.47.47,0,0,0,.15-.35V67.74a.47.47,0,0,0-.15-.35.45.45,0,0,0-.34-.15h-.25a.94.94,0,0,1-.69-.29,1,1,0,0,1-.29-.71V64.5a1,1,0,0,1,.29-.71.92.92,0,0,1,.69-.3h12a.92.92,0,0,1,.69.3,1,1,0,0,1,.29.71V77.62a1,1,0,0,1-.29.71,1,1,0,0,1-1.38,0,1,1,0,0,1-.29-.71V67.74a.5.5,0,0,0-.14-.35.47.47,0,0,0-.35-.15H30a.45.45,0,0,0-.34.15.46.46,0,0,0-.14.35V77.5a1,1,0,0,1-.29.7.92.92,0,0,1-.69.3H26.35a.92.92,0,0,1-.69-.3A1,1,0,0,1,25.37,77.5Z" transform="translate(0.38 0.38)"/><path class="cls-2" d="M42.23,66.24V64.5a1,1,0,0,1,.29-.71.92.92,0,0,1,.69-.3h12a.92.92,0,0,1,.69.3,1,1,0,0,1,.29.71v1.74a1,1,0,0,1-.29.71.94.94,0,0,1-.69.29h-1a.49.49,0,0,0-.35.15.5.5,0,0,0-.14.35v9.88a1,1,0,0,1-.29.71,1,1,0,0,1-1.38,0,1,1,0,0,1-.29-.71V67.74a.46.46,0,0,0-.14-.35.45.45,0,0,0-.34-.15H43.21a.94.94,0,0,1-.69-.29A1,1,0,0,1,42.23,66.24Z" transform="translate(0.38 0.38)"/><path class="cls-2" d="M58.6,66.24V64.5a1,1,0,0,1,.29-.71.92.92,0,0,1,.69-.3h4.15a.92.92,0,0,1,.69.3.94.94,0,0,1,.29.71V77.62a1,1,0,0,1-.29.71.94.94,0,0,1-.69.29.91.91,0,0,1-.68-.29,1,1,0,0,1-.28-.71V67.74a.47.47,0,0,0-.15-.35.45.45,0,0,0-.34-.15h-2.7a.94.94,0,0,1-.69-.29A1,1,0,0,1,58.6,66.24Z" transform="translate(0.38 0.38)"/><path class="cls-2" d="M67.15,66.24V64.5a1,1,0,0,1,.28-.71.92.92,0,0,1,.69-.3H79.36a1,1,0,0,1,.7.3,1,1,0,0,1,.28.71v13a1,1,0,0,1-1,1H73a.94.94,0,0,1-.7-.3,1,1,0,0,1-.28-.7V75.75a1,1,0,0,1,.28-.71,1,1,0,0,1,.7-.29h4.89a.45.45,0,0,0,.34-.15.49.49,0,0,0,.13-.35V67.74a.49.49,0,0,0-.13-.35.45.45,0,0,0-.34-.15H68.12a.94.94,0,0,1-.69-.29A1,1,0,0,1,67.15,66.24Zm0,16.26V70.79a1,1,0,0,1,.28-.7.92.92,0,0,1,.69-.3h.25a.94.94,0,0,1,.7.3,1,1,0,0,1,.28.7V82.5a1,1,0,0,1-.28.71,1,1,0,0,1-.7.29h-.25a.94.94,0,0,1-.69-.29A1,1,0,0,1,67.15,82.5Z" transform="translate(0.38 0.38)"/><path class="cls-2" d="M82.78,77.5V75.75a1,1,0,0,1,.28-.71.94.94,0,0,1,.69-.29h4.41a.45.45,0,0,0,.34-.15.47.47,0,0,0,.15-.35V67.74a.47.47,0,0,0-.15-.35.45.45,0,0,0-.34-.15H85.22a.94.94,0,0,1-.69-.29,1,1,0,0,1-.29-.71V64.5a1,1,0,0,1,.29-.71.92.92,0,0,1,.69-.3h4.4a.92.92,0,0,1,.7.3,1,1,0,0,1,.28.71v13a1,1,0,0,1-.28.7.92.92,0,0,1-.7.3H83.75a.92.92,0,0,1-.69-.3A1,1,0,0,1,82.78,77.5Z" transform="translate(0.38 0.38)"/><path class="cls-2" d="M102.81,77.5V75.75a1,1,0,0,1,.29-.71.94.94,0,0,1,.69-.29h.74a.45.45,0,0,0,.34-.15.47.47,0,0,0,.15-.35V67.74a.47.47,0,0,0-.15-.35.45.45,0,0,0-.34-.15h-.25a1,1,0,0,1-1-1V64.5a1,1,0,0,1,.28-.71,1,1,0,0,1,.7-.3h12a.92.92,0,0,1,.69.3,1,1,0,0,1,.29.71V77.62a1,1,0,0,1-.29.71,1,1,0,0,1-1.38,0,1,1,0,0,1-.29-.71V67.74a.5.5,0,0,0-.14-.35.49.49,0,0,0-.35-.15h-7.33a.45.45,0,0,0-.34.15.47.47,0,0,0-.15.35V77.5a1,1,0,0,1-.28.7.92.92,0,0,1-.69.3h-2.21a.92.92,0,0,1-.69-.3A1,1,0,0,1,102.81,77.5Z" transform="translate(0.38 0.38)"/><path class="cls-2" d="M119.67,77.5V75.75A1,1,0,0,1,120,75a.94.94,0,0,1,.69-.29h1.72a.45.45,0,0,0,.34-.15.47.47,0,0,0,.15-.35V67.74a.47.47,0,0,0-.15-.35.45.45,0,0,0-.34-.15h-1.72A.94.94,0,0,1,120,67a1,1,0,0,1-.29-.71V64.5a1,1,0,0,1,.29-.71.92.92,0,0,1,.69-.3h3.18a.92.92,0,0,1,.69.3,1,1,0,0,1,.28.71v9.75a.5.5,0,0,0,.14.35.49.49,0,0,0,.35.15h5.62a.47.47,0,0,0,.35-.15.5.5,0,0,0,.14-.35V67.74a.5.5,0,0,0-.14-.35.47.47,0,0,0-.35-.15H129.2a.94.94,0,0,1-.69-.29,1,1,0,0,1-.28-.71V64.5a1,1,0,0,1,.28-.71.92.92,0,0,1,.69-.3h3.18a.92.92,0,0,1,.69.3,1,1,0,0,1,.29.71v13a1,1,0,0,1-.29.7.92.92,0,0,1-.69.3H120.65a.92.92,0,0,1-.69-.3A1,1,0,0,1,119.67,77.5Z" transform="translate(0.38 0.38)"/><path class="cls-2" d="M135.79,66.24V64.5a1,1,0,0,1,.29-.71.92.92,0,0,1,.69-.3h4.15a.92.92,0,0,1,.69.3,1,1,0,0,1,.29.71v6.75a1,1,0,0,1-.29.7.92.92,0,0,1-.69.3.88.88,0,0,1-.68-.3,1,1,0,0,1-.28-.7V67.74a.47.47,0,0,0-.15-.35.45.45,0,0,0-.34-.15h-2.7a.94.94,0,0,1-.69-.29A1,1,0,0,1,135.79,66.24Z" transform="translate(0.38 0.38)"/><path class="cls-2" d="M144.33,77.5V75.75a1,1,0,0,1,.29-.71.94.94,0,0,1,.69-.29h9.05a.45.45,0,0,0,.34-.15.47.47,0,0,0,.15-.35V67.74a.47.47,0,0,0-.15-.35.45.45,0,0,0-.34-.15h-9.05a.94.94,0,0,1-.69-.29,1,1,0,0,1-.29-.71V64.5a1,1,0,0,1,.29-.71.92.92,0,0,1,.69-.3h10.52a.92.92,0,0,1,.69.3,1,1,0,0,1,.28.71v9.75a.47.47,0,0,0,.15.35.45.45,0,0,0,.34.15H158a.94.94,0,0,1,.69.29,1,1,0,0,1,.29.71V77.5a1,1,0,0,1-.29.7.92.92,0,0,1-.69.3H145.31a.92.92,0,0,1-.69-.3A1,1,0,0,1,144.33,77.5Z" transform="translate(0.38 0.38)"/><path class="cls-2" d="M161.43,66.24V64.5a1,1,0,0,1,.29-.71.92.92,0,0,1,.69-.3h11.24a.92.92,0,0,1,.69.3,1,1,0,0,1,.29.71v13a1,1,0,0,1-.29.7.92.92,0,0,1-.69.3H167.3a.92.92,0,0,1-.69-.3,1,1,0,0,1-.28-.7V75.75a1,1,0,0,1,.28-.71.94.94,0,0,1,.69-.29h4.9a.46.46,0,0,0,.34-.15.49.49,0,0,0,.13-.35V67.74a.49.49,0,0,0-.13-.35.46.46,0,0,0-.34-.15h-9.79a.94.94,0,0,1-.69-.29A1,1,0,0,1,161.43,66.24Zm0,16.26V70.79a1,1,0,0,1,.29-.7.92.92,0,0,1,.69-.3h.25a.92.92,0,0,1,.69.3,1,1,0,0,1,.29.7V82.5a1,1,0,0,1-.29.71.94.94,0,0,1-.69.29h-.25a.94.94,0,0,1-.69-.29A1,1,0,0,1,161.43,82.5Z" transform="translate(0.38 0.38)"/><path class="cls-2" d="M27.58,107.5v-13a1,1,0,0,1,.28-.71.94.94,0,0,1,.7-.3h8.18a2.31,2.31,0,0,1,1.7.71l1.87,1.91A2.41,2.41,0,0,1,41,97.88v9.62a1,1,0,0,1-.28.7.92.92,0,0,1-.69.3H28.56a.94.94,0,0,1-.7-.3A1,1,0,0,1,27.58,107.5Zm2-3.25a.47.47,0,0,0,.15.35.45.45,0,0,0,.34.15h8.56a.45.45,0,0,0,.34-.15.47.47,0,0,0,.15-.35v-3.77a2.42,2.42,0,0,0-.72-1.77L37.64,98a2.31,2.31,0,0,0-1.7-.71H30a.45.45,0,0,0-.34.15.47.47,0,0,0-.15.35Z" transform="translate(0.38 0.38)"/><path class="cls-2" d="M43.46,96.24V94.5a.94.94,0,0,1,.29-.71.92.92,0,0,1,.69-.3h4.15a.92.92,0,0,1,.69.3,1,1,0,0,1,.29.71v6.75a1,1,0,0,1-.29.7.94.94,0,0,1-1.38,0,1,1,0,0,1-.28-.7V97.74a.46.46,0,0,0-.14-.35.47.47,0,0,0-.35-.15H44.44a1,1,0,0,1-1-1Z" transform="translate(0.38 0.38)"/><path class="cls-2" d="M52,107.5v-1.75a1,1,0,0,1,.29-.71.94.94,0,0,1,.69-.29H54.7a.45.45,0,0,0,.34-.15.47.47,0,0,0,.15-.35V97.74a.47.47,0,0,0-.15-.35.45.45,0,0,0-.34-.15H53a.94.94,0,0,1-.69-.29,1,1,0,0,1-.29-.71V94.5a1,1,0,0,1,.29-.71.92.92,0,0,1,.69-.3h3.19a.88.88,0,0,1,.68.3,1,1,0,0,1,.28.71v9.75a.47.47,0,0,0,.15.35.45.45,0,0,0,.34.15h5.62a.47.47,0,0,0,.35-.15.5.5,0,0,0,.14-.35V97.74a.5.5,0,0,0-.14-.35.47.47,0,0,0-.35-.15h-1.7a1,1,0,0,1-.7-.29,1,1,0,0,1-.28-.71V94.5a1,1,0,0,1,.28-.71.94.94,0,0,1,.7-.3h3.17a.92.92,0,0,1,.69.3,1,1,0,0,1,.29.71v13a1,1,0,0,1-.29.7.92.92,0,0,1-.69.3H53a.92.92,0,0,1-.69-.3A1,1,0,0,1,52,107.5Z" transform="translate(0.38 0.38)"/><path class="cls-2" d="M68.12,96.24V94.5a1,1,0,0,1,.29-.71.92.92,0,0,1,.69-.3h4.15a1,1,0,0,1,.7.3,1,1,0,0,1,.28.71v13.12a1,1,0,0,1-.28.71,1,1,0,0,1-.7.29.91.91,0,0,1-.68-.29,1,1,0,0,1-.28-.71V97.74a.47.47,0,0,0-.15-.35.45.45,0,0,0-.34-.15H69.1a.94.94,0,0,1-.69-.29A1,1,0,0,1,68.12,96.24Z" transform="translate(0.38 0.38)"/><path class="cls-2" d="M76.67,96.24V94.5a1,1,0,0,1,.28-.71.92.92,0,0,1,.69-.3h2.94a.92.92,0,0,1,.69.3,1,1,0,0,1,.29.71v4.29a.45.45,0,0,0,.25.44l2.92,1.64,2.94-1.74a.45.45,0,0,0,.24-.42v-1a.5.5,0,0,0-.14-.35.45.45,0,0,0-.34-.15H86a.94.94,0,0,1-.69-.29,1,1,0,0,1-.29-.71V94.5a1,1,0,0,1,.29-.71.92.92,0,0,1,.69-.3h2.92a.92.92,0,0,1,.7.3,1,1,0,0,1,.28.71v4.4a2.38,2.38,0,0,1-.22,1.09,1.89,1.89,0,0,1-.77.77L86.78,102l2.61,1.47a.93.93,0,0,1,.47.85v3.17a1,1,0,0,1-.28.7.92.92,0,0,1-.7.3H78.13a.92.92,0,0,1-.69-.3,1,1,0,0,1-.28-.7v-1.75a1,1,0,0,1,.28-.71.94.94,0,0,1,.69-.29h7.39c.23,0,.36-.08.4-.25s0-.31-.26-.44l-5.07-2.7a2,2,0,0,1-.77-.77,2.41,2.41,0,0,1-.22-1.09V97.74a.5.5,0,0,0-.14-.35.47.47,0,0,0-.35-.15H77.64A.94.94,0,0,1,77,97,1,1,0,0,1,76.67,96.24Z" transform="translate(0.38 0.38)"/><path class="cls-2" d="M92.3,107.5v-1.75a1,1,0,0,1,.28-.71,1,1,0,0,1,.7-.29h9.53a.49.49,0,0,0,.35-.15.5.5,0,0,0,.14-.35V97.74a.5.5,0,0,0-.14-.35.49.49,0,0,0-.35-.15H94.74a.45.45,0,0,0-.34.15.47.47,0,0,0-.15.35v.91a.49.49,0,0,0,.15.35.45.45,0,0,0,.34.15h.74a.91.91,0,0,1,.69.29.94.94,0,0,1,.29.71v1.74a.94.94,0,0,1-.29.71.91.91,0,0,1-.69.29h-2.2a.91.91,0,0,1-.7-.29,1,1,0,0,1-.28-.71V94.5a1,1,0,0,1,.28-.71.92.92,0,0,1,.7-.3h11a.92.92,0,0,1,.69.3,1,1,0,0,1,.29.71v13a1,1,0,0,1-.29.7.92.92,0,0,1-.69.3h-11a.92.92,0,0,1-.7-.3A1,1,0,0,1,92.3,107.5Z" transform="translate(0.38 0.38)"/><path class="cls-2" d="M117.46,96.24V94.5a1,1,0,0,1,.29-.71.92.92,0,0,1,.69-.3h5.38a.92.92,0,0,1,.69.3.94.94,0,0,1,.29.71v1.74a1,1,0,0,1-1,1h-1a.45.45,0,0,0-.34.15.47.47,0,0,0-.15.35v9.88a1,1,0,0,1-.28.71.94.94,0,0,1-.69.29,1,1,0,0,1-.7-.29,1,1,0,0,1-.28-.71V97.74a.47.47,0,0,0-.15-.35.45.45,0,0,0-.34-.15h-1.47a.94.94,0,0,1-.69-.29A1,1,0,0,1,117.46,96.24Z" transform="translate(0.38 0.38)"/><path class="cls-2" d="M127.23,96.24V94.5a1,1,0,0,1,.29-.71.92.92,0,0,1,.69-.3h4.16a.92.92,0,0,1,.69.3,1,1,0,0,1,.28.71v13.12a1,1,0,0,1-.28.71.94.94,0,0,1-.69.29.93.93,0,0,1-.69-.29,1,1,0,0,1-.28-.71V97.74a.5.5,0,0,0-.14-.35.49.49,0,0,0-.35-.15h-2.7a.94.94,0,0,1-.69-.29A1,1,0,0,1,127.23,96.24Z" transform="translate(0.38 0.38)"/><path class="cls-2" d="M135.78,107.5v-1.75a1,1,0,0,1,.28-.71,1,1,0,0,1,.7-.29h9.53a.49.49,0,0,0,.35-.15.5.5,0,0,0,.14-.35V97.74a.5.5,0,0,0-.14-.35.49.49,0,0,0-.35-.15h-9.53a1,1,0,0,1-.7-.29,1,1,0,0,1-.28-.71V94.5a1,1,0,0,1,.28-.71.94.94,0,0,1,.7-.3h11a.92.92,0,0,1,.69.3,1,1,0,0,1,.29.71v13a1,1,0,0,1-.29.7.92.92,0,0,1-.69.3h-11a.94.94,0,0,1-.7-.3A1,1,0,0,1,135.78,107.5Z" transform="translate(0.38 0.38)"/><path class="cls-2" d="M151.17,96.24V94.5a1,1,0,0,1,.29-.71.92.92,0,0,1,.69-.3h4.15a.92.92,0,0,1,.69.3,1,1,0,0,1,.29.71v6.75a1,1,0,0,1-.29.7.92.92,0,0,1-.69.3.88.88,0,0,1-.68-.3,1,1,0,0,1-.29-.7V97.74a.46.46,0,0,0-.14-.35.45.45,0,0,0-.34-.15h-2.7a.94.94,0,0,1-.69-.29A1,1,0,0,1,151.17,96.24Z" transform="translate(0.38 0.38)"/><path class="cls-2" d="M159.71,96.24V94.5a1,1,0,0,1,.29-.71.92.92,0,0,1,.69-.3h10.75a.92.92,0,0,1,.69.3.94.94,0,0,1,.29.71v13.12a1,1,0,0,1-.29.71.94.94,0,0,1-.69.29.91.91,0,0,1-.68-.29,1,1,0,0,1-.28-.71V97.74a.47.47,0,0,0-.15-.35.45.45,0,0,0-.34-.15h-9.3A.94.94,0,0,1,160,97,1,1,0,0,1,159.71,96.24Z" transform="translate(0.38 0.38)"/><path class="cls-2" d="M17.67,137.5v-1.75A1,1,0,0,1,18,135a.94.94,0,0,1,.69-.29h.74a.47.47,0,0,0,.35-.15.5.5,0,0,0,.14-.35v-6.51a.5.5,0,0,0-.14-.35.47.47,0,0,0-.35-.15h-.25a.94.94,0,0,1-.69-.29,1,1,0,0,1-.29-.71v-1.75a1,1,0,0,1,.29-.7.92.92,0,0,1,.69-.3h12a.92.92,0,0,1,.69.3,1,1,0,0,1,.29.7v13.13a1,1,0,0,1-.29.71,1,1,0,0,1-1.38,0,1,1,0,0,1-.29-.71v-9.88a.46.46,0,0,0-.14-.35.45.45,0,0,0-.35-.15H22.33a.47.47,0,0,0-.35.15.5.5,0,0,0-.14.35v9.76a1,1,0,0,1-.29.7.92.92,0,0,1-.69.3H18.65a.92.92,0,0,1-.69-.3A1,1,0,0,1,17.67,137.5Z" transform="translate(0.38 0.38)"/><path class="cls-2" d="M34.54,126.24v-1.75a1,1,0,0,1,.28-.7.92.92,0,0,1,.69-.3h4.16a.92.92,0,0,1,.69.3,1,1,0,0,1,.28.7v13.13a1,1,0,0,1-.28.71.94.94,0,0,1-.69.29.93.93,0,0,1-.69-.29,1,1,0,0,1-.28-.71v-9.88a.5.5,0,0,0-.14-.35.49.49,0,0,0-.35-.15h-2.7a.94.94,0,0,1-.69-.29A1,1,0,0,1,34.54,126.24Z" transform="translate(0.38 0.38)"/><path class="cls-2" d="M43.08,126.24v-1.75a1,1,0,0,1,1-1H54.81a.92.92,0,0,1,.69.3,1,1,0,0,1,.29.7v13.13a1,1,0,0,1-.29.71,1,1,0,0,1-1.38,0,1,1,0,0,1-.28-.71v-9.88a.5.5,0,0,0-.14-.35.47.47,0,0,0-.35-.15H44.06a1,1,0,0,1-1-1Z" transform="translate(0.38 0.38)"/><path class="cls-2" d="M58.22,126.24v-1.75a1,1,0,0,1,.29-.7.92.92,0,0,1,.69-.3h5.38a.92.92,0,0,1,.69.3,1,1,0,0,1,.29.7v1.75a1,1,0,0,1-.29.71.94.94,0,0,1-.69.29h-1a.45.45,0,0,0-.34.15.47.47,0,0,0-.15.35v9.88a1,1,0,0,1-.28.71,1,1,0,0,1-.7.29.94.94,0,0,1-.69-.29,1,1,0,0,1-.28-.71v-9.88a.47.47,0,0,0-.15-.35.45.45,0,0,0-.34-.15H59.2a.94.94,0,0,1-.69-.29A1,1,0,0,1,58.22,126.24Z" transform="translate(0.38 0.38)"/><path class="cls-2" d="M68,137.62V136a.93.93,0,0,1,.47-.84L73.89,132a.89.89,0,0,0,.46-.83v-3.39a.5.5,0,0,0-.14-.35.47.47,0,0,0-.35-.15H71.18a.94.94,0,0,1-.69-.29,1,1,0,0,1-.29-.71v-1.75a1,1,0,0,1,.29-.7.92.92,0,0,1,.69-.3h4.15a.92.92,0,0,1,.69.3,1,1,0,0,1,.29.7v13.13a1,1,0,0,1-.29.71,1,1,0,0,1-1.38,0,1,1,0,0,1-.29-.71v-1q0-.6-.57-.6a1.46,1.46,0,0,0-.62.25l-3.47,2-.16.1-.18.11-.17.06a.56.56,0,0,1-.21,0,.94.94,0,0,1-.69-.29A1,1,0,0,1,68,137.62Z" transform="translate(0.38 0.38)"/><path class="cls-2" d="M78.74,126.24V117a1,1,0,0,1,.29-.71.94.94,0,0,1,.69-.29h2a.94.94,0,0,1,.69.29,1,1,0,0,1,.29.71v1.75a1,1,0,0,1-.29.7.92.92,0,0,1-.69.3h-.49a.46.46,0,0,0-.35.14.52.52,0,0,0-.14.36V123a.52.52,0,0,0,.14.36.46.46,0,0,0,.35.14h10a.92.92,0,0,1,.69.3.93.93,0,0,1,.29.7v13a.93.93,0,0,1-.29.7.92.92,0,0,1-.69.3H85.83a.92.92,0,0,1-.69-.3,1,1,0,0,1-.29-.7v-1.75a1,1,0,0,1,.29-.71.94.94,0,0,1,.69-.29h3.91a.45.45,0,0,0,.35-.15.46.46,0,0,0,.14-.35v-6.51a.46.46,0,0,0-.14-.35.45.45,0,0,0-.35-.15h-10A.94.94,0,0,1,79,127,1,1,0,0,1,78.74,126.24Z" transform="translate(0.38 0.38)"/><path class="cls-2" d="M104.4,126.24v-1.75a1,1,0,0,1,1-1h11.49a.92.92,0,0,1,.69.3,1,1,0,0,1,.29.7v13.13a1,1,0,0,1-.29.71.94.94,0,0,1-.69.29,1,1,0,0,1-.7-.29,1,1,0,0,1-.28-.71v-9.88a.5.5,0,0,0-.14-.35.49.49,0,0,0-.35-.15h-10a1,1,0,0,1-1-1Zm0,11.26V132a1,1,0,0,1,.28-.71,1,1,0,0,1,.7-.29.94.94,0,0,1,.69.29,1,1,0,0,1,.28.71v2.25a.47.47,0,0,0,.15.35.45.45,0,0,0,.34.15h.74a1,1,0,0,1,1,1v1.75a1,1,0,0,1-1,1h-2.2a1,1,0,0,1-1-1Z" transform="translate(0.38 0.38)"/><path class="cls-2" d="M120.28,126.24v-1.75a1,1,0,0,1,.29-.7.92.92,0,0,1,.69-.3H132.5a.92.92,0,0,1,.69.3,1,1,0,0,1,.29.7v13a1,1,0,0,1-.29.7.92.92,0,0,1-.69.3h-6.35a.92.92,0,0,1-.69-.3,1,1,0,0,1-.29-.7v-1.75a1,1,0,0,1,.29-.71.94.94,0,0,1,.69-.29H131a.43.43,0,0,0,.34-.15.5.5,0,0,0,.14-.35v-6.51a.5.5,0,0,0-.14-.35.43.43,0,0,0-.34-.15h-9.78a.94.94,0,0,1-.69-.29A1,1,0,0,1,120.28,126.24Zm0,16.26V130.79a1,1,0,0,1,.29-.7.92.92,0,0,1,.69-.3h.25a.92.92,0,0,1,.69.3,1,1,0,0,1,.29.7V142.5a1,1,0,0,1-.29.71.94.94,0,0,1-.69.29h-.25a.94.94,0,0,1-.69-.29A1,1,0,0,1,120.28,142.5Z" transform="translate(0.38 0.38)"/><path class="cls-2" d="M135.91,126.24v-1.75a1,1,0,0,1,.29-.7.92.92,0,0,1,.69-.3H141a.92.92,0,0,1,.69.3,1,1,0,0,1,.29.7v13.13a1,1,0,0,1-.29.71.94.94,0,0,1-.69.29.91.91,0,0,1-.68-.29,1,1,0,0,1-.28-.71v-9.88a.47.47,0,0,0-.15-.35.45.45,0,0,0-.34-.15h-2.7a.94.94,0,0,1-.69-.29A1,1,0,0,1,135.91,126.24Z" transform="translate(0.38 0.38)"/><path class="cls-2" d="M144.45,126.24V117a1,1,0,0,1,.29-.71.94.94,0,0,1,.69-.29h2a.94.94,0,0,1,.69.29,1,1,0,0,1,.29.71v1.75a1,1,0,0,1-.29.7.92.92,0,0,1-.69.3h-.49a.46.46,0,0,0-.35.14.52.52,0,0,0-.14.36V123a.52.52,0,0,0,.14.36.46.46,0,0,0,.35.14h10a.92.92,0,0,1,.69.3.93.93,0,0,1,.29.7v13a.93.93,0,0,1-.29.7.92.92,0,0,1-.69.3h-5.38a.92.92,0,0,1-.69-.3,1,1,0,0,1-.29-.7v-1.75a1,1,0,0,1,.29-.71.94.94,0,0,1,.69-.29h3.92a.45.45,0,0,0,.34-.15.46.46,0,0,0,.14-.35v-6.51a.46.46,0,0,0-.14-.35.45.45,0,0,0-.34-.15h-10a.94.94,0,0,1-.69-.29A1,1,0,0,1,144.45,126.24Z" transform="translate(0.38 0.38)"/><path class="cls-2" d="M160.33,137.62V124.49a1,1,0,0,1,.29-.7.92.92,0,0,1,.69-.3H172.8a.94.94,0,0,1,.7.3,1,1,0,0,1,.28.7v13.13a1,1,0,0,1-.28.71,1,1,0,0,1-.7.29.94.94,0,0,1-.69-.29,1,1,0,0,1-.28-.71v-9.88a.47.47,0,0,0-.15-.35.45.45,0,0,0-.34-.15h-8.56a.45.45,0,0,0-.34.15.47.47,0,0,0-.15.35v9.88a1,1,0,0,1-.28.71,1,1,0,0,1-.7.29.94.94,0,0,1-.69-.29A1,1,0,0,1,160.33,137.62Z" transform="translate(0.38 0.38)"/><path class="cls-2" d="M176.22,126.24v-1.75a1,1,0,0,1,.28-.7.92.92,0,0,1,.7-.3h4.15a.92.92,0,0,1,.69.3,1,1,0,0,1,.29.7v13.13a1,1,0,0,1-.29.71,1,1,0,0,1-1.38,0,1,1,0,0,1-.28-.71v-9.88a.5.5,0,0,0-.14-.35.47.47,0,0,0-.35-.15H177.2a1,1,0,0,1-.7-.29A1,1,0,0,1,176.22,126.24Z" transform="translate(0.38 0.38)"/></svg>