<svg id="Layer_1" data-name="Layer 1" xmlns="http://www.w3.org/2000/svg" viewBox="0 0 200 200"><defs><style>.cls-1{fill:#192318;}.cls-2{fill:#fff;}</style></defs><rect class="cls-1" width="200" height="200"/><path class="cls-2" d="M20.14,55.83V40.45h9.69a6.85,6.85,0,0,1,2.32.36,4.67,4.67,0,0,1,1.58.92,4.29,4.29,0,0,1,1,1.33,6.41,6.41,0,0,1,.49,1.48A8.9,8.9,0,0,1,35.29,46v9.8Zm3.33-2.35H32V45.93c0-2.08-.93-3.13-2.8-3.13H23.47Z" transform="translate(0 0)"/><path class="cls-2" d="M38.32,42.8a3.4,3.4,0,0,1,1-2.55H43v7l-3.33,1.53v-6Z" transform="translate(0 0)"/><path class="cls-2" d="M46.2,42.8a3.4,3.4,0,0,1,1-2.55h3.68v7l-3.33,1.53v-6Z" transform="translate(0 0)"/><path class="cls-2" d="M53.86,42.8v-.25a5.82,5.82,0,0,1,0-.67,2.71,2.71,0,0,1,.19-.61,4.41,4.41,0,0,1,.49-.82h4.28V55.83H55.52v-13Z" transform="translate(0 0)"/><path class="cls-2" d="M62,55.46a2.77,2.77,0,0,1,1-2H67.5v-9a2.58,2.58,0,0,0-.13-.91A.84.84,0,0,0,67,43a1.3,1.3,0,0,0-.48-.18,3,3,0,0,0-.58,0H63a3.47,3.47,0,0,1,1-2.35h3.08a4,4,0,0,1,2.68.87,3.47,3.47,0,0,1,1,2.81v11.7H62.06a.82.82,0,0,0,0-.18C62,55.56,62,55.5,62,55.46Z" transform="translate(0 0)"/><path class="cls-2" d="M73.88,42.8a3.43,3.43,0,0,1,1-2.55h3.68v7l-3.33,1.53v-6Z" transform="translate(0 0)"/><path class="cls-2" d="M82.44,55.83a3.3,3.3,0,0,1,.71-2.35h7.52a3.54,3.54,0,0,0,2.77-1.68,6.6,6.6,0,0,0,1.28-4.13,6.79,6.79,0,0,0-.82-3.5,2.66,2.66,0,0,0-2.44-1.37H85.77v3.53a1.61,1.61,0,0,0,1.58,1.27,6.33,6.33,0,0,0,.73-.06l.57-.08a1.68,1.68,0,0,1,.2.81,2.69,2.69,0,0,1-.2.93,10.85,10.85,0,0,1-2,.21,3.91,3.91,0,0,1-4.18-2.95v-6H92.3a6,6,0,0,1,2,.32,4.43,4.43,0,0,1,1.51.9A6.87,6.87,0,0,1,96.85,43a5.91,5.91,0,0,1,.71,1.55,11.87,11.87,0,0,1,.37,1.66,10.81,10.81,0,0,1,.12,1.61,8.41,8.41,0,0,1-.91,3.78,8.29,8.29,0,0,1-2.52,3.07,5.7,5.7,0,0,1-3.47,1.21Z" transform="translate(0 0)"/><path class="cls-2" d="M108.52,54.94a2,2,0,0,1,.74-1.56,6.68,6.68,0,0,0,1.59.32,1.67,1.67,0,0,0,1.22-.52,2.77,2.77,0,0,0,.69-1V42.8H110.5a2.91,2.91,0,0,1-.07-.7,2.12,2.12,0,0,1,.77-1.65h11a5,5,0,0,1,2.89.77,5.54,5.54,0,0,1,2.51,4.91v9.7h-3.33v-10A4.29,4.29,0,0,0,123.17,44a4,4,0,0,0-1.85-1.16h-5.23v10a3.31,3.31,0,0,1-2.15,2.74,9.06,9.06,0,0,1-2.67.51,7.2,7.2,0,0,1-1.44-.18,5.59,5.59,0,0,1-1.26-.39A3.31,3.31,0,0,1,108.52,54.94Z" transform="translate(0 0)"/><path class="cls-2" d="M130,55.46a2.73,2.73,0,0,1,.95-2h4.53v-9a2.86,2.86,0,0,0-.12-.91.87.87,0,0,0-.38-.5,1.44,1.44,0,0,0-.48-.18,3.09,3.09,0,0,0-.58,0H131a3.45,3.45,0,0,1,1-2.35h3.08a4,4,0,0,1,2.69.87,3.47,3.47,0,0,1,1,2.81v11.7H130a.69.69,0,0,0,0-.18A.8.8,0,0,1,130,55.46Z" transform="translate(0 0)"/><path class="cls-2" d="M141.67,40.24a5.31,5.31,0,0,1,1.62-.28,9.31,9.31,0,0,1,1.87.28l1.34,3.62a8,8,0,0,1,1.1-1.79,5.64,5.64,0,0,1,1.81-1.41,5.37,5.37,0,0,1,2.53-.61,9.05,9.05,0,0,1,3.52.65,6.43,6.43,0,0,1,2.5,1.78,7.88,7.88,0,0,1,1.45,2.62,10.29,10.29,0,0,1,.49,3.21,9.8,9.8,0,0,1-.62,3.64,6,6,0,0,1-1.78,2.48,7.51,7.51,0,0,1-2.65,1.37,11.65,11.65,0,0,1-3.37.45,9.4,9.4,0,0,1-2.51-.46,3.14,3.14,0,0,1-.13-.94,5.42,5.42,0,0,1,.67-2.32,2.85,2.85,0,0,0,.72.72,2,2,0,0,0,1,.2,4.93,4.93,0,0,0,5.35-5.22,7.54,7.54,0,0,0-.27-2.08,5.4,5.4,0,0,0-.81-1.69,3.7,3.7,0,0,0-1.5-1.18,5.41,5.41,0,0,0-2.21-.42,3.91,3.91,0,0,0-1.8.4,3.68,3.68,0,0,0-1.3,1.06,6.92,6.92,0,0,0-.91,1.6,10.75,10.75,0,0,0-.62,1.92c-.15.66-.28,1.38-.4,2.14s-.23,1.48-.33,2.14-.21,1.33-.31,2-.2,1.24-.27,1.7h-3.42l1.14-10.1Z" transform="translate(0 0)"/><path class="cls-2" d="M161.43,42.41a3.27,3.27,0,0,1,.9-2h8.6a1.87,1.87,0,0,1,.1.59,2.38,2.38,0,0,1-.86,1.76,1.6,1.6,0,0,0-.55-.07c-.43,0-1,.38-1.69,1.15a3.21,3.21,0,0,0-1.05,2v10h-3.06V48.17a7.85,7.85,0,0,1,.52-3,6.76,6.76,0,0,1,1.71-2.35h-4.59s0-.11,0-.2A1.49,1.49,0,0,1,161.43,42.41Z" transform="translate(0 0)"/><path class="cls-2" d="M174.09,42.27a3,3,0,0,1,.66-1.82h7.42a11.15,11.15,0,0,1,4.22.63,4.84,4.84,0,0,1,2.32,2,4,4,0,0,1,.66,1.62,21.42,21.42,0,0,1,.15,3v8.07h-3.33V46.62a3.64,3.64,0,0,0-3.84-3.82h-8.21A2.89,2.89,0,0,1,174.09,42.27Zm.63,13.56V46.4a6.58,6.58,0,0,1,2.9,1v8.45Z" transform="translate(0 0)"/><path class="cls-2" d="M18,77.6a3.6,3.6,0,0,1,.69-2.35h11a4.17,4.17,0,0,1,2.14.71,7.12,7.12,0,0,1,1.95,1.74,3.22,3.22,0,0,1,.8,1.88v11H31.18V80.35a2.65,2.65,0,0,0-1-1.81,2.71,2.71,0,0,0-1.8-.94H22.6v13H19.27v-13Z" transform="translate(0 0)"/><path class="cls-2" d="M37.15,77.6v-.25a5.82,5.82,0,0,1,0-.67,2.17,2.17,0,0,1,.19-.61,4.41,4.41,0,0,1,.49-.82h4.28V90.63H38.81v-13Z" transform="translate(0 0)"/><path class="cls-2" d="M45.3,77.6v-.25a5.82,5.82,0,0,1,0-.67,2.17,2.17,0,0,1,.19-.61,4.31,4.31,0,0,1,.48-.82h4.28V90.63H47v-13Z" transform="translate(0 0)"/><path class="cls-2" d="M53.66,77.6a3.4,3.4,0,0,1,1-2.55H58.3v7L55,83.6v-6Z" transform="translate(0 0)"/><path class="cls-2" d="M60.87,77a3,3,0,0,1,.63-1.75H75a4,4,0,0,1-.64,2.35H72.81v13H69.48v-13H61A2.57,2.57,0,0,1,60.87,77Z" transform="translate(0 0)"/><path class="cls-2" d="M86.1,89.74a2,2,0,0,1,.74-1.56,6.68,6.68,0,0,0,1.59.32A1.67,1.67,0,0,0,89.65,88a2.77,2.77,0,0,0,.69-1V77.6H88.09a2.87,2.87,0,0,1-.08-.7,2.12,2.12,0,0,1,.77-1.65h11a5,5,0,0,1,2.89.77,5.54,5.54,0,0,1,2.51,4.91v9.7h-3.33v-10a4.29,4.29,0,0,0-1.06-1.89A4,4,0,0,0,98.9,77.6H93.67v10a3.31,3.31,0,0,1-2.15,2.74,9,9,0,0,1-2.67.5,6.93,6.93,0,0,1-1.43-.17,5.53,5.53,0,0,1-1.27-.39A3.31,3.31,0,0,1,86.1,89.74Z" transform="translate(0 0)"/><path class="cls-2" d="M107.32,77a2.85,2.85,0,0,1,.67-1.79h5.14a10.91,10.91,0,0,1,4.23.64,4.79,4.79,0,0,1,2.31,2,3.92,3.92,0,0,1,.66,1.61,21.48,21.48,0,0,1,.15,3.06v8h-3.33V81.44a3.64,3.64,0,0,0-3.84-3.84h-5.93A2.34,2.34,0,0,1,107.32,77Z" transform="translate(0 0)"/><path class="cls-2" d="M122.84,90.63a3.85,3.85,0,0,1,1-2.35h8.53V81a3.39,3.39,0,0,0-.86-2.51,3.1,3.1,0,0,0-2.27-.84h-4.78a3.71,3.71,0,0,1,.79-2.35h4.09a7.65,7.65,0,0,1,2.88.56,5.7,5.7,0,0,1,2.29,1.66,3.72,3.72,0,0,1,.92,2.48v8.33h1.83a4.78,4.78,0,0,1-.8,2.35Z" transform="translate(0 0)"/><path class="cls-2" d="M138.76,93.33a3.81,3.81,0,0,1,1.45-3.08l4.16-1.36L141.06,77.6h-1.77a.79.79,0,0,1,0-.26,4.53,4.53,0,0,1,.18-1.19,1.58,1.58,0,0,1,.54-.9h3.88l3.63,12.41c.23-.09.48-.19.75-.32a11.82,11.82,0,0,0,1.1-.63,7.91,7.91,0,0,0,1.21-.94,5,5,0,0,0,.93-1.23,3.19,3.19,0,0,0,.4-1.51V77.6h-1.62v-.2a4.11,4.11,0,0,1,.23-1.25,1.36,1.36,0,0,1,.66-.9h4.06V82a9.15,9.15,0,0,1-1,4.18,6.56,6.56,0,0,1-2.78,2.9l-12.62,5A3.25,3.25,0,0,1,138.76,93.33Z" transform="translate(0 0)"/><path class="cls-2" d="M158.49,77.07a3.07,3.07,0,0,1,.65-1.82h7.43a11.15,11.15,0,0,1,4.22.63,4.89,4.89,0,0,1,2.32,2,3.87,3.87,0,0,1,.65,1.62,19.66,19.66,0,0,1,.16,3v8.07h-3.33V81.42a3.64,3.64,0,0,0-3.84-3.82h-8.21A2.22,2.22,0,0,1,158.49,77.07Zm.62,13.56V81.2a6.58,6.58,0,0,1,2.91,1v8.45Z" transform="translate(0 0)"/><path class="cls-2" d="M176.53,77.6v-.25a5.82,5.82,0,0,1,0-.67,2.17,2.17,0,0,1,.19-.61,4.91,4.91,0,0,1,.48-.82h4.29V90.63h-3.33v-13Z" transform="translate(0 0)"/><path class="cls-2" d="M5.27,125.43V110.05H15a6.83,6.83,0,0,1,2.31.36,4.73,4.73,0,0,1,1.59.92,4.44,4.44,0,0,1,.94,1.33,6,6,0,0,1,.49,1.48,8.9,8.9,0,0,1,.12,1.49v9.8Zm3.33-2.35h8.49v-7.55c0-2.08-.93-3.13-2.8-3.13H8.6Z" transform="translate(0 0)"/><path class="cls-2" d="M23.46,112.4a3.42,3.42,0,0,1,1-2.55H28.1v7l-3.33,1.52v-6Z" transform="translate(0 0)"/><path class="cls-2" d="M31.18,109.84a5.34,5.34,0,0,1,1.62-.29,9.5,9.5,0,0,1,1.87.29L36,113.46a7.75,7.75,0,0,1,1.1-1.79,5.64,5.64,0,0,1,1.81-1.41,5.37,5.37,0,0,1,2.53-.61,9,9,0,0,1,3.52.65,6.43,6.43,0,0,1,2.5,1.78,7.71,7.71,0,0,1,1.45,2.62,10,10,0,0,1,.49,3.21,9.84,9.84,0,0,1-.62,3.64A5.88,5.88,0,0,1,47,124a7.55,7.55,0,0,1-2.64,1.37,11.7,11.7,0,0,1-3.37.45,9.09,9.09,0,0,1-2.52-.47,3.37,3.37,0,0,1-.13-.93,5.32,5.32,0,0,1,.68-2.32,3,3,0,0,0,.72.72,1.91,1.91,0,0,0,1,.2,4.92,4.92,0,0,0,5.35-5.23,7.51,7.51,0,0,0-.27-2.07,5.4,5.4,0,0,0-.81-1.69,3.59,3.59,0,0,0-1.49-1.18,5.43,5.43,0,0,0-2.22-.42,3.94,3.94,0,0,0-1.8.4,3.77,3.77,0,0,0-1.3,1.06,7.31,7.31,0,0,0-.91,1.6,11.62,11.62,0,0,0-.62,1.92c-.14.66-.28,1.38-.39,2.14s-.23,1.48-.34,2.14-.2,1.33-.31,2-.19,1.25-.26,1.71H31.93l1.14-10.1Z" transform="translate(0 0)"/><path class="cls-2" d="M51,111.84a2.91,2.91,0,0,1,.67-1.79h5.15a11,11,0,0,1,4.23.64,4.81,4.81,0,0,1,2.3,2,3.67,3.67,0,0,1,.66,1.61,21.09,21.09,0,0,1,.16,3.06v8.05H60.84v-9.19A3.64,3.64,0,0,0,57,112.4H51.07A1.91,1.91,0,0,1,51,111.84Z" transform="translate(0 0)"/><path class="cls-2" d="M66.71,112.4v-.25a5.82,5.82,0,0,1,0-.67,2.71,2.71,0,0,1,.19-.61,4.41,4.41,0,0,1,.49-.82H71.7v15.38H68.37v-13Z" transform="translate(0 0)"/><path class="cls-2" d="M74.69,126.57a10.37,10.37,0,0,1,.22-2.28,4.62,4.62,0,0,1,.84-1.83,20.15,20.15,0,0,0,5.1-5.36v-3.16c0-1-.65-1.54-2-1.54H75.83a3.6,3.6,0,0,1,.8-2.35h2.75a5.44,5.44,0,0,1,3.29.92,3.38,3.38,0,0,1,1.24,2.93v8.94a9.88,9.88,0,0,0,.82,2.59H81.59a25.54,25.54,0,0,1-.65-4.93,10.8,10.8,0,0,1-1.23,1.76A14.81,14.81,0,0,1,78,124c-.66.57-1.2,1-1.61,1.33S75.4,126.06,74.69,126.57Z" transform="translate(0 0)"/><path class="cls-2" d="M85.74,105.94a4.09,4.09,0,0,1,.2-1.33,2.14,2.14,0,0,1,.81-1h3.78v6.56H100.8v2.64l-6.08,12.64H91.09l6-12.93H87.46v-6.56Z" transform="translate(0 0)"/><path class="cls-2" d="M112.54,112.4a3.42,3.42,0,0,1,1-2.55h3.68v7l-3.33,1.52v-6Z" transform="translate(0 0)"/><path class="cls-2" d="M120.2,125.06a2.77,2.77,0,0,1,1-2h4.54v-9a2.58,2.58,0,0,0-.13-.91.84.84,0,0,0-.38-.5,1.3,1.3,0,0,0-.48-.18,3,3,0,0,0-.58,0H121.2a3.47,3.47,0,0,1,1-2.35h3.08a4,4,0,0,1,2.68.87,3.45,3.45,0,0,1,1,2.81v11.7h-8.77a.82.82,0,0,0,0-.18C120.21,125.16,120.2,125.1,120.2,125.06Z" transform="translate(0 0)"/><path class="cls-2" d="M131.85,112.4v-.25a5.82,5.82,0,0,1,0-.67,2.27,2.27,0,0,1,.19-.61,4.31,4.31,0,0,1,.48-.82h4.28v15.38H133.5v-13Z" transform="translate(0 0)"/><path class="cls-2" d="M140.07,111.71a2.15,2.15,0,0,1,.88-1.66h3.78v8.16a6.25,6.25,0,0,0,3.46-.82,2.41,2.41,0,0,0,1.23-2v-3h-1.2a2.55,2.55,0,0,1-.18-1,1.67,1.67,0,0,1,.86-1.4h3.58v5.45a3.6,3.6,0,0,1-.93,2.3,6.89,6.89,0,0,1-2.59,1.86,9,9,0,0,1-3.59.73,6.49,6.49,0,0,0,2.3,2.12,7,7,0,0,0,3.14.62,10,10,0,0,0,2.19-.22,6.58,6.58,0,0,0,1.7-.62,6.86,6.86,0,0,0,1.24-.88,4.27,4.27,0,0,0,.85-1,5.8,5.8,0,0,0,.46-1,3.86,3.86,0,0,0,.14-1V112.4h-1.34a4.83,4.83,0,0,1-.05-.68,2.2,2.2,0,0,1,.83-1.67h3.89v8.63a4.66,4.66,0,0,1-.44,1.87,7.48,7.48,0,0,1-1.34,2,11.26,11.26,0,0,1-2.06,1.72,10.52,10.52,0,0,1-2.79,1.24,12.05,12.05,0,0,1-6.63,0,9,9,0,0,1-2.63-1.2,8.42,8.42,0,0,1-1.88-1.73,7.32,7.32,0,0,1-1.17-2.08,6.82,6.82,0,0,1-.38-2.22V112.4h-1.22A4.83,4.83,0,0,1,140.07,111.71Z" transform="translate(0 0)"/><path class="cls-2" d="M163.85,109.85h4.27a82.52,82.52,0,0,1,6.28,7c1.1-.46,1.64-1.76,1.64-3.93v-.52h-1.42a4,4,0,0,1,.77-2.55h4c0,.15,0,.41,0,.78s0,.65,0,.85a15.12,15.12,0,0,1-.11,1.88,12.09,12.09,0,0,1-.41,1.85,6,6,0,0,1-1,1.94,7.51,7.51,0,0,1-1.76,1.64,54.07,54.07,0,0,1,4.69,6.64H177a61.41,61.41,0,0,0-6.91-8.7,6.55,6.55,0,0,0-2.28,2.77,8.39,8.39,0,0,0-.87,3.58h1.15a3.42,3.42,0,0,1,.33,1.68,4.73,4.73,0,0,1,0,.67h-4.51a26.8,26.8,0,0,1,.14-2.81,18,18,0,0,1,.34-2.23,9.51,9.51,0,0,1,.57-1.78,10.12,10.12,0,0,1,.7-1.37,7,7,0,0,1,.86-1.09,10.09,10.09,0,0,1,.92-.88c.26-.22.6-.48,1-.77A54,54,0,0,0,163.85,109.85Z" transform="translate(0 0)"/><path class="cls-2" d="M182.49,111.84a2.85,2.85,0,0,1,.67-1.79h5.14a10.91,10.91,0,0,1,4.23.64,4.83,4.83,0,0,1,2.31,2,3.78,3.78,0,0,1,.65,1.61,19.72,19.72,0,0,1,.16,3.06v8.05h-3.33v-9.19a3.64,3.64,0,0,0-3.84-3.84h-5.93A2.34,2.34,0,0,1,182.49,111.84Z" transform="translate(0 0)"/><path class="cls-2" d="M39.57,160.23V144.85h9.7a6.83,6.83,0,0,1,2.31.36,4.63,4.63,0,0,1,1.59.92,4.27,4.27,0,0,1,.94,1.33,5.58,5.58,0,0,1,.49,1.48,8.9,8.9,0,0,1,.12,1.49v9.8Zm3.33-2.35h8.49v-7.55c0-2.08-.93-3.13-2.8-3.13H42.9Z" transform="translate(0 0)"/><path class="cls-2" d="M57.76,147.2a3.43,3.43,0,0,1,1-2.55H62.4v7l-3.33,1.53v-6Z" transform="translate(0 0)"/><path class="cls-2" d="M65.48,147.21a3.78,3.78,0,0,1,.8-2.58h3.91v10.21a3,3,0,0,0,.43,1.59,3.28,3.28,0,0,0,1.11,1.14,6.87,6.87,0,0,0,2.86,1,5.36,5.36,0,0,0,3.51-1.09,4.8,4.8,0,0,0,1.69-2.64,8.45,8.45,0,0,0,.28-2.08q0-6-4.1-6a5.27,5.27,0,0,0-.56,0,2.83,2.83,0,0,0-.5.12l-.42.15a3.17,3.17,0,0,0-.36.16l-.25.16-.16.11-.06.05c-.15,0-.22-.45-.22-1.23a2.63,2.63,0,0,1,.22-1.25,8.7,8.7,0,0,1,3.45-.66,6.68,6.68,0,0,1,2.53.45,4.76,4.76,0,0,1,1.8,1.19,6,6,0,0,1,1.14,1.82,9.92,9.92,0,0,1,.64,2.22,16.37,16.37,0,0,1,.18,2.51,9.12,9.12,0,0,1-.56,3.25,7.23,7.23,0,0,1-1.65,2.56,7.1,7.1,0,0,1-2.81,1.71,11.61,11.61,0,0,1-4,.62A8.41,8.41,0,0,1,69,159a5.23,5.23,0,0,1-2.11-4.24v-7.58Z" transform="translate(0 0)"/><path class="cls-2" d="M85.29,159.86a2.77,2.77,0,0,1,.95-2h4.54v-9a2.83,2.83,0,0,0-.13-.91.84.84,0,0,0-.38-.5,1.3,1.3,0,0,0-.48-.18,3,3,0,0,0-.58,0H86.29a3.47,3.47,0,0,1,1-2.35h3.08a4,4,0,0,1,2.68.87,3.45,3.45,0,0,1,1,2.81v11.7H85.34a.82.82,0,0,0,0-.18C85.3,160,85.29,159.9,85.29,159.86Z" transform="translate(0 0)"/><path class="cls-2" d="M96.94,147.2V147a5.82,5.82,0,0,1,0-.67,2.27,2.27,0,0,1,.19-.61,3.83,3.83,0,0,1,.48-.82h4.28v15.38H98.59v-13Z" transform="translate(0 0)"/><path class="cls-2" d="M105.08,147.2V147a5.82,5.82,0,0,1,0-.67,2.27,2.27,0,0,1,.19-.61,4.41,4.41,0,0,1,.49-.82h4.28v15.38h-3.33v-13Z" transform="translate(0 0)"/><path class="cls-2" d="M112.12,140.74a4.1,4.1,0,0,1,.19-1.33,2.19,2.19,0,0,1,.81-1h3.78V145h10.27v2.65l-6.08,12.63h-3.63l6.05-12.93h-9.67v-6.56Z" transform="translate(0 0)"/><path class="cls-2" d="M129.67,146.64a2.89,2.89,0,0,1,.68-1.79h5.14a11,11,0,0,1,4.23.64,4.88,4.88,0,0,1,2.31,2,3.78,3.78,0,0,1,.65,1.61,19.72,19.72,0,0,1,.16,3.06v8h-3.33V151a3.64,3.64,0,0,0-3.84-3.84h-5.93A2.31,2.31,0,0,1,129.67,146.64Z" transform="translate(0 0)"/><path class="cls-2" d="M145.86,146.67a3,3,0,0,1,.65-1.82h7.43a11.18,11.18,0,0,1,4.22.63,4.82,4.82,0,0,1,2.31,2,3.76,3.76,0,0,1,.66,1.62,21,21,0,0,1,.16,3v8.07H158V151a3.64,3.64,0,0,0-3.84-3.83H145.9A2.93,2.93,0,0,1,145.86,146.67Zm.62,13.56V150.8a6.58,6.58,0,0,1,2.91,1v8.45Z" transform="translate(0 0)"/></svg>