<svg id="Layer_1" data-name="Layer 1" xmlns="http://www.w3.org/2000/svg" viewBox="0 0 200 200"><defs><style>.cls-1{fill:#192318;}.cls-2{fill:#fff;}</style></defs><rect class="cls-1" width="200" height="200"/><path class="cls-2" d="M8,71.38a2.05,2.05,0,0,1,.76-1.61,7,7,0,0,0,1.65.34,1.73,1.73,0,0,0,1.26-.54,2.8,2.8,0,0,0,.72-1V58.83H10.07A3.17,3.17,0,0,1,10,58.1a2.18,2.18,0,0,1,.79-1.7H22.13a5.13,5.13,0,0,1,3,.79,5.75,5.75,0,0,1,2.6,5.08v10H24.28V62A4.58,4.58,0,0,0,23.18,60a4,4,0,0,0-1.92-1.2H15.85V69.19c-.37,1.57-1.12,2.51-2.22,2.82a9.48,9.48,0,0,1-2.76.53,7.56,7.56,0,0,1-1.49-.18A5.36,5.36,0,0,1,8.07,72,3.45,3.45,0,0,1,8,71.38Z" transform="translate(0 0)"/><path class="cls-2" d="M30,58.25a2.93,2.93,0,0,1,.7-1.85H36a11.42,11.42,0,0,1,4.37.66,5,5,0,0,1,2.39,2.09,4,4,0,0,1,.68,1.67A22.45,22.45,0,0,1,43.59,64v8.33H40.14V62.8a3.76,3.76,0,0,0-4-4H30A2.58,2.58,0,0,1,30,58.25Z" transform="translate(0 0)"/><path class="cls-2" d="M46.45,58.83a3.54,3.54,0,0,1,1-2.64h3.8v7.27L47.81,65V58.83Z" transform="translate(0 0)"/><path class="cls-2" d="M54.73,58.1a2.65,2.65,0,0,1,.91-1.7h3L65,63.73a3.59,3.59,0,0,0,.59-.34c.9-.77,1.36-2.29,1.36-4.56H64.83a2.5,2.5,0,0,1-.12-.69,2.1,2.1,0,0,1,1.15-1.74h4.56a24.63,24.63,0,0,1-.37,4.85A6.54,6.54,0,0,1,68.91,64a6.4,6.4,0,0,1-2.29,1.7l3.18,4.17v2.41H55a3.48,3.48,0,0,1-.08-.49A1.84,1.84,0,0,1,56,69.82H65.5l-8.86-11H55A1.85,1.85,0,0,1,54.73,58.1Z" transform="translate(0 0)"/><path class="cls-2" d="M73,75.1a4,4,0,0,1,1.5-3.19l4.3-1.41L75.38,58.83H73.56a.76.76,0,0,1,0-.27,4.86,4.86,0,0,1,.19-1.23,1.56,1.56,0,0,1,.56-.93h4L82,69.23q.36-.14.78-.33A10.55,10.55,0,0,0,84,68.25a8,8,0,0,0,1.26-1,4.85,4.85,0,0,0,1-1.27,3.22,3.22,0,0,0,.42-1.57V58.83H84.91v-.2a4.47,4.47,0,0,1,.23-1.31,1.35,1.35,0,0,1,.69-.92H90v7a9.54,9.54,0,0,1-1,4.33,6.75,6.75,0,0,1-2.87,3L73.1,75.87A3.51,3.51,0,0,1,73,75.1Z" transform="translate(0 0)"/><path class="cls-2" d="M92.93,58.83v-.26a6.09,6.09,0,0,1,0-.69,2.51,2.51,0,0,1,.2-.64,4.61,4.61,0,0,1,.5-.84h4.43V72.31H94.65V58.83Z" transform="translate(0 0)"/><path class="cls-2" d="M111,58.28a3.15,3.15,0,0,1,.68-1.88h7.68a11.49,11.49,0,0,1,4.37.65,5,5,0,0,1,2.39,2.08,3.94,3.94,0,0,1,.68,1.67,21.08,21.08,0,0,1,.16,3.16v8.35h-3.44V62.78a3.76,3.76,0,0,0-4-4H111A3.21,3.21,0,0,1,111,58.28Zm.65,14V62.55a6.86,6.86,0,0,1,3,1v8.75Z" transform="translate(0 0)"/><path class="cls-2" d="M130.43,58.41a2.85,2.85,0,0,1,1-2h16.12v2.8l-.51.76-5.62,12.35h-3.72l6-13.48H130.48s0-.13,0-.22A1,1,0,0,1,130.43,58.41Zm.2,20.56V62a2.84,2.84,0,0,1,.82-.13,2.79,2.79,0,0,1,1.27.3,10.57,10.57,0,0,1,1.36.87V79Z" transform="translate(0 0)"/><path class="cls-2" d="M150.61,58.83a3.54,3.54,0,0,1,1-2.64h3.8v7.27L152,65V58.83Z" transform="translate(0 0)"/><path class="cls-2" d="M158.3,58.25a3,3,0,0,1,.7-1.85h5.32a11.45,11.45,0,0,1,4.38.66,4.94,4.94,0,0,1,2.38,2.09,3.89,3.89,0,0,1,.68,1.67,21,21,0,0,1,.16,3.16v8.33h-3.44V62.8a3.77,3.77,0,0,0-4-4h-6.13A2.56,2.56,0,0,1,158.3,58.25Z" transform="translate(0 0)"/><path class="cls-2" d="M175,58.83a3.93,3.93,0,0,1,1.36-2.43h8.61a8.43,8.43,0,0,1,2.8.45,7.22,7.22,0,0,1,2.33,1.39,6.09,6.09,0,0,1,1.64,2.55,10.89,10.89,0,0,1,.6,3.77,7.92,7.92,0,0,1-2.3,6.08q-2.3,2.14-6.62,2.15a9.63,9.63,0,0,1-3.12-.48,6.87,6.87,0,0,1-2.26-1.2,7.34,7.34,0,0,1-1.46-1.65,6.51,6.51,0,0,1-.83-1.74,6,6,0,0,1-.23-1.56V60l.93-1.19Zm4,7.5a3.12,3.12,0,0,0,.3,1.26,5.52,5.52,0,0,0,.87,1.31,4.5,4.5,0,0,0,1.48,1,4.83,4.83,0,0,0,2,.42,5,5,0,0,0,2.89-.82,4.77,4.77,0,0,0,1.8-2.11,7.25,7.25,0,0,0,.58-2.92,8.23,8.23,0,0,0-.38-2.6,4.17,4.17,0,0,0-2.43-2.75,4.16,4.16,0,0,0-1.65-.33h-5.47Z" transform="translate(0 0)"/><path class="cls-2" d="M51,108.31V92.4H61a7,7,0,0,1,2.39.37,4.67,4.67,0,0,1,1.64,1,4.56,4.56,0,0,1,1,1.37,6,6,0,0,1,.5,1.54,8.42,8.42,0,0,1,.13,1.54v10.14Zm3.44-2.44h8.79v-7.8q0-3.24-2.9-3.24H54.42Z" transform="translate(0 0)"/><path class="cls-2" d="M69.79,94.83a3.54,3.54,0,0,1,1-2.64h3.8v7.27L71.15,101V94.83Z" transform="translate(0 0)"/><path class="cls-2" d="M77.78,92.18a5.43,5.43,0,0,1,1.68-.3,9.49,9.49,0,0,1,1.93.3l1.39,3.75a8.32,8.32,0,0,1,1.13-1.86,6.11,6.11,0,0,1,1.88-1.46A5.58,5.58,0,0,1,88.4,92a9.47,9.47,0,0,1,3.65.66,6.69,6.69,0,0,1,2.58,1.85,7.85,7.85,0,0,1,1.5,2.7,10.47,10.47,0,0,1,.51,3.33A10.08,10.08,0,0,1,96,104.3a6,6,0,0,1-1.83,2.56,8,8,0,0,1-2.74,1.42,12.08,12.08,0,0,1-3.49.47,9.94,9.94,0,0,1-2.6-.49,3.23,3.23,0,0,1-.13-1,5.44,5.44,0,0,1,.7-2.41,2.91,2.91,0,0,0,.74.75,2,2,0,0,0,1,.2,5.37,5.37,0,0,0,4.09-1.51,5.42,5.42,0,0,0,1.44-3.89,8.06,8.06,0,0,0-.27-2.15,5.69,5.69,0,0,0-.85-1.75,3.68,3.68,0,0,0-1.54-1.21,5.44,5.44,0,0,0-2.29-.44,4,4,0,0,0-1.86.42A3.83,3.83,0,0,0,85,96.4a8,8,0,0,0-.94,1.65,11,11,0,0,0-.64,2c-.15.69-.29,1.43-.41,2.22s-.24,1.53-.34,2.21-.22,1.37-.33,2.07-.2,1.29-.27,1.77H78.55l1.18-10.45Z" transform="translate(0 0)"/><path class="cls-2" d="M98.51,94.83v-.26a6.09,6.09,0,0,1,0-.69,2.51,2.51,0,0,1,.2-.64,4.61,4.61,0,0,1,.5-.84h4.43v15.91h-3.44V94.83Z" transform="translate(0 0)"/><path class="cls-2" d="M107,92.18a5.53,5.53,0,0,1,1.68-.3,9.56,9.56,0,0,1,1.94.3L112,95.93a8,8,0,0,1,1.14-1.86A6.18,6.18,0,0,1,115,92.61a5.6,5.6,0,0,1,2.62-.62,9.42,9.42,0,0,1,3.64.66,6.65,6.65,0,0,1,2.59,1.85,8.2,8.2,0,0,1,1.5,2.7,10.76,10.76,0,0,1,.5,3.33,10.09,10.09,0,0,1-.64,3.77,6.11,6.11,0,0,1-1.84,2.56,7.94,7.94,0,0,1-2.74,1.42,12,12,0,0,1-3.48.47,9.8,9.8,0,0,1-2.6-.49,3.23,3.23,0,0,1-.13-1,5.54,5.54,0,0,1,.69-2.41,2.92,2.92,0,0,0,.75.75,1.94,1.94,0,0,0,1,.2,5.09,5.09,0,0,0,5.54-5.4,8.05,8.05,0,0,0-.28-2.15,5.45,5.45,0,0,0-.84-1.75,3.71,3.71,0,0,0-1.55-1.21,5.39,5.39,0,0,0-2.28-.44,4.08,4.08,0,0,0-1.87.42,3.83,3.83,0,0,0-1.35,1.09,7.58,7.58,0,0,0-.93,1.65,11,11,0,0,0-.64,2c-.15.69-.29,1.43-.41,2.22s-.24,1.53-.35,2.21-.21,1.37-.32,2.07-.2,1.29-.28,1.77h-3.54L109,97.86Z" transform="translate(0 0)"/><path class="cls-2" d="M128,94.83a3.57,3.57,0,0,1,1-2.64h3.81v7.27L129.32,101V94.83Z" transform="translate(0 0)"/><path class="cls-2" d="M135.42,94.21a3,3,0,0,1,.66-1.81H150a4.14,4.14,0,0,1-.65,2.43h-1.59v13.48h-3.45V94.83h-8.79A2.41,2.41,0,0,1,135.42,94.21Z" transform="translate(0 0)"/><path class="cls-2" d="M19.6,134.51a12.56,12.56,0,0,1,.8-4.52,10,10,0,0,1,2.31-3.57q2.47-2.51,7-2.5a9.42,9.42,0,0,1,5.8,1.61,7.79,7.79,0,0,1,2.78,4.93H35.37a7.67,7.67,0,0,0-.62-1.82,3.93,3.93,0,0,0-1-1.21,4.76,4.76,0,0,0-1.86-.92,9,9,0,0,0-2.52-.34,6.28,6.28,0,0,0-5.09,2.23,9.19,9.19,0,0,0-1.87,6.08,8.73,8.73,0,0,0,1.95,6,6.63,6.63,0,0,0,5.25,2.22,7,7,0,0,0,3.15-.67,4.64,4.64,0,0,0,2-1.91,10.12,10.12,0,0,0,1-3.12h2.94q-1,8-9.15,8a9,9,0,0,1-9.17-5.87A12.29,12.29,0,0,1,19.6,134.51Z" transform="translate(0 0)"/><path class="cls-2" d="M40.6,144.31l7.89-20.07h3.65l7.78,20.07H56.77l-2.28-6H46l-2.35,6Zm6-8.18H53.7L50.28,127Z" transform="translate(0 0)"/><path class="cls-2" d="M61,126.49v-2.25H78.36v2.25H71.1v17.82H68.27V126.49Z" transform="translate(0 0)"/><path class="cls-2" d="M81.39,144.45v-2.9h3.44v3.33a4,4,0,0,1-.83,2.7,3.15,3.15,0,0,1-2.46.92h-.15v-1.34h.14a1.33,1.33,0,0,0,1.2-.48,4,4,0,0,0,.3-1.88v-.35Z" transform="translate(0 0)"/><path class="cls-2" d="M90.09,144.31V124.24H105v2.25h-12v6.42h10.57v2.26H92.92v9.14Z" transform="translate(0 0)"/><path class="cls-2" d="M107.38,134.51a12.35,12.35,0,0,1,.8-4.52,9.85,9.85,0,0,1,2.3-3.57q2.47-2.51,7-2.5a9.45,9.45,0,0,1,5.81,1.61,7.84,7.84,0,0,1,2.78,4.93h-3a7.67,7.67,0,0,0-.62-1.82,3.93,3.93,0,0,0-1-1.21,4.76,4.76,0,0,0-1.86-.92,8.87,8.87,0,0,0-2.52-.34,6.28,6.28,0,0,0-5.09,2.23,9.18,9.18,0,0,0-1.86,6.08,8.78,8.78,0,0,0,1.94,6,6.63,6.63,0,0,0,5.25,2.22,7,7,0,0,0,3.15-.67,4.59,4.59,0,0,0,2-1.91,10.12,10.12,0,0,0,1-3.12h2.94q-1,8-9.15,8a9,9,0,0,1-9.17-5.87A12.28,12.28,0,0,1,107.38,134.51Z" transform="translate(0 0)"/><path class="cls-2" d="M130.33,144.45v-2.9h3.44v3.33a4,4,0,0,1-.83,2.7,3.15,3.15,0,0,1-2.46.92h-.15v-1.34h.14a1.33,1.33,0,0,0,1.2-.48,4,4,0,0,0,.3-1.88v-.35Z" transform="translate(0 0)"/><path class="cls-2" d="M137.75,134.51a12.56,12.56,0,0,1,.8-4.52,9.85,9.85,0,0,1,2.3-3.57q2.47-2.51,7-2.5a9.45,9.45,0,0,1,5.81,1.61,7.79,7.79,0,0,1,2.78,4.93h-2.94a7.64,7.64,0,0,0-.63-1.82,3.9,3.9,0,0,0-1-1.21,4.91,4.91,0,0,0-1.86-.92,9,9,0,0,0-2.53-.34,6.26,6.26,0,0,0-5.08,2.23,9.13,9.13,0,0,0-1.87,6.08,8.73,8.73,0,0,0,1.95,6,6.63,6.63,0,0,0,5.25,2.22,6.94,6.94,0,0,0,3.14-.67,4.59,4.59,0,0,0,2-1.91,9.85,9.85,0,0,0,1-3.12h3q-1,8-9.16,8a9.07,9.07,0,0,1-9.17-5.87A12.28,12.28,0,0,1,137.75,134.51Z" transform="translate(0 0)"/><path class="cls-2" d="M159.57,134.48a11.7,11.7,0,0,1,1-4.95,9.67,9.67,0,0,1,3-3.7,10.84,10.84,0,0,1,6.64-1.91,10.68,10.68,0,0,1,6.23,1.68,7.2,7.2,0,0,1,3,4.73h-2.83a4.77,4.77,0,0,0-2.18-3.05,7.7,7.7,0,0,0-4.27-1.11,7.5,7.5,0,0,0-5.67,2.24,8.22,8.22,0,0,0-2.14,5.93,10,10,0,0,0,.62,3.54,7.52,7.52,0,0,0,1.73,2.76,6.77,6.77,0,0,0,2.46,1.51,9.36,9.36,0,0,0,3.16.53,7.17,7.17,0,0,0,5-1.74,5.69,5.69,0,0,0,1.95-4.43V136h-6.72v-2.26h9.24v10.71H178l-.72-2.68a10.2,10.2,0,0,1-7.52,3.2,9.83,9.83,0,0,1-7.35-2.92A10.32,10.32,0,0,1,159.57,134.48Z" transform="translate(0 0)"/></svg>