<svg id="Layer_1" data-name="Layer 1" xmlns="http://www.w3.org/2000/svg" viewBox="0 0 200.75 200.75"><defs><style>.cls-1{fill:#192318;stroke:#fff;stroke-miterlimit:10;stroke-width:0.75px;}.cls-2{fill:#fff;}</style></defs><rect class="cls-1" x="0.38" y="0.38" width="200" height="200"/><path class="cls-2" d="M31.84,77.49V75.75a1,1,0,0,1,.29-.71.94.94,0,0,1,.69-.29H35a.94.94,0,0,1,.69.29,1,1,0,0,1,.29.71V80a1,1,0,0,1-.29.7.94.94,0,0,1-1.38,0A.93.93,0,0,1,34,80V79a.52.52,0,0,0-.14-.36.46.46,0,0,0-.35-.14h-.73a.92.92,0,0,1-.69-.3A1,1,0,0,1,31.84,77.49Z" transform="translate(0.38 0.38)"/><path class="cls-2" d="M38.67,81.24V79.5a.94.94,0,0,1,.29-.71.91.91,0,0,1,.69-.29H45a.91.91,0,0,1,.69.29,1,1,0,0,1,.29.71v1.74a1,1,0,0,1-.29.71.91.91,0,0,1-.69.29h-1a.49.49,0,0,0-.35.15.5.5,0,0,0-.14.35v9.88a1,1,0,0,1-1.67.71,1,1,0,0,1-.29-.71V82.74a.46.46,0,0,0-.14-.35.45.45,0,0,0-.34-.15H39.65A.91.91,0,0,1,39,82,1,1,0,0,1,38.67,81.24Z" transform="translate(0.38 0.38)"/><path class="cls-2" d="M48.44,92.5v-13a1,1,0,0,1,.29-.71.91.91,0,0,1,.69-.29,1,1,0,0,1,.69.31l7.65,7.31,2.33-2.35a.49.49,0,0,0,.14-.34v-.69a.5.5,0,0,0-.14-.35.47.47,0,0,0-.35-.15H58a.93.93,0,0,1-.7-.29,1,1,0,0,1-.28-.71V79.5a1,1,0,0,1,.28-.71.93.93,0,0,1,.7-.29H61.2a.91.91,0,0,1,.69.29,1,1,0,0,1,.29.71v4A2,2,0,0,1,61.67,85l-2.5,2.48,2.58,2.45a1.51,1.51,0,0,1,.44,1.14v1.84a.62.62,0,0,1-.68.71,1,1,0,0,1-.73-.34l-9.55-9a.45.45,0,0,0-.34-.15.47.47,0,0,0-.35.15.5.5,0,0,0-.14.35v4.63a.48.48,0,0,0,.14.35.47.47,0,0,0,.35.15h.74a.94.94,0,0,1,.69.29,1,1,0,0,1,.29.71V92.5a1,1,0,0,1-.29.7.92.92,0,0,1-.69.3H49.42a.92.92,0,0,1-.69-.3A1,1,0,0,1,48.44,92.5Z" transform="translate(0.38 0.38)"/><path class="cls-2" d="M64.61,81.24V79.5a1,1,0,0,1,.29-.71.91.91,0,0,1,.69-.29h4.15a.91.91,0,0,1,.69.29,1,1,0,0,1,.29.71v6.75a1,1,0,0,1-.29.7.94.94,0,0,1-1.38,0,1,1,0,0,1-.28-.7V82.74a.46.46,0,0,0-.14-.35.45.45,0,0,0-.35-.15H65.59A.91.91,0,0,1,64.9,82,1,1,0,0,1,64.61,81.24Z" transform="translate(0.38 0.38)"/><path class="cls-2" d="M73.15,81.24V79.5a1,1,0,0,1,.29-.71.91.91,0,0,1,.69-.29H84.88a.91.91,0,0,1,.69.29,1,1,0,0,1,.29.71V92.62a1,1,0,0,1-.29.71.94.94,0,0,1-.69.29.91.91,0,0,1-.68-.29,1,1,0,0,1-.28-.71V82.74a.47.47,0,0,0-.15-.35.45.45,0,0,0-.34-.15h-9.3a.91.91,0,0,1-.69-.29A1,1,0,0,1,73.15,81.24Z" transform="translate(0.38 0.38)"/><path class="cls-2" d="M88.29,92.5v-13a1,1,0,0,1,.29-.71.91.91,0,0,1,.69-.29h2a.91.91,0,0,1,.69.29,1,1,0,0,1,.29.71v1.74a1,1,0,0,1-.29.71.91.91,0,0,1-.69.29h-.49a.49.49,0,0,0-.35.15.5.5,0,0,0-.14.35v6.51a.5.5,0,0,0,.49.5H100a.45.45,0,0,0,.35-.15.48.48,0,0,0,.14-.35V82.74a.5.5,0,0,0-.14-.35.45.45,0,0,0-.35-.15h-.91a2.93,2.93,0,0,0-1.7.53l-1.92,1a.6.6,0,0,1-.69.06.77.77,0,0,1-.26-.68V81.24a2,2,0,0,1,.16-.87,1.36,1.36,0,0,1,.55-.57L96.6,79a3.34,3.34,0,0,1,1.71-.52h3.18a.91.91,0,0,1,.69.29.94.94,0,0,1,.29.71v13a.93.93,0,0,1-.29.7.92.92,0,0,1-.69.3H89.27a.92.92,0,0,1-.69-.3A1,1,0,0,1,88.29,92.5Z" transform="translate(0.38 0.38)"/><path class="cls-2" d="M114.68,92.5V90.75A1,1,0,0,1,115,90a1,1,0,0,1,.7-.29h1.71a.47.47,0,0,0,.35-.15.45.45,0,0,0,.14-.35V82.74a.46.46,0,0,0-.14-.35.47.47,0,0,0-.35-.15h-1.71A.91.91,0,0,1,115,82a1,1,0,0,1-.28-.71V79.5a1,1,0,0,1,.28-.71.91.91,0,0,1,.7-.29h3.18a.91.91,0,0,1,.69.29,1,1,0,0,1,.28.71v9.75a.48.48,0,0,0,.14.35.47.47,0,0,0,.35.15h5.62a.45.45,0,0,0,.34-.15.45.45,0,0,0,.15-.35V82.74a.47.47,0,0,0-.15-.35.45.45,0,0,0-.34-.15h-1.71a.91.91,0,0,1-.69-.29,1,1,0,0,1-.29-.71V79.5a1,1,0,0,1,.29-.71.91.91,0,0,1,.69-.29h3.17a.91.91,0,0,1,.7.29,1,1,0,0,1,.28.71v13a1,1,0,0,1-.28.7.92.92,0,0,1-.7.3H115.66a.92.92,0,0,1-.7-.3A1,1,0,0,1,114.68,92.5Z" transform="translate(0.38 0.38)"/><path class="cls-2" d="M130.8,81.24V79.5a1,1,0,0,1,.28-.71.91.91,0,0,1,.7-.29h4.15a.91.91,0,0,1,.69.29,1,1,0,0,1,.29.71V92.62a1,1,0,0,1-.29.71,1,1,0,0,1-1.38,0,1,1,0,0,1-.28-.71V82.74a.5.5,0,0,0-.14-.35.47.47,0,0,0-.35-.15h-2.69a.91.91,0,0,1-.7-.29A1,1,0,0,1,130.8,81.24Z" transform="translate(0.38 0.38)"/><path class="cls-2" d="M139.34,81.24V79.5a1,1,0,0,1,.29-.71.91.91,0,0,1,.69-.29h2.93a.94.94,0,0,1,.7.29,1,1,0,0,1,.28.71v4.29a.47.47,0,0,0,.25.44l2.93,1.64,2.93-1.74a.44.44,0,0,0,.24-.42v-1a.5.5,0,0,0-.14-.35.43.43,0,0,0-.34-.15h-1.47a.91.91,0,0,1-.69-.29,1,1,0,0,1-.28-.71V79.5a1,1,0,0,1,.28-.71.91.91,0,0,1,.69-.29h2.93a.91.91,0,0,1,.69.29,1,1,0,0,1,.29.71v4.4a2.52,2.52,0,0,1-.22,1.09,2,2,0,0,1-.77.77L149.46,87l2.6,1.46a.92.92,0,0,1,.48.85V92.5a1,1,0,0,1-.29.7.92.92,0,0,1-.69.3H140.81a.92.92,0,0,1-.69-.3.93.93,0,0,1-.29-.7V90.75a1,1,0,0,1,1-1h7.38c.23,0,.37-.08.4-.25s-.05-.31-.25-.43l-5.07-2.71a1.89,1.89,0,0,1-.77-.77,2.41,2.41,0,0,1-.22-1.09V82.74a.47.47,0,0,0-.15-.35.45.45,0,0,0-.34-.15h-1.47a.91.91,0,0,1-.69-.29A1,1,0,0,1,139.34,81.24Z" transform="translate(0.38 0.38)"/><path class="cls-2" d="M155,81.24V79.5a1,1,0,0,1,.29-.71.91.91,0,0,1,.69-.29h4.15a.91.91,0,0,1,.69.29,1,1,0,0,1,.29.71v6.75a1,1,0,0,1-.29.7.92.92,0,0,1-.69.3.88.88,0,0,1-.68-.3,1,1,0,0,1-.28-.7V82.74a.47.47,0,0,0-.15-.35.45.45,0,0,0-.34-.15H156a.91.91,0,0,1-.69-.29A1,1,0,0,1,155,81.24Z" transform="translate(0.38 0.38)"/><path class="cls-2" d="M163.51,92.5V90.75a1,1,0,0,1,.29-.71.94.94,0,0,1,.69-.29h9a.45.45,0,0,0,.34-.15.45.45,0,0,0,.15-.35V82.74a.47.47,0,0,0-.15-.35.45.45,0,0,0-.34-.15h-9a.91.91,0,0,1-.69-.29,1,1,0,0,1-.29-.71V79.5a1,1,0,0,1,.29-.71.91.91,0,0,1,.69-.29H175a.91.91,0,0,1,.69.29,1,1,0,0,1,.28.71v9.75a.45.45,0,0,0,.15.35.45.45,0,0,0,.34.15h.73a.94.94,0,0,1,.69.29,1,1,0,0,1,.29.71V92.5a1,1,0,0,1-.29.7.92.92,0,0,1-.69.3H164.49a.92.92,0,0,1-.69-.3A1,1,0,0,1,163.51,92.5Z" transform="translate(0.38 0.38)"/><path class="cls-2" d="M21.21,111.24V109.5a1,1,0,0,1,.28-.71.91.91,0,0,1,.69-.29h4.16a.91.91,0,0,1,.69.29,1,1,0,0,1,.29.71v6.75A1,1,0,0,1,27,117a1,1,0,0,1-1.38,0,1,1,0,0,1-.28-.71v-3.51a.52.52,0,0,0-.14-.35.47.47,0,0,0-.35-.15h-2.7a.91.91,0,0,1-.69-.29A1,1,0,0,1,21.21,111.24Z" transform="translate(0.38 0.38)"/><path class="cls-2" d="M29.75,122.5v-1.75a1,1,0,0,1,1-1h4.4a.47.47,0,0,0,.35-.15.48.48,0,0,0,.14-.35v-6.51a.52.52,0,0,0-.14-.35.47.47,0,0,0-.35-.15H32.2a.91.91,0,0,1-.7-.29,1,1,0,0,1-.28-.71V109.5a1,1,0,0,1,.28-.71.91.91,0,0,1,.7-.29h4.4a.91.91,0,0,1,.69.29,1,1,0,0,1,.29.71v13a1,1,0,0,1-.29.71.94.94,0,0,1-.69.29H30.73a.94.94,0,0,1-.69-.29A1,1,0,0,1,29.75,122.5Z" transform="translate(0.38 0.38)"/><path class="cls-2" d="M40,111.24V109.5a1,1,0,0,1,.29-.71.91.91,0,0,1,.69-.29h4.15a.91.91,0,0,1,.69.29.94.94,0,0,1,.29.71v13.12a1,1,0,0,1-1,1,.91.91,0,0,1-.68-.29,1,1,0,0,1-.28-.71v-9.88a.49.49,0,0,0-.15-.35.45.45,0,0,0-.34-.15H41a.91.91,0,0,1-.69-.29A1,1,0,0,1,40,111.24Z" transform="translate(0.38 0.38)"/><path class="cls-2" d="M48.55,122.5v-13a1,1,0,0,1,.29-.71.91.91,0,0,1,.69-.29h2a.91.91,0,0,1,.69.29,1,1,0,0,1,.29.71v1.74a1,1,0,0,1-.29.71.91.91,0,0,1-.69.29H51a.49.49,0,0,0-.35.15.52.52,0,0,0-.14.35v6.51a.5.5,0,0,0,.49.5H61.75a.47.47,0,0,0,.35-.15.48.48,0,0,0,.14-.35v-6.51a.52.52,0,0,0-.14-.35.47.47,0,0,0-.35-.15h-.49a.91.91,0,0,1-.69-.29,1,1,0,0,1-.29-.71V109.5a1,1,0,0,1,.29-.71.91.91,0,0,1,.69-.29h2a.91.91,0,0,1,.69.29,1,1,0,0,1,.29.71v13a1,1,0,0,1-.29.71.94.94,0,0,1-.69.29H49.53a.94.94,0,0,1-.69-.29A1,1,0,0,1,48.55,122.5Zm5.87-11.26V109.5a1,1,0,0,1,.29-.71.91.91,0,0,1,.69-.29h2a.91.91,0,0,1,.69.29,1,1,0,0,1,.29.71v6.75a1,1,0,0,1-.29.71,1,1,0,0,1-1.38,0,1,1,0,0,1-.29-.71v-3.51a.52.52,0,0,0-.14-.35.47.47,0,0,0-.35-.15H55.4a.91.91,0,0,1-.69-.29A1,1,0,0,1,54.42,111.24Z" transform="translate(0.38 0.38)"/><path class="cls-2" d="M66.63,122.5v-13a1,1,0,0,1,.29-.71.91.91,0,0,1,.69-.29,1,1,0,0,1,.69.31L76,116.12l2.33-2.35a.49.49,0,0,0,.14-.34v-.69a.52.52,0,0,0-.14-.35.47.47,0,0,0-.35-.15H76.17a.91.91,0,0,1-.7-.29,1,1,0,0,1-.28-.71V109.5a1,1,0,0,1,.28-.71.91.91,0,0,1,.7-.29h3.22a.91.91,0,0,1,.69.29,1,1,0,0,1,.29.71v4a2,2,0,0,1-.51,1.48l-2.5,2.48,2.58,2.45a1.51,1.51,0,0,1,.44,1.14v1.84a.62.62,0,0,1-.68.71,1,1,0,0,1-.73-.34l-9.55-9a.45.45,0,0,0-.34-.15.47.47,0,0,0-.35.15.52.52,0,0,0-.14.35v4.63a.48.48,0,0,0,.14.35.47.47,0,0,0,.35.15h.74a.94.94,0,0,1,.69.29,1,1,0,0,1,.29.71v1.75a1,1,0,0,1-.29.71.94.94,0,0,1-.69.29H67.61a.94.94,0,0,1-.69-.29A1,1,0,0,1,66.63,122.5Z" transform="translate(0.38 0.38)"/><path class="cls-2" d="M82.8,111.24V109.5a1,1,0,0,1,.29-.71.91.91,0,0,1,.69-.29H94.53a.91.91,0,0,1,.69.29,1,1,0,0,1,.29.71v13.12a1,1,0,0,1-.29.71,1,1,0,0,1-1.38,0,1,1,0,0,1-.28-.71v-9.88a.52.52,0,0,0-.14-.35.47.47,0,0,0-.35-.15H83.78a.91.91,0,0,1-.69-.29A1,1,0,0,1,82.8,111.24Z" transform="translate(0.38 0.38)"/><path class="cls-2" d="M107.71,111.24V102a1,1,0,0,1,.29-.71.94.94,0,0,1,.69-.29h2a.94.94,0,0,1,.69.29,1,1,0,0,1,.29.71v1.75a1,1,0,0,1-.29.71.94.94,0,0,1-.69.29h-.49a.5.5,0,0,0-.35.14.52.52,0,0,0-.14.36V108a.52.52,0,0,0,.14.35.47.47,0,0,0,.35.15h10a.94.94,0,0,1,.7.29,1,1,0,0,1,.28.71v13a1,1,0,0,1-.28.71,1,1,0,0,1-.7.29H114.8a.94.94,0,0,1-.69-.29,1,1,0,0,1-.29-.71v-1.75a1,1,0,0,1,.29-.71.94.94,0,0,1,.69-.29h3.92a.45.45,0,0,0,.34-.15.45.45,0,0,0,.15-.35v-6.51a.49.49,0,0,0-.15-.35.45.45,0,0,0-.34-.15h-10A.91.91,0,0,1,108,112,1,1,0,0,1,107.71,111.24Z" transform="translate(0.38 0.38)"/><path class="cls-2" d="M123.6,111.24V109.5a1,1,0,0,1,.28-.71.91.91,0,0,1,.69-.29h4.16a.91.91,0,0,1,.69.29,1,1,0,0,1,.29.71v13.12a1,1,0,0,1-.29.71,1,1,0,0,1-1.38,0,1,1,0,0,1-.28-.71v-9.88a.52.52,0,0,0-.14-.35.47.47,0,0,0-.35-.15h-2.7a.91.91,0,0,1-.69-.29A1,1,0,0,1,123.6,111.24Z" transform="translate(0.38 0.38)"/><path class="cls-2" d="M132.14,122.5v-1.75a1,1,0,0,1,1-1h9.53a.47.47,0,0,0,.35-.15.48.48,0,0,0,.14-.35v-6.51a.52.52,0,0,0-.14-.35.47.47,0,0,0-.35-.15h-8.07a.45.45,0,0,0-.34.15.47.47,0,0,0-.14.35v.91a.46.46,0,0,0,.14.35.45.45,0,0,0,.34.15h.75a1,1,0,0,1,.69.29,1,1,0,0,1,.28.71v1.74a1,1,0,0,1-.28.71.92.92,0,0,1-.69.29h-2.21a.91.91,0,0,1-.69-.29.94.94,0,0,1-.29-.71V109.5a.94.94,0,0,1,.29-.71.91.91,0,0,1,.69-.29h11a.91.91,0,0,1,.69.29,1,1,0,0,1,.29.71v13a1,1,0,0,1-.29.71.94.94,0,0,1-.69.29h-11a.94.94,0,0,1-.69-.29A1,1,0,0,1,132.14,122.5Z" transform="translate(0.38 0.38)"/><path class="cls-2" d="M147.53,111.24V109.5a1,1,0,0,1,.29-.71.91.91,0,0,1,.69-.29h4.15a.91.91,0,0,1,.69.29,1,1,0,0,1,.29.71v6.75a1,1,0,0,1-.29.71.94.94,0,0,1-.69.29A.91.91,0,0,1,152,117a1,1,0,0,1-.28-.71v-3.51a.49.49,0,0,0-.15-.35.45.45,0,0,0-.34-.15h-2.7a.91.91,0,0,1-.69-.29A1,1,0,0,1,147.53,111.24Z" transform="translate(0.38 0.38)"/><path class="cls-2" d="M156.07,122.5v-13a1,1,0,0,1,.29-.71.91.91,0,0,1,.69-.29h2a.91.91,0,0,1,.69.29,1,1,0,0,1,.29.71v1.74a1,1,0,0,1-.29.71.91.91,0,0,1-.69.29h-.49a.47.47,0,0,0-.35.15.52.52,0,0,0-.14.35v6.51a.48.48,0,0,0,.14.35.47.47,0,0,0,.35.15h9.28a.47.47,0,0,0,.35-.15.45.45,0,0,0,.14-.35v-6.51a.47.47,0,0,0-.14-.35.47.47,0,0,0-.35-.15h-.92a2.92,2.92,0,0,0-1.69.53l-1.92,1a.6.6,0,0,1-.69.06.77.77,0,0,1-.26-.68v-1.93a2,2,0,0,1,.16-.87,1.36,1.36,0,0,1,.55-.57l1.35-.78a3.34,3.34,0,0,1,1.71-.52h3.18a.91.91,0,0,1,.69.29,1,1,0,0,1,.29.71v13a1,1,0,0,1-.29.71.94.94,0,0,1-.69.29H157.05a.94.94,0,0,1-.69-.29A1,1,0,0,1,156.07,122.5Z" transform="translate(0.38 0.38)"/><path class="cls-2" d="M172.68,111.24V109.5a1,1,0,0,1,.29-.71.91.91,0,0,1,.69-.29h4.16a.91.91,0,0,1,.69.29,1,1,0,0,1,.28.71v13.12a1,1,0,0,1-.28.71.94.94,0,0,1-.69.29.93.93,0,0,1-.69-.29,1,1,0,0,1-.28-.71v-9.88a.52.52,0,0,0-.14-.35.47.47,0,0,0-.35-.15h-2.7A.91.91,0,0,1,173,112,1,1,0,0,1,172.68,111.24Z" transform="translate(0.38 0.38)"/></svg>