<svg id="Layer_1" data-name="Layer 1" xmlns="http://www.w3.org/2000/svg" viewBox="0 0 200 200"><defs><style>.cls-1{fill:#192318;}.cls-2{fill:#fff;}</style></defs><rect class="cls-1" width="200" height="200"/><path class="cls-2" d="M20.7,31.15a1.7,1.7,0,0,1,.63-1.34,5.8,5.8,0,0,0,1.38.28,1.47,1.47,0,0,0,1.05-.45,2.36,2.36,0,0,0,.59-.84V20.69H22.41a2.18,2.18,0,0,1-.07-.61A1.82,1.82,0,0,1,23,18.67h9.45a4.26,4.26,0,0,1,2.49.66,4.77,4.77,0,0,1,2.17,4.23v8.36H34.24v-8.6a3.76,3.76,0,0,0-.91-1.63,3.39,3.39,0,0,0-1.6-1H27.22v8.63a2.84,2.84,0,0,1-1.85,2.36,7.94,7.94,0,0,1-2.3.44A5.68,5.68,0,0,1,21.83,32a4.63,4.63,0,0,1-1.09-.33A2.52,2.52,0,0,1,20.7,31.15Z" transform="translate(0 0)"/><path class="cls-2" d="M39.17,20.69v-.21a4.3,4.3,0,0,1,0-.58,2.16,2.16,0,0,1,.16-.53,4.61,4.61,0,0,1,.42-.7h3.69V31.92H40.6V20.69Z" transform="translate(0 0)"/><path class="cls-2" d="M46.39,20.69a2.93,2.93,0,0,1,.83-2.2h3.17v6.06l-2.87,1.32V20.69Z" transform="translate(0 0)"/><path class="cls-2" d="M53,20.69v-.21c0-.25,0-.44,0-.58a2.26,2.26,0,0,1,.17-.53,3.4,3.4,0,0,1,.42-.7h3.69V31.92H54.42V20.69Z" transform="translate(0 0)"/><path class="cls-2" d="M59.59,34.25a3.29,3.29,0,0,1,1.26-2.66l3.58-1.17-2.85-9.73H60.05a.62.62,0,0,1,0-.22,4.07,4.07,0,0,1,.15-1,1.29,1.29,0,0,1,.47-.77H64l3.13,10.69c.2-.07.41-.16.65-.27a9.68,9.68,0,0,0,.94-.55,6.88,6.88,0,0,0,1.05-.8,4.27,4.27,0,0,0,.8-1.07,2.66,2.66,0,0,0,.34-1.3V20.69H69.51v-.17a3.55,3.55,0,0,1,.2-1.08,1.14,1.14,0,0,1,.57-.77h3.49v5.81a7.9,7.9,0,0,1-.82,3.6,5.72,5.72,0,0,1-2.39,2.5L59.67,34.89A2.87,2.87,0,0,1,59.59,34.25Z" transform="translate(0 0)"/><path class="cls-2" d="M76.25,18.48a4.73,4.73,0,0,1,1.4-.24,8.34,8.34,0,0,1,1.62.24l1.15,3.13a6.58,6.58,0,0,1,1-1.55,5.08,5.08,0,0,1,1.56-1.22,4.65,4.65,0,0,1,2.18-.52,7.76,7.76,0,0,1,3,.56,5.49,5.49,0,0,1,2.16,1.54,6.69,6.69,0,0,1,1.25,2.25A8.79,8.79,0,0,1,92,25.44a8.36,8.36,0,0,1-.54,3.14,5.06,5.06,0,0,1-1.53,2.14,6.68,6.68,0,0,1-2.28,1.18,10,10,0,0,1-2.9.39,8.08,8.08,0,0,1-2.17-.41,2.54,2.54,0,0,1-.11-.8,4.51,4.51,0,0,1,.58-2,2.4,2.4,0,0,0,.62.62,1.72,1.72,0,0,0,.85.17,4.24,4.24,0,0,0,4.61-4.5,6.69,6.69,0,0,0-.23-1.79,4.81,4.81,0,0,0-.7-1.46,3.19,3.19,0,0,0-1.29-1A4.55,4.55,0,0,0,85,20.74a3.43,3.43,0,0,0-1.55.35,3.27,3.27,0,0,0-1.13.91,6.4,6.4,0,0,0-.78,1.38A9.44,9.44,0,0,0,81,25c-.13.57-.24,1.18-.34,1.84s-.2,1.28-.29,1.85-.18,1.14-.27,1.72-.17,1.08-.23,1.47H76.9l1-8.7Z" transform="translate(0 0)"/><path class="cls-2" d="M93.6,20.09a1.84,1.84,0,0,1,.75-1.42h3.27v7a5.36,5.36,0,0,0,3-.71,2.07,2.07,0,0,0,1.06-1.75V20.69h-1a2.25,2.25,0,0,1-.15-.82,1.44,1.44,0,0,1,.74-1.2h3.09v4.69a3.13,3.13,0,0,1-.8,2,5.92,5.92,0,0,1-2.24,1.6,7.64,7.64,0,0,1-3.1.63,5.7,5.7,0,0,0,2,1.82,6,6,0,0,0,2.71.54,8.65,8.65,0,0,0,1.89-.19,5.18,5.18,0,0,0,1.46-.54,5.66,5.66,0,0,0,1.07-.75,4,4,0,0,0,.73-.89,4.08,4.08,0,0,0,.39-.91,2.82,2.82,0,0,0,.13-.84V20.69h-1.16a5.11,5.11,0,0,1,0-.58,1.86,1.86,0,0,1,.72-1.44h3.35V26.1a4.05,4.05,0,0,1-.38,1.62,6.38,6.38,0,0,1-1.15,1.68,10,10,0,0,1-1.78,1.48,9.13,9.13,0,0,1-2.4,1.07,10.2,10.2,0,0,1-2.89.41A10.35,10.35,0,0,1,100,32a8.06,8.06,0,0,1-2.27-1,7.5,7.5,0,0,1-1.62-1.5,6.13,6.13,0,0,1-1-1.79,5.54,5.54,0,0,1-.34-1.91V20.69h-1A3.87,3.87,0,0,1,93.6,20.09Z" transform="translate(0 0)"/><path class="cls-2" d="M113.86,18.48a4.68,4.68,0,0,1,1.4-.24,8.26,8.26,0,0,1,1.61.24L118,21.61a6.58,6.58,0,0,1,1-1.55,5.08,5.08,0,0,1,1.56-1.22,4.71,4.71,0,0,1,2.18-.52,7.85,7.85,0,0,1,3,.56,5.52,5.52,0,0,1,2.15,1.54,6.52,6.52,0,0,1,1.25,2.25,8.79,8.79,0,0,1,.42,2.77,8.57,8.57,0,0,1-.53,3.14,5.23,5.23,0,0,1-1.53,2.14,6.82,6.82,0,0,1-2.29,1.18,9.93,9.93,0,0,1-2.9.39,8.14,8.14,0,0,1-2.17-.41,2.86,2.86,0,0,1-.11-.8,4.64,4.64,0,0,1,.58-2,2.56,2.56,0,0,0,.62.62,1.72,1.72,0,0,0,.85.17,4.24,4.24,0,0,0,4.61-4.5,6.69,6.69,0,0,0-.23-1.79,4.59,4.59,0,0,0-.7-1.46,3.06,3.06,0,0,0-1.29-1,4.51,4.51,0,0,0-1.9-.37,3.44,3.44,0,0,0-1.56.35,3.23,3.23,0,0,0-1.12.91,6.4,6.4,0,0,0-.78,1.38,9.47,9.47,0,0,0-.54,1.66c-.12.57-.24,1.18-.34,1.84s-.2,1.28-.29,1.85-.17,1.14-.26,1.72-.17,1.08-.23,1.47h-3l1-8.7Z" transform="translate(0 0)"/><path class="cls-2" d="M138.8,20.69s0-.18.07-.44.07-.43.1-.54a4,4,0,0,1,.18-.48,2.23,2.23,0,0,1,.36-.56H143v19h-2.87v-17Z" transform="translate(0 0)"/><path class="cls-2" d="M145.46,31.15a1.7,1.7,0,0,1,.63-1.34,5.89,5.89,0,0,0,1.38.28,1.47,1.47,0,0,0,1.05-.45,2.24,2.24,0,0,0,.59-.84V20.69h-1.94a2.63,2.63,0,0,1-.07-.61,1.83,1.83,0,0,1,.67-1.41h9.44a4.3,4.3,0,0,1,2.5.66,4.79,4.79,0,0,1,2.17,4.23v8.36H159v-8.6a3.78,3.78,0,0,0-.92-1.63,3.39,3.39,0,0,0-1.6-1H152v8.63a2.84,2.84,0,0,1-1.85,2.36,7.89,7.89,0,0,1-2.3.44,5.76,5.76,0,0,1-1.24-.16,4.79,4.79,0,0,1-1.09-.33A2.52,2.52,0,0,1,145.46,31.15Z" transform="translate(0 0)"/><path class="cls-2" d="M164,18.48a4.73,4.73,0,0,1,1.4-.24,8.34,8.34,0,0,1,1.62.24l1.15,3.13a6.58,6.58,0,0,1,1-1.55,5.08,5.08,0,0,1,1.56-1.22,4.68,4.68,0,0,1,2.18-.52,7.76,7.76,0,0,1,3,.56A5.49,5.49,0,0,1,178,20.42a6.69,6.69,0,0,1,1.25,2.25,8.79,8.79,0,0,1,.42,2.77,8.36,8.36,0,0,1-.54,3.14,5.06,5.06,0,0,1-1.53,2.14,6.68,6.68,0,0,1-2.28,1.18,10,10,0,0,1-2.9.39,8.08,8.08,0,0,1-2.17-.41,2.54,2.54,0,0,1-.11-.8,4.51,4.51,0,0,1,.58-2,2.4,2.4,0,0,0,.62.62,1.72,1.72,0,0,0,.85.17,4.24,4.24,0,0,0,4.61-4.5,6.69,6.69,0,0,0-.23-1.79,4.59,4.59,0,0,0-.7-1.46,3.19,3.19,0,0,0-1.29-1,4.52,4.52,0,0,0-1.91-.37,3.43,3.43,0,0,0-1.55.35A3.15,3.15,0,0,0,170,22a6,6,0,0,0-.79,1.38,9.44,9.44,0,0,0-.53,1.66c-.13.57-.24,1.18-.34,1.84s-.2,1.28-.29,1.85-.18,1.14-.27,1.72-.17,1.08-.23,1.47h-3l1-8.7Z" transform="translate(0 0)"/><path class="cls-2" d="M15.09,61.15a1.7,1.7,0,0,1,.63-1.34,5.89,5.89,0,0,0,1.38.28,1.44,1.44,0,0,0,1-.45,2.24,2.24,0,0,0,.59-.84V50.69H16.8a2.68,2.68,0,0,1-.06-.61,1.82,1.82,0,0,1,.66-1.41h9.45a4.26,4.26,0,0,1,2.49.66,4.77,4.77,0,0,1,2.17,4.23v8.36H28.64v-8.6a3.78,3.78,0,0,0-.92-1.63,3.34,3.34,0,0,0-1.6-1H21.61v8.63a2.82,2.82,0,0,1-1.85,2.36,7.89,7.89,0,0,1-2.3.44A5.76,5.76,0,0,1,16.22,62a5,5,0,0,1-1.09-.33A2.52,2.52,0,0,1,15.09,61.15Z" transform="translate(0 0)"/><path class="cls-2" d="M33.57,50.69v-.21c0-.25,0-.44,0-.58a2.26,2.26,0,0,1,.17-.53,3.4,3.4,0,0,1,.42-.7h3.69V61.92H35V50.69Z" transform="translate(0 0)"/><path class="cls-2" d="M40.66,50.09a1.84,1.84,0,0,1,.75-1.42h3.26v7a5.37,5.37,0,0,0,3-.71,2.07,2.07,0,0,0,1.06-1.75V50.69h-1a2.25,2.25,0,0,1-.15-.82,1.44,1.44,0,0,1,.74-1.2h3.09v4.69a3.13,3.13,0,0,1-.8,2A5.92,5.92,0,0,1,48.32,57a7.64,7.64,0,0,1-3.1.63,5.7,5.7,0,0,0,2,1.82,6,6,0,0,0,2.71.54,8.65,8.65,0,0,0,1.89-.19,5.47,5.47,0,0,0,2.52-1.29,3.76,3.76,0,0,0,.74-.89,4.08,4.08,0,0,0,.39-.91,2.82,2.82,0,0,0,.13-.84V50.69H54.43a5.11,5.11,0,0,1,0-.58,1.86,1.86,0,0,1,.72-1.44h3.35V56.1a4.05,4.05,0,0,1-.38,1.62,6.38,6.38,0,0,1-1.15,1.68,10,10,0,0,1-1.78,1.48A9.13,9.13,0,0,1,52.75,62a10.2,10.2,0,0,1-2.89.41A10.35,10.35,0,0,1,47,62a8.06,8.06,0,0,1-2.27-1,7.5,7.5,0,0,1-1.62-1.5,6.41,6.41,0,0,1-1-1.79,5.77,5.77,0,0,1-.33-1.91V50.69h-1A3.87,3.87,0,0,1,40.66,50.09Z" transform="translate(0 0)"/><path class="cls-2" d="M61.05,50.69a3,3,0,0,1,.83-2.2h3.17v6.06l-2.87,1.32V50.69Z" transform="translate(0 0)"/><path class="cls-2" d="M67.47,50.21a2.43,2.43,0,0,1,.58-1.54h4.43a9.62,9.62,0,0,1,3.64.54,4.19,4.19,0,0,1,2,1.75,3.25,3.25,0,0,1,.57,1.39A17.78,17.78,0,0,1,78.81,55v6.94H75.94V54a3.14,3.14,0,0,0-3.31-3.31H67.52A1.77,1.77,0,0,1,67.47,50.21Z" transform="translate(0 0)"/><path class="cls-2" d="M80.62,50.17a2.51,2.51,0,0,1,.55-1.5H92.79a3.36,3.36,0,0,1-.55,2H90.92V61.92H88.05V50.69H80.72A1.84,1.84,0,0,1,80.62,50.17Z" transform="translate(0 0)"/><path class="cls-2" d="M96,62V59.63h2.87V62.4a3.26,3.26,0,0,1-.7,2.25,2.61,2.61,0,0,1-2,.76H96V64.3h.12a1.08,1.08,0,0,0,1-.4,3.23,3.23,0,0,0,.26-1.56V62Z" transform="translate(0 0)"/><path class="cls-2" d="M101.82,61.15a1.7,1.7,0,0,1,.63-1.34,5.89,5.89,0,0,0,1.38.28,1.46,1.46,0,0,0,1-.45,2.24,2.24,0,0,0,.59-.84V50.69h-1.94a2.63,2.63,0,0,1-.07-.61,1.83,1.83,0,0,1,.67-1.41h9.45a4.29,4.29,0,0,1,2.49.66,4.79,4.79,0,0,1,2.17,4.23v8.36h-2.87v-8.6a3.78,3.78,0,0,0-.92-1.63,3.34,3.34,0,0,0-1.6-1h-4.51v8.63a2.82,2.82,0,0,1-1.85,2.36,7.89,7.89,0,0,1-2.3.44A5.76,5.76,0,0,1,103,62a4.79,4.79,0,0,1-1.09-.33A2.52,2.52,0,0,1,101.82,61.15Z" transform="translate(0 0)"/><path class="cls-2" d="M120.3,50.69v-.21c0-.25,0-.44,0-.58a2.26,2.26,0,0,1,.17-.53,3.4,3.4,0,0,1,.42-.7h3.69V61.92h-2.87V50.69Z" transform="translate(0 0)"/><path class="cls-2" d="M127.51,50.69a3,3,0,0,1,.83-2.2h3.17v6.06l-2.87,1.32V50.69Z" transform="translate(0 0)"/><path class="cls-2" d="M134.41,48.49h3.68a70,70,0,0,1,5.41,6c.95-.39,1.42-1.51,1.42-3.38v-.45H143.7a3.45,3.45,0,0,1,.66-2.2h3.42c0,.13,0,.36,0,.68v.73a13.16,13.16,0,0,1-.09,1.62,9.76,9.76,0,0,1-.36,1.59,5.06,5.06,0,0,1-.86,1.68A6.46,6.46,0,0,1,145,56.2a44.89,44.89,0,0,1,4,5.72h-3.22a52.13,52.13,0,0,0-6-7.49,5.59,5.59,0,0,0-2,2.38,7.25,7.25,0,0,0-.75,3.09h1a2.94,2.94,0,0,1,.29,1.45,5.1,5.1,0,0,1,0,.57h-3.89a22.51,22.51,0,0,1,.12-2.42,15.61,15.61,0,0,1,.3-1.92,8.15,8.15,0,0,1,.49-1.54,9.13,9.13,0,0,1,.6-1.18,6.75,6.75,0,0,1,.74-.94,10.47,10.47,0,0,1,.79-.76q.34-.28.87-.66A43.59,43.59,0,0,0,134.41,48.49Z" transform="translate(0 0)"/><path class="cls-2" d="M150.66,50.69v-.21a4.3,4.3,0,0,1,0-.58,2.16,2.16,0,0,1,.16-.53,4.61,4.61,0,0,1,.42-.7H155V61.92h-2.87V50.69Z" transform="translate(0 0)"/><path class="cls-2" d="M158.47,61.92a2.81,2.81,0,0,1,.61-2h6.48A3.07,3.07,0,0,0,168,58.45a5.72,5.72,0,0,0,1.1-3.56,5.94,5.94,0,0,0-.7-3,2.29,2.29,0,0,0-2.1-1.18h-4.91v3a1.39,1.39,0,0,0,1.36,1.1,4.89,4.89,0,0,0,.63-.06l.49-.06a1.42,1.42,0,0,1,.17.7,2.34,2.34,0,0,1-.17.8,9.37,9.37,0,0,1-1.75.18,3.36,3.36,0,0,1-3.6-2.55V48.67H167a5.09,5.09,0,0,1,1.7.27,3.87,3.87,0,0,1,1.3.77,5.78,5.78,0,0,1,.92,1.11,5.1,5.1,0,0,1,.61,1.34,11.45,11.45,0,0,1,.32,1.42,9.42,9.42,0,0,1,.1,1.4,7.37,7.37,0,0,1-.78,3.26A7.24,7.24,0,0,1,169,60.88a4.94,4.94,0,0,1-3,1Z" transform="translate(0 0)"/><path class="cls-2" d="M173.33,50.21a2.48,2.48,0,0,1,.58-1.54h4.44a9.65,9.65,0,0,1,3.64.54A4.23,4.23,0,0,1,184,51a3.25,3.25,0,0,1,.57,1.39,17.78,17.78,0,0,1,.13,2.63v6.94h-2.87V54a3.14,3.14,0,0,0-3.31-3.31h-5.11A1.75,1.75,0,0,1,173.33,50.21Z" transform="translate(0 0)"/><path class="cls-2" d="M20.05,80.69a3,3,0,0,1,.83-2.2h3.17v6.06l-2.87,1.32V80.69Z" transform="translate(0 0)"/><path class="cls-2" d="M25.7,75.12A3.36,3.36,0,0,1,25.87,74a1.82,1.82,0,0,1,.7-.87h3.25v5.65h8.86V81L33.43,91.92H30.31l5.21-11.14H27.18V75.12Z" transform="translate(0 0)"/><path class="cls-2" d="M41,80.69v-.21a4.3,4.3,0,0,1,0-.58,1.8,1.8,0,0,1,.16-.53,3.4,3.4,0,0,1,.42-.7h3.69V91.92H42.45V80.69Z" transform="translate(0 0)"/><path class="cls-2" d="M48.83,91.92a2.85,2.85,0,0,1,.6-2h6.49a3.07,3.07,0,0,0,2.39-1.45,5.72,5.72,0,0,0,1.1-3.56,5.94,5.94,0,0,0-.7-3,2.29,2.29,0,0,0-2.11-1.18H51.7v3a1.39,1.39,0,0,0,1.36,1.1,4.89,4.89,0,0,0,.63-.06l.49-.06a1.54,1.54,0,0,1,.17.7,2.61,2.61,0,0,1-.17.8,9.45,9.45,0,0,1-1.75.18,3.36,3.36,0,0,1-3.6-2.55V78.67h8.5a5.09,5.09,0,0,1,1.7.27,4,4,0,0,1,1.3.77,5.78,5.78,0,0,1,.92,1.11,5.45,5.45,0,0,1,.61,1.34,11.45,11.45,0,0,1,.32,1.42,11,11,0,0,1,.1,1.4,7.37,7.37,0,0,1-.78,3.26,7.24,7.24,0,0,1-2.17,2.64,4.94,4.94,0,0,1-3,1Z" transform="translate(0 0)"/><path class="cls-2" d="M64.07,80.69a3,3,0,0,1,.83-2.2h3.17v6.06L65.2,85.87V80.69Z" transform="translate(0 0)"/><path class="cls-2" d="M70.73,80.69a3.24,3.24,0,0,1,.69-2.22h3.37v8.8a2.59,2.59,0,0,0,.37,1.38,2.73,2.73,0,0,0,1,1,5.44,5.44,0,0,0,1.22.58,5.59,5.59,0,0,0,1.25.27,4.57,4.57,0,0,0,3-.94,4,4,0,0,0,1.46-2.28,6.94,6.94,0,0,0,.24-1.79c0-3.44-1.17-5.16-3.53-5.16a3.88,3.88,0,0,0-.48,0,2.1,2.1,0,0,0-.43.1l-.37.13a1.4,1.4,0,0,0-.3.14l-.22.13-.14.1,0,0c-.13,0-.19-.39-.19-1.06a2.22,2.22,0,0,1,.19-1.07,7.5,7.5,0,0,1,3-.57,5.68,5.68,0,0,1,2.17.38,4.05,4.05,0,0,1,1.56,1,5.53,5.53,0,0,1,1,1.56A8.6,8.6,0,0,1,86,83.18a14.69,14.69,0,0,1,.15,2.17,7.78,7.78,0,0,1-.48,2.79,6,6,0,0,1-3.85,3.69,10,10,0,0,1-3.42.53,7.24,7.24,0,0,1-4.68-1.47,4.51,4.51,0,0,1-1.83-3.65V80.69Z" transform="translate(0 0)"/><path class="cls-2" d="M88.21,80.23a2.64,2.64,0,0,1,.56-1.56h6.41a9.72,9.72,0,0,1,3.64.54,4.19,4.19,0,0,1,2,1.73,3.31,3.31,0,0,1,.57,1.39,18,18,0,0,1,.13,2.64v7H98.64V84a3.22,3.22,0,0,0-.91-2.39,3.28,3.28,0,0,0-2.4-.91H88.25A2.25,2.25,0,0,1,88.21,80.23Zm.54,11.69V83.79a5.8,5.8,0,0,1,2.5.84v7.29Z" transform="translate(0 0)"/><path class="cls-2" d="M111.2,92.91a8.83,8.83,0,0,1,.19-2,4.21,4.21,0,0,1,.73-1.58,17.18,17.18,0,0,0,4.39-4.62V82c0-.89-.56-1.33-1.68-1.33h-2.64a3.16,3.16,0,0,1,.68-2h2.38a4.72,4.72,0,0,1,2.83.78A2.93,2.93,0,0,1,119.15,82v7.7a8.89,8.89,0,0,0,.7,2.23h-2.7a22,22,0,0,1-.56-4.25,9.71,9.71,0,0,1-1.06,1.52A13.09,13.09,0,0,1,114,90.68c-.57.49-1,.87-1.39,1.14S111.81,92.46,111.2,92.91Z" transform="translate(0 0)"/><path class="cls-2" d="M121.5,80.21a2.43,2.43,0,0,1,.58-1.54h4.43a9.71,9.71,0,0,1,3.65.54,4.23,4.23,0,0,1,2,1.75,3.37,3.37,0,0,1,.56,1.39,17.42,17.42,0,0,1,.14,2.63v6.94H130V84a3.16,3.16,0,0,0-3.32-3.31h-5.11A2.28,2.28,0,0,1,121.5,80.21Z" transform="translate(0 0)"/><path class="cls-2" d="M134.65,80.17a2.57,2.57,0,0,1,.55-1.5h11.62a3.43,3.43,0,0,1-.54,2H145V91.92h-2.87V80.69h-7.33A2.29,2.29,0,0,1,134.65,80.17Z" transform="translate(0 0)"/><path class="cls-2" d="M149.38,80.23a2.59,2.59,0,0,1,.57-1.56h6.4a9.69,9.69,0,0,1,3.64.54,4.22,4.22,0,0,1,2,1.73,3.43,3.43,0,0,1,.56,1.39,17.67,17.67,0,0,1,.14,2.64v7h-2.87V84a3.14,3.14,0,0,0-3.32-3.3h-7.08A3.28,3.28,0,0,1,149.38,80.23Zm.54,11.69V83.79a5.8,5.8,0,0,1,2.51.84v7.29Z" transform="translate(0 0)"/><path class="cls-2" d="M165,78.48a4.73,4.73,0,0,1,1.4-.24,8.16,8.16,0,0,1,1.61.24l1.16,3.13a6.58,6.58,0,0,1,1-1.55,5.08,5.08,0,0,1,1.56-1.22,4.65,4.65,0,0,1,2.18-.52,7.76,7.76,0,0,1,3,.56A5.49,5.49,0,0,1,179,80.42a6.69,6.69,0,0,1,1.25,2.25,8.79,8.79,0,0,1,.42,2.77,8.36,8.36,0,0,1-.54,3.14,5.06,5.06,0,0,1-1.53,2.14,6.68,6.68,0,0,1-2.28,1.18,10,10,0,0,1-2.9.39,8.08,8.08,0,0,1-2.17-.41,2.54,2.54,0,0,1-.11-.8,4.51,4.51,0,0,1,.58-2,2.4,2.4,0,0,0,.62.62,1.72,1.72,0,0,0,.85.17,4.24,4.24,0,0,0,4.61-4.5,6.69,6.69,0,0,0-.23-1.79,4.81,4.81,0,0,0-.7-1.46,3.19,3.19,0,0,0-1.29-1,4.55,4.55,0,0,0-1.91-.37,3.43,3.43,0,0,0-1.55.35A3.27,3.27,0,0,0,171,82a6.4,6.4,0,0,0-.78,1.38,9.44,9.44,0,0,0-.53,1.66c-.13.57-.24,1.18-.34,1.84s-.2,1.28-.29,1.85-.18,1.14-.27,1.72-.17,1.08-.23,1.47h-3l1-8.7Z" transform="translate(0 0)"/><path class="cls-2" d="M34.25,110.17a2.51,2.51,0,0,1,.55-1.5H46.42a3.36,3.36,0,0,1-.55,2H44.55v11.23H41.68V110.69H34.35A1.84,1.84,0,0,1,34.25,110.17Z" transform="translate(0 0)"/><path class="cls-2" d="M49.26,110.34a2.37,2.37,0,0,1,.86-1.67H63.56V111l-.43.63-4.68,10.29h-3.1l5-11.23h-11s0-.1,0-.18A1.49,1.49,0,0,1,49.26,110.34Zm.17,17.14V113.37a2.17,2.17,0,0,1,.68-.12,2.39,2.39,0,0,1,1,.25,8.38,8.38,0,0,1,1.14.73v13.25Z" transform="translate(0 0)"/><path class="cls-2" d="M66.66,121.92a2.85,2.85,0,0,1,.61-2h6.48a3.09,3.09,0,0,0,2.4-1.45,5.71,5.71,0,0,0,1.09-3.56,5.84,5.84,0,0,0-.7-3,2.27,2.27,0,0,0-2.1-1.18H69.53v3a1.41,1.41,0,0,0,1.37,1.1,4.62,4.62,0,0,0,.62-.06l.49-.06a1.43,1.43,0,0,1,.18.7,2.39,2.39,0,0,1-.18.8,9.29,9.29,0,0,1-1.75.18,3.38,3.38,0,0,1-3.6-2.55v-5.17h8.5a5.2,5.2,0,0,1,1.71.27,4.07,4.07,0,0,1,1.3.77,6.17,6.17,0,0,1,.92,1.11,5.45,5.45,0,0,1,.61,1.34,9.82,9.82,0,0,1,.31,1.42,9.42,9.42,0,0,1,.1,1.4,7.35,7.35,0,0,1-.77,3.26,7.27,7.27,0,0,1-2.18,2.64,4.9,4.9,0,0,1-3,1Z" transform="translate(0 0)"/><path class="cls-2" d="M81.77,108.48a4.78,4.78,0,0,1,1.4-.24,8.34,8.34,0,0,1,1.62.24l1.15,3.13a6.58,6.58,0,0,1,1-1.55,5.08,5.08,0,0,1,1.56-1.22,4.68,4.68,0,0,1,2.18-.52,7.85,7.85,0,0,1,3,.56,5.52,5.52,0,0,1,2.15,1.54,6.69,6.69,0,0,1,1.25,2.25,8.79,8.79,0,0,1,.42,2.77,8.36,8.36,0,0,1-.54,3.14,5.06,5.06,0,0,1-1.53,2.14,6.68,6.68,0,0,1-2.28,1.18,10,10,0,0,1-2.9.39,8.08,8.08,0,0,1-2.17-.41,2.86,2.86,0,0,1-.11-.8,4.51,4.51,0,0,1,.58-2,2.4,2.4,0,0,0,.62.62,1.72,1.72,0,0,0,.85.17,4.24,4.24,0,0,0,4.61-4.5,6.69,6.69,0,0,0-.23-1.79,4.59,4.59,0,0,0-.7-1.46,3.19,3.19,0,0,0-1.29-1,4.52,4.52,0,0,0-1.91-.37,3.43,3.43,0,0,0-1.55.35,3.15,3.15,0,0,0-1.12.91,6,6,0,0,0-.79,1.38A9.44,9.44,0,0,0,86.5,115c-.12.57-.24,1.18-.34,1.84s-.2,1.28-.29,1.85-.18,1.14-.27,1.72-.17,1.08-.23,1.47h-3l1-8.7Z" transform="translate(0 0)"/><path class="cls-2" d="M98.09,105.12a3.62,3.62,0,0,1,.17-1.15,1.88,1.88,0,0,1,.7-.87h3.26v5.65h8.85V111l-5.24,10.89H102.7l5.22-11.14H99.58v-5.66Z" transform="translate(0 0)"/><path class="cls-2" d="M121.3,108.49H125a70.16,70.16,0,0,1,5.42,6c.94-.39,1.42-1.51,1.42-3.38v-.45h-1.23a3.45,3.45,0,0,1,.66-2.2h3.42c0,.13,0,.36,0,.68s0,.56,0,.73a13.16,13.16,0,0,1-.09,1.62,9.76,9.76,0,0,1-.36,1.59,5.47,5.47,0,0,1-.86,1.68,6.66,6.66,0,0,1-1.52,1.41,44.66,44.66,0,0,1,4,5.72h-3.22a52.76,52.76,0,0,0-5.95-7.49,5.61,5.61,0,0,0-2,2.38,7.25,7.25,0,0,0-.75,3.09h1a3,3,0,0,1,.28,1.45,3.48,3.48,0,0,1,0,.57h-3.88c0-.88,0-1.68.11-2.42a17.8,17.8,0,0,1,.3-1.92,8.15,8.15,0,0,1,.49-1.54,9.06,9.06,0,0,1,.61-1.18,5.53,5.53,0,0,1,.74-.94,10.47,10.47,0,0,1,.79-.76q.34-.28.87-.66A45.1,45.1,0,0,0,121.3,108.49Z" transform="translate(0 0)"/><path class="cls-2" d="M137.4,121.92a3.3,3.3,0,0,1,.84-2h7.35v-6.32a2.9,2.9,0,0,0-.74-2.16,2.65,2.65,0,0,0-1.95-.73h-4.13a3.17,3.17,0,0,1,.69-2H143a6.56,6.56,0,0,1,2.48.48,5,5,0,0,1,2,1.43,3.22,3.22,0,0,1,.79,2.14v7.18h1.58a4.14,4.14,0,0,1-.69,2Z" transform="translate(0 0)"/><path class="cls-2" d="M151.94,110.23a2.64,2.64,0,0,1,.56-1.56h6.41a9.63,9.63,0,0,1,3.63.54,4.17,4.17,0,0,1,2,1.73,3.31,3.31,0,0,1,.57,1.39,18,18,0,0,1,.13,2.64v7h-2.87V114a3.22,3.22,0,0,0-.91-2.39,3.28,3.28,0,0,0-2.4-.91H152A2.25,2.25,0,0,1,151.94,110.23Zm.54,11.69v-8.13a5.8,5.8,0,0,1,2.5.84v7.29Z" transform="translate(0 0)"/><path class="cls-2" d="M11.8,151.15a1.7,1.7,0,0,1,.63-1.34,5.89,5.89,0,0,0,1.38.28,1.44,1.44,0,0,0,1-.45,2.24,2.24,0,0,0,.59-.84v-8.11H13.51a2.68,2.68,0,0,1-.06-.61,1.82,1.82,0,0,1,.66-1.41h9.45a4.29,4.29,0,0,1,2.49.66,4.77,4.77,0,0,1,2.17,4.23v8.36H25.35v-8.6a3.78,3.78,0,0,0-.92-1.63,3.34,3.34,0,0,0-1.6-1H18.32v8.63a2.82,2.82,0,0,1-1.85,2.36,7.89,7.89,0,0,1-2.3.44,5.76,5.76,0,0,1-1.24-.16,4.79,4.79,0,0,1-1.09-.33A2.52,2.52,0,0,1,11.8,151.15Z" transform="translate(0 0)"/><path class="cls-2" d="M30.47,140.69a3,3,0,0,1,.83-2.2h3.17v6.06l-2.87,1.32v-5.18Z" transform="translate(0 0)"/><path class="cls-2" d="M37.37,138.49h3.68a70,70,0,0,1,5.41,6c.95-.39,1.42-1.51,1.42-3.38v-.45H46.66a3.45,3.45,0,0,1,.66-2.2h3.42c0,.13,0,.36,0,.68v.73a13.16,13.16,0,0,1-.09,1.62,9.76,9.76,0,0,1-.36,1.59,5.06,5.06,0,0,1-.86,1.68,6.46,6.46,0,0,1-1.52,1.41,45.93,45.93,0,0,1,4,5.72H48.74a52.83,52.83,0,0,0-6-7.49,5.59,5.59,0,0,0-2,2.38,7.27,7.27,0,0,0-.76,3.09h1a3,3,0,0,1,.28,1.45,3.48,3.48,0,0,1,0,.57H37.42a22.51,22.51,0,0,1,.12-2.42,15.78,15.78,0,0,1,.29-1.92,9,9,0,0,1,.5-1.54,8,8,0,0,1,.6-1.18,6.75,6.75,0,0,1,.74-.94,10.47,10.47,0,0,1,.79-.76q.34-.28.87-.66A43.59,43.59,0,0,0,37.37,138.49Z" transform="translate(0 0)"/><path class="cls-2" d="M53.62,140.69v-.21a4.3,4.3,0,0,1,0-.58,2.16,2.16,0,0,1,.16-.53,3.91,3.91,0,0,1,.42-.7h3.69v13.25H55.05V140.69Z" transform="translate(0 0)"/><path class="cls-2" d="M61.43,151.92a2.85,2.85,0,0,1,.6-2h6.49a3.07,3.07,0,0,0,2.39-1.45,5.72,5.72,0,0,0,1.1-3.56,5.94,5.94,0,0,0-.7-3,2.29,2.29,0,0,0-2.11-1.18H64.3v3a1.39,1.39,0,0,0,1.36,1.1,4.89,4.89,0,0,0,.63-.06l.49-.06a1.54,1.54,0,0,1,.17.7,2.61,2.61,0,0,1-.17.8,9.45,9.45,0,0,1-1.75.18,3.36,3.36,0,0,1-3.6-2.55v-5.17h8.49a5.11,5.11,0,0,1,1.71.27,4,4,0,0,1,1.3.77,5.78,5.78,0,0,1,.92,1.11,5.45,5.45,0,0,1,.61,1.34,11.45,11.45,0,0,1,.32,1.42,11,11,0,0,1,.1,1.4,7.37,7.37,0,0,1-.78,3.26,7.24,7.24,0,0,1-2.17,2.64,4.94,4.94,0,0,1-3,1Z" transform="translate(0 0)"/><path class="cls-2" d="M76.29,140.21a2.48,2.48,0,0,1,.58-1.54h4.44a9.65,9.65,0,0,1,3.64.54,4.23,4.23,0,0,1,2,1.75,3.25,3.25,0,0,1,.57,1.39,17.78,17.78,0,0,1,.13,2.63v6.94H84.77V144a3.14,3.14,0,0,0-3.31-3.31H76.35A1.75,1.75,0,0,1,76.29,140.21Z" transform="translate(0 0)"/><path class="cls-2" d="M90.24,140.23a2.59,2.59,0,0,1,.57-1.56h6.4a9.69,9.69,0,0,1,3.64.54,4.15,4.15,0,0,1,2,1.73,3.31,3.31,0,0,1,.57,1.39,18,18,0,0,1,.13,2.64v6.95h-2.87V144a3.22,3.22,0,0,0-.91-2.39,3.28,3.28,0,0,0-2.4-.91H90.28A3.28,3.28,0,0,1,90.24,140.23Zm.54,11.69v-8.13a5.84,5.84,0,0,1,2.51.84v7.29Z" transform="translate(0 0)"/><path class="cls-2" d="M113.79,140.23a2.64,2.64,0,0,1,.56-1.56h6.41a9.72,9.72,0,0,1,3.64.54,4.19,4.19,0,0,1,2,1.73,3.31,3.31,0,0,1,.57,1.39,18,18,0,0,1,.13,2.64v6.95h-2.87V144a3.22,3.22,0,0,0-.91-2.39,3.28,3.28,0,0,0-2.4-.91h-7.08A2.25,2.25,0,0,1,113.79,140.23Zm.54,11.69v-8.13a5.8,5.8,0,0,1,2.5.84v7.29Z" transform="translate(0 0)"/><path class="cls-2" d="M129.53,140.69a3,3,0,0,1,.83-2.2h3.17v6.06l-2.87,1.32v-5.18Z" transform="translate(0 0)"/><path class="cls-2" d="M135.18,135.12a3.63,3.63,0,0,1,.16-1.15,2,2,0,0,1,.7-.87h3.26v5.65h8.86V141l-5.25,10.89h-3.12L145,140.78h-8.34v-5.66Z" transform="translate(0 0)"/><path class="cls-2" d="M150.5,140.69v-.21a4.3,4.3,0,0,1,0-.58,1.8,1.8,0,0,1,.16-.53,3.4,3.4,0,0,1,.42-.7h3.69v13.25h-2.87V140.69Z" transform="translate(0 0)"/><path class="cls-2" d="M157.66,140.69a3.12,3.12,0,0,1,.59-2h9.47a3.54,3.54,0,0,1,1.84.61,6.26,6.26,0,0,1,1.69,1.5,2.77,2.77,0,0,1,.68,1.62v9.52h-2.87v-8.86a2.29,2.29,0,0,0-.83-1.56,2.33,2.33,0,0,0-1.55-.81h-5v11.23h-2.87V140.69Z" transform="translate(0 0)"/><path class="cls-2" d="M174.61,140.23a2.59,2.59,0,0,1,.57-1.56h6.4a9.69,9.69,0,0,1,3.64.54,4.22,4.22,0,0,1,2,1.73,3.43,3.43,0,0,1,.56,1.39,17.67,17.67,0,0,1,.14,2.64v6.95h-2.87V144a3.14,3.14,0,0,0-3.32-3.3h-7.08A3.28,3.28,0,0,1,174.61,140.23Zm.54,11.69v-8.13a5.84,5.84,0,0,1,2.51.84v7.29Z" transform="translate(0 0)"/><path class="cls-2" d="M20.53,181.65A16,16,0,0,1,19.42,176a15.78,15.78,0,0,1,1.12-5.67,17.79,17.79,0,0,1,3-5.19l0,0H25.3l-.12.18a20.45,20.45,0,0,0-2.57,5.22,17.5,17.5,0,0,0,0,11,20.45,20.45,0,0,0,2.57,5.22l.12.21H23.59l0-.08A17.65,17.65,0,0,1,20.53,181.65Z" transform="translate(0 0)"/><path class="cls-2" d="M27.21,182.13v-2.42h2.88v2.42Z" transform="translate(0 0)"/><path class="cls-2" d="M32.31,182.13v-2.42h2.87v2.42Z" transform="translate(0 0)"/><path class="cls-2" d="M37.4,182.13v-2.42h2.88v2.42Z" transform="translate(0 0)"/><path class="cls-2" d="M42.09,170.17a2.57,2.57,0,0,1,.55-1.5H54.27a3.43,3.43,0,0,1-.55,2H52.39v11.23H49.52V170.69H42.19A2.29,2.29,0,0,1,42.09,170.17Z" transform="translate(0 0)"/><path class="cls-2" d="M56.42,170.69v-.21a4.3,4.3,0,0,1,0-.58,1.8,1.8,0,0,1,.16-.53,3.4,3.4,0,0,1,.42-.7h3.69v13.25H57.85V170.69Z" transform="translate(0 0)"/><path class="cls-2" d="M63.63,170.69a3,3,0,0,1,.83-2.2h3.17v6.06l-2.87,1.32v-5.18Z" transform="translate(0 0)"/><path class="cls-2" d="M70.53,170.08a2.2,2.2,0,0,1,.76-1.41h2.5l5.33,6.1a2.76,2.76,0,0,0,.48-.28c.76-.64,1.13-1.91,1.13-3.8H79a2,2,0,0,1-.1-.57,1.76,1.76,0,0,1,1-1.45h3.81a20.27,20.27,0,0,1-.32,4,4.56,4.56,0,0,1-2.85,3.68l2.65,3.48v2H70.75a2,2,0,0,1-.07-.4,1.54,1.54,0,0,1,.93-1.62h7.9l-7.39-9.16h-1.4A1.42,1.42,0,0,1,70.53,170.08Z" transform="translate(0 0)"/><path class="cls-2" d="M93.61,181.15a1.7,1.7,0,0,1,.63-1.34,5.84,5.84,0,0,0,1.37.28,1.48,1.48,0,0,0,1.06-.45,2.36,2.36,0,0,0,.59-.84v-8.11H95.32a2.18,2.18,0,0,1-.07-.61,1.82,1.82,0,0,1,.66-1.41h9.45a4.26,4.26,0,0,1,2.49.66,4.77,4.77,0,0,1,2.17,4.23v8.36h-2.87v-8.6a3.76,3.76,0,0,0-.91-1.63,3.39,3.39,0,0,0-1.6-1h-4.51v8.63a2.84,2.84,0,0,1-1.85,2.36,7.94,7.94,0,0,1-2.3.44,5.68,5.68,0,0,1-1.24-.16,4.63,4.63,0,0,1-1.09-.33A2.52,2.52,0,0,1,93.61,181.15Z" transform="translate(0 0)"/><path class="cls-2" d="M112.87,181.92a2.85,2.85,0,0,1,.6-2H120a3.07,3.07,0,0,0,2.39-1.45,5.72,5.72,0,0,0,1.1-3.56,5.94,5.94,0,0,0-.7-3,2.29,2.29,0,0,0-2.11-1.18h-4.9v3a1.39,1.39,0,0,0,1.36,1.1,4.62,4.62,0,0,0,.62-.06l.5-.06a1.54,1.54,0,0,1,.17.7,2.61,2.61,0,0,1-.17.8,9.47,9.47,0,0,1-1.76.18,3.36,3.36,0,0,1-3.59-2.55v-5.17h8.49a5.15,5.15,0,0,1,1.71.27,4,4,0,0,1,1.3.77,5.78,5.78,0,0,1,.92,1.11,5.45,5.45,0,0,1,.61,1.34,9.82,9.82,0,0,1,.31,1.42,9.43,9.43,0,0,1,.11,1.4,7.37,7.37,0,0,1-.78,3.26,7.24,7.24,0,0,1-2.17,2.64,4.94,4.94,0,0,1-3,1Z" transform="translate(0 0)"/><path class="cls-2" d="M127,165.12a3.62,3.62,0,0,1,.17-1.15,1.88,1.88,0,0,1,.7-.87h3.26v5.65h8.85V171l-5.24,10.89h-3.13l5.22-11.14h-8.34v-5.66Z" transform="translate(0 0)"/><path class="cls-2" d="M142.42,170.69a3.06,3.06,0,0,1,.6-2h9.47a3.57,3.57,0,0,1,1.84.61,6.07,6.07,0,0,1,1.68,1.5,2.73,2.73,0,0,1,.69,1.62v9.52h-2.87v-8.86a2.29,2.29,0,0,0-.83-1.56,2.35,2.35,0,0,0-1.55-.81h-5v11.23h-2.87V170.69Z" transform="translate(0 0)"/><path class="cls-2" d="M159.38,170.23a2.64,2.64,0,0,1,.56-1.56h6.41a9.72,9.72,0,0,1,3.64.54,4.19,4.19,0,0,1,2,1.73,3.31,3.31,0,0,1,.57,1.39,18,18,0,0,1,.13,2.64v6.95h-2.87V174a3.22,3.22,0,0,0-.91-2.39,3.28,3.28,0,0,0-2.4-.91h-7.08A2.25,2.25,0,0,1,159.38,170.23Zm.54,11.69v-8.13a5.8,5.8,0,0,1,2.5.84v7.29Z" transform="translate(0 0)"/><path class="cls-2" d="M174.58,186.93l.12-.21a20,20,0,0,0,2.57-5.23,17.29,17.29,0,0,0,0-11,20.12,20.12,0,0,0-2.57-5.22l-.12-.18h1.71l0,0a17.48,17.48,0,0,1,3,5.21,15,15,0,0,1,0,11.34,17.85,17.85,0,0,1-3,5.18l0,.08Z" transform="translate(0 0)"/></svg>