<svg id="Layer_1" data-name="Layer 1" xmlns="http://www.w3.org/2000/svg" viewBox="0 0 200 200"><defs><style>.cls-1{fill:#192318;}.cls-2{fill:#fff;}</style></defs><rect class="cls-1" width="200" height="200"/><path class="cls-2" d="M24.53,40.83a3.54,3.54,0,0,1,1-2.64h3.8v7.27L25.89,47V40.83Z" transform="translate(0 0)"/><path class="cls-2" d="M32.81,38.19h4.41a84.83,84.83,0,0,1,6.5,7.24c1.14-.47,1.7-1.82,1.7-4.06v-.54H44a4.19,4.19,0,0,1,.79-2.64h4.11c0,.16,0,.43,0,.81s0,.67,0,.88a16,16,0,0,1-.11,1.94,12.14,12.14,0,0,1-.43,1.92,6.18,6.18,0,0,1-1,2,7.45,7.45,0,0,1-1.82,1.7,55,55,0,0,1,4.85,6.87H46.45a62.39,62.39,0,0,0-7.15-9A6.77,6.77,0,0,0,37,48.17a8.57,8.57,0,0,0-.91,3.7h1.2a3.57,3.57,0,0,1,.34,1.75,5.09,5.09,0,0,1,0,.69H32.87A28.67,28.67,0,0,1,33,51.4a19.16,19.16,0,0,1,.36-2.31A9.66,9.66,0,0,1,34,47.25a10.91,10.91,0,0,1,.72-1.42,8.6,8.6,0,0,1,.89-1.13c.36-.37.68-.67,1-.9s.62-.5,1-.8A52,52,0,0,0,32.81,38.19Z" transform="translate(0 0)"/><path class="cls-2" d="M52.31,40.83v-.26a6.09,6.09,0,0,1,0-.69,2.51,2.51,0,0,1,.2-.64,4.61,4.61,0,0,1,.5-.84h4.43V54.31H54V40.83Z" transform="translate(0 0)"/><path class="cls-2" d="M61.68,54.31a3.42,3.42,0,0,1,.73-2.44h7.77a3.66,3.66,0,0,0,2.88-1.73,6.89,6.89,0,0,0,1.31-4.27,7,7,0,0,0-.84-3.62A2.74,2.74,0,0,0,71,40.83H65.12v3.65a1.66,1.66,0,0,0,1.64,1.31,6.78,6.78,0,0,0,.75-.06l.59-.08a1.74,1.74,0,0,1,.21.84,2.93,2.93,0,0,1-.21,1,10.87,10.87,0,0,1-2.1.22,4,4,0,0,1-4.32-3.06V38.4h10.2a6.06,6.06,0,0,1,2,.33,4.47,4.47,0,0,1,1.56.93A6.65,6.65,0,0,1,76.58,41a6.38,6.38,0,0,1,.74,1.61,12.26,12.26,0,0,1,.38,1.71A11.62,11.62,0,0,1,77.82,46a9.08,9.08,0,0,1-3.54,7.08,5.86,5.86,0,0,1-3.59,1.26Z" transform="translate(0 0)"/><path class="cls-2" d="M79.52,40.25a3,3,0,0,1,.69-1.85h5.32a11.45,11.45,0,0,1,4.38.66,4.94,4.94,0,0,1,2.38,2.09A3.77,3.77,0,0,1,93,42.82,21,21,0,0,1,93.13,46v8.33H89.69V44.8a3.85,3.85,0,0,0-1.1-2.87,3.9,3.9,0,0,0-2.88-1.1H79.58A2.58,2.58,0,0,1,79.52,40.25Z" transform="translate(0 0)"/><path class="cls-2" d="M103.73,34.15a4.37,4.37,0,0,1,.2-1.38,2.16,2.16,0,0,1,.84-1.05h3.91V38.5H119.3v2.74L113,54.31h-3.75l6.26-13.38h-10V34.15Z" transform="translate(0 0)"/><path class="cls-2" d="M122.12,40.83v-.26a6.09,6.09,0,0,1,0-.69,2.42,2.42,0,0,1,.19-.64,4.71,4.71,0,0,1,.51-.84h4.43V54.31h-3.45V40.83Z" transform="translate(0 0)"/><path class="cls-2" d="M131.48,54.31a3.42,3.42,0,0,1,.73-2.44H140a3.66,3.66,0,0,0,2.87-1.73,6.83,6.83,0,0,0,1.32-4.27,7,7,0,0,0-.84-3.62,2.74,2.74,0,0,0-2.53-1.42h-5.88v3.65a1.65,1.65,0,0,0,1.63,1.31,6.78,6.78,0,0,0,.75-.06l.59-.08a1.74,1.74,0,0,1,.21.84,2.93,2.93,0,0,1-.21,1,10.72,10.72,0,0,1-2.1.22,4.05,4.05,0,0,1-4.32-3.06V38.4h10.2a6.08,6.08,0,0,1,2,.33,4.66,4.66,0,0,1,1.56.93,6.65,6.65,0,0,1,1.1,1.32,6.36,6.36,0,0,1,.73,1.61,12.26,12.26,0,0,1,.38,1.71,11.62,11.62,0,0,1,.12,1.67,8.84,8.84,0,0,1-.93,3.91,8.57,8.57,0,0,1-2.61,3.17,5.83,5.83,0,0,1-3.58,1.26Z" transform="translate(0 0)"/><path class="cls-2" d="M149.77,40.83a3.57,3.57,0,0,1,1-2.64h3.81v7.27L151.13,47V40.83Z" transform="translate(0 0)"/><path class="cls-2" d="M157.76,40.83a3.89,3.89,0,0,1,.83-2.66h4V48.73a3.1,3.1,0,0,0,.45,1.65,3.51,3.51,0,0,0,1.15,1.18,7,7,0,0,0,1.47.69,6.77,6.77,0,0,0,1.49.33,5.57,5.57,0,0,0,3.63-1.13,4.93,4.93,0,0,0,1.74-2.73,8.13,8.13,0,0,0,.29-2.16q0-6.18-4.23-6.18a3.9,3.9,0,0,0-.59,0,3.19,3.19,0,0,0-.51.12l-.44.15a3.08,3.08,0,0,0-.36.17l-.27.16-.16.12-.07,0c-.15,0-.22-.47-.22-1.27a2.81,2.81,0,0,1,.22-1.3,9.14,9.14,0,0,1,3.58-.68,7.07,7.07,0,0,1,2.61.46,5.21,5.21,0,0,1,1.86,1.23,6.41,6.41,0,0,1,1.19,1.89,9.47,9.47,0,0,1,.65,2.3,16.2,16.2,0,0,1,.19,2.6,9.24,9.24,0,0,1-.58,3.35,7.25,7.25,0,0,1-4.62,4.43,12.3,12.3,0,0,1-4.1.63,8.65,8.65,0,0,1-5.62-1.76,5.43,5.43,0,0,1-2.19-4.39V40.83Z" transform="translate(0 0)"/><path class="cls-2" d="M24.81,76.83a3.54,3.54,0,0,1,1-2.64h3.8v7.27L26.17,83V76.83Z" transform="translate(0 0)"/><path class="cls-2" d="M33.67,90.31a3.47,3.47,0,0,1,.73-2.44h7.78a3.65,3.65,0,0,0,2.87-1.73,6.83,6.83,0,0,0,1.32-4.27,7,7,0,0,0-.84-3.62A2.74,2.74,0,0,0,43,76.83H37.12v3.65a1.65,1.65,0,0,0,1.63,1.31,6.78,6.78,0,0,0,.75-.06l.59-.08a1.74,1.74,0,0,1,.21.84,2.93,2.93,0,0,1-.21,1,10.72,10.72,0,0,1-2.1.22,4.05,4.05,0,0,1-4.32-3.06V74.4h10.2a6.08,6.08,0,0,1,2.05.33,4.66,4.66,0,0,1,1.56.93A6.65,6.65,0,0,1,48.58,77a6.36,6.36,0,0,1,.73,1.61,12.26,12.26,0,0,1,.38,1.71A11.62,11.62,0,0,1,49.81,82a8.84,8.84,0,0,1-.93,3.91,8.57,8.57,0,0,1-2.61,3.17,5.83,5.83,0,0,1-3.58,1.26Z" transform="translate(0 0)"/><path class="cls-2" d="M50.59,70.15a4.37,4.37,0,0,1,.2-1.38,2.29,2.29,0,0,1,.84-1h3.91V74.5H66.17v2.74L59.88,90.31H56.12l6.26-13.38h-10V70.15Z" transform="translate(0 0)"/><path class="cls-2" d="M79.12,90.31V74.4h10a7,7,0,0,1,2.39.37,4.67,4.67,0,0,1,1.64,1,4.39,4.39,0,0,1,1,1.37,6.45,6.45,0,0,1,.51,1.54,9.43,9.43,0,0,1,.12,1.54V90.31Zm3.45-2.44h8.78v-7.8q0-3.24-2.9-3.24H82.57Z" transform="translate(0 0)"/><path class="cls-2" d="M97.24,76.21a3.09,3.09,0,0,1,.65-1.81h14a4.07,4.07,0,0,1-.66,2.43h-1.59V90.31h-3.44V76.83h-8.8A2.3,2.3,0,0,1,97.24,76.21Z" transform="translate(0 0)"/><path class="cls-2" d="M115.25,76.41a2.84,2.84,0,0,1,1-2h16.13v2.8l-.52.76-5.61,12.35h-3.72l6-13.48H115.3a1.12,1.12,0,0,0,0-.22C115.26,76.52,115.25,76.46,115.25,76.41Zm.2,20.56V80a2.74,2.74,0,0,1,2.08.17,9.92,9.92,0,0,1,1.36.87V97Z" transform="translate(0 0)"/><path class="cls-2" d="M135,89.38a2,2,0,0,1,.76-1.61,7,7,0,0,0,1.65.34,1.76,1.76,0,0,0,1.26-.54,2.76,2.76,0,0,0,.71-1V76.83h-2.33a3.13,3.13,0,0,1-.08-.73,2.19,2.19,0,0,1,.8-1.7H149.1a5.14,5.14,0,0,1,3,.79,5.75,5.75,0,0,1,2.6,5.08v10h-3.45V80a4.45,4.45,0,0,0-1.09-2,4,4,0,0,0-1.92-1.2h-5.41V87.19c-.38,1.57-1.12,2.51-2.23,2.82a9.36,9.36,0,0,1-2.75.53,7.56,7.56,0,0,1-1.49-.18,5.36,5.36,0,0,1-1.31-.41A3.45,3.45,0,0,1,135,89.38Z" transform="translate(0 0)"/><path class="cls-2" d="M157.24,74.18a5.43,5.43,0,0,1,1.68-.3,9.49,9.49,0,0,1,1.93.3l1.39,3.75a8,8,0,0,1,1.14-1.86,5.94,5.94,0,0,1,1.87-1.46,5.6,5.6,0,0,1,2.62-.62,9.45,9.45,0,0,1,3.64.66,6.69,6.69,0,0,1,2.58,1.85,7.85,7.85,0,0,1,1.5,2.7,10.47,10.47,0,0,1,.51,3.33,10.3,10.3,0,0,1-.64,3.77,6.11,6.11,0,0,1-1.84,2.56,8,8,0,0,1-2.74,1.42,12.08,12.08,0,0,1-3.49.47,9.94,9.94,0,0,1-2.6-.49,3.23,3.23,0,0,1-.13-1,5.44,5.44,0,0,1,.7-2.41,2.91,2.91,0,0,0,.74.75,2,2,0,0,0,1,.2,5.37,5.37,0,0,0,4.09-1.51,5.42,5.42,0,0,0,1.44-3.89,8.06,8.06,0,0,0-.27-2.15,5.69,5.69,0,0,0-.85-1.75A3.68,3.68,0,0,0,170,77.33a5.44,5.44,0,0,0-2.29-.44,4,4,0,0,0-1.86.42,3.83,3.83,0,0,0-1.35,1.09,8,8,0,0,0-.94,1.65,11.82,11.82,0,0,0-.64,2c-.15.69-.29,1.43-.41,2.22s-.24,1.53-.34,2.21-.22,1.37-.33,2.07-.2,1.29-.27,1.77H158l1.19-10.45Z" transform="translate(0 0)"/><path class="cls-2" d="M9.16,129.1a4,4,0,0,1,1.51-3.19L15,124.5l-3.43-11.67H9.71a.82.82,0,0,1,0-.27,4.45,4.45,0,0,1,.19-1.23,1.61,1.61,0,0,1,.55-.93h4l3.75,12.83q.36-.14.78-.33a11.56,11.56,0,0,0,1.14-.65,8.44,8.44,0,0,0,1.25-1,5.1,5.1,0,0,0,1-1.27,3.31,3.31,0,0,0,.41-1.57v-5.61H21.07v-.2a4.16,4.16,0,0,1,.23-1.31,1.35,1.35,0,0,1,.69-.92h4.19v7a9.54,9.54,0,0,1-1,4.33,6.8,6.8,0,0,1-2.87,3L9.26,129.87A3.54,3.54,0,0,1,9.16,129.1Z" transform="translate(0 0)"/><path class="cls-2" d="M28.9,126.31a4,4,0,0,1,1-2.44h8.83v-7.58a3.49,3.49,0,0,0-.89-2.59,3.22,3.22,0,0,0-2.35-.87h-5a3.83,3.83,0,0,1,.83-2.43h4.22a7.76,7.76,0,0,1,3,.58A5.94,5.94,0,0,1,41,112.69a3.91,3.91,0,0,1,.95,2.57v8.61h1.89a5,5,0,0,1-.82,2.44Z" transform="translate(0 0)"/><path class="cls-2" d="M46.68,112.41a2.85,2.85,0,0,1,1-2H63.84v2.8l-.52.76-5.61,12.35H54l6-13.48H46.73s0-.13,0-.22A1,1,0,0,1,46.68,112.41Zm.2,20.56V116a2.79,2.79,0,0,1,.82-.13,2.72,2.72,0,0,1,1.26.3,9.35,9.35,0,0,1,1.36.87V133Z" transform="translate(0 0)"/><path class="cls-2" d="M66.63,125.93a2.88,2.88,0,0,1,1-2.06H72.3v-9.35a2.79,2.79,0,0,0-.13-1,.86.86,0,0,0-.39-.52,1.41,1.41,0,0,0-.49-.18,3.39,3.39,0,0,0-.6,0h-3a3.58,3.58,0,0,1,1-2.43H71.9a4.23,4.23,0,0,1,2.78.89,3.61,3.61,0,0,1,1.07,2.91v12.11H66.68a1,1,0,0,0,0-.19C66.64,126,66.63,126,66.63,125.93Z" transform="translate(0 0)"/><path class="cls-2" d="M78.76,112.11a2.22,2.22,0,0,1,.9-1.71h3.92v8.43a6.49,6.49,0,0,0,3.58-.84,2.5,2.5,0,0,0,1.27-2.1v-3.06H87.18a2.75,2.75,0,0,1-.17-1,1.71,1.71,0,0,1,.88-1.44H91.6V116a3.73,3.73,0,0,1-1,2.39A7.32,7.32,0,0,1,88,120.34a9.23,9.23,0,0,1-3.72.75,6.82,6.82,0,0,0,2.38,2.19,7.11,7.11,0,0,0,3.26.65,10.61,10.61,0,0,0,2.26-.23,6.43,6.43,0,0,0,1.76-.64,7.32,7.32,0,0,0,1.28-.91,4.36,4.36,0,0,0,.88-1.07,5.06,5.06,0,0,0,.47-1.09,3.32,3.32,0,0,0,.16-1v-6.15h-1.4a5.18,5.18,0,0,1,0-.7,2.25,2.25,0,0,1,.85-1.73h4v8.92a4.68,4.68,0,0,1-.46,1.94,7.38,7.38,0,0,1-1.38,2,11.37,11.37,0,0,1-2.14,1.78,10.91,10.91,0,0,1-2.88,1.29,12.62,12.62,0,0,1-6.86,0,9.48,9.48,0,0,1-2.72-1.24,8.52,8.52,0,0,1-1.94-1.79,7.34,7.34,0,0,1-1.21-2.15,6.79,6.79,0,0,1-.4-2.3v-6.06H78.87A3.87,3.87,0,0,1,78.76,112.11Z" transform="translate(0 0)"/><path class="cls-2" d="M111.88,112.25a2.93,2.93,0,0,1,.7-1.85h5.32a11.42,11.42,0,0,1,4.37.66,5,5,0,0,1,2.39,2.09,4,4,0,0,1,.68,1.67,22.45,22.45,0,0,1,.16,3.16v8.33h-3.45V116.8a3.76,3.76,0,0,0-4-4H112A2.1,2.1,0,0,1,111.88,112.25Z" transform="translate(0 0)"/><path class="cls-2" d="M127.67,112.21a3,3,0,0,1,.65-1.81h14a4.07,4.07,0,0,1-.66,2.43H140v13.48h-3.44V112.83h-8.8A2.3,2.3,0,0,1,127.67,112.21Z" transform="translate(0 0)"/><path class="cls-2" d="M145.26,112.83a3.93,3.93,0,0,1,1.36-2.43h8.61a8.43,8.43,0,0,1,2.8.45,7.22,7.22,0,0,1,2.33,1.39,6.09,6.09,0,0,1,1.64,2.55,10.89,10.89,0,0,1,.6,3.77,7.92,7.92,0,0,1-2.3,6.08q-2.3,2.14-6.62,2.15a9.63,9.63,0,0,1-3.12-.48,7,7,0,0,1-2.27-1.2,7.54,7.54,0,0,1-1.45-1.65,6.51,6.51,0,0,1-.83-1.74,6,6,0,0,1-.23-1.56V114l.93-1.19Zm4,7.5a3.14,3.14,0,0,0,.31,1.26,5.52,5.52,0,0,0,.87,1.31,4.5,4.5,0,0,0,1.48,1,4.83,4.83,0,0,0,2,.42,5,5,0,0,0,2.89-.82,4.77,4.77,0,0,0,1.8-2.11,7.25,7.25,0,0,0,.58-2.92,8.23,8.23,0,0,0-.38-2.6,4.55,4.55,0,0,0-1-1.78,4.44,4.44,0,0,0-1.42-1,4.19,4.19,0,0,0-1.65-.33h-5.48Z" transform="translate(0 0)"/><path class="cls-2" d="M165.12,112.28a3.15,3.15,0,0,1,.68-1.88h7.69a11.43,11.43,0,0,1,4.36.65,5,5,0,0,1,2.4,2.08,3.92,3.92,0,0,1,.67,1.67,20.73,20.73,0,0,1,.17,3.16v8.35h-3.45v-9.53a3.74,3.74,0,0,0-4-4h-8.5A3.21,3.21,0,0,1,165.12,112.28Zm.65,14v-9.76a6.9,6.9,0,0,1,3,1v8.75Z" transform="translate(0 0)"/><path class="cls-2" d="M6.25,148.51v-1.32l.14,0a1.15,1.15,0,0,0,.94-.59,3.24,3.24,0,0,0,.3-1.59H6.25v-2.9H9.42v2.69a4.28,4.28,0,0,1-.79,2.71,2.63,2.63,0,0,1-2.22,1Z" transform="translate(0 0)"/><path class="cls-2" d="M11.39,148.42a3.38,3.38,0,0,1,.94-2h8.9a2.24,2.24,0,0,1,.09.6,2.44,2.44,0,0,1-.89,1.83,1.58,1.58,0,0,0-.56-.07c-.44,0-1,.39-1.75,1.18A3.34,3.34,0,0,0,17,152v10.33H13.87v-7.93a8.14,8.14,0,0,1,.54-3.12,6.88,6.88,0,0,1,1.77-2.43H11.43c0-.05,0-.11,0-.2S11.39,148.47,11.39,148.42Z" transform="translate(0 0)"/><path class="cls-2" d="M24.37,146.19h4.41a86.56,86.56,0,0,1,6.5,7.24c1.13-.47,1.7-1.82,1.7-4.06v-.54H35.51a4.13,4.13,0,0,1,.79-2.64h4.11c0,.16,0,.43,0,.81v.88a16.17,16.17,0,0,1-.1,1.94,13.37,13.37,0,0,1-.43,1.92,6.38,6.38,0,0,1-1,2,7.83,7.83,0,0,1-1.82,1.7,53.68,53.68,0,0,1,4.84,6.87H38a63.09,63.09,0,0,0-7.15-9,6.79,6.79,0,0,0-2.36,2.86,8.69,8.69,0,0,0-.9,3.7h1.2a3.69,3.69,0,0,1,.34,1.75,5.09,5.09,0,0,1-.05.69H24.43a28.67,28.67,0,0,1,.14-2.91,21.6,21.6,0,0,1,.35-2.31,10.42,10.42,0,0,1,.59-1.84,10.84,10.84,0,0,1,.73-1.42,7.83,7.83,0,0,1,.89-1.13,12.16,12.16,0,0,1,.95-.9c.27-.23.62-.5,1-.8A53.32,53.32,0,0,0,24.37,146.19Z" transform="translate(0 0)"/><path class="cls-2" d="M44.1,148.83a3.54,3.54,0,0,1,1-2.64h3.8v7.27L45.46,155v-6.21Z" transform="translate(0 0)"/><path class="cls-2" d="M51.79,148.25a3,3,0,0,1,.7-1.85h5.32a11.45,11.45,0,0,1,4.38.66,4.94,4.94,0,0,1,2.38,2.09,3.89,3.89,0,0,1,.68,1.67,21,21,0,0,1,.16,3.16v8.33H62V152.8a3.77,3.77,0,0,0-4-4H51.86A2.56,2.56,0,0,1,51.79,148.25Z" transform="translate(0 0)"/><path class="cls-2" d="M68.11,148.83a3.89,3.89,0,0,1,.83-2.66h4v10.56a3.1,3.1,0,0,0,.45,1.65,3.51,3.51,0,0,0,1.15,1.18,7,7,0,0,0,1.47.69,6.77,6.77,0,0,0,1.49.33,5.57,5.57,0,0,0,3.63-1.13,4.93,4.93,0,0,0,1.74-2.73,8.13,8.13,0,0,0,.29-2.16q0-6.18-4.23-6.18a3.9,3.9,0,0,0-.59,0,3.19,3.19,0,0,0-.51.12l-.44.15a3.08,3.08,0,0,0-.36.17l-.27.16-.16.12-.07.05c-.15,0-.22-.47-.22-1.27a2.81,2.81,0,0,1,.22-1.3,9.14,9.14,0,0,1,3.58-.68,7.07,7.07,0,0,1,2.61.46,5.21,5.21,0,0,1,1.86,1.23,6.41,6.41,0,0,1,1.19,1.89,9.94,9.94,0,0,1,.65,2.3,16.2,16.2,0,0,1,.19,2.6,9.24,9.24,0,0,1-.58,3.35,7.25,7.25,0,0,1-4.62,4.43,12.3,12.3,0,0,1-4.1.63,8.65,8.65,0,0,1-5.62-1.76,5.43,5.43,0,0,1-2.19-4.39v-7.85Z" transform="translate(0 0)"/><path class="cls-2" d="M98.75,162.31V146.4h10a7,7,0,0,1,2.4.37,4.76,4.76,0,0,1,1.64.95,4.56,4.56,0,0,1,1,1.37,6,6,0,0,1,.5,1.54,8.42,8.42,0,0,1,.13,1.54v10.14Zm3.44-2.44H111v-7.8c0-2.16-1-3.24-2.9-3.24h-5.88Z" transform="translate(0 0)"/><path class="cls-2" d="M117.33,148.83v-.26a6.09,6.09,0,0,1,0-.69,2.51,2.51,0,0,1,.2-.64,4.1,4.1,0,0,1,.5-.84h4.43v15.91H119V148.83Z" transform="translate(0 0)"/><path class="cls-2" d="M126.35,161.87a2.9,2.9,0,0,1,1-2h6.17a4.68,4.68,0,0,0,2.89-1.88,5.86,5.86,0,0,0,1.2-3.7,6.57,6.57,0,0,0-.44-2.51,4.3,4.3,0,0,0-1.21-1.71,5.43,5.43,0,0,0-1.67-.94,6.2,6.2,0,0,0-1.94-.3h-5.83a2.18,2.18,0,0,1-.07-.64,2.79,2.79,0,0,1,.84-1.79h6.36a6.49,6.49,0,0,1,2,.32,7.42,7.42,0,0,1,2,1,7.86,7.86,0,0,1,1.72,1.59,7.49,7.49,0,0,1,1.22,2.24,8.72,8.72,0,0,1,.46,2.84,9.26,9.26,0,0,1-.44,2.89,6.85,6.85,0,0,1-2.86,3.79,7.28,7.28,0,0,1-2,.95,7.82,7.82,0,0,1-2.15.31H126.4a.94.94,0,0,0,0-.22A1,1,0,0,1,126.35,161.87Z" transform="translate(0 0)"/><path class="cls-2" d="M143.14,148.83a3.57,3.57,0,0,1,1-2.64H148v7.27L144.5,155v-6.21Z" transform="translate(0 0)"/><path class="cls-2" d="M151.47,148.83a3.93,3.93,0,0,1,1.36-2.43h8.61a8.43,8.43,0,0,1,2.8.45,7.22,7.22,0,0,1,2.33,1.39,6.09,6.09,0,0,1,1.64,2.55,10.89,10.89,0,0,1,.6,3.77,7.92,7.92,0,0,1-2.3,6.08q-2.3,2.15-6.62,2.15a9.63,9.63,0,0,1-3.12-.48,7,7,0,0,1-2.27-1.2,7.54,7.54,0,0,1-1.45-1.65,6.51,6.51,0,0,1-.83-1.74,6,6,0,0,1-.23-1.56V150l.93-1.19Zm4,7.5a3.14,3.14,0,0,0,.31,1.26,5.52,5.52,0,0,0,.87,1.31,4.5,4.5,0,0,0,1.48,1,4.83,4.83,0,0,0,2,.42,5,5,0,0,0,2.89-.82,4.77,4.77,0,0,0,1.8-2.11,7.25,7.25,0,0,0,.58-2.92,8.23,8.23,0,0,0-.38-2.6,4.55,4.55,0,0,0-1-1.78,4.44,4.44,0,0,0-1.42-1,4.19,4.19,0,0,0-1.65-.33h-5.48Z" transform="translate(0 0)"/><path class="cls-2" d="M170.65,162.31a4,4,0,0,1,1-2.44h8.83v-7.58a3.49,3.49,0,0,0-.89-2.59,3.23,3.23,0,0,0-2.35-.87H172.3a3.83,3.83,0,0,1,.83-2.43h4.22a7.79,7.79,0,0,1,3,.58,5.94,5.94,0,0,1,2.38,1.71,3.91,3.91,0,0,1,.95,2.57v8.61h1.89a5,5,0,0,1-.83,2.44Z" transform="translate(0 0)"/></svg>