<svg id="Layer_1" data-name="Layer 1" xmlns="http://www.w3.org/2000/svg" viewBox="0 0 200.75 200.75"><defs><style>.cls-1{fill:#192318;stroke:#fff;stroke-miterlimit:10;stroke-width:0.75px;}.cls-2{fill:#fff;}</style></defs><rect class="cls-1" x="0.38" y="0.38" width="200" height="200"/><path class="cls-2" d="M32,51.48V49.73a1,1,0,0,1,.29-.7.92.92,0,0,1,.69-.3h4.15a.92.92,0,0,1,.69.3,1,1,0,0,1,.29.7v6.75a1,1,0,0,1-.29.71.91.91,0,0,1-.69.29.87.87,0,0,1-.68-.29,1,1,0,0,1-.28-.71V53a.45.45,0,0,0-.15-.35.45.45,0,0,0-.34-.15h-2.7a.94.94,0,0,1-.69-.29A1,1,0,0,1,32,51.48Z" transform="translate(0.38 0.38)"/><path class="cls-2" d="M40.49,62.73v-13a1,1,0,0,1,.29-.7.92.92,0,0,1,.69-.3,1,1,0,0,1,.7.32l7.64,7.31L52.14,54a.47.47,0,0,0,.14-.35V53a.45.45,0,0,0-.14-.35.47.47,0,0,0-.35-.15H50a.94.94,0,0,1-.69-.29,1,1,0,0,1-.29-.71V49.73a1,1,0,0,1,.29-.7.92.92,0,0,1,.69-.3h3.22a.92.92,0,0,1,.69.3,1,1,0,0,1,.29.7v4a2,2,0,0,1-.5,1.48l-2.51,2.48,2.58,2.45a1.51,1.51,0,0,1,.44,1.14v1.84a.62.62,0,0,1-.68.71,1.09,1.09,0,0,1-.73-.34l-9.54-9a.47.47,0,0,0-.35-.15.5.5,0,0,0-.49.5v4.63a.5.5,0,0,0,.14.35.49.49,0,0,0,.35.15h.74a.91.91,0,0,1,.69.29,1,1,0,0,1,.29.71v1.74a1,1,0,0,1-.29.71.91.91,0,0,1-.69.29H41.47a.91.91,0,0,1-.69-.29A1,1,0,0,1,40.49,62.73Z" transform="translate(0.38 0.38)"/><path class="cls-2" d="M56.66,51.48V49.73A1,1,0,0,1,57,49a.92.92,0,0,1,.69-.3h4.15a1,1,0,0,1,1,1V62.86a1,1,0,0,1-1,1,.88.88,0,0,1-.68-.3,1,1,0,0,1-.28-.7V53a.45.45,0,0,0-.15-.35.45.45,0,0,0-.34-.15h-2.7a.94.94,0,0,1-.69-.29A1,1,0,0,1,56.66,51.48Z" transform="translate(0.38 0.38)"/><path class="cls-2" d="M65.21,62.73V61a1,1,0,0,1,.28-.71.91.91,0,0,1,.69-.29h9.54a.45.45,0,0,0,.34-.15.47.47,0,0,0,.15-.35V53a.45.45,0,0,0-.15-.35.45.45,0,0,0-.34-.15H67.65a.45.45,0,0,0-.34.15.45.45,0,0,0-.15.35v.9a.49.49,0,0,0,.15.36.44.44,0,0,0,.34.14h.74a.92.92,0,0,1,.69.3,1,1,0,0,1,.29.71v1.74a1,1,0,0,1-.29.71.94.94,0,0,1-.69.29H66.18a.94.94,0,0,1-.69-.29,1,1,0,0,1-.28-.71v-7.4a1,1,0,0,1,.28-.7.92.92,0,0,1,.69-.3h11a.92.92,0,0,1,.69.3,1,1,0,0,1,.28.7v13a1,1,0,0,1-.28.71.91.91,0,0,1-.69.29h-11a.91.91,0,0,1-.69-.29A1,1,0,0,1,65.21,62.73Z" transform="translate(0.38 0.38)"/><path class="cls-2" d="M80.6,51.48V49.73a1,1,0,0,1,1-1H92.33A.92.92,0,0,1,93,49a1,1,0,0,1,.29.7V62.86a1,1,0,0,1-.29.7.94.94,0,0,1-1.38,0,1,1,0,0,1-.28-.7V53a.48.48,0,0,0-.14-.35.47.47,0,0,0-.35-.15H81.58a1,1,0,0,1-1-1Z" transform="translate(0.38 0.38)"/><path class="cls-2" d="M105.51,51.48V42.24a1,1,0,0,1,.29-.71.91.91,0,0,1,.69-.29h2a.91.91,0,0,1,.69.29,1,1,0,0,1,.29.71V44a1,1,0,0,1-.29.71.91.91,0,0,1-.69.29H108a.47.47,0,0,0-.35.15.52.52,0,0,0-.14.36v2.74a.52.52,0,0,0,.14.36.5.5,0,0,0,.35.14h10a.92.92,0,0,1,.69.3,1,1,0,0,1,.29.7v13a1,1,0,0,1-.29.71.91.91,0,0,1-.69.29H112.6a.91.91,0,0,1-.69-.29,1,1,0,0,1-.29-.71V61a1,1,0,0,1,.29-.71.91.91,0,0,1,.69-.29h3.91a.47.47,0,0,0,.35-.15.46.46,0,0,0,.14-.35V53a.45.45,0,0,0-.14-.35.47.47,0,0,0-.35-.15h-10a.94.94,0,0,1-.69-.29A1,1,0,0,1,105.51,51.48Z" transform="translate(0.38 0.38)"/><path class="cls-2" d="M121.39,51.48V49.73a1,1,0,0,1,.29-.7.92.92,0,0,1,.69-.3h4.15a.94.94,0,0,1,.7.3,1,1,0,0,1,.28.7V62.86a1,1,0,0,1-.28.7.94.94,0,0,1-.7.3.9.9,0,0,1-.68-.3,1,1,0,0,1-.28-.7V53a.5.5,0,0,0-.49-.5h-2.7a.94.94,0,0,1-.69-.29A1,1,0,0,1,121.39,51.48Z" transform="translate(0.38 0.38)"/><path class="cls-2" d="M129.94,62.73V61a1,1,0,0,1,.28-.71.91.91,0,0,1,.7-.29h9.53a.45.45,0,0,0,.34-.15.47.47,0,0,0,.15-.35V53a.45.45,0,0,0-.15-.35.45.45,0,0,0-.34-.15h-8.07a.45.45,0,0,0-.34.15.45.45,0,0,0-.15.35v.9a.49.49,0,0,0,.15.36.44.44,0,0,0,.34.14h.74a.92.92,0,0,1,.69.3.94.94,0,0,1,.29.71v1.74a1,1,0,0,1-1,1h-2.2a1,1,0,0,1-.7-.29,1,1,0,0,1-.28-.71v-7.4a1,1,0,0,1,.28-.7.92.92,0,0,1,.7-.3h11a.92.92,0,0,1,.69.3,1,1,0,0,1,.29.7v13a1,1,0,0,1-.29.71.91.91,0,0,1-.69.29h-11a.91.91,0,0,1-.7-.29A1,1,0,0,1,129.94,62.73Z" transform="translate(0.38 0.38)"/><path class="cls-2" d="M145.33,51.48V49.73a.93.93,0,0,1,.29-.7.92.92,0,0,1,.69-.3h4.15a.92.92,0,0,1,.69.3,1,1,0,0,1,.29.7v6.75a1,1,0,0,1-.29.71,1,1,0,0,1-1.38,0,1,1,0,0,1-.28-.71V53a.45.45,0,0,0-.14-.35.47.47,0,0,0-.35-.15h-2.69a1,1,0,0,1-1-1Z" transform="translate(0.38 0.38)"/><path class="cls-2" d="M153.87,62.73v-13a1,1,0,0,1,.29-.7.92.92,0,0,1,.69-.3h2a.92.92,0,0,1,.69.3,1,1,0,0,1,.29.7v1.75a1,1,0,0,1-.29.71.94.94,0,0,1-.69.29h-.49a.47.47,0,0,0-.35.15.48.48,0,0,0-.14.35v6.51a.5.5,0,0,0,.14.35.47.47,0,0,0,.35.15h9.28a.47.47,0,0,0,.35-.15.5.5,0,0,0,.14-.35V53a.48.48,0,0,0-.14-.35.47.47,0,0,0-.35-.15h-.92A3,3,0,0,0,163,53l-1.92,1a.6.6,0,0,1-.69.06.79.79,0,0,1-.27-.68V51.48a2.11,2.11,0,0,1,.16-.87,1.33,1.33,0,0,1,.56-.57l1.35-.78a3.33,3.33,0,0,1,1.7-.53h3.19a.92.92,0,0,1,.69.3,1,1,0,0,1,.29.7v13a1,1,0,0,1-.29.71.91.91,0,0,1-.69.29H154.85a.91.91,0,0,1-.69-.29A1,1,0,0,1,153.87,62.73Z" transform="translate(0.38 0.38)"/><path class="cls-2" d="M40.14,81.48V79.73a1,1,0,0,1,.29-.7.92.92,0,0,1,.69-.3h4.15a1,1,0,0,1,1,1v6.75a1,1,0,0,1-.28.71.94.94,0,0,1-.7.29.87.87,0,0,1-.68-.29,1,1,0,0,1-.28-.71V83a.45.45,0,0,0-.15-.35.45.45,0,0,0-.34-.15h-2.7a.94.94,0,0,1-.69-.29A1,1,0,0,1,40.14,81.48Z" transform="translate(0.38 0.38)"/><path class="cls-2" d="M48.69,92.73V91a1,1,0,0,1,.28-.71.91.91,0,0,1,.69-.29H59.2a.45.45,0,0,0,.34-.15.47.47,0,0,0,.15-.35V83a.45.45,0,0,0-.15-.35.45.45,0,0,0-.34-.15H51.13a.45.45,0,0,0-.34.15.45.45,0,0,0-.15.35v.9a.49.49,0,0,0,.15.36.44.44,0,0,0,.34.14h.74a.92.92,0,0,1,.69.3.94.94,0,0,1,.29.71v1.74a1,1,0,0,1-1,1H49.66a.94.94,0,0,1-.69-.29,1,1,0,0,1-.28-.71v-7.4A1,1,0,0,1,49,79a.92.92,0,0,1,.69-.3h11a.92.92,0,0,1,.69.3,1,1,0,0,1,.28.7v13a1,1,0,0,1-.28.71.91.91,0,0,1-.69.29h-11a.91.91,0,0,1-.69-.29A1,1,0,0,1,48.69,92.73Z" transform="translate(0.38 0.38)"/><path class="cls-2" d="M64.08,81.48V72.24a1,1,0,0,1,.28-.71.94.94,0,0,1,.7-.29h2a.94.94,0,0,1,.7.29,1,1,0,0,1,.28.71V74a1,1,0,0,1-.28.71A.94.94,0,0,1,67,75h-.49a.45.45,0,0,0-.34.15.48.48,0,0,0-.14.36v2.74a.48.48,0,0,0,.14.36.48.48,0,0,0,.34.14h10a.92.92,0,0,1,.69.3,1,1,0,0,1,.29.7v13a1,1,0,0,1-.29.71.91.91,0,0,1-.69.29H71.17a.94.94,0,0,1-.7-.29,1,1,0,0,1-.28-.71V91a1,1,0,0,1,.28-.71.94.94,0,0,1,.7-.29h3.91a.49.49,0,0,0,.35-.15.5.5,0,0,0,.14-.35V83a.5.5,0,0,0-.49-.5h-10a1,1,0,0,1-1-1Z" transform="translate(0.38 0.38)"/><path class="cls-2" d="M89.73,92.73v-13A1,1,0,0,1,90,79a.92.92,0,0,1,.69-.3H98.9a2.29,2.29,0,0,1,1.69.71l1.87,1.9a2.44,2.44,0,0,1,.72,1.77v9.62a1,1,0,0,1-.29.71.91.91,0,0,1-.69.29H90.71a.91.91,0,0,1-.69-.29A1,1,0,0,1,89.73,92.73Zm2-3.24a.5.5,0,0,0,.14.35.47.47,0,0,0,.35.15h8.55a.47.47,0,0,0,.35-.15.46.46,0,0,0,.14-.35V85.71a2.47,2.47,0,0,0-.71-1.77l-.72-.75a2.27,2.27,0,0,0-1.69-.71H92.18a.47.47,0,0,0-.35.15.48.48,0,0,0-.14.35Z" transform="translate(0.38 0.38)"/><path class="cls-2" d="M105.61,81.48V79.73a1,1,0,0,1,.29-.7.92.92,0,0,1,.69-.3h12a.92.92,0,0,1,.69.3.93.93,0,0,1,.29.7v1.75a1,1,0,0,1-1,1h-1a.45.45,0,0,0-.34.15.45.45,0,0,0-.15.35v9.88a1,1,0,0,1-.28.7.92.92,0,0,1-.69.3.94.94,0,0,1-.7-.3,1,1,0,0,1-.28-.7V83a.45.45,0,0,0-.15-.35.45.45,0,0,0-.34-.15h-8.07a.94.94,0,0,1-.69-.29A1,1,0,0,1,105.61,81.48Z" transform="translate(0.38 0.38)"/><path class="cls-2" d="M122,81.48V79.73a1,1,0,0,1,.29-.7.92.92,0,0,1,.69-.3H134.2a1,1,0,0,1,1,1v13a1,1,0,0,1-.28.71.94.94,0,0,1-.7.29h-6.34a.91.91,0,0,1-.7-.29,1,1,0,0,1-.28-.71V91a1,1,0,0,1,.28-.71.91.91,0,0,1,.7-.29h4.89a.45.45,0,0,0,.34-.15.49.49,0,0,0,.13-.35V83a.48.48,0,0,0-.13-.35.45.45,0,0,0-.34-.15H123a.94.94,0,0,1-.69-.29A1,1,0,0,1,122,81.48Zm0,16.26V86a1,1,0,0,1,.29-.71A.94.94,0,0,1,123,85h.25a1,1,0,0,1,.7.29,1,1,0,0,1,.28.71V97.74a1,1,0,0,1-1,1H123a.94.94,0,0,1-.69-.29A1,1,0,0,1,122,97.74Z" transform="translate(0.38 0.38)"/><path class="cls-2" d="M137.62,92.73V91a1,1,0,0,1,.28-.71.91.91,0,0,1,.69-.29h.74a.47.47,0,0,0,.35-.15.46.46,0,0,0,.14-.35V83a.45.45,0,0,0-.14-.35.47.47,0,0,0-.35-.15h-.25a.94.94,0,0,1-.69-.29,1,1,0,0,1-.29-.71V79.73a1,1,0,0,1,.29-.7.92.92,0,0,1,.69-.3h12a.92.92,0,0,1,.69.3.93.93,0,0,1,.29.7V92.86a.93.93,0,0,1-.29.7.94.94,0,0,1-1.38,0,1,1,0,0,1-.29-.7V83a.5.5,0,0,0-.48-.5h-7.33a.47.47,0,0,0-.35.15.48.48,0,0,0-.14.35v9.75a1,1,0,0,1-.29.71.91.91,0,0,1-.69.29h-2.21a.91.91,0,0,1-.69-.29A1,1,0,0,1,137.62,92.73Z" transform="translate(0.38 0.38)"/><path class="cls-2" d="M154.48,81.48V79.73a1,1,0,0,1,.28-.7.92.92,0,0,1,.69-.3h2a.92.92,0,0,1,.69.3,1,1,0,0,1,.29.7v1.5c0,.57.17.67.53.31l2.07-2.1a2.3,2.3,0,0,1,1.71-.71h6a.92.92,0,0,1,.69.3,1,1,0,0,1,.29.7v13a1,1,0,0,1-.29.71.91.91,0,0,1-.69.29H163a.91.91,0,0,1-.69-.29,1,1,0,0,1-.29-.71V91a1,1,0,0,1,.29-.71A.91.91,0,0,1,163,90h4.15a.47.47,0,0,0,.35-.15.5.5,0,0,0,.14-.35V83a.48.48,0,0,0-.14-.35.47.47,0,0,0-.35-.15h-4a2.23,2.23,0,0,0-1.69.71l-2.12,2.17a2.47,2.47,0,0,0-.71,1.77v5.73a1,1,0,0,1-.29.7.94.94,0,0,1-1.38,0,1,1,0,0,1-.29-.7V83a.45.45,0,0,0-.14-.35.47.47,0,0,0-.35-.15h-.74a.94.94,0,0,1-.69-.29A1,1,0,0,1,154.48,81.48Z" transform="translate(0.38 0.38)"/><path class="cls-2" d="M26.1,122.73V121a1,1,0,0,1,.28-.71.94.94,0,0,1,.7-.29h1.71a.45.45,0,0,0,.35-.15.47.47,0,0,0,.14-.35V113a.45.45,0,0,0-.14-.35.45.45,0,0,0-.35-.15H27.08a1,1,0,0,1-.7-.29,1,1,0,0,1-.28-.71v-1.75a1,1,0,0,1,1-1h3.18a.92.92,0,0,1,.69.3,1,1,0,0,1,.28.7v9.76a.52.52,0,0,0,.14.35.47.47,0,0,0,.35.15h5.62a.45.45,0,0,0,.34-.15.49.49,0,0,0,.15-.35V113a.45.45,0,0,0-.15-.35.45.45,0,0,0-.34-.15H35.63a.94.94,0,0,1-.69-.29,1,1,0,0,1-.29-.71v-1.75a1,1,0,0,1,.29-.7.92.92,0,0,1,.69-.3h3.18a.92.92,0,0,1,.69.3,1,1,0,0,1,.28.7v13a1,1,0,0,1-.28.71.91.91,0,0,1-.69.29H27.08a.94.94,0,0,1-.7-.29A1,1,0,0,1,26.1,122.73Z" transform="translate(0.38 0.38)"/><path class="cls-2" d="M42.22,122.73V121a1,1,0,0,1,.28-.71.94.94,0,0,1,.7-.29h9a.47.47,0,0,0,.35-.15.52.52,0,0,0,.14-.35V113a.48.48,0,0,0-.14-.35.47.47,0,0,0-.35-.15h-9a1,1,0,0,1-.7-.29,1,1,0,0,1-.28-.71v-1.75a1,1,0,0,1,1-1H53.71a.92.92,0,0,1,.69.3,1,1,0,0,1,.29.7v9.76a.47.47,0,0,0,.14.35.47.47,0,0,0,.35.15h.72a.93.93,0,0,1,.7.29,1,1,0,0,1,.28.71v1.74a1,1,0,0,1-.28.71.93.93,0,0,1-.7.29H43.2a.94.94,0,0,1-.7-.29A1,1,0,0,1,42.22,122.73Z" transform="translate(0.38 0.38)"/><path class="cls-2" d="M59.32,111.48v-1.75a1,1,0,0,1,.28-.7.92.92,0,0,1,.69-.3H71.54a.92.92,0,0,1,.69.3,1,1,0,0,1,.28.7v13a1,1,0,0,1-.28.71.91.91,0,0,1-.69.29H65.19a.91.91,0,0,1-.69-.29.94.94,0,0,1-.29-.71V121a.94.94,0,0,1,.29-.71.91.91,0,0,1,.69-.29h4.89a.45.45,0,0,0,.34-.15.52.52,0,0,0,.14-.35V113a.48.48,0,0,0-.14-.35.45.45,0,0,0-.34-.15H60.29a.94.94,0,0,1-.69-.29A1,1,0,0,1,59.32,111.48Zm0,16.26V116a1,1,0,0,1,.28-.71.94.94,0,0,1,.69-.29h.26a.94.94,0,0,1,.69.29,1,1,0,0,1,.28.71v11.71a1,1,0,0,1-.28.71.94.94,0,0,1-.69.29h-.26a.94.94,0,0,1-.69-.29A1,1,0,0,1,59.32,127.74Z" transform="translate(0.38 0.38)"/><path class="cls-2" d="M75,122.73V121a1,1,0,0,1,.28-.71.94.94,0,0,1,.7-.29h4.4a.49.49,0,0,0,.35-.15.52.52,0,0,0,.14-.35V113a.5.5,0,0,0-.49-.5H77.39a.94.94,0,0,1-.69-.29,1,1,0,0,1-.28-.71v-1.75a1,1,0,0,1,.28-.7.92.92,0,0,1,.69-.3H81.8a.92.92,0,0,1,.69.3,1,1,0,0,1,.29.7v13a1,1,0,0,1-.29.71.91.91,0,0,1-.69.29H75.93a.94.94,0,0,1-.7-.29A1,1,0,0,1,75,122.73Z" transform="translate(0.38 0.38)"/><path class="cls-2" d="M85.21,122.73v-13a1,1,0,0,1,.29-.7.92.92,0,0,1,.69-.3h2a.92.92,0,0,1,.69.3,1,1,0,0,1,.28.7v1.75a1,1,0,0,1-.28.71.94.94,0,0,1-.69.29h-.49a.47.47,0,0,0-.35.15.45.45,0,0,0-.14.35v6.51a.47.47,0,0,0,.14.35.47.47,0,0,0,.35.15H98.41a.45.45,0,0,0,.34-.15.49.49,0,0,0,.15-.35V113a.45.45,0,0,0-.15-.35.45.45,0,0,0-.34-.15h-.49a.94.94,0,0,1-.69-.29,1,1,0,0,1-.29-.71v-1.75a.93.93,0,0,1,.29-.7.92.92,0,0,1,.69-.3h2a.92.92,0,0,1,.7.3,1,1,0,0,1,.28.7v13a1,1,0,0,1-.28.71.91.91,0,0,1-.7.29H86.19a.91.91,0,0,1-.69-.29A1,1,0,0,1,85.21,122.73Zm5.87-11.25v-1.75a1,1,0,0,1,.29-.7.92.92,0,0,1,.69-.3h2a.92.92,0,0,1,.69.3,1,1,0,0,1,.28.7v6.75a1,1,0,0,1-.28.71.91.91,0,0,1-.69.29.93.93,0,0,1-.7-.29,1,1,0,0,1-.28-.71V113a.45.45,0,0,0-.15-.35.45.45,0,0,0-.34-.15h-.49a.94.94,0,0,1-.69-.29A1,1,0,0,1,91.08,111.48Z" transform="translate(0.38 0.38)"/><path class="cls-2" d="M113.06,111.48v-1.75a.93.93,0,0,1,.29-.7.92.92,0,0,1,.69-.3h10.75a.92.92,0,0,1,.69.3,1,1,0,0,1,.29.7v13.13a1,1,0,0,1-.29.7.94.94,0,0,1-1.38,0,1,1,0,0,1-.28-.7V113a.48.48,0,0,0-.14-.35.47.47,0,0,0-.35-.15H114a.94.94,0,0,1-.69-.29A1,1,0,0,1,113.06,111.48Z" transform="translate(0.38 0.38)"/><path class="cls-2" d="M128.2,111.48v-1.75a1,1,0,0,1,.29-.7.92.92,0,0,1,.69-.3h12a.92.92,0,0,1,.69.3,1,1,0,0,1,.29.7v1.75a1,1,0,0,1-.29.71.94.94,0,0,1-.69.29h-1a.47.47,0,0,0-.35.15.48.48,0,0,0-.14.35v9.88a.93.93,0,0,1-.29.7.94.94,0,0,1-1.38,0,1,1,0,0,1-.29-.7V113a.5.5,0,0,0-.48-.5h-8.07a.94.94,0,0,1-.69-.29A1,1,0,0,1,128.2,111.48Z" transform="translate(0.38 0.38)"/><path class="cls-2" d="M144.57,122.73v-13a1,1,0,0,1,.29-.7.92.92,0,0,1,.69-.3H157a.92.92,0,0,1,.69.3,1,1,0,0,1,.29.7v8.58a2.39,2.39,0,0,1-.69,1.74l-2.91,3a2.34,2.34,0,0,1-1.73.73h-7.14a.91.91,0,0,1-.69-.29A1,1,0,0,1,144.57,122.73Zm2-3.24a.52.52,0,0,0,.14.35.47.47,0,0,0,.35.15h4.77a2.32,2.32,0,0,0,1.72-.74l1.87-1.91a2.37,2.37,0,0,0,.68-1.74V113a.48.48,0,0,0-.14-.35.47.47,0,0,0-.35-.15H147a.47.47,0,0,0-.35.15.48.48,0,0,0-.14.35Z" transform="translate(0.38 0.38)"/><path class="cls-2" d="M160.45,111.48v-1.75a1,1,0,0,1,.29-.7.92.92,0,0,1,.69-.3h11.49a.92.92,0,0,1,.69.3.93.93,0,0,1,.29.7v13.13a.93.93,0,0,1-.29.7.94.94,0,0,1-1.38,0,1,1,0,0,1-.29-.7V113a.5.5,0,0,0-.48-.5h-10a.94.94,0,0,1-.69-.29A1,1,0,0,1,160.45,111.48Zm0,11.25v-5.49a1,1,0,0,1,.29-.71,1,1,0,0,1,1.38,0,1,1,0,0,1,.29.71v2.25a.52.52,0,0,0,.14.35.47.47,0,0,0,.35.15h.74a.91.91,0,0,1,.69.29,1,1,0,0,1,.29.71v1.74a1,1,0,0,1-.29.71.91.91,0,0,1-.69.29h-2.21a.91.91,0,0,1-.69-.29A1,1,0,0,1,160.45,122.73Z" transform="translate(0.38 0.38)"/><path class="cls-2" d="M19.26,137.73V136a1,1,0,0,1,.28-.71.92.92,0,0,1,.69-.3h2.2a.92.92,0,0,1,.69.3,1,1,0,0,1,.29.71v4.24a1,1,0,0,1-.29.71,1,1,0,0,1-1.38,0,1,1,0,0,1-.29-.71v-1a.5.5,0,0,0-.14-.35.47.47,0,0,0-.35-.15h-.73a.94.94,0,0,1-.69-.29A1,1,0,0,1,19.26,137.73Z" transform="translate(0.38 0.38)"/><path class="cls-2" d="M26.08,141.48v-1.75a1,1,0,0,1,.29-.7.92.92,0,0,1,.69-.3h5.38a.92.92,0,0,1,.69.3,1,1,0,0,1,.29.7v1.75a1,1,0,0,1-.29.71.94.94,0,0,1-.69.29h-1a.45.45,0,0,0-.34.15A.45.45,0,0,0,31,143v9.88a1,1,0,0,1-.28.7.94.94,0,0,1-.7.3.92.92,0,0,1-.69-.3,1,1,0,0,1-.28-.7V143a.45.45,0,0,0-.15-.35.45.45,0,0,0-.34-.15H27.06a.94.94,0,0,1-.69-.29A1,1,0,0,1,26.08,141.48Z" transform="translate(0.38 0.38)"/><path class="cls-2" d="M35.85,152.73v-13a1,1,0,0,1,.29-.7.92.92,0,0,1,.69-.3,1,1,0,0,1,.69.32l7.65,7.31L47.5,144a.52.52,0,0,0,.14-.35V143a.48.48,0,0,0-.14-.35.47.47,0,0,0-.35-.15H45.39a1,1,0,0,1-.7-.29,1,1,0,0,1-.28-.71v-1.75a1,1,0,0,1,1-1h3.22a.92.92,0,0,1,.69.3,1,1,0,0,1,.29.7v4a2,2,0,0,1-.5,1.48l-2.51,2.48,2.58,2.45a1.51,1.51,0,0,1,.44,1.13v1.85a.62.62,0,0,1-.68.71,1.06,1.06,0,0,1-.73-.35l-9.54-9a.49.49,0,0,0-.35-.15.47.47,0,0,0-.35.15.48.48,0,0,0-.14.35v4.63a.52.52,0,0,0,.14.35.47.47,0,0,0,.35.15H39a.91.91,0,0,1,.69.29A1,1,0,0,1,40,151v1.74a1,1,0,0,1-.29.71.91.91,0,0,1-.69.29H36.83a.91.91,0,0,1-.69-.29A1,1,0,0,1,35.85,152.73Z" transform="translate(0.38 0.38)"/><path class="cls-2" d="M52,141.48v-1.75a1,1,0,0,1,.29-.7.92.92,0,0,1,.69-.3h4.15a.92.92,0,0,1,.69.3,1,1,0,0,1,.29.7v6.75a1,1,0,0,1-.29.71.91.91,0,0,1-.69.29.87.87,0,0,1-.68-.29,1,1,0,0,1-.28-.71V143a.45.45,0,0,0-.15-.35.45.45,0,0,0-.34-.15H53a.94.94,0,0,1-.69-.29A1,1,0,0,1,52,141.48Z" transform="translate(0.38 0.38)"/><path class="cls-2" d="M60.56,141.48v-1.75a1,1,0,0,1,.29-.7.92.92,0,0,1,.69-.3H72.29a1,1,0,0,1,1,1v13.13a1,1,0,0,1-1,1,.88.88,0,0,1-.68-.3,1,1,0,0,1-.28-.7V143a.45.45,0,0,0-.15-.35.45.45,0,0,0-.34-.15h-9.3a.94.94,0,0,1-.69-.29A1,1,0,0,1,60.56,141.48Z" transform="translate(0.38 0.38)"/><path class="cls-2" d="M75.71,152.73v-13A1,1,0,0,1,76,139a.92.92,0,0,1,.69-.3h2a.92.92,0,0,1,.69.3,1,1,0,0,1,.29.7v1.75a1,1,0,0,1-.29.71.94.94,0,0,1-.69.29h-.49a.45.45,0,0,0-.34.15.45.45,0,0,0-.15.35v6.51a.49.49,0,0,0,.15.35.45.45,0,0,0,.34.15h9.29a.45.45,0,0,0,.34-.15.47.47,0,0,0,.14-.35V143a.5.5,0,0,0-.48-.5h-.92a2.94,2.94,0,0,0-1.7.52l-1.92,1a.6.6,0,0,1-.69.06.81.81,0,0,1-.26-.68v-1.93a2,2,0,0,1,.16-.87,1.25,1.25,0,0,1,.55-.57l1.35-.78a3.36,3.36,0,0,1,1.71-.53H88.9a.92.92,0,0,1,.69.3.93.93,0,0,1,.29.7v13a.94.94,0,0,1-.29.71.91.91,0,0,1-.69.29H76.68a.91.91,0,0,1-.69-.29A1,1,0,0,1,75.71,152.73Z" transform="translate(0.38 0.38)"/><path class="cls-2" d="M102.09,152.73v-13a1,1,0,0,1,.28-.7.92.92,0,0,1,.7-.3h8.18a2.31,2.31,0,0,1,1.7.71l1.87,1.9a2.44,2.44,0,0,1,.72,1.77v9.62a1,1,0,0,1-.29.71.91.91,0,0,1-.69.29H103.07a.91.91,0,0,1-.7-.29A1,1,0,0,1,102.09,152.73Zm2-3.24a.49.49,0,0,0,.15.35.45.45,0,0,0,.34.15h8.56a.45.45,0,0,0,.34-.15.49.49,0,0,0,.15-.35v-3.78a2.44,2.44,0,0,0-.72-1.77l-.71-.75a2.31,2.31,0,0,0-1.7-.71h-5.92a.45.45,0,0,0-.34.15.45.45,0,0,0-.15.35Z" transform="translate(0.38 0.38)"/><path class="cls-2" d="M118,141.48v-1.75a.93.93,0,0,1,.29-.7.92.92,0,0,1,.69-.3h4.15a.92.92,0,0,1,.69.3,1,1,0,0,1,.29.7v13.13a1,1,0,0,1-.29.7.94.94,0,0,1-1.38,0,1,1,0,0,1-.28-.7V143a.45.45,0,0,0-.14-.35.47.47,0,0,0-.35-.15H119a.94.94,0,0,1-.69-.29A1,1,0,0,1,118,141.48Z" transform="translate(0.38 0.38)"/><path class="cls-2" d="M126.51,152.73V151a1,1,0,0,1,.29-.71.91.91,0,0,1,.69-.29H137a.47.47,0,0,0,.35-.15.47.47,0,0,0,.14-.35V143a.45.45,0,0,0-.14-.35.47.47,0,0,0-.35-.15h-9.53a.94.94,0,0,1-.69-.29,1,1,0,0,1-.29-.71v-1.75a1,1,0,0,1,.29-.7.92.92,0,0,1,.69-.3h11a.92.92,0,0,1,.69.3.93.93,0,0,1,.29.7v13a.94.94,0,0,1-.29.71.91.91,0,0,1-.69.29h-11a.91.91,0,0,1-.69-.29A1,1,0,0,1,126.51,152.73Z" transform="translate(0.38 0.38)"/><path class="cls-2" d="M141.9,141.48v-1.75a1,1,0,0,1,.29-.7.92.92,0,0,1,.69-.3H147a.92.92,0,0,1,.69.3,1,1,0,0,1,.28.7v6.75a1,1,0,0,1-.28.71.91.91,0,0,1-.69.29.89.89,0,0,1-.69-.29,1,1,0,0,1-.28-.71V143a.5.5,0,0,0-.49-.5h-2.7a.94.94,0,0,1-.69-.29A1,1,0,0,1,141.9,141.48Z" transform="translate(0.38 0.38)"/><path class="cls-2" d="M150.45,152.73v-13a.93.93,0,0,1,.29-.7.92.92,0,0,1,.69-.3h11.49a.92.92,0,0,1,.69.3,1,1,0,0,1,.29.7v8.58a2.36,2.36,0,0,1-.7,1.74L160.29,153a2.3,2.3,0,0,1-1.73.73h-7.13a.91.91,0,0,1-.69-.29A.94.94,0,0,1,150.45,152.73Zm2-3.24a.47.47,0,0,0,.14.35.45.45,0,0,0,.34.15h4.78a2.32,2.32,0,0,0,1.72-.74l1.87-1.91a2.41,2.41,0,0,0,.68-1.74V143a.5.5,0,0,0-.49-.5h-8.56a.5.5,0,0,0-.48.5Z" transform="translate(0.38 0.38)"/><path class="cls-2" d="M166.33,152.73V151a1,1,0,0,1,.29-.71.91.91,0,0,1,.69-.29h9a.47.47,0,0,0,.35-.15.52.52,0,0,0,.14-.35V143a.48.48,0,0,0-.14-.35.47.47,0,0,0-.35-.15h-9a.94.94,0,0,1-.69-.29,1,1,0,0,1-.29-.71v-1.75a1,1,0,0,1,.29-.7.92.92,0,0,1,.69-.3h10.51a.92.92,0,0,1,.69.3,1,1,0,0,1,.29.7v9.76a.52.52,0,0,0,.14.35.47.47,0,0,0,.35.15H180a.91.91,0,0,1,.69.29,1,1,0,0,1,.29.71v1.74a1,1,0,0,1-.29.71.91.91,0,0,1-.69.29H167.31a.91.91,0,0,1-.69-.29A1,1,0,0,1,166.33,152.73Z" transform="translate(0.38 0.38)"/></svg>