<svg id="Layer_1" data-name="Layer 1" xmlns="http://www.w3.org/2000/svg" viewBox="0 0 200.75 200.75"><defs><style>.cls-1{fill:#192318;stroke:#fff;stroke-miterlimit:10;stroke-width:0.75px;}.cls-2{fill:#fff;}</style></defs><rect class="cls-1" x="0.38" y="0.38" width="200" height="200"/><path class="cls-2" d="M8.89,92.5V90.75A1,1,0,0,1,9.18,90a.94.94,0,0,1,.69-.29h.74A.47.47,0,0,0,11,89.6a.48.48,0,0,0,.14-.35V82.74a.5.5,0,0,0-.14-.35.47.47,0,0,0-.35-.15h-.25A.91.91,0,0,1,9.67,82a1,1,0,0,1-.29-.71V79.5a1,1,0,0,1,.29-.71.91.91,0,0,1,.69-.29h12a.91.91,0,0,1,.69.29,1,1,0,0,1,.29.71V92.62a1,1,0,0,1-.29.71,1,1,0,0,1-1.38,0,1,1,0,0,1-.29-.71V82.74a.5.5,0,0,0-.14-.35.47.47,0,0,0-.35-.15H13.55a.47.47,0,0,0-.35.15.46.46,0,0,0-.14.35V92.5a1,1,0,0,1-.29.7.92.92,0,0,1-.69.3H9.87a.92.92,0,0,1-.69-.3A1,1,0,0,1,8.89,92.5Z" transform="translate(0.38 0.38)"/><path class="cls-2" d="M25.75,81.24V79.5a1,1,0,0,1,.29-.71.91.91,0,0,1,.69-.29h4.15a.94.94,0,0,1,.7.29,1,1,0,0,1,.28.71V92.62a1,1,0,0,1-1,1,.91.91,0,0,1-.68-.29,1,1,0,0,1-.28-.71V82.74a.47.47,0,0,0-.15-.35.45.45,0,0,0-.34-.15h-2.7A.91.91,0,0,1,26,82,1,1,0,0,1,25.75,81.24Z" transform="translate(0.38 0.38)"/><path class="cls-2" d="M34.3,81.24V79.5a1,1,0,0,1,.28-.71.91.91,0,0,1,.69-.29h4.16a.91.91,0,0,1,.69.29,1,1,0,0,1,.29.71v6.75a1,1,0,0,1-.29.7.94.94,0,0,1-1.38,0,1,1,0,0,1-.28-.7V82.74a.5.5,0,0,0-.14-.35.47.47,0,0,0-.35-.15h-2.7a.91.91,0,0,1-.69-.29A1,1,0,0,1,34.3,81.24Z" transform="translate(0.38 0.38)"/><path class="cls-2" d="M42.84,81.24V79.5a1,1,0,0,1,.29-.71.91.91,0,0,1,.69-.29H48a.91.91,0,0,1,.69.29,1,1,0,0,1,.29.71V92.62a1,1,0,0,1-.29.71,1,1,0,0,1-1.38,0,1,1,0,0,1-.28-.71V82.74a.46.46,0,0,0-.14-.35.45.45,0,0,0-.35-.15H43.82a.91.91,0,0,1-.69-.29A1,1,0,0,1,42.84,81.24Z" transform="translate(0.38 0.38)"/><path class="cls-2" d="M51.38,81.24V79.5a1,1,0,0,1,.29-.71.91.91,0,0,1,.69-.29h2a.91.91,0,0,1,.69.29,1,1,0,0,1,.29.71V81c0,.56.17.66.52.3l2.08-2.1a2.29,2.29,0,0,1,1.7-.7h6a.91.91,0,0,1,.69.29,1,1,0,0,1,.29.71v13a1,1,0,0,1-.29.7.92.92,0,0,1-.69.3H59.94a.92.92,0,0,1-.69-.3,1,1,0,0,1-.29-.7V90.75a1,1,0,0,1,.29-.71.94.94,0,0,1,.69-.29h4.15a.47.47,0,0,0,.35-.15.48.48,0,0,0,.14-.35V82.74a.5.5,0,0,0-.14-.35.47.47,0,0,0-.35-.15h-4a2.25,2.25,0,0,0-1.7.71l-2.11,2.17a2.43,2.43,0,0,0-.71,1.77v5.73a1,1,0,0,1-.29.71,1,1,0,0,1-1.38,0,1,1,0,0,1-.29-.71V82.74a.5.5,0,0,0-.14-.35.47.47,0,0,0-.35-.15h-.74a.91.91,0,0,1-.69-.29A1,1,0,0,1,51.38,81.24Z" transform="translate(0.38 0.38)"/><path class="cls-2" d="M69,81.24V79.5a1,1,0,0,1,.29-.71A.91.91,0,0,1,70,78.5H74.1a.91.91,0,0,1,.69.29,1,1,0,0,1,.29.71v6.75a1,1,0,0,1-.29.7.92.92,0,0,1-.69.3.88.88,0,0,1-.68-.3,1,1,0,0,1-.28-.7V82.74a.47.47,0,0,0-.15-.35.45.45,0,0,0-.34-.15H70a.91.91,0,0,1-.69-.29A1,1,0,0,1,69,81.24Z" transform="translate(0.38 0.38)"/><path class="cls-2" d="M77.51,81.24V79.5a1,1,0,0,1,.29-.71.91.91,0,0,1,.69-.29h12a.91.91,0,0,1,.69.29.94.94,0,0,1,.29.71v1.74a1,1,0,0,1-.29.71.91.91,0,0,1-.69.29h-1a.45.45,0,0,0-.34.15.47.47,0,0,0-.15.35v9.88a1,1,0,0,1-.28.71.94.94,0,0,1-.69.29,1,1,0,0,1-1-1V82.74a.47.47,0,0,0-.15-.35.45.45,0,0,0-.34-.15H78.49A.91.91,0,0,1,77.8,82,1,1,0,0,1,77.51,81.24Z" transform="translate(0.38 0.38)"/><path class="cls-2" d="M93.89,81.24V79.5a1,1,0,0,1,.28-.71.91.91,0,0,1,.69-.29H106.1a.94.94,0,0,1,.7.29,1,1,0,0,1,.28.71v13a1,1,0,0,1-1,1H99.76a1,1,0,0,1-1-1V90.75a1,1,0,0,1,1-1h4.89a.45.45,0,0,0,.34-.15.48.48,0,0,0,.13-.35V82.74a.49.49,0,0,0-.13-.35.45.45,0,0,0-.34-.15H94.86a.91.91,0,0,1-.69-.29A1,1,0,0,1,93.89,81.24Zm0,16.26V85.79a1,1,0,0,1,.28-.7.92.92,0,0,1,.69-.3h.25a.92.92,0,0,1,.7.3,1,1,0,0,1,.28.7V97.5a1,1,0,0,1-.28.71,1,1,0,0,1-.7.29h-.25a.94.94,0,0,1-.69-.29A1,1,0,0,1,93.89,97.5Z" transform="translate(0.38 0.38)"/><path class="cls-2" d="M119.29,92.5V90.75a1,1,0,0,1,1-1H121a.45.45,0,0,0,.34-.15.45.45,0,0,0,.15-.35V82.74a.47.47,0,0,0-.15-.35.45.45,0,0,0-.34-.15h-.25a.93.93,0,0,1-.7-.29,1,1,0,0,1-.28-.71V79.5a1,1,0,0,1,.28-.71.93.93,0,0,1,.7-.29h12a.91.91,0,0,1,.69.29,1,1,0,0,1,.28.71V92.62a1,1,0,0,1-.28.71.94.94,0,0,1-.69.29,1,1,0,0,1-.7-.29,1,1,0,0,1-.28-.71V82.74a.47.47,0,0,0-.15-.35.45.45,0,0,0-.34-.15h-7.33a.45.45,0,0,0-.34.15.47.47,0,0,0-.15.35V92.5a1,1,0,0,1-.28.7.94.94,0,0,1-.7.3h-2.2a.92.92,0,0,1-.69-.3A.93.93,0,0,1,119.29,92.5Z" transform="translate(0.38 0.38)"/><path class="cls-2" d="M136.15,92.5V90.75a1,1,0,0,1,1-1h1.72a.5.5,0,0,0,.48-.5V82.74a.46.46,0,0,0-.14-.35.45.45,0,0,0-.34-.15h-1.72a.91.91,0,0,1-.69-.29,1,1,0,0,1-.29-.71V79.5a.94.94,0,0,1,.29-.71.91.91,0,0,1,.69-.29h3.18a.91.91,0,0,1,.69.29,1,1,0,0,1,.28.71v9.75a.48.48,0,0,0,.14.35.47.47,0,0,0,.35.15h5.62a.45.45,0,0,0,.34-.15.45.45,0,0,0,.15-.35V82.74a.47.47,0,0,0-.15-.35.45.45,0,0,0-.34-.15h-1.71A.91.91,0,0,1,145,82a1,1,0,0,1-.29-.71V79.5a1,1,0,0,1,.29-.71.91.91,0,0,1,.69-.29h3.18a.91.91,0,0,1,.69.29,1,1,0,0,1,.28.71v13a1,1,0,0,1-.28.7.92.92,0,0,1-.69.3H137.13a.92.92,0,0,1-.69-.3A.93.93,0,0,1,136.15,92.5Z" transform="translate(0.38 0.38)"/><path class="cls-2" d="M152.27,81.24V79.5a.94.94,0,0,1,.29-.71.91.91,0,0,1,.69-.29h4.15a.91.91,0,0,1,.69.29,1,1,0,0,1,.29.71v6.75a1,1,0,0,1-.29.7.94.94,0,0,1-1.38,0,1,1,0,0,1-.28-.7V82.74a.46.46,0,0,0-.14-.35.47.47,0,0,0-.35-.15h-2.69a.91.91,0,0,1-.69-.29A1,1,0,0,1,152.27,81.24Z" transform="translate(0.38 0.38)"/><path class="cls-2" d="M160.81,92.5V90.75a1,1,0,0,1,.29-.71.94.94,0,0,1,.69-.29h9a.47.47,0,0,0,.35-.15.45.45,0,0,0,.14-.35V82.74a.46.46,0,0,0-.14-.35.47.47,0,0,0-.35-.15h-9a.91.91,0,0,1-.69-.29,1,1,0,0,1-.29-.71V79.5a1,1,0,0,1,.29-.71.91.91,0,0,1,.69-.29H172.3a.91.91,0,0,1,.69.29.94.94,0,0,1,.29.71v9.75a.48.48,0,0,0,.14.35.47.47,0,0,0,.35.15h.73a.94.94,0,0,1,.69.29,1,1,0,0,1,.29.71V92.5a1,1,0,0,1-.29.7.92.92,0,0,1-.69.3H161.79a.92.92,0,0,1-.69-.3A1,1,0,0,1,160.81,92.5Z" transform="translate(0.38 0.38)"/><path class="cls-2" d="M177.91,81.24V79.5a1,1,0,0,1,.29-.71.91.91,0,0,1,.69-.29h11.24a.91.91,0,0,1,.69.29,1,1,0,0,1,.29.71v13a1,1,0,0,1-.29.7.92.92,0,0,1-.69.3h-6.35a.92.92,0,0,1-.69-.3,1,1,0,0,1-.29-.7V90.75a1,1,0,0,1,.29-.71.94.94,0,0,1,.69-.29h4.89a.43.43,0,0,0,.34-.15.48.48,0,0,0,.14-.35V82.74a.5.5,0,0,0-.14-.35.43.43,0,0,0-.34-.15h-9.78a.91.91,0,0,1-.69-.29A1,1,0,0,1,177.91,81.24Zm0,16.26V85.79a1,1,0,0,1,.29-.7.92.92,0,0,1,.69-.3h.25a.92.92,0,0,1,.69.3,1,1,0,0,1,.29.7V97.5a1,1,0,0,1-.29.71.94.94,0,0,1-.69.29h-.25a.94.94,0,0,1-.69-.29A1,1,0,0,1,177.91,97.5Z" transform="translate(0.38 0.38)"/><path class="cls-2" d="M33.93,111.24V102a1,1,0,0,1,.29-.71.94.94,0,0,1,.69-.29h2a.94.94,0,0,1,.69.29,1,1,0,0,1,.29.71v1.75a1,1,0,0,1-.29.7.92.92,0,0,1-.69.3h-.49a.5.5,0,0,0-.35.14.52.52,0,0,0-.14.36V108a.52.52,0,0,0,.14.36.47.47,0,0,0,.35.15h10a.91.91,0,0,1,.69.29,1,1,0,0,1,.29.71v13a1,1,0,0,1-.29.7.92.92,0,0,1-.69.3H41a.92.92,0,0,1-.69-.3,1,1,0,0,1-.29-.7v-1.75a1,1,0,0,1,.29-.71.94.94,0,0,1,.69-.29h3.91a.47.47,0,0,0,.35-.15.5.5,0,0,0,.14-.35v-6.51a.5.5,0,0,0-.14-.35.47.47,0,0,0-.35-.15h-10a.94.94,0,0,1-.69-.29A1,1,0,0,1,33.93,111.24Z" transform="translate(0.38 0.38)"/><path class="cls-2" d="M49.81,111.24V109.5a1,1,0,0,1,.29-.71.91.91,0,0,1,.69-.29h4.15a.94.94,0,0,1,.7.29,1,1,0,0,1,.28.71v13.12a1,1,0,0,1-.28.71,1,1,0,0,1-.7.29.91.91,0,0,1-.68-.29,1,1,0,0,1-.28-.71v-9.88a.47.47,0,0,0-.15-.35.45.45,0,0,0-.34-.15h-2.7a.94.94,0,0,1-.69-.29A1,1,0,0,1,49.81,111.24Z" transform="translate(0.38 0.38)"/><path class="cls-2" d="M58.36,122.5v-1.75a1,1,0,0,1,.28-.71.94.94,0,0,1,.69-.29h9.54a.45.45,0,0,0,.34-.15.47.47,0,0,0,.15-.35v-6.51a.47.47,0,0,0-.15-.35.45.45,0,0,0-.34-.15H60.8a.45.45,0,0,0-.34.15.47.47,0,0,0-.15.35v.91a.47.47,0,0,0,.15.35.45.45,0,0,0,.34.15h.74a.91.91,0,0,1,.69.29.94.94,0,0,1,.29.71v1.74a.94.94,0,0,1-.29.71.91.91,0,0,1-.69.29H59.33a.91.91,0,0,1-.69-.29,1,1,0,0,1-.28-.71V109.5a1,1,0,0,1,.28-.71.91.91,0,0,1,.69-.29h11a.91.91,0,0,1,.69.29,1,1,0,0,1,.28.71v13a1,1,0,0,1-.28.7.92.92,0,0,1-.69.3h-11a.92.92,0,0,1-.69-.3A1,1,0,0,1,58.36,122.5Z" transform="translate(0.38 0.38)"/><path class="cls-2" d="M73.75,111.24V109.5a.94.94,0,0,1,.29-.71.91.91,0,0,1,.69-.29h4.15a.91.91,0,0,1,.69.29,1,1,0,0,1,.29.71v6.75a1,1,0,0,1-.29.7.94.94,0,0,1-1.38,0,1,1,0,0,1-.28-.7v-3.51a.46.46,0,0,0-.14-.35.47.47,0,0,0-.35-.15H74.73a1,1,0,0,1-1-1Z" transform="translate(0.38 0.38)"/><path class="cls-2" d="M82.29,122.5v-13a1,1,0,0,1,.29-.71.91.91,0,0,1,.69-.29h2a.91.91,0,0,1,.69.29,1,1,0,0,1,.29.71v1.74a1,1,0,0,1-.29.71.94.94,0,0,1-.69.29h-.49a.47.47,0,0,0-.35.15.5.5,0,0,0-.14.35v6.51a.5.5,0,0,0,.14.35.47.47,0,0,0,.35.15H94a.47.47,0,0,0,.35-.15.5.5,0,0,0,.14-.35v-6.51a.5.5,0,0,0-.14-.35.47.47,0,0,0-.35-.15H93.1a2.92,2.92,0,0,0-1.69.53l-1.92,1a.6.6,0,0,1-.69.06.78.78,0,0,1-.27-.68v-1.93a2.11,2.11,0,0,1,.16-.87,1.39,1.39,0,0,1,.56-.57L90.6,109a3.31,3.31,0,0,1,1.7-.52h3.19a.91.91,0,0,1,.69.29,1,1,0,0,1,.29.71v13a1,1,0,0,1-.29.7.92.92,0,0,1-.69.3H83.27a.92.92,0,0,1-.69-.3A1,1,0,0,1,82.29,122.5Z" transform="translate(0.38 0.38)"/><path class="cls-2" d="M98.9,111.24V109.5a1,1,0,0,1,.29-.71.91.91,0,0,1,.69-.29H104a.91.91,0,0,1,.69.29.94.94,0,0,1,.29.71v13.12a1,1,0,0,1-.29.71.94.94,0,0,1-.69.29.91.91,0,0,1-.68-.29,1,1,0,0,1-.28-.71v-9.88a.47.47,0,0,0-.15-.35.45.45,0,0,0-.34-.15h-2.7a.94.94,0,0,1-.69-.29A1,1,0,0,1,98.9,111.24Z" transform="translate(0.38 0.38)"/><path class="cls-2" d="M117.22,111.24V109.5a1,1,0,0,1,.28-.71.91.91,0,0,1,.7-.29h4.15a.91.91,0,0,1,.69.29,1,1,0,0,1,.29.71v6.75a1,1,0,0,1-.29.7.94.94,0,0,1-1.38,0,1,1,0,0,1-.28-.7v-3.51a.5.5,0,0,0-.14-.35.47.47,0,0,0-.35-.15H118.2a1,1,0,0,1-.7-.29A1,1,0,0,1,117.22,111.24Z" transform="translate(0.38 0.38)"/><path class="cls-2" d="M125.76,111.24V109.5a1,1,0,0,1,.29-.71.91.91,0,0,1,.69-.29h4.15a.91.91,0,0,1,.69.29,1,1,0,0,1,.29.71v13.12a1,1,0,0,1-.29.71.94.94,0,0,1-.69.29.91.91,0,0,1-.68-.29,1,1,0,0,1-.29-.71v-9.88a.46.46,0,0,0-.14-.35.45.45,0,0,0-.34-.15h-2.7a.94.94,0,0,1-.69-.29A1,1,0,0,1,125.76,111.24Z" transform="translate(0.38 0.38)"/><path class="cls-2" d="M134.3,122.5v-1.75a1,1,0,0,1,.29-.71.94.94,0,0,1,.69-.29h4.41a.45.45,0,0,0,.34-.15.46.46,0,0,0,.14-.35v-6.51a.46.46,0,0,0-.14-.35.45.45,0,0,0-.34-.15h-2.94a.94.94,0,0,1-.69-.29,1,1,0,0,1-.29-.71V109.5a1,1,0,0,1,.29-.71.91.91,0,0,1,.69-.29h4.4a.91.91,0,0,1,.69.29.94.94,0,0,1,.29.71v13a.93.93,0,0,1-.29.7.92.92,0,0,1-.69.3h-5.87a.92.92,0,0,1-.69-.3A1,1,0,0,1,134.3,122.5Z" transform="translate(0.38 0.38)"/><path class="cls-2" d="M144.57,111.24V109.5a1,1,0,0,1,.28-.71.91.91,0,0,1,.69-.29h4.16a.91.91,0,0,1,.69.29,1,1,0,0,1,.28.71v6.75a1,1,0,0,1-.28.7.94.94,0,0,1-1.38,0,1,1,0,0,1-.28-.7v-3.51a.5.5,0,0,0-.14-.35.47.47,0,0,0-.35-.15h-2.7a.94.94,0,0,1-.69-.29A1,1,0,0,1,144.57,111.24Z" transform="translate(0.38 0.38)"/><path class="cls-2" d="M153.11,122.5v-1.75a1,1,0,0,1,1-1h9.53a.47.47,0,0,0,.35-.15.5.5,0,0,0,.14-.35v-6.51a.5.5,0,0,0-.14-.35.47.47,0,0,0-.35-.15h-8.07a.45.45,0,0,0-.34.15.46.46,0,0,0-.14.35v.91a.46.46,0,0,0,.14.35.45.45,0,0,0,.34.15h.74a.93.93,0,0,1,.7.29,1,1,0,0,1,.28.71v1.74a1,1,0,0,1-.28.71.93.93,0,0,1-.7.29h-2.2a.91.91,0,0,1-.69-.29.94.94,0,0,1-.29-.71V109.5a.94.94,0,0,1,.29-.71.91.91,0,0,1,.69-.29h11a.91.91,0,0,1,.69.29,1,1,0,0,1,.29.71v13a1,1,0,0,1-.29.7.92.92,0,0,1-.69.3h-11a.92.92,0,0,1-.69-.3A.93.93,0,0,1,153.11,122.5Z" transform="translate(0.38 0.38)"/></svg>